M48
;DRILL file {KiCad 4.0.1-stable} date 31/08/2016 22:52:59
;FORMAT={-:-/ absolute / inch / decimal}
FMAT,2
INCH,TZ
T1C0.016
T2C0.032
T3C0.040
T4C0.087
T5C0.126
%
G90
G05
M72
T1
X5.4621Y-3.3312
X5.652Y-3.2823
X5.6693Y-2.9721
X5.689Y-3.3819
X5.7254Y-3.0421
X5.7254Y-3.3321
X5.7754Y-3.2821
X6.1207Y-2.9102
X6.1339Y-2.6063
X6.1339Y-2.6535
X6.1811Y-2.6063
X6.1811Y-2.6535
X6.2362Y-2.6063
X6.2362Y-2.6535
X6.2835Y-2.6063
X6.2835Y-2.6535
X6.3937Y-3.5079
X6.5071Y-3.6012
T2
X5.1071Y-2.8362
X5.2071Y-2.8362
X5.3071Y-2.8362
T3
X4.8071Y-2.8362
X4.8071Y-2.9362
X4.8071Y-3.2362
X4.8071Y-3.3362
X4.8071Y-3.4362
X5.2071Y-2.5362
X5.2071Y-2.6362
X5.3071Y-2.5362
X5.3071Y-2.6362
X5.3937Y-3.2189
X5.3937Y-4.0157
X5.4071Y-2.5362
X5.4071Y-2.6362
X5.6071Y-3.7362
X5.7071Y-3.7362
X5.8071Y-3.7362
X5.9843Y-2.6772
X5.9843Y-3.474
X6.6071Y-3.2362
X6.6071Y-3.3362
X6.6071Y-3.4362
X6.6071Y-3.7362
X6.6071Y-3.8362
X6.6071Y-3.9362
T4
X5.1378Y-3.3465
X6.2795Y-3.3465
T5
X4.8819Y-2.5197
X4.8819Y-4.1732
X6.5354Y-2.5197
X6.5354Y-4.1732
T0
M30
