M48
;DRILL file {KiCad 4.0.2-4+6225~38~ubuntu14.04.1-stable} date Thu 31 Mar 2016 13:36:15 BST
;FORMAT={-:-/ absolute / metric / decimal}
FMAT,2
METRIC,TZ
T1C0.400
T2C0.813
T3C1.016
T4C1.199
T5C2.200
T6C3.200
%
G90
G05
M71
T1
X130.6Y-94.5
X133.4Y-105.7
X139.33Y-84.636
X143.56Y-83.37
X144.Y-75.492
X144.5Y-85.9
X145.426Y-77.27
X145.426Y-84.636
X146.696Y-83.366
X150.2Y-85.7
X155.465Y-73.92
X155.8Y-66.2
X155.8Y-67.4
X157.Y-66.2
X157.Y-67.4
X158.4Y-66.2
X158.4Y-67.4
X159.6Y-66.2
X159.6Y-67.4
X162.4Y-89.1
T2
X127.96Y-72.1
X130.5Y-72.1
X133.04Y-72.1
T3
X123.Y-73.9
X123.Y-76.44
X123.Y-82.92
X123.Y-85.46
X123.Y-88.
X133.42Y-64.06
X133.42Y-66.6
X135.96Y-64.06
X135.96Y-66.6
X137.Y-81.76
X137.Y-102.
X138.5Y-64.06
X138.5Y-66.6
X142.42Y-94.9
X144.96Y-94.9
X147.5Y-94.9
X152.Y-68.
X152.Y-88.24
X167.Y-83.
X167.Y-85.54
X167.Y-88.08
T4
X166.Y-93.92
X166.Y-96.46
X166.Y-99.
T5
X130.5Y-85.
X159.5Y-85.
T6
X124.Y-64.
X124.Y-106.
X166.Y-64.
X166.Y-106.
T0
M30
