%TF.GenerationSoftware,KiCad,Pcbnew,4.0.2-4+6225~38~ubuntu14.04.1-stable*%
%TF.CreationDate,2016-03-29T13:51:17+01:00*%
%TF.ProjectId,rc_power_sockets,72635F706F7765725F736F636B657473,rev?*%
%TF.FileFunction,Copper,L1,Top,Signal*%
%FSLAX46Y46*%
G04 Gerber Fmt 4.6, Leading zero omitted, Abs format (unit mm)*
G04 Created by KiCad (PCBNEW 4.0.2-4+6225~38~ubuntu14.04.1-stable) date Tue 29 Mar 2016 13:51:17 BST*
%MOMM*%
G01*
G04 APERTURE LIST*
%ADD10C,0.100000*%
%ADD11C,2.286000*%
%ADD12R,1.143000X0.508000*%
%ADD13R,3.657600X2.032000*%
%ADD14R,1.016000X2.032000*%
%ADD15C,6.400000*%
%ADD16R,0.800100X1.800860*%
%ADD17R,1.800860X0.800100*%
%ADD18R,1.727200X2.032000*%
%ADD19O,1.727200X2.032000*%
%ADD20R,2.032000X1.727200*%
%ADD21O,2.032000X1.727200*%
%ADD22R,1.250000X1.500000*%
%ADD23R,1.500000X1.250000*%
%ADD24R,1.500000X1.300000*%
%ADD25C,1.998980*%
%ADD26R,1.727200X1.727200*%
%ADD27O,1.727200X1.727200*%
%ADD28R,1.300000X1.500000*%
%ADD29R,1.220000X0.910000*%
%ADD30R,2.032000X2.032000*%
%ADD31O,2.032000X2.032000*%
%ADD32C,4.400000*%
%ADD33C,0.750000*%
%ADD34C,0.406000*%
%ADD35C,0.250000*%
%ADD36C,0.813000*%
%ADD37C,0.254000*%
G04 APERTURE END LIST*
D10*
D11*
X152000000Y-65380000D03*
X152000000Y-88240000D03*
D12*
X148175000Y-82095000D03*
X148175000Y-83365000D03*
X148175000Y-84635000D03*
X148175000Y-85905000D03*
X141825000Y-85905000D03*
X141825000Y-84635000D03*
X141825000Y-83365000D03*
X141825000Y-82095000D03*
D11*
X137000000Y-104620000D03*
X137000000Y-81760000D03*
D13*
X157750000Y-63948000D03*
D14*
X157750000Y-70552000D03*
X160036000Y-70552000D03*
X155464000Y-70552000D03*
D15*
X166000000Y-64000000D03*
D16*
X151202000Y-99644860D03*
X149302000Y-99644860D03*
X150252000Y-102647140D03*
D17*
X129498860Y-97050000D03*
X129498860Y-98950000D03*
X132501140Y-98000000D03*
D18*
X147500000Y-94900000D03*
D19*
X144960000Y-94900000D03*
X142420000Y-94900000D03*
D20*
X123000000Y-88000000D03*
D21*
X123000000Y-85460000D03*
X123000000Y-82920000D03*
D22*
X152600000Y-71050000D03*
X152600000Y-68550000D03*
D23*
X162750000Y-70600000D03*
X165250000Y-70600000D03*
X147750000Y-79000000D03*
X150250000Y-79000000D03*
D24*
X154650000Y-99000000D03*
X157350000Y-99000000D03*
X132350000Y-94000000D03*
X129650000Y-94000000D03*
X154650000Y-103000000D03*
X157350000Y-103000000D03*
X140650000Y-79000000D03*
X143350000Y-79000000D03*
D25*
X166000000Y-96460000D03*
X166000000Y-93920000D03*
X166000000Y-99000000D03*
D26*
X138500000Y-66600000D03*
D27*
X138500000Y-64060000D03*
X135960000Y-66600000D03*
X135960000Y-64060000D03*
X133420000Y-66600000D03*
X133420000Y-64060000D03*
D20*
X167000000Y-83000000D03*
D21*
X167000000Y-85540000D03*
X167000000Y-88080000D03*
D15*
X166000000Y-106000000D03*
X124000000Y-106000000D03*
X124000000Y-64000000D03*
D28*
X131456000Y-69570000D03*
X131456000Y-72270000D03*
D29*
X159000000Y-95035000D03*
X159000000Y-91765000D03*
X156000000Y-95035000D03*
X156000000Y-91765000D03*
X137000000Y-90385000D03*
X137000000Y-87115000D03*
D30*
X134500000Y-75900000D03*
D31*
X137040000Y-75900000D03*
D32*
X130500000Y-85000000D03*
X159500000Y-85000000D03*
D33*
X155800000Y-66200000D03*
X155800000Y-67400000D03*
X159600000Y-67400000D03*
X159600000Y-66200000D03*
X157000000Y-67400000D03*
X157000000Y-66200000D03*
X158400000Y-66200000D03*
X158400000Y-67400000D03*
X143013000Y-89589000D03*
X142886000Y-75492000D03*
X146696000Y-83366000D03*
X145426000Y-77270000D03*
X145426000Y-84636000D03*
X139330000Y-84636000D03*
X150200000Y-85700000D03*
X155459000Y-73587000D03*
X131456000Y-74476000D03*
D34*
X157800000Y-68400000D02*
X152750000Y-68400000D01*
X152750000Y-68400000D02*
X152600000Y-68550000D01*
X165250000Y-70600000D02*
X165250000Y-69250000D01*
X164400000Y-68400000D02*
X157800000Y-68400000D01*
X157800000Y-68400000D02*
X157750000Y-68400000D01*
X165250000Y-69250000D02*
X164400000Y-68400000D01*
X167000000Y-83000000D02*
X167000000Y-75000000D01*
X167000000Y-75000000D02*
X165250000Y-73250000D01*
X165250000Y-73250000D02*
X165250000Y-70600000D01*
X157000000Y-66200000D02*
X155800000Y-66200000D01*
X158400000Y-66200000D02*
X159600000Y-66200000D01*
X157750000Y-67400000D02*
X157000000Y-67400000D01*
X157000000Y-66200000D02*
X158400000Y-66200000D01*
X158400000Y-67400000D02*
X157750000Y-67400000D01*
X141825000Y-85905000D02*
X141825000Y-88401000D01*
X141825000Y-88401000D02*
X143013000Y-89589000D01*
X149302000Y-99644860D02*
X148496860Y-99644860D01*
X147500000Y-98648000D02*
X147500000Y-94900000D01*
X148496860Y-99644860D02*
X147500000Y-98648000D01*
X147500000Y-95092000D02*
X147500000Y-94900000D01*
X152000000Y-65380000D02*
X152020000Y-65380000D01*
X152020000Y-65380000D02*
X153452000Y-63948000D01*
X153452000Y-63948000D02*
X157750000Y-63948000D01*
X157750000Y-63948000D02*
X156952000Y-63948000D01*
X157750000Y-63948000D02*
X158252000Y-63948000D01*
X164100000Y-62100000D02*
X166000000Y-64000000D01*
X157750000Y-63948000D02*
X156848000Y-63948000D01*
X157750000Y-70552000D02*
X157750000Y-76250000D01*
X155000000Y-79000000D02*
X150250000Y-79000000D01*
X157750000Y-76250000D02*
X155000000Y-79000000D01*
X157750000Y-70552000D02*
X157750000Y-68400000D01*
X157750000Y-68400000D02*
X157750000Y-68600000D01*
X157750000Y-67700000D02*
X157750000Y-67400000D01*
X157750000Y-68600000D02*
X157750000Y-67700000D01*
X157750000Y-67400000D02*
X157750000Y-63948000D01*
X157350000Y-103000000D02*
X163000000Y-103000000D01*
X163000000Y-103000000D02*
X166000000Y-106000000D01*
X135960000Y-68566000D02*
X135960000Y-66600000D01*
X142886000Y-75492000D02*
X135960000Y-68566000D01*
X148175000Y-83365000D02*
X146697000Y-83365000D01*
X146697000Y-83365000D02*
X146696000Y-83366000D01*
X148175000Y-83365000D02*
X152465000Y-83365000D01*
X159000000Y-89900000D02*
X159000000Y-91765000D01*
X152465000Y-83365000D02*
X159000000Y-89900000D01*
X144960000Y-94900000D02*
X144960000Y-94440000D01*
X148175000Y-84635000D02*
X145427000Y-84635000D01*
X138500000Y-68312000D02*
X138500000Y-66600000D01*
X145426000Y-75238000D02*
X138500000Y-68312000D01*
X145426000Y-77270000D02*
X145426000Y-75238000D01*
X145427000Y-84635000D02*
X145426000Y-84636000D01*
X148175000Y-84635000D02*
X152235000Y-84635000D01*
X156000000Y-88400000D02*
X156000000Y-91765000D01*
X152235000Y-84635000D02*
X156000000Y-88400000D01*
X133420000Y-66600000D02*
X133420000Y-69320000D01*
X140650000Y-76550000D02*
X140650000Y-79000000D01*
X133420000Y-69320000D02*
X140650000Y-76550000D01*
X141825000Y-82095000D02*
X141825000Y-81325000D01*
X140650000Y-80150000D02*
X140650000Y-79000000D01*
X141825000Y-81325000D02*
X140650000Y-80150000D01*
X141825000Y-84635000D02*
X139331000Y-84635000D01*
X139331000Y-84635000D02*
X139330000Y-84636000D01*
X150200000Y-85700000D02*
X150100000Y-85700000D01*
X150100000Y-85700000D02*
X150200000Y-85700000D01*
X141825000Y-84635000D02*
X143035000Y-84635000D01*
X150200000Y-85700000D02*
X150200000Y-85700000D01*
X150100000Y-85700000D02*
X150200000Y-85700000D01*
X149300000Y-87100000D02*
X150100000Y-85700000D01*
X148600000Y-87100000D02*
X149300000Y-87100000D01*
X143900000Y-87100000D02*
X148600000Y-87100000D01*
X143400000Y-86600000D02*
X143900000Y-87100000D01*
X143400000Y-85000000D02*
X143400000Y-86600000D01*
X143035000Y-84635000D02*
X143400000Y-85000000D01*
X135960000Y-64140000D02*
X134700000Y-65400000D01*
X144605000Y-85905000D02*
X148175000Y-85905000D01*
X144300000Y-85400000D02*
X144605000Y-85905000D01*
X144300000Y-82100000D02*
X144300000Y-85400000D01*
X142000000Y-80000000D02*
X144300000Y-82100000D01*
X142000000Y-76600000D02*
X142000000Y-80000000D01*
X134700000Y-69300000D02*
X142000000Y-76600000D01*
D35*
X134700000Y-65400000D02*
X134700000Y-69300000D01*
D34*
X135960000Y-64060000D02*
X135960000Y-63460000D01*
X135960000Y-63460000D02*
X134900000Y-62400000D01*
X131400000Y-63200000D02*
X131400000Y-69650000D01*
X132200000Y-62400000D02*
X131400000Y-63200000D01*
X134900000Y-62400000D02*
X132200000Y-62400000D01*
X135960000Y-64060000D02*
X135960000Y-64140000D01*
X141825000Y-83365000D02*
X138835000Y-83365000D01*
X163360000Y-96460000D02*
X166000000Y-96460000D01*
X160300000Y-93400000D02*
X163360000Y-96460000D01*
X150800000Y-93400000D02*
X160300000Y-93400000D01*
X149200000Y-91800000D02*
X150800000Y-93400000D01*
X143200000Y-91800000D02*
X149200000Y-91800000D01*
X139600000Y-88200000D02*
X143200000Y-91800000D01*
X139600000Y-86900000D02*
X139600000Y-88200000D01*
X138300000Y-85600000D02*
X139600000Y-86900000D01*
X138300000Y-83900000D02*
X138300000Y-85600000D01*
X138835000Y-83365000D02*
X138300000Y-83900000D01*
D36*
X155464000Y-73582000D02*
X155464000Y-70552000D01*
X155459000Y-73587000D02*
X155464000Y-73582000D01*
X123000000Y-85460000D02*
X124260000Y-85460000D01*
X127850000Y-98950000D02*
X129498860Y-98950000D01*
X126800000Y-97900000D02*
X127850000Y-98950000D01*
X126800000Y-88000000D02*
X126800000Y-97900000D01*
X124260000Y-85460000D02*
X126800000Y-88000000D01*
X123000000Y-85460000D02*
X123340000Y-85460000D01*
X123340000Y-85460000D02*
X124500000Y-84300000D01*
X125600000Y-83100000D02*
X125600000Y-83070000D01*
X125570000Y-83100000D02*
X125600000Y-83100000D01*
X124500000Y-84300000D02*
X125570000Y-83100000D01*
X152750000Y-71000000D02*
X146600000Y-71000000D01*
X139660000Y-64060000D02*
X138500000Y-64060000D01*
X146600000Y-71000000D02*
X139660000Y-64060000D01*
X152750000Y-71000000D02*
X155016000Y-71000000D01*
X155016000Y-71000000D02*
X155464000Y-70552000D01*
X125600000Y-83070000D02*
X129700000Y-79300000D01*
X129700000Y-79300000D02*
X129600000Y-62800000D01*
X129600000Y-62800000D02*
X131150000Y-61550000D01*
X131150000Y-61550000D02*
X137650000Y-61550000D01*
X137650000Y-61550000D02*
X138500000Y-62500000D01*
X138500000Y-62500000D02*
X138500000Y-64060000D01*
X162750000Y-70550000D02*
X162750000Y-78350000D01*
X162750000Y-78350000D02*
X164100000Y-79700000D01*
X164100000Y-79700000D02*
X164100000Y-92020000D01*
X147750000Y-79000000D02*
X147750000Y-81670000D01*
X147750000Y-81670000D02*
X148175000Y-82095000D01*
X164100000Y-92020000D02*
X166000000Y-93920000D01*
X160036000Y-70552000D02*
X160036000Y-78564000D01*
X156505000Y-82095000D02*
X148175000Y-82095000D01*
X160036000Y-78564000D02*
X156505000Y-82095000D01*
X162750000Y-70550000D02*
X160034000Y-70550000D01*
X160034000Y-70550000D02*
X160036000Y-70552000D01*
X147750000Y-79000000D02*
X143350000Y-79000000D01*
D34*
X154650000Y-99000000D02*
X152906000Y-99000000D01*
X152261140Y-99644860D02*
X151202000Y-99644860D01*
X152906000Y-99000000D02*
X152261140Y-99644860D01*
X154650000Y-103000000D02*
X154650000Y-99000000D01*
X129498860Y-97050000D02*
X129900000Y-97050000D01*
X129900000Y-97050000D02*
X130948000Y-98098000D01*
X147435140Y-102647140D02*
X150252000Y-102647140D01*
X145680000Y-100892000D02*
X147435140Y-102647140D01*
X132472000Y-100892000D02*
X145680000Y-100892000D01*
X130948000Y-99368000D02*
X132472000Y-100892000D01*
X130948000Y-98098000D02*
X130948000Y-99368000D01*
X129498860Y-97050000D02*
X130050000Y-97050000D01*
X129498860Y-97050000D02*
X129498860Y-94151140D01*
X129498860Y-94151140D02*
X129650000Y-94000000D01*
X156000000Y-95035000D02*
X156000000Y-96100000D01*
X157350000Y-97450000D02*
X157350000Y-99000000D01*
X156000000Y-96100000D02*
X157350000Y-97450000D01*
X159000000Y-95035000D02*
X156000000Y-95035000D01*
X157000000Y-98650000D02*
X157350000Y-99000000D01*
X157000000Y-98650000D02*
X157350000Y-99000000D01*
X157000000Y-98650000D02*
X157350000Y-99000000D01*
D36*
X132350000Y-94000000D02*
X132350000Y-97848860D01*
X132350000Y-97848860D02*
X132501140Y-98000000D01*
X142420000Y-94900000D02*
X142420000Y-92920000D01*
X142420000Y-92920000D02*
X139885000Y-90385000D01*
X139885000Y-90385000D02*
X137000000Y-90385000D01*
X137000000Y-90385000D02*
X137000000Y-92000000D01*
X135000000Y-94000000D02*
X132350000Y-94000000D01*
X137000000Y-92000000D02*
X135000000Y-94000000D01*
X142500000Y-94580000D02*
X142420000Y-94500000D01*
D34*
X131456000Y-72270000D02*
X131456000Y-74476000D01*
D36*
X137040000Y-75900000D02*
X137040000Y-81720000D01*
X137040000Y-81720000D02*
X137000000Y-81760000D01*
X136750000Y-81510000D02*
X137000000Y-81760000D01*
X137000000Y-87115000D02*
X137000000Y-81760000D01*
D37*
G36*
X121849754Y-60734181D02*
X121805640Y-60763657D01*
X121438695Y-61259090D01*
X124000000Y-63820395D01*
X126561305Y-61259090D01*
X126194360Y-60763657D01*
X126067266Y-60710000D01*
X130552127Y-60710000D01*
X130496196Y-60739283D01*
X128946196Y-61989283D01*
X128908195Y-62034787D01*
X128859098Y-62068025D01*
X128778987Y-62189506D01*
X128685715Y-62301195D01*
X128668020Y-62357780D01*
X128635381Y-62407274D01*
X128607858Y-62550165D01*
X128564427Y-62689046D01*
X128569733Y-62748095D01*
X128558519Y-62806312D01*
X128655725Y-78845353D01*
X124895048Y-82303342D01*
X124881976Y-82321235D01*
X124863548Y-82333548D01*
X124851532Y-82351532D01*
X124833548Y-82363548D01*
X124816763Y-82388668D01*
X124792646Y-82406860D01*
X124619827Y-82600675D01*
X124569271Y-82346511D01*
X124244415Y-81860330D01*
X123758234Y-81535474D01*
X123184745Y-81421400D01*
X122815255Y-81421400D01*
X122241766Y-81535474D01*
X121755585Y-81860330D01*
X121430729Y-82346511D01*
X121316655Y-82920000D01*
X121430729Y-83493489D01*
X121755585Y-83979670D01*
X122070366Y-84190000D01*
X121755585Y-84400330D01*
X121430729Y-84886511D01*
X121316655Y-85460000D01*
X121430729Y-86033489D01*
X121755585Y-86519670D01*
X121777780Y-86534500D01*
X121624301Y-86598073D01*
X121445673Y-86776702D01*
X121349000Y-87010091D01*
X121349000Y-87714250D01*
X121507750Y-87873000D01*
X122873000Y-87873000D01*
X122873000Y-87853000D01*
X123127000Y-87853000D01*
X123127000Y-87873000D01*
X124492250Y-87873000D01*
X124651000Y-87714250D01*
X124651000Y-87323904D01*
X125758500Y-88431403D01*
X125758500Y-97900000D01*
X125837779Y-98298565D01*
X126063548Y-98636452D01*
X127113548Y-99686452D01*
X127451435Y-99912221D01*
X127850000Y-99991500D01*
X128568850Y-99991500D01*
X128598430Y-99997490D01*
X130392380Y-99997490D01*
X131879444Y-101484555D01*
X132151311Y-101666211D01*
X132472000Y-101730000D01*
X145332890Y-101730000D01*
X146842585Y-103239696D01*
X146963800Y-103320689D01*
X147114451Y-103421351D01*
X147435140Y-103485140D01*
X149204510Y-103485140D01*
X149204510Y-103547570D01*
X149248788Y-103782887D01*
X149387860Y-103999011D01*
X149600060Y-104144001D01*
X149851950Y-104195010D01*
X150652050Y-104195010D01*
X150887367Y-104150732D01*
X151103491Y-104011660D01*
X151248481Y-103799460D01*
X151299490Y-103547570D01*
X151299490Y-101746710D01*
X151255212Y-101511393D01*
X151116140Y-101295269D01*
X150966069Y-101192730D01*
X151602050Y-101192730D01*
X151837367Y-101148452D01*
X152053491Y-101009380D01*
X152198481Y-100797180D01*
X152249490Y-100545290D01*
X152249490Y-100482860D01*
X152261140Y-100482860D01*
X152581829Y-100419071D01*
X152853695Y-100237415D01*
X153253111Y-99838000D01*
X153287935Y-99838000D01*
X153296838Y-99885317D01*
X153435910Y-100101441D01*
X153648110Y-100246431D01*
X153812000Y-100279620D01*
X153812000Y-101719118D01*
X153664683Y-101746838D01*
X153448559Y-101885910D01*
X153303569Y-102098110D01*
X153252560Y-102350000D01*
X153252560Y-103650000D01*
X153296838Y-103885317D01*
X153435910Y-104101441D01*
X153648110Y-104246431D01*
X153900000Y-104297440D01*
X155400000Y-104297440D01*
X155635317Y-104253162D01*
X155851441Y-104114090D01*
X155996431Y-103901890D01*
X156003191Y-103868510D01*
X156061673Y-104009699D01*
X156240302Y-104188327D01*
X156473691Y-104285000D01*
X157064250Y-104285000D01*
X157223000Y-104126250D01*
X157223000Y-103127000D01*
X157477000Y-103127000D01*
X157477000Y-104126250D01*
X157635750Y-104285000D01*
X158226309Y-104285000D01*
X158459698Y-104188327D01*
X158638327Y-104009699D01*
X158735000Y-103776310D01*
X158735000Y-103285750D01*
X158708340Y-103259090D01*
X163438695Y-103259090D01*
X166000000Y-105820395D01*
X168561305Y-103259090D01*
X168194360Y-102763657D01*
X166788829Y-102170264D01*
X165263207Y-102159913D01*
X163849754Y-102734181D01*
X163805640Y-102763657D01*
X163438695Y-103259090D01*
X158708340Y-103259090D01*
X158576250Y-103127000D01*
X157477000Y-103127000D01*
X157223000Y-103127000D01*
X157203000Y-103127000D01*
X157203000Y-102873000D01*
X157223000Y-102873000D01*
X157223000Y-101873750D01*
X157477000Y-101873750D01*
X157477000Y-102873000D01*
X158576250Y-102873000D01*
X158735000Y-102714250D01*
X158735000Y-102223690D01*
X158638327Y-101990301D01*
X158459698Y-101811673D01*
X158226309Y-101715000D01*
X157635750Y-101715000D01*
X157477000Y-101873750D01*
X157223000Y-101873750D01*
X157064250Y-101715000D01*
X156473691Y-101715000D01*
X156240302Y-101811673D01*
X156061673Y-101990301D01*
X156005346Y-102126287D01*
X156003162Y-102114683D01*
X155864090Y-101898559D01*
X155651890Y-101753569D01*
X155488000Y-101720380D01*
X155488000Y-100280882D01*
X155635317Y-100253162D01*
X155851441Y-100114090D01*
X155996431Y-99901890D01*
X155999081Y-99888803D01*
X156135910Y-100101441D01*
X156348110Y-100246431D01*
X156600000Y-100297440D01*
X158100000Y-100297440D01*
X158335317Y-100253162D01*
X158492273Y-100152163D01*
X165027443Y-100152163D01*
X165126042Y-100418965D01*
X165735582Y-100645401D01*
X166385377Y-100621341D01*
X166873958Y-100418965D01*
X166972557Y-100152163D01*
X166000000Y-99179605D01*
X165027443Y-100152163D01*
X158492273Y-100152163D01*
X158551441Y-100114090D01*
X158696431Y-99901890D01*
X158747440Y-99650000D01*
X158747440Y-98735582D01*
X164354599Y-98735582D01*
X164378659Y-99385377D01*
X164581035Y-99873958D01*
X164847837Y-99972557D01*
X165820395Y-99000000D01*
X166179605Y-99000000D01*
X167152163Y-99972557D01*
X167418965Y-99873958D01*
X167645401Y-99264418D01*
X167621341Y-98614623D01*
X167418965Y-98126042D01*
X167152163Y-98027443D01*
X166179605Y-99000000D01*
X165820395Y-99000000D01*
X164847837Y-98027443D01*
X164581035Y-98126042D01*
X164354599Y-98735582D01*
X158747440Y-98735582D01*
X158747440Y-98350000D01*
X158703162Y-98114683D01*
X158564090Y-97898559D01*
X158351890Y-97753569D01*
X158188000Y-97720380D01*
X158188000Y-97450000D01*
X158124211Y-97129311D01*
X158006076Y-96952510D01*
X157942555Y-96857444D01*
X157047908Y-95962798D01*
X157061441Y-95954090D01*
X157116847Y-95873000D01*
X157881869Y-95873000D01*
X157925910Y-95941441D01*
X158138110Y-96086431D01*
X158390000Y-96137440D01*
X159610000Y-96137440D01*
X159845317Y-96093162D01*
X160061441Y-95954090D01*
X160206431Y-95741890D01*
X160257440Y-95490000D01*
X160257440Y-94580000D01*
X160248760Y-94533870D01*
X162767445Y-97052556D01*
X163039312Y-97234212D01*
X163360000Y-97298000D01*
X164577733Y-97298000D01*
X164613538Y-97384655D01*
X165040539Y-97812401D01*
X165027443Y-97847837D01*
X166000000Y-98820395D01*
X166972557Y-97847837D01*
X166959276Y-97811901D01*
X167384846Y-97387073D01*
X167634206Y-96786547D01*
X167634774Y-96136306D01*
X167386462Y-95535345D01*
X167041520Y-95189801D01*
X167384846Y-94847073D01*
X167634206Y-94246547D01*
X167634774Y-93596306D01*
X167386462Y-92995345D01*
X166927073Y-92535154D01*
X166326547Y-92285794D01*
X165838271Y-92285367D01*
X165141500Y-91588596D01*
X165141500Y-85540000D01*
X165316655Y-85540000D01*
X165430729Y-86113489D01*
X165755585Y-86599670D01*
X166070366Y-86810000D01*
X165755585Y-87020330D01*
X165430729Y-87506511D01*
X165316655Y-88080000D01*
X165430729Y-88653489D01*
X165755585Y-89139670D01*
X166241766Y-89464526D01*
X166815255Y-89578600D01*
X167184745Y-89578600D01*
X167758234Y-89464526D01*
X168244415Y-89139670D01*
X168569271Y-88653489D01*
X168683345Y-88080000D01*
X168569271Y-87506511D01*
X168244415Y-87020330D01*
X167929634Y-86810000D01*
X168244415Y-86599670D01*
X168569271Y-86113489D01*
X168683345Y-85540000D01*
X168569271Y-84966511D01*
X168244415Y-84480330D01*
X168222220Y-84465500D01*
X168375699Y-84401927D01*
X168554327Y-84223298D01*
X168651000Y-83989909D01*
X168651000Y-83285750D01*
X168492250Y-83127000D01*
X167127000Y-83127000D01*
X167127000Y-83147000D01*
X166873000Y-83147000D01*
X166873000Y-83127000D01*
X165507750Y-83127000D01*
X165349000Y-83285750D01*
X165349000Y-83989909D01*
X165445673Y-84223298D01*
X165624301Y-84401927D01*
X165777780Y-84465500D01*
X165755585Y-84480330D01*
X165430729Y-84966511D01*
X165316655Y-85540000D01*
X165141500Y-85540000D01*
X165141500Y-82010091D01*
X165349000Y-82010091D01*
X165349000Y-82714250D01*
X165507750Y-82873000D01*
X166873000Y-82873000D01*
X166873000Y-81660150D01*
X167127000Y-81660150D01*
X167127000Y-82873000D01*
X168492250Y-82873000D01*
X168651000Y-82714250D01*
X168651000Y-82010091D01*
X168554327Y-81776702D01*
X168375699Y-81598073D01*
X168142310Y-81501400D01*
X167285750Y-81501400D01*
X167127000Y-81660150D01*
X166873000Y-81660150D01*
X166714250Y-81501400D01*
X165857690Y-81501400D01*
X165624301Y-81598073D01*
X165445673Y-81776702D01*
X165349000Y-82010091D01*
X165141500Y-82010091D01*
X165141500Y-79700000D01*
X165062221Y-79301435D01*
X164836452Y-78963548D01*
X164836449Y-78963546D01*
X163791500Y-77918596D01*
X163791500Y-71792009D01*
X163951441Y-71689090D01*
X163997969Y-71620994D01*
X164140302Y-71763327D01*
X164373691Y-71860000D01*
X164964250Y-71860000D01*
X165123000Y-71701250D01*
X165123000Y-70727000D01*
X165377000Y-70727000D01*
X165377000Y-71701250D01*
X165535750Y-71860000D01*
X166126309Y-71860000D01*
X166359698Y-71763327D01*
X166538327Y-71584699D01*
X166635000Y-71351310D01*
X166635000Y-70885750D01*
X166476250Y-70727000D01*
X165377000Y-70727000D01*
X165123000Y-70727000D01*
X165103000Y-70727000D01*
X165103000Y-70473000D01*
X165123000Y-70473000D01*
X165123000Y-69498750D01*
X165377000Y-69498750D01*
X165377000Y-70473000D01*
X166476250Y-70473000D01*
X166635000Y-70314250D01*
X166635000Y-69848690D01*
X166538327Y-69615301D01*
X166359698Y-69436673D01*
X166126309Y-69340000D01*
X165535750Y-69340000D01*
X165377000Y-69498750D01*
X165123000Y-69498750D01*
X164964250Y-69340000D01*
X164373691Y-69340000D01*
X164140302Y-69436673D01*
X163999064Y-69577910D01*
X163964090Y-69523559D01*
X163751890Y-69378569D01*
X163500000Y-69327560D01*
X162000000Y-69327560D01*
X161764683Y-69371838D01*
X161552304Y-69508500D01*
X161186266Y-69508500D01*
X161147162Y-69300683D01*
X161008090Y-69084559D01*
X160795890Y-68939569D01*
X160544000Y-68888560D01*
X159528000Y-68888560D01*
X159292683Y-68932838D01*
X159076559Y-69071910D01*
X158931569Y-69284110D01*
X158893000Y-69474569D01*
X158893000Y-69409690D01*
X158796327Y-69176301D01*
X158617698Y-68997673D01*
X158384309Y-68901000D01*
X158035750Y-68901000D01*
X157877000Y-69059750D01*
X157877000Y-70425000D01*
X157897000Y-70425000D01*
X157897000Y-70679000D01*
X157877000Y-70679000D01*
X157877000Y-72044250D01*
X158035750Y-72203000D01*
X158384309Y-72203000D01*
X158617698Y-72106327D01*
X158796327Y-71927699D01*
X158893000Y-71694310D01*
X158893000Y-71634113D01*
X158924838Y-71803317D01*
X158994500Y-71911575D01*
X158994500Y-78132596D01*
X156073596Y-81053500D01*
X148791500Y-81053500D01*
X148791500Y-80192009D01*
X148951441Y-80089090D01*
X148997969Y-80020994D01*
X149140302Y-80163327D01*
X149373691Y-80260000D01*
X149964250Y-80260000D01*
X150123000Y-80101250D01*
X150123000Y-79127000D01*
X150377000Y-79127000D01*
X150377000Y-80101250D01*
X150535750Y-80260000D01*
X151126309Y-80260000D01*
X151359698Y-80163327D01*
X151538327Y-79984699D01*
X151635000Y-79751310D01*
X151635000Y-79285750D01*
X151476250Y-79127000D01*
X150377000Y-79127000D01*
X150123000Y-79127000D01*
X150103000Y-79127000D01*
X150103000Y-78873000D01*
X150123000Y-78873000D01*
X150123000Y-77898750D01*
X150377000Y-77898750D01*
X150377000Y-78873000D01*
X151476250Y-78873000D01*
X151635000Y-78714250D01*
X151635000Y-78248690D01*
X151538327Y-78015301D01*
X151359698Y-77836673D01*
X151126309Y-77740000D01*
X150535750Y-77740000D01*
X150377000Y-77898750D01*
X150123000Y-77898750D01*
X149964250Y-77740000D01*
X149373691Y-77740000D01*
X149140302Y-77836673D01*
X148999064Y-77977910D01*
X148964090Y-77923559D01*
X148751890Y-77778569D01*
X148500000Y-77727560D01*
X147000000Y-77727560D01*
X146764683Y-77771838D01*
X146548559Y-77910910D01*
X146516042Y-77958500D01*
X146165901Y-77958500D01*
X146281737Y-77842866D01*
X146435824Y-77471783D01*
X146436175Y-77069980D01*
X146282736Y-76698628D01*
X146264000Y-76679859D01*
X146264000Y-75238000D01*
X146200211Y-74917311D01*
X146093556Y-74757691D01*
X146018555Y-74645444D01*
X139465059Y-68091949D01*
X139598917Y-68066762D01*
X139815041Y-67927690D01*
X139960031Y-67715490D01*
X140011040Y-67463600D01*
X140011040Y-65883944D01*
X145863548Y-71736452D01*
X146201435Y-71962221D01*
X146600000Y-72041500D01*
X151375817Y-72041500D01*
X151510910Y-72251441D01*
X151723110Y-72396431D01*
X151975000Y-72447440D01*
X153225000Y-72447440D01*
X153460317Y-72403162D01*
X153676441Y-72264090D01*
X153821431Y-72051890D01*
X153823535Y-72041500D01*
X154422500Y-72041500D01*
X154422500Y-73561863D01*
X154417500Y-73587000D01*
X154448862Y-73744668D01*
X154448825Y-73787020D01*
X154465141Y-73826507D01*
X154496779Y-73985565D01*
X154586091Y-74119229D01*
X154602264Y-74158372D01*
X154632449Y-74188610D01*
X154722548Y-74323452D01*
X154856214Y-74412765D01*
X154886134Y-74442737D01*
X154925591Y-74459121D01*
X155060435Y-74549221D01*
X155218105Y-74580583D01*
X155257217Y-74596824D01*
X155299941Y-74596861D01*
X155459000Y-74628500D01*
X155616668Y-74597138D01*
X155659020Y-74597175D01*
X155698507Y-74580859D01*
X155857565Y-74549221D01*
X155991229Y-74459909D01*
X156030372Y-74443736D01*
X156060610Y-74413551D01*
X156195452Y-74323452D01*
X156200452Y-74318452D01*
X156289747Y-74184812D01*
X156314737Y-74159866D01*
X156328397Y-74126969D01*
X156426221Y-73980565D01*
X156460272Y-73809379D01*
X156468824Y-73788783D01*
X156468844Y-73766285D01*
X156505500Y-73582000D01*
X156505500Y-71911993D01*
X156568431Y-71819890D01*
X156607000Y-71629431D01*
X156607000Y-71694310D01*
X156703673Y-71927699D01*
X156882302Y-72106327D01*
X157115691Y-72203000D01*
X157464250Y-72203000D01*
X157623000Y-72044250D01*
X157623000Y-70679000D01*
X157603000Y-70679000D01*
X157603000Y-70425000D01*
X157623000Y-70425000D01*
X157623000Y-69059750D01*
X157464250Y-68901000D01*
X157115691Y-68901000D01*
X156882302Y-68997673D01*
X156703673Y-69176301D01*
X156607000Y-69409690D01*
X156607000Y-69469887D01*
X156575162Y-69300683D01*
X156436090Y-69084559D01*
X156223890Y-68939569D01*
X155972000Y-68888560D01*
X154956000Y-68888560D01*
X154720683Y-68932838D01*
X154504559Y-69071910D01*
X154359569Y-69284110D01*
X154308560Y-69536000D01*
X154308560Y-69958500D01*
X153759835Y-69958500D01*
X153689090Y-69848559D01*
X153620994Y-69802031D01*
X153763327Y-69659698D01*
X153860000Y-69426309D01*
X153860000Y-68835750D01*
X153701250Y-68677000D01*
X152727000Y-68677000D01*
X152727000Y-68697000D01*
X152473000Y-68697000D01*
X152473000Y-68677000D01*
X151498750Y-68677000D01*
X151340000Y-68835750D01*
X151340000Y-69426309D01*
X151436673Y-69659698D01*
X151577910Y-69800936D01*
X151523559Y-69835910D01*
X151439797Y-69958500D01*
X147031404Y-69958500D01*
X144746595Y-67673691D01*
X151340000Y-67673691D01*
X151340000Y-68264250D01*
X151498750Y-68423000D01*
X152473000Y-68423000D01*
X152473000Y-67323750D01*
X152727000Y-67323750D01*
X152727000Y-68423000D01*
X153701250Y-68423000D01*
X153860000Y-68264250D01*
X153860000Y-67673691D01*
X153763327Y-67440302D01*
X153584699Y-67261673D01*
X153351310Y-67165000D01*
X152885750Y-67165000D01*
X152727000Y-67323750D01*
X152473000Y-67323750D01*
X152314250Y-67165000D01*
X151848690Y-67165000D01*
X151615301Y-67261673D01*
X151436673Y-67440302D01*
X151340000Y-67673691D01*
X144746595Y-67673691D01*
X143708867Y-66635963D01*
X150923642Y-66635963D01*
X151039806Y-66917658D01*
X151701333Y-67168062D01*
X152408329Y-67146249D01*
X152960194Y-66917658D01*
X153033080Y-66740910D01*
X163438695Y-66740910D01*
X163805640Y-67236343D01*
X165211171Y-67829736D01*
X166736793Y-67840087D01*
X168150246Y-67265819D01*
X168194360Y-67236343D01*
X168561305Y-66740910D01*
X166000000Y-64179605D01*
X163438695Y-66740910D01*
X153033080Y-66740910D01*
X153076358Y-66635963D01*
X152000000Y-65559605D01*
X150923642Y-66635963D01*
X143708867Y-66635963D01*
X142154237Y-65081333D01*
X150211938Y-65081333D01*
X150233751Y-65788329D01*
X150462342Y-66340194D01*
X150744037Y-66456358D01*
X151820395Y-65380000D01*
X152179605Y-65380000D01*
X153255963Y-66456358D01*
X153537658Y-66340194D01*
X153788062Y-65678667D01*
X153766249Y-64971671D01*
X153537658Y-64419806D01*
X153255963Y-64303642D01*
X152179605Y-65380000D01*
X151820395Y-65380000D01*
X150744037Y-64303642D01*
X150462342Y-64419806D01*
X150211938Y-65081333D01*
X142154237Y-65081333D01*
X141196941Y-64124037D01*
X150923642Y-64124037D01*
X152000000Y-65200395D01*
X152966645Y-64233750D01*
X155286200Y-64233750D01*
X155286200Y-65090310D01*
X155382873Y-65323699D01*
X155561502Y-65502327D01*
X155794891Y-65599000D01*
X157464250Y-65599000D01*
X157623000Y-65440250D01*
X157623000Y-64075000D01*
X157877000Y-64075000D01*
X157877000Y-65440250D01*
X158035750Y-65599000D01*
X159705109Y-65599000D01*
X159938498Y-65502327D01*
X160117127Y-65323699D01*
X160213800Y-65090310D01*
X160213800Y-64736793D01*
X162159913Y-64736793D01*
X162734181Y-66150246D01*
X162763657Y-66194360D01*
X163259090Y-66561305D01*
X165820395Y-64000000D01*
X163259090Y-61438695D01*
X162763657Y-61805640D01*
X162170264Y-63211171D01*
X162159913Y-64736793D01*
X160213800Y-64736793D01*
X160213800Y-64233750D01*
X160055050Y-64075000D01*
X157877000Y-64075000D01*
X157623000Y-64075000D01*
X155444950Y-64075000D01*
X155286200Y-64233750D01*
X152966645Y-64233750D01*
X153076358Y-64124037D01*
X152960194Y-63842342D01*
X152298667Y-63591938D01*
X151591671Y-63613751D01*
X151039806Y-63842342D01*
X150923642Y-64124037D01*
X141196941Y-64124037D01*
X140396452Y-63323548D01*
X140058565Y-63097779D01*
X139660000Y-63018500D01*
X139591428Y-63018500D01*
X139559670Y-62970971D01*
X139541500Y-62958830D01*
X139541500Y-62805690D01*
X155286200Y-62805690D01*
X155286200Y-63662250D01*
X155444950Y-63821000D01*
X157623000Y-63821000D01*
X157623000Y-62455750D01*
X157877000Y-62455750D01*
X157877000Y-63821000D01*
X160055050Y-63821000D01*
X160213800Y-63662250D01*
X160213800Y-62805690D01*
X160117127Y-62572301D01*
X159938498Y-62393673D01*
X159705109Y-62297000D01*
X158035750Y-62297000D01*
X157877000Y-62455750D01*
X157623000Y-62455750D01*
X157464250Y-62297000D01*
X155794891Y-62297000D01*
X155561502Y-62393673D01*
X155382873Y-62572301D01*
X155286200Y-62805690D01*
X139541500Y-62805690D01*
X139541500Y-62500000D01*
X139507393Y-62328532D01*
X139482848Y-62155423D01*
X139467940Y-62130184D01*
X139462221Y-62101435D01*
X139365088Y-61956065D01*
X139276169Y-61805533D01*
X138426169Y-60855533D01*
X138402738Y-60837921D01*
X138386452Y-60813548D01*
X138241083Y-60716415D01*
X138232548Y-60710000D01*
X163909271Y-60710000D01*
X163849754Y-60734181D01*
X163805640Y-60763657D01*
X163438695Y-61259090D01*
X166000000Y-63820395D01*
X168561305Y-61259090D01*
X168194360Y-60763657D01*
X168067266Y-60710000D01*
X169290000Y-60710000D01*
X169290000Y-61909271D01*
X169265819Y-61849754D01*
X169236343Y-61805640D01*
X168740910Y-61438695D01*
X166179605Y-64000000D01*
X168740910Y-66561305D01*
X169236343Y-66194360D01*
X169290000Y-66067266D01*
X169290000Y-103909271D01*
X169265819Y-103849754D01*
X169236343Y-103805640D01*
X168740910Y-103438695D01*
X166179605Y-106000000D01*
X168740910Y-108561305D01*
X169236343Y-108194360D01*
X169290000Y-108067266D01*
X169290000Y-109290000D01*
X168090729Y-109290000D01*
X168150246Y-109265819D01*
X168194360Y-109236343D01*
X168561305Y-108740910D01*
X166000000Y-106179605D01*
X163438695Y-108740910D01*
X163805640Y-109236343D01*
X163932734Y-109290000D01*
X126090729Y-109290000D01*
X126150246Y-109265819D01*
X126194360Y-109236343D01*
X126561305Y-108740910D01*
X124000000Y-106179605D01*
X121438695Y-108740910D01*
X121805640Y-109236343D01*
X121932734Y-109290000D01*
X120710000Y-109290000D01*
X120710000Y-108090729D01*
X120734181Y-108150246D01*
X120763657Y-108194360D01*
X121259090Y-108561305D01*
X123820395Y-106000000D01*
X124179605Y-106000000D01*
X126740910Y-108561305D01*
X127236343Y-108194360D01*
X127829736Y-106788829D01*
X127830089Y-106736793D01*
X162159913Y-106736793D01*
X162734181Y-108150246D01*
X162763657Y-108194360D01*
X163259090Y-108561305D01*
X165820395Y-106000000D01*
X163259090Y-103438695D01*
X162763657Y-103805640D01*
X162170264Y-105211171D01*
X162159913Y-106736793D01*
X127830089Y-106736793D01*
X127840087Y-105263207D01*
X127721820Y-104972114D01*
X135221692Y-104972114D01*
X135491806Y-105625840D01*
X135991529Y-106126436D01*
X136644782Y-106397691D01*
X137352114Y-106398308D01*
X138005840Y-106128194D01*
X138506436Y-105628471D01*
X138777691Y-104975218D01*
X138778308Y-104267886D01*
X138508194Y-103614160D01*
X138008471Y-103113564D01*
X137355218Y-102842309D01*
X136647886Y-102841692D01*
X135994160Y-103111806D01*
X135493564Y-103611529D01*
X135222309Y-104264782D01*
X135221692Y-104972114D01*
X127721820Y-104972114D01*
X127265819Y-103849754D01*
X127236343Y-103805640D01*
X126740910Y-103438695D01*
X124179605Y-106000000D01*
X123820395Y-106000000D01*
X121259090Y-103438695D01*
X120763657Y-103805640D01*
X120710000Y-103932734D01*
X120710000Y-103259090D01*
X121438695Y-103259090D01*
X124000000Y-105820395D01*
X126561305Y-103259090D01*
X126194360Y-102763657D01*
X124788829Y-102170264D01*
X123263207Y-102159913D01*
X121849754Y-102734181D01*
X121805640Y-102763657D01*
X121438695Y-103259090D01*
X120710000Y-103259090D01*
X120710000Y-88285750D01*
X121349000Y-88285750D01*
X121349000Y-88989909D01*
X121445673Y-89223298D01*
X121624301Y-89401927D01*
X121857690Y-89498600D01*
X122714250Y-89498600D01*
X122873000Y-89339850D01*
X122873000Y-88127000D01*
X123127000Y-88127000D01*
X123127000Y-89339850D01*
X123285750Y-89498600D01*
X124142310Y-89498600D01*
X124375699Y-89401927D01*
X124554327Y-89223298D01*
X124651000Y-88989909D01*
X124651000Y-88285750D01*
X124492250Y-88127000D01*
X123127000Y-88127000D01*
X122873000Y-88127000D01*
X121507750Y-88127000D01*
X121349000Y-88285750D01*
X120710000Y-88285750D01*
X120710000Y-66740910D01*
X121438695Y-66740910D01*
X121805640Y-67236343D01*
X123211171Y-67829736D01*
X124736793Y-67840087D01*
X126150246Y-67265819D01*
X126194360Y-67236343D01*
X126561305Y-66740910D01*
X124000000Y-64179605D01*
X121438695Y-66740910D01*
X120710000Y-66740910D01*
X120710000Y-66090729D01*
X120734181Y-66150246D01*
X120763657Y-66194360D01*
X121259090Y-66561305D01*
X123820395Y-64000000D01*
X124179605Y-64000000D01*
X126740910Y-66561305D01*
X127236343Y-66194360D01*
X127829736Y-64788829D01*
X127840087Y-63263207D01*
X127265819Y-61849754D01*
X127236343Y-61805640D01*
X126740910Y-61438695D01*
X124179605Y-64000000D01*
X123820395Y-64000000D01*
X121259090Y-61438695D01*
X120763657Y-61805640D01*
X120710000Y-61932734D01*
X120710000Y-60710000D01*
X121909271Y-60710000D01*
X121849754Y-60734181D01*
X121849754Y-60734181D01*
G37*
X121849754Y-60734181D02*
X121805640Y-60763657D01*
X121438695Y-61259090D01*
X124000000Y-63820395D01*
X126561305Y-61259090D01*
X126194360Y-60763657D01*
X126067266Y-60710000D01*
X130552127Y-60710000D01*
X130496196Y-60739283D01*
X128946196Y-61989283D01*
X128908195Y-62034787D01*
X128859098Y-62068025D01*
X128778987Y-62189506D01*
X128685715Y-62301195D01*
X128668020Y-62357780D01*
X128635381Y-62407274D01*
X128607858Y-62550165D01*
X128564427Y-62689046D01*
X128569733Y-62748095D01*
X128558519Y-62806312D01*
X128655725Y-78845353D01*
X124895048Y-82303342D01*
X124881976Y-82321235D01*
X124863548Y-82333548D01*
X124851532Y-82351532D01*
X124833548Y-82363548D01*
X124816763Y-82388668D01*
X124792646Y-82406860D01*
X124619827Y-82600675D01*
X124569271Y-82346511D01*
X124244415Y-81860330D01*
X123758234Y-81535474D01*
X123184745Y-81421400D01*
X122815255Y-81421400D01*
X122241766Y-81535474D01*
X121755585Y-81860330D01*
X121430729Y-82346511D01*
X121316655Y-82920000D01*
X121430729Y-83493489D01*
X121755585Y-83979670D01*
X122070366Y-84190000D01*
X121755585Y-84400330D01*
X121430729Y-84886511D01*
X121316655Y-85460000D01*
X121430729Y-86033489D01*
X121755585Y-86519670D01*
X121777780Y-86534500D01*
X121624301Y-86598073D01*
X121445673Y-86776702D01*
X121349000Y-87010091D01*
X121349000Y-87714250D01*
X121507750Y-87873000D01*
X122873000Y-87873000D01*
X122873000Y-87853000D01*
X123127000Y-87853000D01*
X123127000Y-87873000D01*
X124492250Y-87873000D01*
X124651000Y-87714250D01*
X124651000Y-87323904D01*
X125758500Y-88431403D01*
X125758500Y-97900000D01*
X125837779Y-98298565D01*
X126063548Y-98636452D01*
X127113548Y-99686452D01*
X127451435Y-99912221D01*
X127850000Y-99991500D01*
X128568850Y-99991500D01*
X128598430Y-99997490D01*
X130392380Y-99997490D01*
X131879444Y-101484555D01*
X132151311Y-101666211D01*
X132472000Y-101730000D01*
X145332890Y-101730000D01*
X146842585Y-103239696D01*
X146963800Y-103320689D01*
X147114451Y-103421351D01*
X147435140Y-103485140D01*
X149204510Y-103485140D01*
X149204510Y-103547570D01*
X149248788Y-103782887D01*
X149387860Y-103999011D01*
X149600060Y-104144001D01*
X149851950Y-104195010D01*
X150652050Y-104195010D01*
X150887367Y-104150732D01*
X151103491Y-104011660D01*
X151248481Y-103799460D01*
X151299490Y-103547570D01*
X151299490Y-101746710D01*
X151255212Y-101511393D01*
X151116140Y-101295269D01*
X150966069Y-101192730D01*
X151602050Y-101192730D01*
X151837367Y-101148452D01*
X152053491Y-101009380D01*
X152198481Y-100797180D01*
X152249490Y-100545290D01*
X152249490Y-100482860D01*
X152261140Y-100482860D01*
X152581829Y-100419071D01*
X152853695Y-100237415D01*
X153253111Y-99838000D01*
X153287935Y-99838000D01*
X153296838Y-99885317D01*
X153435910Y-100101441D01*
X153648110Y-100246431D01*
X153812000Y-100279620D01*
X153812000Y-101719118D01*
X153664683Y-101746838D01*
X153448559Y-101885910D01*
X153303569Y-102098110D01*
X153252560Y-102350000D01*
X153252560Y-103650000D01*
X153296838Y-103885317D01*
X153435910Y-104101441D01*
X153648110Y-104246431D01*
X153900000Y-104297440D01*
X155400000Y-104297440D01*
X155635317Y-104253162D01*
X155851441Y-104114090D01*
X155996431Y-103901890D01*
X156003191Y-103868510D01*
X156061673Y-104009699D01*
X156240302Y-104188327D01*
X156473691Y-104285000D01*
X157064250Y-104285000D01*
X157223000Y-104126250D01*
X157223000Y-103127000D01*
X157477000Y-103127000D01*
X157477000Y-104126250D01*
X157635750Y-104285000D01*
X158226309Y-104285000D01*
X158459698Y-104188327D01*
X158638327Y-104009699D01*
X158735000Y-103776310D01*
X158735000Y-103285750D01*
X158708340Y-103259090D01*
X163438695Y-103259090D01*
X166000000Y-105820395D01*
X168561305Y-103259090D01*
X168194360Y-102763657D01*
X166788829Y-102170264D01*
X165263207Y-102159913D01*
X163849754Y-102734181D01*
X163805640Y-102763657D01*
X163438695Y-103259090D01*
X158708340Y-103259090D01*
X158576250Y-103127000D01*
X157477000Y-103127000D01*
X157223000Y-103127000D01*
X157203000Y-103127000D01*
X157203000Y-102873000D01*
X157223000Y-102873000D01*
X157223000Y-101873750D01*
X157477000Y-101873750D01*
X157477000Y-102873000D01*
X158576250Y-102873000D01*
X158735000Y-102714250D01*
X158735000Y-102223690D01*
X158638327Y-101990301D01*
X158459698Y-101811673D01*
X158226309Y-101715000D01*
X157635750Y-101715000D01*
X157477000Y-101873750D01*
X157223000Y-101873750D01*
X157064250Y-101715000D01*
X156473691Y-101715000D01*
X156240302Y-101811673D01*
X156061673Y-101990301D01*
X156005346Y-102126287D01*
X156003162Y-102114683D01*
X155864090Y-101898559D01*
X155651890Y-101753569D01*
X155488000Y-101720380D01*
X155488000Y-100280882D01*
X155635317Y-100253162D01*
X155851441Y-100114090D01*
X155996431Y-99901890D01*
X155999081Y-99888803D01*
X156135910Y-100101441D01*
X156348110Y-100246431D01*
X156600000Y-100297440D01*
X158100000Y-100297440D01*
X158335317Y-100253162D01*
X158492273Y-100152163D01*
X165027443Y-100152163D01*
X165126042Y-100418965D01*
X165735582Y-100645401D01*
X166385377Y-100621341D01*
X166873958Y-100418965D01*
X166972557Y-100152163D01*
X166000000Y-99179605D01*
X165027443Y-100152163D01*
X158492273Y-100152163D01*
X158551441Y-100114090D01*
X158696431Y-99901890D01*
X158747440Y-99650000D01*
X158747440Y-98735582D01*
X164354599Y-98735582D01*
X164378659Y-99385377D01*
X164581035Y-99873958D01*
X164847837Y-99972557D01*
X165820395Y-99000000D01*
X166179605Y-99000000D01*
X167152163Y-99972557D01*
X167418965Y-99873958D01*
X167645401Y-99264418D01*
X167621341Y-98614623D01*
X167418965Y-98126042D01*
X167152163Y-98027443D01*
X166179605Y-99000000D01*
X165820395Y-99000000D01*
X164847837Y-98027443D01*
X164581035Y-98126042D01*
X164354599Y-98735582D01*
X158747440Y-98735582D01*
X158747440Y-98350000D01*
X158703162Y-98114683D01*
X158564090Y-97898559D01*
X158351890Y-97753569D01*
X158188000Y-97720380D01*
X158188000Y-97450000D01*
X158124211Y-97129311D01*
X158006076Y-96952510D01*
X157942555Y-96857444D01*
X157047908Y-95962798D01*
X157061441Y-95954090D01*
X157116847Y-95873000D01*
X157881869Y-95873000D01*
X157925910Y-95941441D01*
X158138110Y-96086431D01*
X158390000Y-96137440D01*
X159610000Y-96137440D01*
X159845317Y-96093162D01*
X160061441Y-95954090D01*
X160206431Y-95741890D01*
X160257440Y-95490000D01*
X160257440Y-94580000D01*
X160248760Y-94533870D01*
X162767445Y-97052556D01*
X163039312Y-97234212D01*
X163360000Y-97298000D01*
X164577733Y-97298000D01*
X164613538Y-97384655D01*
X165040539Y-97812401D01*
X165027443Y-97847837D01*
X166000000Y-98820395D01*
X166972557Y-97847837D01*
X166959276Y-97811901D01*
X167384846Y-97387073D01*
X167634206Y-96786547D01*
X167634774Y-96136306D01*
X167386462Y-95535345D01*
X167041520Y-95189801D01*
X167384846Y-94847073D01*
X167634206Y-94246547D01*
X167634774Y-93596306D01*
X167386462Y-92995345D01*
X166927073Y-92535154D01*
X166326547Y-92285794D01*
X165838271Y-92285367D01*
X165141500Y-91588596D01*
X165141500Y-85540000D01*
X165316655Y-85540000D01*
X165430729Y-86113489D01*
X165755585Y-86599670D01*
X166070366Y-86810000D01*
X165755585Y-87020330D01*
X165430729Y-87506511D01*
X165316655Y-88080000D01*
X165430729Y-88653489D01*
X165755585Y-89139670D01*
X166241766Y-89464526D01*
X166815255Y-89578600D01*
X167184745Y-89578600D01*
X167758234Y-89464526D01*
X168244415Y-89139670D01*
X168569271Y-88653489D01*
X168683345Y-88080000D01*
X168569271Y-87506511D01*
X168244415Y-87020330D01*
X167929634Y-86810000D01*
X168244415Y-86599670D01*
X168569271Y-86113489D01*
X168683345Y-85540000D01*
X168569271Y-84966511D01*
X168244415Y-84480330D01*
X168222220Y-84465500D01*
X168375699Y-84401927D01*
X168554327Y-84223298D01*
X168651000Y-83989909D01*
X168651000Y-83285750D01*
X168492250Y-83127000D01*
X167127000Y-83127000D01*
X167127000Y-83147000D01*
X166873000Y-83147000D01*
X166873000Y-83127000D01*
X165507750Y-83127000D01*
X165349000Y-83285750D01*
X165349000Y-83989909D01*
X165445673Y-84223298D01*
X165624301Y-84401927D01*
X165777780Y-84465500D01*
X165755585Y-84480330D01*
X165430729Y-84966511D01*
X165316655Y-85540000D01*
X165141500Y-85540000D01*
X165141500Y-82010091D01*
X165349000Y-82010091D01*
X165349000Y-82714250D01*
X165507750Y-82873000D01*
X166873000Y-82873000D01*
X166873000Y-81660150D01*
X167127000Y-81660150D01*
X167127000Y-82873000D01*
X168492250Y-82873000D01*
X168651000Y-82714250D01*
X168651000Y-82010091D01*
X168554327Y-81776702D01*
X168375699Y-81598073D01*
X168142310Y-81501400D01*
X167285750Y-81501400D01*
X167127000Y-81660150D01*
X166873000Y-81660150D01*
X166714250Y-81501400D01*
X165857690Y-81501400D01*
X165624301Y-81598073D01*
X165445673Y-81776702D01*
X165349000Y-82010091D01*
X165141500Y-82010091D01*
X165141500Y-79700000D01*
X165062221Y-79301435D01*
X164836452Y-78963548D01*
X164836449Y-78963546D01*
X163791500Y-77918596D01*
X163791500Y-71792009D01*
X163951441Y-71689090D01*
X163997969Y-71620994D01*
X164140302Y-71763327D01*
X164373691Y-71860000D01*
X164964250Y-71860000D01*
X165123000Y-71701250D01*
X165123000Y-70727000D01*
X165377000Y-70727000D01*
X165377000Y-71701250D01*
X165535750Y-71860000D01*
X166126309Y-71860000D01*
X166359698Y-71763327D01*
X166538327Y-71584699D01*
X166635000Y-71351310D01*
X166635000Y-70885750D01*
X166476250Y-70727000D01*
X165377000Y-70727000D01*
X165123000Y-70727000D01*
X165103000Y-70727000D01*
X165103000Y-70473000D01*
X165123000Y-70473000D01*
X165123000Y-69498750D01*
X165377000Y-69498750D01*
X165377000Y-70473000D01*
X166476250Y-70473000D01*
X166635000Y-70314250D01*
X166635000Y-69848690D01*
X166538327Y-69615301D01*
X166359698Y-69436673D01*
X166126309Y-69340000D01*
X165535750Y-69340000D01*
X165377000Y-69498750D01*
X165123000Y-69498750D01*
X164964250Y-69340000D01*
X164373691Y-69340000D01*
X164140302Y-69436673D01*
X163999064Y-69577910D01*
X163964090Y-69523559D01*
X163751890Y-69378569D01*
X163500000Y-69327560D01*
X162000000Y-69327560D01*
X161764683Y-69371838D01*
X161552304Y-69508500D01*
X161186266Y-69508500D01*
X161147162Y-69300683D01*
X161008090Y-69084559D01*
X160795890Y-68939569D01*
X160544000Y-68888560D01*
X159528000Y-68888560D01*
X159292683Y-68932838D01*
X159076559Y-69071910D01*
X158931569Y-69284110D01*
X158893000Y-69474569D01*
X158893000Y-69409690D01*
X158796327Y-69176301D01*
X158617698Y-68997673D01*
X158384309Y-68901000D01*
X158035750Y-68901000D01*
X157877000Y-69059750D01*
X157877000Y-70425000D01*
X157897000Y-70425000D01*
X157897000Y-70679000D01*
X157877000Y-70679000D01*
X157877000Y-72044250D01*
X158035750Y-72203000D01*
X158384309Y-72203000D01*
X158617698Y-72106327D01*
X158796327Y-71927699D01*
X158893000Y-71694310D01*
X158893000Y-71634113D01*
X158924838Y-71803317D01*
X158994500Y-71911575D01*
X158994500Y-78132596D01*
X156073596Y-81053500D01*
X148791500Y-81053500D01*
X148791500Y-80192009D01*
X148951441Y-80089090D01*
X148997969Y-80020994D01*
X149140302Y-80163327D01*
X149373691Y-80260000D01*
X149964250Y-80260000D01*
X150123000Y-80101250D01*
X150123000Y-79127000D01*
X150377000Y-79127000D01*
X150377000Y-80101250D01*
X150535750Y-80260000D01*
X151126309Y-80260000D01*
X151359698Y-80163327D01*
X151538327Y-79984699D01*
X151635000Y-79751310D01*
X151635000Y-79285750D01*
X151476250Y-79127000D01*
X150377000Y-79127000D01*
X150123000Y-79127000D01*
X150103000Y-79127000D01*
X150103000Y-78873000D01*
X150123000Y-78873000D01*
X150123000Y-77898750D01*
X150377000Y-77898750D01*
X150377000Y-78873000D01*
X151476250Y-78873000D01*
X151635000Y-78714250D01*
X151635000Y-78248690D01*
X151538327Y-78015301D01*
X151359698Y-77836673D01*
X151126309Y-77740000D01*
X150535750Y-77740000D01*
X150377000Y-77898750D01*
X150123000Y-77898750D01*
X149964250Y-77740000D01*
X149373691Y-77740000D01*
X149140302Y-77836673D01*
X148999064Y-77977910D01*
X148964090Y-77923559D01*
X148751890Y-77778569D01*
X148500000Y-77727560D01*
X147000000Y-77727560D01*
X146764683Y-77771838D01*
X146548559Y-77910910D01*
X146516042Y-77958500D01*
X146165901Y-77958500D01*
X146281737Y-77842866D01*
X146435824Y-77471783D01*
X146436175Y-77069980D01*
X146282736Y-76698628D01*
X146264000Y-76679859D01*
X146264000Y-75238000D01*
X146200211Y-74917311D01*
X146093556Y-74757691D01*
X146018555Y-74645444D01*
X139465059Y-68091949D01*
X139598917Y-68066762D01*
X139815041Y-67927690D01*
X139960031Y-67715490D01*
X140011040Y-67463600D01*
X140011040Y-65883944D01*
X145863548Y-71736452D01*
X146201435Y-71962221D01*
X146600000Y-72041500D01*
X151375817Y-72041500D01*
X151510910Y-72251441D01*
X151723110Y-72396431D01*
X151975000Y-72447440D01*
X153225000Y-72447440D01*
X153460317Y-72403162D01*
X153676441Y-72264090D01*
X153821431Y-72051890D01*
X153823535Y-72041500D01*
X154422500Y-72041500D01*
X154422500Y-73561863D01*
X154417500Y-73587000D01*
X154448862Y-73744668D01*
X154448825Y-73787020D01*
X154465141Y-73826507D01*
X154496779Y-73985565D01*
X154586091Y-74119229D01*
X154602264Y-74158372D01*
X154632449Y-74188610D01*
X154722548Y-74323452D01*
X154856214Y-74412765D01*
X154886134Y-74442737D01*
X154925591Y-74459121D01*
X155060435Y-74549221D01*
X155218105Y-74580583D01*
X155257217Y-74596824D01*
X155299941Y-74596861D01*
X155459000Y-74628500D01*
X155616668Y-74597138D01*
X155659020Y-74597175D01*
X155698507Y-74580859D01*
X155857565Y-74549221D01*
X155991229Y-74459909D01*
X156030372Y-74443736D01*
X156060610Y-74413551D01*
X156195452Y-74323452D01*
X156200452Y-74318452D01*
X156289747Y-74184812D01*
X156314737Y-74159866D01*
X156328397Y-74126969D01*
X156426221Y-73980565D01*
X156460272Y-73809379D01*
X156468824Y-73788783D01*
X156468844Y-73766285D01*
X156505500Y-73582000D01*
X156505500Y-71911993D01*
X156568431Y-71819890D01*
X156607000Y-71629431D01*
X156607000Y-71694310D01*
X156703673Y-71927699D01*
X156882302Y-72106327D01*
X157115691Y-72203000D01*
X157464250Y-72203000D01*
X157623000Y-72044250D01*
X157623000Y-70679000D01*
X157603000Y-70679000D01*
X157603000Y-70425000D01*
X157623000Y-70425000D01*
X157623000Y-69059750D01*
X157464250Y-68901000D01*
X157115691Y-68901000D01*
X156882302Y-68997673D01*
X156703673Y-69176301D01*
X156607000Y-69409690D01*
X156607000Y-69469887D01*
X156575162Y-69300683D01*
X156436090Y-69084559D01*
X156223890Y-68939569D01*
X155972000Y-68888560D01*
X154956000Y-68888560D01*
X154720683Y-68932838D01*
X154504559Y-69071910D01*
X154359569Y-69284110D01*
X154308560Y-69536000D01*
X154308560Y-69958500D01*
X153759835Y-69958500D01*
X153689090Y-69848559D01*
X153620994Y-69802031D01*
X153763327Y-69659698D01*
X153860000Y-69426309D01*
X153860000Y-68835750D01*
X153701250Y-68677000D01*
X152727000Y-68677000D01*
X152727000Y-68697000D01*
X152473000Y-68697000D01*
X152473000Y-68677000D01*
X151498750Y-68677000D01*
X151340000Y-68835750D01*
X151340000Y-69426309D01*
X151436673Y-69659698D01*
X151577910Y-69800936D01*
X151523559Y-69835910D01*
X151439797Y-69958500D01*
X147031404Y-69958500D01*
X144746595Y-67673691D01*
X151340000Y-67673691D01*
X151340000Y-68264250D01*
X151498750Y-68423000D01*
X152473000Y-68423000D01*
X152473000Y-67323750D01*
X152727000Y-67323750D01*
X152727000Y-68423000D01*
X153701250Y-68423000D01*
X153860000Y-68264250D01*
X153860000Y-67673691D01*
X153763327Y-67440302D01*
X153584699Y-67261673D01*
X153351310Y-67165000D01*
X152885750Y-67165000D01*
X152727000Y-67323750D01*
X152473000Y-67323750D01*
X152314250Y-67165000D01*
X151848690Y-67165000D01*
X151615301Y-67261673D01*
X151436673Y-67440302D01*
X151340000Y-67673691D01*
X144746595Y-67673691D01*
X143708867Y-66635963D01*
X150923642Y-66635963D01*
X151039806Y-66917658D01*
X151701333Y-67168062D01*
X152408329Y-67146249D01*
X152960194Y-66917658D01*
X153033080Y-66740910D01*
X163438695Y-66740910D01*
X163805640Y-67236343D01*
X165211171Y-67829736D01*
X166736793Y-67840087D01*
X168150246Y-67265819D01*
X168194360Y-67236343D01*
X168561305Y-66740910D01*
X166000000Y-64179605D01*
X163438695Y-66740910D01*
X153033080Y-66740910D01*
X153076358Y-66635963D01*
X152000000Y-65559605D01*
X150923642Y-66635963D01*
X143708867Y-66635963D01*
X142154237Y-65081333D01*
X150211938Y-65081333D01*
X150233751Y-65788329D01*
X150462342Y-66340194D01*
X150744037Y-66456358D01*
X151820395Y-65380000D01*
X152179605Y-65380000D01*
X153255963Y-66456358D01*
X153537658Y-66340194D01*
X153788062Y-65678667D01*
X153766249Y-64971671D01*
X153537658Y-64419806D01*
X153255963Y-64303642D01*
X152179605Y-65380000D01*
X151820395Y-65380000D01*
X150744037Y-64303642D01*
X150462342Y-64419806D01*
X150211938Y-65081333D01*
X142154237Y-65081333D01*
X141196941Y-64124037D01*
X150923642Y-64124037D01*
X152000000Y-65200395D01*
X152966645Y-64233750D01*
X155286200Y-64233750D01*
X155286200Y-65090310D01*
X155382873Y-65323699D01*
X155561502Y-65502327D01*
X155794891Y-65599000D01*
X157464250Y-65599000D01*
X157623000Y-65440250D01*
X157623000Y-64075000D01*
X157877000Y-64075000D01*
X157877000Y-65440250D01*
X158035750Y-65599000D01*
X159705109Y-65599000D01*
X159938498Y-65502327D01*
X160117127Y-65323699D01*
X160213800Y-65090310D01*
X160213800Y-64736793D01*
X162159913Y-64736793D01*
X162734181Y-66150246D01*
X162763657Y-66194360D01*
X163259090Y-66561305D01*
X165820395Y-64000000D01*
X163259090Y-61438695D01*
X162763657Y-61805640D01*
X162170264Y-63211171D01*
X162159913Y-64736793D01*
X160213800Y-64736793D01*
X160213800Y-64233750D01*
X160055050Y-64075000D01*
X157877000Y-64075000D01*
X157623000Y-64075000D01*
X155444950Y-64075000D01*
X155286200Y-64233750D01*
X152966645Y-64233750D01*
X153076358Y-64124037D01*
X152960194Y-63842342D01*
X152298667Y-63591938D01*
X151591671Y-63613751D01*
X151039806Y-63842342D01*
X150923642Y-64124037D01*
X141196941Y-64124037D01*
X140396452Y-63323548D01*
X140058565Y-63097779D01*
X139660000Y-63018500D01*
X139591428Y-63018500D01*
X139559670Y-62970971D01*
X139541500Y-62958830D01*
X139541500Y-62805690D01*
X155286200Y-62805690D01*
X155286200Y-63662250D01*
X155444950Y-63821000D01*
X157623000Y-63821000D01*
X157623000Y-62455750D01*
X157877000Y-62455750D01*
X157877000Y-63821000D01*
X160055050Y-63821000D01*
X160213800Y-63662250D01*
X160213800Y-62805690D01*
X160117127Y-62572301D01*
X159938498Y-62393673D01*
X159705109Y-62297000D01*
X158035750Y-62297000D01*
X157877000Y-62455750D01*
X157623000Y-62455750D01*
X157464250Y-62297000D01*
X155794891Y-62297000D01*
X155561502Y-62393673D01*
X155382873Y-62572301D01*
X155286200Y-62805690D01*
X139541500Y-62805690D01*
X139541500Y-62500000D01*
X139507393Y-62328532D01*
X139482848Y-62155423D01*
X139467940Y-62130184D01*
X139462221Y-62101435D01*
X139365088Y-61956065D01*
X139276169Y-61805533D01*
X138426169Y-60855533D01*
X138402738Y-60837921D01*
X138386452Y-60813548D01*
X138241083Y-60716415D01*
X138232548Y-60710000D01*
X163909271Y-60710000D01*
X163849754Y-60734181D01*
X163805640Y-60763657D01*
X163438695Y-61259090D01*
X166000000Y-63820395D01*
X168561305Y-61259090D01*
X168194360Y-60763657D01*
X168067266Y-60710000D01*
X169290000Y-60710000D01*
X169290000Y-61909271D01*
X169265819Y-61849754D01*
X169236343Y-61805640D01*
X168740910Y-61438695D01*
X166179605Y-64000000D01*
X168740910Y-66561305D01*
X169236343Y-66194360D01*
X169290000Y-66067266D01*
X169290000Y-103909271D01*
X169265819Y-103849754D01*
X169236343Y-103805640D01*
X168740910Y-103438695D01*
X166179605Y-106000000D01*
X168740910Y-108561305D01*
X169236343Y-108194360D01*
X169290000Y-108067266D01*
X169290000Y-109290000D01*
X168090729Y-109290000D01*
X168150246Y-109265819D01*
X168194360Y-109236343D01*
X168561305Y-108740910D01*
X166000000Y-106179605D01*
X163438695Y-108740910D01*
X163805640Y-109236343D01*
X163932734Y-109290000D01*
X126090729Y-109290000D01*
X126150246Y-109265819D01*
X126194360Y-109236343D01*
X126561305Y-108740910D01*
X124000000Y-106179605D01*
X121438695Y-108740910D01*
X121805640Y-109236343D01*
X121932734Y-109290000D01*
X120710000Y-109290000D01*
X120710000Y-108090729D01*
X120734181Y-108150246D01*
X120763657Y-108194360D01*
X121259090Y-108561305D01*
X123820395Y-106000000D01*
X124179605Y-106000000D01*
X126740910Y-108561305D01*
X127236343Y-108194360D01*
X127829736Y-106788829D01*
X127830089Y-106736793D01*
X162159913Y-106736793D01*
X162734181Y-108150246D01*
X162763657Y-108194360D01*
X163259090Y-108561305D01*
X165820395Y-106000000D01*
X163259090Y-103438695D01*
X162763657Y-103805640D01*
X162170264Y-105211171D01*
X162159913Y-106736793D01*
X127830089Y-106736793D01*
X127840087Y-105263207D01*
X127721820Y-104972114D01*
X135221692Y-104972114D01*
X135491806Y-105625840D01*
X135991529Y-106126436D01*
X136644782Y-106397691D01*
X137352114Y-106398308D01*
X138005840Y-106128194D01*
X138506436Y-105628471D01*
X138777691Y-104975218D01*
X138778308Y-104267886D01*
X138508194Y-103614160D01*
X138008471Y-103113564D01*
X137355218Y-102842309D01*
X136647886Y-102841692D01*
X135994160Y-103111806D01*
X135493564Y-103611529D01*
X135222309Y-104264782D01*
X135221692Y-104972114D01*
X127721820Y-104972114D01*
X127265819Y-103849754D01*
X127236343Y-103805640D01*
X126740910Y-103438695D01*
X124179605Y-106000000D01*
X123820395Y-106000000D01*
X121259090Y-103438695D01*
X120763657Y-103805640D01*
X120710000Y-103932734D01*
X120710000Y-103259090D01*
X121438695Y-103259090D01*
X124000000Y-105820395D01*
X126561305Y-103259090D01*
X126194360Y-102763657D01*
X124788829Y-102170264D01*
X123263207Y-102159913D01*
X121849754Y-102734181D01*
X121805640Y-102763657D01*
X121438695Y-103259090D01*
X120710000Y-103259090D01*
X120710000Y-88285750D01*
X121349000Y-88285750D01*
X121349000Y-88989909D01*
X121445673Y-89223298D01*
X121624301Y-89401927D01*
X121857690Y-89498600D01*
X122714250Y-89498600D01*
X122873000Y-89339850D01*
X122873000Y-88127000D01*
X123127000Y-88127000D01*
X123127000Y-89339850D01*
X123285750Y-89498600D01*
X124142310Y-89498600D01*
X124375699Y-89401927D01*
X124554327Y-89223298D01*
X124651000Y-88989909D01*
X124651000Y-88285750D01*
X124492250Y-88127000D01*
X123127000Y-88127000D01*
X122873000Y-88127000D01*
X121507750Y-88127000D01*
X121349000Y-88285750D01*
X120710000Y-88285750D01*
X120710000Y-66740910D01*
X121438695Y-66740910D01*
X121805640Y-67236343D01*
X123211171Y-67829736D01*
X124736793Y-67840087D01*
X126150246Y-67265819D01*
X126194360Y-67236343D01*
X126561305Y-66740910D01*
X124000000Y-64179605D01*
X121438695Y-66740910D01*
X120710000Y-66740910D01*
X120710000Y-66090729D01*
X120734181Y-66150246D01*
X120763657Y-66194360D01*
X121259090Y-66561305D01*
X123820395Y-64000000D01*
X124179605Y-64000000D01*
X126740910Y-66561305D01*
X127236343Y-66194360D01*
X127829736Y-64788829D01*
X127840087Y-63263207D01*
X127265819Y-61849754D01*
X127236343Y-61805640D01*
X126740910Y-61438695D01*
X124179605Y-64000000D01*
X123820395Y-64000000D01*
X121259090Y-61438695D01*
X120763657Y-61805640D01*
X120710000Y-61932734D01*
X120710000Y-60710000D01*
X121909271Y-60710000D01*
X121849754Y-60734181D01*
G36*
X141378500Y-93351403D02*
X141378500Y-93643444D01*
X141360330Y-93655585D01*
X141035474Y-94141766D01*
X140921400Y-94715255D01*
X140921400Y-95084745D01*
X141035474Y-95658234D01*
X141360330Y-96144415D01*
X141846511Y-96469271D01*
X142420000Y-96583345D01*
X142993489Y-96469271D01*
X143479670Y-96144415D01*
X143690000Y-95829634D01*
X143900330Y-96144415D01*
X144386511Y-96469271D01*
X144960000Y-96583345D01*
X145533489Y-96469271D01*
X146019670Y-96144415D01*
X146034500Y-96122220D01*
X146098073Y-96275699D01*
X146276702Y-96454327D01*
X146510091Y-96551000D01*
X147214250Y-96551000D01*
X147373000Y-96392250D01*
X147373000Y-95027000D01*
X147627000Y-95027000D01*
X147627000Y-96392250D01*
X147785750Y-96551000D01*
X148489909Y-96551000D01*
X148723298Y-96454327D01*
X148901927Y-96275699D01*
X148998600Y-96042310D01*
X148998600Y-95185750D01*
X148839850Y-95027000D01*
X147627000Y-95027000D01*
X147373000Y-95027000D01*
X147353000Y-95027000D01*
X147353000Y-94773000D01*
X147373000Y-94773000D01*
X147373000Y-93407750D01*
X147627000Y-93407750D01*
X147627000Y-94773000D01*
X148839850Y-94773000D01*
X148998600Y-94614250D01*
X148998600Y-93757690D01*
X148901927Y-93524301D01*
X148723298Y-93345673D01*
X148489909Y-93249000D01*
X147785750Y-93249000D01*
X147627000Y-93407750D01*
X147373000Y-93407750D01*
X147214250Y-93249000D01*
X146510091Y-93249000D01*
X146276702Y-93345673D01*
X146098073Y-93524301D01*
X146034500Y-93677780D01*
X146019670Y-93655585D01*
X145533489Y-93330729D01*
X144960000Y-93216655D01*
X144386511Y-93330729D01*
X143900330Y-93655585D01*
X143690000Y-93970366D01*
X143479670Y-93655585D01*
X143461500Y-93643444D01*
X143461500Y-92920000D01*
X143405407Y-92638000D01*
X148852890Y-92638000D01*
X150207445Y-93992556D01*
X150370395Y-94101435D01*
X150479311Y-94174211D01*
X150800000Y-94238000D01*
X154855139Y-94238000D01*
X154793569Y-94328110D01*
X154742560Y-94580000D01*
X154742560Y-95490000D01*
X154786838Y-95725317D01*
X154925910Y-95941441D01*
X155138110Y-96086431D01*
X155162000Y-96091269D01*
X155162000Y-96100000D01*
X155225789Y-96420689D01*
X155334473Y-96583345D01*
X155407445Y-96692555D01*
X156446359Y-97731470D01*
X156364683Y-97746838D01*
X156148559Y-97885910D01*
X156003569Y-98098110D01*
X156000919Y-98111197D01*
X155864090Y-97898559D01*
X155651890Y-97753569D01*
X155400000Y-97702560D01*
X153900000Y-97702560D01*
X153664683Y-97746838D01*
X153448559Y-97885910D01*
X153303569Y-98098110D01*
X153290631Y-98162000D01*
X152906000Y-98162000D01*
X152585311Y-98225789D01*
X152552931Y-98247425D01*
X152313445Y-98407444D01*
X152206252Y-98514638D01*
X152205212Y-98509113D01*
X152066140Y-98292989D01*
X151853940Y-98147999D01*
X151602050Y-98096990D01*
X150801950Y-98096990D01*
X150566633Y-98141268D01*
X150350509Y-98280340D01*
X150255023Y-98420089D01*
X150240377Y-98384731D01*
X150061748Y-98206103D01*
X149828359Y-98109430D01*
X149587750Y-98109430D01*
X149429000Y-98268180D01*
X149429000Y-99517860D01*
X149449000Y-99517860D01*
X149449000Y-99771860D01*
X149429000Y-99771860D01*
X149429000Y-101021540D01*
X149576703Y-101169243D01*
X149400509Y-101282620D01*
X149255519Y-101494820D01*
X149204510Y-101746710D01*
X149204510Y-101809140D01*
X147782251Y-101809140D01*
X146272555Y-100299445D01*
X146132705Y-100206000D01*
X146000689Y-100117789D01*
X145680000Y-100054000D01*
X132819111Y-100054000D01*
X132695721Y-99930610D01*
X148266950Y-99930610D01*
X148266950Y-100671600D01*
X148363623Y-100904989D01*
X148542252Y-101083617D01*
X148775641Y-101180290D01*
X149016250Y-101180290D01*
X149175000Y-101021540D01*
X149175000Y-99771860D01*
X148425700Y-99771860D01*
X148266950Y-99930610D01*
X132695721Y-99930610D01*
X131812600Y-99047490D01*
X133401570Y-99047490D01*
X133636887Y-99003212D01*
X133853011Y-98864140D01*
X133998001Y-98651940D01*
X134004849Y-98618120D01*
X148266950Y-98618120D01*
X148266950Y-99359110D01*
X148425700Y-99517860D01*
X149175000Y-99517860D01*
X149175000Y-98268180D01*
X149016250Y-98109430D01*
X148775641Y-98109430D01*
X148542252Y-98206103D01*
X148363623Y-98384731D01*
X148266950Y-98618120D01*
X134004849Y-98618120D01*
X134049010Y-98400050D01*
X134049010Y-97599950D01*
X134004732Y-97364633D01*
X133865660Y-97148509D01*
X133653460Y-97003519D01*
X133401570Y-96952510D01*
X133391500Y-96952510D01*
X133391500Y-95217009D01*
X133551441Y-95114090D01*
X133601040Y-95041500D01*
X135000000Y-95041500D01*
X135398565Y-94962221D01*
X135736452Y-94736452D01*
X137736452Y-92736452D01*
X137962221Y-92398565D01*
X138041500Y-92000000D01*
X138041500Y-91426500D01*
X139453596Y-91426500D01*
X141378500Y-93351403D01*
X141378500Y-93351403D01*
G37*
X141378500Y-93351403D02*
X141378500Y-93643444D01*
X141360330Y-93655585D01*
X141035474Y-94141766D01*
X140921400Y-94715255D01*
X140921400Y-95084745D01*
X141035474Y-95658234D01*
X141360330Y-96144415D01*
X141846511Y-96469271D01*
X142420000Y-96583345D01*
X142993489Y-96469271D01*
X143479670Y-96144415D01*
X143690000Y-95829634D01*
X143900330Y-96144415D01*
X144386511Y-96469271D01*
X144960000Y-96583345D01*
X145533489Y-96469271D01*
X146019670Y-96144415D01*
X146034500Y-96122220D01*
X146098073Y-96275699D01*
X146276702Y-96454327D01*
X146510091Y-96551000D01*
X147214250Y-96551000D01*
X147373000Y-96392250D01*
X147373000Y-95027000D01*
X147627000Y-95027000D01*
X147627000Y-96392250D01*
X147785750Y-96551000D01*
X148489909Y-96551000D01*
X148723298Y-96454327D01*
X148901927Y-96275699D01*
X148998600Y-96042310D01*
X148998600Y-95185750D01*
X148839850Y-95027000D01*
X147627000Y-95027000D01*
X147373000Y-95027000D01*
X147353000Y-95027000D01*
X147353000Y-94773000D01*
X147373000Y-94773000D01*
X147373000Y-93407750D01*
X147627000Y-93407750D01*
X147627000Y-94773000D01*
X148839850Y-94773000D01*
X148998600Y-94614250D01*
X148998600Y-93757690D01*
X148901927Y-93524301D01*
X148723298Y-93345673D01*
X148489909Y-93249000D01*
X147785750Y-93249000D01*
X147627000Y-93407750D01*
X147373000Y-93407750D01*
X147214250Y-93249000D01*
X146510091Y-93249000D01*
X146276702Y-93345673D01*
X146098073Y-93524301D01*
X146034500Y-93677780D01*
X146019670Y-93655585D01*
X145533489Y-93330729D01*
X144960000Y-93216655D01*
X144386511Y-93330729D01*
X143900330Y-93655585D01*
X143690000Y-93970366D01*
X143479670Y-93655585D01*
X143461500Y-93643444D01*
X143461500Y-92920000D01*
X143405407Y-92638000D01*
X148852890Y-92638000D01*
X150207445Y-93992556D01*
X150370395Y-94101435D01*
X150479311Y-94174211D01*
X150800000Y-94238000D01*
X154855139Y-94238000D01*
X154793569Y-94328110D01*
X154742560Y-94580000D01*
X154742560Y-95490000D01*
X154786838Y-95725317D01*
X154925910Y-95941441D01*
X155138110Y-96086431D01*
X155162000Y-96091269D01*
X155162000Y-96100000D01*
X155225789Y-96420689D01*
X155334473Y-96583345D01*
X155407445Y-96692555D01*
X156446359Y-97731470D01*
X156364683Y-97746838D01*
X156148559Y-97885910D01*
X156003569Y-98098110D01*
X156000919Y-98111197D01*
X155864090Y-97898559D01*
X155651890Y-97753569D01*
X155400000Y-97702560D01*
X153900000Y-97702560D01*
X153664683Y-97746838D01*
X153448559Y-97885910D01*
X153303569Y-98098110D01*
X153290631Y-98162000D01*
X152906000Y-98162000D01*
X152585311Y-98225789D01*
X152552931Y-98247425D01*
X152313445Y-98407444D01*
X152206252Y-98514638D01*
X152205212Y-98509113D01*
X152066140Y-98292989D01*
X151853940Y-98147999D01*
X151602050Y-98096990D01*
X150801950Y-98096990D01*
X150566633Y-98141268D01*
X150350509Y-98280340D01*
X150255023Y-98420089D01*
X150240377Y-98384731D01*
X150061748Y-98206103D01*
X149828359Y-98109430D01*
X149587750Y-98109430D01*
X149429000Y-98268180D01*
X149429000Y-99517860D01*
X149449000Y-99517860D01*
X149449000Y-99771860D01*
X149429000Y-99771860D01*
X149429000Y-101021540D01*
X149576703Y-101169243D01*
X149400509Y-101282620D01*
X149255519Y-101494820D01*
X149204510Y-101746710D01*
X149204510Y-101809140D01*
X147782251Y-101809140D01*
X146272555Y-100299445D01*
X146132705Y-100206000D01*
X146000689Y-100117789D01*
X145680000Y-100054000D01*
X132819111Y-100054000D01*
X132695721Y-99930610D01*
X148266950Y-99930610D01*
X148266950Y-100671600D01*
X148363623Y-100904989D01*
X148542252Y-101083617D01*
X148775641Y-101180290D01*
X149016250Y-101180290D01*
X149175000Y-101021540D01*
X149175000Y-99771860D01*
X148425700Y-99771860D01*
X148266950Y-99930610D01*
X132695721Y-99930610D01*
X131812600Y-99047490D01*
X133401570Y-99047490D01*
X133636887Y-99003212D01*
X133853011Y-98864140D01*
X133998001Y-98651940D01*
X134004849Y-98618120D01*
X148266950Y-98618120D01*
X148266950Y-99359110D01*
X148425700Y-99517860D01*
X149175000Y-99517860D01*
X149175000Y-98268180D01*
X149016250Y-98109430D01*
X148775641Y-98109430D01*
X148542252Y-98206103D01*
X148363623Y-98384731D01*
X148266950Y-98618120D01*
X134004849Y-98618120D01*
X134049010Y-98400050D01*
X134049010Y-97599950D01*
X134004732Y-97364633D01*
X133865660Y-97148509D01*
X133653460Y-97003519D01*
X133401570Y-96952510D01*
X133391500Y-96952510D01*
X133391500Y-95217009D01*
X133551441Y-95114090D01*
X133601040Y-95041500D01*
X135000000Y-95041500D01*
X135398565Y-94962221D01*
X135736452Y-94736452D01*
X137736452Y-92736452D01*
X137962221Y-92398565D01*
X138041500Y-92000000D01*
X138041500Y-91426500D01*
X139453596Y-91426500D01*
X141378500Y-93351403D01*
G36*
X132777847Y-69838327D02*
X132827445Y-69912555D01*
X137154275Y-74239386D01*
X137040000Y-74216655D01*
X136408190Y-74342330D01*
X136071999Y-74566966D01*
X136054327Y-74524302D01*
X135875699Y-74345673D01*
X135642310Y-74249000D01*
X134785750Y-74249000D01*
X134627000Y-74407750D01*
X134627000Y-75773000D01*
X134647000Y-75773000D01*
X134647000Y-76027000D01*
X134627000Y-76027000D01*
X134627000Y-77392250D01*
X134785750Y-77551000D01*
X135642310Y-77551000D01*
X135875699Y-77454327D01*
X135998500Y-77331525D01*
X135998500Y-80250013D01*
X135994160Y-80251806D01*
X135493564Y-80751529D01*
X135222309Y-81404782D01*
X135221692Y-82112114D01*
X135491806Y-82765840D01*
X135958500Y-83233349D01*
X135958500Y-86183078D01*
X135938559Y-86195910D01*
X135793569Y-86408110D01*
X135742560Y-86660000D01*
X135742560Y-87570000D01*
X135786838Y-87805317D01*
X135925910Y-88021441D01*
X136138110Y-88166431D01*
X136390000Y-88217440D01*
X137610000Y-88217440D01*
X137845317Y-88173162D01*
X138061441Y-88034090D01*
X138206431Y-87821890D01*
X138257440Y-87570000D01*
X138257440Y-86742550D01*
X138762000Y-87247111D01*
X138762000Y-88200000D01*
X138825789Y-88520689D01*
X138873514Y-88592114D01*
X139007445Y-88792555D01*
X139558390Y-89343500D01*
X137876425Y-89343500D01*
X137861890Y-89333569D01*
X137610000Y-89282560D01*
X136390000Y-89282560D01*
X136154683Y-89326838D01*
X135938559Y-89465910D01*
X135793569Y-89678110D01*
X135742560Y-89930000D01*
X135742560Y-90840000D01*
X135786838Y-91075317D01*
X135925910Y-91291441D01*
X135958500Y-91313709D01*
X135958500Y-91568596D01*
X134568596Y-92958500D01*
X133602661Y-92958500D01*
X133564090Y-92898559D01*
X133351890Y-92753569D01*
X133100000Y-92702560D01*
X131600000Y-92702560D01*
X131364683Y-92746838D01*
X131148559Y-92885910D01*
X131003569Y-93098110D01*
X131000919Y-93111197D01*
X130864090Y-92898559D01*
X130651890Y-92753569D01*
X130400000Y-92702560D01*
X128900000Y-92702560D01*
X128664683Y-92746838D01*
X128448559Y-92885910D01*
X128303569Y-93098110D01*
X128252560Y-93350000D01*
X128252560Y-94650000D01*
X128296838Y-94885317D01*
X128435910Y-95101441D01*
X128648110Y-95246431D01*
X128660860Y-95249013D01*
X128660860Y-96002510D01*
X128598430Y-96002510D01*
X128363113Y-96046788D01*
X128146989Y-96185860D01*
X128001999Y-96398060D01*
X127950990Y-96649950D01*
X127950990Y-97450050D01*
X127980666Y-97607762D01*
X127841500Y-97468596D01*
X127841500Y-88000000D01*
X127762221Y-87601435D01*
X127536452Y-87263548D01*
X127536449Y-87263546D01*
X127292286Y-87019382D01*
X128660223Y-87019382D01*
X128905368Y-87410888D01*
X129949360Y-87837609D01*
X131077181Y-87832330D01*
X132094632Y-87410888D01*
X132339777Y-87019382D01*
X130500000Y-85179605D01*
X128660223Y-87019382D01*
X127292286Y-87019382D01*
X125270907Y-84998003D01*
X125277354Y-84993140D01*
X125762224Y-84449360D01*
X127662391Y-84449360D01*
X127667670Y-85577181D01*
X128089112Y-86594632D01*
X128480618Y-86839777D01*
X130320395Y-85000000D01*
X130679605Y-85000000D01*
X132519382Y-86839777D01*
X132910888Y-86594632D01*
X133337609Y-85550640D01*
X133332330Y-84422819D01*
X132910888Y-83405368D01*
X132519382Y-83160223D01*
X130679605Y-85000000D01*
X130320395Y-85000000D01*
X128480618Y-83160223D01*
X128089112Y-83405368D01*
X127662391Y-84449360D01*
X125762224Y-84449360D01*
X126267878Y-83882271D01*
X126336452Y-83836452D01*
X126386286Y-83761871D01*
X127235924Y-82980618D01*
X128660223Y-82980618D01*
X130500000Y-84820395D01*
X132339777Y-82980618D01*
X132094632Y-82589112D01*
X131050640Y-82162391D01*
X129922819Y-82167670D01*
X128905368Y-82589112D01*
X128660223Y-82980618D01*
X127235924Y-82980618D01*
X130404951Y-80066659D01*
X130419906Y-80046189D01*
X130440902Y-80031975D01*
X130539277Y-79882797D01*
X130644678Y-79738527D01*
X130650661Y-79713892D01*
X130664619Y-79692726D01*
X130698416Y-79517267D01*
X130740586Y-79343634D01*
X130736686Y-79318582D01*
X130741481Y-79293688D01*
X130722645Y-76185750D01*
X132849000Y-76185750D01*
X132849000Y-77042309D01*
X132945673Y-77275698D01*
X133124301Y-77454327D01*
X133357690Y-77551000D01*
X134214250Y-77551000D01*
X134373000Y-77392250D01*
X134373000Y-76027000D01*
X133007750Y-76027000D01*
X132849000Y-76185750D01*
X130722645Y-76185750D01*
X130716457Y-75164770D01*
X130883134Y-75331737D01*
X131254217Y-75485824D01*
X131656020Y-75486175D01*
X132027372Y-75332736D01*
X132311737Y-75048866D01*
X132432643Y-74757691D01*
X132849000Y-74757691D01*
X132849000Y-75614250D01*
X133007750Y-75773000D01*
X134373000Y-75773000D01*
X134373000Y-74407750D01*
X134214250Y-74249000D01*
X133357690Y-74249000D01*
X133124301Y-74345673D01*
X132945673Y-74524302D01*
X132849000Y-74757691D01*
X132432643Y-74757691D01*
X132465824Y-74677783D01*
X132466175Y-74275980D01*
X132312736Y-73904628D01*
X132294000Y-73885859D01*
X132294000Y-73632065D01*
X132341317Y-73623162D01*
X132557441Y-73484090D01*
X132702431Y-73271890D01*
X132753440Y-73020000D01*
X132753440Y-71520000D01*
X132709162Y-71284683D01*
X132570090Y-71068559D01*
X132357890Y-70923569D01*
X132344803Y-70920919D01*
X132557441Y-70784090D01*
X132702431Y-70571890D01*
X132753440Y-70320000D01*
X132753440Y-69801799D01*
X132777847Y-69838327D01*
X132777847Y-69838327D01*
G37*
X132777847Y-69838327D02*
X132827445Y-69912555D01*
X137154275Y-74239386D01*
X137040000Y-74216655D01*
X136408190Y-74342330D01*
X136071999Y-74566966D01*
X136054327Y-74524302D01*
X135875699Y-74345673D01*
X135642310Y-74249000D01*
X134785750Y-74249000D01*
X134627000Y-74407750D01*
X134627000Y-75773000D01*
X134647000Y-75773000D01*
X134647000Y-76027000D01*
X134627000Y-76027000D01*
X134627000Y-77392250D01*
X134785750Y-77551000D01*
X135642310Y-77551000D01*
X135875699Y-77454327D01*
X135998500Y-77331525D01*
X135998500Y-80250013D01*
X135994160Y-80251806D01*
X135493564Y-80751529D01*
X135222309Y-81404782D01*
X135221692Y-82112114D01*
X135491806Y-82765840D01*
X135958500Y-83233349D01*
X135958500Y-86183078D01*
X135938559Y-86195910D01*
X135793569Y-86408110D01*
X135742560Y-86660000D01*
X135742560Y-87570000D01*
X135786838Y-87805317D01*
X135925910Y-88021441D01*
X136138110Y-88166431D01*
X136390000Y-88217440D01*
X137610000Y-88217440D01*
X137845317Y-88173162D01*
X138061441Y-88034090D01*
X138206431Y-87821890D01*
X138257440Y-87570000D01*
X138257440Y-86742550D01*
X138762000Y-87247111D01*
X138762000Y-88200000D01*
X138825789Y-88520689D01*
X138873514Y-88592114D01*
X139007445Y-88792555D01*
X139558390Y-89343500D01*
X137876425Y-89343500D01*
X137861890Y-89333569D01*
X137610000Y-89282560D01*
X136390000Y-89282560D01*
X136154683Y-89326838D01*
X135938559Y-89465910D01*
X135793569Y-89678110D01*
X135742560Y-89930000D01*
X135742560Y-90840000D01*
X135786838Y-91075317D01*
X135925910Y-91291441D01*
X135958500Y-91313709D01*
X135958500Y-91568596D01*
X134568596Y-92958500D01*
X133602661Y-92958500D01*
X133564090Y-92898559D01*
X133351890Y-92753569D01*
X133100000Y-92702560D01*
X131600000Y-92702560D01*
X131364683Y-92746838D01*
X131148559Y-92885910D01*
X131003569Y-93098110D01*
X131000919Y-93111197D01*
X130864090Y-92898559D01*
X130651890Y-92753569D01*
X130400000Y-92702560D01*
X128900000Y-92702560D01*
X128664683Y-92746838D01*
X128448559Y-92885910D01*
X128303569Y-93098110D01*
X128252560Y-93350000D01*
X128252560Y-94650000D01*
X128296838Y-94885317D01*
X128435910Y-95101441D01*
X128648110Y-95246431D01*
X128660860Y-95249013D01*
X128660860Y-96002510D01*
X128598430Y-96002510D01*
X128363113Y-96046788D01*
X128146989Y-96185860D01*
X128001999Y-96398060D01*
X127950990Y-96649950D01*
X127950990Y-97450050D01*
X127980666Y-97607762D01*
X127841500Y-97468596D01*
X127841500Y-88000000D01*
X127762221Y-87601435D01*
X127536452Y-87263548D01*
X127536449Y-87263546D01*
X127292286Y-87019382D01*
X128660223Y-87019382D01*
X128905368Y-87410888D01*
X129949360Y-87837609D01*
X131077181Y-87832330D01*
X132094632Y-87410888D01*
X132339777Y-87019382D01*
X130500000Y-85179605D01*
X128660223Y-87019382D01*
X127292286Y-87019382D01*
X125270907Y-84998003D01*
X125277354Y-84993140D01*
X125762224Y-84449360D01*
X127662391Y-84449360D01*
X127667670Y-85577181D01*
X128089112Y-86594632D01*
X128480618Y-86839777D01*
X130320395Y-85000000D01*
X130679605Y-85000000D01*
X132519382Y-86839777D01*
X132910888Y-86594632D01*
X133337609Y-85550640D01*
X133332330Y-84422819D01*
X132910888Y-83405368D01*
X132519382Y-83160223D01*
X130679605Y-85000000D01*
X130320395Y-85000000D01*
X128480618Y-83160223D01*
X128089112Y-83405368D01*
X127662391Y-84449360D01*
X125762224Y-84449360D01*
X126267878Y-83882271D01*
X126336452Y-83836452D01*
X126386286Y-83761871D01*
X127235924Y-82980618D01*
X128660223Y-82980618D01*
X130500000Y-84820395D01*
X132339777Y-82980618D01*
X132094632Y-82589112D01*
X131050640Y-82162391D01*
X129922819Y-82167670D01*
X128905368Y-82589112D01*
X128660223Y-82980618D01*
X127235924Y-82980618D01*
X130404951Y-80066659D01*
X130419906Y-80046189D01*
X130440902Y-80031975D01*
X130539277Y-79882797D01*
X130644678Y-79738527D01*
X130650661Y-79713892D01*
X130664619Y-79692726D01*
X130698416Y-79517267D01*
X130740586Y-79343634D01*
X130736686Y-79318582D01*
X130741481Y-79293688D01*
X130722645Y-76185750D01*
X132849000Y-76185750D01*
X132849000Y-77042309D01*
X132945673Y-77275698D01*
X133124301Y-77454327D01*
X133357690Y-77551000D01*
X134214250Y-77551000D01*
X134373000Y-77392250D01*
X134373000Y-76027000D01*
X133007750Y-76027000D01*
X132849000Y-76185750D01*
X130722645Y-76185750D01*
X130716457Y-75164770D01*
X130883134Y-75331737D01*
X131254217Y-75485824D01*
X131656020Y-75486175D01*
X132027372Y-75332736D01*
X132311737Y-75048866D01*
X132432643Y-74757691D01*
X132849000Y-74757691D01*
X132849000Y-75614250D01*
X133007750Y-75773000D01*
X134373000Y-75773000D01*
X134373000Y-74407750D01*
X134214250Y-74249000D01*
X133357690Y-74249000D01*
X133124301Y-74345673D01*
X132945673Y-74524302D01*
X132849000Y-74757691D01*
X132432643Y-74757691D01*
X132465824Y-74677783D01*
X132466175Y-74275980D01*
X132312736Y-73904628D01*
X132294000Y-73885859D01*
X132294000Y-73632065D01*
X132341317Y-73623162D01*
X132557441Y-73484090D01*
X132702431Y-73271890D01*
X132753440Y-73020000D01*
X132753440Y-71520000D01*
X132709162Y-71284683D01*
X132570090Y-71068559D01*
X132357890Y-70923569D01*
X132344803Y-70920919D01*
X132557441Y-70784090D01*
X132702431Y-70571890D01*
X132753440Y-70320000D01*
X132753440Y-69801799D01*
X132777847Y-69838327D01*
G36*
X161535910Y-71676441D02*
X161708500Y-71794367D01*
X161708500Y-78350000D01*
X161787779Y-78748565D01*
X162013548Y-79086452D01*
X163058500Y-80131403D01*
X163058500Y-92020000D01*
X163137779Y-92418565D01*
X163363548Y-92756452D01*
X164365650Y-93758554D01*
X164365226Y-94243694D01*
X164613538Y-94844655D01*
X164958480Y-95190199D01*
X164615154Y-95532927D01*
X164578168Y-95622000D01*
X163707111Y-95622000D01*
X160892555Y-92807445D01*
X160811924Y-92753569D01*
X160620689Y-92625789D01*
X160300000Y-92562000D01*
X160144861Y-92562000D01*
X160206431Y-92471890D01*
X160257440Y-92220000D01*
X160257440Y-91310000D01*
X160213162Y-91074683D01*
X160074090Y-90858559D01*
X159861890Y-90713569D01*
X159838000Y-90708731D01*
X159838000Y-89900000D01*
X159774211Y-89579311D01*
X159701450Y-89470417D01*
X159592556Y-89307445D01*
X157304493Y-87019382D01*
X157660223Y-87019382D01*
X157905368Y-87410888D01*
X158949360Y-87837609D01*
X160077181Y-87832330D01*
X161094632Y-87410888D01*
X161339777Y-87019382D01*
X159500000Y-85179605D01*
X157660223Y-87019382D01*
X157304493Y-87019382D01*
X154734471Y-84449360D01*
X156662391Y-84449360D01*
X156667670Y-85577181D01*
X157089112Y-86594632D01*
X157480618Y-86839777D01*
X159320395Y-85000000D01*
X159679605Y-85000000D01*
X161519382Y-86839777D01*
X161910888Y-86594632D01*
X162337609Y-85550640D01*
X162332330Y-84422819D01*
X161910888Y-83405368D01*
X161519382Y-83160223D01*
X159679605Y-85000000D01*
X159320395Y-85000000D01*
X157480618Y-83160223D01*
X157089112Y-83405368D01*
X156662391Y-84449360D01*
X154734471Y-84449360D01*
X153421610Y-83136500D01*
X156505000Y-83136500D01*
X156903565Y-83057221D01*
X157018209Y-82980618D01*
X157660223Y-82980618D01*
X159500000Y-84820395D01*
X161339777Y-82980618D01*
X161094632Y-82589112D01*
X160050640Y-82162391D01*
X158922819Y-82167670D01*
X157905368Y-82589112D01*
X157660223Y-82980618D01*
X157018209Y-82980618D01*
X157241452Y-82831452D01*
X160772452Y-79300452D01*
X160998221Y-78962565D01*
X161077500Y-78564000D01*
X161077500Y-71911993D01*
X161140431Y-71819890D01*
X161186681Y-71591500D01*
X161481252Y-71591500D01*
X161535910Y-71676441D01*
X161535910Y-71676441D01*
G37*
X161535910Y-71676441D02*
X161708500Y-71794367D01*
X161708500Y-78350000D01*
X161787779Y-78748565D01*
X162013548Y-79086452D01*
X163058500Y-80131403D01*
X163058500Y-92020000D01*
X163137779Y-92418565D01*
X163363548Y-92756452D01*
X164365650Y-93758554D01*
X164365226Y-94243694D01*
X164613538Y-94844655D01*
X164958480Y-95190199D01*
X164615154Y-95532927D01*
X164578168Y-95622000D01*
X163707111Y-95622000D01*
X160892555Y-92807445D01*
X160811924Y-92753569D01*
X160620689Y-92625789D01*
X160300000Y-92562000D01*
X160144861Y-92562000D01*
X160206431Y-92471890D01*
X160257440Y-92220000D01*
X160257440Y-91310000D01*
X160213162Y-91074683D01*
X160074090Y-90858559D01*
X159861890Y-90713569D01*
X159838000Y-90708731D01*
X159838000Y-89900000D01*
X159774211Y-89579311D01*
X159701450Y-89470417D01*
X159592556Y-89307445D01*
X157304493Y-87019382D01*
X157660223Y-87019382D01*
X157905368Y-87410888D01*
X158949360Y-87837609D01*
X160077181Y-87832330D01*
X161094632Y-87410888D01*
X161339777Y-87019382D01*
X159500000Y-85179605D01*
X157660223Y-87019382D01*
X157304493Y-87019382D01*
X154734471Y-84449360D01*
X156662391Y-84449360D01*
X156667670Y-85577181D01*
X157089112Y-86594632D01*
X157480618Y-86839777D01*
X159320395Y-85000000D01*
X159679605Y-85000000D01*
X161519382Y-86839777D01*
X161910888Y-86594632D01*
X162337609Y-85550640D01*
X162332330Y-84422819D01*
X161910888Y-83405368D01*
X161519382Y-83160223D01*
X159679605Y-85000000D01*
X159320395Y-85000000D01*
X157480618Y-83160223D01*
X157089112Y-83405368D01*
X156662391Y-84449360D01*
X154734471Y-84449360D01*
X153421610Y-83136500D01*
X156505000Y-83136500D01*
X156903565Y-83057221D01*
X157018209Y-82980618D01*
X157660223Y-82980618D01*
X159500000Y-84820395D01*
X161339777Y-82980618D01*
X161094632Y-82589112D01*
X160050640Y-82162391D01*
X158922819Y-82167670D01*
X157905368Y-82589112D01*
X157660223Y-82980618D01*
X157018209Y-82980618D01*
X157241452Y-82831452D01*
X160772452Y-79300452D01*
X160998221Y-78962565D01*
X161077500Y-78564000D01*
X161077500Y-71911993D01*
X161140431Y-71819890D01*
X161186681Y-71591500D01*
X161481252Y-71591500D01*
X161535910Y-71676441D01*
G36*
X140618500Y-85524691D02*
X140618500Y-85619250D01*
X140777250Y-85778000D01*
X141698000Y-85778000D01*
X141698000Y-85758000D01*
X141952000Y-85758000D01*
X141952000Y-85778000D01*
X141972000Y-85778000D01*
X141972000Y-86032000D01*
X141952000Y-86032000D01*
X141952000Y-86635250D01*
X142110750Y-86794000D01*
X142522810Y-86794000D01*
X142594668Y-86764235D01*
X142625789Y-86920689D01*
X142755624Y-87115000D01*
X142807445Y-87192555D01*
X143307445Y-87692556D01*
X143412202Y-87762552D01*
X143579311Y-87874211D01*
X143900000Y-87938000D01*
X149300000Y-87938000D01*
X149409316Y-87916256D01*
X149520492Y-87908471D01*
X149568293Y-87884633D01*
X149620689Y-87874211D01*
X149713361Y-87812289D01*
X149813097Y-87762552D01*
X149848140Y-87722232D01*
X149892555Y-87692555D01*
X149954474Y-87599887D01*
X150027588Y-87515764D01*
X150515095Y-86662627D01*
X150771372Y-86556736D01*
X151055737Y-86272866D01*
X151209824Y-85901783D01*
X151210175Y-85499980D01*
X151199027Y-85473000D01*
X151887890Y-85473000D01*
X155162000Y-88747111D01*
X155162000Y-90705461D01*
X155154683Y-90706838D01*
X154938559Y-90845910D01*
X154793569Y-91058110D01*
X154742560Y-91310000D01*
X154742560Y-92220000D01*
X154786838Y-92455317D01*
X154855487Y-92562000D01*
X151147111Y-92562000D01*
X149792555Y-91207445D01*
X149663858Y-91121452D01*
X149520689Y-91025789D01*
X149200000Y-90962000D01*
X143547111Y-90962000D01*
X141177225Y-88592114D01*
X150221692Y-88592114D01*
X150491806Y-89245840D01*
X150991529Y-89746436D01*
X151644782Y-90017691D01*
X152352114Y-90018308D01*
X153005840Y-89748194D01*
X153506436Y-89248471D01*
X153777691Y-88595218D01*
X153778308Y-87887886D01*
X153508194Y-87234160D01*
X153008471Y-86733564D01*
X152355218Y-86462309D01*
X151647886Y-86461692D01*
X150994160Y-86731806D01*
X150493564Y-87231529D01*
X150222309Y-87884782D01*
X150221692Y-88592114D01*
X141177225Y-88592114D01*
X140438000Y-87852890D01*
X140438000Y-86900000D01*
X140374211Y-86579311D01*
X140279790Y-86438000D01*
X140192556Y-86307445D01*
X140075861Y-86190750D01*
X140618500Y-86190750D01*
X140618500Y-86285309D01*
X140715173Y-86518698D01*
X140893801Y-86697327D01*
X141127190Y-86794000D01*
X141539250Y-86794000D01*
X141698000Y-86635250D01*
X141698000Y-86032000D01*
X140777250Y-86032000D01*
X140618500Y-86190750D01*
X140075861Y-86190750D01*
X139530915Y-85645805D01*
X139901372Y-85492736D01*
X139921142Y-85473000D01*
X140639911Y-85473000D01*
X140618500Y-85524691D01*
X140618500Y-85524691D01*
G37*
X140618500Y-85524691D02*
X140618500Y-85619250D01*
X140777250Y-85778000D01*
X141698000Y-85778000D01*
X141698000Y-85758000D01*
X141952000Y-85758000D01*
X141952000Y-85778000D01*
X141972000Y-85778000D01*
X141972000Y-86032000D01*
X141952000Y-86032000D01*
X141952000Y-86635250D01*
X142110750Y-86794000D01*
X142522810Y-86794000D01*
X142594668Y-86764235D01*
X142625789Y-86920689D01*
X142755624Y-87115000D01*
X142807445Y-87192555D01*
X143307445Y-87692556D01*
X143412202Y-87762552D01*
X143579311Y-87874211D01*
X143900000Y-87938000D01*
X149300000Y-87938000D01*
X149409316Y-87916256D01*
X149520492Y-87908471D01*
X149568293Y-87884633D01*
X149620689Y-87874211D01*
X149713361Y-87812289D01*
X149813097Y-87762552D01*
X149848140Y-87722232D01*
X149892555Y-87692555D01*
X149954474Y-87599887D01*
X150027588Y-87515764D01*
X150515095Y-86662627D01*
X150771372Y-86556736D01*
X151055737Y-86272866D01*
X151209824Y-85901783D01*
X151210175Y-85499980D01*
X151199027Y-85473000D01*
X151887890Y-85473000D01*
X155162000Y-88747111D01*
X155162000Y-90705461D01*
X155154683Y-90706838D01*
X154938559Y-90845910D01*
X154793569Y-91058110D01*
X154742560Y-91310000D01*
X154742560Y-92220000D01*
X154786838Y-92455317D01*
X154855487Y-92562000D01*
X151147111Y-92562000D01*
X149792555Y-91207445D01*
X149663858Y-91121452D01*
X149520689Y-91025789D01*
X149200000Y-90962000D01*
X143547111Y-90962000D01*
X141177225Y-88592114D01*
X150221692Y-88592114D01*
X150491806Y-89245840D01*
X150991529Y-89746436D01*
X151644782Y-90017691D01*
X152352114Y-90018308D01*
X153005840Y-89748194D01*
X153506436Y-89248471D01*
X153777691Y-88595218D01*
X153778308Y-87887886D01*
X153508194Y-87234160D01*
X153008471Y-86733564D01*
X152355218Y-86462309D01*
X151647886Y-86461692D01*
X150994160Y-86731806D01*
X150493564Y-87231529D01*
X150222309Y-87884782D01*
X150221692Y-88592114D01*
X141177225Y-88592114D01*
X140438000Y-87852890D01*
X140438000Y-86900000D01*
X140374211Y-86579311D01*
X140279790Y-86438000D01*
X140192556Y-86307445D01*
X140075861Y-86190750D01*
X140618500Y-86190750D01*
X140618500Y-86285309D01*
X140715173Y-86518698D01*
X140893801Y-86697327D01*
X141127190Y-86794000D01*
X141539250Y-86794000D01*
X141698000Y-86635250D01*
X141698000Y-86032000D01*
X140777250Y-86032000D01*
X140618500Y-86190750D01*
X140075861Y-86190750D01*
X139530915Y-85645805D01*
X139901372Y-85492736D01*
X139921142Y-85473000D01*
X140639911Y-85473000D01*
X140618500Y-85524691D01*
G36*
X133547000Y-63933000D02*
X133567000Y-63933000D01*
X133567000Y-64187000D01*
X133547000Y-64187000D01*
X133547000Y-64207000D01*
X133293000Y-64207000D01*
X133293000Y-64187000D01*
X133273000Y-64187000D01*
X133273000Y-63933000D01*
X133293000Y-63933000D01*
X133293000Y-63913000D01*
X133547000Y-63913000D01*
X133547000Y-63933000D01*
X133547000Y-63933000D01*
G37*
X133547000Y-63933000D02*
X133567000Y-63933000D01*
X133567000Y-64187000D01*
X133547000Y-64187000D01*
X133547000Y-64207000D01*
X133293000Y-64207000D01*
X133293000Y-64187000D01*
X133273000Y-64187000D01*
X133273000Y-63933000D01*
X133293000Y-63933000D01*
X133293000Y-63913000D01*
X133547000Y-63913000D01*
X133547000Y-63933000D01*
M02*
