%TF.GenerationSoftware,KiCad,Pcbnew,4.0.2-4+6225~38~ubuntu14.04.1-stable*%
%TF.CreationDate,2016-03-31T13:36:06+01:00*%
%TF.ProjectId,rc_power_sockets,72635F706F7765725F736F636B657473,rev?*%
%TF.FileFunction,Legend,Top*%
%FSLAX46Y46*%
G04 Gerber Fmt 4.6, Leading zero omitted, Abs format (unit mm)*
G04 Created by KiCad (PCBNEW 4.0.2-4+6225~38~ubuntu14.04.1-stable) date Thu 31 Mar 2016 13:36:06 BST*
%MOMM*%
G01*
G04 APERTURE LIST*
%ADD10C,0.100000*%
%ADD11C,0.150000*%
%ADD12C,2.686000*%
%ADD13R,1.543000X0.908000*%
%ADD14R,4.057600X2.432000*%
%ADD15R,1.416000X2.432000*%
%ADD16C,6.800000*%
%ADD17R,1.200100X2.200860*%
%ADD18R,2.127200X2.432000*%
%ADD19O,2.127200X2.432000*%
%ADD20R,2.432000X2.127200*%
%ADD21O,2.432000X2.127200*%
%ADD22R,1.900000X1.650000*%
%ADD23R,1.900000X1.700000*%
%ADD24R,1.700000X1.900000*%
%ADD25C,2.398980*%
%ADD26R,2.127200X2.127200*%
%ADD27O,2.127200X2.127200*%
%ADD28R,1.620000X1.310000*%
%ADD29R,1.310000X1.620000*%
%ADD30R,2.432000X2.432000*%
%ADD31O,2.432000X2.432000*%
%ADD32C,4.800000*%
%ADD33R,1.797000X1.797000*%
%ADD34C,1.797000*%
G04 APERTURE END LIST*
D10*
D11*
X140526610Y-64567581D02*
X140526610Y-63567581D01*
X141574229Y-64472343D02*
X141526610Y-64519962D01*
X141383753Y-64567581D01*
X141288515Y-64567581D01*
X141145657Y-64519962D01*
X141050419Y-64424724D01*
X141002800Y-64329486D01*
X140955181Y-64139010D01*
X140955181Y-63996152D01*
X141002800Y-63805676D01*
X141050419Y-63710438D01*
X141145657Y-63615200D01*
X141288515Y-63567581D01*
X141383753Y-63567581D01*
X141526610Y-63615200D01*
X141574229Y-63662819D01*
X141955181Y-64519962D02*
X142098038Y-64567581D01*
X142336134Y-64567581D01*
X142431372Y-64519962D01*
X142478991Y-64472343D01*
X142526610Y-64377105D01*
X142526610Y-64281867D01*
X142478991Y-64186629D01*
X142431372Y-64139010D01*
X142336134Y-64091390D01*
X142145657Y-64043771D01*
X142050419Y-63996152D01*
X142002800Y-63948533D01*
X141955181Y-63853295D01*
X141955181Y-63758057D01*
X142002800Y-63662819D01*
X142050419Y-63615200D01*
X142145657Y-63567581D01*
X142383753Y-63567581D01*
X142526610Y-63615200D01*
X142955181Y-64567581D02*
X142955181Y-63567581D01*
X143336134Y-63567581D01*
X143431372Y-63615200D01*
X143478991Y-63662819D01*
X143526610Y-63758057D01*
X143526610Y-63900914D01*
X143478991Y-63996152D01*
X143431372Y-64043771D01*
X143336134Y-64091390D01*
X142955181Y-64091390D01*
X141170915Y-67056781D02*
X140599486Y-67056781D01*
X140885200Y-67056781D02*
X140885200Y-66056781D01*
X140789962Y-66199638D01*
X140694724Y-66294876D01*
X140599486Y-66342495D01*
X133266667Y-79652381D02*
X133600000Y-80652381D01*
X133933334Y-79652381D01*
X134838096Y-80557143D02*
X134790477Y-80604762D01*
X134647620Y-80652381D01*
X134552382Y-80652381D01*
X134409524Y-80604762D01*
X134314286Y-80509524D01*
X134266667Y-80414286D01*
X134219048Y-80223810D01*
X134219048Y-80080952D01*
X134266667Y-79890476D01*
X134314286Y-79795238D01*
X134409524Y-79700000D01*
X134552382Y-79652381D01*
X134647620Y-79652381D01*
X134790477Y-79700000D01*
X134838096Y-79747619D01*
X135838096Y-80557143D02*
X135790477Y-80604762D01*
X135647620Y-80652381D01*
X135552382Y-80652381D01*
X135409524Y-80604762D01*
X135314286Y-80509524D01*
X135266667Y-80414286D01*
X135219048Y-80223810D01*
X135219048Y-80080952D01*
X135266667Y-79890476D01*
X135314286Y-79795238D01*
X135409524Y-79700000D01*
X135552382Y-79652381D01*
X135647620Y-79652381D01*
X135790477Y-79700000D01*
X135838096Y-79747619D01*
X160685714Y-96566667D02*
X161161905Y-96566667D01*
X160590476Y-96852381D02*
X160923809Y-95852381D01*
X161257143Y-96852381D01*
X161590476Y-96852381D02*
X161590476Y-95852381D01*
X161828571Y-95852381D01*
X161971429Y-95900000D01*
X162066667Y-95995238D01*
X162114286Y-96090476D01*
X162161905Y-96280952D01*
X162161905Y-96423810D01*
X162114286Y-96614286D01*
X162066667Y-96709524D01*
X161971429Y-96804762D01*
X161828571Y-96852381D01*
X161590476Y-96852381D01*
X163161905Y-96757143D02*
X163114286Y-96804762D01*
X162971429Y-96852381D01*
X162876191Y-96852381D01*
X162733333Y-96804762D01*
X162638095Y-96709524D01*
X162590476Y-96614286D01*
X162542857Y-96423810D01*
X162542857Y-96280952D01*
X162590476Y-96090476D01*
X162638095Y-95995238D01*
X162733333Y-95900000D01*
X162876191Y-95852381D01*
X162971429Y-95852381D01*
X163114286Y-95900000D01*
X163161905Y-95947619D01*
X163495238Y-95852381D02*
X164114286Y-95852381D01*
X163780952Y-96233333D01*
X163923810Y-96233333D01*
X164019048Y-96280952D01*
X164066667Y-96328571D01*
X164114286Y-96423810D01*
X164114286Y-96661905D01*
X164066667Y-96757143D01*
X164019048Y-96804762D01*
X163923810Y-96852381D01*
X163638095Y-96852381D01*
X163542857Y-96804762D01*
X163495238Y-96757143D01*
X164761905Y-91052381D02*
X165380953Y-91052381D01*
X165047619Y-91433333D01*
X165190477Y-91433333D01*
X165285715Y-91480952D01*
X165333334Y-91528571D01*
X165380953Y-91623810D01*
X165380953Y-91861905D01*
X165333334Y-91957143D01*
X165285715Y-92004762D01*
X165190477Y-92052381D01*
X164904762Y-92052381D01*
X164809524Y-92004762D01*
X164761905Y-91957143D01*
X165666667Y-91052381D02*
X166000000Y-92052381D01*
X166333334Y-91052381D01*
X166571429Y-91052381D02*
X167190477Y-91052381D01*
X166857143Y-91433333D01*
X167000001Y-91433333D01*
X167095239Y-91480952D01*
X167142858Y-91528571D01*
X167190477Y-91623810D01*
X167190477Y-91861905D01*
X167142858Y-91957143D01*
X167095239Y-92004762D01*
X167000001Y-92052381D01*
X166714286Y-92052381D01*
X166619048Y-92004762D01*
X166571429Y-91957143D01*
X122238096Y-70900000D02*
X122142858Y-70852381D01*
X122000001Y-70852381D01*
X121857143Y-70900000D01*
X121761905Y-70995238D01*
X121714286Y-71090476D01*
X121666667Y-71280952D01*
X121666667Y-71423810D01*
X121714286Y-71614286D01*
X121761905Y-71709524D01*
X121857143Y-71804762D01*
X122000001Y-71852381D01*
X122095239Y-71852381D01*
X122238096Y-71804762D01*
X122285715Y-71757143D01*
X122285715Y-71423810D01*
X122095239Y-71423810D01*
X122714286Y-71852381D02*
X122714286Y-70852381D01*
X123285715Y-71852381D01*
X123285715Y-70852381D01*
X123761905Y-71852381D02*
X123761905Y-70852381D01*
X124000000Y-70852381D01*
X124142858Y-70900000D01*
X124238096Y-70995238D01*
X124285715Y-71090476D01*
X124333334Y-71280952D01*
X124333334Y-71423810D01*
X124285715Y-71614286D01*
X124238096Y-71709524D01*
X124142858Y-71804762D01*
X124000000Y-71852381D01*
X123761905Y-71852381D01*
X121666667Y-78602381D02*
X122000000Y-79602381D01*
X122333334Y-78602381D01*
X123238096Y-79507143D02*
X123190477Y-79554762D01*
X123047620Y-79602381D01*
X122952382Y-79602381D01*
X122809524Y-79554762D01*
X122714286Y-79459524D01*
X122666667Y-79364286D01*
X122619048Y-79173810D01*
X122619048Y-79030952D01*
X122666667Y-78840476D01*
X122714286Y-78745238D01*
X122809524Y-78650000D01*
X122952382Y-78602381D01*
X123047620Y-78602381D01*
X123190477Y-78650000D01*
X123238096Y-78697619D01*
X124238096Y-79507143D02*
X124190477Y-79554762D01*
X124047620Y-79602381D01*
X123952382Y-79602381D01*
X123809524Y-79554762D01*
X123714286Y-79459524D01*
X123666667Y-79364286D01*
X123619048Y-79173810D01*
X123619048Y-79030952D01*
X123666667Y-78840476D01*
X123714286Y-78745238D01*
X123809524Y-78650000D01*
X123952382Y-78602381D01*
X124047620Y-78602381D01*
X124190477Y-78650000D01*
X124238096Y-78697619D01*
X165238096Y-100900000D02*
X165142858Y-100852381D01*
X165000001Y-100852381D01*
X164857143Y-100900000D01*
X164761905Y-100995238D01*
X164714286Y-101090476D01*
X164666667Y-101280952D01*
X164666667Y-101423810D01*
X164714286Y-101614286D01*
X164761905Y-101709524D01*
X164857143Y-101804762D01*
X165000001Y-101852381D01*
X165095239Y-101852381D01*
X165238096Y-101804762D01*
X165285715Y-101757143D01*
X165285715Y-101423810D01*
X165095239Y-101423810D01*
X165714286Y-101852381D02*
X165714286Y-100852381D01*
X166285715Y-101852381D01*
X166285715Y-100852381D01*
X166761905Y-101852381D02*
X166761905Y-100852381D01*
X167000000Y-100852381D01*
X167142858Y-100900000D01*
X167238096Y-100995238D01*
X167285715Y-101090476D01*
X167333334Y-101280952D01*
X167333334Y-101423810D01*
X167285715Y-101614286D01*
X167238096Y-101709524D01*
X167142858Y-101804762D01*
X167000000Y-101852381D01*
X166761905Y-101852381D01*
X154628571Y-60952381D02*
X155247619Y-60952381D01*
X154914285Y-61333333D01*
X155057143Y-61333333D01*
X155152381Y-61380952D01*
X155200000Y-61428571D01*
X155247619Y-61523810D01*
X155247619Y-61761905D01*
X155200000Y-61857143D01*
X155152381Y-61904762D01*
X155057143Y-61952381D01*
X154771428Y-61952381D01*
X154676190Y-61904762D01*
X154628571Y-61857143D01*
X155533333Y-60952381D02*
X155866666Y-61952381D01*
X156200000Y-60952381D01*
X156438095Y-60952381D02*
X157057143Y-60952381D01*
X156723809Y-61333333D01*
X156866667Y-61333333D01*
X156961905Y-61380952D01*
X157009524Y-61428571D01*
X157057143Y-61523810D01*
X157057143Y-61761905D01*
X157009524Y-61857143D01*
X156961905Y-61904762D01*
X156866667Y-61952381D01*
X156580952Y-61952381D01*
X156485714Y-61904762D01*
X156438095Y-61857143D01*
X158819048Y-61952381D02*
X158485714Y-61476190D01*
X158247619Y-61952381D02*
X158247619Y-60952381D01*
X158628572Y-60952381D01*
X158723810Y-61000000D01*
X158771429Y-61047619D01*
X158819048Y-61142857D01*
X158819048Y-61285714D01*
X158771429Y-61380952D01*
X158723810Y-61428571D01*
X158628572Y-61476190D01*
X158247619Y-61476190D01*
X159247619Y-61428571D02*
X159580953Y-61428571D01*
X159723810Y-61952381D02*
X159247619Y-61952381D01*
X159247619Y-60952381D01*
X159723810Y-60952381D01*
X160676191Y-61000000D02*
X160580953Y-60952381D01*
X160438096Y-60952381D01*
X160295238Y-61000000D01*
X160200000Y-61095238D01*
X160152381Y-61190476D01*
X160104762Y-61380952D01*
X160104762Y-61523810D01*
X160152381Y-61714286D01*
X160200000Y-61809524D01*
X160295238Y-61904762D01*
X160438096Y-61952381D01*
X160533334Y-61952381D01*
X160676191Y-61904762D01*
X160723810Y-61857143D01*
X160723810Y-61523810D01*
X160533334Y-61523810D01*
X148938096Y-65900000D02*
X148842858Y-65852381D01*
X148700001Y-65852381D01*
X148557143Y-65900000D01*
X148461905Y-65995238D01*
X148414286Y-66090476D01*
X148366667Y-66280952D01*
X148366667Y-66423810D01*
X148414286Y-66614286D01*
X148461905Y-66709524D01*
X148557143Y-66804762D01*
X148700001Y-66852381D01*
X148795239Y-66852381D01*
X148938096Y-66804762D01*
X148985715Y-66757143D01*
X148985715Y-66423810D01*
X148795239Y-66423810D01*
X149414286Y-66852381D02*
X149414286Y-65852381D01*
X149985715Y-66852381D01*
X149985715Y-65852381D01*
X150461905Y-66852381D02*
X150461905Y-65852381D01*
X150700000Y-65852381D01*
X150842858Y-65900000D01*
X150938096Y-65995238D01*
X150985715Y-66090476D01*
X151033334Y-66280952D01*
X151033334Y-66423810D01*
X150985715Y-66614286D01*
X150938096Y-66709524D01*
X150842858Y-66804762D01*
X150700000Y-66852381D01*
X150461905Y-66852381D01*
X162738096Y-82500000D02*
X162642858Y-82452381D01*
X162500001Y-82452381D01*
X162357143Y-82500000D01*
X162261905Y-82595238D01*
X162214286Y-82690476D01*
X162166667Y-82880952D01*
X162166667Y-83023810D01*
X162214286Y-83214286D01*
X162261905Y-83309524D01*
X162357143Y-83404762D01*
X162500001Y-83452381D01*
X162595239Y-83452381D01*
X162738096Y-83404762D01*
X162785715Y-83357143D01*
X162785715Y-83023810D01*
X162595239Y-83023810D01*
X163214286Y-83452381D02*
X163214286Y-82452381D01*
X163785715Y-83452381D01*
X163785715Y-82452381D01*
X164261905Y-83452381D02*
X164261905Y-82452381D01*
X164500000Y-82452381D01*
X164642858Y-82500000D01*
X164738096Y-82595238D01*
X164785715Y-82690476D01*
X164833334Y-82880952D01*
X164833334Y-83023810D01*
X164785715Y-83214286D01*
X164738096Y-83309524D01*
X164642858Y-83404762D01*
X164500000Y-83452381D01*
X164261905Y-83452381D01*
X162166667Y-84952381D02*
X162500000Y-85952381D01*
X162833334Y-84952381D01*
X163738096Y-85857143D02*
X163690477Y-85904762D01*
X163547620Y-85952381D01*
X163452382Y-85952381D01*
X163309524Y-85904762D01*
X163214286Y-85809524D01*
X163166667Y-85714286D01*
X163119048Y-85523810D01*
X163119048Y-85380952D01*
X163166667Y-85190476D01*
X163214286Y-85095238D01*
X163309524Y-85000000D01*
X163452382Y-84952381D01*
X163547620Y-84952381D01*
X163690477Y-85000000D01*
X163738096Y-85047619D01*
X164738096Y-85857143D02*
X164690477Y-85904762D01*
X164547620Y-85952381D01*
X164452382Y-85952381D01*
X164309524Y-85904762D01*
X164214286Y-85809524D01*
X164166667Y-85714286D01*
X164119048Y-85523810D01*
X164119048Y-85380952D01*
X164166667Y-85190476D01*
X164214286Y-85095238D01*
X164309524Y-85000000D01*
X164452382Y-84952381D01*
X164547620Y-84952381D01*
X164690477Y-85000000D01*
X164738096Y-85047619D01*
X162000000Y-88452381D02*
X162000000Y-87452381D01*
X162238095Y-87452381D01*
X162380953Y-87500000D01*
X162476191Y-87595238D01*
X162523810Y-87690476D01*
X162571429Y-87880952D01*
X162571429Y-88023810D01*
X162523810Y-88214286D01*
X162476191Y-88309524D01*
X162380953Y-88404762D01*
X162238095Y-88452381D01*
X162000000Y-88452381D01*
X162952381Y-88166667D02*
X163428572Y-88166667D01*
X162857143Y-88452381D02*
X163190476Y-87452381D01*
X163523810Y-88452381D01*
X163714286Y-87452381D02*
X164285715Y-87452381D01*
X164000000Y-88452381D02*
X164000000Y-87452381D01*
X164571429Y-88166667D02*
X165047620Y-88166667D01*
X164476191Y-88452381D02*
X164809524Y-87452381D01*
X165142858Y-88452381D01*
X125000000Y-83452381D02*
X125000000Y-82452381D01*
X125238095Y-82452381D01*
X125380953Y-82500000D01*
X125476191Y-82595238D01*
X125523810Y-82690476D01*
X125571429Y-82880952D01*
X125571429Y-83023810D01*
X125523810Y-83214286D01*
X125476191Y-83309524D01*
X125380953Y-83404762D01*
X125238095Y-83452381D01*
X125000000Y-83452381D01*
X125952381Y-83166667D02*
X126428572Y-83166667D01*
X125857143Y-83452381D02*
X126190476Y-82452381D01*
X126523810Y-83452381D01*
X126714286Y-82452381D02*
X127285715Y-82452381D01*
X127000000Y-83452381D02*
X127000000Y-82452381D01*
X127571429Y-83166667D02*
X128047620Y-83166667D01*
X127476191Y-83452381D02*
X127809524Y-82452381D01*
X128142858Y-83452381D01*
X125738096Y-87500000D02*
X125642858Y-87452381D01*
X125500001Y-87452381D01*
X125357143Y-87500000D01*
X125261905Y-87595238D01*
X125214286Y-87690476D01*
X125166667Y-87880952D01*
X125166667Y-88023810D01*
X125214286Y-88214286D01*
X125261905Y-88309524D01*
X125357143Y-88404762D01*
X125500001Y-88452381D01*
X125595239Y-88452381D01*
X125738096Y-88404762D01*
X125785715Y-88357143D01*
X125785715Y-88023810D01*
X125595239Y-88023810D01*
X126214286Y-88452381D02*
X126214286Y-87452381D01*
X126785715Y-88452381D01*
X126785715Y-87452381D01*
X127261905Y-88452381D02*
X127261905Y-87452381D01*
X127500000Y-87452381D01*
X127642858Y-87500000D01*
X127738096Y-87595238D01*
X127785715Y-87690476D01*
X127833334Y-87880952D01*
X127833334Y-88023810D01*
X127785715Y-88214286D01*
X127738096Y-88309524D01*
X127642858Y-88404762D01*
X127500000Y-88452381D01*
X127261905Y-88452381D01*
X125166667Y-84952381D02*
X125500000Y-85952381D01*
X125833334Y-84952381D01*
X126738096Y-85857143D02*
X126690477Y-85904762D01*
X126547620Y-85952381D01*
X126452382Y-85952381D01*
X126309524Y-85904762D01*
X126214286Y-85809524D01*
X126166667Y-85714286D01*
X126119048Y-85523810D01*
X126119048Y-85380952D01*
X126166667Y-85190476D01*
X126214286Y-85095238D01*
X126309524Y-85000000D01*
X126452382Y-84952381D01*
X126547620Y-84952381D01*
X126690477Y-85000000D01*
X126738096Y-85047619D01*
X127738096Y-85857143D02*
X127690477Y-85904762D01*
X127547620Y-85952381D01*
X127452382Y-85952381D01*
X127309524Y-85904762D01*
X127214286Y-85809524D01*
X127166667Y-85714286D01*
X127119048Y-85523810D01*
X127119048Y-85380952D01*
X127166667Y-85190476D01*
X127214286Y-85095238D01*
X127309524Y-85000000D01*
X127452382Y-84952381D01*
X127547620Y-84952381D01*
X127690477Y-85000000D01*
X127738096Y-85047619D01*
X141952381Y-99583333D02*
X142952381Y-99250000D01*
X141952381Y-98916666D01*
X142857143Y-98011904D02*
X142904762Y-98059523D01*
X142952381Y-98202380D01*
X142952381Y-98297618D01*
X142904762Y-98440476D01*
X142809524Y-98535714D01*
X142714286Y-98583333D01*
X142523810Y-98630952D01*
X142380952Y-98630952D01*
X142190476Y-98583333D01*
X142095238Y-98535714D01*
X142000000Y-98440476D01*
X141952381Y-98297618D01*
X141952381Y-98202380D01*
X142000000Y-98059523D01*
X142047619Y-98011904D01*
X142857143Y-97011904D02*
X142904762Y-97059523D01*
X142952381Y-97202380D01*
X142952381Y-97297618D01*
X142904762Y-97440476D01*
X142809524Y-97535714D01*
X142714286Y-97583333D01*
X142523810Y-97630952D01*
X142380952Y-97630952D01*
X142190476Y-97583333D01*
X142095238Y-97535714D01*
X142000000Y-97440476D01*
X141952381Y-97297618D01*
X141952381Y-97202380D01*
X142000000Y-97059523D01*
X142047619Y-97011904D01*
X144452381Y-99250000D02*
X144452381Y-99059523D01*
X144500000Y-98964285D01*
X144595238Y-98869047D01*
X144785714Y-98821428D01*
X145119048Y-98821428D01*
X145309524Y-98869047D01*
X145404762Y-98964285D01*
X145452381Y-99059523D01*
X145452381Y-99250000D01*
X145404762Y-99345238D01*
X145309524Y-99440476D01*
X145119048Y-99488095D01*
X144785714Y-99488095D01*
X144595238Y-99440476D01*
X144500000Y-99345238D01*
X144452381Y-99250000D01*
X144452381Y-98392857D02*
X145261905Y-98392857D01*
X145357143Y-98345238D01*
X145404762Y-98297619D01*
X145452381Y-98202381D01*
X145452381Y-98011904D01*
X145404762Y-97916666D01*
X145357143Y-97869047D01*
X145261905Y-97821428D01*
X144452381Y-97821428D01*
X144452381Y-97488095D02*
X144452381Y-96916666D01*
X145452381Y-97202381D02*
X144452381Y-97202381D01*
X147000000Y-99011904D02*
X146952381Y-99107142D01*
X146952381Y-99249999D01*
X147000000Y-99392857D01*
X147095238Y-99488095D01*
X147190476Y-99535714D01*
X147380952Y-99583333D01*
X147523810Y-99583333D01*
X147714286Y-99535714D01*
X147809524Y-99488095D01*
X147904762Y-99392857D01*
X147952381Y-99249999D01*
X147952381Y-99154761D01*
X147904762Y-99011904D01*
X147857143Y-98964285D01*
X147523810Y-98964285D01*
X147523810Y-99154761D01*
X147952381Y-98535714D02*
X146952381Y-98535714D01*
X147952381Y-97964285D01*
X146952381Y-97964285D01*
X147952381Y-97488095D02*
X146952381Y-97488095D01*
X146952381Y-97250000D01*
X147000000Y-97107142D01*
X147095238Y-97011904D01*
X147190476Y-96964285D01*
X147380952Y-96916666D01*
X147523810Y-96916666D01*
X147714286Y-96964285D01*
X147809524Y-97011904D01*
X147904762Y-97107142D01*
X147952381Y-97250000D01*
X147952381Y-97488095D01*
X147286000Y-81460000D02*
X147286000Y-86540000D01*
X147286000Y-86540000D02*
X142714000Y-86540000D01*
X142714000Y-86540000D02*
X142714000Y-81460000D01*
X142714000Y-81460000D02*
X147286000Y-81460000D01*
X145762000Y-81460000D02*
X145762000Y-81968000D01*
X145762000Y-81968000D02*
X144492000Y-81968000D01*
X144492000Y-81968000D02*
X144492000Y-81460000D01*
X154194000Y-68774000D02*
X154194000Y-71822000D01*
X154194000Y-71822000D02*
X161306000Y-71822000D01*
X161306000Y-71822000D02*
X161306000Y-68774000D01*
X154194000Y-65726000D02*
X154194000Y-64964000D01*
X154194000Y-64964000D02*
X155718000Y-62678000D01*
X155718000Y-62678000D02*
X159782000Y-62678000D01*
X159782000Y-62678000D02*
X161306000Y-64964000D01*
X161306000Y-64964000D02*
X161306000Y-65726000D01*
X144699820Y-103649200D02*
X144699820Y-104350240D01*
X144699820Y-104350240D02*
X144450900Y-104350240D01*
X141900840Y-104350240D02*
X141700180Y-104350240D01*
X141700180Y-104350240D02*
X141700180Y-103649200D01*
X125999820Y-95849200D02*
X125999820Y-96550240D01*
X125999820Y-96550240D02*
X125750900Y-96550240D01*
X123200840Y-96550240D02*
X123000180Y-96550240D01*
X123000180Y-96550240D02*
X123000180Y-95849200D01*
X147500000Y-96450000D02*
X149050000Y-96450000D01*
X149050000Y-96450000D02*
X149050000Y-93350000D01*
X149050000Y-93350000D02*
X147500000Y-93350000D01*
X146230000Y-96170000D02*
X141150000Y-96170000D01*
X141150000Y-96170000D02*
X141150000Y-93630000D01*
X141150000Y-93630000D02*
X146230000Y-93630000D01*
X146230000Y-93630000D02*
X146230000Y-96170000D01*
X121450000Y-88000000D02*
X121450000Y-89550000D01*
X121450000Y-89550000D02*
X124550000Y-89550000D01*
X124550000Y-89550000D02*
X124550000Y-88000000D01*
X121730000Y-86730000D02*
X121730000Y-81650000D01*
X121730000Y-81650000D02*
X124270000Y-81650000D01*
X124270000Y-81650000D02*
X124270000Y-86730000D01*
X124270000Y-86730000D02*
X121730000Y-86730000D01*
X150700000Y-72350000D02*
X151700000Y-72350000D01*
X151700000Y-70650000D02*
X150700000Y-70650000D01*
X164500000Y-69750000D02*
X163500000Y-69750000D01*
X163500000Y-71450000D02*
X164500000Y-71450000D01*
X149900000Y-78850000D02*
X148900000Y-78850000D01*
X148900000Y-80550000D02*
X149900000Y-80550000D01*
X149000000Y-102775000D02*
X147800000Y-102775000D01*
X147800000Y-101025000D02*
X149000000Y-101025000D01*
X128875000Y-95300000D02*
X128875000Y-96500000D01*
X127125000Y-96500000D02*
X127125000Y-95300000D01*
X149000000Y-105975000D02*
X147800000Y-105975000D01*
X147800000Y-104225000D02*
X149000000Y-104225000D01*
X142100000Y-80525000D02*
X140900000Y-80525000D01*
X140900000Y-78775000D02*
X142100000Y-78775000D01*
X168550000Y-83000000D02*
X168550000Y-81450000D01*
X168550000Y-81450000D02*
X165450000Y-81450000D01*
X165450000Y-81450000D02*
X165450000Y-83000000D01*
X168270000Y-84270000D02*
X168270000Y-89350000D01*
X168270000Y-89350000D02*
X165730000Y-89350000D01*
X165730000Y-89350000D02*
X165730000Y-84270000D01*
X165730000Y-84270000D02*
X168270000Y-84270000D01*
X156500000Y-103600000D02*
X156500000Y-104000000D01*
X157500000Y-103600000D02*
X157500000Y-103300000D01*
X157000000Y-102982500D02*
X157000000Y-102601500D01*
X157000000Y-103998500D02*
X157000000Y-103617500D01*
X157000000Y-103617500D02*
X156619000Y-102982500D01*
X156619000Y-102982500D02*
X157381000Y-102982500D01*
X157381000Y-102982500D02*
X157000000Y-103617500D01*
X156492000Y-103617500D02*
X157508000Y-103617500D01*
X157900000Y-105300000D02*
X157900000Y-101760000D01*
X156100000Y-105300000D02*
X156100000Y-101760000D01*
X157300000Y-99400000D02*
X157700000Y-99400000D01*
X157300000Y-98400000D02*
X157000000Y-98400000D01*
X156682500Y-98900000D02*
X156301500Y-98900000D01*
X157698500Y-98900000D02*
X157317500Y-98900000D01*
X157317500Y-98900000D02*
X156682500Y-99281000D01*
X156682500Y-99281000D02*
X156682500Y-98519000D01*
X156682500Y-98519000D02*
X157317500Y-98900000D01*
X157317500Y-99408000D02*
X157317500Y-98392000D01*
X159000000Y-98000000D02*
X155460000Y-98000000D01*
X159000000Y-99800000D02*
X155460000Y-99800000D01*
X136500000Y-89050000D02*
X136500000Y-89450000D01*
X137500000Y-89050000D02*
X137500000Y-88750000D01*
X137000000Y-88432500D02*
X137000000Y-88051500D01*
X137000000Y-89448500D02*
X137000000Y-89067500D01*
X137000000Y-89067500D02*
X136619000Y-88432500D01*
X136619000Y-88432500D02*
X137381000Y-88432500D01*
X137381000Y-88432500D02*
X137000000Y-89067500D01*
X136492000Y-89067500D02*
X137508000Y-89067500D01*
X137900000Y-90750000D02*
X137900000Y-87210000D01*
X136100000Y-90750000D02*
X136100000Y-87210000D01*
X144273810Y-81102381D02*
X144273810Y-80102381D01*
X145321429Y-81007143D02*
X145273810Y-81054762D01*
X145130953Y-81102381D01*
X145035715Y-81102381D01*
X144892857Y-81054762D01*
X144797619Y-80959524D01*
X144750000Y-80864286D01*
X144702381Y-80673810D01*
X144702381Y-80530952D01*
X144750000Y-80340476D01*
X144797619Y-80245238D01*
X144892857Y-80150000D01*
X145035715Y-80102381D01*
X145130953Y-80102381D01*
X145273810Y-80150000D01*
X145321429Y-80197619D01*
X146273810Y-81102381D02*
X145702381Y-81102381D01*
X145988095Y-81102381D02*
X145988095Y-80102381D01*
X145892857Y-80245238D01*
X145797619Y-80340476D01*
X145702381Y-80388095D01*
X141857143Y-88166667D02*
X142333334Y-88166667D01*
X141761905Y-88452381D02*
X142095238Y-87452381D01*
X142428572Y-88452381D01*
X142619048Y-87452381D02*
X143190477Y-87452381D01*
X142904762Y-88452381D02*
X142904762Y-87452381D01*
X143380953Y-87452381D02*
X143952382Y-87452381D01*
X143666667Y-88452381D02*
X143666667Y-87452381D01*
X144285715Y-88452381D02*
X144285715Y-87452381D01*
X144761905Y-88452381D02*
X144761905Y-87452381D01*
X145333334Y-88452381D01*
X145333334Y-87452381D01*
X146000000Y-87976190D02*
X146000000Y-88452381D01*
X145666667Y-87452381D02*
X146000000Y-87976190D01*
X146333334Y-87452381D01*
X146809524Y-87880952D02*
X146714286Y-87833333D01*
X146666667Y-87785714D01*
X146619048Y-87690476D01*
X146619048Y-87642857D01*
X146666667Y-87547619D01*
X146714286Y-87500000D01*
X146809524Y-87452381D01*
X147000001Y-87452381D01*
X147095239Y-87500000D01*
X147142858Y-87547619D01*
X147190477Y-87642857D01*
X147190477Y-87690476D01*
X147142858Y-87785714D01*
X147095239Y-87833333D01*
X147000001Y-87880952D01*
X146809524Y-87880952D01*
X146714286Y-87928571D01*
X146666667Y-87976190D01*
X146619048Y-88071429D01*
X146619048Y-88261905D01*
X146666667Y-88357143D01*
X146714286Y-88404762D01*
X146809524Y-88452381D01*
X147000001Y-88452381D01*
X147095239Y-88404762D01*
X147142858Y-88357143D01*
X147190477Y-88261905D01*
X147190477Y-88071429D01*
X147142858Y-87976190D01*
X147095239Y-87928571D01*
X147000001Y-87880952D01*
X148095239Y-87452381D02*
X147619048Y-87452381D01*
X147571429Y-87928571D01*
X147619048Y-87880952D01*
X147714286Y-87833333D01*
X147952382Y-87833333D01*
X148047620Y-87880952D01*
X148095239Y-87928571D01*
X148142858Y-88023810D01*
X148142858Y-88261905D01*
X148095239Y-88357143D01*
X148047620Y-88404762D01*
X147952382Y-88452381D01*
X147714286Y-88452381D01*
X147619048Y-88404762D01*
X147571429Y-88357143D01*
X156938095Y-72752381D02*
X156938095Y-73561905D01*
X156985714Y-73657143D01*
X157033333Y-73704762D01*
X157128571Y-73752381D01*
X157319048Y-73752381D01*
X157414286Y-73704762D01*
X157461905Y-73657143D01*
X157509524Y-73561905D01*
X157509524Y-72752381D01*
X158509524Y-73752381D02*
X157938095Y-73752381D01*
X158223809Y-73752381D02*
X158223809Y-72752381D01*
X158128571Y-72895238D01*
X158033333Y-72990476D01*
X157938095Y-73038095D01*
X141342857Y-107962381D02*
X141342857Y-106962381D01*
X141914286Y-107962381D01*
X141914286Y-106962381D01*
X142390476Y-107962381D02*
X142390476Y-106962381D01*
X142723810Y-107676667D01*
X143057143Y-106962381D01*
X143057143Y-107962381D01*
X143723809Y-106962381D02*
X143914286Y-106962381D01*
X144009524Y-107010000D01*
X144104762Y-107105238D01*
X144152381Y-107295714D01*
X144152381Y-107629048D01*
X144104762Y-107819524D01*
X144009524Y-107914762D01*
X143914286Y-107962381D01*
X143723809Y-107962381D01*
X143628571Y-107914762D01*
X143533333Y-107819524D01*
X143485714Y-107629048D01*
X143485714Y-107295714D01*
X143533333Y-107105238D01*
X143628571Y-107010000D01*
X143723809Y-106962381D01*
X144533333Y-107914762D02*
X144676190Y-107962381D01*
X144914286Y-107962381D01*
X145009524Y-107914762D01*
X145057143Y-107867143D01*
X145104762Y-107771905D01*
X145104762Y-107676667D01*
X145057143Y-107581429D01*
X145009524Y-107533810D01*
X144914286Y-107486190D01*
X144723809Y-107438571D01*
X144628571Y-107390952D01*
X144580952Y-107343333D01*
X144533333Y-107248095D01*
X144533333Y-107152857D01*
X144580952Y-107057619D01*
X144628571Y-107010000D01*
X144723809Y-106962381D01*
X144961905Y-106962381D01*
X145104762Y-107010000D01*
X122566667Y-99952381D02*
X122566667Y-98952381D01*
X122947620Y-98952381D01*
X123042858Y-99000000D01*
X123090477Y-99047619D01*
X123138096Y-99142857D01*
X123138096Y-99285714D01*
X123090477Y-99380952D01*
X123042858Y-99428571D01*
X122947620Y-99476190D01*
X122566667Y-99476190D01*
X123566667Y-99952381D02*
X123566667Y-98952381D01*
X123900001Y-99666667D01*
X124233334Y-98952381D01*
X124233334Y-99952381D01*
X124900000Y-98952381D02*
X125090477Y-98952381D01*
X125185715Y-99000000D01*
X125280953Y-99095238D01*
X125328572Y-99285714D01*
X125328572Y-99619048D01*
X125280953Y-99809524D01*
X125185715Y-99904762D01*
X125090477Y-99952381D01*
X124900000Y-99952381D01*
X124804762Y-99904762D01*
X124709524Y-99809524D01*
X124661905Y-99619048D01*
X124661905Y-99285714D01*
X124709524Y-99095238D01*
X124804762Y-99000000D01*
X124900000Y-98952381D01*
X125709524Y-99904762D02*
X125852381Y-99952381D01*
X126090477Y-99952381D01*
X126185715Y-99904762D01*
X126233334Y-99857143D01*
X126280953Y-99761905D01*
X126280953Y-99666667D01*
X126233334Y-99571429D01*
X126185715Y-99523810D01*
X126090477Y-99476190D01*
X125900000Y-99428571D01*
X125804762Y-99380952D01*
X125757143Y-99333333D01*
X125709524Y-99238095D01*
X125709524Y-99142857D01*
X125757143Y-99047619D01*
X125804762Y-99000000D01*
X125900000Y-98952381D01*
X126138096Y-98952381D01*
X126280953Y-99000000D01*
X144100000Y-92652381D02*
X144100000Y-91652381D01*
X144480953Y-91652381D01*
X144576191Y-91700000D01*
X144623810Y-91747619D01*
X144671429Y-91842857D01*
X144671429Y-91985714D01*
X144623810Y-92080952D01*
X144576191Y-92128571D01*
X144480953Y-92176190D01*
X144100000Y-92176190D01*
X145100000Y-92652381D02*
X145100000Y-91652381D01*
X146147619Y-92652381D02*
X145814285Y-92176190D01*
X145576190Y-92652381D02*
X145576190Y-91652381D01*
X145957143Y-91652381D01*
X146052381Y-91700000D01*
X146100000Y-91747619D01*
X146147619Y-91842857D01*
X146147619Y-91985714D01*
X146100000Y-92080952D01*
X146052381Y-92128571D01*
X145957143Y-92176190D01*
X145576190Y-92176190D01*
X121166667Y-90785714D02*
X121166667Y-91452381D01*
X120928571Y-90404762D02*
X120690476Y-91119048D01*
X121309524Y-91119048D01*
X121595238Y-90452381D02*
X122214286Y-90452381D01*
X121880952Y-90833333D01*
X122023810Y-90833333D01*
X122119048Y-90880952D01*
X122166667Y-90928571D01*
X122214286Y-91023810D01*
X122214286Y-91261905D01*
X122166667Y-91357143D01*
X122119048Y-91404762D01*
X122023810Y-91452381D01*
X121738095Y-91452381D01*
X121642857Y-91404762D01*
X121595238Y-91357143D01*
X122547619Y-90452381D02*
X123166667Y-90452381D01*
X122833333Y-90833333D01*
X122976191Y-90833333D01*
X123071429Y-90880952D01*
X123119048Y-90928571D01*
X123166667Y-91023810D01*
X123166667Y-91261905D01*
X123119048Y-91357143D01*
X123071429Y-91404762D01*
X122976191Y-91452381D01*
X122690476Y-91452381D01*
X122595238Y-91404762D01*
X122547619Y-91357143D01*
X123595238Y-91452381D02*
X123595238Y-90452381D01*
X123928572Y-91166667D01*
X124261905Y-90452381D01*
X124261905Y-91452381D01*
X124738095Y-91452381D02*
X124738095Y-90452381D01*
X124738095Y-90928571D02*
X125309524Y-90928571D01*
X125309524Y-91452381D02*
X125309524Y-90452381D01*
X125690476Y-90452381D02*
X126357143Y-90452381D01*
X125690476Y-91452381D01*
X126357143Y-91452381D01*
X151133334Y-73657143D02*
X151085715Y-73704762D01*
X150942858Y-73752381D01*
X150847620Y-73752381D01*
X150704762Y-73704762D01*
X150609524Y-73609524D01*
X150561905Y-73514286D01*
X150514286Y-73323810D01*
X150514286Y-73180952D01*
X150561905Y-72990476D01*
X150609524Y-72895238D01*
X150704762Y-72800000D01*
X150847620Y-72752381D01*
X150942858Y-72752381D01*
X151085715Y-72800000D01*
X151133334Y-72847619D01*
X152085715Y-73752381D02*
X151514286Y-73752381D01*
X151800000Y-73752381D02*
X151800000Y-72752381D01*
X151704762Y-72895238D01*
X151609524Y-72990476D01*
X151514286Y-73038095D01*
X146704762Y-72052381D02*
X146133333Y-72052381D01*
X146419047Y-72052381D02*
X146419047Y-71052381D01*
X146323809Y-71195238D01*
X146228571Y-71290476D01*
X146133333Y-71338095D01*
X147561905Y-71385714D02*
X147561905Y-72052381D01*
X147133333Y-71385714D02*
X147133333Y-71909524D01*
X147180952Y-72004762D01*
X147276190Y-72052381D01*
X147419048Y-72052381D01*
X147514286Y-72004762D01*
X147561905Y-71957143D01*
X148371429Y-71528571D02*
X148038095Y-71528571D01*
X148038095Y-72052381D02*
X148038095Y-71052381D01*
X148514286Y-71052381D01*
X163833334Y-72957143D02*
X163785715Y-73004762D01*
X163642858Y-73052381D01*
X163547620Y-73052381D01*
X163404762Y-73004762D01*
X163309524Y-72909524D01*
X163261905Y-72814286D01*
X163214286Y-72623810D01*
X163214286Y-72480952D01*
X163261905Y-72290476D01*
X163309524Y-72195238D01*
X163404762Y-72100000D01*
X163547620Y-72052381D01*
X163642858Y-72052381D01*
X163785715Y-72100000D01*
X163833334Y-72147619D01*
X164214286Y-72147619D02*
X164261905Y-72100000D01*
X164357143Y-72052381D01*
X164595239Y-72052381D01*
X164690477Y-72100000D01*
X164738096Y-72147619D01*
X164785715Y-72242857D01*
X164785715Y-72338095D01*
X164738096Y-72480952D01*
X164166667Y-73052381D01*
X164785715Y-73052381D01*
X163404762Y-69252381D02*
X162833333Y-69252381D01*
X163119047Y-69252381D02*
X163119047Y-68252381D01*
X163023809Y-68395238D01*
X162928571Y-68490476D01*
X162833333Y-68538095D01*
X164261905Y-68585714D02*
X164261905Y-69252381D01*
X163833333Y-68585714D02*
X163833333Y-69109524D01*
X163880952Y-69204762D01*
X163976190Y-69252381D01*
X164119048Y-69252381D01*
X164214286Y-69204762D01*
X164261905Y-69157143D01*
X165071429Y-68728571D02*
X164738095Y-68728571D01*
X164738095Y-69252381D02*
X164738095Y-68252381D01*
X165214286Y-68252381D01*
X152633334Y-80057143D02*
X152585715Y-80104762D01*
X152442858Y-80152381D01*
X152347620Y-80152381D01*
X152204762Y-80104762D01*
X152109524Y-80009524D01*
X152061905Y-79914286D01*
X152014286Y-79723810D01*
X152014286Y-79580952D01*
X152061905Y-79390476D01*
X152109524Y-79295238D01*
X152204762Y-79200000D01*
X152347620Y-79152381D01*
X152442858Y-79152381D01*
X152585715Y-79200000D01*
X152633334Y-79247619D01*
X152966667Y-79152381D02*
X153585715Y-79152381D01*
X153252381Y-79533333D01*
X153395239Y-79533333D01*
X153490477Y-79580952D01*
X153538096Y-79628571D01*
X153585715Y-79723810D01*
X153585715Y-79961905D01*
X153538096Y-80057143D01*
X153490477Y-80104762D01*
X153395239Y-80152381D01*
X153109524Y-80152381D01*
X153014286Y-80104762D01*
X152966667Y-80057143D01*
X147757143Y-77402381D02*
X147852382Y-77402381D01*
X147947620Y-77450000D01*
X147995239Y-77497619D01*
X148042858Y-77592857D01*
X148090477Y-77783333D01*
X148090477Y-78021429D01*
X148042858Y-78211905D01*
X147995239Y-78307143D01*
X147947620Y-78354762D01*
X147852382Y-78402381D01*
X147757143Y-78402381D01*
X147661905Y-78354762D01*
X147614286Y-78307143D01*
X147566667Y-78211905D01*
X147519048Y-78021429D01*
X147519048Y-77783333D01*
X147566667Y-77592857D01*
X147614286Y-77497619D01*
X147661905Y-77450000D01*
X147757143Y-77402381D01*
X148519048Y-78307143D02*
X148566667Y-78354762D01*
X148519048Y-78402381D01*
X148471429Y-78354762D01*
X148519048Y-78307143D01*
X148519048Y-78402381D01*
X149519048Y-78402381D02*
X148947619Y-78402381D01*
X149233333Y-78402381D02*
X149233333Y-77402381D01*
X149138095Y-77545238D01*
X149042857Y-77640476D01*
X148947619Y-77688095D01*
X150376191Y-77735714D02*
X150376191Y-78402381D01*
X149947619Y-77735714D02*
X149947619Y-78259524D01*
X149995238Y-78354762D01*
X150090476Y-78402381D01*
X150233334Y-78402381D01*
X150328572Y-78354762D01*
X150376191Y-78307143D01*
X151185715Y-77878571D02*
X150852381Y-77878571D01*
X150852381Y-78402381D02*
X150852381Y-77402381D01*
X151328572Y-77402381D01*
X149833334Y-100552381D02*
X149500000Y-100076190D01*
X149261905Y-100552381D02*
X149261905Y-99552381D01*
X149642858Y-99552381D01*
X149738096Y-99600000D01*
X149785715Y-99647619D01*
X149833334Y-99742857D01*
X149833334Y-99885714D01*
X149785715Y-99980952D01*
X149738096Y-100028571D01*
X149642858Y-100076190D01*
X149261905Y-100076190D01*
X150785715Y-100552381D02*
X150214286Y-100552381D01*
X150500000Y-100552381D02*
X150500000Y-99552381D01*
X150404762Y-99695238D01*
X150309524Y-99790476D01*
X150214286Y-99838095D01*
X151161905Y-101447619D02*
X151209524Y-101400000D01*
X151304762Y-101352381D01*
X151542858Y-101352381D01*
X151638096Y-101400000D01*
X151685715Y-101447619D01*
X151733334Y-101542857D01*
X151733334Y-101638095D01*
X151685715Y-101780952D01*
X151114286Y-102352381D01*
X151733334Y-102352381D01*
X152352381Y-101352381D02*
X152447620Y-101352381D01*
X152542858Y-101400000D01*
X152590477Y-101447619D01*
X152638096Y-101542857D01*
X152685715Y-101733333D01*
X152685715Y-101971429D01*
X152638096Y-102161905D01*
X152590477Y-102257143D01*
X152542858Y-102304762D01*
X152447620Y-102352381D01*
X152352381Y-102352381D01*
X152257143Y-102304762D01*
X152209524Y-102257143D01*
X152161905Y-102161905D01*
X152114286Y-101971429D01*
X152114286Y-101733333D01*
X152161905Y-101542857D01*
X152209524Y-101447619D01*
X152257143Y-101400000D01*
X152352381Y-101352381D01*
X153304762Y-101352381D02*
X153400001Y-101352381D01*
X153495239Y-101400000D01*
X153542858Y-101447619D01*
X153590477Y-101542857D01*
X153638096Y-101733333D01*
X153638096Y-101971429D01*
X153590477Y-102161905D01*
X153542858Y-102257143D01*
X153495239Y-102304762D01*
X153400001Y-102352381D01*
X153304762Y-102352381D01*
X153209524Y-102304762D01*
X153161905Y-102257143D01*
X153114286Y-102161905D01*
X153066667Y-101971429D01*
X153066667Y-101733333D01*
X153114286Y-101542857D01*
X153161905Y-101447619D01*
X153209524Y-101400000D01*
X153304762Y-101352381D01*
X130033334Y-96352381D02*
X129700000Y-95876190D01*
X129461905Y-96352381D02*
X129461905Y-95352381D01*
X129842858Y-95352381D01*
X129938096Y-95400000D01*
X129985715Y-95447619D01*
X130033334Y-95542857D01*
X130033334Y-95685714D01*
X129985715Y-95780952D01*
X129938096Y-95828571D01*
X129842858Y-95876190D01*
X129461905Y-95876190D01*
X130414286Y-95447619D02*
X130461905Y-95400000D01*
X130557143Y-95352381D01*
X130795239Y-95352381D01*
X130890477Y-95400000D01*
X130938096Y-95447619D01*
X130985715Y-95542857D01*
X130985715Y-95638095D01*
X130938096Y-95780952D01*
X130366667Y-96352381D01*
X130985715Y-96352381D01*
X127309524Y-92952381D02*
X126738095Y-92952381D01*
X127023809Y-92952381D02*
X127023809Y-91952381D01*
X126928571Y-92095238D01*
X126833333Y-92190476D01*
X126738095Y-92238095D01*
X127928571Y-91952381D02*
X128023810Y-91952381D01*
X128119048Y-92000000D01*
X128166667Y-92047619D01*
X128214286Y-92142857D01*
X128261905Y-92333333D01*
X128261905Y-92571429D01*
X128214286Y-92761905D01*
X128166667Y-92857143D01*
X128119048Y-92904762D01*
X128023810Y-92952381D01*
X127928571Y-92952381D01*
X127833333Y-92904762D01*
X127785714Y-92857143D01*
X127738095Y-92761905D01*
X127690476Y-92571429D01*
X127690476Y-92333333D01*
X127738095Y-92142857D01*
X127785714Y-92047619D01*
X127833333Y-92000000D01*
X127928571Y-91952381D01*
X128690476Y-92952381D02*
X128690476Y-91952381D01*
X129261905Y-92952381D02*
X128833333Y-92380952D01*
X129261905Y-91952381D02*
X128690476Y-92523810D01*
X149633334Y-107552381D02*
X149300000Y-107076190D01*
X149061905Y-107552381D02*
X149061905Y-106552381D01*
X149442858Y-106552381D01*
X149538096Y-106600000D01*
X149585715Y-106647619D01*
X149633334Y-106742857D01*
X149633334Y-106885714D01*
X149585715Y-106980952D01*
X149538096Y-107028571D01*
X149442858Y-107076190D01*
X149061905Y-107076190D01*
X149966667Y-106552381D02*
X150585715Y-106552381D01*
X150252381Y-106933333D01*
X150395239Y-106933333D01*
X150490477Y-106980952D01*
X150538096Y-107028571D01*
X150585715Y-107123810D01*
X150585715Y-107361905D01*
X150538096Y-107457143D01*
X150490477Y-107504762D01*
X150395239Y-107552381D01*
X150109524Y-107552381D01*
X150014286Y-107504762D01*
X149966667Y-107457143D01*
X151809524Y-105552381D02*
X151238095Y-105552381D01*
X151523809Y-105552381D02*
X151523809Y-104552381D01*
X151428571Y-104695238D01*
X151333333Y-104790476D01*
X151238095Y-104838095D01*
X152428571Y-104552381D02*
X152523810Y-104552381D01*
X152619048Y-104600000D01*
X152666667Y-104647619D01*
X152714286Y-104742857D01*
X152761905Y-104933333D01*
X152761905Y-105171429D01*
X152714286Y-105361905D01*
X152666667Y-105457143D01*
X152619048Y-105504762D01*
X152523810Y-105552381D01*
X152428571Y-105552381D01*
X152333333Y-105504762D01*
X152285714Y-105457143D01*
X152238095Y-105361905D01*
X152190476Y-105171429D01*
X152190476Y-104933333D01*
X152238095Y-104742857D01*
X152285714Y-104647619D01*
X152333333Y-104600000D01*
X152428571Y-104552381D01*
X153190476Y-105552381D02*
X153190476Y-104552381D01*
X153761905Y-105552381D02*
X153333333Y-104980952D01*
X153761905Y-104552381D02*
X153190476Y-105123810D01*
X139833334Y-78352381D02*
X139500000Y-77876190D01*
X139261905Y-78352381D02*
X139261905Y-77352381D01*
X139642858Y-77352381D01*
X139738096Y-77400000D01*
X139785715Y-77447619D01*
X139833334Y-77542857D01*
X139833334Y-77685714D01*
X139785715Y-77780952D01*
X139738096Y-77828571D01*
X139642858Y-77876190D01*
X139261905Y-77876190D01*
X140690477Y-77685714D02*
X140690477Y-78352381D01*
X140452381Y-77304762D02*
X140214286Y-78019048D01*
X140833334Y-78019048D01*
X142059524Y-78352381D02*
X141488095Y-78352381D01*
X141773809Y-78352381D02*
X141773809Y-77352381D01*
X141678571Y-77495238D01*
X141583333Y-77590476D01*
X141488095Y-77638095D01*
X142678571Y-77352381D02*
X142773810Y-77352381D01*
X142869048Y-77400000D01*
X142916667Y-77447619D01*
X142964286Y-77542857D01*
X143011905Y-77733333D01*
X143011905Y-77971429D01*
X142964286Y-78161905D01*
X142916667Y-78257143D01*
X142869048Y-78304762D01*
X142773810Y-78352381D01*
X142678571Y-78352381D01*
X142583333Y-78304762D01*
X142535714Y-78257143D01*
X142488095Y-78161905D01*
X142440476Y-77971429D01*
X142440476Y-77733333D01*
X142488095Y-77542857D01*
X142535714Y-77447619D01*
X142583333Y-77400000D01*
X142678571Y-77352381D01*
X143440476Y-78352381D02*
X143440476Y-77352381D01*
X144011905Y-78352381D02*
X143583333Y-77780952D01*
X144011905Y-77352381D02*
X143440476Y-77923810D01*
X163566667Y-80085714D02*
X163566667Y-80752381D01*
X163328571Y-79704762D02*
X163090476Y-80419048D01*
X163709524Y-80419048D01*
X163995238Y-79752381D02*
X164614286Y-79752381D01*
X164280952Y-80133333D01*
X164423810Y-80133333D01*
X164519048Y-80180952D01*
X164566667Y-80228571D01*
X164614286Y-80323810D01*
X164614286Y-80561905D01*
X164566667Y-80657143D01*
X164519048Y-80704762D01*
X164423810Y-80752381D01*
X164138095Y-80752381D01*
X164042857Y-80704762D01*
X163995238Y-80657143D01*
X164947619Y-79752381D02*
X165566667Y-79752381D01*
X165233333Y-80133333D01*
X165376191Y-80133333D01*
X165471429Y-80180952D01*
X165519048Y-80228571D01*
X165566667Y-80323810D01*
X165566667Y-80561905D01*
X165519048Y-80657143D01*
X165471429Y-80704762D01*
X165376191Y-80752381D01*
X165090476Y-80752381D01*
X164995238Y-80704762D01*
X164947619Y-80657143D01*
X165995238Y-80752381D02*
X165995238Y-79752381D01*
X166328572Y-80466667D01*
X166661905Y-79752381D01*
X166661905Y-80752381D01*
X167138095Y-80752381D02*
X167138095Y-79752381D01*
X167138095Y-80228571D02*
X167709524Y-80228571D01*
X167709524Y-80752381D02*
X167709524Y-79752381D01*
X168090476Y-79752381D02*
X168757143Y-79752381D01*
X168090476Y-80752381D01*
X168757143Y-80752381D01*
X158461905Y-103752381D02*
X158461905Y-102752381D01*
X158700000Y-102752381D01*
X158842858Y-102800000D01*
X158938096Y-102895238D01*
X158985715Y-102990476D01*
X159033334Y-103180952D01*
X159033334Y-103323810D01*
X158985715Y-103514286D01*
X158938096Y-103609524D01*
X158842858Y-103704762D01*
X158700000Y-103752381D01*
X158461905Y-103752381D01*
X159985715Y-103752381D02*
X159414286Y-103752381D01*
X159700000Y-103752381D02*
X159700000Y-102752381D01*
X159604762Y-102895238D01*
X159509524Y-102990476D01*
X159414286Y-103038095D01*
X159661905Y-99352381D02*
X159661905Y-98352381D01*
X159900000Y-98352381D01*
X160042858Y-98400000D01*
X160138096Y-98495238D01*
X160185715Y-98590476D01*
X160233334Y-98780952D01*
X160233334Y-98923810D01*
X160185715Y-99114286D01*
X160138096Y-99209524D01*
X160042858Y-99304762D01*
X159900000Y-99352381D01*
X159661905Y-99352381D01*
X160614286Y-98447619D02*
X160661905Y-98400000D01*
X160757143Y-98352381D01*
X160995239Y-98352381D01*
X161090477Y-98400000D01*
X161138096Y-98447619D01*
X161185715Y-98542857D01*
X161185715Y-98638095D01*
X161138096Y-98780952D01*
X160566667Y-99352381D01*
X161185715Y-99352381D01*
X136261905Y-86102381D02*
X136261905Y-85102381D01*
X136500000Y-85102381D01*
X136642858Y-85150000D01*
X136738096Y-85245238D01*
X136785715Y-85340476D01*
X136833334Y-85530952D01*
X136833334Y-85673810D01*
X136785715Y-85864286D01*
X136738096Y-85959524D01*
X136642858Y-86054762D01*
X136500000Y-86102381D01*
X136261905Y-86102381D01*
X137166667Y-85102381D02*
X137785715Y-85102381D01*
X137452381Y-85483333D01*
X137595239Y-85483333D01*
X137690477Y-85530952D01*
X137738096Y-85578571D01*
X137785715Y-85673810D01*
X137785715Y-85911905D01*
X137738096Y-86007143D01*
X137690477Y-86054762D01*
X137595239Y-86102381D01*
X137309524Y-86102381D01*
X137214286Y-86054762D01*
X137166667Y-86007143D01*
%LPC*%
D12*
X152000000Y-68000000D03*
X152000000Y-88240000D03*
X137000000Y-102000000D03*
X137000000Y-81760000D03*
D13*
X148175000Y-82095000D03*
X148175000Y-83365000D03*
X148175000Y-84635000D03*
X148175000Y-85905000D03*
X141825000Y-85905000D03*
X141825000Y-84635000D03*
X141825000Y-83365000D03*
X141825000Y-82095000D03*
D14*
X157750000Y-63948000D03*
D15*
X157750000Y-70552000D03*
X160036000Y-70552000D03*
X155464000Y-70552000D03*
D16*
X166000000Y-64000000D03*
D17*
X144150000Y-102198860D03*
X142250000Y-102198860D03*
X143200000Y-105201140D03*
X125450000Y-94398860D03*
X123550000Y-94398860D03*
X124500000Y-97401140D03*
D18*
X147500000Y-94900000D03*
D19*
X144960000Y-94900000D03*
X142420000Y-94900000D03*
D20*
X123000000Y-88000000D03*
D21*
X123000000Y-85460000D03*
X123000000Y-82920000D03*
D22*
X152450000Y-71500000D03*
X149950000Y-71500000D03*
X162750000Y-70600000D03*
X165250000Y-70600000D03*
X148150000Y-79700000D03*
X150650000Y-79700000D03*
D23*
X147050000Y-101900000D03*
X149750000Y-101900000D03*
D24*
X128000000Y-97250000D03*
X128000000Y-94550000D03*
D23*
X147050000Y-105100000D03*
X149750000Y-105100000D03*
X140150000Y-79650000D03*
X142850000Y-79650000D03*
D25*
X166000000Y-96460000D03*
X166000000Y-93920000D03*
X166000000Y-99000000D03*
D26*
X138500000Y-66600000D03*
D27*
X138500000Y-64060000D03*
X135960000Y-66600000D03*
X135960000Y-64060000D03*
X133420000Y-66600000D03*
X133420000Y-64060000D03*
D20*
X167000000Y-83000000D03*
D21*
X167000000Y-85540000D03*
X167000000Y-88080000D03*
D16*
X166000000Y-106000000D03*
X124000000Y-106000000D03*
X124000000Y-64000000D03*
D28*
X157000000Y-104935000D03*
X157000000Y-101665000D03*
D29*
X158635000Y-98900000D03*
X155365000Y-98900000D03*
D28*
X137000000Y-90385000D03*
X137000000Y-87115000D03*
D30*
X123000000Y-73900000D03*
D31*
X123000000Y-76440000D03*
D32*
X130500000Y-85000000D03*
X159500000Y-85000000D03*
D33*
X133040000Y-72100000D03*
D34*
X130500000Y-72100000D03*
X127960000Y-72100000D03*
M02*
