G04 #@! TF.FileFunction,Legend,Top*
%FSLAX46Y46*%
G04 Gerber Fmt 4.6, Leading zero omitted, Abs format (unit mm)*
G04 Created by KiCad (PCBNEW 4.0.1-stable) date 31/08/2016 22:52:19*
%MOMM*%
G01*
G04 APERTURE LIST*
%ADD10C,0.100000*%
%ADD11C,0.150000*%
%ADD12C,0.101600*%
%ADD13C,0.076200*%
%ADD14C,0.127000*%
%ADD15R,2.686000X1.000000*%
%ADD16R,2.400000X1.620000*%
%ADD17R,2.432000X2.127200*%
%ADD18O,2.432000X2.127200*%
%ADD19C,2.686000*%
%ADD20R,4.057600X2.432000*%
%ADD21R,1.416000X2.432000*%
%ADD22C,6.800000*%
%ADD23R,1.200100X2.200860*%
%ADD24R,2.127200X2.432000*%
%ADD25O,2.127200X2.432000*%
%ADD26R,1.900000X1.650000*%
%ADD27R,1.900000X1.700000*%
%ADD28R,2.127200X2.127200*%
%ADD29O,2.127200X2.127200*%
%ADD30R,2.432000X2.432000*%
%ADD31O,2.432000X2.432000*%
%ADD32C,4.800000*%
%ADD33R,1.797000X1.797000*%
%ADD34C,1.797000*%
%ADD35R,1.620000X2.400000*%
G04 APERTURE END LIST*
D10*
D11*
X166526333Y-92812381D02*
X166526333Y-91812381D01*
X166907286Y-91812381D01*
X167002524Y-91860000D01*
X167050143Y-91907619D01*
X167097762Y-92002857D01*
X167097762Y-92145714D01*
X167050143Y-92240952D01*
X167002524Y-92288571D01*
X166907286Y-92336190D01*
X166526333Y-92336190D01*
X167716809Y-91812381D02*
X167907286Y-91812381D01*
X168002524Y-91860000D01*
X168097762Y-91955238D01*
X168145381Y-92145714D01*
X168145381Y-92479048D01*
X168097762Y-92669524D01*
X168002524Y-92764762D01*
X167907286Y-92812381D01*
X167716809Y-92812381D01*
X167621571Y-92764762D01*
X167526333Y-92669524D01*
X167478714Y-92479048D01*
X167478714Y-92145714D01*
X167526333Y-91955238D01*
X167621571Y-91860000D01*
X167716809Y-91812381D01*
X168431095Y-91812381D02*
X169002524Y-91812381D01*
X168716809Y-92812381D02*
X168716809Y-91812381D01*
X139419810Y-64872381D02*
X139419810Y-63872381D01*
X140467429Y-64777143D02*
X140419810Y-64824762D01*
X140276953Y-64872381D01*
X140181715Y-64872381D01*
X140038857Y-64824762D01*
X139943619Y-64729524D01*
X139896000Y-64634286D01*
X139848381Y-64443810D01*
X139848381Y-64300952D01*
X139896000Y-64110476D01*
X139943619Y-64015238D01*
X140038857Y-63920000D01*
X140181715Y-63872381D01*
X140276953Y-63872381D01*
X140419810Y-63920000D01*
X140467429Y-63967619D01*
X140848381Y-64824762D02*
X140991238Y-64872381D01*
X141229334Y-64872381D01*
X141324572Y-64824762D01*
X141372191Y-64777143D01*
X141419810Y-64681905D01*
X141419810Y-64586667D01*
X141372191Y-64491429D01*
X141324572Y-64443810D01*
X141229334Y-64396190D01*
X141038857Y-64348571D01*
X140943619Y-64300952D01*
X140896000Y-64253333D01*
X140848381Y-64158095D01*
X140848381Y-64062857D01*
X140896000Y-63967619D01*
X140943619Y-63920000D01*
X141038857Y-63872381D01*
X141276953Y-63872381D01*
X141419810Y-63920000D01*
X141848381Y-64872381D02*
X141848381Y-63872381D01*
X142229334Y-63872381D01*
X142324572Y-63920000D01*
X142372191Y-63967619D01*
X142419810Y-64062857D01*
X142419810Y-64205714D01*
X142372191Y-64300952D01*
X142324572Y-64348571D01*
X142229334Y-64396190D01*
X141848381Y-64396190D01*
X140165715Y-67412381D02*
X139594286Y-67412381D01*
X139880000Y-67412381D02*
X139880000Y-66412381D01*
X139784762Y-66555238D01*
X139689524Y-66650476D01*
X139594286Y-66698095D01*
X133266667Y-79652381D02*
X133600000Y-80652381D01*
X133933334Y-79652381D01*
X134838096Y-80557143D02*
X134790477Y-80604762D01*
X134647620Y-80652381D01*
X134552382Y-80652381D01*
X134409524Y-80604762D01*
X134314286Y-80509524D01*
X134266667Y-80414286D01*
X134219048Y-80223810D01*
X134219048Y-80080952D01*
X134266667Y-79890476D01*
X134314286Y-79795238D01*
X134409524Y-79700000D01*
X134552382Y-79652381D01*
X134647620Y-79652381D01*
X134790477Y-79700000D01*
X134838096Y-79747619D01*
X135838096Y-80557143D02*
X135790477Y-80604762D01*
X135647620Y-80652381D01*
X135552382Y-80652381D01*
X135409524Y-80604762D01*
X135314286Y-80509524D01*
X135266667Y-80414286D01*
X135219048Y-80223810D01*
X135219048Y-80080952D01*
X135266667Y-79890476D01*
X135314286Y-79795238D01*
X135409524Y-79700000D01*
X135552382Y-79652381D01*
X135647620Y-79652381D01*
X135790477Y-79700000D01*
X135838096Y-79747619D01*
X162295714Y-97479667D02*
X162771905Y-97479667D01*
X162200476Y-97765381D02*
X162533809Y-96765381D01*
X162867143Y-97765381D01*
X163200476Y-97765381D02*
X163200476Y-96765381D01*
X163438571Y-96765381D01*
X163581429Y-96813000D01*
X163676667Y-96908238D01*
X163724286Y-97003476D01*
X163771905Y-97193952D01*
X163771905Y-97336810D01*
X163724286Y-97527286D01*
X163676667Y-97622524D01*
X163581429Y-97717762D01*
X163438571Y-97765381D01*
X163200476Y-97765381D01*
X164771905Y-97670143D02*
X164724286Y-97717762D01*
X164581429Y-97765381D01*
X164486191Y-97765381D01*
X164343333Y-97717762D01*
X164248095Y-97622524D01*
X164200476Y-97527286D01*
X164152857Y-97336810D01*
X164152857Y-97193952D01*
X164200476Y-97003476D01*
X164248095Y-96908238D01*
X164343333Y-96813000D01*
X164486191Y-96765381D01*
X164581429Y-96765381D01*
X164724286Y-96813000D01*
X164771905Y-96860619D01*
X165105238Y-96765381D02*
X165724286Y-96765381D01*
X165390952Y-97146333D01*
X165533810Y-97146333D01*
X165629048Y-97193952D01*
X165676667Y-97241571D01*
X165724286Y-97336810D01*
X165724286Y-97574905D01*
X165676667Y-97670143D01*
X165629048Y-97717762D01*
X165533810Y-97765381D01*
X165248095Y-97765381D01*
X165152857Y-97717762D01*
X165105238Y-97670143D01*
X163406905Y-94352381D02*
X164025953Y-94352381D01*
X163692619Y-94733333D01*
X163835477Y-94733333D01*
X163930715Y-94780952D01*
X163978334Y-94828571D01*
X164025953Y-94923810D01*
X164025953Y-95161905D01*
X163978334Y-95257143D01*
X163930715Y-95304762D01*
X163835477Y-95352381D01*
X163549762Y-95352381D01*
X163454524Y-95304762D01*
X163406905Y-95257143D01*
X164311667Y-94352381D02*
X164645000Y-95352381D01*
X164978334Y-94352381D01*
X165216429Y-94352381D02*
X165835477Y-94352381D01*
X165502143Y-94733333D01*
X165645001Y-94733333D01*
X165740239Y-94780952D01*
X165787858Y-94828571D01*
X165835477Y-94923810D01*
X165835477Y-95161905D01*
X165787858Y-95257143D01*
X165740239Y-95304762D01*
X165645001Y-95352381D01*
X165359286Y-95352381D01*
X165264048Y-95304762D01*
X165216429Y-95257143D01*
X121338096Y-69000000D02*
X121242858Y-68952381D01*
X121100001Y-68952381D01*
X120957143Y-69000000D01*
X120861905Y-69095238D01*
X120814286Y-69190476D01*
X120766667Y-69380952D01*
X120766667Y-69523810D01*
X120814286Y-69714286D01*
X120861905Y-69809524D01*
X120957143Y-69904762D01*
X121100001Y-69952381D01*
X121195239Y-69952381D01*
X121338096Y-69904762D01*
X121385715Y-69857143D01*
X121385715Y-69523810D01*
X121195239Y-69523810D01*
X121814286Y-69952381D02*
X121814286Y-68952381D01*
X122385715Y-69952381D01*
X122385715Y-68952381D01*
X122861905Y-69952381D02*
X122861905Y-68952381D01*
X123100000Y-68952381D01*
X123242858Y-69000000D01*
X123338096Y-69095238D01*
X123385715Y-69190476D01*
X123433334Y-69380952D01*
X123433334Y-69523810D01*
X123385715Y-69714286D01*
X123338096Y-69809524D01*
X123242858Y-69904762D01*
X123100000Y-69952381D01*
X122861905Y-69952381D01*
X120766667Y-76572381D02*
X121100000Y-77572381D01*
X121433334Y-76572381D01*
X122338096Y-77477143D02*
X122290477Y-77524762D01*
X122147620Y-77572381D01*
X122052382Y-77572381D01*
X121909524Y-77524762D01*
X121814286Y-77429524D01*
X121766667Y-77334286D01*
X121719048Y-77143810D01*
X121719048Y-77000952D01*
X121766667Y-76810476D01*
X121814286Y-76715238D01*
X121909524Y-76620000D01*
X122052382Y-76572381D01*
X122147620Y-76572381D01*
X122290477Y-76620000D01*
X122338096Y-76667619D01*
X123338096Y-77477143D02*
X123290477Y-77524762D01*
X123147620Y-77572381D01*
X123052382Y-77572381D01*
X122909524Y-77524762D01*
X122814286Y-77429524D01*
X122766667Y-77334286D01*
X122719048Y-77143810D01*
X122719048Y-77000952D01*
X122766667Y-76810476D01*
X122814286Y-76715238D01*
X122909524Y-76620000D01*
X123052382Y-76572381D01*
X123147620Y-76572381D01*
X123290477Y-76620000D01*
X123338096Y-76667619D01*
X163629096Y-99353000D02*
X163533858Y-99305381D01*
X163391001Y-99305381D01*
X163248143Y-99353000D01*
X163152905Y-99448238D01*
X163105286Y-99543476D01*
X163057667Y-99733952D01*
X163057667Y-99876810D01*
X163105286Y-100067286D01*
X163152905Y-100162524D01*
X163248143Y-100257762D01*
X163391001Y-100305381D01*
X163486239Y-100305381D01*
X163629096Y-100257762D01*
X163676715Y-100210143D01*
X163676715Y-99876810D01*
X163486239Y-99876810D01*
X164105286Y-100305381D02*
X164105286Y-99305381D01*
X164676715Y-100305381D01*
X164676715Y-99305381D01*
X165152905Y-100305381D02*
X165152905Y-99305381D01*
X165391000Y-99305381D01*
X165533858Y-99353000D01*
X165629096Y-99448238D01*
X165676715Y-99543476D01*
X165724334Y-99733952D01*
X165724334Y-99876810D01*
X165676715Y-100067286D01*
X165629096Y-100162524D01*
X165533858Y-100257762D01*
X165391000Y-100305381D01*
X165152905Y-100305381D01*
X154628571Y-60952381D02*
X155247619Y-60952381D01*
X154914285Y-61333333D01*
X155057143Y-61333333D01*
X155152381Y-61380952D01*
X155200000Y-61428571D01*
X155247619Y-61523810D01*
X155247619Y-61761905D01*
X155200000Y-61857143D01*
X155152381Y-61904762D01*
X155057143Y-61952381D01*
X154771428Y-61952381D01*
X154676190Y-61904762D01*
X154628571Y-61857143D01*
X155533333Y-60952381D02*
X155866666Y-61952381D01*
X156200000Y-60952381D01*
X156438095Y-60952381D02*
X157057143Y-60952381D01*
X156723809Y-61333333D01*
X156866667Y-61333333D01*
X156961905Y-61380952D01*
X157009524Y-61428571D01*
X157057143Y-61523810D01*
X157057143Y-61761905D01*
X157009524Y-61857143D01*
X156961905Y-61904762D01*
X156866667Y-61952381D01*
X156580952Y-61952381D01*
X156485714Y-61904762D01*
X156438095Y-61857143D01*
X158819048Y-61952381D02*
X158485714Y-61476190D01*
X158247619Y-61952381D02*
X158247619Y-60952381D01*
X158628572Y-60952381D01*
X158723810Y-61000000D01*
X158771429Y-61047619D01*
X158819048Y-61142857D01*
X158819048Y-61285714D01*
X158771429Y-61380952D01*
X158723810Y-61428571D01*
X158628572Y-61476190D01*
X158247619Y-61476190D01*
X159247619Y-61428571D02*
X159580953Y-61428571D01*
X159723810Y-61952381D02*
X159247619Y-61952381D01*
X159247619Y-60952381D01*
X159723810Y-60952381D01*
X160676191Y-61000000D02*
X160580953Y-60952381D01*
X160438096Y-60952381D01*
X160295238Y-61000000D01*
X160200000Y-61095238D01*
X160152381Y-61190476D01*
X160104762Y-61380952D01*
X160104762Y-61523810D01*
X160152381Y-61714286D01*
X160200000Y-61809524D01*
X160295238Y-61904762D01*
X160438096Y-61952381D01*
X160533334Y-61952381D01*
X160676191Y-61904762D01*
X160723810Y-61857143D01*
X160723810Y-61523810D01*
X160533334Y-61523810D01*
X148938096Y-65900000D02*
X148842858Y-65852381D01*
X148700001Y-65852381D01*
X148557143Y-65900000D01*
X148461905Y-65995238D01*
X148414286Y-66090476D01*
X148366667Y-66280952D01*
X148366667Y-66423810D01*
X148414286Y-66614286D01*
X148461905Y-66709524D01*
X148557143Y-66804762D01*
X148700001Y-66852381D01*
X148795239Y-66852381D01*
X148938096Y-66804762D01*
X148985715Y-66757143D01*
X148985715Y-66423810D01*
X148795239Y-66423810D01*
X149414286Y-66852381D02*
X149414286Y-65852381D01*
X149985715Y-66852381D01*
X149985715Y-65852381D01*
X150461905Y-66852381D02*
X150461905Y-65852381D01*
X150700000Y-65852381D01*
X150842858Y-65900000D01*
X150938096Y-65995238D01*
X150985715Y-66090476D01*
X151033334Y-66280952D01*
X151033334Y-66423810D01*
X150985715Y-66614286D01*
X150938096Y-66709524D01*
X150842858Y-66804762D01*
X150700000Y-66852381D01*
X150461905Y-66852381D01*
X163502096Y-86780000D02*
X163406858Y-86732381D01*
X163264001Y-86732381D01*
X163121143Y-86780000D01*
X163025905Y-86875238D01*
X162978286Y-86970476D01*
X162930667Y-87160952D01*
X162930667Y-87303810D01*
X162978286Y-87494286D01*
X163025905Y-87589524D01*
X163121143Y-87684762D01*
X163264001Y-87732381D01*
X163359239Y-87732381D01*
X163502096Y-87684762D01*
X163549715Y-87637143D01*
X163549715Y-87303810D01*
X163359239Y-87303810D01*
X163978286Y-87732381D02*
X163978286Y-86732381D01*
X164549715Y-87732381D01*
X164549715Y-86732381D01*
X165025905Y-87732381D02*
X165025905Y-86732381D01*
X165264000Y-86732381D01*
X165406858Y-86780000D01*
X165502096Y-86875238D01*
X165549715Y-86970476D01*
X165597334Y-87160952D01*
X165597334Y-87303810D01*
X165549715Y-87494286D01*
X165502096Y-87589524D01*
X165406858Y-87684762D01*
X165264000Y-87732381D01*
X165025905Y-87732381D01*
X162930667Y-84192381D02*
X163264000Y-85192381D01*
X163597334Y-84192381D01*
X164502096Y-85097143D02*
X164454477Y-85144762D01*
X164311620Y-85192381D01*
X164216382Y-85192381D01*
X164073524Y-85144762D01*
X163978286Y-85049524D01*
X163930667Y-84954286D01*
X163883048Y-84763810D01*
X163883048Y-84620952D01*
X163930667Y-84430476D01*
X163978286Y-84335238D01*
X164073524Y-84240000D01*
X164216382Y-84192381D01*
X164311620Y-84192381D01*
X164454477Y-84240000D01*
X164502096Y-84287619D01*
X165502096Y-85097143D02*
X165454477Y-85144762D01*
X165311620Y-85192381D01*
X165216382Y-85192381D01*
X165073524Y-85144762D01*
X164978286Y-85049524D01*
X164930667Y-84954286D01*
X164883048Y-84763810D01*
X164883048Y-84620952D01*
X164930667Y-84430476D01*
X164978286Y-84335238D01*
X165073524Y-84240000D01*
X165216382Y-84192381D01*
X165311620Y-84192381D01*
X165454477Y-84240000D01*
X165502096Y-84287619D01*
X162510000Y-82652381D02*
X162510000Y-81652381D01*
X162748095Y-81652381D01*
X162890953Y-81700000D01*
X162986191Y-81795238D01*
X163033810Y-81890476D01*
X163081429Y-82080952D01*
X163081429Y-82223810D01*
X163033810Y-82414286D01*
X162986191Y-82509524D01*
X162890953Y-82604762D01*
X162748095Y-82652381D01*
X162510000Y-82652381D01*
X163462381Y-82366667D02*
X163938572Y-82366667D01*
X163367143Y-82652381D02*
X163700476Y-81652381D01*
X164033810Y-82652381D01*
X164224286Y-81652381D02*
X164795715Y-81652381D01*
X164510000Y-82652381D02*
X164510000Y-81652381D01*
X165081429Y-82366667D02*
X165557620Y-82366667D01*
X164986191Y-82652381D02*
X165319524Y-81652381D01*
X165652858Y-82652381D01*
X124410000Y-87732381D02*
X124410000Y-86732381D01*
X124648095Y-86732381D01*
X124790953Y-86780000D01*
X124886191Y-86875238D01*
X124933810Y-86970476D01*
X124981429Y-87160952D01*
X124981429Y-87303810D01*
X124933810Y-87494286D01*
X124886191Y-87589524D01*
X124790953Y-87684762D01*
X124648095Y-87732381D01*
X124410000Y-87732381D01*
X125362381Y-87446667D02*
X125838572Y-87446667D01*
X125267143Y-87732381D02*
X125600476Y-86732381D01*
X125933810Y-87732381D01*
X126124286Y-86732381D02*
X126695715Y-86732381D01*
X126410000Y-87732381D02*
X126410000Y-86732381D01*
X126981429Y-87446667D02*
X127457620Y-87446667D01*
X126886191Y-87732381D02*
X127219524Y-86732381D01*
X127552858Y-87732381D01*
X124894096Y-81700000D02*
X124798858Y-81652381D01*
X124656001Y-81652381D01*
X124513143Y-81700000D01*
X124417905Y-81795238D01*
X124370286Y-81890476D01*
X124322667Y-82080952D01*
X124322667Y-82223810D01*
X124370286Y-82414286D01*
X124417905Y-82509524D01*
X124513143Y-82604762D01*
X124656001Y-82652381D01*
X124751239Y-82652381D01*
X124894096Y-82604762D01*
X124941715Y-82557143D01*
X124941715Y-82223810D01*
X124751239Y-82223810D01*
X125370286Y-82652381D02*
X125370286Y-81652381D01*
X125941715Y-82652381D01*
X125941715Y-81652381D01*
X126417905Y-82652381D02*
X126417905Y-81652381D01*
X126656000Y-81652381D01*
X126798858Y-81700000D01*
X126894096Y-81795238D01*
X126941715Y-81890476D01*
X126989334Y-82080952D01*
X126989334Y-82223810D01*
X126941715Y-82414286D01*
X126894096Y-82509524D01*
X126798858Y-82604762D01*
X126656000Y-82652381D01*
X126417905Y-82652381D01*
X124322667Y-84192381D02*
X124656000Y-85192381D01*
X124989334Y-84192381D01*
X125894096Y-85097143D02*
X125846477Y-85144762D01*
X125703620Y-85192381D01*
X125608382Y-85192381D01*
X125465524Y-85144762D01*
X125370286Y-85049524D01*
X125322667Y-84954286D01*
X125275048Y-84763810D01*
X125275048Y-84620952D01*
X125322667Y-84430476D01*
X125370286Y-84335238D01*
X125465524Y-84240000D01*
X125608382Y-84192381D01*
X125703620Y-84192381D01*
X125846477Y-84240000D01*
X125894096Y-84287619D01*
X126894096Y-85097143D02*
X126846477Y-85144762D01*
X126703620Y-85192381D01*
X126608382Y-85192381D01*
X126465524Y-85144762D01*
X126370286Y-85049524D01*
X126322667Y-84954286D01*
X126275048Y-84763810D01*
X126275048Y-84620952D01*
X126322667Y-84430476D01*
X126370286Y-84335238D01*
X126465524Y-84240000D01*
X126608382Y-84192381D01*
X126703620Y-84192381D01*
X126846477Y-84240000D01*
X126894096Y-84287619D01*
X146952381Y-99535333D02*
X147952381Y-99202000D01*
X146952381Y-98868666D01*
X147857143Y-97963904D02*
X147904762Y-98011523D01*
X147952381Y-98154380D01*
X147952381Y-98249618D01*
X147904762Y-98392476D01*
X147809524Y-98487714D01*
X147714286Y-98535333D01*
X147523810Y-98582952D01*
X147380952Y-98582952D01*
X147190476Y-98535333D01*
X147095238Y-98487714D01*
X147000000Y-98392476D01*
X146952381Y-98249618D01*
X146952381Y-98154380D01*
X147000000Y-98011523D01*
X147047619Y-97963904D01*
X147857143Y-96963904D02*
X147904762Y-97011523D01*
X147952381Y-97154380D01*
X147952381Y-97249618D01*
X147904762Y-97392476D01*
X147809524Y-97487714D01*
X147714286Y-97535333D01*
X147523810Y-97582952D01*
X147380952Y-97582952D01*
X147190476Y-97535333D01*
X147095238Y-97487714D01*
X147000000Y-97392476D01*
X146952381Y-97249618D01*
X146952381Y-97154380D01*
X147000000Y-97011523D01*
X147047619Y-96963904D01*
X144452381Y-99250000D02*
X144452381Y-99059523D01*
X144500000Y-98964285D01*
X144595238Y-98869047D01*
X144785714Y-98821428D01*
X145119048Y-98821428D01*
X145309524Y-98869047D01*
X145404762Y-98964285D01*
X145452381Y-99059523D01*
X145452381Y-99250000D01*
X145404762Y-99345238D01*
X145309524Y-99440476D01*
X145119048Y-99488095D01*
X144785714Y-99488095D01*
X144595238Y-99440476D01*
X144500000Y-99345238D01*
X144452381Y-99250000D01*
X144452381Y-98392857D02*
X145261905Y-98392857D01*
X145357143Y-98345238D01*
X145404762Y-98297619D01*
X145452381Y-98202381D01*
X145452381Y-98011904D01*
X145404762Y-97916666D01*
X145357143Y-97869047D01*
X145261905Y-97821428D01*
X144452381Y-97821428D01*
X144452381Y-97488095D02*
X144452381Y-96916666D01*
X145452381Y-97202381D02*
X144452381Y-97202381D01*
X141920000Y-98963904D02*
X141872381Y-99059142D01*
X141872381Y-99201999D01*
X141920000Y-99344857D01*
X142015238Y-99440095D01*
X142110476Y-99487714D01*
X142300952Y-99535333D01*
X142443810Y-99535333D01*
X142634286Y-99487714D01*
X142729524Y-99440095D01*
X142824762Y-99344857D01*
X142872381Y-99201999D01*
X142872381Y-99106761D01*
X142824762Y-98963904D01*
X142777143Y-98916285D01*
X142443810Y-98916285D01*
X142443810Y-99106761D01*
X142872381Y-98487714D02*
X141872381Y-98487714D01*
X142872381Y-97916285D01*
X141872381Y-97916285D01*
X142872381Y-97440095D02*
X141872381Y-97440095D01*
X141872381Y-97202000D01*
X141920000Y-97059142D01*
X142015238Y-96963904D01*
X142110476Y-96916285D01*
X142300952Y-96868666D01*
X142443810Y-96868666D01*
X142634286Y-96916285D01*
X142729524Y-96963904D01*
X142824762Y-97059142D01*
X142872381Y-97202000D01*
X142872381Y-97440095D01*
X147286000Y-81460000D02*
X147286000Y-86540000D01*
X147286000Y-86540000D02*
X142714000Y-86540000D01*
X142714000Y-86540000D02*
X142714000Y-81460000D01*
X142714000Y-81460000D02*
X147286000Y-81460000D01*
X145762000Y-81460000D02*
X145762000Y-81968000D01*
X145762000Y-81968000D02*
X144492000Y-81968000D01*
X144492000Y-81968000D02*
X144492000Y-81460000D01*
X157198000Y-97305000D02*
X157598000Y-97305000D01*
X157198000Y-96305000D02*
X156898000Y-96305000D01*
X156580500Y-96805000D02*
X156199500Y-96805000D01*
X157596500Y-96805000D02*
X157215500Y-96805000D01*
X157215500Y-96805000D02*
X156580500Y-97186000D01*
X156580500Y-97186000D02*
X156580500Y-96424000D01*
X156580500Y-96424000D02*
X157215500Y-96805000D01*
X157215500Y-97313000D02*
X157215500Y-96297000D01*
X158898000Y-95905000D02*
X155358000Y-95905000D01*
X158898000Y-97705000D02*
X155358000Y-97705000D01*
X154194000Y-68774000D02*
X154194000Y-71822000D01*
X154194000Y-71822000D02*
X161306000Y-71822000D01*
X161306000Y-71822000D02*
X161306000Y-68774000D01*
X154194000Y-65726000D02*
X154194000Y-64964000D01*
X154194000Y-64964000D02*
X155718000Y-62678000D01*
X155718000Y-62678000D02*
X159782000Y-62678000D01*
X159782000Y-62678000D02*
X161306000Y-64964000D01*
X161306000Y-64964000D02*
X161306000Y-65726000D01*
X144699820Y-103649200D02*
X144699820Y-104350240D01*
X144699820Y-104350240D02*
X144450900Y-104350240D01*
X141900840Y-104350240D02*
X141700180Y-104350240D01*
X141700180Y-104350240D02*
X141700180Y-103649200D01*
X128855180Y-93553800D02*
X128855180Y-92852760D01*
X128855180Y-92852760D02*
X129104100Y-92852760D01*
X131654160Y-92852760D02*
X131854820Y-92852760D01*
X131854820Y-92852760D02*
X131854820Y-93553800D01*
X142420000Y-93350000D02*
X140870000Y-93350000D01*
X140870000Y-93350000D02*
X140870000Y-96450000D01*
X140870000Y-96450000D02*
X142420000Y-96450000D01*
X143690000Y-93630000D02*
X148770000Y-93630000D01*
X148770000Y-93630000D02*
X148770000Y-96170000D01*
X148770000Y-96170000D02*
X143690000Y-96170000D01*
X143690000Y-96170000D02*
X143690000Y-93630000D01*
X150700000Y-72350000D02*
X151700000Y-72350000D01*
X151700000Y-70650000D02*
X150700000Y-70650000D01*
X164500000Y-69750000D02*
X163500000Y-69750000D01*
X163500000Y-71450000D02*
X164500000Y-71450000D01*
X149900000Y-78850000D02*
X148900000Y-78850000D01*
X148900000Y-80550000D02*
X149900000Y-80550000D01*
X149000000Y-102775000D02*
X147800000Y-102775000D01*
X147800000Y-101025000D02*
X149000000Y-101025000D01*
X129374000Y-97200000D02*
X130574000Y-97200000D01*
X130574000Y-98950000D02*
X129374000Y-98950000D01*
X149000000Y-105975000D02*
X147800000Y-105975000D01*
X147800000Y-104225000D02*
X149000000Y-104225000D01*
X142100000Y-80525000D02*
X140900000Y-80525000D01*
X140900000Y-78775000D02*
X142100000Y-78775000D01*
X156500000Y-103600000D02*
X156500000Y-104000000D01*
X157500000Y-103600000D02*
X157500000Y-103300000D01*
X157000000Y-102982500D02*
X157000000Y-102601500D01*
X157000000Y-103998500D02*
X157000000Y-103617500D01*
X157000000Y-103617500D02*
X156619000Y-102982500D01*
X156619000Y-102982500D02*
X157381000Y-102982500D01*
X157381000Y-102982500D02*
X157000000Y-103617500D01*
X156492000Y-103617500D02*
X157508000Y-103617500D01*
X157900000Y-105300000D02*
X157900000Y-101760000D01*
X156100000Y-105300000D02*
X156100000Y-101760000D01*
X136459000Y-90526400D02*
X136459000Y-90926400D01*
X137459000Y-90526400D02*
X137459000Y-90226400D01*
X136959000Y-89908900D02*
X136959000Y-89527900D01*
X136959000Y-90924900D02*
X136959000Y-90543900D01*
X136959000Y-90543900D02*
X136578000Y-89908900D01*
X136578000Y-89908900D02*
X137340000Y-89908900D01*
X137340000Y-89908900D02*
X136959000Y-90543900D01*
X136451000Y-90543900D02*
X137467000Y-90543900D01*
X137859000Y-92226400D02*
X137859000Y-88686400D01*
X136059000Y-92226400D02*
X136059000Y-88686400D01*
X144273810Y-81102381D02*
X144273810Y-80102381D01*
X145321429Y-81007143D02*
X145273810Y-81054762D01*
X145130953Y-81102381D01*
X145035715Y-81102381D01*
X144892857Y-81054762D01*
X144797619Y-80959524D01*
X144750000Y-80864286D01*
X144702381Y-80673810D01*
X144702381Y-80530952D01*
X144750000Y-80340476D01*
X144797619Y-80245238D01*
X144892857Y-80150000D01*
X145035715Y-80102381D01*
X145130953Y-80102381D01*
X145273810Y-80150000D01*
X145321429Y-80197619D01*
X146273810Y-81102381D02*
X145702381Y-81102381D01*
X145988095Y-81102381D02*
X145988095Y-80102381D01*
X145892857Y-80245238D01*
X145797619Y-80340476D01*
X145702381Y-80388095D01*
X141857143Y-88166667D02*
X142333334Y-88166667D01*
X141761905Y-88452381D02*
X142095238Y-87452381D01*
X142428572Y-88452381D01*
X142619048Y-87452381D02*
X143190477Y-87452381D01*
X142904762Y-88452381D02*
X142904762Y-87452381D01*
X143380953Y-87452381D02*
X143952382Y-87452381D01*
X143666667Y-88452381D02*
X143666667Y-87452381D01*
X144285715Y-88452381D02*
X144285715Y-87452381D01*
X144761905Y-88452381D02*
X144761905Y-87452381D01*
X145333334Y-88452381D01*
X145333334Y-87452381D01*
X146000000Y-87976190D02*
X146000000Y-88452381D01*
X145666667Y-87452381D02*
X146000000Y-87976190D01*
X146333334Y-87452381D01*
X146809524Y-87880952D02*
X146714286Y-87833333D01*
X146666667Y-87785714D01*
X146619048Y-87690476D01*
X146619048Y-87642857D01*
X146666667Y-87547619D01*
X146714286Y-87500000D01*
X146809524Y-87452381D01*
X147000001Y-87452381D01*
X147095239Y-87500000D01*
X147142858Y-87547619D01*
X147190477Y-87642857D01*
X147190477Y-87690476D01*
X147142858Y-87785714D01*
X147095239Y-87833333D01*
X147000001Y-87880952D01*
X146809524Y-87880952D01*
X146714286Y-87928571D01*
X146666667Y-87976190D01*
X146619048Y-88071429D01*
X146619048Y-88261905D01*
X146666667Y-88357143D01*
X146714286Y-88404762D01*
X146809524Y-88452381D01*
X147000001Y-88452381D01*
X147095239Y-88404762D01*
X147142858Y-88357143D01*
X147190477Y-88261905D01*
X147190477Y-88071429D01*
X147142858Y-87976190D01*
X147095239Y-87928571D01*
X147000001Y-87880952D01*
X148095239Y-87452381D02*
X147619048Y-87452381D01*
X147571429Y-87928571D01*
X147619048Y-87880952D01*
X147714286Y-87833333D01*
X147952382Y-87833333D01*
X148047620Y-87880952D01*
X148095239Y-87928571D01*
X148142858Y-88023810D01*
X148142858Y-88261905D01*
X148095239Y-88357143D01*
X148047620Y-88404762D01*
X147952382Y-88452381D01*
X147714286Y-88452381D01*
X147619048Y-88404762D01*
X147571429Y-88357143D01*
X156311905Y-95416381D02*
X156311905Y-94416381D01*
X156550000Y-94416381D01*
X156692858Y-94464000D01*
X156788096Y-94559238D01*
X156835715Y-94654476D01*
X156883334Y-94844952D01*
X156883334Y-94987810D01*
X156835715Y-95178286D01*
X156788096Y-95273524D01*
X156692858Y-95368762D01*
X156550000Y-95416381D01*
X156311905Y-95416381D01*
X157264286Y-94511619D02*
X157311905Y-94464000D01*
X157407143Y-94416381D01*
X157645239Y-94416381D01*
X157740477Y-94464000D01*
X157788096Y-94511619D01*
X157835715Y-94606857D01*
X157835715Y-94702095D01*
X157788096Y-94844952D01*
X157216667Y-95416381D01*
X157835715Y-95416381D01*
X156938095Y-72752381D02*
X156938095Y-73561905D01*
X156985714Y-73657143D01*
X157033333Y-73704762D01*
X157128571Y-73752381D01*
X157319048Y-73752381D01*
X157414286Y-73704762D01*
X157461905Y-73657143D01*
X157509524Y-73561905D01*
X157509524Y-72752381D01*
X158509524Y-73752381D02*
X157938095Y-73752381D01*
X158223809Y-73752381D02*
X158223809Y-72752381D01*
X158128571Y-72895238D01*
X158033333Y-72990476D01*
X157938095Y-73038095D01*
X141342857Y-107962381D02*
X141342857Y-106962381D01*
X141914286Y-107962381D01*
X141914286Y-106962381D01*
X142390476Y-107962381D02*
X142390476Y-106962381D01*
X142723810Y-107676667D01*
X143057143Y-106962381D01*
X143057143Y-107962381D01*
X143723809Y-106962381D02*
X143914286Y-106962381D01*
X144009524Y-107010000D01*
X144104762Y-107105238D01*
X144152381Y-107295714D01*
X144152381Y-107629048D01*
X144104762Y-107819524D01*
X144009524Y-107914762D01*
X143914286Y-107962381D01*
X143723809Y-107962381D01*
X143628571Y-107914762D01*
X143533333Y-107819524D01*
X143485714Y-107629048D01*
X143485714Y-107295714D01*
X143533333Y-107105238D01*
X143628571Y-107010000D01*
X143723809Y-106962381D01*
X144533333Y-107914762D02*
X144676190Y-107962381D01*
X144914286Y-107962381D01*
X145009524Y-107914762D01*
X145057143Y-107867143D01*
X145104762Y-107771905D01*
X145104762Y-107676667D01*
X145057143Y-107581429D01*
X145009524Y-107533810D01*
X144914286Y-107486190D01*
X144723809Y-107438571D01*
X144628571Y-107390952D01*
X144580952Y-107343333D01*
X144533333Y-107248095D01*
X144533333Y-107152857D01*
X144580952Y-107057619D01*
X144628571Y-107010000D01*
X144723809Y-106962381D01*
X144961905Y-106962381D01*
X145104762Y-107010000D01*
X128621667Y-90355381D02*
X128621667Y-89355381D01*
X129002620Y-89355381D01*
X129097858Y-89403000D01*
X129145477Y-89450619D01*
X129193096Y-89545857D01*
X129193096Y-89688714D01*
X129145477Y-89783952D01*
X129097858Y-89831571D01*
X129002620Y-89879190D01*
X128621667Y-89879190D01*
X129621667Y-90355381D02*
X129621667Y-89355381D01*
X129955001Y-90069667D01*
X130288334Y-89355381D01*
X130288334Y-90355381D01*
X130955000Y-89355381D02*
X131145477Y-89355381D01*
X131240715Y-89403000D01*
X131335953Y-89498238D01*
X131383572Y-89688714D01*
X131383572Y-90022048D01*
X131335953Y-90212524D01*
X131240715Y-90307762D01*
X131145477Y-90355381D01*
X130955000Y-90355381D01*
X130859762Y-90307762D01*
X130764524Y-90212524D01*
X130716905Y-90022048D01*
X130716905Y-89688714D01*
X130764524Y-89498238D01*
X130859762Y-89403000D01*
X130955000Y-89355381D01*
X131764524Y-90307762D02*
X131907381Y-90355381D01*
X132145477Y-90355381D01*
X132240715Y-90307762D01*
X132288334Y-90260143D01*
X132335953Y-90164905D01*
X132335953Y-90069667D01*
X132288334Y-89974429D01*
X132240715Y-89926810D01*
X132145477Y-89879190D01*
X131955000Y-89831571D01*
X131859762Y-89783952D01*
X131812143Y-89736333D01*
X131764524Y-89641095D01*
X131764524Y-89545857D01*
X131812143Y-89450619D01*
X131859762Y-89403000D01*
X131955000Y-89355381D01*
X132193096Y-89355381D01*
X132335953Y-89403000D01*
X143960000Y-92558381D02*
X143960000Y-91558381D01*
X144340953Y-91558381D01*
X144436191Y-91606000D01*
X144483810Y-91653619D01*
X144531429Y-91748857D01*
X144531429Y-91891714D01*
X144483810Y-91986952D01*
X144436191Y-92034571D01*
X144340953Y-92082190D01*
X143960000Y-92082190D01*
X144960000Y-92558381D02*
X144960000Y-91558381D01*
X146007619Y-92558381D02*
X145674285Y-92082190D01*
X145436190Y-92558381D02*
X145436190Y-91558381D01*
X145817143Y-91558381D01*
X145912381Y-91606000D01*
X145960000Y-91653619D01*
X146007619Y-91748857D01*
X146007619Y-91891714D01*
X145960000Y-91986952D01*
X145912381Y-92034571D01*
X145817143Y-92082190D01*
X145436190Y-92082190D01*
X151133334Y-73657143D02*
X151085715Y-73704762D01*
X150942858Y-73752381D01*
X150847620Y-73752381D01*
X150704762Y-73704762D01*
X150609524Y-73609524D01*
X150561905Y-73514286D01*
X150514286Y-73323810D01*
X150514286Y-73180952D01*
X150561905Y-72990476D01*
X150609524Y-72895238D01*
X150704762Y-72800000D01*
X150847620Y-72752381D01*
X150942858Y-72752381D01*
X151085715Y-72800000D01*
X151133334Y-72847619D01*
X152085715Y-73752381D02*
X151514286Y-73752381D01*
X151800000Y-73752381D02*
X151800000Y-72752381D01*
X151704762Y-72895238D01*
X151609524Y-72990476D01*
X151514286Y-73038095D01*
X146704762Y-72052381D02*
X146133333Y-72052381D01*
X146419047Y-72052381D02*
X146419047Y-71052381D01*
X146323809Y-71195238D01*
X146228571Y-71290476D01*
X146133333Y-71338095D01*
X147561905Y-71385714D02*
X147561905Y-72052381D01*
X147133333Y-71385714D02*
X147133333Y-71909524D01*
X147180952Y-72004762D01*
X147276190Y-72052381D01*
X147419048Y-72052381D01*
X147514286Y-72004762D01*
X147561905Y-71957143D01*
X148371429Y-71528571D02*
X148038095Y-71528571D01*
X148038095Y-72052381D02*
X148038095Y-71052381D01*
X148514286Y-71052381D01*
X163833334Y-72957143D02*
X163785715Y-73004762D01*
X163642858Y-73052381D01*
X163547620Y-73052381D01*
X163404762Y-73004762D01*
X163309524Y-72909524D01*
X163261905Y-72814286D01*
X163214286Y-72623810D01*
X163214286Y-72480952D01*
X163261905Y-72290476D01*
X163309524Y-72195238D01*
X163404762Y-72100000D01*
X163547620Y-72052381D01*
X163642858Y-72052381D01*
X163785715Y-72100000D01*
X163833334Y-72147619D01*
X164214286Y-72147619D02*
X164261905Y-72100000D01*
X164357143Y-72052381D01*
X164595239Y-72052381D01*
X164690477Y-72100000D01*
X164738096Y-72147619D01*
X164785715Y-72242857D01*
X164785715Y-72338095D01*
X164738096Y-72480952D01*
X164166667Y-73052381D01*
X164785715Y-73052381D01*
X163404762Y-69252381D02*
X162833333Y-69252381D01*
X163119047Y-69252381D02*
X163119047Y-68252381D01*
X163023809Y-68395238D01*
X162928571Y-68490476D01*
X162833333Y-68538095D01*
X164261905Y-68585714D02*
X164261905Y-69252381D01*
X163833333Y-68585714D02*
X163833333Y-69109524D01*
X163880952Y-69204762D01*
X163976190Y-69252381D01*
X164119048Y-69252381D01*
X164214286Y-69204762D01*
X164261905Y-69157143D01*
X165071429Y-68728571D02*
X164738095Y-68728571D01*
X164738095Y-69252381D02*
X164738095Y-68252381D01*
X165214286Y-68252381D01*
X152633334Y-80057143D02*
X152585715Y-80104762D01*
X152442858Y-80152381D01*
X152347620Y-80152381D01*
X152204762Y-80104762D01*
X152109524Y-80009524D01*
X152061905Y-79914286D01*
X152014286Y-79723810D01*
X152014286Y-79580952D01*
X152061905Y-79390476D01*
X152109524Y-79295238D01*
X152204762Y-79200000D01*
X152347620Y-79152381D01*
X152442858Y-79152381D01*
X152585715Y-79200000D01*
X152633334Y-79247619D01*
X152966667Y-79152381D02*
X153585715Y-79152381D01*
X153252381Y-79533333D01*
X153395239Y-79533333D01*
X153490477Y-79580952D01*
X153538096Y-79628571D01*
X153585715Y-79723810D01*
X153585715Y-79961905D01*
X153538096Y-80057143D01*
X153490477Y-80104762D01*
X153395239Y-80152381D01*
X153109524Y-80152381D01*
X153014286Y-80104762D01*
X152966667Y-80057143D01*
X147757143Y-77402381D02*
X147852382Y-77402381D01*
X147947620Y-77450000D01*
X147995239Y-77497619D01*
X148042858Y-77592857D01*
X148090477Y-77783333D01*
X148090477Y-78021429D01*
X148042858Y-78211905D01*
X147995239Y-78307143D01*
X147947620Y-78354762D01*
X147852382Y-78402381D01*
X147757143Y-78402381D01*
X147661905Y-78354762D01*
X147614286Y-78307143D01*
X147566667Y-78211905D01*
X147519048Y-78021429D01*
X147519048Y-77783333D01*
X147566667Y-77592857D01*
X147614286Y-77497619D01*
X147661905Y-77450000D01*
X147757143Y-77402381D01*
X148519048Y-78307143D02*
X148566667Y-78354762D01*
X148519048Y-78402381D01*
X148471429Y-78354762D01*
X148519048Y-78307143D01*
X148519048Y-78402381D01*
X149519048Y-78402381D02*
X148947619Y-78402381D01*
X149233333Y-78402381D02*
X149233333Y-77402381D01*
X149138095Y-77545238D01*
X149042857Y-77640476D01*
X148947619Y-77688095D01*
X150376191Y-77735714D02*
X150376191Y-78402381D01*
X149947619Y-77735714D02*
X149947619Y-78259524D01*
X149995238Y-78354762D01*
X150090476Y-78402381D01*
X150233334Y-78402381D01*
X150328572Y-78354762D01*
X150376191Y-78307143D01*
X151185715Y-77878571D02*
X150852381Y-77878571D01*
X150852381Y-78402381D02*
X150852381Y-77402381D01*
X151328572Y-77402381D01*
X149833334Y-100552381D02*
X149500000Y-100076190D01*
X149261905Y-100552381D02*
X149261905Y-99552381D01*
X149642858Y-99552381D01*
X149738096Y-99600000D01*
X149785715Y-99647619D01*
X149833334Y-99742857D01*
X149833334Y-99885714D01*
X149785715Y-99980952D01*
X149738096Y-100028571D01*
X149642858Y-100076190D01*
X149261905Y-100076190D01*
X150785715Y-100552381D02*
X150214286Y-100552381D01*
X150500000Y-100552381D02*
X150500000Y-99552381D01*
X150404762Y-99695238D01*
X150309524Y-99790476D01*
X150214286Y-99838095D01*
X151161905Y-101447619D02*
X151209524Y-101400000D01*
X151304762Y-101352381D01*
X151542858Y-101352381D01*
X151638096Y-101400000D01*
X151685715Y-101447619D01*
X151733334Y-101542857D01*
X151733334Y-101638095D01*
X151685715Y-101780952D01*
X151114286Y-102352381D01*
X151733334Y-102352381D01*
X152114286Y-101447619D02*
X152161905Y-101400000D01*
X152257143Y-101352381D01*
X152495239Y-101352381D01*
X152590477Y-101400000D01*
X152638096Y-101447619D01*
X152685715Y-101542857D01*
X152685715Y-101638095D01*
X152638096Y-101780952D01*
X152066667Y-102352381D01*
X152685715Y-102352381D01*
X153304762Y-101352381D02*
X153400001Y-101352381D01*
X153495239Y-101400000D01*
X153542858Y-101447619D01*
X153590477Y-101542857D01*
X153638096Y-101733333D01*
X153638096Y-101971429D01*
X153590477Y-102161905D01*
X153542858Y-102257143D01*
X153495239Y-102304762D01*
X153400001Y-102352381D01*
X153304762Y-102352381D01*
X153209524Y-102304762D01*
X153161905Y-102257143D01*
X153114286Y-102161905D01*
X153066667Y-101971429D01*
X153066667Y-101733333D01*
X153114286Y-101542857D01*
X153161905Y-101447619D01*
X153209524Y-101400000D01*
X153304762Y-101352381D01*
X126251334Y-98527381D02*
X125918000Y-98051190D01*
X125679905Y-98527381D02*
X125679905Y-97527381D01*
X126060858Y-97527381D01*
X126156096Y-97575000D01*
X126203715Y-97622619D01*
X126251334Y-97717857D01*
X126251334Y-97860714D01*
X126203715Y-97955952D01*
X126156096Y-98003571D01*
X126060858Y-98051190D01*
X125679905Y-98051190D01*
X126632286Y-97622619D02*
X126679905Y-97575000D01*
X126775143Y-97527381D01*
X127013239Y-97527381D01*
X127108477Y-97575000D01*
X127156096Y-97622619D01*
X127203715Y-97717857D01*
X127203715Y-97813095D01*
X127156096Y-97955952D01*
X126584667Y-98527381D01*
X127203715Y-98527381D01*
X128807334Y-100559381D02*
X128235905Y-100559381D01*
X128521619Y-100559381D02*
X128521619Y-99559381D01*
X128426381Y-99702238D01*
X128331143Y-99797476D01*
X128235905Y-99845095D01*
X129426381Y-99559381D02*
X129521620Y-99559381D01*
X129616858Y-99607000D01*
X129664477Y-99654619D01*
X129712096Y-99749857D01*
X129759715Y-99940333D01*
X129759715Y-100178429D01*
X129712096Y-100368905D01*
X129664477Y-100464143D01*
X129616858Y-100511762D01*
X129521620Y-100559381D01*
X129426381Y-100559381D01*
X129331143Y-100511762D01*
X129283524Y-100464143D01*
X129235905Y-100368905D01*
X129188286Y-100178429D01*
X129188286Y-99940333D01*
X129235905Y-99749857D01*
X129283524Y-99654619D01*
X129331143Y-99607000D01*
X129426381Y-99559381D01*
X130378762Y-99559381D02*
X130474001Y-99559381D01*
X130569239Y-99607000D01*
X130616858Y-99654619D01*
X130664477Y-99749857D01*
X130712096Y-99940333D01*
X130712096Y-100178429D01*
X130664477Y-100368905D01*
X130616858Y-100464143D01*
X130569239Y-100511762D01*
X130474001Y-100559381D01*
X130378762Y-100559381D01*
X130283524Y-100511762D01*
X130235905Y-100464143D01*
X130188286Y-100368905D01*
X130140667Y-100178429D01*
X130140667Y-99940333D01*
X130188286Y-99749857D01*
X130235905Y-99654619D01*
X130283524Y-99607000D01*
X130378762Y-99559381D01*
X131140667Y-100559381D02*
X131140667Y-99559381D01*
X131712096Y-100559381D02*
X131283524Y-99987952D01*
X131712096Y-99559381D02*
X131140667Y-100130810D01*
X149633334Y-107552381D02*
X149300000Y-107076190D01*
X149061905Y-107552381D02*
X149061905Y-106552381D01*
X149442858Y-106552381D01*
X149538096Y-106600000D01*
X149585715Y-106647619D01*
X149633334Y-106742857D01*
X149633334Y-106885714D01*
X149585715Y-106980952D01*
X149538096Y-107028571D01*
X149442858Y-107076190D01*
X149061905Y-107076190D01*
X149966667Y-106552381D02*
X150585715Y-106552381D01*
X150252381Y-106933333D01*
X150395239Y-106933333D01*
X150490477Y-106980952D01*
X150538096Y-107028571D01*
X150585715Y-107123810D01*
X150585715Y-107361905D01*
X150538096Y-107457143D01*
X150490477Y-107504762D01*
X150395239Y-107552381D01*
X150109524Y-107552381D01*
X150014286Y-107504762D01*
X149966667Y-107457143D01*
X151809524Y-105552381D02*
X151238095Y-105552381D01*
X151523809Y-105552381D02*
X151523809Y-104552381D01*
X151428571Y-104695238D01*
X151333333Y-104790476D01*
X151238095Y-104838095D01*
X152428571Y-104552381D02*
X152523810Y-104552381D01*
X152619048Y-104600000D01*
X152666667Y-104647619D01*
X152714286Y-104742857D01*
X152761905Y-104933333D01*
X152761905Y-105171429D01*
X152714286Y-105361905D01*
X152666667Y-105457143D01*
X152619048Y-105504762D01*
X152523810Y-105552381D01*
X152428571Y-105552381D01*
X152333333Y-105504762D01*
X152285714Y-105457143D01*
X152238095Y-105361905D01*
X152190476Y-105171429D01*
X152190476Y-104933333D01*
X152238095Y-104742857D01*
X152285714Y-104647619D01*
X152333333Y-104600000D01*
X152428571Y-104552381D01*
X153190476Y-105552381D02*
X153190476Y-104552381D01*
X153761905Y-105552381D02*
X153333333Y-104980952D01*
X153761905Y-104552381D02*
X153190476Y-105123810D01*
X139833334Y-78352381D02*
X139500000Y-77876190D01*
X139261905Y-78352381D02*
X139261905Y-77352381D01*
X139642858Y-77352381D01*
X139738096Y-77400000D01*
X139785715Y-77447619D01*
X139833334Y-77542857D01*
X139833334Y-77685714D01*
X139785715Y-77780952D01*
X139738096Y-77828571D01*
X139642858Y-77876190D01*
X139261905Y-77876190D01*
X140690477Y-77685714D02*
X140690477Y-78352381D01*
X140452381Y-77304762D02*
X140214286Y-78019048D01*
X140833334Y-78019048D01*
X142059524Y-78352381D02*
X141488095Y-78352381D01*
X141773809Y-78352381D02*
X141773809Y-77352381D01*
X141678571Y-77495238D01*
X141583333Y-77590476D01*
X141488095Y-77638095D01*
X142678571Y-77352381D02*
X142773810Y-77352381D01*
X142869048Y-77400000D01*
X142916667Y-77447619D01*
X142964286Y-77542857D01*
X143011905Y-77733333D01*
X143011905Y-77971429D01*
X142964286Y-78161905D01*
X142916667Y-78257143D01*
X142869048Y-78304762D01*
X142773810Y-78352381D01*
X142678571Y-78352381D01*
X142583333Y-78304762D01*
X142535714Y-78257143D01*
X142488095Y-78161905D01*
X142440476Y-77971429D01*
X142440476Y-77733333D01*
X142488095Y-77542857D01*
X142535714Y-77447619D01*
X142583333Y-77400000D01*
X142678571Y-77352381D01*
X143440476Y-78352381D02*
X143440476Y-77352381D01*
X144011905Y-78352381D02*
X143583333Y-77780952D01*
X144011905Y-77352381D02*
X143440476Y-77923810D01*
X159293381Y-104190095D02*
X158293381Y-104190095D01*
X158293381Y-103952000D01*
X158341000Y-103809142D01*
X158436238Y-103713904D01*
X158531476Y-103666285D01*
X158721952Y-103618666D01*
X158864810Y-103618666D01*
X159055286Y-103666285D01*
X159150524Y-103713904D01*
X159245762Y-103809142D01*
X159293381Y-103952000D01*
X159293381Y-104190095D01*
X159293381Y-102666285D02*
X159293381Y-103237714D01*
X159293381Y-102952000D02*
X158293381Y-102952000D01*
X158436238Y-103047238D01*
X158531476Y-103142476D01*
X158579095Y-103237714D01*
X139252381Y-91116495D02*
X138252381Y-91116495D01*
X138252381Y-90878400D01*
X138300000Y-90735542D01*
X138395238Y-90640304D01*
X138490476Y-90592685D01*
X138680952Y-90545066D01*
X138823810Y-90545066D01*
X139014286Y-90592685D01*
X139109524Y-90640304D01*
X139204762Y-90735542D01*
X139252381Y-90878400D01*
X139252381Y-91116495D01*
X138252381Y-90211733D02*
X138252381Y-89592685D01*
X138633333Y-89926019D01*
X138633333Y-89783161D01*
X138680952Y-89687923D01*
X138728571Y-89640304D01*
X138823810Y-89592685D01*
X139061905Y-89592685D01*
X139157143Y-89640304D01*
X139204762Y-89687923D01*
X139252381Y-89783161D01*
X139252381Y-90068876D01*
X139204762Y-90164114D01*
X139157143Y-90211733D01*
%LPC*%
D12*
X129599000Y-109130000D02*
X129759000Y-108610000D01*
X129639000Y-108910000D02*
X129599000Y-109130000D01*
X129519000Y-108630000D02*
X129639000Y-108910000D01*
X129299000Y-108330000D02*
X129519000Y-108630000D01*
X129209000Y-107900000D02*
X129299000Y-108330000D01*
X129579000Y-107910000D02*
X129579000Y-107740000D01*
X129599000Y-108010000D02*
X129579000Y-107910000D01*
X129549000Y-108100000D02*
X129599000Y-108010000D01*
X129429000Y-108130000D02*
X129549000Y-108100000D01*
X129309000Y-108000000D02*
X129429000Y-108130000D01*
X129239000Y-107810000D02*
X129309000Y-108000000D01*
X129759000Y-107810000D02*
X129669000Y-107680000D01*
X129889000Y-107840000D02*
X129759000Y-107810000D01*
X129999000Y-107800000D02*
X129889000Y-107840000D01*
X130039000Y-107700000D02*
X129999000Y-107800000D01*
X130039000Y-107560000D02*
X130039000Y-107700000D01*
X129939000Y-107420000D02*
X130039000Y-107560000D01*
X129759000Y-107310000D02*
X129939000Y-107420000D01*
X129859000Y-107280000D02*
X129759000Y-107280000D01*
X130009000Y-107270000D02*
X129859000Y-107280000D01*
X130109000Y-107200000D02*
X130009000Y-107270000D01*
X130089000Y-107050000D02*
X130109000Y-107200000D01*
X129979000Y-106950000D02*
X130089000Y-107050000D01*
X129609000Y-106960000D02*
X129979000Y-106950000D01*
X129729000Y-106830000D02*
X129639000Y-106970000D01*
X129749000Y-106720000D02*
X129729000Y-106830000D01*
X129699000Y-106610000D02*
X129749000Y-106720000D01*
X129529000Y-106580000D02*
X129699000Y-106610000D01*
X129369000Y-106640000D02*
X129529000Y-106580000D01*
X129279000Y-106910000D02*
X129369000Y-106640000D01*
X129179000Y-107820000D02*
X129169000Y-107790000D01*
X129209000Y-107800000D02*
X129179000Y-107820000D01*
X129189000Y-107820000D02*
X129209000Y-107800000D01*
X129169000Y-107930000D02*
X129189000Y-107820000D01*
X129109000Y-108040000D02*
X129169000Y-107930000D01*
X128989000Y-108080000D02*
X129109000Y-108040000D01*
X128879000Y-108040000D02*
X128989000Y-108080000D01*
X128869000Y-107850000D02*
X128879000Y-108040000D01*
X128949000Y-107650000D02*
X128869000Y-107850000D01*
X128679000Y-107690000D02*
X128929000Y-107630000D01*
X128559000Y-107610000D02*
X128679000Y-107690000D01*
X128519000Y-107480000D02*
X128559000Y-107610000D01*
X128609000Y-107330000D02*
X128519000Y-107480000D01*
X128879000Y-107280000D02*
X128609000Y-107330000D01*
X128659000Y-107160000D02*
X128869000Y-107210000D01*
X128549000Y-106990000D02*
X128659000Y-107160000D01*
X128659000Y-106800000D02*
X128549000Y-106990000D01*
X128939000Y-106730000D02*
X128659000Y-106800000D01*
X129209000Y-106870000D02*
X128939000Y-106730000D01*
D13*
X129379000Y-107540000D02*
X129499000Y-107450000D01*
X129249000Y-107550000D02*
X129379000Y-107540000D01*
X129129000Y-107480000D02*
X129249000Y-107550000D01*
D11*
X129210623Y-107260000D02*
G75*
G03X129210623Y-107260000I-31623J0D01*
G01*
D14*
X129729000Y-107340000D02*
G75*
G03X129729000Y-107340000I-410000J0D01*
G01*
D11*
X129490623Y-107260000D02*
G75*
G03X129490623Y-107260000I-31623J0D01*
G01*
D15*
X148556000Y-82095000D03*
X148556000Y-83365000D03*
X148556000Y-84635000D03*
X148556000Y-85905000D03*
X141444000Y-85905000D03*
X141444000Y-84635000D03*
X141444000Y-83365000D03*
X141444000Y-82095000D03*
D16*
X159031600Y-96805000D03*
X154764400Y-96805000D03*
D17*
X167820000Y-99980000D03*
D18*
X167820000Y-97440000D03*
X167820000Y-94900000D03*
D19*
X152000000Y-68000000D03*
X152000000Y-88240000D03*
X137000000Y-102000000D03*
X137000000Y-81760000D03*
D20*
X157750000Y-63948000D03*
D21*
X157750000Y-70552000D03*
X160036000Y-70552000D03*
X155464000Y-70552000D03*
D22*
X166000000Y-64000000D03*
D23*
X144150000Y-102198860D03*
X142250000Y-102198860D03*
X143200000Y-105201140D03*
X129405000Y-95004140D03*
X131305000Y-95004140D03*
X130355000Y-92001860D03*
D24*
X142420000Y-94900000D03*
D25*
X144960000Y-94900000D03*
X147500000Y-94900000D03*
D17*
X122100000Y-82200000D03*
D18*
X122100000Y-84740000D03*
X122100000Y-87280000D03*
D26*
X152450000Y-71500000D03*
X149950000Y-71500000D03*
X162750000Y-70600000D03*
X165250000Y-70600000D03*
X148150000Y-79700000D03*
X150650000Y-79700000D03*
D27*
X147050000Y-101900000D03*
X149750000Y-101900000D03*
X131324000Y-98075000D03*
X128624000Y-98075000D03*
X147050000Y-105100000D03*
X149750000Y-105100000D03*
X140150000Y-79650000D03*
X142850000Y-79650000D03*
D28*
X137340000Y-66960000D03*
D29*
X137340000Y-64420000D03*
X134800000Y-66960000D03*
X134800000Y-64420000D03*
X132260000Y-66960000D03*
X132260000Y-64420000D03*
D17*
X167820000Y-87280000D03*
D18*
X167820000Y-84740000D03*
X167820000Y-82200000D03*
D22*
X166000000Y-106000000D03*
X124000000Y-106000000D03*
X124000000Y-64000000D03*
D30*
X122100000Y-72040000D03*
D31*
X122100000Y-74580000D03*
D32*
X130500000Y-85000000D03*
X159500000Y-85000000D03*
D33*
X134800000Y-72040000D03*
D34*
X132260000Y-72040000D03*
X129720000Y-72040000D03*
D35*
X157000000Y-105433600D03*
X157000000Y-101166400D03*
X136959000Y-92360000D03*
X136959000Y-88092800D03*
M02*
