%TF.GenerationSoftware,KiCad,Pcbnew,4.0.2-4+6225~38~ubuntu14.04.1-stable*%
%TF.CreationDate,2016-03-31T13:36:06+01:00*%
%TF.ProjectId,rc_power_sockets,72635F706F7765725F736F636B657473,rev?*%
%TF.FileFunction,Copper,L2,Bot,Signal*%
%FSLAX46Y46*%
G04 Gerber Fmt 4.6, Leading zero omitted, Abs format (unit mm)*
G04 Created by KiCad (PCBNEW 4.0.2-4+6225~38~ubuntu14.04.1-stable) date Thu 31 Mar 2016 13:36:06 BST*
%MOMM*%
G01*
G04 APERTURE LIST*
%ADD10C,0.100000*%
%ADD11C,2.286000*%
%ADD12C,6.400000*%
%ADD13R,1.727200X2.032000*%
%ADD14O,1.727200X2.032000*%
%ADD15R,2.032000X1.727200*%
%ADD16O,2.032000X1.727200*%
%ADD17C,1.998980*%
%ADD18R,1.727200X1.727200*%
%ADD19O,1.727200X1.727200*%
%ADD20R,1.300000X1.500000*%
%ADD21R,1.198880X1.198880*%
%ADD22R,2.032000X2.032000*%
%ADD23O,2.032000X2.032000*%
%ADD24C,4.400000*%
%ADD25R,1.397000X1.397000*%
%ADD26C,1.397000*%
%ADD27C,0.750000*%
%ADD28C,0.406000*%
%ADD29C,0.813000*%
%ADD30C,0.254000*%
G04 APERTURE END LIST*
D10*
D11*
X152000000Y-68000000D03*
X152000000Y-88240000D03*
X137000000Y-102000000D03*
X137000000Y-81760000D03*
D12*
X166000000Y-64000000D03*
D13*
X147500000Y-94900000D03*
D14*
X144960000Y-94900000D03*
X142420000Y-94900000D03*
D15*
X123000000Y-88000000D03*
D16*
X123000000Y-85460000D03*
X123000000Y-82920000D03*
D17*
X166000000Y-96460000D03*
X166000000Y-93920000D03*
X166000000Y-99000000D03*
D18*
X138500000Y-66600000D03*
D19*
X138500000Y-64060000D03*
X135960000Y-66600000D03*
X135960000Y-64060000D03*
X133420000Y-66600000D03*
X133420000Y-64060000D03*
D15*
X167000000Y-83000000D03*
D16*
X167000000Y-85540000D03*
X167000000Y-88080000D03*
D12*
X166000000Y-106000000D03*
X124000000Y-106000000D03*
X124000000Y-64000000D03*
D20*
X165500000Y-71550000D03*
X165500000Y-74250000D03*
D21*
X168000000Y-73949020D03*
X168000000Y-71850980D03*
D22*
X123000000Y-73900000D03*
D23*
X123000000Y-76440000D03*
D24*
X130500000Y-85000000D03*
X159500000Y-85000000D03*
D25*
X133040000Y-72100000D03*
D26*
X130500000Y-72100000D03*
X127960000Y-72100000D03*
D27*
X155800000Y-66200000D03*
X155800000Y-67400000D03*
X159600000Y-67400000D03*
X159600000Y-66200000D03*
X157000000Y-67400000D03*
X157000000Y-66200000D03*
X158400000Y-66200000D03*
X158400000Y-67400000D03*
X144000000Y-75492000D03*
X146696000Y-83366000D03*
X145426000Y-84636000D03*
X145426000Y-77270000D03*
X139330000Y-84636000D03*
X150200000Y-85700000D03*
X144500000Y-85900000D03*
X143560000Y-83370000D03*
X162400000Y-89100000D03*
X155464800Y-73919600D03*
X133400000Y-105700000D03*
X130600000Y-94500000D03*
D28*
X166000000Y-99000000D02*
X163200000Y-101800000D01*
X163200000Y-103200000D02*
X166000000Y-106000000D01*
X163200000Y-101800000D02*
X163200000Y-103200000D01*
X124000000Y-106000000D02*
X121300000Y-103300000D01*
X123000000Y-90300000D02*
X123000000Y-88000000D01*
X121300000Y-92000000D02*
X123000000Y-90300000D01*
X121300000Y-103300000D02*
X121300000Y-92000000D01*
X166000000Y-106000000D02*
X163400000Y-108600000D01*
X126600000Y-108600000D02*
X124000000Y-106000000D01*
X163400000Y-108600000D02*
X126600000Y-108600000D01*
X147500000Y-94900000D02*
X147500000Y-90400000D01*
X134200000Y-88700000D02*
X130500000Y-85000000D01*
X145800000Y-88700000D02*
X134200000Y-88700000D01*
X147500000Y-90400000D02*
X145800000Y-88700000D01*
X123000000Y-88000000D02*
X127500000Y-88000000D01*
X127500000Y-88000000D02*
X130500000Y-85000000D01*
X123000000Y-73900000D02*
X126960000Y-73900000D01*
X126960000Y-73900000D02*
X127960000Y-72100000D01*
X133420000Y-64060000D02*
X130590000Y-64060000D01*
X123000000Y-71650000D02*
X123000000Y-73900000D01*
X130590000Y-64060000D02*
X123000000Y-71650000D01*
X123000000Y-73900000D02*
X121500000Y-73900000D01*
X121600000Y-88000000D02*
X123000000Y-88000000D01*
X121000000Y-87400000D02*
X121600000Y-88000000D01*
X121000000Y-74400000D02*
X121000000Y-87400000D01*
X121500000Y-73900000D02*
X121000000Y-74400000D01*
X133420000Y-64060000D02*
X133420000Y-62980000D01*
X145400000Y-61400000D02*
X152000000Y-68000000D01*
X135000000Y-61400000D02*
X145400000Y-61400000D01*
X133420000Y-62980000D02*
X135000000Y-61400000D01*
X168000000Y-71850980D02*
X168000000Y-70400000D01*
X169000000Y-67000000D02*
X166000000Y-64000000D01*
X169000000Y-69400000D02*
X169000000Y-67000000D01*
X168000000Y-70400000D02*
X169000000Y-69400000D01*
X152000000Y-68000000D02*
X153800000Y-69800000D01*
X160200000Y-69800000D02*
X166000000Y-64000000D01*
X153800000Y-69800000D02*
X160200000Y-69800000D01*
X155800000Y-66200000D02*
X155800000Y-67400000D01*
X159600000Y-66200000D02*
X159600000Y-67400000D01*
X157000000Y-67400000D02*
X157000000Y-66200000D01*
X158400000Y-66200000D02*
X158400000Y-67400000D01*
X167000000Y-83000000D02*
X166900000Y-83000000D01*
X146696000Y-77016000D02*
X145172000Y-75492000D01*
X145172000Y-75492000D02*
X144000000Y-75492000D01*
X146696000Y-77016000D02*
X146696000Y-83366000D01*
X145426000Y-84636000D02*
X145426000Y-77270000D01*
X125602000Y-80318000D02*
X123000000Y-82920000D01*
X131456000Y-80318000D02*
X125602000Y-80318000D01*
X135774000Y-84636000D02*
X131456000Y-80318000D01*
X139330000Y-84636000D02*
X135774000Y-84636000D01*
X167000000Y-88080000D02*
X167000000Y-89800000D01*
X153700000Y-85700000D02*
X150200000Y-85700000D01*
X158300000Y-90300000D02*
X153700000Y-85700000D01*
X166500000Y-90300000D02*
X158300000Y-90300000D01*
X167000000Y-89800000D02*
X166500000Y-90300000D01*
X123000000Y-82920000D02*
X123580000Y-82920000D01*
X123080000Y-83000000D02*
X123000000Y-82920000D01*
X165500000Y-71550000D02*
X143000000Y-71550000D01*
X143000000Y-71550000D02*
X143000000Y-71400000D01*
X135960000Y-64060000D02*
X135960000Y-63940000D01*
X135960000Y-63940000D02*
X137500000Y-62400000D01*
X144500000Y-82900000D02*
X144500000Y-85900000D01*
X143000000Y-81400000D02*
X144500000Y-82900000D01*
X143000000Y-65900000D02*
X143000000Y-71400000D01*
X143000000Y-71400000D02*
X143000000Y-81400000D01*
X139500000Y-62400000D02*
X143000000Y-65900000D01*
X137500000Y-62400000D02*
X139500000Y-62400000D01*
X143560000Y-83370000D02*
X143560000Y-87260000D01*
X158600000Y-89100000D02*
X162400000Y-89100000D01*
X153800000Y-84300000D02*
X158600000Y-89100000D01*
X149600000Y-84300000D02*
X153800000Y-84300000D01*
X148400000Y-85500000D02*
X149600000Y-84300000D01*
X148400000Y-87100000D02*
X148400000Y-85500000D01*
X147800000Y-87700000D02*
X148400000Y-87100000D01*
X144000000Y-87700000D02*
X147800000Y-87700000D01*
X143560000Y-87260000D02*
X144000000Y-87700000D01*
D29*
X165307200Y-85540000D02*
X167000000Y-85540000D01*
X164100800Y-84333600D02*
X165307200Y-85540000D01*
X164100800Y-82555600D02*
X164100800Y-84333600D01*
X155464800Y-73919600D02*
X164100800Y-82555600D01*
D28*
X130600000Y-102900000D02*
X133400000Y-105700000D01*
X130600000Y-101300000D02*
X130600000Y-102900000D01*
X130600000Y-94500000D02*
X130600000Y-101300000D01*
X168000000Y-73949020D02*
X165800980Y-73949020D01*
X165800980Y-73949020D02*
X165500000Y-74250000D01*
D29*
X152000000Y-88240000D02*
X152000000Y-96800000D01*
X146800000Y-102000000D02*
X137000000Y-102000000D01*
X152000000Y-96800000D02*
X146800000Y-102000000D01*
X133040000Y-72100000D02*
X133040000Y-76440000D01*
X133000000Y-76400000D02*
X133000000Y-76440000D01*
X133040000Y-76440000D02*
X133000000Y-76400000D01*
X123000000Y-76440000D02*
X133000000Y-76440000D01*
X133000000Y-76440000D02*
X135790000Y-76440000D01*
X137000000Y-77650000D02*
X137000000Y-81760000D01*
X135790000Y-76440000D02*
X137000000Y-77650000D01*
D30*
G36*
X121849754Y-60734181D02*
X121805640Y-60763657D01*
X121438695Y-61259090D01*
X124000000Y-63820395D01*
X126561305Y-61259090D01*
X126194360Y-60763657D01*
X126067266Y-60710000D01*
X163909271Y-60710000D01*
X163849754Y-60734181D01*
X163805640Y-60763657D01*
X163438695Y-61259090D01*
X166000000Y-63820395D01*
X168561305Y-61259090D01*
X168194360Y-60763657D01*
X168067266Y-60710000D01*
X169290000Y-60710000D01*
X169290000Y-61909271D01*
X169265819Y-61849754D01*
X169236343Y-61805640D01*
X168740910Y-61438695D01*
X166179605Y-64000000D01*
X168740910Y-66561305D01*
X169236343Y-66194360D01*
X169290000Y-66067266D01*
X169290000Y-103909271D01*
X169265819Y-103849754D01*
X169236343Y-103805640D01*
X168740910Y-103438695D01*
X166179605Y-106000000D01*
X168740910Y-108561305D01*
X169236343Y-108194360D01*
X169290000Y-108067266D01*
X169290000Y-109290000D01*
X168090729Y-109290000D01*
X168150246Y-109265819D01*
X168194360Y-109236343D01*
X168561305Y-108740910D01*
X166000000Y-106179605D01*
X163438695Y-108740910D01*
X163805640Y-109236343D01*
X163932734Y-109290000D01*
X126090729Y-109290000D01*
X126150246Y-109265819D01*
X126194360Y-109236343D01*
X126561305Y-108740910D01*
X124000000Y-106179605D01*
X121438695Y-108740910D01*
X121805640Y-109236343D01*
X121932734Y-109290000D01*
X120710000Y-109290000D01*
X120710000Y-108090729D01*
X120734181Y-108150246D01*
X120763657Y-108194360D01*
X121259090Y-108561305D01*
X123820395Y-106000000D01*
X124179605Y-106000000D01*
X126740910Y-108561305D01*
X127236343Y-108194360D01*
X127829736Y-106788829D01*
X127830089Y-106736793D01*
X162159913Y-106736793D01*
X162734181Y-108150246D01*
X162763657Y-108194360D01*
X163259090Y-108561305D01*
X165820395Y-106000000D01*
X163259090Y-103438695D01*
X162763657Y-103805640D01*
X162170264Y-105211171D01*
X162159913Y-106736793D01*
X127830089Y-106736793D01*
X127840087Y-105263207D01*
X127265819Y-103849754D01*
X127236343Y-103805640D01*
X126740910Y-103438695D01*
X124179605Y-106000000D01*
X123820395Y-106000000D01*
X121259090Y-103438695D01*
X120763657Y-103805640D01*
X120710000Y-103932734D01*
X120710000Y-103259090D01*
X121438695Y-103259090D01*
X124000000Y-105820395D01*
X126561305Y-103259090D01*
X126194360Y-102763657D01*
X124788829Y-102170264D01*
X123263207Y-102159913D01*
X121849754Y-102734181D01*
X121805640Y-102763657D01*
X121438695Y-103259090D01*
X120710000Y-103259090D01*
X120710000Y-94700020D01*
X129589825Y-94700020D01*
X129743264Y-95071372D01*
X129762000Y-95090141D01*
X129762000Y-102900000D01*
X129825789Y-103220689D01*
X129851448Y-103259090D01*
X130007445Y-103492555D01*
X132389847Y-105874958D01*
X132389825Y-105900020D01*
X132543264Y-106271372D01*
X132827134Y-106555737D01*
X133198217Y-106709824D01*
X133600020Y-106710175D01*
X133971372Y-106556736D01*
X134255737Y-106272866D01*
X134409824Y-105901783D01*
X134410175Y-105499980D01*
X134256736Y-105128628D01*
X133972866Y-104844263D01*
X133601783Y-104690176D01*
X133575264Y-104690153D01*
X131438000Y-102552890D01*
X131438000Y-95090572D01*
X131455737Y-95072866D01*
X131604229Y-94715255D01*
X140921400Y-94715255D01*
X140921400Y-95084745D01*
X141035474Y-95658234D01*
X141360330Y-96144415D01*
X141846511Y-96469271D01*
X142420000Y-96583345D01*
X142993489Y-96469271D01*
X143479670Y-96144415D01*
X143690000Y-95829634D01*
X143900330Y-96144415D01*
X144386511Y-96469271D01*
X144960000Y-96583345D01*
X145533489Y-96469271D01*
X146019670Y-96144415D01*
X146034500Y-96122220D01*
X146098073Y-96275699D01*
X146276702Y-96454327D01*
X146510091Y-96551000D01*
X147214250Y-96551000D01*
X147373000Y-96392250D01*
X147373000Y-95027000D01*
X147627000Y-95027000D01*
X147627000Y-96392250D01*
X147785750Y-96551000D01*
X148489909Y-96551000D01*
X148723298Y-96454327D01*
X148901927Y-96275699D01*
X148998600Y-96042310D01*
X148998600Y-95185750D01*
X148839850Y-95027000D01*
X147627000Y-95027000D01*
X147373000Y-95027000D01*
X147353000Y-95027000D01*
X147353000Y-94773000D01*
X147373000Y-94773000D01*
X147373000Y-93407750D01*
X147627000Y-93407750D01*
X147627000Y-94773000D01*
X148839850Y-94773000D01*
X148998600Y-94614250D01*
X148998600Y-93757690D01*
X148901927Y-93524301D01*
X148723298Y-93345673D01*
X148489909Y-93249000D01*
X147785750Y-93249000D01*
X147627000Y-93407750D01*
X147373000Y-93407750D01*
X147214250Y-93249000D01*
X146510091Y-93249000D01*
X146276702Y-93345673D01*
X146098073Y-93524301D01*
X146034500Y-93677780D01*
X146019670Y-93655585D01*
X145533489Y-93330729D01*
X144960000Y-93216655D01*
X144386511Y-93330729D01*
X143900330Y-93655585D01*
X143690000Y-93970366D01*
X143479670Y-93655585D01*
X142993489Y-93330729D01*
X142420000Y-93216655D01*
X141846511Y-93330729D01*
X141360330Y-93655585D01*
X141035474Y-94141766D01*
X140921400Y-94715255D01*
X131604229Y-94715255D01*
X131609824Y-94701783D01*
X131610175Y-94299980D01*
X131456736Y-93928628D01*
X131172866Y-93644263D01*
X130801783Y-93490176D01*
X130399980Y-93489825D01*
X130028628Y-93643264D01*
X129744263Y-93927134D01*
X129590176Y-94298217D01*
X129589825Y-94700020D01*
X120710000Y-94700020D01*
X120710000Y-88285750D01*
X121349000Y-88285750D01*
X121349000Y-88989909D01*
X121445673Y-89223298D01*
X121624301Y-89401927D01*
X121857690Y-89498600D01*
X122714250Y-89498600D01*
X122873000Y-89339850D01*
X122873000Y-88127000D01*
X123127000Y-88127000D01*
X123127000Y-89339850D01*
X123285750Y-89498600D01*
X124142310Y-89498600D01*
X124375699Y-89401927D01*
X124554327Y-89223298D01*
X124651000Y-88989909D01*
X124651000Y-88285750D01*
X124492250Y-88127000D01*
X123127000Y-88127000D01*
X122873000Y-88127000D01*
X121507750Y-88127000D01*
X121349000Y-88285750D01*
X120710000Y-88285750D01*
X120710000Y-82920000D01*
X121316655Y-82920000D01*
X121430729Y-83493489D01*
X121755585Y-83979670D01*
X122070366Y-84190000D01*
X121755585Y-84400330D01*
X121430729Y-84886511D01*
X121316655Y-85460000D01*
X121430729Y-86033489D01*
X121755585Y-86519670D01*
X121777780Y-86534500D01*
X121624301Y-86598073D01*
X121445673Y-86776702D01*
X121349000Y-87010091D01*
X121349000Y-87714250D01*
X121507750Y-87873000D01*
X122873000Y-87873000D01*
X122873000Y-87853000D01*
X123127000Y-87853000D01*
X123127000Y-87873000D01*
X124492250Y-87873000D01*
X124651000Y-87714250D01*
X124651000Y-87019382D01*
X128660223Y-87019382D01*
X128905368Y-87410888D01*
X129949360Y-87837609D01*
X131077181Y-87832330D01*
X132094632Y-87410888D01*
X132339777Y-87019382D01*
X130500000Y-85179605D01*
X128660223Y-87019382D01*
X124651000Y-87019382D01*
X124651000Y-87010091D01*
X124554327Y-86776702D01*
X124375699Y-86598073D01*
X124222220Y-86534500D01*
X124244415Y-86519670D01*
X124569271Y-86033489D01*
X124683345Y-85460000D01*
X124569271Y-84886511D01*
X124277176Y-84449360D01*
X127662391Y-84449360D01*
X127667670Y-85577181D01*
X128089112Y-86594632D01*
X128480618Y-86839777D01*
X130320395Y-85000000D01*
X130679605Y-85000000D01*
X132519382Y-86839777D01*
X132910888Y-86594632D01*
X133337609Y-85550640D01*
X133332330Y-84422819D01*
X132910888Y-83405368D01*
X132519382Y-83160223D01*
X130679605Y-85000000D01*
X130320395Y-85000000D01*
X128480618Y-83160223D01*
X128089112Y-83405368D01*
X127662391Y-84449360D01*
X124277176Y-84449360D01*
X124244415Y-84400330D01*
X123929634Y-84190000D01*
X124244415Y-83979670D01*
X124569271Y-83493489D01*
X124671287Y-82980618D01*
X128660223Y-82980618D01*
X130500000Y-84820395D01*
X132339777Y-82980618D01*
X132094632Y-82589112D01*
X131050640Y-82162391D01*
X129922819Y-82167670D01*
X128905368Y-82589112D01*
X128660223Y-82980618D01*
X124671287Y-82980618D01*
X124683345Y-82920000D01*
X124600683Y-82504428D01*
X125949111Y-81156000D01*
X131108890Y-81156000D01*
X135181444Y-85228555D01*
X135453311Y-85410211D01*
X135774000Y-85474000D01*
X138739428Y-85474000D01*
X138757134Y-85491737D01*
X139128217Y-85645824D01*
X139530020Y-85646175D01*
X139901372Y-85492736D01*
X140185737Y-85208866D01*
X140339824Y-84837783D01*
X140340175Y-84435980D01*
X140186736Y-84064628D01*
X139902866Y-83780263D01*
X139531783Y-83626176D01*
X139129980Y-83625825D01*
X138758628Y-83779264D01*
X138739859Y-83798000D01*
X136121111Y-83798000D01*
X132048555Y-79725445D01*
X132048554Y-79725444D01*
X131776689Y-79543789D01*
X131456000Y-79480000D01*
X125602000Y-79480000D01*
X125281311Y-79543789D01*
X125172417Y-79616550D01*
X125009445Y-79725444D01*
X123292130Y-81442760D01*
X123184745Y-81421400D01*
X122815255Y-81421400D01*
X122241766Y-81535474D01*
X121755585Y-81860330D01*
X121430729Y-82346511D01*
X121316655Y-82920000D01*
X120710000Y-82920000D01*
X120710000Y-76440000D01*
X121316655Y-76440000D01*
X121442330Y-77071810D01*
X121800222Y-77607433D01*
X122335845Y-77965325D01*
X122967655Y-78091000D01*
X123032345Y-78091000D01*
X123664155Y-77965325D01*
X124199778Y-77607433D01*
X124283924Y-77481500D01*
X133039995Y-77481500D01*
X133040000Y-77481501D01*
X133040005Y-77481500D01*
X135358596Y-77481500D01*
X135958500Y-78081403D01*
X135958500Y-80287404D01*
X135493564Y-80751529D01*
X135222309Y-81404782D01*
X135221692Y-82112114D01*
X135491806Y-82765840D01*
X135991529Y-83266436D01*
X136644782Y-83537691D01*
X137352114Y-83538308D01*
X138005840Y-83268194D01*
X138506436Y-82768471D01*
X138777691Y-82115218D01*
X138778308Y-81407886D01*
X138508194Y-80754160D01*
X138041500Y-80286651D01*
X138041500Y-77650000D01*
X137962221Y-77251435D01*
X137736452Y-76913548D01*
X137736449Y-76913546D01*
X136526452Y-75703548D01*
X136188565Y-75477779D01*
X135790000Y-75398500D01*
X134081500Y-75398500D01*
X134081500Y-73332370D01*
X134189941Y-73262590D01*
X134334931Y-73050390D01*
X134385940Y-72798500D01*
X134385940Y-71401500D01*
X134341662Y-71166183D01*
X134202590Y-70950059D01*
X133990390Y-70805069D01*
X133738500Y-70754060D01*
X132341500Y-70754060D01*
X132106183Y-70798338D01*
X131890059Y-70937410D01*
X131745069Y-71149610D01*
X131694060Y-71401500D01*
X131694060Y-71497884D01*
X131631146Y-71345620D01*
X131256353Y-70970173D01*
X130766413Y-70766732D01*
X130235914Y-70766269D01*
X129745620Y-70968854D01*
X129370173Y-71343647D01*
X129236686Y-71665118D01*
X129129800Y-71407071D01*
X128894188Y-71345417D01*
X128139605Y-72100000D01*
X128894188Y-72854583D01*
X129129800Y-72792929D01*
X129228083Y-72513688D01*
X129368854Y-72854380D01*
X129743647Y-73229827D01*
X130233587Y-73433268D01*
X130764086Y-73433731D01*
X131254380Y-73231146D01*
X131629827Y-72856353D01*
X131694060Y-72701663D01*
X131694060Y-72798500D01*
X131738338Y-73033817D01*
X131877410Y-73249941D01*
X131998500Y-73332678D01*
X131998500Y-75398500D01*
X124431525Y-75398500D01*
X124554327Y-75275699D01*
X124651000Y-75042310D01*
X124651000Y-74185750D01*
X124492250Y-74027000D01*
X123127000Y-74027000D01*
X123127000Y-74047000D01*
X122873000Y-74047000D01*
X122873000Y-74027000D01*
X121507750Y-74027000D01*
X121349000Y-74185750D01*
X121349000Y-75042310D01*
X121445673Y-75275699D01*
X121624302Y-75454327D01*
X121666966Y-75471999D01*
X121442330Y-75808190D01*
X121316655Y-76440000D01*
X120710000Y-76440000D01*
X120710000Y-72757690D01*
X121349000Y-72757690D01*
X121349000Y-73614250D01*
X121507750Y-73773000D01*
X122873000Y-73773000D01*
X122873000Y-72407750D01*
X123127000Y-72407750D01*
X123127000Y-73773000D01*
X124492250Y-73773000D01*
X124651000Y-73614250D01*
X124651000Y-73034188D01*
X127205417Y-73034188D01*
X127267071Y-73269800D01*
X127767480Y-73445927D01*
X128297199Y-73417148D01*
X128652929Y-73269800D01*
X128714583Y-73034188D01*
X127960000Y-72279605D01*
X127205417Y-73034188D01*
X124651000Y-73034188D01*
X124651000Y-72757690D01*
X124554327Y-72524301D01*
X124375698Y-72345673D01*
X124142309Y-72249000D01*
X123285750Y-72249000D01*
X123127000Y-72407750D01*
X122873000Y-72407750D01*
X122714250Y-72249000D01*
X121857691Y-72249000D01*
X121624302Y-72345673D01*
X121445673Y-72524301D01*
X121349000Y-72757690D01*
X120710000Y-72757690D01*
X120710000Y-71907480D01*
X126614073Y-71907480D01*
X126642852Y-72437199D01*
X126790200Y-72792929D01*
X127025812Y-72854583D01*
X127780395Y-72100000D01*
X127025812Y-71345417D01*
X126790200Y-71407071D01*
X126614073Y-71907480D01*
X120710000Y-71907480D01*
X120710000Y-71165812D01*
X127205417Y-71165812D01*
X127960000Y-71920395D01*
X128714583Y-71165812D01*
X128652929Y-70930200D01*
X128152520Y-70754073D01*
X127622801Y-70782852D01*
X127267071Y-70930200D01*
X127205417Y-71165812D01*
X120710000Y-71165812D01*
X120710000Y-66740910D01*
X121438695Y-66740910D01*
X121805640Y-67236343D01*
X123211171Y-67829736D01*
X124736793Y-67840087D01*
X126150246Y-67265819D01*
X126194360Y-67236343D01*
X126561305Y-66740910D01*
X126391036Y-66570641D01*
X131921400Y-66570641D01*
X131921400Y-66629359D01*
X132035474Y-67202848D01*
X132360330Y-67689029D01*
X132846511Y-68013885D01*
X133420000Y-68127959D01*
X133993489Y-68013885D01*
X134479670Y-67689029D01*
X134690000Y-67374248D01*
X134900330Y-67689029D01*
X135386511Y-68013885D01*
X135960000Y-68127959D01*
X136533489Y-68013885D01*
X137019670Y-67689029D01*
X137028805Y-67675358D01*
X137033238Y-67698917D01*
X137172310Y-67915041D01*
X137384510Y-68060031D01*
X137636400Y-68111040D01*
X139363600Y-68111040D01*
X139598917Y-68066762D01*
X139815041Y-67927690D01*
X139960031Y-67715490D01*
X140011040Y-67463600D01*
X140011040Y-65736400D01*
X139966762Y-65501083D01*
X139827690Y-65284959D01*
X139615490Y-65139969D01*
X139571655Y-65131092D01*
X139884526Y-64662848D01*
X139998600Y-64089359D01*
X139998600Y-64083710D01*
X142162000Y-66247111D01*
X142162000Y-81400000D01*
X142225789Y-81720689D01*
X142252056Y-81760000D01*
X142407445Y-81992555D01*
X142958364Y-82543475D01*
X142704263Y-82797134D01*
X142550176Y-83168217D01*
X142549825Y-83570020D01*
X142703264Y-83941372D01*
X142722000Y-83960141D01*
X142722000Y-87260000D01*
X142785789Y-87580689D01*
X142875032Y-87714250D01*
X142967445Y-87852555D01*
X143407445Y-88292556D01*
X143570417Y-88401450D01*
X143679311Y-88474211D01*
X144000000Y-88538000D01*
X147800000Y-88538000D01*
X148120689Y-88474211D01*
X148392555Y-88292555D01*
X148992555Y-87692556D01*
X149174211Y-87420689D01*
X149182441Y-87379312D01*
X149238000Y-87100000D01*
X149238000Y-86016613D01*
X149343264Y-86271372D01*
X149627134Y-86555737D01*
X149998217Y-86709824D01*
X150400020Y-86710175D01*
X150771372Y-86556736D01*
X150790141Y-86538000D01*
X151463206Y-86538000D01*
X150994160Y-86731806D01*
X150493564Y-87231529D01*
X150222309Y-87884782D01*
X150221692Y-88592114D01*
X150491806Y-89245840D01*
X150958500Y-89713349D01*
X150958500Y-96368597D01*
X146368596Y-100958500D01*
X138472596Y-100958500D01*
X138008471Y-100493564D01*
X137355218Y-100222309D01*
X136647886Y-100221692D01*
X135994160Y-100491806D01*
X135493564Y-100991529D01*
X135222309Y-101644782D01*
X135221692Y-102352114D01*
X135491806Y-103005840D01*
X135991529Y-103506436D01*
X136644782Y-103777691D01*
X137352114Y-103778308D01*
X138005840Y-103508194D01*
X138255379Y-103259090D01*
X163438695Y-103259090D01*
X166000000Y-105820395D01*
X168561305Y-103259090D01*
X168194360Y-102763657D01*
X166788829Y-102170264D01*
X165263207Y-102159913D01*
X163849754Y-102734181D01*
X163805640Y-102763657D01*
X163438695Y-103259090D01*
X138255379Y-103259090D01*
X138473349Y-103041500D01*
X146800000Y-103041500D01*
X147198565Y-102962221D01*
X147536452Y-102736452D01*
X150120740Y-100152163D01*
X165027443Y-100152163D01*
X165126042Y-100418965D01*
X165735582Y-100645401D01*
X166385377Y-100621341D01*
X166873958Y-100418965D01*
X166972557Y-100152163D01*
X166000000Y-99179605D01*
X165027443Y-100152163D01*
X150120740Y-100152163D01*
X151537321Y-98735582D01*
X164354599Y-98735582D01*
X164378659Y-99385377D01*
X164581035Y-99873958D01*
X164847837Y-99972557D01*
X165820395Y-99000000D01*
X166179605Y-99000000D01*
X167152163Y-99972557D01*
X167418965Y-99873958D01*
X167645401Y-99264418D01*
X167621341Y-98614623D01*
X167418965Y-98126042D01*
X167152163Y-98027443D01*
X166179605Y-99000000D01*
X165820395Y-99000000D01*
X164847837Y-98027443D01*
X164581035Y-98126042D01*
X164354599Y-98735582D01*
X151537321Y-98735582D01*
X152736449Y-97536454D01*
X152736452Y-97536452D01*
X152962221Y-97198565D01*
X153041501Y-96800000D01*
X153041500Y-96799995D01*
X153041500Y-94243694D01*
X164365226Y-94243694D01*
X164613538Y-94844655D01*
X164958480Y-95190199D01*
X164615154Y-95532927D01*
X164365794Y-96133453D01*
X164365226Y-96783694D01*
X164613538Y-97384655D01*
X165040539Y-97812401D01*
X165027443Y-97847837D01*
X166000000Y-98820395D01*
X166972557Y-97847837D01*
X166959276Y-97811901D01*
X167384846Y-97387073D01*
X167634206Y-96786547D01*
X167634774Y-96136306D01*
X167386462Y-95535345D01*
X167041520Y-95189801D01*
X167384846Y-94847073D01*
X167634206Y-94246547D01*
X167634774Y-93596306D01*
X167386462Y-92995345D01*
X166927073Y-92535154D01*
X166326547Y-92285794D01*
X165676306Y-92285226D01*
X165075345Y-92533538D01*
X164615154Y-92992927D01*
X164365794Y-93593453D01*
X164365226Y-94243694D01*
X153041500Y-94243694D01*
X153041500Y-89712596D01*
X153506436Y-89248471D01*
X153777691Y-88595218D01*
X153778308Y-87887886D01*
X153508194Y-87234160D01*
X153008471Y-86733564D01*
X152537502Y-86538000D01*
X153352890Y-86538000D01*
X157707444Y-90892555D01*
X157979311Y-91074211D01*
X158300000Y-91138000D01*
X166500000Y-91138000D01*
X166820689Y-91074211D01*
X167092555Y-90892555D01*
X167592556Y-90392555D01*
X167701450Y-90229583D01*
X167774211Y-90120689D01*
X167838000Y-89800000D01*
X167838000Y-89411228D01*
X168244415Y-89139670D01*
X168569271Y-88653489D01*
X168683345Y-88080000D01*
X168569271Y-87506511D01*
X168244415Y-87020330D01*
X167929634Y-86810000D01*
X168244415Y-86599670D01*
X168569271Y-86113489D01*
X168683345Y-85540000D01*
X168569271Y-84966511D01*
X168244415Y-84480330D01*
X168222220Y-84465500D01*
X168375699Y-84401927D01*
X168554327Y-84223298D01*
X168651000Y-83989909D01*
X168651000Y-83285750D01*
X168492250Y-83127000D01*
X167127000Y-83127000D01*
X167127000Y-83147000D01*
X166873000Y-83147000D01*
X166873000Y-83127000D01*
X165507750Y-83127000D01*
X165349000Y-83285750D01*
X165349000Y-83989909D01*
X165433137Y-84193033D01*
X165142300Y-83902196D01*
X165142300Y-82555600D01*
X165063021Y-82157035D01*
X164964837Y-82010091D01*
X165349000Y-82010091D01*
X165349000Y-82714250D01*
X165507750Y-82873000D01*
X166873000Y-82873000D01*
X166873000Y-81660150D01*
X167127000Y-81660150D01*
X167127000Y-82873000D01*
X168492250Y-82873000D01*
X168651000Y-82714250D01*
X168651000Y-82010091D01*
X168554327Y-81776702D01*
X168375699Y-81598073D01*
X168142310Y-81501400D01*
X167285750Y-81501400D01*
X167127000Y-81660150D01*
X166873000Y-81660150D01*
X166714250Y-81501400D01*
X165857690Y-81501400D01*
X165624301Y-81598073D01*
X165445673Y-81776702D01*
X165349000Y-82010091D01*
X164964837Y-82010091D01*
X164837252Y-81819148D01*
X164837249Y-81819146D01*
X156201252Y-73183148D01*
X156067586Y-73093835D01*
X156037666Y-73063863D01*
X155998209Y-73047479D01*
X155863365Y-72957379D01*
X155705695Y-72926017D01*
X155666583Y-72909776D01*
X155623859Y-72909739D01*
X155464800Y-72878100D01*
X155307132Y-72909462D01*
X155264780Y-72909425D01*
X155225293Y-72925741D01*
X155066235Y-72957379D01*
X154932571Y-73046691D01*
X154893428Y-73062864D01*
X154863190Y-73093049D01*
X154728348Y-73183148D01*
X154639035Y-73316814D01*
X154609063Y-73346734D01*
X154592679Y-73386191D01*
X154502579Y-73521035D01*
X154471217Y-73678705D01*
X154454976Y-73717817D01*
X154454939Y-73760541D01*
X154423300Y-73919600D01*
X154454662Y-74077268D01*
X154454625Y-74119620D01*
X154470941Y-74159107D01*
X154502579Y-74318165D01*
X154591891Y-74451829D01*
X154608064Y-74490972D01*
X154638249Y-74521210D01*
X154728348Y-74656052D01*
X163059300Y-82987003D01*
X163059300Y-84333600D01*
X163138579Y-84732165D01*
X163364348Y-85070052D01*
X164570748Y-86276452D01*
X164908635Y-86502221D01*
X165307200Y-86581500D01*
X165743444Y-86581500D01*
X165755585Y-86599670D01*
X166070366Y-86810000D01*
X165755585Y-87020330D01*
X165430729Y-87506511D01*
X165316655Y-88080000D01*
X165430729Y-88653489D01*
X165755585Y-89139670D01*
X166162000Y-89411228D01*
X166162000Y-89452889D01*
X166152890Y-89462000D01*
X163343296Y-89462000D01*
X163409824Y-89301783D01*
X163410175Y-88899980D01*
X163256736Y-88528628D01*
X162972866Y-88244263D01*
X162601783Y-88090176D01*
X162199980Y-88089825D01*
X161828628Y-88243264D01*
X161809859Y-88262000D01*
X158947111Y-88262000D01*
X158227782Y-87542672D01*
X158949360Y-87837609D01*
X160077181Y-87832330D01*
X161094632Y-87410888D01*
X161339777Y-87019382D01*
X159500000Y-85179605D01*
X159485858Y-85193748D01*
X159306253Y-85014143D01*
X159320395Y-85000000D01*
X159679605Y-85000000D01*
X161519382Y-86839777D01*
X161910888Y-86594632D01*
X162337609Y-85550640D01*
X162332330Y-84422819D01*
X161910888Y-83405368D01*
X161519382Y-83160223D01*
X159679605Y-85000000D01*
X159320395Y-85000000D01*
X157480618Y-83160223D01*
X157089112Y-83405368D01*
X156662391Y-84449360D01*
X156667670Y-85577181D01*
X156954316Y-86269205D01*
X154392555Y-83707445D01*
X154372749Y-83694211D01*
X154120689Y-83525789D01*
X153800000Y-83462000D01*
X149600000Y-83462000D01*
X149319369Y-83517821D01*
X149279311Y-83525789D01*
X149007444Y-83707445D01*
X147807445Y-84907445D01*
X147625789Y-85179311D01*
X147562000Y-85500000D01*
X147562000Y-86752889D01*
X147452890Y-86862000D01*
X144816613Y-86862000D01*
X145071372Y-86756736D01*
X145355737Y-86472866D01*
X145509824Y-86101783D01*
X145510175Y-85699980D01*
X145487893Y-85646054D01*
X145626020Y-85646175D01*
X145997372Y-85492736D01*
X146281737Y-85208866D01*
X146435824Y-84837783D01*
X146436175Y-84435980D01*
X146394151Y-84334273D01*
X146494217Y-84375824D01*
X146896020Y-84376175D01*
X147267372Y-84222736D01*
X147551737Y-83938866D01*
X147705824Y-83567783D01*
X147706175Y-83165980D01*
X147629586Y-82980618D01*
X157660223Y-82980618D01*
X159500000Y-84820395D01*
X161339777Y-82980618D01*
X161094632Y-82589112D01*
X160050640Y-82162391D01*
X158922819Y-82167670D01*
X157905368Y-82589112D01*
X157660223Y-82980618D01*
X147629586Y-82980618D01*
X147552736Y-82794628D01*
X147534000Y-82775859D01*
X147534000Y-77016000D01*
X147470211Y-76695311D01*
X147458273Y-76677445D01*
X147288555Y-76423444D01*
X145764555Y-74899445D01*
X145492689Y-74717789D01*
X145172000Y-74654000D01*
X144590572Y-74654000D01*
X144572866Y-74636263D01*
X144201783Y-74482176D01*
X143838000Y-74481858D01*
X143838000Y-72388000D01*
X164219118Y-72388000D01*
X164246838Y-72535317D01*
X164385910Y-72751441D01*
X164598110Y-72896431D01*
X164611197Y-72899081D01*
X164398559Y-73035910D01*
X164253569Y-73248110D01*
X164202560Y-73500000D01*
X164202560Y-75000000D01*
X164246838Y-75235317D01*
X164385910Y-75451441D01*
X164598110Y-75596431D01*
X164850000Y-75647440D01*
X166150000Y-75647440D01*
X166385317Y-75603162D01*
X166601441Y-75464090D01*
X166746431Y-75251890D01*
X166797440Y-75000000D01*
X166797440Y-74787020D01*
X166799485Y-74787020D01*
X166936470Y-74999901D01*
X167148670Y-75144891D01*
X167400560Y-75195900D01*
X168599440Y-75195900D01*
X168834757Y-75151622D01*
X169050881Y-75012550D01*
X169195871Y-74800350D01*
X169246880Y-74548460D01*
X169246880Y-73349580D01*
X169202602Y-73114263D01*
X169063530Y-72898139D01*
X169055341Y-72892544D01*
X169137767Y-72810118D01*
X169234440Y-72576729D01*
X169234440Y-72136730D01*
X169075690Y-71977980D01*
X168127000Y-71977980D01*
X168127000Y-71997980D01*
X167873000Y-71997980D01*
X167873000Y-71977980D01*
X167853000Y-71977980D01*
X167853000Y-71723980D01*
X167873000Y-71723980D01*
X167873000Y-70775290D01*
X168127000Y-70775290D01*
X168127000Y-71723980D01*
X169075690Y-71723980D01*
X169234440Y-71565230D01*
X169234440Y-71125231D01*
X169137767Y-70891842D01*
X168959139Y-70713213D01*
X168725750Y-70616540D01*
X168285750Y-70616540D01*
X168127000Y-70775290D01*
X167873000Y-70775290D01*
X167714250Y-70616540D01*
X167274250Y-70616540D01*
X167040861Y-70713213D01*
X166862233Y-70891842D01*
X166797440Y-71048266D01*
X166797440Y-70800000D01*
X166753162Y-70564683D01*
X166614090Y-70348559D01*
X166401890Y-70203569D01*
X166150000Y-70152560D01*
X164850000Y-70152560D01*
X164614683Y-70196838D01*
X164398559Y-70335910D01*
X164253569Y-70548110D01*
X164220380Y-70712000D01*
X143838000Y-70712000D01*
X143838000Y-69255963D01*
X150923642Y-69255963D01*
X151039806Y-69537658D01*
X151701333Y-69788062D01*
X152408329Y-69766249D01*
X152960194Y-69537658D01*
X153076358Y-69255963D01*
X152000000Y-68179605D01*
X150923642Y-69255963D01*
X143838000Y-69255963D01*
X143838000Y-67701333D01*
X150211938Y-67701333D01*
X150233751Y-68408329D01*
X150462342Y-68960194D01*
X150744037Y-69076358D01*
X151820395Y-68000000D01*
X152179605Y-68000000D01*
X153255963Y-69076358D01*
X153537658Y-68960194D01*
X153788062Y-68298667D01*
X153766249Y-67591671D01*
X153537658Y-67039806D01*
X153255963Y-66923642D01*
X152179605Y-68000000D01*
X151820395Y-68000000D01*
X150744037Y-66923642D01*
X150462342Y-67039806D01*
X150211938Y-67701333D01*
X143838000Y-67701333D01*
X143838000Y-66744037D01*
X150923642Y-66744037D01*
X152000000Y-67820395D01*
X153076358Y-66744037D01*
X153075069Y-66740910D01*
X163438695Y-66740910D01*
X163805640Y-67236343D01*
X165211171Y-67829736D01*
X166736793Y-67840087D01*
X168150246Y-67265819D01*
X168194360Y-67236343D01*
X168561305Y-66740910D01*
X166000000Y-64179605D01*
X163438695Y-66740910D01*
X153075069Y-66740910D01*
X152960194Y-66462342D01*
X152298667Y-66211938D01*
X151591671Y-66233751D01*
X151039806Y-66462342D01*
X150923642Y-66744037D01*
X143838000Y-66744037D01*
X143838000Y-65900000D01*
X143774211Y-65579311D01*
X143592555Y-65307444D01*
X143021904Y-64736793D01*
X162159913Y-64736793D01*
X162734181Y-66150246D01*
X162763657Y-66194360D01*
X163259090Y-66561305D01*
X165820395Y-64000000D01*
X163259090Y-61438695D01*
X162763657Y-61805640D01*
X162170264Y-63211171D01*
X162159913Y-64736793D01*
X143021904Y-64736793D01*
X140092555Y-61807445D01*
X140089854Y-61805640D01*
X139820689Y-61625789D01*
X139500000Y-61562000D01*
X137500000Y-61562000D01*
X137179311Y-61625789D01*
X137070417Y-61698550D01*
X136907445Y-61807444D01*
X136145876Y-62569014D01*
X135960000Y-62532041D01*
X135386511Y-62646115D01*
X134900330Y-62970971D01*
X134684336Y-63294228D01*
X134626821Y-63171510D01*
X134194947Y-62777312D01*
X133779026Y-62605042D01*
X133547000Y-62726183D01*
X133547000Y-63933000D01*
X133567000Y-63933000D01*
X133567000Y-64187000D01*
X133547000Y-64187000D01*
X133547000Y-64207000D01*
X133293000Y-64207000D01*
X133293000Y-64187000D01*
X132085531Y-64187000D01*
X131965032Y-64419027D01*
X132213179Y-64948490D01*
X132631161Y-65330008D01*
X132360330Y-65510971D01*
X132035474Y-65997152D01*
X131921400Y-66570641D01*
X126391036Y-66570641D01*
X124000000Y-64179605D01*
X121438695Y-66740910D01*
X120710000Y-66740910D01*
X120710000Y-66090729D01*
X120734181Y-66150246D01*
X120763657Y-66194360D01*
X121259090Y-66561305D01*
X123820395Y-64000000D01*
X124179605Y-64000000D01*
X126740910Y-66561305D01*
X127236343Y-66194360D01*
X127829736Y-64788829D01*
X127837116Y-63700973D01*
X131965032Y-63700973D01*
X132085531Y-63933000D01*
X133293000Y-63933000D01*
X133293000Y-62726183D01*
X133060974Y-62605042D01*
X132645053Y-62777312D01*
X132213179Y-63171510D01*
X131965032Y-63700973D01*
X127837116Y-63700973D01*
X127840087Y-63263207D01*
X127265819Y-61849754D01*
X127236343Y-61805640D01*
X126740910Y-61438695D01*
X124179605Y-64000000D01*
X123820395Y-64000000D01*
X121259090Y-61438695D01*
X120763657Y-61805640D01*
X120710000Y-61932734D01*
X120710000Y-60710000D01*
X121909271Y-60710000D01*
X121849754Y-60734181D01*
X121849754Y-60734181D01*
G37*
X121849754Y-60734181D02*
X121805640Y-60763657D01*
X121438695Y-61259090D01*
X124000000Y-63820395D01*
X126561305Y-61259090D01*
X126194360Y-60763657D01*
X126067266Y-60710000D01*
X163909271Y-60710000D01*
X163849754Y-60734181D01*
X163805640Y-60763657D01*
X163438695Y-61259090D01*
X166000000Y-63820395D01*
X168561305Y-61259090D01*
X168194360Y-60763657D01*
X168067266Y-60710000D01*
X169290000Y-60710000D01*
X169290000Y-61909271D01*
X169265819Y-61849754D01*
X169236343Y-61805640D01*
X168740910Y-61438695D01*
X166179605Y-64000000D01*
X168740910Y-66561305D01*
X169236343Y-66194360D01*
X169290000Y-66067266D01*
X169290000Y-103909271D01*
X169265819Y-103849754D01*
X169236343Y-103805640D01*
X168740910Y-103438695D01*
X166179605Y-106000000D01*
X168740910Y-108561305D01*
X169236343Y-108194360D01*
X169290000Y-108067266D01*
X169290000Y-109290000D01*
X168090729Y-109290000D01*
X168150246Y-109265819D01*
X168194360Y-109236343D01*
X168561305Y-108740910D01*
X166000000Y-106179605D01*
X163438695Y-108740910D01*
X163805640Y-109236343D01*
X163932734Y-109290000D01*
X126090729Y-109290000D01*
X126150246Y-109265819D01*
X126194360Y-109236343D01*
X126561305Y-108740910D01*
X124000000Y-106179605D01*
X121438695Y-108740910D01*
X121805640Y-109236343D01*
X121932734Y-109290000D01*
X120710000Y-109290000D01*
X120710000Y-108090729D01*
X120734181Y-108150246D01*
X120763657Y-108194360D01*
X121259090Y-108561305D01*
X123820395Y-106000000D01*
X124179605Y-106000000D01*
X126740910Y-108561305D01*
X127236343Y-108194360D01*
X127829736Y-106788829D01*
X127830089Y-106736793D01*
X162159913Y-106736793D01*
X162734181Y-108150246D01*
X162763657Y-108194360D01*
X163259090Y-108561305D01*
X165820395Y-106000000D01*
X163259090Y-103438695D01*
X162763657Y-103805640D01*
X162170264Y-105211171D01*
X162159913Y-106736793D01*
X127830089Y-106736793D01*
X127840087Y-105263207D01*
X127265819Y-103849754D01*
X127236343Y-103805640D01*
X126740910Y-103438695D01*
X124179605Y-106000000D01*
X123820395Y-106000000D01*
X121259090Y-103438695D01*
X120763657Y-103805640D01*
X120710000Y-103932734D01*
X120710000Y-103259090D01*
X121438695Y-103259090D01*
X124000000Y-105820395D01*
X126561305Y-103259090D01*
X126194360Y-102763657D01*
X124788829Y-102170264D01*
X123263207Y-102159913D01*
X121849754Y-102734181D01*
X121805640Y-102763657D01*
X121438695Y-103259090D01*
X120710000Y-103259090D01*
X120710000Y-94700020D01*
X129589825Y-94700020D01*
X129743264Y-95071372D01*
X129762000Y-95090141D01*
X129762000Y-102900000D01*
X129825789Y-103220689D01*
X129851448Y-103259090D01*
X130007445Y-103492555D01*
X132389847Y-105874958D01*
X132389825Y-105900020D01*
X132543264Y-106271372D01*
X132827134Y-106555737D01*
X133198217Y-106709824D01*
X133600020Y-106710175D01*
X133971372Y-106556736D01*
X134255737Y-106272866D01*
X134409824Y-105901783D01*
X134410175Y-105499980D01*
X134256736Y-105128628D01*
X133972866Y-104844263D01*
X133601783Y-104690176D01*
X133575264Y-104690153D01*
X131438000Y-102552890D01*
X131438000Y-95090572D01*
X131455737Y-95072866D01*
X131604229Y-94715255D01*
X140921400Y-94715255D01*
X140921400Y-95084745D01*
X141035474Y-95658234D01*
X141360330Y-96144415D01*
X141846511Y-96469271D01*
X142420000Y-96583345D01*
X142993489Y-96469271D01*
X143479670Y-96144415D01*
X143690000Y-95829634D01*
X143900330Y-96144415D01*
X144386511Y-96469271D01*
X144960000Y-96583345D01*
X145533489Y-96469271D01*
X146019670Y-96144415D01*
X146034500Y-96122220D01*
X146098073Y-96275699D01*
X146276702Y-96454327D01*
X146510091Y-96551000D01*
X147214250Y-96551000D01*
X147373000Y-96392250D01*
X147373000Y-95027000D01*
X147627000Y-95027000D01*
X147627000Y-96392250D01*
X147785750Y-96551000D01*
X148489909Y-96551000D01*
X148723298Y-96454327D01*
X148901927Y-96275699D01*
X148998600Y-96042310D01*
X148998600Y-95185750D01*
X148839850Y-95027000D01*
X147627000Y-95027000D01*
X147373000Y-95027000D01*
X147353000Y-95027000D01*
X147353000Y-94773000D01*
X147373000Y-94773000D01*
X147373000Y-93407750D01*
X147627000Y-93407750D01*
X147627000Y-94773000D01*
X148839850Y-94773000D01*
X148998600Y-94614250D01*
X148998600Y-93757690D01*
X148901927Y-93524301D01*
X148723298Y-93345673D01*
X148489909Y-93249000D01*
X147785750Y-93249000D01*
X147627000Y-93407750D01*
X147373000Y-93407750D01*
X147214250Y-93249000D01*
X146510091Y-93249000D01*
X146276702Y-93345673D01*
X146098073Y-93524301D01*
X146034500Y-93677780D01*
X146019670Y-93655585D01*
X145533489Y-93330729D01*
X144960000Y-93216655D01*
X144386511Y-93330729D01*
X143900330Y-93655585D01*
X143690000Y-93970366D01*
X143479670Y-93655585D01*
X142993489Y-93330729D01*
X142420000Y-93216655D01*
X141846511Y-93330729D01*
X141360330Y-93655585D01*
X141035474Y-94141766D01*
X140921400Y-94715255D01*
X131604229Y-94715255D01*
X131609824Y-94701783D01*
X131610175Y-94299980D01*
X131456736Y-93928628D01*
X131172866Y-93644263D01*
X130801783Y-93490176D01*
X130399980Y-93489825D01*
X130028628Y-93643264D01*
X129744263Y-93927134D01*
X129590176Y-94298217D01*
X129589825Y-94700020D01*
X120710000Y-94700020D01*
X120710000Y-88285750D01*
X121349000Y-88285750D01*
X121349000Y-88989909D01*
X121445673Y-89223298D01*
X121624301Y-89401927D01*
X121857690Y-89498600D01*
X122714250Y-89498600D01*
X122873000Y-89339850D01*
X122873000Y-88127000D01*
X123127000Y-88127000D01*
X123127000Y-89339850D01*
X123285750Y-89498600D01*
X124142310Y-89498600D01*
X124375699Y-89401927D01*
X124554327Y-89223298D01*
X124651000Y-88989909D01*
X124651000Y-88285750D01*
X124492250Y-88127000D01*
X123127000Y-88127000D01*
X122873000Y-88127000D01*
X121507750Y-88127000D01*
X121349000Y-88285750D01*
X120710000Y-88285750D01*
X120710000Y-82920000D01*
X121316655Y-82920000D01*
X121430729Y-83493489D01*
X121755585Y-83979670D01*
X122070366Y-84190000D01*
X121755585Y-84400330D01*
X121430729Y-84886511D01*
X121316655Y-85460000D01*
X121430729Y-86033489D01*
X121755585Y-86519670D01*
X121777780Y-86534500D01*
X121624301Y-86598073D01*
X121445673Y-86776702D01*
X121349000Y-87010091D01*
X121349000Y-87714250D01*
X121507750Y-87873000D01*
X122873000Y-87873000D01*
X122873000Y-87853000D01*
X123127000Y-87853000D01*
X123127000Y-87873000D01*
X124492250Y-87873000D01*
X124651000Y-87714250D01*
X124651000Y-87019382D01*
X128660223Y-87019382D01*
X128905368Y-87410888D01*
X129949360Y-87837609D01*
X131077181Y-87832330D01*
X132094632Y-87410888D01*
X132339777Y-87019382D01*
X130500000Y-85179605D01*
X128660223Y-87019382D01*
X124651000Y-87019382D01*
X124651000Y-87010091D01*
X124554327Y-86776702D01*
X124375699Y-86598073D01*
X124222220Y-86534500D01*
X124244415Y-86519670D01*
X124569271Y-86033489D01*
X124683345Y-85460000D01*
X124569271Y-84886511D01*
X124277176Y-84449360D01*
X127662391Y-84449360D01*
X127667670Y-85577181D01*
X128089112Y-86594632D01*
X128480618Y-86839777D01*
X130320395Y-85000000D01*
X130679605Y-85000000D01*
X132519382Y-86839777D01*
X132910888Y-86594632D01*
X133337609Y-85550640D01*
X133332330Y-84422819D01*
X132910888Y-83405368D01*
X132519382Y-83160223D01*
X130679605Y-85000000D01*
X130320395Y-85000000D01*
X128480618Y-83160223D01*
X128089112Y-83405368D01*
X127662391Y-84449360D01*
X124277176Y-84449360D01*
X124244415Y-84400330D01*
X123929634Y-84190000D01*
X124244415Y-83979670D01*
X124569271Y-83493489D01*
X124671287Y-82980618D01*
X128660223Y-82980618D01*
X130500000Y-84820395D01*
X132339777Y-82980618D01*
X132094632Y-82589112D01*
X131050640Y-82162391D01*
X129922819Y-82167670D01*
X128905368Y-82589112D01*
X128660223Y-82980618D01*
X124671287Y-82980618D01*
X124683345Y-82920000D01*
X124600683Y-82504428D01*
X125949111Y-81156000D01*
X131108890Y-81156000D01*
X135181444Y-85228555D01*
X135453311Y-85410211D01*
X135774000Y-85474000D01*
X138739428Y-85474000D01*
X138757134Y-85491737D01*
X139128217Y-85645824D01*
X139530020Y-85646175D01*
X139901372Y-85492736D01*
X140185737Y-85208866D01*
X140339824Y-84837783D01*
X140340175Y-84435980D01*
X140186736Y-84064628D01*
X139902866Y-83780263D01*
X139531783Y-83626176D01*
X139129980Y-83625825D01*
X138758628Y-83779264D01*
X138739859Y-83798000D01*
X136121111Y-83798000D01*
X132048555Y-79725445D01*
X132048554Y-79725444D01*
X131776689Y-79543789D01*
X131456000Y-79480000D01*
X125602000Y-79480000D01*
X125281311Y-79543789D01*
X125172417Y-79616550D01*
X125009445Y-79725444D01*
X123292130Y-81442760D01*
X123184745Y-81421400D01*
X122815255Y-81421400D01*
X122241766Y-81535474D01*
X121755585Y-81860330D01*
X121430729Y-82346511D01*
X121316655Y-82920000D01*
X120710000Y-82920000D01*
X120710000Y-76440000D01*
X121316655Y-76440000D01*
X121442330Y-77071810D01*
X121800222Y-77607433D01*
X122335845Y-77965325D01*
X122967655Y-78091000D01*
X123032345Y-78091000D01*
X123664155Y-77965325D01*
X124199778Y-77607433D01*
X124283924Y-77481500D01*
X133039995Y-77481500D01*
X133040000Y-77481501D01*
X133040005Y-77481500D01*
X135358596Y-77481500D01*
X135958500Y-78081403D01*
X135958500Y-80287404D01*
X135493564Y-80751529D01*
X135222309Y-81404782D01*
X135221692Y-82112114D01*
X135491806Y-82765840D01*
X135991529Y-83266436D01*
X136644782Y-83537691D01*
X137352114Y-83538308D01*
X138005840Y-83268194D01*
X138506436Y-82768471D01*
X138777691Y-82115218D01*
X138778308Y-81407886D01*
X138508194Y-80754160D01*
X138041500Y-80286651D01*
X138041500Y-77650000D01*
X137962221Y-77251435D01*
X137736452Y-76913548D01*
X137736449Y-76913546D01*
X136526452Y-75703548D01*
X136188565Y-75477779D01*
X135790000Y-75398500D01*
X134081500Y-75398500D01*
X134081500Y-73332370D01*
X134189941Y-73262590D01*
X134334931Y-73050390D01*
X134385940Y-72798500D01*
X134385940Y-71401500D01*
X134341662Y-71166183D01*
X134202590Y-70950059D01*
X133990390Y-70805069D01*
X133738500Y-70754060D01*
X132341500Y-70754060D01*
X132106183Y-70798338D01*
X131890059Y-70937410D01*
X131745069Y-71149610D01*
X131694060Y-71401500D01*
X131694060Y-71497884D01*
X131631146Y-71345620D01*
X131256353Y-70970173D01*
X130766413Y-70766732D01*
X130235914Y-70766269D01*
X129745620Y-70968854D01*
X129370173Y-71343647D01*
X129236686Y-71665118D01*
X129129800Y-71407071D01*
X128894188Y-71345417D01*
X128139605Y-72100000D01*
X128894188Y-72854583D01*
X129129800Y-72792929D01*
X129228083Y-72513688D01*
X129368854Y-72854380D01*
X129743647Y-73229827D01*
X130233587Y-73433268D01*
X130764086Y-73433731D01*
X131254380Y-73231146D01*
X131629827Y-72856353D01*
X131694060Y-72701663D01*
X131694060Y-72798500D01*
X131738338Y-73033817D01*
X131877410Y-73249941D01*
X131998500Y-73332678D01*
X131998500Y-75398500D01*
X124431525Y-75398500D01*
X124554327Y-75275699D01*
X124651000Y-75042310D01*
X124651000Y-74185750D01*
X124492250Y-74027000D01*
X123127000Y-74027000D01*
X123127000Y-74047000D01*
X122873000Y-74047000D01*
X122873000Y-74027000D01*
X121507750Y-74027000D01*
X121349000Y-74185750D01*
X121349000Y-75042310D01*
X121445673Y-75275699D01*
X121624302Y-75454327D01*
X121666966Y-75471999D01*
X121442330Y-75808190D01*
X121316655Y-76440000D01*
X120710000Y-76440000D01*
X120710000Y-72757690D01*
X121349000Y-72757690D01*
X121349000Y-73614250D01*
X121507750Y-73773000D01*
X122873000Y-73773000D01*
X122873000Y-72407750D01*
X123127000Y-72407750D01*
X123127000Y-73773000D01*
X124492250Y-73773000D01*
X124651000Y-73614250D01*
X124651000Y-73034188D01*
X127205417Y-73034188D01*
X127267071Y-73269800D01*
X127767480Y-73445927D01*
X128297199Y-73417148D01*
X128652929Y-73269800D01*
X128714583Y-73034188D01*
X127960000Y-72279605D01*
X127205417Y-73034188D01*
X124651000Y-73034188D01*
X124651000Y-72757690D01*
X124554327Y-72524301D01*
X124375698Y-72345673D01*
X124142309Y-72249000D01*
X123285750Y-72249000D01*
X123127000Y-72407750D01*
X122873000Y-72407750D01*
X122714250Y-72249000D01*
X121857691Y-72249000D01*
X121624302Y-72345673D01*
X121445673Y-72524301D01*
X121349000Y-72757690D01*
X120710000Y-72757690D01*
X120710000Y-71907480D01*
X126614073Y-71907480D01*
X126642852Y-72437199D01*
X126790200Y-72792929D01*
X127025812Y-72854583D01*
X127780395Y-72100000D01*
X127025812Y-71345417D01*
X126790200Y-71407071D01*
X126614073Y-71907480D01*
X120710000Y-71907480D01*
X120710000Y-71165812D01*
X127205417Y-71165812D01*
X127960000Y-71920395D01*
X128714583Y-71165812D01*
X128652929Y-70930200D01*
X128152520Y-70754073D01*
X127622801Y-70782852D01*
X127267071Y-70930200D01*
X127205417Y-71165812D01*
X120710000Y-71165812D01*
X120710000Y-66740910D01*
X121438695Y-66740910D01*
X121805640Y-67236343D01*
X123211171Y-67829736D01*
X124736793Y-67840087D01*
X126150246Y-67265819D01*
X126194360Y-67236343D01*
X126561305Y-66740910D01*
X126391036Y-66570641D01*
X131921400Y-66570641D01*
X131921400Y-66629359D01*
X132035474Y-67202848D01*
X132360330Y-67689029D01*
X132846511Y-68013885D01*
X133420000Y-68127959D01*
X133993489Y-68013885D01*
X134479670Y-67689029D01*
X134690000Y-67374248D01*
X134900330Y-67689029D01*
X135386511Y-68013885D01*
X135960000Y-68127959D01*
X136533489Y-68013885D01*
X137019670Y-67689029D01*
X137028805Y-67675358D01*
X137033238Y-67698917D01*
X137172310Y-67915041D01*
X137384510Y-68060031D01*
X137636400Y-68111040D01*
X139363600Y-68111040D01*
X139598917Y-68066762D01*
X139815041Y-67927690D01*
X139960031Y-67715490D01*
X140011040Y-67463600D01*
X140011040Y-65736400D01*
X139966762Y-65501083D01*
X139827690Y-65284959D01*
X139615490Y-65139969D01*
X139571655Y-65131092D01*
X139884526Y-64662848D01*
X139998600Y-64089359D01*
X139998600Y-64083710D01*
X142162000Y-66247111D01*
X142162000Y-81400000D01*
X142225789Y-81720689D01*
X142252056Y-81760000D01*
X142407445Y-81992555D01*
X142958364Y-82543475D01*
X142704263Y-82797134D01*
X142550176Y-83168217D01*
X142549825Y-83570020D01*
X142703264Y-83941372D01*
X142722000Y-83960141D01*
X142722000Y-87260000D01*
X142785789Y-87580689D01*
X142875032Y-87714250D01*
X142967445Y-87852555D01*
X143407445Y-88292556D01*
X143570417Y-88401450D01*
X143679311Y-88474211D01*
X144000000Y-88538000D01*
X147800000Y-88538000D01*
X148120689Y-88474211D01*
X148392555Y-88292555D01*
X148992555Y-87692556D01*
X149174211Y-87420689D01*
X149182441Y-87379312D01*
X149238000Y-87100000D01*
X149238000Y-86016613D01*
X149343264Y-86271372D01*
X149627134Y-86555737D01*
X149998217Y-86709824D01*
X150400020Y-86710175D01*
X150771372Y-86556736D01*
X150790141Y-86538000D01*
X151463206Y-86538000D01*
X150994160Y-86731806D01*
X150493564Y-87231529D01*
X150222309Y-87884782D01*
X150221692Y-88592114D01*
X150491806Y-89245840D01*
X150958500Y-89713349D01*
X150958500Y-96368597D01*
X146368596Y-100958500D01*
X138472596Y-100958500D01*
X138008471Y-100493564D01*
X137355218Y-100222309D01*
X136647886Y-100221692D01*
X135994160Y-100491806D01*
X135493564Y-100991529D01*
X135222309Y-101644782D01*
X135221692Y-102352114D01*
X135491806Y-103005840D01*
X135991529Y-103506436D01*
X136644782Y-103777691D01*
X137352114Y-103778308D01*
X138005840Y-103508194D01*
X138255379Y-103259090D01*
X163438695Y-103259090D01*
X166000000Y-105820395D01*
X168561305Y-103259090D01*
X168194360Y-102763657D01*
X166788829Y-102170264D01*
X165263207Y-102159913D01*
X163849754Y-102734181D01*
X163805640Y-102763657D01*
X163438695Y-103259090D01*
X138255379Y-103259090D01*
X138473349Y-103041500D01*
X146800000Y-103041500D01*
X147198565Y-102962221D01*
X147536452Y-102736452D01*
X150120740Y-100152163D01*
X165027443Y-100152163D01*
X165126042Y-100418965D01*
X165735582Y-100645401D01*
X166385377Y-100621341D01*
X166873958Y-100418965D01*
X166972557Y-100152163D01*
X166000000Y-99179605D01*
X165027443Y-100152163D01*
X150120740Y-100152163D01*
X151537321Y-98735582D01*
X164354599Y-98735582D01*
X164378659Y-99385377D01*
X164581035Y-99873958D01*
X164847837Y-99972557D01*
X165820395Y-99000000D01*
X166179605Y-99000000D01*
X167152163Y-99972557D01*
X167418965Y-99873958D01*
X167645401Y-99264418D01*
X167621341Y-98614623D01*
X167418965Y-98126042D01*
X167152163Y-98027443D01*
X166179605Y-99000000D01*
X165820395Y-99000000D01*
X164847837Y-98027443D01*
X164581035Y-98126042D01*
X164354599Y-98735582D01*
X151537321Y-98735582D01*
X152736449Y-97536454D01*
X152736452Y-97536452D01*
X152962221Y-97198565D01*
X153041501Y-96800000D01*
X153041500Y-96799995D01*
X153041500Y-94243694D01*
X164365226Y-94243694D01*
X164613538Y-94844655D01*
X164958480Y-95190199D01*
X164615154Y-95532927D01*
X164365794Y-96133453D01*
X164365226Y-96783694D01*
X164613538Y-97384655D01*
X165040539Y-97812401D01*
X165027443Y-97847837D01*
X166000000Y-98820395D01*
X166972557Y-97847837D01*
X166959276Y-97811901D01*
X167384846Y-97387073D01*
X167634206Y-96786547D01*
X167634774Y-96136306D01*
X167386462Y-95535345D01*
X167041520Y-95189801D01*
X167384846Y-94847073D01*
X167634206Y-94246547D01*
X167634774Y-93596306D01*
X167386462Y-92995345D01*
X166927073Y-92535154D01*
X166326547Y-92285794D01*
X165676306Y-92285226D01*
X165075345Y-92533538D01*
X164615154Y-92992927D01*
X164365794Y-93593453D01*
X164365226Y-94243694D01*
X153041500Y-94243694D01*
X153041500Y-89712596D01*
X153506436Y-89248471D01*
X153777691Y-88595218D01*
X153778308Y-87887886D01*
X153508194Y-87234160D01*
X153008471Y-86733564D01*
X152537502Y-86538000D01*
X153352890Y-86538000D01*
X157707444Y-90892555D01*
X157979311Y-91074211D01*
X158300000Y-91138000D01*
X166500000Y-91138000D01*
X166820689Y-91074211D01*
X167092555Y-90892555D01*
X167592556Y-90392555D01*
X167701450Y-90229583D01*
X167774211Y-90120689D01*
X167838000Y-89800000D01*
X167838000Y-89411228D01*
X168244415Y-89139670D01*
X168569271Y-88653489D01*
X168683345Y-88080000D01*
X168569271Y-87506511D01*
X168244415Y-87020330D01*
X167929634Y-86810000D01*
X168244415Y-86599670D01*
X168569271Y-86113489D01*
X168683345Y-85540000D01*
X168569271Y-84966511D01*
X168244415Y-84480330D01*
X168222220Y-84465500D01*
X168375699Y-84401927D01*
X168554327Y-84223298D01*
X168651000Y-83989909D01*
X168651000Y-83285750D01*
X168492250Y-83127000D01*
X167127000Y-83127000D01*
X167127000Y-83147000D01*
X166873000Y-83147000D01*
X166873000Y-83127000D01*
X165507750Y-83127000D01*
X165349000Y-83285750D01*
X165349000Y-83989909D01*
X165433137Y-84193033D01*
X165142300Y-83902196D01*
X165142300Y-82555600D01*
X165063021Y-82157035D01*
X164964837Y-82010091D01*
X165349000Y-82010091D01*
X165349000Y-82714250D01*
X165507750Y-82873000D01*
X166873000Y-82873000D01*
X166873000Y-81660150D01*
X167127000Y-81660150D01*
X167127000Y-82873000D01*
X168492250Y-82873000D01*
X168651000Y-82714250D01*
X168651000Y-82010091D01*
X168554327Y-81776702D01*
X168375699Y-81598073D01*
X168142310Y-81501400D01*
X167285750Y-81501400D01*
X167127000Y-81660150D01*
X166873000Y-81660150D01*
X166714250Y-81501400D01*
X165857690Y-81501400D01*
X165624301Y-81598073D01*
X165445673Y-81776702D01*
X165349000Y-82010091D01*
X164964837Y-82010091D01*
X164837252Y-81819148D01*
X164837249Y-81819146D01*
X156201252Y-73183148D01*
X156067586Y-73093835D01*
X156037666Y-73063863D01*
X155998209Y-73047479D01*
X155863365Y-72957379D01*
X155705695Y-72926017D01*
X155666583Y-72909776D01*
X155623859Y-72909739D01*
X155464800Y-72878100D01*
X155307132Y-72909462D01*
X155264780Y-72909425D01*
X155225293Y-72925741D01*
X155066235Y-72957379D01*
X154932571Y-73046691D01*
X154893428Y-73062864D01*
X154863190Y-73093049D01*
X154728348Y-73183148D01*
X154639035Y-73316814D01*
X154609063Y-73346734D01*
X154592679Y-73386191D01*
X154502579Y-73521035D01*
X154471217Y-73678705D01*
X154454976Y-73717817D01*
X154454939Y-73760541D01*
X154423300Y-73919600D01*
X154454662Y-74077268D01*
X154454625Y-74119620D01*
X154470941Y-74159107D01*
X154502579Y-74318165D01*
X154591891Y-74451829D01*
X154608064Y-74490972D01*
X154638249Y-74521210D01*
X154728348Y-74656052D01*
X163059300Y-82987003D01*
X163059300Y-84333600D01*
X163138579Y-84732165D01*
X163364348Y-85070052D01*
X164570748Y-86276452D01*
X164908635Y-86502221D01*
X165307200Y-86581500D01*
X165743444Y-86581500D01*
X165755585Y-86599670D01*
X166070366Y-86810000D01*
X165755585Y-87020330D01*
X165430729Y-87506511D01*
X165316655Y-88080000D01*
X165430729Y-88653489D01*
X165755585Y-89139670D01*
X166162000Y-89411228D01*
X166162000Y-89452889D01*
X166152890Y-89462000D01*
X163343296Y-89462000D01*
X163409824Y-89301783D01*
X163410175Y-88899980D01*
X163256736Y-88528628D01*
X162972866Y-88244263D01*
X162601783Y-88090176D01*
X162199980Y-88089825D01*
X161828628Y-88243264D01*
X161809859Y-88262000D01*
X158947111Y-88262000D01*
X158227782Y-87542672D01*
X158949360Y-87837609D01*
X160077181Y-87832330D01*
X161094632Y-87410888D01*
X161339777Y-87019382D01*
X159500000Y-85179605D01*
X159485858Y-85193748D01*
X159306253Y-85014143D01*
X159320395Y-85000000D01*
X159679605Y-85000000D01*
X161519382Y-86839777D01*
X161910888Y-86594632D01*
X162337609Y-85550640D01*
X162332330Y-84422819D01*
X161910888Y-83405368D01*
X161519382Y-83160223D01*
X159679605Y-85000000D01*
X159320395Y-85000000D01*
X157480618Y-83160223D01*
X157089112Y-83405368D01*
X156662391Y-84449360D01*
X156667670Y-85577181D01*
X156954316Y-86269205D01*
X154392555Y-83707445D01*
X154372749Y-83694211D01*
X154120689Y-83525789D01*
X153800000Y-83462000D01*
X149600000Y-83462000D01*
X149319369Y-83517821D01*
X149279311Y-83525789D01*
X149007444Y-83707445D01*
X147807445Y-84907445D01*
X147625789Y-85179311D01*
X147562000Y-85500000D01*
X147562000Y-86752889D01*
X147452890Y-86862000D01*
X144816613Y-86862000D01*
X145071372Y-86756736D01*
X145355737Y-86472866D01*
X145509824Y-86101783D01*
X145510175Y-85699980D01*
X145487893Y-85646054D01*
X145626020Y-85646175D01*
X145997372Y-85492736D01*
X146281737Y-85208866D01*
X146435824Y-84837783D01*
X146436175Y-84435980D01*
X146394151Y-84334273D01*
X146494217Y-84375824D01*
X146896020Y-84376175D01*
X147267372Y-84222736D01*
X147551737Y-83938866D01*
X147705824Y-83567783D01*
X147706175Y-83165980D01*
X147629586Y-82980618D01*
X157660223Y-82980618D01*
X159500000Y-84820395D01*
X161339777Y-82980618D01*
X161094632Y-82589112D01*
X160050640Y-82162391D01*
X158922819Y-82167670D01*
X157905368Y-82589112D01*
X157660223Y-82980618D01*
X147629586Y-82980618D01*
X147552736Y-82794628D01*
X147534000Y-82775859D01*
X147534000Y-77016000D01*
X147470211Y-76695311D01*
X147458273Y-76677445D01*
X147288555Y-76423444D01*
X145764555Y-74899445D01*
X145492689Y-74717789D01*
X145172000Y-74654000D01*
X144590572Y-74654000D01*
X144572866Y-74636263D01*
X144201783Y-74482176D01*
X143838000Y-74481858D01*
X143838000Y-72388000D01*
X164219118Y-72388000D01*
X164246838Y-72535317D01*
X164385910Y-72751441D01*
X164598110Y-72896431D01*
X164611197Y-72899081D01*
X164398559Y-73035910D01*
X164253569Y-73248110D01*
X164202560Y-73500000D01*
X164202560Y-75000000D01*
X164246838Y-75235317D01*
X164385910Y-75451441D01*
X164598110Y-75596431D01*
X164850000Y-75647440D01*
X166150000Y-75647440D01*
X166385317Y-75603162D01*
X166601441Y-75464090D01*
X166746431Y-75251890D01*
X166797440Y-75000000D01*
X166797440Y-74787020D01*
X166799485Y-74787020D01*
X166936470Y-74999901D01*
X167148670Y-75144891D01*
X167400560Y-75195900D01*
X168599440Y-75195900D01*
X168834757Y-75151622D01*
X169050881Y-75012550D01*
X169195871Y-74800350D01*
X169246880Y-74548460D01*
X169246880Y-73349580D01*
X169202602Y-73114263D01*
X169063530Y-72898139D01*
X169055341Y-72892544D01*
X169137767Y-72810118D01*
X169234440Y-72576729D01*
X169234440Y-72136730D01*
X169075690Y-71977980D01*
X168127000Y-71977980D01*
X168127000Y-71997980D01*
X167873000Y-71997980D01*
X167873000Y-71977980D01*
X167853000Y-71977980D01*
X167853000Y-71723980D01*
X167873000Y-71723980D01*
X167873000Y-70775290D01*
X168127000Y-70775290D01*
X168127000Y-71723980D01*
X169075690Y-71723980D01*
X169234440Y-71565230D01*
X169234440Y-71125231D01*
X169137767Y-70891842D01*
X168959139Y-70713213D01*
X168725750Y-70616540D01*
X168285750Y-70616540D01*
X168127000Y-70775290D01*
X167873000Y-70775290D01*
X167714250Y-70616540D01*
X167274250Y-70616540D01*
X167040861Y-70713213D01*
X166862233Y-70891842D01*
X166797440Y-71048266D01*
X166797440Y-70800000D01*
X166753162Y-70564683D01*
X166614090Y-70348559D01*
X166401890Y-70203569D01*
X166150000Y-70152560D01*
X164850000Y-70152560D01*
X164614683Y-70196838D01*
X164398559Y-70335910D01*
X164253569Y-70548110D01*
X164220380Y-70712000D01*
X143838000Y-70712000D01*
X143838000Y-69255963D01*
X150923642Y-69255963D01*
X151039806Y-69537658D01*
X151701333Y-69788062D01*
X152408329Y-69766249D01*
X152960194Y-69537658D01*
X153076358Y-69255963D01*
X152000000Y-68179605D01*
X150923642Y-69255963D01*
X143838000Y-69255963D01*
X143838000Y-67701333D01*
X150211938Y-67701333D01*
X150233751Y-68408329D01*
X150462342Y-68960194D01*
X150744037Y-69076358D01*
X151820395Y-68000000D01*
X152179605Y-68000000D01*
X153255963Y-69076358D01*
X153537658Y-68960194D01*
X153788062Y-68298667D01*
X153766249Y-67591671D01*
X153537658Y-67039806D01*
X153255963Y-66923642D01*
X152179605Y-68000000D01*
X151820395Y-68000000D01*
X150744037Y-66923642D01*
X150462342Y-67039806D01*
X150211938Y-67701333D01*
X143838000Y-67701333D01*
X143838000Y-66744037D01*
X150923642Y-66744037D01*
X152000000Y-67820395D01*
X153076358Y-66744037D01*
X153075069Y-66740910D01*
X163438695Y-66740910D01*
X163805640Y-67236343D01*
X165211171Y-67829736D01*
X166736793Y-67840087D01*
X168150246Y-67265819D01*
X168194360Y-67236343D01*
X168561305Y-66740910D01*
X166000000Y-64179605D01*
X163438695Y-66740910D01*
X153075069Y-66740910D01*
X152960194Y-66462342D01*
X152298667Y-66211938D01*
X151591671Y-66233751D01*
X151039806Y-66462342D01*
X150923642Y-66744037D01*
X143838000Y-66744037D01*
X143838000Y-65900000D01*
X143774211Y-65579311D01*
X143592555Y-65307444D01*
X143021904Y-64736793D01*
X162159913Y-64736793D01*
X162734181Y-66150246D01*
X162763657Y-66194360D01*
X163259090Y-66561305D01*
X165820395Y-64000000D01*
X163259090Y-61438695D01*
X162763657Y-61805640D01*
X162170264Y-63211171D01*
X162159913Y-64736793D01*
X143021904Y-64736793D01*
X140092555Y-61807445D01*
X140089854Y-61805640D01*
X139820689Y-61625789D01*
X139500000Y-61562000D01*
X137500000Y-61562000D01*
X137179311Y-61625789D01*
X137070417Y-61698550D01*
X136907445Y-61807444D01*
X136145876Y-62569014D01*
X135960000Y-62532041D01*
X135386511Y-62646115D01*
X134900330Y-62970971D01*
X134684336Y-63294228D01*
X134626821Y-63171510D01*
X134194947Y-62777312D01*
X133779026Y-62605042D01*
X133547000Y-62726183D01*
X133547000Y-63933000D01*
X133567000Y-63933000D01*
X133567000Y-64187000D01*
X133547000Y-64187000D01*
X133547000Y-64207000D01*
X133293000Y-64207000D01*
X133293000Y-64187000D01*
X132085531Y-64187000D01*
X131965032Y-64419027D01*
X132213179Y-64948490D01*
X132631161Y-65330008D01*
X132360330Y-65510971D01*
X132035474Y-65997152D01*
X131921400Y-66570641D01*
X126391036Y-66570641D01*
X124000000Y-64179605D01*
X121438695Y-66740910D01*
X120710000Y-66740910D01*
X120710000Y-66090729D01*
X120734181Y-66150246D01*
X120763657Y-66194360D01*
X121259090Y-66561305D01*
X123820395Y-64000000D01*
X124179605Y-64000000D01*
X126740910Y-66561305D01*
X127236343Y-66194360D01*
X127829736Y-64788829D01*
X127837116Y-63700973D01*
X131965032Y-63700973D01*
X132085531Y-63933000D01*
X133293000Y-63933000D01*
X133293000Y-62726183D01*
X133060974Y-62605042D01*
X132645053Y-62777312D01*
X132213179Y-63171510D01*
X131965032Y-63700973D01*
X127837116Y-63700973D01*
X127840087Y-63263207D01*
X127265819Y-61849754D01*
X127236343Y-61805640D01*
X126740910Y-61438695D01*
X124179605Y-64000000D01*
X123820395Y-64000000D01*
X121259090Y-61438695D01*
X120763657Y-61805640D01*
X120710000Y-61932734D01*
X120710000Y-60710000D01*
X121909271Y-60710000D01*
X121849754Y-60734181D01*
M02*
