%TF.GenerationSoftware,KiCad,Pcbnew,4.0.1-stable*%
%TF.CreationDate,2016-03-28T18:18:17+01:00*%
%TF.ProjectId,rc_power_sockets,72635F706F7765725F736F636B657473,rev?*%
%TF.FileFunction,Copper,L2,Bot,Signal*%
%FSLAX46Y46*%
G04 Gerber Fmt 4.6, Leading zero omitted, Abs format (unit mm)*
G04 Created by KiCad (PCBNEW 4.0.1-stable) date 28/03/2016 18:18:17*
%MOMM*%
G01*
G04 APERTURE LIST*
%ADD10C,0.100000*%
%ADD11C,2.286000*%
%ADD12C,6.400000*%
%ADD13R,1.727200X2.032000*%
%ADD14O,1.727200X2.032000*%
%ADD15R,2.032000X1.727200*%
%ADD16O,2.032000X1.727200*%
%ADD17C,1.998980*%
%ADD18R,1.727200X1.727200*%
%ADD19O,1.727200X1.727200*%
%ADD20R,1.198880X1.198880*%
%ADD21R,2.032000X2.032000*%
%ADD22O,2.032000X2.032000*%
%ADD23C,4.400000*%
%ADD24C,0.750000*%
%ADD25C,0.406000*%
%ADD26C,0.813000*%
%ADD27C,0.254000*%
G04 APERTURE END LIST*
D10*
D11*
X152000000Y-65380000D03*
X152000000Y-88240000D03*
X137000000Y-104620000D03*
X137000000Y-81760000D03*
D12*
X166000000Y-64000000D03*
D13*
X147500000Y-94900000D03*
D14*
X144960000Y-94900000D03*
X142420000Y-94900000D03*
D15*
X123000000Y-88000000D03*
D16*
X123000000Y-85460000D03*
X123000000Y-82920000D03*
D17*
X166000000Y-96460000D03*
X166000000Y-93920000D03*
X166000000Y-99000000D03*
D18*
X138500000Y-66600000D03*
D19*
X138500000Y-64060000D03*
X135960000Y-66600000D03*
X135960000Y-64060000D03*
X133420000Y-66600000D03*
X133420000Y-64060000D03*
D15*
X167000000Y-83000000D03*
D16*
X167000000Y-85540000D03*
X167000000Y-88080000D03*
D12*
X166000000Y-106000000D03*
X124000000Y-106000000D03*
X124000000Y-64000000D03*
D20*
X129400000Y-71049020D03*
X129400000Y-68950980D03*
D21*
X134500000Y-75900000D03*
D22*
X137040000Y-75900000D03*
D23*
X130500000Y-85000000D03*
X159500000Y-85000000D03*
D24*
X155800000Y-66200000D03*
X155800000Y-67400000D03*
X159600000Y-67400000D03*
X159600000Y-66200000D03*
X157000000Y-67400000D03*
X157000000Y-66200000D03*
X158400000Y-66200000D03*
X158400000Y-67400000D03*
X143013000Y-89589000D03*
X142886000Y-75492000D03*
X146696000Y-83366000D03*
X145426000Y-77270000D03*
X145426000Y-84636000D03*
X139330000Y-84636000D03*
X150200000Y-85700000D03*
X155459000Y-73587000D03*
X131456000Y-74476000D03*
D25*
X155800000Y-66200000D02*
X155800000Y-67400000D01*
X159600000Y-66200000D02*
X159600000Y-67400000D01*
X157000000Y-67400000D02*
X157000000Y-66200000D01*
X158400000Y-66200000D02*
X158400000Y-67400000D01*
X129476000Y-68872980D02*
X129500000Y-62500000D01*
X126800000Y-61200000D02*
X124000000Y-64000000D01*
X128200000Y-61200000D02*
X126800000Y-61200000D01*
X129500000Y-62500000D02*
X128200000Y-61200000D01*
X164620000Y-65380000D02*
X166000000Y-64000000D01*
X167000000Y-83000000D02*
X166900000Y-83000000D01*
X166000000Y-106000000D02*
X166000000Y-99000000D01*
X124000000Y-106000000D02*
X129300000Y-106000000D01*
X131000000Y-107700000D02*
X164300000Y-107700000D01*
X129300000Y-106000000D02*
X131000000Y-107700000D01*
X164300000Y-107700000D02*
X166000000Y-106000000D01*
X124000000Y-106000000D02*
X124000000Y-94000000D01*
X123000000Y-93000000D02*
X123000000Y-88000000D01*
X124000000Y-94000000D02*
X123000000Y-93000000D01*
X147500000Y-94900000D02*
X147500000Y-98800000D01*
X128700000Y-101300000D02*
X124000000Y-106000000D01*
X145000000Y-101300000D02*
X128700000Y-101300000D01*
X147500000Y-98800000D02*
X145000000Y-101300000D01*
X124060000Y-64060000D02*
X124000000Y-64000000D01*
X133420000Y-64060000D02*
X132940000Y-64060000D01*
X146696000Y-83366000D02*
X146696000Y-77016000D01*
X145172000Y-75492000D02*
X142886000Y-75492000D01*
X146696000Y-77016000D02*
X145172000Y-75492000D01*
X144960000Y-89674000D02*
X144960000Y-94900000D01*
X146696000Y-87938000D02*
X144960000Y-89674000D01*
X146696000Y-83366000D02*
X146696000Y-87938000D01*
X145426000Y-84636000D02*
X145426000Y-77270000D01*
X125602000Y-80318000D02*
X123000000Y-82920000D01*
X131456000Y-80318000D02*
X125602000Y-80318000D01*
X135774000Y-84636000D02*
X131456000Y-80318000D01*
X139330000Y-84636000D02*
X135774000Y-84636000D01*
X167000000Y-88080000D02*
X167000000Y-89800000D01*
X153700000Y-85700000D02*
X150200000Y-85700000D01*
X158300000Y-90300000D02*
X153700000Y-85700000D01*
X166500000Y-90300000D02*
X158300000Y-90300000D01*
X167000000Y-89800000D02*
X166500000Y-90300000D01*
X123000000Y-82920000D02*
X123580000Y-82920000D01*
X123080000Y-83000000D02*
X123000000Y-82920000D01*
D26*
X167000000Y-85540000D02*
X165253000Y-85540000D01*
X164095000Y-82223000D02*
X155459000Y-73587000D01*
X164095000Y-84382000D02*
X164095000Y-82223000D01*
X165253000Y-85540000D02*
X164095000Y-84382000D01*
D25*
X129424000Y-72444000D02*
X129400000Y-71049020D01*
X131456000Y-74476000D02*
X129424000Y-72444000D01*
D26*
X137000000Y-104620000D02*
X144380000Y-104620000D01*
X144380000Y-104620000D02*
X152000000Y-97000000D01*
X152000000Y-97000000D02*
X152000000Y-88240000D01*
D27*
G36*
X121849754Y-60734181D02*
X121805640Y-60763657D01*
X121438695Y-61259090D01*
X124000000Y-63820395D01*
X126561305Y-61259090D01*
X126194360Y-60763657D01*
X126067266Y-60710000D01*
X163909271Y-60710000D01*
X163849754Y-60734181D01*
X163805640Y-60763657D01*
X163438695Y-61259090D01*
X166000000Y-63820395D01*
X168561305Y-61259090D01*
X168194360Y-60763657D01*
X168067266Y-60710000D01*
X169290000Y-60710000D01*
X169290000Y-61909271D01*
X169265819Y-61849754D01*
X169236343Y-61805640D01*
X168740910Y-61438695D01*
X166179605Y-64000000D01*
X168740910Y-66561305D01*
X169236343Y-66194360D01*
X169290000Y-66067266D01*
X169290000Y-103909271D01*
X169265819Y-103849754D01*
X169236343Y-103805640D01*
X168740910Y-103438695D01*
X166179605Y-106000000D01*
X168740910Y-108561305D01*
X169236343Y-108194360D01*
X169290000Y-108067266D01*
X169290000Y-109290000D01*
X168090729Y-109290000D01*
X168150246Y-109265819D01*
X168194360Y-109236343D01*
X168561305Y-108740910D01*
X166000000Y-106179605D01*
X163438695Y-108740910D01*
X163805640Y-109236343D01*
X163932734Y-109290000D01*
X126090729Y-109290000D01*
X126150246Y-109265819D01*
X126194360Y-109236343D01*
X126561305Y-108740910D01*
X124000000Y-106179605D01*
X121438695Y-108740910D01*
X121805640Y-109236343D01*
X121932734Y-109290000D01*
X120710000Y-109290000D01*
X120710000Y-108090729D01*
X120734181Y-108150246D01*
X120763657Y-108194360D01*
X121259090Y-108561305D01*
X123820395Y-106000000D01*
X124179605Y-106000000D01*
X126740910Y-108561305D01*
X127236343Y-108194360D01*
X127829736Y-106788829D01*
X127830089Y-106736793D01*
X162159913Y-106736793D01*
X162734181Y-108150246D01*
X162763657Y-108194360D01*
X163259090Y-108561305D01*
X165820395Y-106000000D01*
X163259090Y-103438695D01*
X162763657Y-103805640D01*
X162170264Y-105211171D01*
X162159913Y-106736793D01*
X127830089Y-106736793D01*
X127840087Y-105263207D01*
X127721820Y-104972114D01*
X135221692Y-104972114D01*
X135491806Y-105625840D01*
X135991529Y-106126436D01*
X136644782Y-106397691D01*
X137352114Y-106398308D01*
X138005840Y-106128194D01*
X138473349Y-105661500D01*
X144380000Y-105661500D01*
X144778565Y-105582221D01*
X145116452Y-105356452D01*
X147213813Y-103259090D01*
X163438695Y-103259090D01*
X166000000Y-105820395D01*
X168561305Y-103259090D01*
X168194360Y-102763657D01*
X166788829Y-102170264D01*
X165263207Y-102159913D01*
X163849754Y-102734181D01*
X163805640Y-102763657D01*
X163438695Y-103259090D01*
X147213813Y-103259090D01*
X150320740Y-100152163D01*
X165027443Y-100152163D01*
X165126042Y-100418965D01*
X165735582Y-100645401D01*
X166385377Y-100621341D01*
X166873958Y-100418965D01*
X166972557Y-100152163D01*
X166000000Y-99179605D01*
X165027443Y-100152163D01*
X150320740Y-100152163D01*
X151737321Y-98735582D01*
X164354599Y-98735582D01*
X164378659Y-99385377D01*
X164581035Y-99873958D01*
X164847837Y-99972557D01*
X165820395Y-99000000D01*
X166179605Y-99000000D01*
X167152163Y-99972557D01*
X167418965Y-99873958D01*
X167645401Y-99264418D01*
X167621341Y-98614623D01*
X167418965Y-98126042D01*
X167152163Y-98027443D01*
X166179605Y-99000000D01*
X165820395Y-99000000D01*
X164847837Y-98027443D01*
X164581035Y-98126042D01*
X164354599Y-98735582D01*
X151737321Y-98735582D01*
X152736449Y-97736454D01*
X152736452Y-97736452D01*
X152962221Y-97398565D01*
X153041500Y-97000000D01*
X153041500Y-94243694D01*
X164365226Y-94243694D01*
X164613538Y-94844655D01*
X164958480Y-95190199D01*
X164615154Y-95532927D01*
X164365794Y-96133453D01*
X164365226Y-96783694D01*
X164613538Y-97384655D01*
X165040539Y-97812401D01*
X165027443Y-97847837D01*
X166000000Y-98820395D01*
X166972557Y-97847837D01*
X166959276Y-97811901D01*
X167384846Y-97387073D01*
X167634206Y-96786547D01*
X167634774Y-96136306D01*
X167386462Y-95535345D01*
X167041520Y-95189801D01*
X167384846Y-94847073D01*
X167634206Y-94246547D01*
X167634774Y-93596306D01*
X167386462Y-92995345D01*
X166927073Y-92535154D01*
X166326547Y-92285794D01*
X165676306Y-92285226D01*
X165075345Y-92533538D01*
X164615154Y-92992927D01*
X164365794Y-93593453D01*
X164365226Y-94243694D01*
X153041500Y-94243694D01*
X153041500Y-89712596D01*
X153506436Y-89248471D01*
X153777691Y-88595218D01*
X153778308Y-87887886D01*
X153508194Y-87234160D01*
X153008471Y-86733564D01*
X152537502Y-86538000D01*
X153352890Y-86538000D01*
X157707444Y-90892555D01*
X157979311Y-91074211D01*
X158300000Y-91138000D01*
X166500000Y-91138000D01*
X166820689Y-91074211D01*
X167092555Y-90892555D01*
X167592556Y-90392555D01*
X167701450Y-90229583D01*
X167774211Y-90120689D01*
X167838000Y-89800000D01*
X167838000Y-89411228D01*
X168244415Y-89139670D01*
X168569271Y-88653489D01*
X168683345Y-88080000D01*
X168569271Y-87506511D01*
X168244415Y-87020330D01*
X167929634Y-86810000D01*
X168244415Y-86599670D01*
X168569271Y-86113489D01*
X168683345Y-85540000D01*
X168569271Y-84966511D01*
X168244415Y-84480330D01*
X168222220Y-84465500D01*
X168375699Y-84401927D01*
X168554327Y-84223298D01*
X168651000Y-83989909D01*
X168651000Y-83285750D01*
X168492250Y-83127000D01*
X167127000Y-83127000D01*
X167127000Y-83147000D01*
X166873000Y-83147000D01*
X166873000Y-83127000D01*
X165507750Y-83127000D01*
X165349000Y-83285750D01*
X165349000Y-83989909D01*
X165445673Y-84223298D01*
X165624301Y-84401927D01*
X165777780Y-84465500D01*
X165755585Y-84480330D01*
X165743444Y-84498500D01*
X165684403Y-84498500D01*
X165136500Y-83950596D01*
X165136500Y-82223000D01*
X165094151Y-82010091D01*
X165349000Y-82010091D01*
X165349000Y-82714250D01*
X165507750Y-82873000D01*
X166873000Y-82873000D01*
X166873000Y-81660150D01*
X167127000Y-81660150D01*
X167127000Y-82873000D01*
X168492250Y-82873000D01*
X168651000Y-82714250D01*
X168651000Y-82010091D01*
X168554327Y-81776702D01*
X168375699Y-81598073D01*
X168142310Y-81501400D01*
X167285750Y-81501400D01*
X167127000Y-81660150D01*
X166873000Y-81660150D01*
X166714250Y-81501400D01*
X165857690Y-81501400D01*
X165624301Y-81598073D01*
X165445673Y-81776702D01*
X165349000Y-82010091D01*
X165094151Y-82010091D01*
X165057221Y-81824435D01*
X164831452Y-81486548D01*
X164831449Y-81486546D01*
X156195452Y-72850548D01*
X156061786Y-72761235D01*
X156031866Y-72731263D01*
X155992409Y-72714879D01*
X155857565Y-72624779D01*
X155699895Y-72593417D01*
X155660783Y-72577176D01*
X155618059Y-72577139D01*
X155459000Y-72545500D01*
X155301332Y-72576862D01*
X155258980Y-72576825D01*
X155219493Y-72593141D01*
X155060435Y-72624779D01*
X154926771Y-72714091D01*
X154887628Y-72730264D01*
X154857390Y-72760449D01*
X154722548Y-72850548D01*
X154633235Y-72984214D01*
X154603263Y-73014134D01*
X154586879Y-73053591D01*
X154496779Y-73188435D01*
X154465417Y-73346105D01*
X154449176Y-73385217D01*
X154449139Y-73427941D01*
X154417500Y-73587000D01*
X154448862Y-73744668D01*
X154448825Y-73787020D01*
X154465141Y-73826507D01*
X154496779Y-73985565D01*
X154586091Y-74119229D01*
X154602264Y-74158372D01*
X154632449Y-74188610D01*
X154722548Y-74323452D01*
X163053500Y-82654403D01*
X163053500Y-84382000D01*
X163132779Y-84780565D01*
X163358548Y-85118452D01*
X164516546Y-86276449D01*
X164516548Y-86276452D01*
X164854435Y-86502221D01*
X165253000Y-86581500D01*
X165743444Y-86581500D01*
X165755585Y-86599670D01*
X166070366Y-86810000D01*
X165755585Y-87020330D01*
X165430729Y-87506511D01*
X165316655Y-88080000D01*
X165430729Y-88653489D01*
X165755585Y-89139670D01*
X166162000Y-89411228D01*
X166162000Y-89452889D01*
X166152890Y-89462000D01*
X158647111Y-89462000D01*
X156204493Y-87019382D01*
X157660223Y-87019382D01*
X157905368Y-87410888D01*
X158949360Y-87837609D01*
X160077181Y-87832330D01*
X161094632Y-87410888D01*
X161339777Y-87019382D01*
X159500000Y-85179605D01*
X157660223Y-87019382D01*
X156204493Y-87019382D01*
X154292555Y-85107445D01*
X154020689Y-84925789D01*
X153700000Y-84862000D01*
X150790572Y-84862000D01*
X150772866Y-84844263D01*
X150401783Y-84690176D01*
X149999980Y-84689825D01*
X149628628Y-84843264D01*
X149344263Y-85127134D01*
X149190176Y-85498217D01*
X149189825Y-85900020D01*
X149343264Y-86271372D01*
X149627134Y-86555737D01*
X149998217Y-86709824D01*
X150400020Y-86710175D01*
X150771372Y-86556736D01*
X150790141Y-86538000D01*
X151463206Y-86538000D01*
X150994160Y-86731806D01*
X150493564Y-87231529D01*
X150222309Y-87884782D01*
X150221692Y-88592114D01*
X150491806Y-89245840D01*
X150958500Y-89713349D01*
X150958500Y-96568597D01*
X143948596Y-103578500D01*
X138472596Y-103578500D01*
X138008471Y-103113564D01*
X137355218Y-102842309D01*
X136647886Y-102841692D01*
X135994160Y-103111806D01*
X135493564Y-103611529D01*
X135222309Y-104264782D01*
X135221692Y-104972114D01*
X127721820Y-104972114D01*
X127265819Y-103849754D01*
X127236343Y-103805640D01*
X126740910Y-103438695D01*
X124179605Y-106000000D01*
X123820395Y-106000000D01*
X121259090Y-103438695D01*
X120763657Y-103805640D01*
X120710000Y-103932734D01*
X120710000Y-103259090D01*
X121438695Y-103259090D01*
X124000000Y-105820395D01*
X126561305Y-103259090D01*
X126194360Y-102763657D01*
X124788829Y-102170264D01*
X123263207Y-102159913D01*
X121849754Y-102734181D01*
X121805640Y-102763657D01*
X121438695Y-103259090D01*
X120710000Y-103259090D01*
X120710000Y-94715255D01*
X140921400Y-94715255D01*
X140921400Y-95084745D01*
X141035474Y-95658234D01*
X141360330Y-96144415D01*
X141846511Y-96469271D01*
X142420000Y-96583345D01*
X142993489Y-96469271D01*
X143479670Y-96144415D01*
X143690000Y-95829634D01*
X143900330Y-96144415D01*
X144386511Y-96469271D01*
X144960000Y-96583345D01*
X145533489Y-96469271D01*
X146019670Y-96144415D01*
X146034500Y-96122220D01*
X146098073Y-96275699D01*
X146276702Y-96454327D01*
X146510091Y-96551000D01*
X147214250Y-96551000D01*
X147373000Y-96392250D01*
X147373000Y-95027000D01*
X147627000Y-95027000D01*
X147627000Y-96392250D01*
X147785750Y-96551000D01*
X148489909Y-96551000D01*
X148723298Y-96454327D01*
X148901927Y-96275699D01*
X148998600Y-96042310D01*
X148998600Y-95185750D01*
X148839850Y-95027000D01*
X147627000Y-95027000D01*
X147373000Y-95027000D01*
X147353000Y-95027000D01*
X147353000Y-94773000D01*
X147373000Y-94773000D01*
X147373000Y-93407750D01*
X147627000Y-93407750D01*
X147627000Y-94773000D01*
X148839850Y-94773000D01*
X148998600Y-94614250D01*
X148998600Y-93757690D01*
X148901927Y-93524301D01*
X148723298Y-93345673D01*
X148489909Y-93249000D01*
X147785750Y-93249000D01*
X147627000Y-93407750D01*
X147373000Y-93407750D01*
X147214250Y-93249000D01*
X146510091Y-93249000D01*
X146276702Y-93345673D01*
X146098073Y-93524301D01*
X146034500Y-93677780D01*
X146019670Y-93655585D01*
X145798000Y-93507470D01*
X145798000Y-90021110D01*
X147288556Y-88530555D01*
X147452129Y-88285750D01*
X147470211Y-88258689D01*
X147534000Y-87938000D01*
X147534000Y-84449360D01*
X156662391Y-84449360D01*
X156667670Y-85577181D01*
X157089112Y-86594632D01*
X157480618Y-86839777D01*
X159320395Y-85000000D01*
X159679605Y-85000000D01*
X161519382Y-86839777D01*
X161910888Y-86594632D01*
X162337609Y-85550640D01*
X162332330Y-84422819D01*
X161910888Y-83405368D01*
X161519382Y-83160223D01*
X159679605Y-85000000D01*
X159320395Y-85000000D01*
X157480618Y-83160223D01*
X157089112Y-83405368D01*
X156662391Y-84449360D01*
X147534000Y-84449360D01*
X147534000Y-83956572D01*
X147551737Y-83938866D01*
X147705824Y-83567783D01*
X147706175Y-83165980D01*
X147629586Y-82980618D01*
X157660223Y-82980618D01*
X159500000Y-84820395D01*
X161339777Y-82980618D01*
X161094632Y-82589112D01*
X160050640Y-82162391D01*
X158922819Y-82167670D01*
X157905368Y-82589112D01*
X157660223Y-82980618D01*
X147629586Y-82980618D01*
X147552736Y-82794628D01*
X147534000Y-82775859D01*
X147534000Y-77016000D01*
X147470211Y-76695311D01*
X147341161Y-76502175D01*
X147288555Y-76423444D01*
X145764555Y-74899445D01*
X145492689Y-74717789D01*
X145172000Y-74654000D01*
X143476572Y-74654000D01*
X143458866Y-74636263D01*
X143087783Y-74482176D01*
X142685980Y-74481825D01*
X142314628Y-74635264D01*
X142030263Y-74919134D01*
X141876176Y-75290217D01*
X141875825Y-75692020D01*
X142029264Y-76063372D01*
X142313134Y-76347737D01*
X142684217Y-76501824D01*
X143086020Y-76502175D01*
X143457372Y-76348736D01*
X143476141Y-76330000D01*
X144824890Y-76330000D01*
X144892504Y-76397614D01*
X144854628Y-76413264D01*
X144570263Y-76697134D01*
X144416176Y-77068217D01*
X144415825Y-77470020D01*
X144569264Y-77841372D01*
X144588000Y-77860141D01*
X144588000Y-84045428D01*
X144570263Y-84063134D01*
X144416176Y-84434217D01*
X144415825Y-84836020D01*
X144569264Y-85207372D01*
X144853134Y-85491737D01*
X145224217Y-85645824D01*
X145626020Y-85646175D01*
X145858000Y-85550323D01*
X145858000Y-87590889D01*
X144367445Y-89081445D01*
X144185789Y-89353311D01*
X144122000Y-89674000D01*
X144122000Y-93507470D01*
X143900330Y-93655585D01*
X143690000Y-93970366D01*
X143479670Y-93655585D01*
X142993489Y-93330729D01*
X142420000Y-93216655D01*
X141846511Y-93330729D01*
X141360330Y-93655585D01*
X141035474Y-94141766D01*
X140921400Y-94715255D01*
X120710000Y-94715255D01*
X120710000Y-88285750D01*
X121349000Y-88285750D01*
X121349000Y-88989909D01*
X121445673Y-89223298D01*
X121624301Y-89401927D01*
X121857690Y-89498600D01*
X122714250Y-89498600D01*
X122873000Y-89339850D01*
X122873000Y-88127000D01*
X123127000Y-88127000D01*
X123127000Y-89339850D01*
X123285750Y-89498600D01*
X124142310Y-89498600D01*
X124375699Y-89401927D01*
X124554327Y-89223298D01*
X124651000Y-88989909D01*
X124651000Y-88285750D01*
X124492250Y-88127000D01*
X123127000Y-88127000D01*
X122873000Y-88127000D01*
X121507750Y-88127000D01*
X121349000Y-88285750D01*
X120710000Y-88285750D01*
X120710000Y-82920000D01*
X121316655Y-82920000D01*
X121430729Y-83493489D01*
X121755585Y-83979670D01*
X122070366Y-84190000D01*
X121755585Y-84400330D01*
X121430729Y-84886511D01*
X121316655Y-85460000D01*
X121430729Y-86033489D01*
X121755585Y-86519670D01*
X121777780Y-86534500D01*
X121624301Y-86598073D01*
X121445673Y-86776702D01*
X121349000Y-87010091D01*
X121349000Y-87714250D01*
X121507750Y-87873000D01*
X122873000Y-87873000D01*
X122873000Y-87853000D01*
X123127000Y-87853000D01*
X123127000Y-87873000D01*
X124492250Y-87873000D01*
X124651000Y-87714250D01*
X124651000Y-87019382D01*
X128660223Y-87019382D01*
X128905368Y-87410888D01*
X129949360Y-87837609D01*
X131077181Y-87832330D01*
X132094632Y-87410888D01*
X132339777Y-87019382D01*
X130500000Y-85179605D01*
X128660223Y-87019382D01*
X124651000Y-87019382D01*
X124651000Y-87010091D01*
X124554327Y-86776702D01*
X124375699Y-86598073D01*
X124222220Y-86534500D01*
X124244415Y-86519670D01*
X124569271Y-86033489D01*
X124683345Y-85460000D01*
X124569271Y-84886511D01*
X124277176Y-84449360D01*
X127662391Y-84449360D01*
X127667670Y-85577181D01*
X128089112Y-86594632D01*
X128480618Y-86839777D01*
X130320395Y-85000000D01*
X130679605Y-85000000D01*
X132519382Y-86839777D01*
X132910888Y-86594632D01*
X133337609Y-85550640D01*
X133332330Y-84422819D01*
X132910888Y-83405368D01*
X132519382Y-83160223D01*
X130679605Y-85000000D01*
X130320395Y-85000000D01*
X128480618Y-83160223D01*
X128089112Y-83405368D01*
X127662391Y-84449360D01*
X124277176Y-84449360D01*
X124244415Y-84400330D01*
X123929634Y-84190000D01*
X124244415Y-83979670D01*
X124569271Y-83493489D01*
X124671287Y-82980618D01*
X128660223Y-82980618D01*
X130500000Y-84820395D01*
X132339777Y-82980618D01*
X132094632Y-82589112D01*
X131050640Y-82162391D01*
X129922819Y-82167670D01*
X128905368Y-82589112D01*
X128660223Y-82980618D01*
X124671287Y-82980618D01*
X124683345Y-82920000D01*
X124600683Y-82504428D01*
X125949111Y-81156000D01*
X131108890Y-81156000D01*
X135181444Y-85228555D01*
X135453311Y-85410211D01*
X135774000Y-85474000D01*
X138739428Y-85474000D01*
X138757134Y-85491737D01*
X139128217Y-85645824D01*
X139530020Y-85646175D01*
X139901372Y-85492736D01*
X140185737Y-85208866D01*
X140339824Y-84837783D01*
X140340175Y-84435980D01*
X140186736Y-84064628D01*
X139902866Y-83780263D01*
X139531783Y-83626176D01*
X139129980Y-83625825D01*
X138758628Y-83779264D01*
X138739859Y-83798000D01*
X136121111Y-83798000D01*
X134435225Y-82112114D01*
X135221692Y-82112114D01*
X135491806Y-82765840D01*
X135991529Y-83266436D01*
X136644782Y-83537691D01*
X137352114Y-83538308D01*
X138005840Y-83268194D01*
X138506436Y-82768471D01*
X138777691Y-82115218D01*
X138778308Y-81407886D01*
X138508194Y-80754160D01*
X138008471Y-80253564D01*
X137355218Y-79982309D01*
X136647886Y-79981692D01*
X135994160Y-80251806D01*
X135493564Y-80751529D01*
X135222309Y-81404782D01*
X135221692Y-82112114D01*
X134435225Y-82112114D01*
X132048555Y-79725445D01*
X132048554Y-79725444D01*
X131776689Y-79543789D01*
X131456000Y-79480000D01*
X125602000Y-79480000D01*
X125281311Y-79543789D01*
X125172417Y-79616550D01*
X125009445Y-79725444D01*
X123292130Y-81442760D01*
X123184745Y-81421400D01*
X122815255Y-81421400D01*
X122241766Y-81535474D01*
X121755585Y-81860330D01*
X121430729Y-82346511D01*
X121316655Y-82920000D01*
X120710000Y-82920000D01*
X120710000Y-76185750D01*
X132849000Y-76185750D01*
X132849000Y-77042309D01*
X132945673Y-77275698D01*
X133124301Y-77454327D01*
X133357690Y-77551000D01*
X134214250Y-77551000D01*
X134373000Y-77392250D01*
X134373000Y-76027000D01*
X133007750Y-76027000D01*
X132849000Y-76185750D01*
X120710000Y-76185750D01*
X120710000Y-70449580D01*
X128153120Y-70449580D01*
X128153120Y-71648460D01*
X128197398Y-71883777D01*
X128336470Y-72099901D01*
X128548670Y-72244891D01*
X128582569Y-72251756D01*
X128586124Y-72458415D01*
X128619280Y-72611307D01*
X128649789Y-72764688D01*
X128653865Y-72770788D01*
X128655420Y-72777959D01*
X128744544Y-72906498D01*
X128831445Y-73036555D01*
X130445847Y-74650958D01*
X130445825Y-74676020D01*
X130599264Y-75047372D01*
X130883134Y-75331737D01*
X131254217Y-75485824D01*
X131656020Y-75486175D01*
X132027372Y-75332736D01*
X132311737Y-75048866D01*
X132432643Y-74757691D01*
X132849000Y-74757691D01*
X132849000Y-75614250D01*
X133007750Y-75773000D01*
X134373000Y-75773000D01*
X134373000Y-74407750D01*
X134627000Y-74407750D01*
X134627000Y-75773000D01*
X134647000Y-75773000D01*
X134647000Y-76027000D01*
X134627000Y-76027000D01*
X134627000Y-77392250D01*
X134785750Y-77551000D01*
X135642310Y-77551000D01*
X135875699Y-77454327D01*
X136054327Y-77275698D01*
X136071999Y-77233034D01*
X136408190Y-77457670D01*
X137040000Y-77583345D01*
X137671810Y-77457670D01*
X138207433Y-77099778D01*
X138565325Y-76564155D01*
X138691000Y-75932345D01*
X138691000Y-75867655D01*
X138565325Y-75235845D01*
X138207433Y-74700222D01*
X137671810Y-74342330D01*
X137040000Y-74216655D01*
X136408190Y-74342330D01*
X136071999Y-74566966D01*
X136054327Y-74524302D01*
X135875699Y-74345673D01*
X135642310Y-74249000D01*
X134785750Y-74249000D01*
X134627000Y-74407750D01*
X134373000Y-74407750D01*
X134214250Y-74249000D01*
X133357690Y-74249000D01*
X133124301Y-74345673D01*
X132945673Y-74524302D01*
X132849000Y-74757691D01*
X132432643Y-74757691D01*
X132465824Y-74677783D01*
X132466175Y-74275980D01*
X132312736Y-73904628D01*
X132028866Y-73620263D01*
X131657783Y-73466176D01*
X131631264Y-73466153D01*
X130345482Y-72180372D01*
X130450881Y-72112550D01*
X130595871Y-71900350D01*
X130646880Y-71648460D01*
X130646880Y-70449580D01*
X130602602Y-70214263D01*
X130463530Y-69998139D01*
X130455341Y-69992544D01*
X130537767Y-69910118D01*
X130634440Y-69676729D01*
X130634440Y-69236730D01*
X130475690Y-69077980D01*
X129527000Y-69077980D01*
X129527000Y-69097980D01*
X129273000Y-69097980D01*
X129273000Y-69077980D01*
X128324310Y-69077980D01*
X128165560Y-69236730D01*
X128165560Y-69676729D01*
X128262233Y-69910118D01*
X128344445Y-69992331D01*
X128204129Y-70197690D01*
X128153120Y-70449580D01*
X120710000Y-70449580D01*
X120710000Y-68225231D01*
X128165560Y-68225231D01*
X128165560Y-68665230D01*
X128324310Y-68823980D01*
X129273000Y-68823980D01*
X129273000Y-67875290D01*
X129527000Y-67875290D01*
X129527000Y-68823980D01*
X130475690Y-68823980D01*
X130634440Y-68665230D01*
X130634440Y-68225231D01*
X130537767Y-67991842D01*
X130359139Y-67813213D01*
X130125750Y-67716540D01*
X129685750Y-67716540D01*
X129527000Y-67875290D01*
X129273000Y-67875290D01*
X129114250Y-67716540D01*
X128674250Y-67716540D01*
X128440861Y-67813213D01*
X128262233Y-67991842D01*
X128165560Y-68225231D01*
X120710000Y-68225231D01*
X120710000Y-66740910D01*
X121438695Y-66740910D01*
X121805640Y-67236343D01*
X123211171Y-67829736D01*
X124736793Y-67840087D01*
X126150246Y-67265819D01*
X126194360Y-67236343D01*
X126561305Y-66740910D01*
X126391036Y-66570641D01*
X131921400Y-66570641D01*
X131921400Y-66629359D01*
X132035474Y-67202848D01*
X132360330Y-67689029D01*
X132846511Y-68013885D01*
X133420000Y-68127959D01*
X133993489Y-68013885D01*
X134479670Y-67689029D01*
X134690000Y-67374248D01*
X134900330Y-67689029D01*
X135386511Y-68013885D01*
X135960000Y-68127959D01*
X136533489Y-68013885D01*
X137019670Y-67689029D01*
X137028805Y-67675358D01*
X137033238Y-67698917D01*
X137172310Y-67915041D01*
X137384510Y-68060031D01*
X137636400Y-68111040D01*
X139363600Y-68111040D01*
X139598917Y-68066762D01*
X139815041Y-67927690D01*
X139960031Y-67715490D01*
X140011040Y-67463600D01*
X140011040Y-66635963D01*
X150923642Y-66635963D01*
X151039806Y-66917658D01*
X151701333Y-67168062D01*
X152408329Y-67146249D01*
X152960194Y-66917658D01*
X153033080Y-66740910D01*
X163438695Y-66740910D01*
X163805640Y-67236343D01*
X165211171Y-67829736D01*
X166736793Y-67840087D01*
X168150246Y-67265819D01*
X168194360Y-67236343D01*
X168561305Y-66740910D01*
X166000000Y-64179605D01*
X163438695Y-66740910D01*
X153033080Y-66740910D01*
X153076358Y-66635963D01*
X152000000Y-65559605D01*
X150923642Y-66635963D01*
X140011040Y-66635963D01*
X140011040Y-65736400D01*
X139966762Y-65501083D01*
X139827690Y-65284959D01*
X139615490Y-65139969D01*
X139571655Y-65131092D01*
X139604902Y-65081333D01*
X150211938Y-65081333D01*
X150233751Y-65788329D01*
X150462342Y-66340194D01*
X150744037Y-66456358D01*
X151820395Y-65380000D01*
X152179605Y-65380000D01*
X153255963Y-66456358D01*
X153537658Y-66340194D01*
X153788062Y-65678667D01*
X153766249Y-64971671D01*
X153668959Y-64736793D01*
X162159913Y-64736793D01*
X162734181Y-66150246D01*
X162763657Y-66194360D01*
X163259090Y-66561305D01*
X165820395Y-64000000D01*
X163259090Y-61438695D01*
X162763657Y-61805640D01*
X162170264Y-63211171D01*
X162159913Y-64736793D01*
X153668959Y-64736793D01*
X153537658Y-64419806D01*
X153255963Y-64303642D01*
X152179605Y-65380000D01*
X151820395Y-65380000D01*
X150744037Y-64303642D01*
X150462342Y-64419806D01*
X150211938Y-65081333D01*
X139604902Y-65081333D01*
X139884526Y-64662848D01*
X139991702Y-64124037D01*
X150923642Y-64124037D01*
X152000000Y-65200395D01*
X153076358Y-64124037D01*
X152960194Y-63842342D01*
X152298667Y-63591938D01*
X151591671Y-63613751D01*
X151039806Y-63842342D01*
X150923642Y-64124037D01*
X139991702Y-64124037D01*
X139998600Y-64089359D01*
X139998600Y-64030641D01*
X139884526Y-63457152D01*
X139559670Y-62970971D01*
X139073489Y-62646115D01*
X138500000Y-62532041D01*
X137926511Y-62646115D01*
X137440330Y-62970971D01*
X137230000Y-63285752D01*
X137019670Y-62970971D01*
X136533489Y-62646115D01*
X135960000Y-62532041D01*
X135386511Y-62646115D01*
X134900330Y-62970971D01*
X134684336Y-63294228D01*
X134626821Y-63171510D01*
X134194947Y-62777312D01*
X133779026Y-62605042D01*
X133547000Y-62726183D01*
X133547000Y-63933000D01*
X133567000Y-63933000D01*
X133567000Y-64187000D01*
X133547000Y-64187000D01*
X133547000Y-64207000D01*
X133293000Y-64207000D01*
X133293000Y-64187000D01*
X132085531Y-64187000D01*
X131965032Y-64419027D01*
X132213179Y-64948490D01*
X132631161Y-65330008D01*
X132360330Y-65510971D01*
X132035474Y-65997152D01*
X131921400Y-66570641D01*
X126391036Y-66570641D01*
X124000000Y-64179605D01*
X121438695Y-66740910D01*
X120710000Y-66740910D01*
X120710000Y-66090729D01*
X120734181Y-66150246D01*
X120763657Y-66194360D01*
X121259090Y-66561305D01*
X123820395Y-64000000D01*
X124179605Y-64000000D01*
X126740910Y-66561305D01*
X127236343Y-66194360D01*
X127829736Y-64788829D01*
X127837116Y-63700973D01*
X131965032Y-63700973D01*
X132085531Y-63933000D01*
X133293000Y-63933000D01*
X133293000Y-62726183D01*
X133060974Y-62605042D01*
X132645053Y-62777312D01*
X132213179Y-63171510D01*
X131965032Y-63700973D01*
X127837116Y-63700973D01*
X127840087Y-63263207D01*
X127265819Y-61849754D01*
X127236343Y-61805640D01*
X126740910Y-61438695D01*
X124179605Y-64000000D01*
X123820395Y-64000000D01*
X121259090Y-61438695D01*
X120763657Y-61805640D01*
X120710000Y-61932734D01*
X120710000Y-60710000D01*
X121909271Y-60710000D01*
X121849754Y-60734181D01*
X121849754Y-60734181D01*
G37*
X121849754Y-60734181D02*
X121805640Y-60763657D01*
X121438695Y-61259090D01*
X124000000Y-63820395D01*
X126561305Y-61259090D01*
X126194360Y-60763657D01*
X126067266Y-60710000D01*
X163909271Y-60710000D01*
X163849754Y-60734181D01*
X163805640Y-60763657D01*
X163438695Y-61259090D01*
X166000000Y-63820395D01*
X168561305Y-61259090D01*
X168194360Y-60763657D01*
X168067266Y-60710000D01*
X169290000Y-60710000D01*
X169290000Y-61909271D01*
X169265819Y-61849754D01*
X169236343Y-61805640D01*
X168740910Y-61438695D01*
X166179605Y-64000000D01*
X168740910Y-66561305D01*
X169236343Y-66194360D01*
X169290000Y-66067266D01*
X169290000Y-103909271D01*
X169265819Y-103849754D01*
X169236343Y-103805640D01*
X168740910Y-103438695D01*
X166179605Y-106000000D01*
X168740910Y-108561305D01*
X169236343Y-108194360D01*
X169290000Y-108067266D01*
X169290000Y-109290000D01*
X168090729Y-109290000D01*
X168150246Y-109265819D01*
X168194360Y-109236343D01*
X168561305Y-108740910D01*
X166000000Y-106179605D01*
X163438695Y-108740910D01*
X163805640Y-109236343D01*
X163932734Y-109290000D01*
X126090729Y-109290000D01*
X126150246Y-109265819D01*
X126194360Y-109236343D01*
X126561305Y-108740910D01*
X124000000Y-106179605D01*
X121438695Y-108740910D01*
X121805640Y-109236343D01*
X121932734Y-109290000D01*
X120710000Y-109290000D01*
X120710000Y-108090729D01*
X120734181Y-108150246D01*
X120763657Y-108194360D01*
X121259090Y-108561305D01*
X123820395Y-106000000D01*
X124179605Y-106000000D01*
X126740910Y-108561305D01*
X127236343Y-108194360D01*
X127829736Y-106788829D01*
X127830089Y-106736793D01*
X162159913Y-106736793D01*
X162734181Y-108150246D01*
X162763657Y-108194360D01*
X163259090Y-108561305D01*
X165820395Y-106000000D01*
X163259090Y-103438695D01*
X162763657Y-103805640D01*
X162170264Y-105211171D01*
X162159913Y-106736793D01*
X127830089Y-106736793D01*
X127840087Y-105263207D01*
X127721820Y-104972114D01*
X135221692Y-104972114D01*
X135491806Y-105625840D01*
X135991529Y-106126436D01*
X136644782Y-106397691D01*
X137352114Y-106398308D01*
X138005840Y-106128194D01*
X138473349Y-105661500D01*
X144380000Y-105661500D01*
X144778565Y-105582221D01*
X145116452Y-105356452D01*
X147213813Y-103259090D01*
X163438695Y-103259090D01*
X166000000Y-105820395D01*
X168561305Y-103259090D01*
X168194360Y-102763657D01*
X166788829Y-102170264D01*
X165263207Y-102159913D01*
X163849754Y-102734181D01*
X163805640Y-102763657D01*
X163438695Y-103259090D01*
X147213813Y-103259090D01*
X150320740Y-100152163D01*
X165027443Y-100152163D01*
X165126042Y-100418965D01*
X165735582Y-100645401D01*
X166385377Y-100621341D01*
X166873958Y-100418965D01*
X166972557Y-100152163D01*
X166000000Y-99179605D01*
X165027443Y-100152163D01*
X150320740Y-100152163D01*
X151737321Y-98735582D01*
X164354599Y-98735582D01*
X164378659Y-99385377D01*
X164581035Y-99873958D01*
X164847837Y-99972557D01*
X165820395Y-99000000D01*
X166179605Y-99000000D01*
X167152163Y-99972557D01*
X167418965Y-99873958D01*
X167645401Y-99264418D01*
X167621341Y-98614623D01*
X167418965Y-98126042D01*
X167152163Y-98027443D01*
X166179605Y-99000000D01*
X165820395Y-99000000D01*
X164847837Y-98027443D01*
X164581035Y-98126042D01*
X164354599Y-98735582D01*
X151737321Y-98735582D01*
X152736449Y-97736454D01*
X152736452Y-97736452D01*
X152962221Y-97398565D01*
X153041500Y-97000000D01*
X153041500Y-94243694D01*
X164365226Y-94243694D01*
X164613538Y-94844655D01*
X164958480Y-95190199D01*
X164615154Y-95532927D01*
X164365794Y-96133453D01*
X164365226Y-96783694D01*
X164613538Y-97384655D01*
X165040539Y-97812401D01*
X165027443Y-97847837D01*
X166000000Y-98820395D01*
X166972557Y-97847837D01*
X166959276Y-97811901D01*
X167384846Y-97387073D01*
X167634206Y-96786547D01*
X167634774Y-96136306D01*
X167386462Y-95535345D01*
X167041520Y-95189801D01*
X167384846Y-94847073D01*
X167634206Y-94246547D01*
X167634774Y-93596306D01*
X167386462Y-92995345D01*
X166927073Y-92535154D01*
X166326547Y-92285794D01*
X165676306Y-92285226D01*
X165075345Y-92533538D01*
X164615154Y-92992927D01*
X164365794Y-93593453D01*
X164365226Y-94243694D01*
X153041500Y-94243694D01*
X153041500Y-89712596D01*
X153506436Y-89248471D01*
X153777691Y-88595218D01*
X153778308Y-87887886D01*
X153508194Y-87234160D01*
X153008471Y-86733564D01*
X152537502Y-86538000D01*
X153352890Y-86538000D01*
X157707444Y-90892555D01*
X157979311Y-91074211D01*
X158300000Y-91138000D01*
X166500000Y-91138000D01*
X166820689Y-91074211D01*
X167092555Y-90892555D01*
X167592556Y-90392555D01*
X167701450Y-90229583D01*
X167774211Y-90120689D01*
X167838000Y-89800000D01*
X167838000Y-89411228D01*
X168244415Y-89139670D01*
X168569271Y-88653489D01*
X168683345Y-88080000D01*
X168569271Y-87506511D01*
X168244415Y-87020330D01*
X167929634Y-86810000D01*
X168244415Y-86599670D01*
X168569271Y-86113489D01*
X168683345Y-85540000D01*
X168569271Y-84966511D01*
X168244415Y-84480330D01*
X168222220Y-84465500D01*
X168375699Y-84401927D01*
X168554327Y-84223298D01*
X168651000Y-83989909D01*
X168651000Y-83285750D01*
X168492250Y-83127000D01*
X167127000Y-83127000D01*
X167127000Y-83147000D01*
X166873000Y-83147000D01*
X166873000Y-83127000D01*
X165507750Y-83127000D01*
X165349000Y-83285750D01*
X165349000Y-83989909D01*
X165445673Y-84223298D01*
X165624301Y-84401927D01*
X165777780Y-84465500D01*
X165755585Y-84480330D01*
X165743444Y-84498500D01*
X165684403Y-84498500D01*
X165136500Y-83950596D01*
X165136500Y-82223000D01*
X165094151Y-82010091D01*
X165349000Y-82010091D01*
X165349000Y-82714250D01*
X165507750Y-82873000D01*
X166873000Y-82873000D01*
X166873000Y-81660150D01*
X167127000Y-81660150D01*
X167127000Y-82873000D01*
X168492250Y-82873000D01*
X168651000Y-82714250D01*
X168651000Y-82010091D01*
X168554327Y-81776702D01*
X168375699Y-81598073D01*
X168142310Y-81501400D01*
X167285750Y-81501400D01*
X167127000Y-81660150D01*
X166873000Y-81660150D01*
X166714250Y-81501400D01*
X165857690Y-81501400D01*
X165624301Y-81598073D01*
X165445673Y-81776702D01*
X165349000Y-82010091D01*
X165094151Y-82010091D01*
X165057221Y-81824435D01*
X164831452Y-81486548D01*
X164831449Y-81486546D01*
X156195452Y-72850548D01*
X156061786Y-72761235D01*
X156031866Y-72731263D01*
X155992409Y-72714879D01*
X155857565Y-72624779D01*
X155699895Y-72593417D01*
X155660783Y-72577176D01*
X155618059Y-72577139D01*
X155459000Y-72545500D01*
X155301332Y-72576862D01*
X155258980Y-72576825D01*
X155219493Y-72593141D01*
X155060435Y-72624779D01*
X154926771Y-72714091D01*
X154887628Y-72730264D01*
X154857390Y-72760449D01*
X154722548Y-72850548D01*
X154633235Y-72984214D01*
X154603263Y-73014134D01*
X154586879Y-73053591D01*
X154496779Y-73188435D01*
X154465417Y-73346105D01*
X154449176Y-73385217D01*
X154449139Y-73427941D01*
X154417500Y-73587000D01*
X154448862Y-73744668D01*
X154448825Y-73787020D01*
X154465141Y-73826507D01*
X154496779Y-73985565D01*
X154586091Y-74119229D01*
X154602264Y-74158372D01*
X154632449Y-74188610D01*
X154722548Y-74323452D01*
X163053500Y-82654403D01*
X163053500Y-84382000D01*
X163132779Y-84780565D01*
X163358548Y-85118452D01*
X164516546Y-86276449D01*
X164516548Y-86276452D01*
X164854435Y-86502221D01*
X165253000Y-86581500D01*
X165743444Y-86581500D01*
X165755585Y-86599670D01*
X166070366Y-86810000D01*
X165755585Y-87020330D01*
X165430729Y-87506511D01*
X165316655Y-88080000D01*
X165430729Y-88653489D01*
X165755585Y-89139670D01*
X166162000Y-89411228D01*
X166162000Y-89452889D01*
X166152890Y-89462000D01*
X158647111Y-89462000D01*
X156204493Y-87019382D01*
X157660223Y-87019382D01*
X157905368Y-87410888D01*
X158949360Y-87837609D01*
X160077181Y-87832330D01*
X161094632Y-87410888D01*
X161339777Y-87019382D01*
X159500000Y-85179605D01*
X157660223Y-87019382D01*
X156204493Y-87019382D01*
X154292555Y-85107445D01*
X154020689Y-84925789D01*
X153700000Y-84862000D01*
X150790572Y-84862000D01*
X150772866Y-84844263D01*
X150401783Y-84690176D01*
X149999980Y-84689825D01*
X149628628Y-84843264D01*
X149344263Y-85127134D01*
X149190176Y-85498217D01*
X149189825Y-85900020D01*
X149343264Y-86271372D01*
X149627134Y-86555737D01*
X149998217Y-86709824D01*
X150400020Y-86710175D01*
X150771372Y-86556736D01*
X150790141Y-86538000D01*
X151463206Y-86538000D01*
X150994160Y-86731806D01*
X150493564Y-87231529D01*
X150222309Y-87884782D01*
X150221692Y-88592114D01*
X150491806Y-89245840D01*
X150958500Y-89713349D01*
X150958500Y-96568597D01*
X143948596Y-103578500D01*
X138472596Y-103578500D01*
X138008471Y-103113564D01*
X137355218Y-102842309D01*
X136647886Y-102841692D01*
X135994160Y-103111806D01*
X135493564Y-103611529D01*
X135222309Y-104264782D01*
X135221692Y-104972114D01*
X127721820Y-104972114D01*
X127265819Y-103849754D01*
X127236343Y-103805640D01*
X126740910Y-103438695D01*
X124179605Y-106000000D01*
X123820395Y-106000000D01*
X121259090Y-103438695D01*
X120763657Y-103805640D01*
X120710000Y-103932734D01*
X120710000Y-103259090D01*
X121438695Y-103259090D01*
X124000000Y-105820395D01*
X126561305Y-103259090D01*
X126194360Y-102763657D01*
X124788829Y-102170264D01*
X123263207Y-102159913D01*
X121849754Y-102734181D01*
X121805640Y-102763657D01*
X121438695Y-103259090D01*
X120710000Y-103259090D01*
X120710000Y-94715255D01*
X140921400Y-94715255D01*
X140921400Y-95084745D01*
X141035474Y-95658234D01*
X141360330Y-96144415D01*
X141846511Y-96469271D01*
X142420000Y-96583345D01*
X142993489Y-96469271D01*
X143479670Y-96144415D01*
X143690000Y-95829634D01*
X143900330Y-96144415D01*
X144386511Y-96469271D01*
X144960000Y-96583345D01*
X145533489Y-96469271D01*
X146019670Y-96144415D01*
X146034500Y-96122220D01*
X146098073Y-96275699D01*
X146276702Y-96454327D01*
X146510091Y-96551000D01*
X147214250Y-96551000D01*
X147373000Y-96392250D01*
X147373000Y-95027000D01*
X147627000Y-95027000D01*
X147627000Y-96392250D01*
X147785750Y-96551000D01*
X148489909Y-96551000D01*
X148723298Y-96454327D01*
X148901927Y-96275699D01*
X148998600Y-96042310D01*
X148998600Y-95185750D01*
X148839850Y-95027000D01*
X147627000Y-95027000D01*
X147373000Y-95027000D01*
X147353000Y-95027000D01*
X147353000Y-94773000D01*
X147373000Y-94773000D01*
X147373000Y-93407750D01*
X147627000Y-93407750D01*
X147627000Y-94773000D01*
X148839850Y-94773000D01*
X148998600Y-94614250D01*
X148998600Y-93757690D01*
X148901927Y-93524301D01*
X148723298Y-93345673D01*
X148489909Y-93249000D01*
X147785750Y-93249000D01*
X147627000Y-93407750D01*
X147373000Y-93407750D01*
X147214250Y-93249000D01*
X146510091Y-93249000D01*
X146276702Y-93345673D01*
X146098073Y-93524301D01*
X146034500Y-93677780D01*
X146019670Y-93655585D01*
X145798000Y-93507470D01*
X145798000Y-90021110D01*
X147288556Y-88530555D01*
X147452129Y-88285750D01*
X147470211Y-88258689D01*
X147534000Y-87938000D01*
X147534000Y-84449360D01*
X156662391Y-84449360D01*
X156667670Y-85577181D01*
X157089112Y-86594632D01*
X157480618Y-86839777D01*
X159320395Y-85000000D01*
X159679605Y-85000000D01*
X161519382Y-86839777D01*
X161910888Y-86594632D01*
X162337609Y-85550640D01*
X162332330Y-84422819D01*
X161910888Y-83405368D01*
X161519382Y-83160223D01*
X159679605Y-85000000D01*
X159320395Y-85000000D01*
X157480618Y-83160223D01*
X157089112Y-83405368D01*
X156662391Y-84449360D01*
X147534000Y-84449360D01*
X147534000Y-83956572D01*
X147551737Y-83938866D01*
X147705824Y-83567783D01*
X147706175Y-83165980D01*
X147629586Y-82980618D01*
X157660223Y-82980618D01*
X159500000Y-84820395D01*
X161339777Y-82980618D01*
X161094632Y-82589112D01*
X160050640Y-82162391D01*
X158922819Y-82167670D01*
X157905368Y-82589112D01*
X157660223Y-82980618D01*
X147629586Y-82980618D01*
X147552736Y-82794628D01*
X147534000Y-82775859D01*
X147534000Y-77016000D01*
X147470211Y-76695311D01*
X147341161Y-76502175D01*
X147288555Y-76423444D01*
X145764555Y-74899445D01*
X145492689Y-74717789D01*
X145172000Y-74654000D01*
X143476572Y-74654000D01*
X143458866Y-74636263D01*
X143087783Y-74482176D01*
X142685980Y-74481825D01*
X142314628Y-74635264D01*
X142030263Y-74919134D01*
X141876176Y-75290217D01*
X141875825Y-75692020D01*
X142029264Y-76063372D01*
X142313134Y-76347737D01*
X142684217Y-76501824D01*
X143086020Y-76502175D01*
X143457372Y-76348736D01*
X143476141Y-76330000D01*
X144824890Y-76330000D01*
X144892504Y-76397614D01*
X144854628Y-76413264D01*
X144570263Y-76697134D01*
X144416176Y-77068217D01*
X144415825Y-77470020D01*
X144569264Y-77841372D01*
X144588000Y-77860141D01*
X144588000Y-84045428D01*
X144570263Y-84063134D01*
X144416176Y-84434217D01*
X144415825Y-84836020D01*
X144569264Y-85207372D01*
X144853134Y-85491737D01*
X145224217Y-85645824D01*
X145626020Y-85646175D01*
X145858000Y-85550323D01*
X145858000Y-87590889D01*
X144367445Y-89081445D01*
X144185789Y-89353311D01*
X144122000Y-89674000D01*
X144122000Y-93507470D01*
X143900330Y-93655585D01*
X143690000Y-93970366D01*
X143479670Y-93655585D01*
X142993489Y-93330729D01*
X142420000Y-93216655D01*
X141846511Y-93330729D01*
X141360330Y-93655585D01*
X141035474Y-94141766D01*
X140921400Y-94715255D01*
X120710000Y-94715255D01*
X120710000Y-88285750D01*
X121349000Y-88285750D01*
X121349000Y-88989909D01*
X121445673Y-89223298D01*
X121624301Y-89401927D01*
X121857690Y-89498600D01*
X122714250Y-89498600D01*
X122873000Y-89339850D01*
X122873000Y-88127000D01*
X123127000Y-88127000D01*
X123127000Y-89339850D01*
X123285750Y-89498600D01*
X124142310Y-89498600D01*
X124375699Y-89401927D01*
X124554327Y-89223298D01*
X124651000Y-88989909D01*
X124651000Y-88285750D01*
X124492250Y-88127000D01*
X123127000Y-88127000D01*
X122873000Y-88127000D01*
X121507750Y-88127000D01*
X121349000Y-88285750D01*
X120710000Y-88285750D01*
X120710000Y-82920000D01*
X121316655Y-82920000D01*
X121430729Y-83493489D01*
X121755585Y-83979670D01*
X122070366Y-84190000D01*
X121755585Y-84400330D01*
X121430729Y-84886511D01*
X121316655Y-85460000D01*
X121430729Y-86033489D01*
X121755585Y-86519670D01*
X121777780Y-86534500D01*
X121624301Y-86598073D01*
X121445673Y-86776702D01*
X121349000Y-87010091D01*
X121349000Y-87714250D01*
X121507750Y-87873000D01*
X122873000Y-87873000D01*
X122873000Y-87853000D01*
X123127000Y-87853000D01*
X123127000Y-87873000D01*
X124492250Y-87873000D01*
X124651000Y-87714250D01*
X124651000Y-87019382D01*
X128660223Y-87019382D01*
X128905368Y-87410888D01*
X129949360Y-87837609D01*
X131077181Y-87832330D01*
X132094632Y-87410888D01*
X132339777Y-87019382D01*
X130500000Y-85179605D01*
X128660223Y-87019382D01*
X124651000Y-87019382D01*
X124651000Y-87010091D01*
X124554327Y-86776702D01*
X124375699Y-86598073D01*
X124222220Y-86534500D01*
X124244415Y-86519670D01*
X124569271Y-86033489D01*
X124683345Y-85460000D01*
X124569271Y-84886511D01*
X124277176Y-84449360D01*
X127662391Y-84449360D01*
X127667670Y-85577181D01*
X128089112Y-86594632D01*
X128480618Y-86839777D01*
X130320395Y-85000000D01*
X130679605Y-85000000D01*
X132519382Y-86839777D01*
X132910888Y-86594632D01*
X133337609Y-85550640D01*
X133332330Y-84422819D01*
X132910888Y-83405368D01*
X132519382Y-83160223D01*
X130679605Y-85000000D01*
X130320395Y-85000000D01*
X128480618Y-83160223D01*
X128089112Y-83405368D01*
X127662391Y-84449360D01*
X124277176Y-84449360D01*
X124244415Y-84400330D01*
X123929634Y-84190000D01*
X124244415Y-83979670D01*
X124569271Y-83493489D01*
X124671287Y-82980618D01*
X128660223Y-82980618D01*
X130500000Y-84820395D01*
X132339777Y-82980618D01*
X132094632Y-82589112D01*
X131050640Y-82162391D01*
X129922819Y-82167670D01*
X128905368Y-82589112D01*
X128660223Y-82980618D01*
X124671287Y-82980618D01*
X124683345Y-82920000D01*
X124600683Y-82504428D01*
X125949111Y-81156000D01*
X131108890Y-81156000D01*
X135181444Y-85228555D01*
X135453311Y-85410211D01*
X135774000Y-85474000D01*
X138739428Y-85474000D01*
X138757134Y-85491737D01*
X139128217Y-85645824D01*
X139530020Y-85646175D01*
X139901372Y-85492736D01*
X140185737Y-85208866D01*
X140339824Y-84837783D01*
X140340175Y-84435980D01*
X140186736Y-84064628D01*
X139902866Y-83780263D01*
X139531783Y-83626176D01*
X139129980Y-83625825D01*
X138758628Y-83779264D01*
X138739859Y-83798000D01*
X136121111Y-83798000D01*
X134435225Y-82112114D01*
X135221692Y-82112114D01*
X135491806Y-82765840D01*
X135991529Y-83266436D01*
X136644782Y-83537691D01*
X137352114Y-83538308D01*
X138005840Y-83268194D01*
X138506436Y-82768471D01*
X138777691Y-82115218D01*
X138778308Y-81407886D01*
X138508194Y-80754160D01*
X138008471Y-80253564D01*
X137355218Y-79982309D01*
X136647886Y-79981692D01*
X135994160Y-80251806D01*
X135493564Y-80751529D01*
X135222309Y-81404782D01*
X135221692Y-82112114D01*
X134435225Y-82112114D01*
X132048555Y-79725445D01*
X132048554Y-79725444D01*
X131776689Y-79543789D01*
X131456000Y-79480000D01*
X125602000Y-79480000D01*
X125281311Y-79543789D01*
X125172417Y-79616550D01*
X125009445Y-79725444D01*
X123292130Y-81442760D01*
X123184745Y-81421400D01*
X122815255Y-81421400D01*
X122241766Y-81535474D01*
X121755585Y-81860330D01*
X121430729Y-82346511D01*
X121316655Y-82920000D01*
X120710000Y-82920000D01*
X120710000Y-76185750D01*
X132849000Y-76185750D01*
X132849000Y-77042309D01*
X132945673Y-77275698D01*
X133124301Y-77454327D01*
X133357690Y-77551000D01*
X134214250Y-77551000D01*
X134373000Y-77392250D01*
X134373000Y-76027000D01*
X133007750Y-76027000D01*
X132849000Y-76185750D01*
X120710000Y-76185750D01*
X120710000Y-70449580D01*
X128153120Y-70449580D01*
X128153120Y-71648460D01*
X128197398Y-71883777D01*
X128336470Y-72099901D01*
X128548670Y-72244891D01*
X128582569Y-72251756D01*
X128586124Y-72458415D01*
X128619280Y-72611307D01*
X128649789Y-72764688D01*
X128653865Y-72770788D01*
X128655420Y-72777959D01*
X128744544Y-72906498D01*
X128831445Y-73036555D01*
X130445847Y-74650958D01*
X130445825Y-74676020D01*
X130599264Y-75047372D01*
X130883134Y-75331737D01*
X131254217Y-75485824D01*
X131656020Y-75486175D01*
X132027372Y-75332736D01*
X132311737Y-75048866D01*
X132432643Y-74757691D01*
X132849000Y-74757691D01*
X132849000Y-75614250D01*
X133007750Y-75773000D01*
X134373000Y-75773000D01*
X134373000Y-74407750D01*
X134627000Y-74407750D01*
X134627000Y-75773000D01*
X134647000Y-75773000D01*
X134647000Y-76027000D01*
X134627000Y-76027000D01*
X134627000Y-77392250D01*
X134785750Y-77551000D01*
X135642310Y-77551000D01*
X135875699Y-77454327D01*
X136054327Y-77275698D01*
X136071999Y-77233034D01*
X136408190Y-77457670D01*
X137040000Y-77583345D01*
X137671810Y-77457670D01*
X138207433Y-77099778D01*
X138565325Y-76564155D01*
X138691000Y-75932345D01*
X138691000Y-75867655D01*
X138565325Y-75235845D01*
X138207433Y-74700222D01*
X137671810Y-74342330D01*
X137040000Y-74216655D01*
X136408190Y-74342330D01*
X136071999Y-74566966D01*
X136054327Y-74524302D01*
X135875699Y-74345673D01*
X135642310Y-74249000D01*
X134785750Y-74249000D01*
X134627000Y-74407750D01*
X134373000Y-74407750D01*
X134214250Y-74249000D01*
X133357690Y-74249000D01*
X133124301Y-74345673D01*
X132945673Y-74524302D01*
X132849000Y-74757691D01*
X132432643Y-74757691D01*
X132465824Y-74677783D01*
X132466175Y-74275980D01*
X132312736Y-73904628D01*
X132028866Y-73620263D01*
X131657783Y-73466176D01*
X131631264Y-73466153D01*
X130345482Y-72180372D01*
X130450881Y-72112550D01*
X130595871Y-71900350D01*
X130646880Y-71648460D01*
X130646880Y-70449580D01*
X130602602Y-70214263D01*
X130463530Y-69998139D01*
X130455341Y-69992544D01*
X130537767Y-69910118D01*
X130634440Y-69676729D01*
X130634440Y-69236730D01*
X130475690Y-69077980D01*
X129527000Y-69077980D01*
X129527000Y-69097980D01*
X129273000Y-69097980D01*
X129273000Y-69077980D01*
X128324310Y-69077980D01*
X128165560Y-69236730D01*
X128165560Y-69676729D01*
X128262233Y-69910118D01*
X128344445Y-69992331D01*
X128204129Y-70197690D01*
X128153120Y-70449580D01*
X120710000Y-70449580D01*
X120710000Y-68225231D01*
X128165560Y-68225231D01*
X128165560Y-68665230D01*
X128324310Y-68823980D01*
X129273000Y-68823980D01*
X129273000Y-67875290D01*
X129527000Y-67875290D01*
X129527000Y-68823980D01*
X130475690Y-68823980D01*
X130634440Y-68665230D01*
X130634440Y-68225231D01*
X130537767Y-67991842D01*
X130359139Y-67813213D01*
X130125750Y-67716540D01*
X129685750Y-67716540D01*
X129527000Y-67875290D01*
X129273000Y-67875290D01*
X129114250Y-67716540D01*
X128674250Y-67716540D01*
X128440861Y-67813213D01*
X128262233Y-67991842D01*
X128165560Y-68225231D01*
X120710000Y-68225231D01*
X120710000Y-66740910D01*
X121438695Y-66740910D01*
X121805640Y-67236343D01*
X123211171Y-67829736D01*
X124736793Y-67840087D01*
X126150246Y-67265819D01*
X126194360Y-67236343D01*
X126561305Y-66740910D01*
X126391036Y-66570641D01*
X131921400Y-66570641D01*
X131921400Y-66629359D01*
X132035474Y-67202848D01*
X132360330Y-67689029D01*
X132846511Y-68013885D01*
X133420000Y-68127959D01*
X133993489Y-68013885D01*
X134479670Y-67689029D01*
X134690000Y-67374248D01*
X134900330Y-67689029D01*
X135386511Y-68013885D01*
X135960000Y-68127959D01*
X136533489Y-68013885D01*
X137019670Y-67689029D01*
X137028805Y-67675358D01*
X137033238Y-67698917D01*
X137172310Y-67915041D01*
X137384510Y-68060031D01*
X137636400Y-68111040D01*
X139363600Y-68111040D01*
X139598917Y-68066762D01*
X139815041Y-67927690D01*
X139960031Y-67715490D01*
X140011040Y-67463600D01*
X140011040Y-66635963D01*
X150923642Y-66635963D01*
X151039806Y-66917658D01*
X151701333Y-67168062D01*
X152408329Y-67146249D01*
X152960194Y-66917658D01*
X153033080Y-66740910D01*
X163438695Y-66740910D01*
X163805640Y-67236343D01*
X165211171Y-67829736D01*
X166736793Y-67840087D01*
X168150246Y-67265819D01*
X168194360Y-67236343D01*
X168561305Y-66740910D01*
X166000000Y-64179605D01*
X163438695Y-66740910D01*
X153033080Y-66740910D01*
X153076358Y-66635963D01*
X152000000Y-65559605D01*
X150923642Y-66635963D01*
X140011040Y-66635963D01*
X140011040Y-65736400D01*
X139966762Y-65501083D01*
X139827690Y-65284959D01*
X139615490Y-65139969D01*
X139571655Y-65131092D01*
X139604902Y-65081333D01*
X150211938Y-65081333D01*
X150233751Y-65788329D01*
X150462342Y-66340194D01*
X150744037Y-66456358D01*
X151820395Y-65380000D01*
X152179605Y-65380000D01*
X153255963Y-66456358D01*
X153537658Y-66340194D01*
X153788062Y-65678667D01*
X153766249Y-64971671D01*
X153668959Y-64736793D01*
X162159913Y-64736793D01*
X162734181Y-66150246D01*
X162763657Y-66194360D01*
X163259090Y-66561305D01*
X165820395Y-64000000D01*
X163259090Y-61438695D01*
X162763657Y-61805640D01*
X162170264Y-63211171D01*
X162159913Y-64736793D01*
X153668959Y-64736793D01*
X153537658Y-64419806D01*
X153255963Y-64303642D01*
X152179605Y-65380000D01*
X151820395Y-65380000D01*
X150744037Y-64303642D01*
X150462342Y-64419806D01*
X150211938Y-65081333D01*
X139604902Y-65081333D01*
X139884526Y-64662848D01*
X139991702Y-64124037D01*
X150923642Y-64124037D01*
X152000000Y-65200395D01*
X153076358Y-64124037D01*
X152960194Y-63842342D01*
X152298667Y-63591938D01*
X151591671Y-63613751D01*
X151039806Y-63842342D01*
X150923642Y-64124037D01*
X139991702Y-64124037D01*
X139998600Y-64089359D01*
X139998600Y-64030641D01*
X139884526Y-63457152D01*
X139559670Y-62970971D01*
X139073489Y-62646115D01*
X138500000Y-62532041D01*
X137926511Y-62646115D01*
X137440330Y-62970971D01*
X137230000Y-63285752D01*
X137019670Y-62970971D01*
X136533489Y-62646115D01*
X135960000Y-62532041D01*
X135386511Y-62646115D01*
X134900330Y-62970971D01*
X134684336Y-63294228D01*
X134626821Y-63171510D01*
X134194947Y-62777312D01*
X133779026Y-62605042D01*
X133547000Y-62726183D01*
X133547000Y-63933000D01*
X133567000Y-63933000D01*
X133567000Y-64187000D01*
X133547000Y-64187000D01*
X133547000Y-64207000D01*
X133293000Y-64207000D01*
X133293000Y-64187000D01*
X132085531Y-64187000D01*
X131965032Y-64419027D01*
X132213179Y-64948490D01*
X132631161Y-65330008D01*
X132360330Y-65510971D01*
X132035474Y-65997152D01*
X131921400Y-66570641D01*
X126391036Y-66570641D01*
X124000000Y-64179605D01*
X121438695Y-66740910D01*
X120710000Y-66740910D01*
X120710000Y-66090729D01*
X120734181Y-66150246D01*
X120763657Y-66194360D01*
X121259090Y-66561305D01*
X123820395Y-64000000D01*
X124179605Y-64000000D01*
X126740910Y-66561305D01*
X127236343Y-66194360D01*
X127829736Y-64788829D01*
X127837116Y-63700973D01*
X131965032Y-63700973D01*
X132085531Y-63933000D01*
X133293000Y-63933000D01*
X133293000Y-62726183D01*
X133060974Y-62605042D01*
X132645053Y-62777312D01*
X132213179Y-63171510D01*
X131965032Y-63700973D01*
X127837116Y-63700973D01*
X127840087Y-63263207D01*
X127265819Y-61849754D01*
X127236343Y-61805640D01*
X126740910Y-61438695D01*
X124179605Y-64000000D01*
X123820395Y-64000000D01*
X121259090Y-61438695D01*
X120763657Y-61805640D01*
X120710000Y-61932734D01*
X120710000Y-60710000D01*
X121909271Y-60710000D01*
X121849754Y-60734181D01*
M02*
