%TF.GenerationSoftware,KiCad,Pcbnew,4.0.1-stable*%
%TF.CreationDate,2016-03-28T18:18:17+01:00*%
%TF.ProjectId,rc_power_sockets,72635F706F7765725F736F636B657473,rev?*%
%TF.FileFunction,Soldermask,Top*%
%FSLAX46Y46*%
G04 Gerber Fmt 4.6, Leading zero omitted, Abs format (unit mm)*
G04 Created by KiCad (PCBNEW 4.0.1-stable) date 28/03/2016 18:18:17*
%MOMM*%
G01*
G04 APERTURE LIST*
%ADD10C,0.100000*%
%ADD11C,2.686000*%
%ADD12R,1.543000X0.908000*%
%ADD13R,4.057600X2.432000*%
%ADD14R,1.416000X2.432000*%
%ADD15C,6.800000*%
%ADD16R,1.200100X2.200860*%
%ADD17R,2.200860X1.200100*%
%ADD18R,2.127200X2.432000*%
%ADD19O,2.127200X2.432000*%
%ADD20R,2.432000X2.127200*%
%ADD21O,2.432000X2.127200*%
%ADD22R,1.650000X1.900000*%
%ADD23R,1.900000X1.650000*%
%ADD24R,1.900000X1.700000*%
%ADD25C,2.398980*%
%ADD26R,2.127200X2.127200*%
%ADD27O,2.127200X2.127200*%
%ADD28R,1.700000X1.900000*%
%ADD29R,1.620000X1.310000*%
%ADD30R,2.432000X2.432000*%
%ADD31O,2.432000X2.432000*%
%ADD32C,4.800000*%
G04 APERTURE END LIST*
D10*
D11*
X152000000Y-65380000D03*
X152000000Y-88240000D03*
D12*
X148175000Y-82095000D03*
X148175000Y-83365000D03*
X148175000Y-84635000D03*
X148175000Y-85905000D03*
X141825000Y-85905000D03*
X141825000Y-84635000D03*
X141825000Y-83365000D03*
X141825000Y-82095000D03*
D11*
X137000000Y-104620000D03*
X137000000Y-81760000D03*
D13*
X157750000Y-63948000D03*
D14*
X157750000Y-70552000D03*
X160036000Y-70552000D03*
X155464000Y-70552000D03*
D15*
X166000000Y-64000000D03*
D16*
X151202000Y-99644860D03*
X149302000Y-99644860D03*
X150252000Y-102647140D03*
D17*
X129498860Y-97050000D03*
X129498860Y-98950000D03*
X132501140Y-98000000D03*
D18*
X147500000Y-94900000D03*
D19*
X144960000Y-94900000D03*
X142420000Y-94900000D03*
D20*
X123000000Y-88000000D03*
D21*
X123000000Y-85460000D03*
X123000000Y-82920000D03*
D22*
X152600000Y-71050000D03*
X152600000Y-68550000D03*
X162800000Y-70850000D03*
X162800000Y-68350000D03*
D23*
X147750000Y-79000000D03*
X150250000Y-79000000D03*
D24*
X154650000Y-99000000D03*
X157350000Y-99000000D03*
X132350000Y-94000000D03*
X129650000Y-94000000D03*
X154650000Y-103000000D03*
X157350000Y-103000000D03*
X140650000Y-79000000D03*
X143350000Y-79000000D03*
D25*
X166000000Y-96460000D03*
X166000000Y-93920000D03*
X166000000Y-99000000D03*
D26*
X138500000Y-66600000D03*
D27*
X138500000Y-64060000D03*
X135960000Y-66600000D03*
X135960000Y-64060000D03*
X133420000Y-66600000D03*
X133420000Y-64060000D03*
D20*
X167000000Y-83000000D03*
D21*
X167000000Y-85540000D03*
X167000000Y-88080000D03*
D15*
X166000000Y-106000000D03*
X124000000Y-106000000D03*
X124000000Y-64000000D03*
D28*
X131456000Y-69570000D03*
X131456000Y-72270000D03*
D29*
X159000000Y-95035000D03*
X159000000Y-91765000D03*
X156000000Y-95035000D03*
X156000000Y-91765000D03*
X137000000Y-90385000D03*
X137000000Y-87115000D03*
D30*
X134500000Y-75900000D03*
D31*
X137040000Y-75900000D03*
D32*
X130500000Y-85000000D03*
X159500000Y-85000000D03*
M02*
