%TF.GenerationSoftware,KiCad,Pcbnew,4.0.2-4+6225~38~ubuntu14.04.1-stable*%
%TF.CreationDate,2016-03-31T21:55:46+01:00*%
%TF.ProjectId,rc_power_sockets,72635F706F7765725F736F636B657473,rev?*%
%TF.FileFunction,Soldermask,Top*%
%FSLAX46Y46*%
G04 Gerber Fmt 4.6, Leading zero omitted, Abs format (unit mm)*
G04 Created by KiCad (PCBNEW 4.0.2-4+6225~38~ubuntu14.04.1-stable) date Thu 31 Mar 2016 21:55:46 BST*
%MOMM*%
G01*
G04 APERTURE LIST*
%ADD10C,0.100000*%
%ADD11R,2.432000X2.127200*%
%ADD12O,2.432000X2.127200*%
%ADD13C,2.686000*%
%ADD14R,1.543000X0.908000*%
%ADD15R,4.057600X2.432000*%
%ADD16R,1.416000X2.432000*%
%ADD17C,6.800000*%
%ADD18R,1.200100X2.200860*%
%ADD19R,2.127200X2.432000*%
%ADD20O,2.127200X2.432000*%
%ADD21R,1.900000X1.650000*%
%ADD22R,1.900000X1.700000*%
%ADD23R,1.700000X1.900000*%
%ADD24R,2.127200X2.127200*%
%ADD25O,2.127200X2.127200*%
%ADD26R,1.620000X1.310000*%
%ADD27R,1.310000X1.620000*%
%ADD28R,2.432000X2.432000*%
%ADD29O,2.432000X2.432000*%
%ADD30C,4.800000*%
%ADD31R,1.797000X1.797000*%
%ADD32C,1.797000*%
G04 APERTURE END LIST*
D10*
D11*
X167820000Y-99980000D03*
D12*
X167820000Y-97440000D03*
X167820000Y-94900000D03*
D13*
X152000000Y-68000000D03*
X152000000Y-88240000D03*
X137000000Y-102000000D03*
X137000000Y-81760000D03*
D14*
X148175000Y-82095000D03*
X148175000Y-83365000D03*
X148175000Y-84635000D03*
X148175000Y-85905000D03*
X141825000Y-85905000D03*
X141825000Y-84635000D03*
X141825000Y-83365000D03*
X141825000Y-82095000D03*
D15*
X157750000Y-63948000D03*
D16*
X157750000Y-70552000D03*
X160036000Y-70552000D03*
X155464000Y-70552000D03*
D17*
X166000000Y-64000000D03*
D18*
X144150000Y-102198860D03*
X142250000Y-102198860D03*
X143200000Y-105201140D03*
X125450000Y-94398860D03*
X123550000Y-94398860D03*
X124500000Y-97401140D03*
D19*
X142420000Y-94900000D03*
D20*
X144960000Y-94900000D03*
X147500000Y-94900000D03*
D11*
X122100000Y-82200000D03*
D12*
X122100000Y-84740000D03*
X122100000Y-87280000D03*
D21*
X152450000Y-71500000D03*
X149950000Y-71500000D03*
X162750000Y-70600000D03*
X165250000Y-70600000D03*
X148150000Y-79700000D03*
X150650000Y-79700000D03*
D22*
X147050000Y-101900000D03*
X149750000Y-101900000D03*
D23*
X128000000Y-97250000D03*
X128000000Y-94550000D03*
D22*
X147050000Y-105100000D03*
X149750000Y-105100000D03*
X140150000Y-79650000D03*
X142850000Y-79650000D03*
D24*
X137340000Y-66960000D03*
D25*
X137340000Y-64420000D03*
X134800000Y-66960000D03*
X134800000Y-64420000D03*
X132260000Y-66960000D03*
X132260000Y-64420000D03*
D11*
X167820000Y-87280000D03*
D12*
X167820000Y-84740000D03*
X167820000Y-82200000D03*
D17*
X166000000Y-106000000D03*
X124000000Y-106000000D03*
X124000000Y-64000000D03*
D26*
X157000000Y-104935000D03*
X157000000Y-101665000D03*
D27*
X158635000Y-98900000D03*
X155365000Y-98900000D03*
D26*
X137000000Y-90385000D03*
X137000000Y-87115000D03*
D28*
X122100000Y-72040000D03*
D29*
X122100000Y-74580000D03*
D30*
X130500000Y-85000000D03*
X159500000Y-85000000D03*
D31*
X134800000Y-72040000D03*
D32*
X132260000Y-72040000D03*
X129720000Y-72040000D03*
M02*
