M48
;DRILL file {KiCad 4.0.1-stable} date 03/04/2016 10:00:33
;FORMAT={-:-/ absolute / metric / decimal}
FMAT,2
METRIC,TZ
T1C0.400
T2C0.813
T3C1.016
T4C2.200
T5C3.200
%
G90
G05
M71
T1
X130.6Y-94.5
X133.4Y-105.7
X139.245Y-84.613
X143.56Y-83.37
X144.Y-75.492
X144.5Y-85.9
X145.426Y-77.27
X145.426Y-84.636
X146.696Y-83.366
X155.465Y-73.92
X155.8Y-66.2
X155.8Y-67.4
X157.Y-66.2
X157.Y-67.4
X158.4Y-66.2
X158.4Y-67.4
X159.6Y-66.2
X159.6Y-67.4
X162.4Y-89.1
X165.28Y-91.471
T2
X129.72Y-72.04
X132.26Y-72.04
X134.8Y-72.04
T3
X122.1Y-72.04
X122.1Y-74.58
X122.1Y-82.2
X122.1Y-84.74
X122.1Y-87.28
X132.26Y-64.42
X132.26Y-66.96
X134.8Y-64.42
X134.8Y-66.96
X137.Y-81.76
X137.Y-102.
X137.34Y-64.42
X137.34Y-66.96
X142.42Y-94.9
X144.96Y-94.9
X147.5Y-94.9
X152.Y-68.
X152.Y-88.24
X167.82Y-82.2
X167.82Y-84.74
X167.82Y-87.28
X167.82Y-94.9
X167.82Y-97.44
X167.82Y-99.98
T4
X130.5Y-85.
X159.5Y-85.
T5
X124.Y-64.
X124.Y-106.
X166.Y-64.
X166.Y-106.
T0
M30
