G04 #@! TF.FileFunction,Soldermask,Top*
%FSLAX46Y46*%
G04 Gerber Fmt 4.6, Leading zero omitted, Abs format (unit mm)*
G04 Created by KiCad (PCBNEW 4.0.1-stable) date 10/08/2016 20:55:18*
%MOMM*%
G01*
G04 APERTURE LIST*
%ADD10C,0.100000*%
%ADD11R,2.686000X1.000000*%
%ADD12R,2.400000X1.620000*%
%ADD13R,2.432000X2.127200*%
%ADD14O,2.432000X2.127200*%
%ADD15C,2.686000*%
%ADD16R,4.057600X2.432000*%
%ADD17R,1.416000X2.432000*%
%ADD18C,6.800000*%
%ADD19R,1.200100X2.200860*%
%ADD20R,2.127200X2.432000*%
%ADD21O,2.127200X2.432000*%
%ADD22R,1.900000X1.650000*%
%ADD23R,1.900000X1.700000*%
%ADD24R,1.700000X1.900000*%
%ADD25R,2.127200X2.127200*%
%ADD26O,2.127200X2.127200*%
%ADD27R,2.432000X2.432000*%
%ADD28O,2.432000X2.432000*%
%ADD29C,4.800000*%
%ADD30R,1.797000X1.797000*%
%ADD31C,1.797000*%
%ADD32R,1.620000X2.400000*%
G04 APERTURE END LIST*
D10*
D11*
X148556000Y-82095000D03*
X148556000Y-83365000D03*
X148556000Y-84635000D03*
X148556000Y-85905000D03*
X141444000Y-85905000D03*
X141444000Y-84635000D03*
X141444000Y-83365000D03*
X141444000Y-82095000D03*
D12*
X159031600Y-96805000D03*
X154764400Y-96805000D03*
D13*
X167820000Y-99980000D03*
D14*
X167820000Y-97440000D03*
X167820000Y-94900000D03*
D15*
X152000000Y-68000000D03*
X152000000Y-88240000D03*
X137000000Y-102000000D03*
X137000000Y-81760000D03*
D16*
X157750000Y-63948000D03*
D17*
X157750000Y-70552000D03*
X160036000Y-70552000D03*
X155464000Y-70552000D03*
D18*
X166000000Y-64000000D03*
D19*
X144150000Y-102198860D03*
X142250000Y-102198860D03*
X143200000Y-105201140D03*
X125450000Y-94398860D03*
X123550000Y-94398860D03*
X124500000Y-97401140D03*
D20*
X142420000Y-94900000D03*
D21*
X144960000Y-94900000D03*
X147500000Y-94900000D03*
D13*
X122100000Y-82200000D03*
D14*
X122100000Y-84740000D03*
X122100000Y-87280000D03*
D22*
X152450000Y-71500000D03*
X149950000Y-71500000D03*
X162750000Y-70600000D03*
X165250000Y-70600000D03*
X148150000Y-79700000D03*
X150650000Y-79700000D03*
D23*
X147050000Y-101900000D03*
X149750000Y-101900000D03*
D24*
X128000000Y-97250000D03*
X128000000Y-94550000D03*
D23*
X147050000Y-105100000D03*
X149750000Y-105100000D03*
X140150000Y-79650000D03*
X142850000Y-79650000D03*
D25*
X137340000Y-66960000D03*
D26*
X137340000Y-64420000D03*
X134800000Y-66960000D03*
X134800000Y-64420000D03*
X132260000Y-66960000D03*
X132260000Y-64420000D03*
D13*
X167820000Y-87280000D03*
D14*
X167820000Y-84740000D03*
X167820000Y-82200000D03*
D18*
X166000000Y-106000000D03*
X124000000Y-106000000D03*
X124000000Y-64000000D03*
D27*
X122100000Y-72040000D03*
D28*
X122100000Y-74580000D03*
D29*
X130500000Y-85000000D03*
X159500000Y-85000000D03*
D30*
X134800000Y-72040000D03*
D31*
X132260000Y-72040000D03*
X129720000Y-72040000D03*
D32*
X157000000Y-105433600D03*
X157000000Y-101166400D03*
X136959000Y-92360000D03*
X136959000Y-88092800D03*
M02*
