%TF.GenerationSoftware,KiCad,Pcbnew,4.0.2-4+6225~38~ubuntu14.04.1-stable*%
%TF.CreationDate,2016-03-31T21:55:46+01:00*%
%TF.ProjectId,rc_power_sockets,72635F706F7765725F736F636B657473,rev?*%
%TF.FileFunction,Copper,L1,Top,Signal*%
%FSLAX46Y46*%
G04 Gerber Fmt 4.6, Leading zero omitted, Abs format (unit mm)*
G04 Created by KiCad (PCBNEW 4.0.2-4+6225~38~ubuntu14.04.1-stable) date Thu 31 Mar 2016 21:55:46 BST*
%MOMM*%
G01*
G04 APERTURE LIST*
%ADD10C,0.100000*%
%ADD11R,2.032000X1.727200*%
%ADD12O,2.032000X1.727200*%
%ADD13C,2.286000*%
%ADD14R,1.143000X0.508000*%
%ADD15R,3.657600X2.032000*%
%ADD16R,1.016000X2.032000*%
%ADD17C,6.400000*%
%ADD18R,0.800100X1.800860*%
%ADD19R,1.727200X2.032000*%
%ADD20O,1.727200X2.032000*%
%ADD21R,1.500000X1.250000*%
%ADD22R,1.500000X1.300000*%
%ADD23R,1.300000X1.500000*%
%ADD24R,1.727200X1.727200*%
%ADD25O,1.727200X1.727200*%
%ADD26R,1.220000X0.910000*%
%ADD27R,0.910000X1.220000*%
%ADD28R,2.032000X2.032000*%
%ADD29O,2.032000X2.032000*%
%ADD30C,4.400000*%
%ADD31R,1.397000X1.397000*%
%ADD32C,1.397000*%
%ADD33C,0.750000*%
%ADD34C,0.406000*%
%ADD35C,0.813000*%
%ADD36C,0.254000*%
G04 APERTURE END LIST*
D10*
D11*
X167820000Y-99980000D03*
D12*
X167820000Y-97440000D03*
X167820000Y-94900000D03*
D13*
X152000000Y-68000000D03*
X152000000Y-88240000D03*
X137000000Y-102000000D03*
X137000000Y-81760000D03*
D14*
X148175000Y-82095000D03*
X148175000Y-83365000D03*
X148175000Y-84635000D03*
X148175000Y-85905000D03*
X141825000Y-85905000D03*
X141825000Y-84635000D03*
X141825000Y-83365000D03*
X141825000Y-82095000D03*
D15*
X157750000Y-63948000D03*
D16*
X157750000Y-70552000D03*
X160036000Y-70552000D03*
X155464000Y-70552000D03*
D17*
X166000000Y-64000000D03*
D18*
X144150000Y-102198860D03*
X142250000Y-102198860D03*
X143200000Y-105201140D03*
X125450000Y-94398860D03*
X123550000Y-94398860D03*
X124500000Y-97401140D03*
D19*
X142420000Y-94900000D03*
D20*
X144960000Y-94900000D03*
X147500000Y-94900000D03*
D11*
X122100000Y-82200000D03*
D12*
X122100000Y-84740000D03*
X122100000Y-87280000D03*
D21*
X152450000Y-71500000D03*
X149950000Y-71500000D03*
X162750000Y-70600000D03*
X165250000Y-70600000D03*
X148150000Y-79700000D03*
X150650000Y-79700000D03*
D22*
X147050000Y-101900000D03*
X149750000Y-101900000D03*
D23*
X128000000Y-97250000D03*
X128000000Y-94550000D03*
D22*
X147050000Y-105100000D03*
X149750000Y-105100000D03*
X140150000Y-79650000D03*
X142850000Y-79650000D03*
D24*
X137340000Y-66960000D03*
D25*
X137340000Y-64420000D03*
X134800000Y-66960000D03*
X134800000Y-64420000D03*
X132260000Y-66960000D03*
X132260000Y-64420000D03*
D11*
X167820000Y-87280000D03*
D12*
X167820000Y-84740000D03*
X167820000Y-82200000D03*
D17*
X166000000Y-106000000D03*
X124000000Y-106000000D03*
X124000000Y-64000000D03*
D26*
X157000000Y-104935000D03*
X157000000Y-101665000D03*
D27*
X158635000Y-98900000D03*
X155365000Y-98900000D03*
D26*
X137000000Y-90385000D03*
X137000000Y-87115000D03*
D28*
X122100000Y-72040000D03*
D29*
X122100000Y-74580000D03*
D30*
X130500000Y-85000000D03*
X159500000Y-85000000D03*
D31*
X134800000Y-72040000D03*
D32*
X132260000Y-72040000D03*
X129720000Y-72040000D03*
D33*
X155800000Y-66200000D03*
X155800000Y-67400000D03*
X159600000Y-67400000D03*
X159600000Y-66200000D03*
X157000000Y-67400000D03*
X157000000Y-66200000D03*
X158400000Y-66200000D03*
X158400000Y-67400000D03*
X144000000Y-75492000D03*
X146696000Y-83366000D03*
X145426000Y-84636000D03*
X145426000Y-77270000D03*
X165280000Y-91471000D03*
X139245000Y-84613000D03*
X144500000Y-85900000D03*
X162400000Y-89100000D03*
X143560000Y-83370000D03*
X155464800Y-73919600D03*
X133400000Y-105700000D03*
X130600000Y-94500000D03*
D34*
X141825000Y-85905000D02*
X140620000Y-85905000D01*
X134177000Y-88677000D02*
X130500000Y-85000000D01*
X138864000Y-88677000D02*
X134177000Y-88677000D01*
X139880000Y-87661000D02*
X138864000Y-88677000D01*
X139880000Y-86645000D02*
X139880000Y-87661000D01*
X140620000Y-85905000D02*
X139880000Y-86645000D01*
X142420000Y-94900000D02*
X142420000Y-102028860D01*
X142420000Y-102028860D02*
X142250000Y-102198860D01*
X149750000Y-105100000D02*
X149750000Y-107250000D01*
X163400000Y-108600000D02*
X166000000Y-106000000D01*
X151100000Y-108600000D02*
X163400000Y-108600000D01*
X149750000Y-107250000D02*
X151100000Y-108600000D01*
X149950000Y-71500000D02*
X149950000Y-70050000D01*
X149950000Y-70050000D02*
X152000000Y-68000000D01*
X157750000Y-70552000D02*
X157750000Y-76350000D01*
X154400000Y-79700000D02*
X150650000Y-79700000D01*
X157750000Y-76350000D02*
X154400000Y-79700000D01*
X157750000Y-63948000D02*
X154452000Y-63948000D01*
X154000000Y-66000000D02*
X152000000Y-68000000D01*
X154000000Y-64400000D02*
X154000000Y-66000000D01*
X154452000Y-63948000D02*
X154000000Y-64400000D01*
X165250000Y-70600000D02*
X165250000Y-69250000D01*
X164400000Y-68400000D02*
X157800000Y-68400000D01*
X157800000Y-68400000D02*
X157750000Y-68400000D01*
X165250000Y-69250000D02*
X164400000Y-68400000D01*
X157000000Y-66200000D02*
X155800000Y-66200000D01*
X158400000Y-66200000D02*
X159600000Y-66200000D01*
X157750000Y-67400000D02*
X157000000Y-67400000D01*
X157000000Y-66200000D02*
X158400000Y-66200000D01*
X158400000Y-67400000D02*
X157750000Y-67400000D01*
X157750000Y-63948000D02*
X156952000Y-63948000D01*
X157750000Y-63948000D02*
X158252000Y-63948000D01*
X157750000Y-63948000D02*
X156848000Y-63948000D01*
X157750000Y-70552000D02*
X157750000Y-68400000D01*
X157750000Y-68400000D02*
X157750000Y-68600000D01*
X157750000Y-67700000D02*
X157750000Y-67400000D01*
X157750000Y-68600000D02*
X157750000Y-67700000D01*
X157750000Y-67400000D02*
X157750000Y-63948000D01*
X144960000Y-94900000D02*
X144960000Y-96860000D01*
X153665000Y-101665000D02*
X157000000Y-101665000D01*
X150200000Y-98200000D02*
X153665000Y-101665000D01*
X146300000Y-98200000D02*
X150200000Y-98200000D01*
X144960000Y-96860000D02*
X146300000Y-98200000D01*
X148175000Y-83365000D02*
X152365000Y-83365000D01*
X157000000Y-88000000D02*
X157000000Y-101665000D01*
X152365000Y-83365000D02*
X157000000Y-88000000D01*
X134690000Y-66854000D02*
X134690000Y-66690000D01*
X144000000Y-72000000D02*
X144000000Y-75492000D01*
X140600000Y-68600000D02*
X144000000Y-72000000D01*
X136600000Y-68600000D02*
X140600000Y-68600000D01*
X134690000Y-66690000D02*
X136600000Y-68600000D01*
X148175000Y-83365000D02*
X146697000Y-83365000D01*
X146697000Y-83365000D02*
X146696000Y-83366000D01*
X156000000Y-91300000D02*
X156000000Y-95200000D01*
X155365000Y-95835000D02*
X155365000Y-98900000D01*
X156000000Y-95200000D02*
X155365000Y-95835000D01*
X137230000Y-66854000D02*
X140654000Y-66854000D01*
X145427000Y-84635000D02*
X145426000Y-84636000D01*
X145426000Y-77270000D02*
X145426000Y-75238000D01*
X145427000Y-84635000D02*
X148175000Y-84635000D01*
X145426000Y-71626000D02*
X145426000Y-75238000D01*
X140654000Y-66854000D02*
X145426000Y-71626000D01*
X148175000Y-84635000D02*
X152235000Y-84635000D01*
X152235000Y-84635000D02*
X156000000Y-88400000D01*
X156000000Y-88400000D02*
X156000000Y-91300000D01*
X156000000Y-91300000D02*
X156000000Y-91365000D01*
X132150000Y-66854000D02*
X132150000Y-66800000D01*
X140150000Y-71050000D02*
X140150000Y-79650000D01*
X138619000Y-69519000D02*
X140150000Y-71050000D01*
X134869000Y-69519000D02*
X138619000Y-69519000D01*
X132150000Y-66800000D02*
X134869000Y-69519000D01*
X141825000Y-82095000D02*
X140555000Y-82095000D01*
X140150000Y-81690000D02*
X140150000Y-79650000D01*
X140555000Y-82095000D02*
X140150000Y-81690000D01*
X167820000Y-82200000D02*
X166423000Y-82200000D01*
X165280000Y-83343000D02*
X165280000Y-91471000D01*
X166423000Y-82200000D02*
X165280000Y-83343000D01*
X141825000Y-84635000D02*
X139267000Y-84635000D01*
X139267000Y-84635000D02*
X139245000Y-84613000D01*
X144505000Y-85905000D02*
X148175000Y-85905000D01*
X144500000Y-85900000D02*
X144505000Y-85905000D01*
X162400000Y-89100000D02*
X162400000Y-94560000D01*
X143555000Y-83365000D02*
X143560000Y-83370000D01*
X141825000Y-83365000D02*
X143555000Y-83365000D01*
X165280000Y-97440000D02*
X167820000Y-97440000D01*
X162400000Y-94560000D02*
X165280000Y-97440000D01*
D35*
X152450000Y-71500000D02*
X152450000Y-73440000D01*
X140896000Y-64420000D02*
X137340000Y-64420000D01*
X147246000Y-70770000D02*
X140896000Y-64420000D01*
X147246000Y-72548000D02*
X147246000Y-70770000D01*
X149024000Y-74326000D02*
X147246000Y-72548000D01*
X151564000Y-74326000D02*
X149024000Y-74326000D01*
X152450000Y-73440000D02*
X151564000Y-74326000D01*
X137340000Y-64420000D02*
X137340000Y-62896000D01*
X137340000Y-62896000D02*
X136324000Y-61880000D01*
X136324000Y-61880000D02*
X130355000Y-61880000D01*
X130355000Y-61880000D02*
X129212000Y-63023000D01*
X129212000Y-63023000D02*
X129212000Y-66706000D01*
X129212000Y-66706000D02*
X126000000Y-69918000D01*
X126000000Y-69918000D02*
X126000000Y-81400000D01*
X122100000Y-84740000D02*
X126000000Y-84740000D01*
X126000000Y-84740000D02*
X126000000Y-84698000D01*
X155464000Y-70552000D02*
X155464000Y-73918800D01*
X155464000Y-73918800D02*
X155464800Y-73919600D01*
X152450000Y-71500000D02*
X152500000Y-71500000D01*
X152500000Y-71500000D02*
X153448000Y-70552000D01*
X153448000Y-70552000D02*
X155464000Y-70552000D01*
X155500000Y-70588000D02*
X155464000Y-70552000D01*
X126000000Y-84698000D02*
X126000000Y-89900000D01*
X123550000Y-92350000D02*
X123550000Y-94398860D01*
X126000000Y-89900000D02*
X123550000Y-92350000D01*
X126000000Y-84698000D02*
X126000000Y-84838000D01*
X126000000Y-84838000D02*
X126000000Y-81400000D01*
X126000000Y-81400000D02*
X126000000Y-81000000D01*
X162750000Y-70600000D02*
X162750000Y-77638000D01*
X165534000Y-94900000D02*
X167820000Y-94900000D01*
X163883000Y-93249000D02*
X165534000Y-94900000D01*
X163883000Y-78771000D02*
X163883000Y-93249000D01*
X162750000Y-77638000D02*
X163883000Y-78771000D01*
X142850000Y-79650000D02*
X148100000Y-79650000D01*
X148100000Y-79650000D02*
X148150000Y-79700000D01*
X148175000Y-82095000D02*
X148175000Y-79925000D01*
X148175000Y-79925000D02*
X148150000Y-79900000D01*
X160036000Y-70552000D02*
X160036000Y-78564000D01*
X156505000Y-82095000D02*
X148175000Y-82095000D01*
X160036000Y-78564000D02*
X156505000Y-82095000D01*
X162750000Y-70550000D02*
X160034000Y-70550000D01*
X160034000Y-70550000D02*
X160036000Y-70552000D01*
D34*
X147050000Y-101900000D02*
X144448860Y-101900000D01*
X144448860Y-101900000D02*
X144150000Y-102198860D01*
X147050000Y-105100000D02*
X147050000Y-101900000D01*
X128000000Y-94550000D02*
X130550000Y-94550000D01*
X143200000Y-106900000D02*
X143200000Y-105201140D01*
X142400000Y-107700000D02*
X143200000Y-106900000D01*
X135400000Y-107700000D02*
X142400000Y-107700000D01*
X133400000Y-105700000D02*
X135400000Y-107700000D01*
X130550000Y-94550000D02*
X130600000Y-94500000D01*
X125450000Y-94398860D02*
X127848860Y-94398860D01*
X127848860Y-94398860D02*
X128000000Y-94550000D01*
X157000000Y-104935000D02*
X154635000Y-104935000D01*
X151600000Y-101900000D02*
X149750000Y-101900000D01*
X154635000Y-104935000D02*
X151600000Y-101900000D01*
X158635000Y-98900000D02*
X159900000Y-98900000D01*
X159165000Y-104935000D02*
X157000000Y-104935000D01*
X160600000Y-103500000D02*
X159165000Y-104935000D01*
X160600000Y-99600000D02*
X160600000Y-103500000D01*
X159900000Y-98900000D02*
X160600000Y-99600000D01*
D35*
X137000000Y-90385000D02*
X137000000Y-94986000D01*
X134736000Y-97250000D02*
X128000000Y-97250000D01*
X137000000Y-94986000D02*
X134736000Y-97250000D01*
X147500000Y-94900000D02*
X147500000Y-93376000D01*
X146484000Y-92360000D02*
X137000000Y-92360000D01*
X147500000Y-93376000D02*
X146484000Y-92360000D01*
X137000000Y-90385000D02*
X137000000Y-92360000D01*
X124500000Y-97401140D02*
X127848860Y-97401140D01*
X127848860Y-97401140D02*
X128000000Y-97250000D01*
X134800000Y-72040000D02*
X134800000Y-79560000D01*
X134800000Y-79560000D02*
X137000000Y-81760000D01*
X137000000Y-87115000D02*
X137000000Y-85588000D01*
X132260000Y-80848000D02*
X132260000Y-72040000D01*
X137000000Y-85588000D02*
X132260000Y-80848000D01*
D36*
G36*
X161535910Y-71676441D02*
X161708500Y-71794367D01*
X161708500Y-77638000D01*
X161787779Y-78036565D01*
X162013548Y-78374452D01*
X162841500Y-79202404D01*
X162841500Y-88189715D01*
X162601783Y-88090176D01*
X162199980Y-88089825D01*
X161828628Y-88243264D01*
X161544263Y-88527134D01*
X161390176Y-88898217D01*
X161389825Y-89300020D01*
X161543264Y-89671372D01*
X161562000Y-89690141D01*
X161562000Y-94560000D01*
X161625789Y-94880689D01*
X161746129Y-95060789D01*
X161807445Y-95152555D01*
X164687444Y-98032555D01*
X164844643Y-98137592D01*
X164959311Y-98214211D01*
X165280000Y-98278000D01*
X166427470Y-98278000D01*
X166575585Y-98499670D01*
X166597780Y-98514500D01*
X166444302Y-98578073D01*
X166265673Y-98756701D01*
X166169000Y-98990090D01*
X166169000Y-99694250D01*
X166327750Y-99853000D01*
X167693000Y-99853000D01*
X167693000Y-99833000D01*
X167947000Y-99833000D01*
X167947000Y-99853000D01*
X167967000Y-99853000D01*
X167967000Y-100107000D01*
X167947000Y-100107000D01*
X167947000Y-101319850D01*
X168105750Y-101478600D01*
X168962309Y-101478600D01*
X169195698Y-101381927D01*
X169290000Y-101287626D01*
X169290000Y-103909271D01*
X169265819Y-103849754D01*
X169236343Y-103805640D01*
X168740910Y-103438695D01*
X166179605Y-106000000D01*
X168740910Y-108561305D01*
X169236343Y-108194360D01*
X169290000Y-108067266D01*
X169290000Y-109290000D01*
X168090729Y-109290000D01*
X168150246Y-109265819D01*
X168194360Y-109236343D01*
X168561305Y-108740910D01*
X166000000Y-106179605D01*
X163438695Y-108740910D01*
X163805640Y-109236343D01*
X163932734Y-109290000D01*
X126090729Y-109290000D01*
X126150246Y-109265819D01*
X126194360Y-109236343D01*
X126561305Y-108740910D01*
X124000000Y-106179605D01*
X121438695Y-108740910D01*
X121805640Y-109236343D01*
X121932734Y-109290000D01*
X120710000Y-109290000D01*
X120710000Y-108090729D01*
X120734181Y-108150246D01*
X120763657Y-108194360D01*
X121259090Y-108561305D01*
X123820395Y-106000000D01*
X124179605Y-106000000D01*
X126740910Y-108561305D01*
X127236343Y-108194360D01*
X127829736Y-106788829D01*
X127840087Y-105263207D01*
X127265819Y-103849754D01*
X127236343Y-103805640D01*
X126740910Y-103438695D01*
X124179605Y-106000000D01*
X123820395Y-106000000D01*
X121259090Y-103438695D01*
X120763657Y-103805640D01*
X120710000Y-103932734D01*
X120710000Y-103259090D01*
X121438695Y-103259090D01*
X124000000Y-105820395D01*
X126561305Y-103259090D01*
X126194360Y-102763657D01*
X125219566Y-102352114D01*
X135221692Y-102352114D01*
X135491806Y-103005840D01*
X135991529Y-103506436D01*
X136644782Y-103777691D01*
X137352114Y-103778308D01*
X138005840Y-103508194D01*
X138506436Y-103008471D01*
X138723962Y-102484610D01*
X141214950Y-102484610D01*
X141214950Y-103225600D01*
X141311623Y-103458989D01*
X141490252Y-103637617D01*
X141723641Y-103734290D01*
X141964250Y-103734290D01*
X142123000Y-103575540D01*
X142123000Y-102325860D01*
X141373700Y-102325860D01*
X141214950Y-102484610D01*
X138723962Y-102484610D01*
X138777691Y-102355218D01*
X138778308Y-101647886D01*
X138581726Y-101172120D01*
X141214950Y-101172120D01*
X141214950Y-101913110D01*
X141373700Y-102071860D01*
X142123000Y-102071860D01*
X142123000Y-100822180D01*
X141964250Y-100663430D01*
X141723641Y-100663430D01*
X141490252Y-100760103D01*
X141311623Y-100938731D01*
X141214950Y-101172120D01*
X138581726Y-101172120D01*
X138508194Y-100994160D01*
X138008471Y-100493564D01*
X137355218Y-100222309D01*
X136647886Y-100221692D01*
X135994160Y-100491806D01*
X135493564Y-100991529D01*
X135222309Y-101644782D01*
X135221692Y-102352114D01*
X125219566Y-102352114D01*
X124788829Y-102170264D01*
X123263207Y-102159913D01*
X121849754Y-102734181D01*
X121805640Y-102763657D01*
X121438695Y-103259090D01*
X120710000Y-103259090D01*
X120710000Y-88121787D01*
X120855585Y-88339670D01*
X121341766Y-88664526D01*
X121915255Y-88778600D01*
X122284745Y-88778600D01*
X122858234Y-88664526D01*
X123344415Y-88339670D01*
X123669271Y-87853489D01*
X123783345Y-87280000D01*
X123669271Y-86706511D01*
X123344415Y-86220330D01*
X123029634Y-86010000D01*
X123344415Y-85799670D01*
X123356556Y-85781500D01*
X124958500Y-85781500D01*
X124958500Y-89468596D01*
X122813548Y-91613548D01*
X122587779Y-91951435D01*
X122508500Y-92350000D01*
X122508500Y-93468850D01*
X122502510Y-93498430D01*
X122502510Y-95299290D01*
X122546788Y-95534607D01*
X122685860Y-95750731D01*
X122898060Y-95895721D01*
X123149950Y-95946730D01*
X123788202Y-95946730D01*
X123648509Y-96036620D01*
X123503519Y-96248820D01*
X123452510Y-96500710D01*
X123452510Y-98301570D01*
X123496788Y-98536887D01*
X123635860Y-98753011D01*
X123848060Y-98898001D01*
X124099950Y-98949010D01*
X124900050Y-98949010D01*
X125135367Y-98904732D01*
X125351491Y-98765660D01*
X125496481Y-98553460D01*
X125518923Y-98442640D01*
X126880247Y-98442640D01*
X126885910Y-98451441D01*
X127098110Y-98596431D01*
X127350000Y-98647440D01*
X128650000Y-98647440D01*
X128885317Y-98603162D01*
X129101441Y-98464090D01*
X129219367Y-98291500D01*
X134736000Y-98291500D01*
X135134565Y-98212221D01*
X135472452Y-97986452D01*
X137736449Y-95722454D01*
X137736452Y-95722452D01*
X137962221Y-95384565D01*
X137966892Y-95361081D01*
X138001767Y-95185750D01*
X140921400Y-95185750D01*
X140921400Y-96042310D01*
X141018073Y-96275699D01*
X141196702Y-96454327D01*
X141430091Y-96551000D01*
X142134250Y-96551000D01*
X142293000Y-96392250D01*
X142293000Y-95027000D01*
X141080150Y-95027000D01*
X140921400Y-95185750D01*
X138001767Y-95185750D01*
X138041501Y-94986000D01*
X138041500Y-94985995D01*
X138041500Y-93401500D01*
X141140875Y-93401500D01*
X141018073Y-93524301D01*
X140921400Y-93757690D01*
X140921400Y-94614250D01*
X141080150Y-94773000D01*
X142293000Y-94773000D01*
X142293000Y-94753000D01*
X142547000Y-94753000D01*
X142547000Y-94773000D01*
X142567000Y-94773000D01*
X142567000Y-95027000D01*
X142547000Y-95027000D01*
X142547000Y-96392250D01*
X142705750Y-96551000D01*
X143409909Y-96551000D01*
X143643298Y-96454327D01*
X143821927Y-96275699D01*
X143885500Y-96122220D01*
X143900330Y-96144415D01*
X144122000Y-96292530D01*
X144122000Y-96860000D01*
X144185789Y-97180689D01*
X144359056Y-97440000D01*
X144367445Y-97452555D01*
X145707444Y-98792555D01*
X145941595Y-98949010D01*
X145979311Y-98974211D01*
X146300000Y-99038000D01*
X149852890Y-99038000D01*
X151980933Y-101166043D01*
X151920689Y-101125789D01*
X151600000Y-101062000D01*
X151112065Y-101062000D01*
X151103162Y-101014683D01*
X150964090Y-100798559D01*
X150751890Y-100653569D01*
X150500000Y-100602560D01*
X149000000Y-100602560D01*
X148764683Y-100646838D01*
X148548559Y-100785910D01*
X148403569Y-100998110D01*
X148400919Y-101011197D01*
X148264090Y-100798559D01*
X148051890Y-100653569D01*
X147800000Y-100602560D01*
X146300000Y-100602560D01*
X146064683Y-100646838D01*
X145848559Y-100785910D01*
X145703569Y-100998110D01*
X145690631Y-101062000D01*
X145152496Y-101062000D01*
X145014140Y-100846989D01*
X144801940Y-100701999D01*
X144550050Y-100650990D01*
X143749950Y-100650990D01*
X143514633Y-100695268D01*
X143298509Y-100834340D01*
X143203023Y-100974089D01*
X143188377Y-100938731D01*
X143009748Y-100760103D01*
X142776359Y-100663430D01*
X142535750Y-100663430D01*
X142377000Y-100822180D01*
X142377000Y-102071860D01*
X142397000Y-102071860D01*
X142397000Y-102325860D01*
X142377000Y-102325860D01*
X142377000Y-103575540D01*
X142524703Y-103723243D01*
X142348509Y-103836620D01*
X142203519Y-104048820D01*
X142152510Y-104300710D01*
X142152510Y-106101570D01*
X142196788Y-106336887D01*
X142335860Y-106553011D01*
X142351317Y-106563572D01*
X142052890Y-106862000D01*
X135747111Y-106862000D01*
X134410153Y-105525043D01*
X134410175Y-105499980D01*
X134256736Y-105128628D01*
X133972866Y-104844263D01*
X133601783Y-104690176D01*
X133199980Y-104689825D01*
X132828628Y-104843264D01*
X132544263Y-105127134D01*
X132390176Y-105498217D01*
X132389825Y-105900020D01*
X132543264Y-106271372D01*
X132827134Y-106555737D01*
X133198217Y-106709824D01*
X133224737Y-106709847D01*
X134807444Y-108292555D01*
X135079311Y-108474211D01*
X135400000Y-108538000D01*
X142400000Y-108538000D01*
X142720689Y-108474211D01*
X142992555Y-108292555D01*
X143792556Y-107492555D01*
X143901450Y-107329583D01*
X143974211Y-107220689D01*
X144038000Y-106900000D01*
X144038000Y-106736793D01*
X162159913Y-106736793D01*
X162734181Y-108150246D01*
X162763657Y-108194360D01*
X163259090Y-108561305D01*
X165820395Y-106000000D01*
X163259090Y-103438695D01*
X162763657Y-103805640D01*
X162170264Y-105211171D01*
X162159913Y-106736793D01*
X144038000Y-106736793D01*
X144038000Y-106574341D01*
X144051491Y-106565660D01*
X144196481Y-106353460D01*
X144247490Y-106101570D01*
X144247490Y-104300710D01*
X144203212Y-104065393D01*
X144064140Y-103849269D01*
X143914069Y-103746730D01*
X144550050Y-103746730D01*
X144785367Y-103702452D01*
X145001491Y-103563380D01*
X145146481Y-103351180D01*
X145197490Y-103099290D01*
X145197490Y-102738000D01*
X145687935Y-102738000D01*
X145696838Y-102785317D01*
X145835910Y-103001441D01*
X146048110Y-103146431D01*
X146212000Y-103179620D01*
X146212000Y-103819118D01*
X146064683Y-103846838D01*
X145848559Y-103985910D01*
X145703569Y-104198110D01*
X145652560Y-104450000D01*
X145652560Y-105750000D01*
X145696838Y-105985317D01*
X145835910Y-106201441D01*
X146048110Y-106346431D01*
X146300000Y-106397440D01*
X147800000Y-106397440D01*
X148035317Y-106353162D01*
X148251441Y-106214090D01*
X148396431Y-106001890D01*
X148403191Y-105968510D01*
X148461673Y-106109699D01*
X148640302Y-106288327D01*
X148873691Y-106385000D01*
X149464250Y-106385000D01*
X149623000Y-106226250D01*
X149623000Y-105227000D01*
X149877000Y-105227000D01*
X149877000Y-106226250D01*
X150035750Y-106385000D01*
X150626309Y-106385000D01*
X150859698Y-106288327D01*
X151038327Y-106109699D01*
X151135000Y-105876310D01*
X151135000Y-105385750D01*
X150976250Y-105227000D01*
X149877000Y-105227000D01*
X149623000Y-105227000D01*
X149603000Y-105227000D01*
X149603000Y-104973000D01*
X149623000Y-104973000D01*
X149623000Y-103973750D01*
X149877000Y-103973750D01*
X149877000Y-104973000D01*
X150976250Y-104973000D01*
X151135000Y-104814250D01*
X151135000Y-104323690D01*
X151038327Y-104090301D01*
X150859698Y-103911673D01*
X150626309Y-103815000D01*
X150035750Y-103815000D01*
X149877000Y-103973750D01*
X149623000Y-103973750D01*
X149464250Y-103815000D01*
X148873691Y-103815000D01*
X148640302Y-103911673D01*
X148461673Y-104090301D01*
X148405346Y-104226287D01*
X148403162Y-104214683D01*
X148264090Y-103998559D01*
X148051890Y-103853569D01*
X147888000Y-103820380D01*
X147888000Y-103180882D01*
X148035317Y-103153162D01*
X148251441Y-103014090D01*
X148396431Y-102801890D01*
X148399081Y-102788803D01*
X148535910Y-103001441D01*
X148748110Y-103146431D01*
X149000000Y-103197440D01*
X150500000Y-103197440D01*
X150735317Y-103153162D01*
X150951441Y-103014090D01*
X151096431Y-102801890D01*
X151109369Y-102738000D01*
X151252890Y-102738000D01*
X154042444Y-105527555D01*
X154289384Y-105692555D01*
X154314311Y-105709211D01*
X154635000Y-105773000D01*
X155881869Y-105773000D01*
X155925910Y-105841441D01*
X156138110Y-105986431D01*
X156390000Y-106037440D01*
X157610000Y-106037440D01*
X157845317Y-105993162D01*
X158061441Y-105854090D01*
X158116847Y-105773000D01*
X159165000Y-105773000D01*
X159485689Y-105709211D01*
X159757555Y-105527555D01*
X161192555Y-104092556D01*
X161374211Y-103820689D01*
X161397366Y-103704279D01*
X161438000Y-103500000D01*
X161438000Y-103259090D01*
X163438695Y-103259090D01*
X166000000Y-105820395D01*
X168561305Y-103259090D01*
X168194360Y-102763657D01*
X166788829Y-102170264D01*
X165263207Y-102159913D01*
X163849754Y-102734181D01*
X163805640Y-102763657D01*
X163438695Y-103259090D01*
X161438000Y-103259090D01*
X161438000Y-100265750D01*
X166169000Y-100265750D01*
X166169000Y-100969910D01*
X166265673Y-101203299D01*
X166444302Y-101381927D01*
X166677691Y-101478600D01*
X167534250Y-101478600D01*
X167693000Y-101319850D01*
X167693000Y-100107000D01*
X166327750Y-100107000D01*
X166169000Y-100265750D01*
X161438000Y-100265750D01*
X161438000Y-99600000D01*
X161374211Y-99279311D01*
X161335040Y-99220688D01*
X161192555Y-99007444D01*
X160492555Y-98307445D01*
X160448486Y-98277999D01*
X160220689Y-98125789D01*
X159900000Y-98062000D01*
X159694539Y-98062000D01*
X159693162Y-98054683D01*
X159554090Y-97838559D01*
X159341890Y-97693569D01*
X159090000Y-97642560D01*
X158180000Y-97642560D01*
X157944683Y-97686838D01*
X157838000Y-97755487D01*
X157838000Y-88000000D01*
X157774211Y-87679311D01*
X157695826Y-87562000D01*
X157592556Y-87407445D01*
X157204493Y-87019382D01*
X157660223Y-87019382D01*
X157905368Y-87410888D01*
X158949360Y-87837609D01*
X160077181Y-87832330D01*
X161094632Y-87410888D01*
X161339777Y-87019382D01*
X159500000Y-85179605D01*
X157660223Y-87019382D01*
X157204493Y-87019382D01*
X154634471Y-84449360D01*
X156662391Y-84449360D01*
X156667670Y-85577181D01*
X157089112Y-86594632D01*
X157480618Y-86839777D01*
X159320395Y-85000000D01*
X159679605Y-85000000D01*
X161519382Y-86839777D01*
X161910888Y-86594632D01*
X162337609Y-85550640D01*
X162332330Y-84422819D01*
X161910888Y-83405368D01*
X161519382Y-83160223D01*
X159679605Y-85000000D01*
X159320395Y-85000000D01*
X157480618Y-83160223D01*
X157089112Y-83405368D01*
X156662391Y-84449360D01*
X154634471Y-84449360D01*
X153321610Y-83136500D01*
X156505000Y-83136500D01*
X156903565Y-83057221D01*
X157018209Y-82980618D01*
X157660223Y-82980618D01*
X159500000Y-84820395D01*
X161339777Y-82980618D01*
X161094632Y-82589112D01*
X160050640Y-82162391D01*
X158922819Y-82167670D01*
X157905368Y-82589112D01*
X157660223Y-82980618D01*
X157018209Y-82980618D01*
X157241452Y-82831452D01*
X160772452Y-79300452D01*
X160998221Y-78962565D01*
X161077500Y-78564000D01*
X161077500Y-71911993D01*
X161140431Y-71819890D01*
X161186681Y-71591500D01*
X161481252Y-71591500D01*
X161535910Y-71676441D01*
X161535910Y-71676441D01*
G37*
X161535910Y-71676441D02*
X161708500Y-71794367D01*
X161708500Y-77638000D01*
X161787779Y-78036565D01*
X162013548Y-78374452D01*
X162841500Y-79202404D01*
X162841500Y-88189715D01*
X162601783Y-88090176D01*
X162199980Y-88089825D01*
X161828628Y-88243264D01*
X161544263Y-88527134D01*
X161390176Y-88898217D01*
X161389825Y-89300020D01*
X161543264Y-89671372D01*
X161562000Y-89690141D01*
X161562000Y-94560000D01*
X161625789Y-94880689D01*
X161746129Y-95060789D01*
X161807445Y-95152555D01*
X164687444Y-98032555D01*
X164844643Y-98137592D01*
X164959311Y-98214211D01*
X165280000Y-98278000D01*
X166427470Y-98278000D01*
X166575585Y-98499670D01*
X166597780Y-98514500D01*
X166444302Y-98578073D01*
X166265673Y-98756701D01*
X166169000Y-98990090D01*
X166169000Y-99694250D01*
X166327750Y-99853000D01*
X167693000Y-99853000D01*
X167693000Y-99833000D01*
X167947000Y-99833000D01*
X167947000Y-99853000D01*
X167967000Y-99853000D01*
X167967000Y-100107000D01*
X167947000Y-100107000D01*
X167947000Y-101319850D01*
X168105750Y-101478600D01*
X168962309Y-101478600D01*
X169195698Y-101381927D01*
X169290000Y-101287626D01*
X169290000Y-103909271D01*
X169265819Y-103849754D01*
X169236343Y-103805640D01*
X168740910Y-103438695D01*
X166179605Y-106000000D01*
X168740910Y-108561305D01*
X169236343Y-108194360D01*
X169290000Y-108067266D01*
X169290000Y-109290000D01*
X168090729Y-109290000D01*
X168150246Y-109265819D01*
X168194360Y-109236343D01*
X168561305Y-108740910D01*
X166000000Y-106179605D01*
X163438695Y-108740910D01*
X163805640Y-109236343D01*
X163932734Y-109290000D01*
X126090729Y-109290000D01*
X126150246Y-109265819D01*
X126194360Y-109236343D01*
X126561305Y-108740910D01*
X124000000Y-106179605D01*
X121438695Y-108740910D01*
X121805640Y-109236343D01*
X121932734Y-109290000D01*
X120710000Y-109290000D01*
X120710000Y-108090729D01*
X120734181Y-108150246D01*
X120763657Y-108194360D01*
X121259090Y-108561305D01*
X123820395Y-106000000D01*
X124179605Y-106000000D01*
X126740910Y-108561305D01*
X127236343Y-108194360D01*
X127829736Y-106788829D01*
X127840087Y-105263207D01*
X127265819Y-103849754D01*
X127236343Y-103805640D01*
X126740910Y-103438695D01*
X124179605Y-106000000D01*
X123820395Y-106000000D01*
X121259090Y-103438695D01*
X120763657Y-103805640D01*
X120710000Y-103932734D01*
X120710000Y-103259090D01*
X121438695Y-103259090D01*
X124000000Y-105820395D01*
X126561305Y-103259090D01*
X126194360Y-102763657D01*
X125219566Y-102352114D01*
X135221692Y-102352114D01*
X135491806Y-103005840D01*
X135991529Y-103506436D01*
X136644782Y-103777691D01*
X137352114Y-103778308D01*
X138005840Y-103508194D01*
X138506436Y-103008471D01*
X138723962Y-102484610D01*
X141214950Y-102484610D01*
X141214950Y-103225600D01*
X141311623Y-103458989D01*
X141490252Y-103637617D01*
X141723641Y-103734290D01*
X141964250Y-103734290D01*
X142123000Y-103575540D01*
X142123000Y-102325860D01*
X141373700Y-102325860D01*
X141214950Y-102484610D01*
X138723962Y-102484610D01*
X138777691Y-102355218D01*
X138778308Y-101647886D01*
X138581726Y-101172120D01*
X141214950Y-101172120D01*
X141214950Y-101913110D01*
X141373700Y-102071860D01*
X142123000Y-102071860D01*
X142123000Y-100822180D01*
X141964250Y-100663430D01*
X141723641Y-100663430D01*
X141490252Y-100760103D01*
X141311623Y-100938731D01*
X141214950Y-101172120D01*
X138581726Y-101172120D01*
X138508194Y-100994160D01*
X138008471Y-100493564D01*
X137355218Y-100222309D01*
X136647886Y-100221692D01*
X135994160Y-100491806D01*
X135493564Y-100991529D01*
X135222309Y-101644782D01*
X135221692Y-102352114D01*
X125219566Y-102352114D01*
X124788829Y-102170264D01*
X123263207Y-102159913D01*
X121849754Y-102734181D01*
X121805640Y-102763657D01*
X121438695Y-103259090D01*
X120710000Y-103259090D01*
X120710000Y-88121787D01*
X120855585Y-88339670D01*
X121341766Y-88664526D01*
X121915255Y-88778600D01*
X122284745Y-88778600D01*
X122858234Y-88664526D01*
X123344415Y-88339670D01*
X123669271Y-87853489D01*
X123783345Y-87280000D01*
X123669271Y-86706511D01*
X123344415Y-86220330D01*
X123029634Y-86010000D01*
X123344415Y-85799670D01*
X123356556Y-85781500D01*
X124958500Y-85781500D01*
X124958500Y-89468596D01*
X122813548Y-91613548D01*
X122587779Y-91951435D01*
X122508500Y-92350000D01*
X122508500Y-93468850D01*
X122502510Y-93498430D01*
X122502510Y-95299290D01*
X122546788Y-95534607D01*
X122685860Y-95750731D01*
X122898060Y-95895721D01*
X123149950Y-95946730D01*
X123788202Y-95946730D01*
X123648509Y-96036620D01*
X123503519Y-96248820D01*
X123452510Y-96500710D01*
X123452510Y-98301570D01*
X123496788Y-98536887D01*
X123635860Y-98753011D01*
X123848060Y-98898001D01*
X124099950Y-98949010D01*
X124900050Y-98949010D01*
X125135367Y-98904732D01*
X125351491Y-98765660D01*
X125496481Y-98553460D01*
X125518923Y-98442640D01*
X126880247Y-98442640D01*
X126885910Y-98451441D01*
X127098110Y-98596431D01*
X127350000Y-98647440D01*
X128650000Y-98647440D01*
X128885317Y-98603162D01*
X129101441Y-98464090D01*
X129219367Y-98291500D01*
X134736000Y-98291500D01*
X135134565Y-98212221D01*
X135472452Y-97986452D01*
X137736449Y-95722454D01*
X137736452Y-95722452D01*
X137962221Y-95384565D01*
X137966892Y-95361081D01*
X138001767Y-95185750D01*
X140921400Y-95185750D01*
X140921400Y-96042310D01*
X141018073Y-96275699D01*
X141196702Y-96454327D01*
X141430091Y-96551000D01*
X142134250Y-96551000D01*
X142293000Y-96392250D01*
X142293000Y-95027000D01*
X141080150Y-95027000D01*
X140921400Y-95185750D01*
X138001767Y-95185750D01*
X138041501Y-94986000D01*
X138041500Y-94985995D01*
X138041500Y-93401500D01*
X141140875Y-93401500D01*
X141018073Y-93524301D01*
X140921400Y-93757690D01*
X140921400Y-94614250D01*
X141080150Y-94773000D01*
X142293000Y-94773000D01*
X142293000Y-94753000D01*
X142547000Y-94753000D01*
X142547000Y-94773000D01*
X142567000Y-94773000D01*
X142567000Y-95027000D01*
X142547000Y-95027000D01*
X142547000Y-96392250D01*
X142705750Y-96551000D01*
X143409909Y-96551000D01*
X143643298Y-96454327D01*
X143821927Y-96275699D01*
X143885500Y-96122220D01*
X143900330Y-96144415D01*
X144122000Y-96292530D01*
X144122000Y-96860000D01*
X144185789Y-97180689D01*
X144359056Y-97440000D01*
X144367445Y-97452555D01*
X145707444Y-98792555D01*
X145941595Y-98949010D01*
X145979311Y-98974211D01*
X146300000Y-99038000D01*
X149852890Y-99038000D01*
X151980933Y-101166043D01*
X151920689Y-101125789D01*
X151600000Y-101062000D01*
X151112065Y-101062000D01*
X151103162Y-101014683D01*
X150964090Y-100798559D01*
X150751890Y-100653569D01*
X150500000Y-100602560D01*
X149000000Y-100602560D01*
X148764683Y-100646838D01*
X148548559Y-100785910D01*
X148403569Y-100998110D01*
X148400919Y-101011197D01*
X148264090Y-100798559D01*
X148051890Y-100653569D01*
X147800000Y-100602560D01*
X146300000Y-100602560D01*
X146064683Y-100646838D01*
X145848559Y-100785910D01*
X145703569Y-100998110D01*
X145690631Y-101062000D01*
X145152496Y-101062000D01*
X145014140Y-100846989D01*
X144801940Y-100701999D01*
X144550050Y-100650990D01*
X143749950Y-100650990D01*
X143514633Y-100695268D01*
X143298509Y-100834340D01*
X143203023Y-100974089D01*
X143188377Y-100938731D01*
X143009748Y-100760103D01*
X142776359Y-100663430D01*
X142535750Y-100663430D01*
X142377000Y-100822180D01*
X142377000Y-102071860D01*
X142397000Y-102071860D01*
X142397000Y-102325860D01*
X142377000Y-102325860D01*
X142377000Y-103575540D01*
X142524703Y-103723243D01*
X142348509Y-103836620D01*
X142203519Y-104048820D01*
X142152510Y-104300710D01*
X142152510Y-106101570D01*
X142196788Y-106336887D01*
X142335860Y-106553011D01*
X142351317Y-106563572D01*
X142052890Y-106862000D01*
X135747111Y-106862000D01*
X134410153Y-105525043D01*
X134410175Y-105499980D01*
X134256736Y-105128628D01*
X133972866Y-104844263D01*
X133601783Y-104690176D01*
X133199980Y-104689825D01*
X132828628Y-104843264D01*
X132544263Y-105127134D01*
X132390176Y-105498217D01*
X132389825Y-105900020D01*
X132543264Y-106271372D01*
X132827134Y-106555737D01*
X133198217Y-106709824D01*
X133224737Y-106709847D01*
X134807444Y-108292555D01*
X135079311Y-108474211D01*
X135400000Y-108538000D01*
X142400000Y-108538000D01*
X142720689Y-108474211D01*
X142992555Y-108292555D01*
X143792556Y-107492555D01*
X143901450Y-107329583D01*
X143974211Y-107220689D01*
X144038000Y-106900000D01*
X144038000Y-106736793D01*
X162159913Y-106736793D01*
X162734181Y-108150246D01*
X162763657Y-108194360D01*
X163259090Y-108561305D01*
X165820395Y-106000000D01*
X163259090Y-103438695D01*
X162763657Y-103805640D01*
X162170264Y-105211171D01*
X162159913Y-106736793D01*
X144038000Y-106736793D01*
X144038000Y-106574341D01*
X144051491Y-106565660D01*
X144196481Y-106353460D01*
X144247490Y-106101570D01*
X144247490Y-104300710D01*
X144203212Y-104065393D01*
X144064140Y-103849269D01*
X143914069Y-103746730D01*
X144550050Y-103746730D01*
X144785367Y-103702452D01*
X145001491Y-103563380D01*
X145146481Y-103351180D01*
X145197490Y-103099290D01*
X145197490Y-102738000D01*
X145687935Y-102738000D01*
X145696838Y-102785317D01*
X145835910Y-103001441D01*
X146048110Y-103146431D01*
X146212000Y-103179620D01*
X146212000Y-103819118D01*
X146064683Y-103846838D01*
X145848559Y-103985910D01*
X145703569Y-104198110D01*
X145652560Y-104450000D01*
X145652560Y-105750000D01*
X145696838Y-105985317D01*
X145835910Y-106201441D01*
X146048110Y-106346431D01*
X146300000Y-106397440D01*
X147800000Y-106397440D01*
X148035317Y-106353162D01*
X148251441Y-106214090D01*
X148396431Y-106001890D01*
X148403191Y-105968510D01*
X148461673Y-106109699D01*
X148640302Y-106288327D01*
X148873691Y-106385000D01*
X149464250Y-106385000D01*
X149623000Y-106226250D01*
X149623000Y-105227000D01*
X149877000Y-105227000D01*
X149877000Y-106226250D01*
X150035750Y-106385000D01*
X150626309Y-106385000D01*
X150859698Y-106288327D01*
X151038327Y-106109699D01*
X151135000Y-105876310D01*
X151135000Y-105385750D01*
X150976250Y-105227000D01*
X149877000Y-105227000D01*
X149623000Y-105227000D01*
X149603000Y-105227000D01*
X149603000Y-104973000D01*
X149623000Y-104973000D01*
X149623000Y-103973750D01*
X149877000Y-103973750D01*
X149877000Y-104973000D01*
X150976250Y-104973000D01*
X151135000Y-104814250D01*
X151135000Y-104323690D01*
X151038327Y-104090301D01*
X150859698Y-103911673D01*
X150626309Y-103815000D01*
X150035750Y-103815000D01*
X149877000Y-103973750D01*
X149623000Y-103973750D01*
X149464250Y-103815000D01*
X148873691Y-103815000D01*
X148640302Y-103911673D01*
X148461673Y-104090301D01*
X148405346Y-104226287D01*
X148403162Y-104214683D01*
X148264090Y-103998559D01*
X148051890Y-103853569D01*
X147888000Y-103820380D01*
X147888000Y-103180882D01*
X148035317Y-103153162D01*
X148251441Y-103014090D01*
X148396431Y-102801890D01*
X148399081Y-102788803D01*
X148535910Y-103001441D01*
X148748110Y-103146431D01*
X149000000Y-103197440D01*
X150500000Y-103197440D01*
X150735317Y-103153162D01*
X150951441Y-103014090D01*
X151096431Y-102801890D01*
X151109369Y-102738000D01*
X151252890Y-102738000D01*
X154042444Y-105527555D01*
X154289384Y-105692555D01*
X154314311Y-105709211D01*
X154635000Y-105773000D01*
X155881869Y-105773000D01*
X155925910Y-105841441D01*
X156138110Y-105986431D01*
X156390000Y-106037440D01*
X157610000Y-106037440D01*
X157845317Y-105993162D01*
X158061441Y-105854090D01*
X158116847Y-105773000D01*
X159165000Y-105773000D01*
X159485689Y-105709211D01*
X159757555Y-105527555D01*
X161192555Y-104092556D01*
X161374211Y-103820689D01*
X161397366Y-103704279D01*
X161438000Y-103500000D01*
X161438000Y-103259090D01*
X163438695Y-103259090D01*
X166000000Y-105820395D01*
X168561305Y-103259090D01*
X168194360Y-102763657D01*
X166788829Y-102170264D01*
X165263207Y-102159913D01*
X163849754Y-102734181D01*
X163805640Y-102763657D01*
X163438695Y-103259090D01*
X161438000Y-103259090D01*
X161438000Y-100265750D01*
X166169000Y-100265750D01*
X166169000Y-100969910D01*
X166265673Y-101203299D01*
X166444302Y-101381927D01*
X166677691Y-101478600D01*
X167534250Y-101478600D01*
X167693000Y-101319850D01*
X167693000Y-100107000D01*
X166327750Y-100107000D01*
X166169000Y-100265750D01*
X161438000Y-100265750D01*
X161438000Y-99600000D01*
X161374211Y-99279311D01*
X161335040Y-99220688D01*
X161192555Y-99007444D01*
X160492555Y-98307445D01*
X160448486Y-98277999D01*
X160220689Y-98125789D01*
X159900000Y-98062000D01*
X159694539Y-98062000D01*
X159693162Y-98054683D01*
X159554090Y-97838559D01*
X159341890Y-97693569D01*
X159090000Y-97642560D01*
X158180000Y-97642560D01*
X157944683Y-97686838D01*
X157838000Y-97755487D01*
X157838000Y-88000000D01*
X157774211Y-87679311D01*
X157695826Y-87562000D01*
X157592556Y-87407445D01*
X157204493Y-87019382D01*
X157660223Y-87019382D01*
X157905368Y-87410888D01*
X158949360Y-87837609D01*
X160077181Y-87832330D01*
X161094632Y-87410888D01*
X161339777Y-87019382D01*
X159500000Y-85179605D01*
X157660223Y-87019382D01*
X157204493Y-87019382D01*
X154634471Y-84449360D01*
X156662391Y-84449360D01*
X156667670Y-85577181D01*
X157089112Y-86594632D01*
X157480618Y-86839777D01*
X159320395Y-85000000D01*
X159679605Y-85000000D01*
X161519382Y-86839777D01*
X161910888Y-86594632D01*
X162337609Y-85550640D01*
X162332330Y-84422819D01*
X161910888Y-83405368D01*
X161519382Y-83160223D01*
X159679605Y-85000000D01*
X159320395Y-85000000D01*
X157480618Y-83160223D01*
X157089112Y-83405368D01*
X156662391Y-84449360D01*
X154634471Y-84449360D01*
X153321610Y-83136500D01*
X156505000Y-83136500D01*
X156903565Y-83057221D01*
X157018209Y-82980618D01*
X157660223Y-82980618D01*
X159500000Y-84820395D01*
X161339777Y-82980618D01*
X161094632Y-82589112D01*
X160050640Y-82162391D01*
X158922819Y-82167670D01*
X157905368Y-82589112D01*
X157660223Y-82980618D01*
X157018209Y-82980618D01*
X157241452Y-82831452D01*
X160772452Y-79300452D01*
X160998221Y-78962565D01*
X161077500Y-78564000D01*
X161077500Y-71911993D01*
X161140431Y-71819890D01*
X161186681Y-71591500D01*
X161481252Y-71591500D01*
X161535910Y-71676441D01*
G36*
X132132998Y-63086182D02*
X131900974Y-62965042D01*
X131485053Y-63137312D01*
X131053179Y-63531510D01*
X130805032Y-64060973D01*
X130925531Y-64293000D01*
X132133000Y-64293000D01*
X132133000Y-64273000D01*
X132387000Y-64273000D01*
X132387000Y-64293000D01*
X132407000Y-64293000D01*
X132407000Y-64547000D01*
X132387000Y-64547000D01*
X132387000Y-64567000D01*
X132133000Y-64567000D01*
X132133000Y-64547000D01*
X130925531Y-64547000D01*
X130805032Y-64779027D01*
X131053179Y-65308490D01*
X131471161Y-65690008D01*
X131200330Y-65870971D01*
X130875474Y-66357152D01*
X130761400Y-66930641D01*
X130761400Y-66989359D01*
X130875474Y-67562848D01*
X131200330Y-68049029D01*
X131686511Y-68373885D01*
X132260000Y-68487959D01*
X132587671Y-68422781D01*
X134276445Y-70111556D01*
X134393000Y-70189435D01*
X134548311Y-70293211D01*
X134869000Y-70357000D01*
X138271890Y-70357000D01*
X139312000Y-71397111D01*
X139312000Y-78369118D01*
X139164683Y-78396838D01*
X138948559Y-78535910D01*
X138803569Y-78748110D01*
X138752560Y-79000000D01*
X138752560Y-80300000D01*
X138796838Y-80535317D01*
X138935910Y-80751441D01*
X139148110Y-80896431D01*
X139312000Y-80929620D01*
X139312000Y-81690000D01*
X139375789Y-82010689D01*
X139459822Y-82136452D01*
X139557445Y-82282555D01*
X139962444Y-82687555D01*
X140131390Y-82800441D01*
X140234311Y-82869211D01*
X140555000Y-82933000D01*
X140642106Y-82933000D01*
X140606060Y-83111000D01*
X140606060Y-83619000D01*
X140639553Y-83797000D01*
X139857534Y-83797000D01*
X139817866Y-83757263D01*
X139446783Y-83603176D01*
X139044980Y-83602825D01*
X138673628Y-83756264D01*
X138389263Y-84040134D01*
X138235176Y-84411217D01*
X138234825Y-84813020D01*
X138388264Y-85184372D01*
X138672134Y-85468737D01*
X139043217Y-85622824D01*
X139445020Y-85623175D01*
X139808472Y-85473000D01*
X140639911Y-85473000D01*
X140618500Y-85524691D01*
X140618500Y-85619250D01*
X140777250Y-85778000D01*
X141698000Y-85778000D01*
X141698000Y-85758000D01*
X141952000Y-85758000D01*
X141952000Y-85778000D01*
X142872750Y-85778000D01*
X143031500Y-85619250D01*
X143031500Y-85524691D01*
X142934827Y-85291302D01*
X142908291Y-85264765D01*
X142992931Y-85140890D01*
X143043940Y-84889000D01*
X143043940Y-84381000D01*
X143017064Y-84238165D01*
X143358217Y-84379824D01*
X143760020Y-84380175D01*
X144131372Y-84226736D01*
X144415737Y-83942866D01*
X144569824Y-83571783D01*
X144570175Y-83169980D01*
X144416736Y-82798628D01*
X144132866Y-82514263D01*
X143761783Y-82360176D01*
X143359980Y-82359825D01*
X143012689Y-82503322D01*
X143043940Y-82349000D01*
X143043940Y-81841000D01*
X142999662Y-81605683D01*
X142860590Y-81389559D01*
X142648390Y-81244569D01*
X142396500Y-81193560D01*
X141253500Y-81193560D01*
X141018183Y-81237838D01*
X140988404Y-81257000D01*
X140988000Y-81257000D01*
X140988000Y-80930882D01*
X141135317Y-80903162D01*
X141351441Y-80764090D01*
X141496431Y-80551890D01*
X141499081Y-80538803D01*
X141635910Y-80751441D01*
X141848110Y-80896431D01*
X142100000Y-80947440D01*
X143600000Y-80947440D01*
X143835317Y-80903162D01*
X144051441Y-80764090D01*
X144101040Y-80691500D01*
X146881252Y-80691500D01*
X146935910Y-80776441D01*
X147133500Y-80911448D01*
X147133500Y-81404072D01*
X147007069Y-81589110D01*
X146956060Y-81841000D01*
X146956060Y-82349000D01*
X146962464Y-82383034D01*
X146897783Y-82356176D01*
X146495980Y-82355825D01*
X146124628Y-82509264D01*
X145840263Y-82793134D01*
X145686176Y-83164217D01*
X145685825Y-83566020D01*
X145727849Y-83667727D01*
X145627783Y-83626176D01*
X145225980Y-83625825D01*
X144854628Y-83779264D01*
X144570263Y-84063134D01*
X144416176Y-84434217D01*
X144415825Y-84836020D01*
X144438107Y-84889946D01*
X144299980Y-84889825D01*
X143928628Y-85043264D01*
X143644263Y-85327134D01*
X143490176Y-85698217D01*
X143489825Y-86100020D01*
X143643264Y-86471372D01*
X143927134Y-86755737D01*
X144298217Y-86909824D01*
X144700020Y-86910175D01*
X145071372Y-86756736D01*
X145085132Y-86743000D01*
X147333417Y-86743000D01*
X147351610Y-86755431D01*
X147603500Y-86806440D01*
X148746500Y-86806440D01*
X148981817Y-86762162D01*
X149197941Y-86623090D01*
X149342931Y-86410890D01*
X149393940Y-86159000D01*
X149393940Y-85651000D01*
X149360447Y-85473000D01*
X151887890Y-85473000D01*
X155162000Y-88747111D01*
X155162000Y-94852889D01*
X154772445Y-95242445D01*
X154590789Y-95514311D01*
X154527000Y-95835000D01*
X154527000Y-97781869D01*
X154458559Y-97825910D01*
X154313569Y-98038110D01*
X154262560Y-98290000D01*
X154262560Y-99510000D01*
X154306838Y-99745317D01*
X154445910Y-99961441D01*
X154658110Y-100106431D01*
X154910000Y-100157440D01*
X155820000Y-100157440D01*
X156055317Y-100113162D01*
X156162000Y-100044513D01*
X156162000Y-100605461D01*
X156154683Y-100606838D01*
X155938559Y-100745910D01*
X155883153Y-100827000D01*
X154012110Y-100827000D01*
X150792554Y-97607444D01*
X150520689Y-97425789D01*
X150200000Y-97362000D01*
X146647111Y-97362000D01*
X145798000Y-96512890D01*
X145798000Y-96292530D01*
X146019670Y-96144415D01*
X146230000Y-95829634D01*
X146440330Y-96144415D01*
X146926511Y-96469271D01*
X147500000Y-96583345D01*
X148073489Y-96469271D01*
X148559670Y-96144415D01*
X148884526Y-95658234D01*
X148998600Y-95084745D01*
X148998600Y-94715255D01*
X148884526Y-94141766D01*
X148559670Y-93655585D01*
X148541500Y-93643444D01*
X148541500Y-93376000D01*
X148462221Y-92977435D01*
X148236452Y-92639548D01*
X147220452Y-91623548D01*
X146882565Y-91397779D01*
X146484000Y-91318500D01*
X138041500Y-91318500D01*
X138041500Y-91316922D01*
X138061441Y-91304090D01*
X138206431Y-91091890D01*
X138257440Y-90840000D01*
X138257440Y-89930000D01*
X138213162Y-89694683D01*
X138074090Y-89478559D01*
X137861890Y-89333569D01*
X137610000Y-89282560D01*
X136390000Y-89282560D01*
X136154683Y-89326838D01*
X135938559Y-89465910D01*
X135793569Y-89678110D01*
X135742560Y-89930000D01*
X135742560Y-90840000D01*
X135786838Y-91075317D01*
X135925910Y-91291441D01*
X135958500Y-91313709D01*
X135958500Y-94554597D01*
X134304596Y-96208500D01*
X129217009Y-96208500D01*
X129114090Y-96048559D01*
X128901890Y-95903569D01*
X128888803Y-95900919D01*
X129101441Y-95764090D01*
X129246431Y-95551890D01*
X129279620Y-95388000D01*
X130104832Y-95388000D01*
X130398217Y-95509824D01*
X130800020Y-95510175D01*
X131171372Y-95356736D01*
X131455737Y-95072866D01*
X131609824Y-94701783D01*
X131610175Y-94299980D01*
X131456736Y-93928628D01*
X131172866Y-93644263D01*
X130801783Y-93490176D01*
X130399980Y-93489825D01*
X130028628Y-93643264D01*
X129959772Y-93712000D01*
X129280882Y-93712000D01*
X129253162Y-93564683D01*
X129114090Y-93348559D01*
X128901890Y-93203569D01*
X128650000Y-93152560D01*
X127350000Y-93152560D01*
X127114683Y-93196838D01*
X126898559Y-93335910D01*
X126753569Y-93548110D01*
X126750987Y-93560860D01*
X126497490Y-93560860D01*
X126497490Y-93498430D01*
X126453212Y-93263113D01*
X126314140Y-93046989D01*
X126101940Y-92901999D01*
X125850050Y-92850990D01*
X125049950Y-92850990D01*
X124814633Y-92895268D01*
X124598509Y-93034340D01*
X124591500Y-93044598D01*
X124591500Y-92781404D01*
X126736452Y-90636452D01*
X126962221Y-90298565D01*
X127041500Y-89900000D01*
X127041500Y-88592114D01*
X150221692Y-88592114D01*
X150491806Y-89245840D01*
X150991529Y-89746436D01*
X151644782Y-90017691D01*
X152352114Y-90018308D01*
X153005840Y-89748194D01*
X153506436Y-89248471D01*
X153777691Y-88595218D01*
X153778308Y-87887886D01*
X153508194Y-87234160D01*
X153008471Y-86733564D01*
X152355218Y-86462309D01*
X151647886Y-86461692D01*
X150994160Y-86731806D01*
X150493564Y-87231529D01*
X150222309Y-87884782D01*
X150221692Y-88592114D01*
X127041500Y-88592114D01*
X127041500Y-87019382D01*
X128660223Y-87019382D01*
X128905368Y-87410888D01*
X129949360Y-87837609D01*
X131077181Y-87832330D01*
X132094632Y-87410888D01*
X132339777Y-87019382D01*
X130500000Y-85179605D01*
X128660223Y-87019382D01*
X127041500Y-87019382D01*
X127041500Y-84449360D01*
X127662391Y-84449360D01*
X127667670Y-85577181D01*
X128089112Y-86594632D01*
X128480618Y-86839777D01*
X130320395Y-85000000D01*
X130679605Y-85000000D01*
X132519382Y-86839777D01*
X132910888Y-86594632D01*
X133337609Y-85550640D01*
X133332330Y-84422819D01*
X132910888Y-83405368D01*
X132519382Y-83160223D01*
X130679605Y-85000000D01*
X130320395Y-85000000D01*
X128480618Y-83160223D01*
X128089112Y-83405368D01*
X127662391Y-84449360D01*
X127041500Y-84449360D01*
X127041500Y-82980618D01*
X128660223Y-82980618D01*
X130500000Y-84820395D01*
X132339777Y-82980618D01*
X132094632Y-82589112D01*
X131050640Y-82162391D01*
X129922819Y-82167670D01*
X128905368Y-82589112D01*
X128660223Y-82980618D01*
X127041500Y-82980618D01*
X127041500Y-72974188D01*
X128965417Y-72974188D01*
X129027071Y-73209800D01*
X129527480Y-73385927D01*
X130057199Y-73357148D01*
X130412929Y-73209800D01*
X130474583Y-72974188D01*
X129720000Y-72219605D01*
X128965417Y-72974188D01*
X127041500Y-72974188D01*
X127041500Y-71847480D01*
X128374073Y-71847480D01*
X128402852Y-72377199D01*
X128550200Y-72732929D01*
X128785812Y-72794583D01*
X129540395Y-72040000D01*
X129899605Y-72040000D01*
X130654188Y-72794583D01*
X130889800Y-72732929D01*
X130988083Y-72453688D01*
X131128854Y-72794380D01*
X131218500Y-72884182D01*
X131218500Y-80848000D01*
X131297779Y-81246565D01*
X131523548Y-81584452D01*
X135958500Y-86019404D01*
X135958500Y-86183078D01*
X135938559Y-86195910D01*
X135793569Y-86408110D01*
X135742560Y-86660000D01*
X135742560Y-87570000D01*
X135786838Y-87805317D01*
X135925910Y-88021441D01*
X136138110Y-88166431D01*
X136390000Y-88217440D01*
X137610000Y-88217440D01*
X137845317Y-88173162D01*
X138061441Y-88034090D01*
X138206431Y-87821890D01*
X138257440Y-87570000D01*
X138257440Y-86660000D01*
X138213162Y-86424683D01*
X138074090Y-86208559D01*
X138048026Y-86190750D01*
X140618500Y-86190750D01*
X140618500Y-86285309D01*
X140715173Y-86518698D01*
X140893801Y-86697327D01*
X141127190Y-86794000D01*
X141539250Y-86794000D01*
X141698000Y-86635250D01*
X141698000Y-86032000D01*
X141952000Y-86032000D01*
X141952000Y-86635250D01*
X142110750Y-86794000D01*
X142522810Y-86794000D01*
X142756199Y-86697327D01*
X142934827Y-86518698D01*
X143031500Y-86285309D01*
X143031500Y-86190750D01*
X142872750Y-86032000D01*
X141952000Y-86032000D01*
X141698000Y-86032000D01*
X140777250Y-86032000D01*
X140618500Y-86190750D01*
X138048026Y-86190750D01*
X138041500Y-86186291D01*
X138041500Y-85588000D01*
X137962221Y-85189435D01*
X137736452Y-84851548D01*
X136264821Y-83379917D01*
X136644782Y-83537691D01*
X137352114Y-83538308D01*
X138005840Y-83268194D01*
X138506436Y-82768471D01*
X138777691Y-82115218D01*
X138778308Y-81407886D01*
X138508194Y-80754160D01*
X138008471Y-80253564D01*
X137355218Y-79982309D01*
X136694637Y-79981733D01*
X135841500Y-79128596D01*
X135841500Y-73272370D01*
X135949941Y-73202590D01*
X136094931Y-72990390D01*
X136145940Y-72738500D01*
X136145940Y-71341500D01*
X136101662Y-71106183D01*
X135962590Y-70890059D01*
X135750390Y-70745069D01*
X135498500Y-70694060D01*
X134101500Y-70694060D01*
X133866183Y-70738338D01*
X133650059Y-70877410D01*
X133505069Y-71089610D01*
X133454060Y-71341500D01*
X133454060Y-71437884D01*
X133391146Y-71285620D01*
X133016353Y-70910173D01*
X132526413Y-70706732D01*
X131995914Y-70706269D01*
X131505620Y-70908854D01*
X131130173Y-71283647D01*
X130996686Y-71605118D01*
X130889800Y-71347071D01*
X130654188Y-71285417D01*
X129899605Y-72040000D01*
X129540395Y-72040000D01*
X128785812Y-71285417D01*
X128550200Y-71347071D01*
X128374073Y-71847480D01*
X127041500Y-71847480D01*
X127041500Y-71105812D01*
X128965417Y-71105812D01*
X129720000Y-71860395D01*
X130474583Y-71105812D01*
X130412929Y-70870200D01*
X129912520Y-70694073D01*
X129382801Y-70722852D01*
X129027071Y-70870200D01*
X128965417Y-71105812D01*
X127041500Y-71105812D01*
X127041500Y-70349404D01*
X129948452Y-67442452D01*
X130174221Y-67104565D01*
X130253500Y-66706000D01*
X130253500Y-63454404D01*
X130786404Y-62921500D01*
X132132998Y-62921500D01*
X132132998Y-63086182D01*
X132132998Y-63086182D01*
G37*
X132132998Y-63086182D02*
X131900974Y-62965042D01*
X131485053Y-63137312D01*
X131053179Y-63531510D01*
X130805032Y-64060973D01*
X130925531Y-64293000D01*
X132133000Y-64293000D01*
X132133000Y-64273000D01*
X132387000Y-64273000D01*
X132387000Y-64293000D01*
X132407000Y-64293000D01*
X132407000Y-64547000D01*
X132387000Y-64547000D01*
X132387000Y-64567000D01*
X132133000Y-64567000D01*
X132133000Y-64547000D01*
X130925531Y-64547000D01*
X130805032Y-64779027D01*
X131053179Y-65308490D01*
X131471161Y-65690008D01*
X131200330Y-65870971D01*
X130875474Y-66357152D01*
X130761400Y-66930641D01*
X130761400Y-66989359D01*
X130875474Y-67562848D01*
X131200330Y-68049029D01*
X131686511Y-68373885D01*
X132260000Y-68487959D01*
X132587671Y-68422781D01*
X134276445Y-70111556D01*
X134393000Y-70189435D01*
X134548311Y-70293211D01*
X134869000Y-70357000D01*
X138271890Y-70357000D01*
X139312000Y-71397111D01*
X139312000Y-78369118D01*
X139164683Y-78396838D01*
X138948559Y-78535910D01*
X138803569Y-78748110D01*
X138752560Y-79000000D01*
X138752560Y-80300000D01*
X138796838Y-80535317D01*
X138935910Y-80751441D01*
X139148110Y-80896431D01*
X139312000Y-80929620D01*
X139312000Y-81690000D01*
X139375789Y-82010689D01*
X139459822Y-82136452D01*
X139557445Y-82282555D01*
X139962444Y-82687555D01*
X140131390Y-82800441D01*
X140234311Y-82869211D01*
X140555000Y-82933000D01*
X140642106Y-82933000D01*
X140606060Y-83111000D01*
X140606060Y-83619000D01*
X140639553Y-83797000D01*
X139857534Y-83797000D01*
X139817866Y-83757263D01*
X139446783Y-83603176D01*
X139044980Y-83602825D01*
X138673628Y-83756264D01*
X138389263Y-84040134D01*
X138235176Y-84411217D01*
X138234825Y-84813020D01*
X138388264Y-85184372D01*
X138672134Y-85468737D01*
X139043217Y-85622824D01*
X139445020Y-85623175D01*
X139808472Y-85473000D01*
X140639911Y-85473000D01*
X140618500Y-85524691D01*
X140618500Y-85619250D01*
X140777250Y-85778000D01*
X141698000Y-85778000D01*
X141698000Y-85758000D01*
X141952000Y-85758000D01*
X141952000Y-85778000D01*
X142872750Y-85778000D01*
X143031500Y-85619250D01*
X143031500Y-85524691D01*
X142934827Y-85291302D01*
X142908291Y-85264765D01*
X142992931Y-85140890D01*
X143043940Y-84889000D01*
X143043940Y-84381000D01*
X143017064Y-84238165D01*
X143358217Y-84379824D01*
X143760020Y-84380175D01*
X144131372Y-84226736D01*
X144415737Y-83942866D01*
X144569824Y-83571783D01*
X144570175Y-83169980D01*
X144416736Y-82798628D01*
X144132866Y-82514263D01*
X143761783Y-82360176D01*
X143359980Y-82359825D01*
X143012689Y-82503322D01*
X143043940Y-82349000D01*
X143043940Y-81841000D01*
X142999662Y-81605683D01*
X142860590Y-81389559D01*
X142648390Y-81244569D01*
X142396500Y-81193560D01*
X141253500Y-81193560D01*
X141018183Y-81237838D01*
X140988404Y-81257000D01*
X140988000Y-81257000D01*
X140988000Y-80930882D01*
X141135317Y-80903162D01*
X141351441Y-80764090D01*
X141496431Y-80551890D01*
X141499081Y-80538803D01*
X141635910Y-80751441D01*
X141848110Y-80896431D01*
X142100000Y-80947440D01*
X143600000Y-80947440D01*
X143835317Y-80903162D01*
X144051441Y-80764090D01*
X144101040Y-80691500D01*
X146881252Y-80691500D01*
X146935910Y-80776441D01*
X147133500Y-80911448D01*
X147133500Y-81404072D01*
X147007069Y-81589110D01*
X146956060Y-81841000D01*
X146956060Y-82349000D01*
X146962464Y-82383034D01*
X146897783Y-82356176D01*
X146495980Y-82355825D01*
X146124628Y-82509264D01*
X145840263Y-82793134D01*
X145686176Y-83164217D01*
X145685825Y-83566020D01*
X145727849Y-83667727D01*
X145627783Y-83626176D01*
X145225980Y-83625825D01*
X144854628Y-83779264D01*
X144570263Y-84063134D01*
X144416176Y-84434217D01*
X144415825Y-84836020D01*
X144438107Y-84889946D01*
X144299980Y-84889825D01*
X143928628Y-85043264D01*
X143644263Y-85327134D01*
X143490176Y-85698217D01*
X143489825Y-86100020D01*
X143643264Y-86471372D01*
X143927134Y-86755737D01*
X144298217Y-86909824D01*
X144700020Y-86910175D01*
X145071372Y-86756736D01*
X145085132Y-86743000D01*
X147333417Y-86743000D01*
X147351610Y-86755431D01*
X147603500Y-86806440D01*
X148746500Y-86806440D01*
X148981817Y-86762162D01*
X149197941Y-86623090D01*
X149342931Y-86410890D01*
X149393940Y-86159000D01*
X149393940Y-85651000D01*
X149360447Y-85473000D01*
X151887890Y-85473000D01*
X155162000Y-88747111D01*
X155162000Y-94852889D01*
X154772445Y-95242445D01*
X154590789Y-95514311D01*
X154527000Y-95835000D01*
X154527000Y-97781869D01*
X154458559Y-97825910D01*
X154313569Y-98038110D01*
X154262560Y-98290000D01*
X154262560Y-99510000D01*
X154306838Y-99745317D01*
X154445910Y-99961441D01*
X154658110Y-100106431D01*
X154910000Y-100157440D01*
X155820000Y-100157440D01*
X156055317Y-100113162D01*
X156162000Y-100044513D01*
X156162000Y-100605461D01*
X156154683Y-100606838D01*
X155938559Y-100745910D01*
X155883153Y-100827000D01*
X154012110Y-100827000D01*
X150792554Y-97607444D01*
X150520689Y-97425789D01*
X150200000Y-97362000D01*
X146647111Y-97362000D01*
X145798000Y-96512890D01*
X145798000Y-96292530D01*
X146019670Y-96144415D01*
X146230000Y-95829634D01*
X146440330Y-96144415D01*
X146926511Y-96469271D01*
X147500000Y-96583345D01*
X148073489Y-96469271D01*
X148559670Y-96144415D01*
X148884526Y-95658234D01*
X148998600Y-95084745D01*
X148998600Y-94715255D01*
X148884526Y-94141766D01*
X148559670Y-93655585D01*
X148541500Y-93643444D01*
X148541500Y-93376000D01*
X148462221Y-92977435D01*
X148236452Y-92639548D01*
X147220452Y-91623548D01*
X146882565Y-91397779D01*
X146484000Y-91318500D01*
X138041500Y-91318500D01*
X138041500Y-91316922D01*
X138061441Y-91304090D01*
X138206431Y-91091890D01*
X138257440Y-90840000D01*
X138257440Y-89930000D01*
X138213162Y-89694683D01*
X138074090Y-89478559D01*
X137861890Y-89333569D01*
X137610000Y-89282560D01*
X136390000Y-89282560D01*
X136154683Y-89326838D01*
X135938559Y-89465910D01*
X135793569Y-89678110D01*
X135742560Y-89930000D01*
X135742560Y-90840000D01*
X135786838Y-91075317D01*
X135925910Y-91291441D01*
X135958500Y-91313709D01*
X135958500Y-94554597D01*
X134304596Y-96208500D01*
X129217009Y-96208500D01*
X129114090Y-96048559D01*
X128901890Y-95903569D01*
X128888803Y-95900919D01*
X129101441Y-95764090D01*
X129246431Y-95551890D01*
X129279620Y-95388000D01*
X130104832Y-95388000D01*
X130398217Y-95509824D01*
X130800020Y-95510175D01*
X131171372Y-95356736D01*
X131455737Y-95072866D01*
X131609824Y-94701783D01*
X131610175Y-94299980D01*
X131456736Y-93928628D01*
X131172866Y-93644263D01*
X130801783Y-93490176D01*
X130399980Y-93489825D01*
X130028628Y-93643264D01*
X129959772Y-93712000D01*
X129280882Y-93712000D01*
X129253162Y-93564683D01*
X129114090Y-93348559D01*
X128901890Y-93203569D01*
X128650000Y-93152560D01*
X127350000Y-93152560D01*
X127114683Y-93196838D01*
X126898559Y-93335910D01*
X126753569Y-93548110D01*
X126750987Y-93560860D01*
X126497490Y-93560860D01*
X126497490Y-93498430D01*
X126453212Y-93263113D01*
X126314140Y-93046989D01*
X126101940Y-92901999D01*
X125850050Y-92850990D01*
X125049950Y-92850990D01*
X124814633Y-92895268D01*
X124598509Y-93034340D01*
X124591500Y-93044598D01*
X124591500Y-92781404D01*
X126736452Y-90636452D01*
X126962221Y-90298565D01*
X127041500Y-89900000D01*
X127041500Y-88592114D01*
X150221692Y-88592114D01*
X150491806Y-89245840D01*
X150991529Y-89746436D01*
X151644782Y-90017691D01*
X152352114Y-90018308D01*
X153005840Y-89748194D01*
X153506436Y-89248471D01*
X153777691Y-88595218D01*
X153778308Y-87887886D01*
X153508194Y-87234160D01*
X153008471Y-86733564D01*
X152355218Y-86462309D01*
X151647886Y-86461692D01*
X150994160Y-86731806D01*
X150493564Y-87231529D01*
X150222309Y-87884782D01*
X150221692Y-88592114D01*
X127041500Y-88592114D01*
X127041500Y-87019382D01*
X128660223Y-87019382D01*
X128905368Y-87410888D01*
X129949360Y-87837609D01*
X131077181Y-87832330D01*
X132094632Y-87410888D01*
X132339777Y-87019382D01*
X130500000Y-85179605D01*
X128660223Y-87019382D01*
X127041500Y-87019382D01*
X127041500Y-84449360D01*
X127662391Y-84449360D01*
X127667670Y-85577181D01*
X128089112Y-86594632D01*
X128480618Y-86839777D01*
X130320395Y-85000000D01*
X130679605Y-85000000D01*
X132519382Y-86839777D01*
X132910888Y-86594632D01*
X133337609Y-85550640D01*
X133332330Y-84422819D01*
X132910888Y-83405368D01*
X132519382Y-83160223D01*
X130679605Y-85000000D01*
X130320395Y-85000000D01*
X128480618Y-83160223D01*
X128089112Y-83405368D01*
X127662391Y-84449360D01*
X127041500Y-84449360D01*
X127041500Y-82980618D01*
X128660223Y-82980618D01*
X130500000Y-84820395D01*
X132339777Y-82980618D01*
X132094632Y-82589112D01*
X131050640Y-82162391D01*
X129922819Y-82167670D01*
X128905368Y-82589112D01*
X128660223Y-82980618D01*
X127041500Y-82980618D01*
X127041500Y-72974188D01*
X128965417Y-72974188D01*
X129027071Y-73209800D01*
X129527480Y-73385927D01*
X130057199Y-73357148D01*
X130412929Y-73209800D01*
X130474583Y-72974188D01*
X129720000Y-72219605D01*
X128965417Y-72974188D01*
X127041500Y-72974188D01*
X127041500Y-71847480D01*
X128374073Y-71847480D01*
X128402852Y-72377199D01*
X128550200Y-72732929D01*
X128785812Y-72794583D01*
X129540395Y-72040000D01*
X129899605Y-72040000D01*
X130654188Y-72794583D01*
X130889800Y-72732929D01*
X130988083Y-72453688D01*
X131128854Y-72794380D01*
X131218500Y-72884182D01*
X131218500Y-80848000D01*
X131297779Y-81246565D01*
X131523548Y-81584452D01*
X135958500Y-86019404D01*
X135958500Y-86183078D01*
X135938559Y-86195910D01*
X135793569Y-86408110D01*
X135742560Y-86660000D01*
X135742560Y-87570000D01*
X135786838Y-87805317D01*
X135925910Y-88021441D01*
X136138110Y-88166431D01*
X136390000Y-88217440D01*
X137610000Y-88217440D01*
X137845317Y-88173162D01*
X138061441Y-88034090D01*
X138206431Y-87821890D01*
X138257440Y-87570000D01*
X138257440Y-86660000D01*
X138213162Y-86424683D01*
X138074090Y-86208559D01*
X138048026Y-86190750D01*
X140618500Y-86190750D01*
X140618500Y-86285309D01*
X140715173Y-86518698D01*
X140893801Y-86697327D01*
X141127190Y-86794000D01*
X141539250Y-86794000D01*
X141698000Y-86635250D01*
X141698000Y-86032000D01*
X141952000Y-86032000D01*
X141952000Y-86635250D01*
X142110750Y-86794000D01*
X142522810Y-86794000D01*
X142756199Y-86697327D01*
X142934827Y-86518698D01*
X143031500Y-86285309D01*
X143031500Y-86190750D01*
X142872750Y-86032000D01*
X141952000Y-86032000D01*
X141698000Y-86032000D01*
X140777250Y-86032000D01*
X140618500Y-86190750D01*
X138048026Y-86190750D01*
X138041500Y-86186291D01*
X138041500Y-85588000D01*
X137962221Y-85189435D01*
X137736452Y-84851548D01*
X136264821Y-83379917D01*
X136644782Y-83537691D01*
X137352114Y-83538308D01*
X138005840Y-83268194D01*
X138506436Y-82768471D01*
X138777691Y-82115218D01*
X138778308Y-81407886D01*
X138508194Y-80754160D01*
X138008471Y-80253564D01*
X137355218Y-79982309D01*
X136694637Y-79981733D01*
X135841500Y-79128596D01*
X135841500Y-73272370D01*
X135949941Y-73202590D01*
X136094931Y-72990390D01*
X136145940Y-72738500D01*
X136145940Y-71341500D01*
X136101662Y-71106183D01*
X135962590Y-70890059D01*
X135750390Y-70745069D01*
X135498500Y-70694060D01*
X134101500Y-70694060D01*
X133866183Y-70738338D01*
X133650059Y-70877410D01*
X133505069Y-71089610D01*
X133454060Y-71341500D01*
X133454060Y-71437884D01*
X133391146Y-71285620D01*
X133016353Y-70910173D01*
X132526413Y-70706732D01*
X131995914Y-70706269D01*
X131505620Y-70908854D01*
X131130173Y-71283647D01*
X130996686Y-71605118D01*
X130889800Y-71347071D01*
X130654188Y-71285417D01*
X129899605Y-72040000D01*
X129540395Y-72040000D01*
X128785812Y-71285417D01*
X128550200Y-71347071D01*
X128374073Y-71847480D01*
X127041500Y-71847480D01*
X127041500Y-71105812D01*
X128965417Y-71105812D01*
X129720000Y-71860395D01*
X130474583Y-71105812D01*
X130412929Y-70870200D01*
X129912520Y-70694073D01*
X129382801Y-70722852D01*
X129027071Y-70870200D01*
X128965417Y-71105812D01*
X127041500Y-71105812D01*
X127041500Y-70349404D01*
X129948452Y-67442452D01*
X130174221Y-67104565D01*
X130253500Y-66706000D01*
X130253500Y-63454404D01*
X130786404Y-62921500D01*
X132132998Y-62921500D01*
X132132998Y-63086182D01*
G36*
X166575585Y-83259670D02*
X166890366Y-83470000D01*
X166575585Y-83680330D01*
X166250729Y-84166511D01*
X166136655Y-84740000D01*
X166250729Y-85313489D01*
X166575585Y-85799670D01*
X166597780Y-85814500D01*
X166444301Y-85878073D01*
X166265673Y-86056702D01*
X166169000Y-86290091D01*
X166169000Y-86994250D01*
X166327750Y-87153000D01*
X167693000Y-87153000D01*
X167693000Y-87133000D01*
X167947000Y-87133000D01*
X167947000Y-87153000D01*
X167967000Y-87153000D01*
X167967000Y-87407000D01*
X167947000Y-87407000D01*
X167947000Y-88619850D01*
X168105750Y-88778600D01*
X168962310Y-88778600D01*
X169195699Y-88681927D01*
X169290000Y-88587625D01*
X169290000Y-94177942D01*
X169064415Y-93840330D01*
X168578234Y-93515474D01*
X168004745Y-93401400D01*
X167635255Y-93401400D01*
X167061766Y-93515474D01*
X166575585Y-93840330D01*
X166563444Y-93858500D01*
X165965403Y-93858500D01*
X164924500Y-92817596D01*
X164924500Y-92416995D01*
X165078217Y-92480824D01*
X165480020Y-92481175D01*
X165851372Y-92327736D01*
X166135737Y-92043866D01*
X166289824Y-91672783D01*
X166290175Y-91270980D01*
X166136736Y-90899628D01*
X166118000Y-90880859D01*
X166118000Y-87565750D01*
X166169000Y-87565750D01*
X166169000Y-88269909D01*
X166265673Y-88503298D01*
X166444301Y-88681927D01*
X166677690Y-88778600D01*
X167534250Y-88778600D01*
X167693000Y-88619850D01*
X167693000Y-87407000D01*
X166327750Y-87407000D01*
X166169000Y-87565750D01*
X166118000Y-87565750D01*
X166118000Y-83690110D01*
X166564712Y-83243398D01*
X166575585Y-83259670D01*
X166575585Y-83259670D01*
G37*
X166575585Y-83259670D02*
X166890366Y-83470000D01*
X166575585Y-83680330D01*
X166250729Y-84166511D01*
X166136655Y-84740000D01*
X166250729Y-85313489D01*
X166575585Y-85799670D01*
X166597780Y-85814500D01*
X166444301Y-85878073D01*
X166265673Y-86056702D01*
X166169000Y-86290091D01*
X166169000Y-86994250D01*
X166327750Y-87153000D01*
X167693000Y-87153000D01*
X167693000Y-87133000D01*
X167947000Y-87133000D01*
X167947000Y-87153000D01*
X167967000Y-87153000D01*
X167967000Y-87407000D01*
X167947000Y-87407000D01*
X167947000Y-88619850D01*
X168105750Y-88778600D01*
X168962310Y-88778600D01*
X169195699Y-88681927D01*
X169290000Y-88587625D01*
X169290000Y-94177942D01*
X169064415Y-93840330D01*
X168578234Y-93515474D01*
X168004745Y-93401400D01*
X167635255Y-93401400D01*
X167061766Y-93515474D01*
X166575585Y-93840330D01*
X166563444Y-93858500D01*
X165965403Y-93858500D01*
X164924500Y-92817596D01*
X164924500Y-92416995D01*
X165078217Y-92480824D01*
X165480020Y-92481175D01*
X165851372Y-92327736D01*
X166135737Y-92043866D01*
X166289824Y-91672783D01*
X166290175Y-91270980D01*
X166136736Y-90899628D01*
X166118000Y-90880859D01*
X166118000Y-87565750D01*
X166169000Y-87565750D01*
X166169000Y-88269909D01*
X166265673Y-88503298D01*
X166444301Y-88681927D01*
X166677690Y-88778600D01*
X167534250Y-88778600D01*
X167693000Y-88619850D01*
X167693000Y-87407000D01*
X166327750Y-87407000D01*
X166169000Y-87565750D01*
X166118000Y-87565750D01*
X166118000Y-83690110D01*
X166564712Y-83243398D01*
X166575585Y-83259670D01*
G36*
X121849754Y-60734181D02*
X121805640Y-60763657D01*
X121438695Y-61259090D01*
X124000000Y-63820395D01*
X126561305Y-61259090D01*
X126194360Y-60763657D01*
X126067266Y-60710000D01*
X163909271Y-60710000D01*
X163849754Y-60734181D01*
X163805640Y-60763657D01*
X163438695Y-61259090D01*
X166000000Y-63820395D01*
X168561305Y-61259090D01*
X168194360Y-60763657D01*
X168067266Y-60710000D01*
X169290000Y-60710000D01*
X169290000Y-61909271D01*
X169265819Y-61849754D01*
X169236343Y-61805640D01*
X168740910Y-61438695D01*
X166179605Y-64000000D01*
X168740910Y-66561305D01*
X169236343Y-66194360D01*
X169290000Y-66067266D01*
X169290000Y-81477942D01*
X169064415Y-81140330D01*
X168578234Y-80815474D01*
X168004745Y-80701400D01*
X167635255Y-80701400D01*
X167061766Y-80815474D01*
X166575585Y-81140330D01*
X166427470Y-81362000D01*
X166423000Y-81362000D01*
X166102311Y-81425789D01*
X165830444Y-81607445D01*
X164924500Y-82513390D01*
X164924500Y-78771000D01*
X164845221Y-78372435D01*
X164619452Y-78034548D01*
X163791500Y-77206596D01*
X163791500Y-71792009D01*
X163951441Y-71689090D01*
X163997969Y-71620994D01*
X164140302Y-71763327D01*
X164373691Y-71860000D01*
X164964250Y-71860000D01*
X165123000Y-71701250D01*
X165123000Y-70727000D01*
X165377000Y-70727000D01*
X165377000Y-71701250D01*
X165535750Y-71860000D01*
X166126309Y-71860000D01*
X166359698Y-71763327D01*
X166538327Y-71584699D01*
X166635000Y-71351310D01*
X166635000Y-70885750D01*
X166476250Y-70727000D01*
X165377000Y-70727000D01*
X165123000Y-70727000D01*
X165103000Y-70727000D01*
X165103000Y-70473000D01*
X165123000Y-70473000D01*
X165123000Y-69498750D01*
X165377000Y-69498750D01*
X165377000Y-70473000D01*
X166476250Y-70473000D01*
X166635000Y-70314250D01*
X166635000Y-69848690D01*
X166538327Y-69615301D01*
X166359698Y-69436673D01*
X166126309Y-69340000D01*
X165535750Y-69340000D01*
X165377000Y-69498750D01*
X165123000Y-69498750D01*
X164964250Y-69340000D01*
X164373691Y-69340000D01*
X164140302Y-69436673D01*
X163999064Y-69577910D01*
X163964090Y-69523559D01*
X163751890Y-69378569D01*
X163500000Y-69327560D01*
X162000000Y-69327560D01*
X161764683Y-69371838D01*
X161552304Y-69508500D01*
X161186266Y-69508500D01*
X161147162Y-69300683D01*
X161008090Y-69084559D01*
X160795890Y-68939569D01*
X160544000Y-68888560D01*
X159528000Y-68888560D01*
X159292683Y-68932838D01*
X159076559Y-69071910D01*
X158931569Y-69284110D01*
X158893000Y-69474569D01*
X158893000Y-69409690D01*
X158796327Y-69176301D01*
X158617698Y-68997673D01*
X158384309Y-68901000D01*
X158035750Y-68901000D01*
X157877000Y-69059750D01*
X157877000Y-70425000D01*
X157897000Y-70425000D01*
X157897000Y-70679000D01*
X157877000Y-70679000D01*
X157877000Y-72044250D01*
X158035750Y-72203000D01*
X158384309Y-72203000D01*
X158617698Y-72106327D01*
X158796327Y-71927699D01*
X158893000Y-71694310D01*
X158893000Y-71634113D01*
X158924838Y-71803317D01*
X158994500Y-71911575D01*
X158994500Y-78132596D01*
X156073596Y-81053500D01*
X149216500Y-81053500D01*
X149216500Y-80875922D01*
X149351441Y-80789090D01*
X149397969Y-80720994D01*
X149540302Y-80863327D01*
X149773691Y-80960000D01*
X150364250Y-80960000D01*
X150523000Y-80801250D01*
X150523000Y-79827000D01*
X150777000Y-79827000D01*
X150777000Y-80801250D01*
X150935750Y-80960000D01*
X151526309Y-80960000D01*
X151759698Y-80863327D01*
X151938327Y-80684699D01*
X152035000Y-80451310D01*
X152035000Y-79985750D01*
X151876250Y-79827000D01*
X150777000Y-79827000D01*
X150523000Y-79827000D01*
X150503000Y-79827000D01*
X150503000Y-79573000D01*
X150523000Y-79573000D01*
X150523000Y-78598750D01*
X150777000Y-78598750D01*
X150777000Y-79573000D01*
X151876250Y-79573000D01*
X152035000Y-79414250D01*
X152035000Y-78948690D01*
X151938327Y-78715301D01*
X151759698Y-78536673D01*
X151526309Y-78440000D01*
X150935750Y-78440000D01*
X150777000Y-78598750D01*
X150523000Y-78598750D01*
X150364250Y-78440000D01*
X149773691Y-78440000D01*
X149540302Y-78536673D01*
X149399064Y-78677910D01*
X149364090Y-78623559D01*
X149151890Y-78478569D01*
X148900000Y-78427560D01*
X147400000Y-78427560D01*
X147164683Y-78471838D01*
X146952304Y-78608500D01*
X144102661Y-78608500D01*
X144064090Y-78548559D01*
X143851890Y-78403569D01*
X143600000Y-78352560D01*
X142100000Y-78352560D01*
X141864683Y-78396838D01*
X141648559Y-78535910D01*
X141503569Y-78748110D01*
X141500919Y-78761197D01*
X141364090Y-78548559D01*
X141151890Y-78403569D01*
X140988000Y-78370380D01*
X140988000Y-71050000D01*
X140924211Y-70729311D01*
X140804399Y-70550000D01*
X140742556Y-70457445D01*
X139723110Y-69438000D01*
X140252890Y-69438000D01*
X143162000Y-72347111D01*
X143162000Y-74901428D01*
X143144263Y-74919134D01*
X142990176Y-75290217D01*
X142989825Y-75692020D01*
X143143264Y-76063372D01*
X143427134Y-76347737D01*
X143798217Y-76501824D01*
X144200020Y-76502175D01*
X144571372Y-76348736D01*
X144588000Y-76332137D01*
X144588000Y-76679428D01*
X144570263Y-76697134D01*
X144416176Y-77068217D01*
X144415825Y-77470020D01*
X144569264Y-77841372D01*
X144853134Y-78125737D01*
X145224217Y-78279824D01*
X145626020Y-78280175D01*
X145997372Y-78126736D01*
X146281737Y-77842866D01*
X146435824Y-77471783D01*
X146436175Y-77069980D01*
X146282736Y-76698628D01*
X146264000Y-76679859D01*
X146264000Y-72847129D01*
X146283779Y-72946565D01*
X146509548Y-73284452D01*
X148287548Y-75062452D01*
X148625435Y-75288221D01*
X149024000Y-75367501D01*
X149024005Y-75367500D01*
X151564000Y-75367500D01*
X151962565Y-75288221D01*
X152300452Y-75062452D01*
X153186452Y-74176452D01*
X153412221Y-73838565D01*
X153491500Y-73440000D01*
X153491500Y-72692009D01*
X153651441Y-72589090D01*
X153796431Y-72376890D01*
X153847440Y-72125000D01*
X153847440Y-71625463D01*
X153879403Y-71593500D01*
X154313358Y-71593500D01*
X154352838Y-71803317D01*
X154422500Y-71911575D01*
X154422500Y-73918800D01*
X154454659Y-74080476D01*
X154454625Y-74119620D01*
X154469705Y-74156116D01*
X154501779Y-74317365D01*
X154592321Y-74452870D01*
X154608064Y-74490972D01*
X154637447Y-74520406D01*
X154727548Y-74655252D01*
X154728348Y-74656051D01*
X154862012Y-74745363D01*
X154891934Y-74775337D01*
X154931392Y-74791721D01*
X155066235Y-74881821D01*
X155223905Y-74913183D01*
X155263017Y-74929424D01*
X155305741Y-74929461D01*
X155464800Y-74961100D01*
X155622468Y-74929738D01*
X155664820Y-74929775D01*
X155704307Y-74913459D01*
X155863365Y-74881821D01*
X155997026Y-74792511D01*
X156036172Y-74776336D01*
X156066413Y-74746147D01*
X156201251Y-74656051D01*
X156290562Y-74522389D01*
X156320537Y-74492466D01*
X156336922Y-74453007D01*
X156427021Y-74318165D01*
X156458383Y-74160495D01*
X156474624Y-74121383D01*
X156474661Y-74078659D01*
X156506300Y-73919600D01*
X156505500Y-73915578D01*
X156505500Y-71911993D01*
X156568431Y-71819890D01*
X156607000Y-71629431D01*
X156607000Y-71694310D01*
X156703673Y-71927699D01*
X156882302Y-72106327D01*
X157115691Y-72203000D01*
X157464250Y-72203000D01*
X157623000Y-72044250D01*
X157623000Y-70679000D01*
X157603000Y-70679000D01*
X157603000Y-70425000D01*
X157623000Y-70425000D01*
X157623000Y-69059750D01*
X157464250Y-68901000D01*
X157115691Y-68901000D01*
X156882302Y-68997673D01*
X156703673Y-69176301D01*
X156607000Y-69409690D01*
X156607000Y-69469887D01*
X156575162Y-69300683D01*
X156436090Y-69084559D01*
X156223890Y-68939569D01*
X155972000Y-68888560D01*
X154956000Y-68888560D01*
X154720683Y-68932838D01*
X154504559Y-69071910D01*
X154359569Y-69284110D01*
X154313724Y-69510500D01*
X153448000Y-69510500D01*
X153049435Y-69589779D01*
X152711548Y-69815548D01*
X152711546Y-69815551D01*
X152299537Y-70227560D01*
X151700000Y-70227560D01*
X151464683Y-70271838D01*
X151248559Y-70410910D01*
X151202031Y-70479006D01*
X151059698Y-70336673D01*
X150826309Y-70240000D01*
X150235750Y-70240000D01*
X150077000Y-70398750D01*
X150077000Y-71373000D01*
X150097000Y-71373000D01*
X150097000Y-71627000D01*
X150077000Y-71627000D01*
X150077000Y-72601250D01*
X150235750Y-72760000D01*
X150826309Y-72760000D01*
X151059698Y-72663327D01*
X151200936Y-72522090D01*
X151235910Y-72576441D01*
X151408500Y-72694367D01*
X151408500Y-73008596D01*
X151132596Y-73284500D01*
X149455404Y-73284500D01*
X148287500Y-72116596D01*
X148287500Y-71785750D01*
X148565000Y-71785750D01*
X148565000Y-72251310D01*
X148661673Y-72484699D01*
X148840302Y-72663327D01*
X149073691Y-72760000D01*
X149664250Y-72760000D01*
X149823000Y-72601250D01*
X149823000Y-71627000D01*
X148723750Y-71627000D01*
X148565000Y-71785750D01*
X148287500Y-71785750D01*
X148287500Y-70770000D01*
X148283262Y-70748690D01*
X148565000Y-70748690D01*
X148565000Y-71214250D01*
X148723750Y-71373000D01*
X149823000Y-71373000D01*
X149823000Y-70398750D01*
X149664250Y-70240000D01*
X149073691Y-70240000D01*
X148840302Y-70336673D01*
X148661673Y-70515301D01*
X148565000Y-70748690D01*
X148283262Y-70748690D01*
X148208221Y-70371435D01*
X147982452Y-70033548D01*
X147204867Y-69255963D01*
X150923642Y-69255963D01*
X151039806Y-69537658D01*
X151701333Y-69788062D01*
X152408329Y-69766249D01*
X152960194Y-69537658D01*
X153076358Y-69255963D01*
X152000000Y-68179605D01*
X150923642Y-69255963D01*
X147204867Y-69255963D01*
X145650237Y-67701333D01*
X150211938Y-67701333D01*
X150233751Y-68408329D01*
X150462342Y-68960194D01*
X150744037Y-69076358D01*
X151820395Y-68000000D01*
X152179605Y-68000000D01*
X153255963Y-69076358D01*
X153537658Y-68960194D01*
X153788062Y-68298667D01*
X153766249Y-67591671D01*
X153537658Y-67039806D01*
X153255963Y-66923642D01*
X152179605Y-68000000D01*
X151820395Y-68000000D01*
X150744037Y-66923642D01*
X150462342Y-67039806D01*
X150211938Y-67701333D01*
X145650237Y-67701333D01*
X144692941Y-66744037D01*
X150923642Y-66744037D01*
X152000000Y-67820395D01*
X153076358Y-66744037D01*
X153075069Y-66740910D01*
X163438695Y-66740910D01*
X163805640Y-67236343D01*
X165211171Y-67829736D01*
X166736793Y-67840087D01*
X168150246Y-67265819D01*
X168194360Y-67236343D01*
X168561305Y-66740910D01*
X166000000Y-64179605D01*
X163438695Y-66740910D01*
X153075069Y-66740910D01*
X152960194Y-66462342D01*
X152298667Y-66211938D01*
X151591671Y-66233751D01*
X151039806Y-66462342D01*
X150923642Y-66744037D01*
X144692941Y-66744037D01*
X142182654Y-64233750D01*
X155286200Y-64233750D01*
X155286200Y-65090310D01*
X155382873Y-65323699D01*
X155561502Y-65502327D01*
X155794891Y-65599000D01*
X157464250Y-65599000D01*
X157623000Y-65440250D01*
X157623000Y-64075000D01*
X157877000Y-64075000D01*
X157877000Y-65440250D01*
X158035750Y-65599000D01*
X159705109Y-65599000D01*
X159938498Y-65502327D01*
X160117127Y-65323699D01*
X160213800Y-65090310D01*
X160213800Y-64736793D01*
X162159913Y-64736793D01*
X162734181Y-66150246D01*
X162763657Y-66194360D01*
X163259090Y-66561305D01*
X165820395Y-64000000D01*
X163259090Y-61438695D01*
X162763657Y-61805640D01*
X162170264Y-63211171D01*
X162159913Y-64736793D01*
X160213800Y-64736793D01*
X160213800Y-64233750D01*
X160055050Y-64075000D01*
X157877000Y-64075000D01*
X157623000Y-64075000D01*
X155444950Y-64075000D01*
X155286200Y-64233750D01*
X142182654Y-64233750D01*
X141632452Y-63683548D01*
X141294565Y-63457779D01*
X140896000Y-63378500D01*
X138431428Y-63378500D01*
X138399670Y-63330971D01*
X138381500Y-63318830D01*
X138381500Y-62896000D01*
X138363537Y-62805690D01*
X155286200Y-62805690D01*
X155286200Y-63662250D01*
X155444950Y-63821000D01*
X157623000Y-63821000D01*
X157623000Y-62455750D01*
X157877000Y-62455750D01*
X157877000Y-63821000D01*
X160055050Y-63821000D01*
X160213800Y-63662250D01*
X160213800Y-62805690D01*
X160117127Y-62572301D01*
X159938498Y-62393673D01*
X159705109Y-62297000D01*
X158035750Y-62297000D01*
X157877000Y-62455750D01*
X157623000Y-62455750D01*
X157464250Y-62297000D01*
X155794891Y-62297000D01*
X155561502Y-62393673D01*
X155382873Y-62572301D01*
X155286200Y-62805690D01*
X138363537Y-62805690D01*
X138302221Y-62497435D01*
X138076452Y-62159548D01*
X137060452Y-61143548D01*
X136722565Y-60917779D01*
X136324000Y-60838500D01*
X130355000Y-60838500D01*
X129956435Y-60917779D01*
X129618548Y-61143548D01*
X128475548Y-62286548D01*
X128249779Y-62624435D01*
X128170500Y-63023000D01*
X128170500Y-66274596D01*
X125263548Y-69181548D01*
X125037779Y-69519435D01*
X124958500Y-69918000D01*
X124958500Y-83698500D01*
X123356556Y-83698500D01*
X123344415Y-83680330D01*
X123322220Y-83665500D01*
X123475699Y-83601927D01*
X123654327Y-83423298D01*
X123751000Y-83189909D01*
X123751000Y-82485750D01*
X123592250Y-82327000D01*
X122227000Y-82327000D01*
X122227000Y-82347000D01*
X121973000Y-82347000D01*
X121973000Y-82327000D01*
X121953000Y-82327000D01*
X121953000Y-82073000D01*
X121973000Y-82073000D01*
X121973000Y-80860150D01*
X122227000Y-80860150D01*
X122227000Y-82073000D01*
X123592250Y-82073000D01*
X123751000Y-81914250D01*
X123751000Y-81210091D01*
X123654327Y-80976702D01*
X123475699Y-80798073D01*
X123242310Y-80701400D01*
X122385750Y-80701400D01*
X122227000Y-80860150D01*
X121973000Y-80860150D01*
X121814250Y-80701400D01*
X120957690Y-80701400D01*
X120724301Y-80798073D01*
X120710000Y-80812374D01*
X120710000Y-75462746D01*
X120900222Y-75747433D01*
X121435845Y-76105325D01*
X122067655Y-76231000D01*
X122132345Y-76231000D01*
X122764155Y-76105325D01*
X123299778Y-75747433D01*
X123657670Y-75211810D01*
X123783345Y-74580000D01*
X123657670Y-73948190D01*
X123433034Y-73611999D01*
X123475698Y-73594327D01*
X123654327Y-73415699D01*
X123751000Y-73182310D01*
X123751000Y-72325750D01*
X123592250Y-72167000D01*
X122227000Y-72167000D01*
X122227000Y-72187000D01*
X121973000Y-72187000D01*
X121973000Y-72167000D01*
X121953000Y-72167000D01*
X121953000Y-71913000D01*
X121973000Y-71913000D01*
X121973000Y-70547750D01*
X122227000Y-70547750D01*
X122227000Y-71913000D01*
X123592250Y-71913000D01*
X123751000Y-71754250D01*
X123751000Y-70897690D01*
X123654327Y-70664301D01*
X123475698Y-70485673D01*
X123242309Y-70389000D01*
X122385750Y-70389000D01*
X122227000Y-70547750D01*
X121973000Y-70547750D01*
X121814250Y-70389000D01*
X120957691Y-70389000D01*
X120724302Y-70485673D01*
X120710000Y-70499975D01*
X120710000Y-66740910D01*
X121438695Y-66740910D01*
X121805640Y-67236343D01*
X123211171Y-67829736D01*
X124736793Y-67840087D01*
X126150246Y-67265819D01*
X126194360Y-67236343D01*
X126561305Y-66740910D01*
X124000000Y-64179605D01*
X121438695Y-66740910D01*
X120710000Y-66740910D01*
X120710000Y-66090729D01*
X120734181Y-66150246D01*
X120763657Y-66194360D01*
X121259090Y-66561305D01*
X123820395Y-64000000D01*
X124179605Y-64000000D01*
X126740910Y-66561305D01*
X127236343Y-66194360D01*
X127829736Y-64788829D01*
X127840087Y-63263207D01*
X127265819Y-61849754D01*
X127236343Y-61805640D01*
X126740910Y-61438695D01*
X124179605Y-64000000D01*
X123820395Y-64000000D01*
X121259090Y-61438695D01*
X120763657Y-61805640D01*
X120710000Y-61932734D01*
X120710000Y-60710000D01*
X121909271Y-60710000D01*
X121849754Y-60734181D01*
X121849754Y-60734181D01*
G37*
X121849754Y-60734181D02*
X121805640Y-60763657D01*
X121438695Y-61259090D01*
X124000000Y-63820395D01*
X126561305Y-61259090D01*
X126194360Y-60763657D01*
X126067266Y-60710000D01*
X163909271Y-60710000D01*
X163849754Y-60734181D01*
X163805640Y-60763657D01*
X163438695Y-61259090D01*
X166000000Y-63820395D01*
X168561305Y-61259090D01*
X168194360Y-60763657D01*
X168067266Y-60710000D01*
X169290000Y-60710000D01*
X169290000Y-61909271D01*
X169265819Y-61849754D01*
X169236343Y-61805640D01*
X168740910Y-61438695D01*
X166179605Y-64000000D01*
X168740910Y-66561305D01*
X169236343Y-66194360D01*
X169290000Y-66067266D01*
X169290000Y-81477942D01*
X169064415Y-81140330D01*
X168578234Y-80815474D01*
X168004745Y-80701400D01*
X167635255Y-80701400D01*
X167061766Y-80815474D01*
X166575585Y-81140330D01*
X166427470Y-81362000D01*
X166423000Y-81362000D01*
X166102311Y-81425789D01*
X165830444Y-81607445D01*
X164924500Y-82513390D01*
X164924500Y-78771000D01*
X164845221Y-78372435D01*
X164619452Y-78034548D01*
X163791500Y-77206596D01*
X163791500Y-71792009D01*
X163951441Y-71689090D01*
X163997969Y-71620994D01*
X164140302Y-71763327D01*
X164373691Y-71860000D01*
X164964250Y-71860000D01*
X165123000Y-71701250D01*
X165123000Y-70727000D01*
X165377000Y-70727000D01*
X165377000Y-71701250D01*
X165535750Y-71860000D01*
X166126309Y-71860000D01*
X166359698Y-71763327D01*
X166538327Y-71584699D01*
X166635000Y-71351310D01*
X166635000Y-70885750D01*
X166476250Y-70727000D01*
X165377000Y-70727000D01*
X165123000Y-70727000D01*
X165103000Y-70727000D01*
X165103000Y-70473000D01*
X165123000Y-70473000D01*
X165123000Y-69498750D01*
X165377000Y-69498750D01*
X165377000Y-70473000D01*
X166476250Y-70473000D01*
X166635000Y-70314250D01*
X166635000Y-69848690D01*
X166538327Y-69615301D01*
X166359698Y-69436673D01*
X166126309Y-69340000D01*
X165535750Y-69340000D01*
X165377000Y-69498750D01*
X165123000Y-69498750D01*
X164964250Y-69340000D01*
X164373691Y-69340000D01*
X164140302Y-69436673D01*
X163999064Y-69577910D01*
X163964090Y-69523559D01*
X163751890Y-69378569D01*
X163500000Y-69327560D01*
X162000000Y-69327560D01*
X161764683Y-69371838D01*
X161552304Y-69508500D01*
X161186266Y-69508500D01*
X161147162Y-69300683D01*
X161008090Y-69084559D01*
X160795890Y-68939569D01*
X160544000Y-68888560D01*
X159528000Y-68888560D01*
X159292683Y-68932838D01*
X159076559Y-69071910D01*
X158931569Y-69284110D01*
X158893000Y-69474569D01*
X158893000Y-69409690D01*
X158796327Y-69176301D01*
X158617698Y-68997673D01*
X158384309Y-68901000D01*
X158035750Y-68901000D01*
X157877000Y-69059750D01*
X157877000Y-70425000D01*
X157897000Y-70425000D01*
X157897000Y-70679000D01*
X157877000Y-70679000D01*
X157877000Y-72044250D01*
X158035750Y-72203000D01*
X158384309Y-72203000D01*
X158617698Y-72106327D01*
X158796327Y-71927699D01*
X158893000Y-71694310D01*
X158893000Y-71634113D01*
X158924838Y-71803317D01*
X158994500Y-71911575D01*
X158994500Y-78132596D01*
X156073596Y-81053500D01*
X149216500Y-81053500D01*
X149216500Y-80875922D01*
X149351441Y-80789090D01*
X149397969Y-80720994D01*
X149540302Y-80863327D01*
X149773691Y-80960000D01*
X150364250Y-80960000D01*
X150523000Y-80801250D01*
X150523000Y-79827000D01*
X150777000Y-79827000D01*
X150777000Y-80801250D01*
X150935750Y-80960000D01*
X151526309Y-80960000D01*
X151759698Y-80863327D01*
X151938327Y-80684699D01*
X152035000Y-80451310D01*
X152035000Y-79985750D01*
X151876250Y-79827000D01*
X150777000Y-79827000D01*
X150523000Y-79827000D01*
X150503000Y-79827000D01*
X150503000Y-79573000D01*
X150523000Y-79573000D01*
X150523000Y-78598750D01*
X150777000Y-78598750D01*
X150777000Y-79573000D01*
X151876250Y-79573000D01*
X152035000Y-79414250D01*
X152035000Y-78948690D01*
X151938327Y-78715301D01*
X151759698Y-78536673D01*
X151526309Y-78440000D01*
X150935750Y-78440000D01*
X150777000Y-78598750D01*
X150523000Y-78598750D01*
X150364250Y-78440000D01*
X149773691Y-78440000D01*
X149540302Y-78536673D01*
X149399064Y-78677910D01*
X149364090Y-78623559D01*
X149151890Y-78478569D01*
X148900000Y-78427560D01*
X147400000Y-78427560D01*
X147164683Y-78471838D01*
X146952304Y-78608500D01*
X144102661Y-78608500D01*
X144064090Y-78548559D01*
X143851890Y-78403569D01*
X143600000Y-78352560D01*
X142100000Y-78352560D01*
X141864683Y-78396838D01*
X141648559Y-78535910D01*
X141503569Y-78748110D01*
X141500919Y-78761197D01*
X141364090Y-78548559D01*
X141151890Y-78403569D01*
X140988000Y-78370380D01*
X140988000Y-71050000D01*
X140924211Y-70729311D01*
X140804399Y-70550000D01*
X140742556Y-70457445D01*
X139723110Y-69438000D01*
X140252890Y-69438000D01*
X143162000Y-72347111D01*
X143162000Y-74901428D01*
X143144263Y-74919134D01*
X142990176Y-75290217D01*
X142989825Y-75692020D01*
X143143264Y-76063372D01*
X143427134Y-76347737D01*
X143798217Y-76501824D01*
X144200020Y-76502175D01*
X144571372Y-76348736D01*
X144588000Y-76332137D01*
X144588000Y-76679428D01*
X144570263Y-76697134D01*
X144416176Y-77068217D01*
X144415825Y-77470020D01*
X144569264Y-77841372D01*
X144853134Y-78125737D01*
X145224217Y-78279824D01*
X145626020Y-78280175D01*
X145997372Y-78126736D01*
X146281737Y-77842866D01*
X146435824Y-77471783D01*
X146436175Y-77069980D01*
X146282736Y-76698628D01*
X146264000Y-76679859D01*
X146264000Y-72847129D01*
X146283779Y-72946565D01*
X146509548Y-73284452D01*
X148287548Y-75062452D01*
X148625435Y-75288221D01*
X149024000Y-75367501D01*
X149024005Y-75367500D01*
X151564000Y-75367500D01*
X151962565Y-75288221D01*
X152300452Y-75062452D01*
X153186452Y-74176452D01*
X153412221Y-73838565D01*
X153491500Y-73440000D01*
X153491500Y-72692009D01*
X153651441Y-72589090D01*
X153796431Y-72376890D01*
X153847440Y-72125000D01*
X153847440Y-71625463D01*
X153879403Y-71593500D01*
X154313358Y-71593500D01*
X154352838Y-71803317D01*
X154422500Y-71911575D01*
X154422500Y-73918800D01*
X154454659Y-74080476D01*
X154454625Y-74119620D01*
X154469705Y-74156116D01*
X154501779Y-74317365D01*
X154592321Y-74452870D01*
X154608064Y-74490972D01*
X154637447Y-74520406D01*
X154727548Y-74655252D01*
X154728348Y-74656051D01*
X154862012Y-74745363D01*
X154891934Y-74775337D01*
X154931392Y-74791721D01*
X155066235Y-74881821D01*
X155223905Y-74913183D01*
X155263017Y-74929424D01*
X155305741Y-74929461D01*
X155464800Y-74961100D01*
X155622468Y-74929738D01*
X155664820Y-74929775D01*
X155704307Y-74913459D01*
X155863365Y-74881821D01*
X155997026Y-74792511D01*
X156036172Y-74776336D01*
X156066413Y-74746147D01*
X156201251Y-74656051D01*
X156290562Y-74522389D01*
X156320537Y-74492466D01*
X156336922Y-74453007D01*
X156427021Y-74318165D01*
X156458383Y-74160495D01*
X156474624Y-74121383D01*
X156474661Y-74078659D01*
X156506300Y-73919600D01*
X156505500Y-73915578D01*
X156505500Y-71911993D01*
X156568431Y-71819890D01*
X156607000Y-71629431D01*
X156607000Y-71694310D01*
X156703673Y-71927699D01*
X156882302Y-72106327D01*
X157115691Y-72203000D01*
X157464250Y-72203000D01*
X157623000Y-72044250D01*
X157623000Y-70679000D01*
X157603000Y-70679000D01*
X157603000Y-70425000D01*
X157623000Y-70425000D01*
X157623000Y-69059750D01*
X157464250Y-68901000D01*
X157115691Y-68901000D01*
X156882302Y-68997673D01*
X156703673Y-69176301D01*
X156607000Y-69409690D01*
X156607000Y-69469887D01*
X156575162Y-69300683D01*
X156436090Y-69084559D01*
X156223890Y-68939569D01*
X155972000Y-68888560D01*
X154956000Y-68888560D01*
X154720683Y-68932838D01*
X154504559Y-69071910D01*
X154359569Y-69284110D01*
X154313724Y-69510500D01*
X153448000Y-69510500D01*
X153049435Y-69589779D01*
X152711548Y-69815548D01*
X152711546Y-69815551D01*
X152299537Y-70227560D01*
X151700000Y-70227560D01*
X151464683Y-70271838D01*
X151248559Y-70410910D01*
X151202031Y-70479006D01*
X151059698Y-70336673D01*
X150826309Y-70240000D01*
X150235750Y-70240000D01*
X150077000Y-70398750D01*
X150077000Y-71373000D01*
X150097000Y-71373000D01*
X150097000Y-71627000D01*
X150077000Y-71627000D01*
X150077000Y-72601250D01*
X150235750Y-72760000D01*
X150826309Y-72760000D01*
X151059698Y-72663327D01*
X151200936Y-72522090D01*
X151235910Y-72576441D01*
X151408500Y-72694367D01*
X151408500Y-73008596D01*
X151132596Y-73284500D01*
X149455404Y-73284500D01*
X148287500Y-72116596D01*
X148287500Y-71785750D01*
X148565000Y-71785750D01*
X148565000Y-72251310D01*
X148661673Y-72484699D01*
X148840302Y-72663327D01*
X149073691Y-72760000D01*
X149664250Y-72760000D01*
X149823000Y-72601250D01*
X149823000Y-71627000D01*
X148723750Y-71627000D01*
X148565000Y-71785750D01*
X148287500Y-71785750D01*
X148287500Y-70770000D01*
X148283262Y-70748690D01*
X148565000Y-70748690D01*
X148565000Y-71214250D01*
X148723750Y-71373000D01*
X149823000Y-71373000D01*
X149823000Y-70398750D01*
X149664250Y-70240000D01*
X149073691Y-70240000D01*
X148840302Y-70336673D01*
X148661673Y-70515301D01*
X148565000Y-70748690D01*
X148283262Y-70748690D01*
X148208221Y-70371435D01*
X147982452Y-70033548D01*
X147204867Y-69255963D01*
X150923642Y-69255963D01*
X151039806Y-69537658D01*
X151701333Y-69788062D01*
X152408329Y-69766249D01*
X152960194Y-69537658D01*
X153076358Y-69255963D01*
X152000000Y-68179605D01*
X150923642Y-69255963D01*
X147204867Y-69255963D01*
X145650237Y-67701333D01*
X150211938Y-67701333D01*
X150233751Y-68408329D01*
X150462342Y-68960194D01*
X150744037Y-69076358D01*
X151820395Y-68000000D01*
X152179605Y-68000000D01*
X153255963Y-69076358D01*
X153537658Y-68960194D01*
X153788062Y-68298667D01*
X153766249Y-67591671D01*
X153537658Y-67039806D01*
X153255963Y-66923642D01*
X152179605Y-68000000D01*
X151820395Y-68000000D01*
X150744037Y-66923642D01*
X150462342Y-67039806D01*
X150211938Y-67701333D01*
X145650237Y-67701333D01*
X144692941Y-66744037D01*
X150923642Y-66744037D01*
X152000000Y-67820395D01*
X153076358Y-66744037D01*
X153075069Y-66740910D01*
X163438695Y-66740910D01*
X163805640Y-67236343D01*
X165211171Y-67829736D01*
X166736793Y-67840087D01*
X168150246Y-67265819D01*
X168194360Y-67236343D01*
X168561305Y-66740910D01*
X166000000Y-64179605D01*
X163438695Y-66740910D01*
X153075069Y-66740910D01*
X152960194Y-66462342D01*
X152298667Y-66211938D01*
X151591671Y-66233751D01*
X151039806Y-66462342D01*
X150923642Y-66744037D01*
X144692941Y-66744037D01*
X142182654Y-64233750D01*
X155286200Y-64233750D01*
X155286200Y-65090310D01*
X155382873Y-65323699D01*
X155561502Y-65502327D01*
X155794891Y-65599000D01*
X157464250Y-65599000D01*
X157623000Y-65440250D01*
X157623000Y-64075000D01*
X157877000Y-64075000D01*
X157877000Y-65440250D01*
X158035750Y-65599000D01*
X159705109Y-65599000D01*
X159938498Y-65502327D01*
X160117127Y-65323699D01*
X160213800Y-65090310D01*
X160213800Y-64736793D01*
X162159913Y-64736793D01*
X162734181Y-66150246D01*
X162763657Y-66194360D01*
X163259090Y-66561305D01*
X165820395Y-64000000D01*
X163259090Y-61438695D01*
X162763657Y-61805640D01*
X162170264Y-63211171D01*
X162159913Y-64736793D01*
X160213800Y-64736793D01*
X160213800Y-64233750D01*
X160055050Y-64075000D01*
X157877000Y-64075000D01*
X157623000Y-64075000D01*
X155444950Y-64075000D01*
X155286200Y-64233750D01*
X142182654Y-64233750D01*
X141632452Y-63683548D01*
X141294565Y-63457779D01*
X140896000Y-63378500D01*
X138431428Y-63378500D01*
X138399670Y-63330971D01*
X138381500Y-63318830D01*
X138381500Y-62896000D01*
X138363537Y-62805690D01*
X155286200Y-62805690D01*
X155286200Y-63662250D01*
X155444950Y-63821000D01*
X157623000Y-63821000D01*
X157623000Y-62455750D01*
X157877000Y-62455750D01*
X157877000Y-63821000D01*
X160055050Y-63821000D01*
X160213800Y-63662250D01*
X160213800Y-62805690D01*
X160117127Y-62572301D01*
X159938498Y-62393673D01*
X159705109Y-62297000D01*
X158035750Y-62297000D01*
X157877000Y-62455750D01*
X157623000Y-62455750D01*
X157464250Y-62297000D01*
X155794891Y-62297000D01*
X155561502Y-62393673D01*
X155382873Y-62572301D01*
X155286200Y-62805690D01*
X138363537Y-62805690D01*
X138302221Y-62497435D01*
X138076452Y-62159548D01*
X137060452Y-61143548D01*
X136722565Y-60917779D01*
X136324000Y-60838500D01*
X130355000Y-60838500D01*
X129956435Y-60917779D01*
X129618548Y-61143548D01*
X128475548Y-62286548D01*
X128249779Y-62624435D01*
X128170500Y-63023000D01*
X128170500Y-66274596D01*
X125263548Y-69181548D01*
X125037779Y-69519435D01*
X124958500Y-69918000D01*
X124958500Y-83698500D01*
X123356556Y-83698500D01*
X123344415Y-83680330D01*
X123322220Y-83665500D01*
X123475699Y-83601927D01*
X123654327Y-83423298D01*
X123751000Y-83189909D01*
X123751000Y-82485750D01*
X123592250Y-82327000D01*
X122227000Y-82327000D01*
X122227000Y-82347000D01*
X121973000Y-82347000D01*
X121973000Y-82327000D01*
X121953000Y-82327000D01*
X121953000Y-82073000D01*
X121973000Y-82073000D01*
X121973000Y-80860150D01*
X122227000Y-80860150D01*
X122227000Y-82073000D01*
X123592250Y-82073000D01*
X123751000Y-81914250D01*
X123751000Y-81210091D01*
X123654327Y-80976702D01*
X123475699Y-80798073D01*
X123242310Y-80701400D01*
X122385750Y-80701400D01*
X122227000Y-80860150D01*
X121973000Y-80860150D01*
X121814250Y-80701400D01*
X120957690Y-80701400D01*
X120724301Y-80798073D01*
X120710000Y-80812374D01*
X120710000Y-75462746D01*
X120900222Y-75747433D01*
X121435845Y-76105325D01*
X122067655Y-76231000D01*
X122132345Y-76231000D01*
X122764155Y-76105325D01*
X123299778Y-75747433D01*
X123657670Y-75211810D01*
X123783345Y-74580000D01*
X123657670Y-73948190D01*
X123433034Y-73611999D01*
X123475698Y-73594327D01*
X123654327Y-73415699D01*
X123751000Y-73182310D01*
X123751000Y-72325750D01*
X123592250Y-72167000D01*
X122227000Y-72167000D01*
X122227000Y-72187000D01*
X121973000Y-72187000D01*
X121973000Y-72167000D01*
X121953000Y-72167000D01*
X121953000Y-71913000D01*
X121973000Y-71913000D01*
X121973000Y-70547750D01*
X122227000Y-70547750D01*
X122227000Y-71913000D01*
X123592250Y-71913000D01*
X123751000Y-71754250D01*
X123751000Y-70897690D01*
X123654327Y-70664301D01*
X123475698Y-70485673D01*
X123242309Y-70389000D01*
X122385750Y-70389000D01*
X122227000Y-70547750D01*
X121973000Y-70547750D01*
X121814250Y-70389000D01*
X120957691Y-70389000D01*
X120724302Y-70485673D01*
X120710000Y-70499975D01*
X120710000Y-66740910D01*
X121438695Y-66740910D01*
X121805640Y-67236343D01*
X123211171Y-67829736D01*
X124736793Y-67840087D01*
X126150246Y-67265819D01*
X126194360Y-67236343D01*
X126561305Y-66740910D01*
X124000000Y-64179605D01*
X121438695Y-66740910D01*
X120710000Y-66740910D01*
X120710000Y-66090729D01*
X120734181Y-66150246D01*
X120763657Y-66194360D01*
X121259090Y-66561305D01*
X123820395Y-64000000D01*
X124179605Y-64000000D01*
X126740910Y-66561305D01*
X127236343Y-66194360D01*
X127829736Y-64788829D01*
X127840087Y-63263207D01*
X127265819Y-61849754D01*
X127236343Y-61805640D01*
X126740910Y-61438695D01*
X124179605Y-64000000D01*
X123820395Y-64000000D01*
X121259090Y-61438695D01*
X120763657Y-61805640D01*
X120710000Y-61932734D01*
X120710000Y-60710000D01*
X121909271Y-60710000D01*
X121849754Y-60734181D01*
M02*
