G04 #@! TF.FileFunction,Legend,Bot*
%FSLAX46Y46*%
G04 Gerber Fmt 4.6, Leading zero omitted, Abs format (unit mm)*
G04 Created by KiCad (PCBNEW 4.0.1-stable) date 10/08/2016 20:55:18*
%MOMM*%
G01*
G04 APERTURE LIST*
%ADD10C,0.100000*%
%ADD11C,0.150000*%
%ADD12R,2.432000X2.127200*%
%ADD13O,2.432000X2.127200*%
%ADD14C,2.686000*%
%ADD15C,6.800000*%
%ADD16R,2.127200X2.432000*%
%ADD17O,2.127200X2.432000*%
%ADD18R,2.127200X2.127200*%
%ADD19O,2.127200X2.127200*%
%ADD20R,1.700000X1.900000*%
%ADD21R,1.598880X1.598880*%
%ADD22R,2.432000X2.432000*%
%ADD23O,2.432000X2.432000*%
%ADD24C,4.800000*%
%ADD25R,1.797000X1.797000*%
%ADD26C,1.797000*%
G04 APERTURE END LIST*
D10*
D11*
X123433333Y-76572381D02*
X123100000Y-77572381D01*
X122766666Y-76572381D01*
X121861904Y-77477143D02*
X121909523Y-77524762D01*
X122052380Y-77572381D01*
X122147618Y-77572381D01*
X122290476Y-77524762D01*
X122385714Y-77429524D01*
X122433333Y-77334286D01*
X122480952Y-77143810D01*
X122480952Y-77000952D01*
X122433333Y-76810476D01*
X122385714Y-76715238D01*
X122290476Y-76620000D01*
X122147618Y-76572381D01*
X122052380Y-76572381D01*
X121909523Y-76620000D01*
X121861904Y-76667619D01*
X120861904Y-77477143D02*
X120909523Y-77524762D01*
X121052380Y-77572381D01*
X121147618Y-77572381D01*
X121290476Y-77524762D01*
X121385714Y-77429524D01*
X121433333Y-77334286D01*
X121480952Y-77143810D01*
X121480952Y-77000952D01*
X121433333Y-76810476D01*
X121385714Y-76715238D01*
X121290476Y-76620000D01*
X121147618Y-76572381D01*
X121052380Y-76572381D01*
X120909523Y-76620000D01*
X120861904Y-76667619D01*
X130672381Y-69460381D02*
X130481904Y-69460381D01*
X130386666Y-69508000D01*
X130291428Y-69603238D01*
X130243809Y-69793714D01*
X130243809Y-70127048D01*
X130291428Y-70317524D01*
X130386666Y-70412762D01*
X130481904Y-70460381D01*
X130672381Y-70460381D01*
X130767619Y-70412762D01*
X130862857Y-70317524D01*
X130910476Y-70127048D01*
X130910476Y-69793714D01*
X130862857Y-69603238D01*
X130767619Y-69508000D01*
X130672381Y-69460381D01*
X129481904Y-69936571D02*
X129815238Y-69936571D01*
X129815238Y-70460381D02*
X129815238Y-69460381D01*
X129339047Y-69460381D01*
X128624761Y-69936571D02*
X128958095Y-69936571D01*
X128958095Y-70460381D02*
X128958095Y-69460381D01*
X128481904Y-69460381D01*
X135673048Y-69333381D02*
X135482571Y-69333381D01*
X135387333Y-69381000D01*
X135292095Y-69476238D01*
X135244476Y-69666714D01*
X135244476Y-70000048D01*
X135292095Y-70190524D01*
X135387333Y-70285762D01*
X135482571Y-70333381D01*
X135673048Y-70333381D01*
X135768286Y-70285762D01*
X135863524Y-70190524D01*
X135911143Y-70000048D01*
X135911143Y-69666714D01*
X135863524Y-69476238D01*
X135768286Y-69381000D01*
X135673048Y-69333381D01*
X134815905Y-70333381D02*
X134815905Y-69333381D01*
X134244476Y-70333381D01*
X134244476Y-69333381D01*
X168931095Y-91812381D02*
X168312047Y-91812381D01*
X168645381Y-92193333D01*
X168502523Y-92193333D01*
X168407285Y-92240952D01*
X168359666Y-92288571D01*
X168312047Y-92383810D01*
X168312047Y-92621905D01*
X168359666Y-92717143D01*
X168407285Y-92764762D01*
X168502523Y-92812381D01*
X168788238Y-92812381D01*
X168883476Y-92764762D01*
X168931095Y-92717143D01*
X168026333Y-91812381D02*
X167693000Y-92812381D01*
X167359666Y-91812381D01*
X167121571Y-91812381D02*
X166502523Y-91812381D01*
X166835857Y-92193333D01*
X166692999Y-92193333D01*
X166597761Y-92240952D01*
X166550142Y-92288571D01*
X166502523Y-92383810D01*
X166502523Y-92621905D01*
X166550142Y-92717143D01*
X166597761Y-92764762D01*
X166692999Y-92812381D01*
X166978714Y-92812381D01*
X167073952Y-92764762D01*
X167121571Y-92717143D01*
X122861904Y-69000000D02*
X122957142Y-68952381D01*
X123099999Y-68952381D01*
X123242857Y-69000000D01*
X123338095Y-69095238D01*
X123385714Y-69190476D01*
X123433333Y-69380952D01*
X123433333Y-69523810D01*
X123385714Y-69714286D01*
X123338095Y-69809524D01*
X123242857Y-69904762D01*
X123099999Y-69952381D01*
X123004761Y-69952381D01*
X122861904Y-69904762D01*
X122814285Y-69857143D01*
X122814285Y-69523810D01*
X123004761Y-69523810D01*
X122385714Y-69952381D02*
X122385714Y-68952381D01*
X121814285Y-69952381D01*
X121814285Y-68952381D01*
X121338095Y-69952381D02*
X121338095Y-68952381D01*
X121100000Y-68952381D01*
X120957142Y-69000000D01*
X120861904Y-69095238D01*
X120814285Y-69190476D01*
X120766666Y-69380952D01*
X120766666Y-69523810D01*
X120814285Y-69714286D01*
X120861904Y-69809524D01*
X120957142Y-69904762D01*
X121100000Y-69952381D01*
X121338095Y-69952381D01*
X146100000Y-92552381D02*
X146100000Y-91552381D01*
X145719047Y-91552381D01*
X145623809Y-91600000D01*
X145576190Y-91647619D01*
X145528571Y-91742857D01*
X145528571Y-91885714D01*
X145576190Y-91980952D01*
X145623809Y-92028571D01*
X145719047Y-92076190D01*
X146100000Y-92076190D01*
X145100000Y-92552381D02*
X145100000Y-91552381D01*
X144052381Y-92552381D02*
X144385715Y-92076190D01*
X144623810Y-92552381D02*
X144623810Y-91552381D01*
X144242857Y-91552381D01*
X144147619Y-91600000D01*
X144100000Y-91647619D01*
X144052381Y-91742857D01*
X144052381Y-91885714D01*
X144100000Y-91980952D01*
X144147619Y-92028571D01*
X144242857Y-92076190D01*
X144623810Y-92076190D01*
X141920000Y-97440096D02*
X141872381Y-97344858D01*
X141872381Y-97202001D01*
X141920000Y-97059143D01*
X142015238Y-96963905D01*
X142110476Y-96916286D01*
X142300952Y-96868667D01*
X142443810Y-96868667D01*
X142634286Y-96916286D01*
X142729524Y-96963905D01*
X142824762Y-97059143D01*
X142872381Y-97202001D01*
X142872381Y-97297239D01*
X142824762Y-97440096D01*
X142777143Y-97487715D01*
X142443810Y-97487715D01*
X142443810Y-97297239D01*
X142872381Y-97916286D02*
X141872381Y-97916286D01*
X142872381Y-98487715D01*
X141872381Y-98487715D01*
X142872381Y-98963905D02*
X141872381Y-98963905D01*
X141872381Y-99202000D01*
X141920000Y-99344858D01*
X142015238Y-99440096D01*
X142110476Y-99487715D01*
X142300952Y-99535334D01*
X142443810Y-99535334D01*
X142634286Y-99487715D01*
X142729524Y-99440096D01*
X142824762Y-99344858D01*
X142872381Y-99202000D01*
X142872381Y-98963905D01*
X144452381Y-97300000D02*
X144452381Y-97490477D01*
X144500000Y-97585715D01*
X144595238Y-97680953D01*
X144785714Y-97728572D01*
X145119048Y-97728572D01*
X145309524Y-97680953D01*
X145404762Y-97585715D01*
X145452381Y-97490477D01*
X145452381Y-97300000D01*
X145404762Y-97204762D01*
X145309524Y-97109524D01*
X145119048Y-97061905D01*
X144785714Y-97061905D01*
X144595238Y-97109524D01*
X144500000Y-97204762D01*
X144452381Y-97300000D01*
X144452381Y-98157143D02*
X145261905Y-98157143D01*
X145357143Y-98204762D01*
X145404762Y-98252381D01*
X145452381Y-98347619D01*
X145452381Y-98538096D01*
X145404762Y-98633334D01*
X145357143Y-98680953D01*
X145261905Y-98728572D01*
X144452381Y-98728572D01*
X144452381Y-99061905D02*
X144452381Y-99633334D01*
X145452381Y-99347619D02*
X144452381Y-99347619D01*
X146952381Y-97122667D02*
X147952381Y-97456000D01*
X146952381Y-97789334D01*
X147857143Y-98694096D02*
X147904762Y-98646477D01*
X147952381Y-98503620D01*
X147952381Y-98408382D01*
X147904762Y-98265524D01*
X147809524Y-98170286D01*
X147714286Y-98122667D01*
X147523810Y-98075048D01*
X147380952Y-98075048D01*
X147190476Y-98122667D01*
X147095238Y-98170286D01*
X147000000Y-98265524D01*
X146952381Y-98408382D01*
X146952381Y-98503620D01*
X147000000Y-98646477D01*
X147047619Y-98694096D01*
X147857143Y-99694096D02*
X147904762Y-99646477D01*
X147952381Y-99503620D01*
X147952381Y-99408382D01*
X147904762Y-99265524D01*
X147809524Y-99170286D01*
X147714286Y-99122667D01*
X147523810Y-99075048D01*
X147380952Y-99075048D01*
X147190476Y-99122667D01*
X147095238Y-99170286D01*
X147000000Y-99265524D01*
X146952381Y-99408382D01*
X146952381Y-99503620D01*
X147000000Y-99646477D01*
X147047619Y-99694096D01*
X165637000Y-82652381D02*
X165637000Y-81652381D01*
X165398905Y-81652381D01*
X165256047Y-81700000D01*
X165160809Y-81795238D01*
X165113190Y-81890476D01*
X165065571Y-82080952D01*
X165065571Y-82223810D01*
X165113190Y-82414286D01*
X165160809Y-82509524D01*
X165256047Y-82604762D01*
X165398905Y-82652381D01*
X165637000Y-82652381D01*
X164684619Y-82366667D02*
X164208428Y-82366667D01*
X164779857Y-82652381D02*
X164446524Y-81652381D01*
X164113190Y-82652381D01*
X163922714Y-81652381D02*
X163351285Y-81652381D01*
X163637000Y-82652381D02*
X163637000Y-81652381D01*
X163065571Y-82366667D02*
X162589380Y-82366667D01*
X163160809Y-82652381D02*
X162827476Y-81652381D01*
X162494142Y-82652381D01*
X165597333Y-84192381D02*
X165264000Y-85192381D01*
X164930666Y-84192381D01*
X164025904Y-85097143D02*
X164073523Y-85144762D01*
X164216380Y-85192381D01*
X164311618Y-85192381D01*
X164454476Y-85144762D01*
X164549714Y-85049524D01*
X164597333Y-84954286D01*
X164644952Y-84763810D01*
X164644952Y-84620952D01*
X164597333Y-84430476D01*
X164549714Y-84335238D01*
X164454476Y-84240000D01*
X164311618Y-84192381D01*
X164216380Y-84192381D01*
X164073523Y-84240000D01*
X164025904Y-84287619D01*
X163025904Y-85097143D02*
X163073523Y-85144762D01*
X163216380Y-85192381D01*
X163311618Y-85192381D01*
X163454476Y-85144762D01*
X163549714Y-85049524D01*
X163597333Y-84954286D01*
X163644952Y-84763810D01*
X163644952Y-84620952D01*
X163597333Y-84430476D01*
X163549714Y-84335238D01*
X163454476Y-84240000D01*
X163311618Y-84192381D01*
X163216380Y-84192381D01*
X163073523Y-84240000D01*
X163025904Y-84287619D01*
X165025904Y-86780000D02*
X165121142Y-86732381D01*
X165263999Y-86732381D01*
X165406857Y-86780000D01*
X165502095Y-86875238D01*
X165549714Y-86970476D01*
X165597333Y-87160952D01*
X165597333Y-87303810D01*
X165549714Y-87494286D01*
X165502095Y-87589524D01*
X165406857Y-87684762D01*
X165263999Y-87732381D01*
X165168761Y-87732381D01*
X165025904Y-87684762D01*
X164978285Y-87637143D01*
X164978285Y-87303810D01*
X165168761Y-87303810D01*
X164549714Y-87732381D02*
X164549714Y-86732381D01*
X163978285Y-87732381D01*
X163978285Y-86732381D01*
X163502095Y-87732381D02*
X163502095Y-86732381D01*
X163264000Y-86732381D01*
X163121142Y-86780000D01*
X163025904Y-86875238D01*
X162978285Y-86970476D01*
X162930666Y-87160952D01*
X162930666Y-87303810D01*
X162978285Y-87494286D01*
X163025904Y-87589524D01*
X163121142Y-87684762D01*
X163264000Y-87732381D01*
X163502095Y-87732381D01*
X126417904Y-81700000D02*
X126513142Y-81652381D01*
X126655999Y-81652381D01*
X126798857Y-81700000D01*
X126894095Y-81795238D01*
X126941714Y-81890476D01*
X126989333Y-82080952D01*
X126989333Y-82223810D01*
X126941714Y-82414286D01*
X126894095Y-82509524D01*
X126798857Y-82604762D01*
X126655999Y-82652381D01*
X126560761Y-82652381D01*
X126417904Y-82604762D01*
X126370285Y-82557143D01*
X126370285Y-82223810D01*
X126560761Y-82223810D01*
X125941714Y-82652381D02*
X125941714Y-81652381D01*
X125370285Y-82652381D01*
X125370285Y-81652381D01*
X124894095Y-82652381D02*
X124894095Y-81652381D01*
X124656000Y-81652381D01*
X124513142Y-81700000D01*
X124417904Y-81795238D01*
X124370285Y-81890476D01*
X124322666Y-82080952D01*
X124322666Y-82223810D01*
X124370285Y-82414286D01*
X124417904Y-82509524D01*
X124513142Y-82604762D01*
X124656000Y-82652381D01*
X124894095Y-82652381D01*
X126989333Y-84192381D02*
X126656000Y-85192381D01*
X126322666Y-84192381D01*
X125417904Y-85097143D02*
X125465523Y-85144762D01*
X125608380Y-85192381D01*
X125703618Y-85192381D01*
X125846476Y-85144762D01*
X125941714Y-85049524D01*
X125989333Y-84954286D01*
X126036952Y-84763810D01*
X126036952Y-84620952D01*
X125989333Y-84430476D01*
X125941714Y-84335238D01*
X125846476Y-84240000D01*
X125703618Y-84192381D01*
X125608380Y-84192381D01*
X125465523Y-84240000D01*
X125417904Y-84287619D01*
X124417904Y-85097143D02*
X124465523Y-85144762D01*
X124608380Y-85192381D01*
X124703618Y-85192381D01*
X124846476Y-85144762D01*
X124941714Y-85049524D01*
X124989333Y-84954286D01*
X125036952Y-84763810D01*
X125036952Y-84620952D01*
X124989333Y-84430476D01*
X124941714Y-84335238D01*
X124846476Y-84240000D01*
X124703618Y-84192381D01*
X124608380Y-84192381D01*
X124465523Y-84240000D01*
X124417904Y-84287619D01*
X127410000Y-87732381D02*
X127410000Y-86732381D01*
X127171905Y-86732381D01*
X127029047Y-86780000D01*
X126933809Y-86875238D01*
X126886190Y-86970476D01*
X126838571Y-87160952D01*
X126838571Y-87303810D01*
X126886190Y-87494286D01*
X126933809Y-87589524D01*
X127029047Y-87684762D01*
X127171905Y-87732381D01*
X127410000Y-87732381D01*
X126457619Y-87446667D02*
X125981428Y-87446667D01*
X126552857Y-87732381D02*
X126219524Y-86732381D01*
X125886190Y-87732381D01*
X125695714Y-86732381D02*
X125124285Y-86732381D01*
X125410000Y-87732381D02*
X125410000Y-86732381D01*
X124838571Y-87446667D02*
X124362380Y-87446667D01*
X124933809Y-87732381D02*
X124600476Y-86732381D01*
X124267142Y-87732381D01*
X140480952Y-88757143D02*
X140528571Y-88804762D01*
X140671428Y-88852381D01*
X140766666Y-88852381D01*
X140909524Y-88804762D01*
X141004762Y-88709524D01*
X141052381Y-88614286D01*
X141100000Y-88423810D01*
X141100000Y-88280952D01*
X141052381Y-88090476D01*
X141004762Y-87995238D01*
X140909524Y-87900000D01*
X140766666Y-87852381D01*
X140671428Y-87852381D01*
X140528571Y-87900000D01*
X140480952Y-87947619D01*
X139480952Y-88852381D02*
X139814286Y-88376190D01*
X140052381Y-88852381D02*
X140052381Y-87852381D01*
X139671428Y-87852381D01*
X139576190Y-87900000D01*
X139528571Y-87947619D01*
X139480952Y-88042857D01*
X139480952Y-88185714D01*
X139528571Y-88280952D01*
X139576190Y-88328571D01*
X139671428Y-88376190D01*
X140052381Y-88376190D01*
X139100000Y-87947619D02*
X139052381Y-87900000D01*
X138957143Y-87852381D01*
X138719047Y-87852381D01*
X138623809Y-87900000D01*
X138576190Y-87947619D01*
X138528571Y-88042857D01*
X138528571Y-88138095D01*
X138576190Y-88280952D01*
X139147619Y-88852381D01*
X138528571Y-88852381D01*
X137909524Y-87852381D02*
X137814285Y-87852381D01*
X137719047Y-87900000D01*
X137671428Y-87947619D01*
X137623809Y-88042857D01*
X137576190Y-88233333D01*
X137576190Y-88471429D01*
X137623809Y-88661905D01*
X137671428Y-88757143D01*
X137719047Y-88804762D01*
X137814285Y-88852381D01*
X137909524Y-88852381D01*
X138004762Y-88804762D01*
X138052381Y-88757143D01*
X138100000Y-88661905D01*
X138147619Y-88471429D01*
X138147619Y-88233333D01*
X138100000Y-88042857D01*
X138052381Y-87947619D01*
X138004762Y-87900000D01*
X137909524Y-87852381D01*
X137242857Y-87852381D02*
X136623809Y-87852381D01*
X136957143Y-88233333D01*
X136814285Y-88233333D01*
X136719047Y-88280952D01*
X136671428Y-88328571D01*
X136623809Y-88423810D01*
X136623809Y-88661905D01*
X136671428Y-88757143D01*
X136719047Y-88804762D01*
X136814285Y-88852381D01*
X137100000Y-88852381D01*
X137195238Y-88804762D01*
X137242857Y-88757143D01*
X136242857Y-87947619D02*
X136195238Y-87900000D01*
X136100000Y-87852381D01*
X135861904Y-87852381D01*
X135766666Y-87900000D01*
X135719047Y-87947619D01*
X135671428Y-88042857D01*
X135671428Y-88138095D01*
X135719047Y-88280952D01*
X136290476Y-88852381D01*
X135671428Y-88852381D01*
X134576190Y-87852381D02*
X133957142Y-87852381D01*
X134290476Y-88233333D01*
X134147618Y-88233333D01*
X134052380Y-88280952D01*
X134004761Y-88328571D01*
X133957142Y-88423810D01*
X133957142Y-88661905D01*
X134004761Y-88757143D01*
X134052380Y-88804762D01*
X134147618Y-88852381D01*
X134433333Y-88852381D01*
X134528571Y-88804762D01*
X134576190Y-88757143D01*
X133671428Y-87852381D02*
X133338095Y-88852381D01*
X133004761Y-87852381D01*
X155380952Y-81757143D02*
X155428571Y-81804762D01*
X155571428Y-81852381D01*
X155666666Y-81852381D01*
X155809524Y-81804762D01*
X155904762Y-81709524D01*
X155952381Y-81614286D01*
X156000000Y-81423810D01*
X156000000Y-81280952D01*
X155952381Y-81090476D01*
X155904762Y-80995238D01*
X155809524Y-80900000D01*
X155666666Y-80852381D01*
X155571428Y-80852381D01*
X155428571Y-80900000D01*
X155380952Y-80947619D01*
X154380952Y-81852381D02*
X154714286Y-81376190D01*
X154952381Y-81852381D02*
X154952381Y-80852381D01*
X154571428Y-80852381D01*
X154476190Y-80900000D01*
X154428571Y-80947619D01*
X154380952Y-81042857D01*
X154380952Y-81185714D01*
X154428571Y-81280952D01*
X154476190Y-81328571D01*
X154571428Y-81376190D01*
X154952381Y-81376190D01*
X154000000Y-80947619D02*
X153952381Y-80900000D01*
X153857143Y-80852381D01*
X153619047Y-80852381D01*
X153523809Y-80900000D01*
X153476190Y-80947619D01*
X153428571Y-81042857D01*
X153428571Y-81138095D01*
X153476190Y-81280952D01*
X154047619Y-81852381D01*
X153428571Y-81852381D01*
X152809524Y-80852381D02*
X152714285Y-80852381D01*
X152619047Y-80900000D01*
X152571428Y-80947619D01*
X152523809Y-81042857D01*
X152476190Y-81233333D01*
X152476190Y-81471429D01*
X152523809Y-81661905D01*
X152571428Y-81757143D01*
X152619047Y-81804762D01*
X152714285Y-81852381D01*
X152809524Y-81852381D01*
X152904762Y-81804762D01*
X152952381Y-81757143D01*
X153000000Y-81661905D01*
X153047619Y-81471429D01*
X153047619Y-81233333D01*
X153000000Y-81042857D01*
X152952381Y-80947619D01*
X152904762Y-80900000D01*
X152809524Y-80852381D01*
X152142857Y-80852381D02*
X151523809Y-80852381D01*
X151857143Y-81233333D01*
X151714285Y-81233333D01*
X151619047Y-81280952D01*
X151571428Y-81328571D01*
X151523809Y-81423810D01*
X151523809Y-81661905D01*
X151571428Y-81757143D01*
X151619047Y-81804762D01*
X151714285Y-81852381D01*
X152000000Y-81852381D01*
X152095238Y-81804762D01*
X152142857Y-81757143D01*
X151142857Y-80947619D02*
X151095238Y-80900000D01*
X151000000Y-80852381D01*
X150761904Y-80852381D01*
X150666666Y-80900000D01*
X150619047Y-80947619D01*
X150571428Y-81042857D01*
X150571428Y-81138095D01*
X150619047Y-81280952D01*
X151190476Y-81852381D01*
X150571428Y-81852381D01*
X149476190Y-80852381D02*
X148857142Y-80852381D01*
X149190476Y-81233333D01*
X149047618Y-81233333D01*
X148952380Y-81280952D01*
X148904761Y-81328571D01*
X148857142Y-81423810D01*
X148857142Y-81661905D01*
X148904761Y-81757143D01*
X148952380Y-81804762D01*
X149047618Y-81852381D01*
X149333333Y-81852381D01*
X149428571Y-81804762D01*
X149476190Y-81757143D01*
X148571428Y-80852381D02*
X148238095Y-81852381D01*
X147904761Y-80852381D01*
X152761904Y-65300000D02*
X152857142Y-65252381D01*
X152999999Y-65252381D01*
X153142857Y-65300000D01*
X153238095Y-65395238D01*
X153285714Y-65490476D01*
X153333333Y-65680952D01*
X153333333Y-65823810D01*
X153285714Y-66014286D01*
X153238095Y-66109524D01*
X153142857Y-66204762D01*
X152999999Y-66252381D01*
X152904761Y-66252381D01*
X152761904Y-66204762D01*
X152714285Y-66157143D01*
X152714285Y-65823810D01*
X152904761Y-65823810D01*
X152285714Y-66252381D02*
X152285714Y-65252381D01*
X151714285Y-66252381D01*
X151714285Y-65252381D01*
X151238095Y-66252381D02*
X151238095Y-65252381D01*
X151000000Y-65252381D01*
X150857142Y-65300000D01*
X150761904Y-65395238D01*
X150714285Y-65490476D01*
X150666666Y-65680952D01*
X150666666Y-65823810D01*
X150714285Y-66014286D01*
X150761904Y-66109524D01*
X150857142Y-66204762D01*
X151000000Y-66252381D01*
X151238095Y-66252381D01*
X161880954Y-108952381D02*
X161880954Y-107952381D01*
X161452382Y-108952381D02*
X161452382Y-108428571D01*
X161500001Y-108333333D01*
X161595239Y-108285714D01*
X161738097Y-108285714D01*
X161833335Y-108333333D01*
X161880954Y-108380952D01*
X161119049Y-108285714D02*
X160738097Y-108285714D01*
X160976192Y-107952381D02*
X160976192Y-108809524D01*
X160928573Y-108904762D01*
X160833335Y-108952381D01*
X160738097Y-108952381D01*
X160547620Y-108285714D02*
X160166668Y-108285714D01*
X160404763Y-107952381D02*
X160404763Y-108809524D01*
X160357144Y-108904762D01*
X160261906Y-108952381D01*
X160166668Y-108952381D01*
X159833334Y-108285714D02*
X159833334Y-109285714D01*
X159833334Y-108333333D02*
X159738096Y-108285714D01*
X159547619Y-108285714D01*
X159452381Y-108333333D01*
X159404762Y-108380952D01*
X159357143Y-108476190D01*
X159357143Y-108761905D01*
X159404762Y-108857143D01*
X159452381Y-108904762D01*
X159547619Y-108952381D01*
X159738096Y-108952381D01*
X159833334Y-108904762D01*
X158976191Y-108904762D02*
X158880953Y-108952381D01*
X158690477Y-108952381D01*
X158595238Y-108904762D01*
X158547619Y-108809524D01*
X158547619Y-108761905D01*
X158595238Y-108666667D01*
X158690477Y-108619048D01*
X158833334Y-108619048D01*
X158928572Y-108571429D01*
X158976191Y-108476190D01*
X158976191Y-108428571D01*
X158928572Y-108333333D01*
X158833334Y-108285714D01*
X158690477Y-108285714D01*
X158595238Y-108333333D01*
X158119048Y-108857143D02*
X158071429Y-108904762D01*
X158119048Y-108952381D01*
X158166667Y-108904762D01*
X158119048Y-108857143D01*
X158119048Y-108952381D01*
X158119048Y-108333333D02*
X158071429Y-108380952D01*
X158119048Y-108428571D01*
X158166667Y-108380952D01*
X158119048Y-108333333D01*
X158119048Y-108428571D01*
X156928572Y-107904762D02*
X157785715Y-109190476D01*
X155880953Y-107904762D02*
X156738096Y-109190476D01*
X155119048Y-108285714D02*
X155119048Y-109095238D01*
X155166667Y-109190476D01*
X155214286Y-109238095D01*
X155309525Y-109285714D01*
X155452382Y-109285714D01*
X155547620Y-109238095D01*
X155119048Y-108904762D02*
X155214286Y-108952381D01*
X155404763Y-108952381D01*
X155500001Y-108904762D01*
X155547620Y-108857143D01*
X155595239Y-108761905D01*
X155595239Y-108476190D01*
X155547620Y-108380952D01*
X155500001Y-108333333D01*
X155404763Y-108285714D01*
X155214286Y-108285714D01*
X155119048Y-108333333D01*
X154642858Y-108952381D02*
X154642858Y-108285714D01*
X154642858Y-107952381D02*
X154690477Y-108000000D01*
X154642858Y-108047619D01*
X154595239Y-108000000D01*
X154642858Y-107952381D01*
X154642858Y-108047619D01*
X154309525Y-108285714D02*
X153928573Y-108285714D01*
X154166668Y-107952381D02*
X154166668Y-108809524D01*
X154119049Y-108904762D01*
X154023811Y-108952381D01*
X153928573Y-108952381D01*
X153595239Y-108952381D02*
X153595239Y-107952381D01*
X153166667Y-108952381D02*
X153166667Y-108428571D01*
X153214286Y-108333333D01*
X153309524Y-108285714D01*
X153452382Y-108285714D01*
X153547620Y-108333333D01*
X153595239Y-108380952D01*
X152261905Y-108285714D02*
X152261905Y-108952381D01*
X152690477Y-108285714D02*
X152690477Y-108809524D01*
X152642858Y-108904762D01*
X152547620Y-108952381D01*
X152404762Y-108952381D01*
X152309524Y-108904762D01*
X152261905Y-108857143D01*
X151785715Y-108952381D02*
X151785715Y-107952381D01*
X151785715Y-108333333D02*
X151690477Y-108285714D01*
X151500000Y-108285714D01*
X151404762Y-108333333D01*
X151357143Y-108380952D01*
X151309524Y-108476190D01*
X151309524Y-108761905D01*
X151357143Y-108857143D01*
X151404762Y-108904762D01*
X151500000Y-108952381D01*
X151690477Y-108952381D01*
X151785715Y-108904762D01*
X150880953Y-108857143D02*
X150833334Y-108904762D01*
X150880953Y-108952381D01*
X150928572Y-108904762D01*
X150880953Y-108857143D01*
X150880953Y-108952381D01*
X149976191Y-108904762D02*
X150071429Y-108952381D01*
X150261906Y-108952381D01*
X150357144Y-108904762D01*
X150404763Y-108857143D01*
X150452382Y-108761905D01*
X150452382Y-108476190D01*
X150404763Y-108380952D01*
X150357144Y-108333333D01*
X150261906Y-108285714D01*
X150071429Y-108285714D01*
X149976191Y-108333333D01*
X149404763Y-108952381D02*
X149500001Y-108904762D01*
X149547620Y-108857143D01*
X149595239Y-108761905D01*
X149595239Y-108476190D01*
X149547620Y-108380952D01*
X149500001Y-108333333D01*
X149404763Y-108285714D01*
X149261905Y-108285714D01*
X149166667Y-108333333D01*
X149119048Y-108380952D01*
X149071429Y-108476190D01*
X149071429Y-108761905D01*
X149119048Y-108857143D01*
X149166667Y-108904762D01*
X149261905Y-108952381D01*
X149404763Y-108952381D01*
X148642858Y-108952381D02*
X148642858Y-108285714D01*
X148642858Y-108380952D02*
X148595239Y-108333333D01*
X148500001Y-108285714D01*
X148357143Y-108285714D01*
X148261905Y-108333333D01*
X148214286Y-108428571D01*
X148214286Y-108952381D01*
X148214286Y-108428571D02*
X148166667Y-108333333D01*
X148071429Y-108285714D01*
X147928572Y-108285714D01*
X147833334Y-108333333D01*
X147785715Y-108428571D01*
X147785715Y-108952381D01*
X146595239Y-107904762D02*
X147452382Y-109190476D01*
X146404763Y-108285714D02*
X146023811Y-108285714D01*
X146261906Y-107952381D02*
X146261906Y-108809524D01*
X146214287Y-108904762D01*
X146119049Y-108952381D01*
X146023811Y-108952381D01*
X145690477Y-108952381D02*
X145690477Y-107952381D01*
X145261905Y-108952381D02*
X145261905Y-108428571D01*
X145309524Y-108333333D01*
X145404762Y-108285714D01*
X145547620Y-108285714D01*
X145642858Y-108333333D01*
X145690477Y-108380952D01*
X144404762Y-108904762D02*
X144500000Y-108952381D01*
X144690477Y-108952381D01*
X144785715Y-108904762D01*
X144833334Y-108809524D01*
X144833334Y-108428571D01*
X144785715Y-108333333D01*
X144690477Y-108285714D01*
X144500000Y-108285714D01*
X144404762Y-108333333D01*
X144357143Y-108428571D01*
X144357143Y-108523810D01*
X144833334Y-108619048D01*
X143500000Y-108952381D02*
X143500000Y-108428571D01*
X143547619Y-108333333D01*
X143642857Y-108285714D01*
X143833334Y-108285714D01*
X143928572Y-108333333D01*
X143500000Y-108904762D02*
X143595238Y-108952381D01*
X143833334Y-108952381D01*
X143928572Y-108904762D01*
X143976191Y-108809524D01*
X143976191Y-108714286D01*
X143928572Y-108619048D01*
X143833334Y-108571429D01*
X143595238Y-108571429D01*
X143500000Y-108523810D01*
X143023810Y-108285714D02*
X143023810Y-109285714D01*
X143023810Y-108333333D02*
X142928572Y-108285714D01*
X142738095Y-108285714D01*
X142642857Y-108333333D01*
X142595238Y-108380952D01*
X142547619Y-108476190D01*
X142547619Y-108761905D01*
X142595238Y-108857143D01*
X142642857Y-108904762D01*
X142738095Y-108952381D01*
X142928572Y-108952381D01*
X143023810Y-108904762D01*
X142119048Y-108952381D02*
X142119048Y-108285714D01*
X142119048Y-107952381D02*
X142166667Y-108000000D01*
X142119048Y-108047619D01*
X142071429Y-108000000D01*
X142119048Y-107952381D01*
X142119048Y-108047619D01*
X140928572Y-107904762D02*
X141785715Y-109190476D01*
X140595239Y-108952381D02*
X140595239Y-108285714D01*
X140595239Y-108476190D02*
X140547620Y-108380952D01*
X140500001Y-108333333D01*
X140404763Y-108285714D01*
X140309524Y-108285714D01*
X139547619Y-108904762D02*
X139642857Y-108952381D01*
X139833334Y-108952381D01*
X139928572Y-108904762D01*
X139976191Y-108857143D01*
X140023810Y-108761905D01*
X140023810Y-108476190D01*
X139976191Y-108380952D01*
X139928572Y-108333333D01*
X139833334Y-108285714D01*
X139642857Y-108285714D01*
X139547619Y-108333333D01*
X139357143Y-109047619D02*
X138595238Y-109047619D01*
X138357143Y-108285714D02*
X138357143Y-109285714D01*
X138357143Y-108333333D02*
X138261905Y-108285714D01*
X138071428Y-108285714D01*
X137976190Y-108333333D01*
X137928571Y-108380952D01*
X137880952Y-108476190D01*
X137880952Y-108761905D01*
X137928571Y-108857143D01*
X137976190Y-108904762D01*
X138071428Y-108952381D01*
X138261905Y-108952381D01*
X138357143Y-108904762D01*
X137309524Y-108952381D02*
X137404762Y-108904762D01*
X137452381Y-108857143D01*
X137500000Y-108761905D01*
X137500000Y-108476190D01*
X137452381Y-108380952D01*
X137404762Y-108333333D01*
X137309524Y-108285714D01*
X137166666Y-108285714D01*
X137071428Y-108333333D01*
X137023809Y-108380952D01*
X136976190Y-108476190D01*
X136976190Y-108761905D01*
X137023809Y-108857143D01*
X137071428Y-108904762D01*
X137166666Y-108952381D01*
X137309524Y-108952381D01*
X136642857Y-108285714D02*
X136452381Y-108952381D01*
X136261904Y-108476190D01*
X136071428Y-108952381D01*
X135880952Y-108285714D01*
X135119047Y-108904762D02*
X135214285Y-108952381D01*
X135404762Y-108952381D01*
X135500000Y-108904762D01*
X135547619Y-108809524D01*
X135547619Y-108428571D01*
X135500000Y-108333333D01*
X135404762Y-108285714D01*
X135214285Y-108285714D01*
X135119047Y-108333333D01*
X135071428Y-108428571D01*
X135071428Y-108523810D01*
X135547619Y-108619048D01*
X134642857Y-108952381D02*
X134642857Y-108285714D01*
X134642857Y-108476190D02*
X134595238Y-108380952D01*
X134547619Y-108333333D01*
X134452381Y-108285714D01*
X134357142Y-108285714D01*
X134261904Y-109047619D02*
X133499999Y-109047619D01*
X133309523Y-108904762D02*
X133214285Y-108952381D01*
X133023809Y-108952381D01*
X132928570Y-108904762D01*
X132880951Y-108809524D01*
X132880951Y-108761905D01*
X132928570Y-108666667D01*
X133023809Y-108619048D01*
X133166666Y-108619048D01*
X133261904Y-108571429D01*
X133309523Y-108476190D01*
X133309523Y-108428571D01*
X133261904Y-108333333D01*
X133166666Y-108285714D01*
X133023809Y-108285714D01*
X132928570Y-108333333D01*
X132309523Y-108952381D02*
X132404761Y-108904762D01*
X132452380Y-108857143D01*
X132499999Y-108761905D01*
X132499999Y-108476190D01*
X132452380Y-108380952D01*
X132404761Y-108333333D01*
X132309523Y-108285714D01*
X132166665Y-108285714D01*
X132071427Y-108333333D01*
X132023808Y-108380952D01*
X131976189Y-108476190D01*
X131976189Y-108761905D01*
X132023808Y-108857143D01*
X132071427Y-108904762D01*
X132166665Y-108952381D01*
X132309523Y-108952381D01*
X131119046Y-108904762D02*
X131214284Y-108952381D01*
X131404761Y-108952381D01*
X131499999Y-108904762D01*
X131547618Y-108857143D01*
X131595237Y-108761905D01*
X131595237Y-108476190D01*
X131547618Y-108380952D01*
X131499999Y-108333333D01*
X131404761Y-108285714D01*
X131214284Y-108285714D01*
X131119046Y-108333333D01*
X130690475Y-108952381D02*
X130690475Y-107952381D01*
X130595237Y-108571429D02*
X130309522Y-108952381D01*
X130309522Y-108285714D02*
X130690475Y-108666667D01*
X129499998Y-108904762D02*
X129595236Y-108952381D01*
X129785713Y-108952381D01*
X129880951Y-108904762D01*
X129928570Y-108809524D01*
X129928570Y-108428571D01*
X129880951Y-108333333D01*
X129785713Y-108285714D01*
X129595236Y-108285714D01*
X129499998Y-108333333D01*
X129452379Y-108428571D01*
X129452379Y-108523810D01*
X129928570Y-108619048D01*
X129166665Y-108285714D02*
X128785713Y-108285714D01*
X129023808Y-107952381D02*
X129023808Y-108809524D01*
X128976189Y-108904762D01*
X128880951Y-108952381D01*
X128785713Y-108952381D01*
X128499998Y-108904762D02*
X128404760Y-108952381D01*
X128214284Y-108952381D01*
X128119045Y-108904762D01*
X128071426Y-108809524D01*
X128071426Y-108761905D01*
X128119045Y-108666667D01*
X128214284Y-108619048D01*
X128357141Y-108619048D01*
X128452379Y-108571429D01*
X128499998Y-108476190D01*
X128499998Y-108428571D01*
X128452379Y-108333333D01*
X128357141Y-108285714D01*
X128214284Y-108285714D01*
X128119045Y-108333333D01*
X139594285Y-67412381D02*
X140165714Y-67412381D01*
X139880000Y-67412381D02*
X139880000Y-66412381D01*
X139975238Y-66555238D01*
X140070476Y-66650476D01*
X140165714Y-66698095D01*
X130973809Y-78429714D02*
X130973809Y-79096381D01*
X131211905Y-78048762D02*
X131450000Y-78763048D01*
X130830952Y-78763048D01*
X130450000Y-79001143D02*
X130402381Y-79048762D01*
X130450000Y-79096381D01*
X130497619Y-79048762D01*
X130450000Y-79001143D01*
X130450000Y-79096381D01*
X129497619Y-78096381D02*
X129973810Y-78096381D01*
X130021429Y-78572571D01*
X129973810Y-78524952D01*
X129878572Y-78477333D01*
X129640476Y-78477333D01*
X129545238Y-78524952D01*
X129497619Y-78572571D01*
X129450000Y-78667810D01*
X129450000Y-78905905D01*
X129497619Y-79001143D01*
X129545238Y-79048762D01*
X129640476Y-79096381D01*
X129878572Y-79096381D01*
X129973810Y-79048762D01*
X130021429Y-79001143D01*
X129021429Y-78715429D02*
X128259524Y-78715429D01*
X127259524Y-79096381D02*
X127830953Y-79096381D01*
X127545239Y-79096381D02*
X127545239Y-78096381D01*
X127640477Y-78239238D01*
X127735715Y-78334476D01*
X127830953Y-78382095D01*
X126640477Y-78096381D02*
X126545238Y-78096381D01*
X126450000Y-78144000D01*
X126402381Y-78191619D01*
X126354762Y-78286857D01*
X126307143Y-78477333D01*
X126307143Y-78715429D01*
X126354762Y-78905905D01*
X126402381Y-79001143D01*
X126450000Y-79048762D01*
X126545238Y-79096381D01*
X126640477Y-79096381D01*
X126735715Y-79048762D01*
X126783334Y-79001143D01*
X126830953Y-78905905D01*
X126878572Y-78715429D01*
X126878572Y-78477333D01*
X126830953Y-78286857D01*
X126783334Y-78191619D01*
X126735715Y-78144000D01*
X126640477Y-78096381D01*
X126021429Y-78096381D02*
X125688096Y-79096381D01*
X125354762Y-78096381D01*
X158918454Y-61752381D02*
X159192264Y-61276190D01*
X159489883Y-61752381D02*
X159364883Y-60752381D01*
X158983930Y-60752381D01*
X158894644Y-60800000D01*
X158852977Y-60847619D01*
X158817263Y-60942857D01*
X158835120Y-61085714D01*
X158894644Y-61180952D01*
X158948215Y-61228571D01*
X159049406Y-61276190D01*
X159430359Y-61276190D01*
X157906549Y-61657143D02*
X157960120Y-61704762D01*
X158108930Y-61752381D01*
X158204168Y-61752381D01*
X158341073Y-61704762D01*
X158424406Y-61609524D01*
X158460121Y-61514286D01*
X158483930Y-61323810D01*
X158466073Y-61180952D01*
X158394644Y-60990476D01*
X158335121Y-60895238D01*
X158227978Y-60800000D01*
X158079168Y-60752381D01*
X157983930Y-60752381D01*
X157847025Y-60800000D01*
X157805358Y-60847619D01*
X156727978Y-61752381D02*
X156602978Y-60752381D01*
X156222025Y-60752381D01*
X156132739Y-60800000D01*
X156091072Y-60847619D01*
X156055358Y-60942857D01*
X156073215Y-61085714D01*
X156132739Y-61180952D01*
X156186310Y-61228571D01*
X156287501Y-61276190D01*
X156668454Y-61276190D01*
X155585121Y-61752381D02*
X155674406Y-61704762D01*
X155716073Y-61657143D01*
X155751787Y-61561905D01*
X155716073Y-61276190D01*
X155656549Y-61180952D01*
X155602978Y-61133333D01*
X155501787Y-61085714D01*
X155358929Y-61085714D01*
X155269644Y-61133333D01*
X155227977Y-61180952D01*
X155192263Y-61276190D01*
X155227977Y-61561905D01*
X155287501Y-61657143D01*
X155341072Y-61704762D01*
X155442263Y-61752381D01*
X155585121Y-61752381D01*
X154835120Y-61085714D02*
X154727978Y-61752381D01*
X154477977Y-61276190D01*
X154347025Y-61752381D01*
X154073215Y-61085714D01*
X153388691Y-61704762D02*
X153489882Y-61752381D01*
X153680359Y-61752381D01*
X153769644Y-61704762D01*
X153805358Y-61609524D01*
X153757739Y-61228571D01*
X153698216Y-61133333D01*
X153597025Y-61085714D01*
X153406548Y-61085714D01*
X153317263Y-61133333D01*
X153281548Y-61228571D01*
X153293453Y-61323810D01*
X153781549Y-61419048D01*
X152918454Y-61752381D02*
X152835120Y-61085714D01*
X152858930Y-61276190D02*
X152799406Y-61180952D01*
X152745835Y-61133333D01*
X152644644Y-61085714D01*
X152549405Y-61085714D01*
X151579167Y-61704762D02*
X151442263Y-61752381D01*
X151204167Y-61752381D01*
X151102976Y-61704762D01*
X151049405Y-61657143D01*
X150989881Y-61561905D01*
X150977976Y-61466667D01*
X151013691Y-61371429D01*
X151055357Y-61323810D01*
X151144643Y-61276190D01*
X151329167Y-61228571D01*
X151418453Y-61180952D01*
X151460120Y-61133333D01*
X151495834Y-61038095D01*
X151483929Y-60942857D01*
X151424405Y-60847619D01*
X151370834Y-60800000D01*
X151269644Y-60752381D01*
X151031548Y-60752381D01*
X150894643Y-60800000D01*
X150442263Y-61752381D02*
X150531548Y-61704762D01*
X150573215Y-61657143D01*
X150608929Y-61561905D01*
X150573215Y-61276190D01*
X150513691Y-61180952D01*
X150460120Y-61133333D01*
X150358929Y-61085714D01*
X150216071Y-61085714D01*
X150126786Y-61133333D01*
X150085119Y-61180952D01*
X150049405Y-61276190D01*
X150085119Y-61561905D01*
X150144643Y-61657143D01*
X150198214Y-61704762D01*
X150299405Y-61752381D01*
X150442263Y-61752381D01*
X149245833Y-61704762D02*
X149347024Y-61752381D01*
X149537501Y-61752381D01*
X149626786Y-61704762D01*
X149668453Y-61657143D01*
X149704167Y-61561905D01*
X149668453Y-61276190D01*
X149608929Y-61180952D01*
X149555358Y-61133333D01*
X149454167Y-61085714D01*
X149263690Y-61085714D01*
X149174405Y-61133333D01*
X148823215Y-61752381D02*
X148698215Y-60752381D01*
X148680358Y-61371429D02*
X148442262Y-61752381D01*
X148358928Y-61085714D02*
X148787500Y-61466667D01*
X147626785Y-61704762D02*
X147727976Y-61752381D01*
X147918453Y-61752381D01*
X148007738Y-61704762D01*
X148043452Y-61609524D01*
X147995833Y-61228571D01*
X147936310Y-61133333D01*
X147835119Y-61085714D01*
X147644642Y-61085714D01*
X147555357Y-61133333D01*
X147519642Y-61228571D01*
X147531547Y-61323810D01*
X148019643Y-61419048D01*
X147216071Y-61085714D02*
X146835119Y-61085714D01*
X147031548Y-60752381D02*
X147138690Y-61609524D01*
X147102976Y-61704762D01*
X147013691Y-61752381D01*
X146918453Y-61752381D01*
X146626785Y-61704762D02*
X146537500Y-61752381D01*
X146347024Y-61752381D01*
X146245832Y-61704762D01*
X146186308Y-61609524D01*
X146180356Y-61561905D01*
X146216070Y-61466667D01*
X146305357Y-61419048D01*
X146448214Y-61419048D01*
X146537500Y-61371429D01*
X146573214Y-61276190D01*
X146567261Y-61228571D01*
X146507738Y-61133333D01*
X146406547Y-61085714D01*
X146263690Y-61085714D01*
X146174404Y-61133333D01*
X145025594Y-61085714D02*
X144870833Y-61752381D01*
X144549403Y-61085714D01*
X143727975Y-61752381D02*
X144299404Y-61752381D01*
X144013690Y-61752381D02*
X143888690Y-60752381D01*
X144001785Y-60895238D01*
X144108927Y-60990476D01*
X144210118Y-61038095D01*
X143287499Y-61657143D02*
X143245832Y-61704762D01*
X143299404Y-61752381D01*
X143341070Y-61704762D01*
X143287499Y-61657143D01*
X143299404Y-61752381D01*
X142507738Y-60752381D02*
X142412499Y-60752381D01*
X142323213Y-60800000D01*
X142281546Y-60847619D01*
X142245832Y-60942857D01*
X142222023Y-61133333D01*
X142251785Y-61371429D01*
X142323213Y-61561905D01*
X142382737Y-61657143D01*
X142436308Y-61704762D01*
X142537499Y-61752381D01*
X142632738Y-61752381D01*
X142722023Y-61704762D01*
X142763690Y-61657143D01*
X142799404Y-61561905D01*
X142823214Y-61371429D01*
X142793452Y-61133333D01*
X142722023Y-60942857D01*
X142662499Y-60847619D01*
X142608928Y-60800000D01*
X142507738Y-60752381D01*
X140299404Y-61371429D02*
X139537499Y-61371429D01*
X138347023Y-61752381D02*
X138222023Y-60752381D01*
X137977974Y-61466667D01*
X137555356Y-60752381D01*
X137680356Y-61752381D01*
X136775594Y-61752381D02*
X136710117Y-61228571D01*
X136745832Y-61133333D01*
X136835117Y-61085714D01*
X137025594Y-61085714D01*
X137126785Y-61133333D01*
X136769641Y-61704762D02*
X136870832Y-61752381D01*
X137108928Y-61752381D01*
X137198213Y-61704762D01*
X137233927Y-61609524D01*
X137222023Y-61514286D01*
X137162499Y-61419048D01*
X137061309Y-61371429D01*
X136823213Y-61371429D01*
X136722022Y-61323810D01*
X136299404Y-61752381D02*
X136216070Y-61085714D01*
X136239880Y-61276190D02*
X136180356Y-61180952D01*
X136126785Y-61133333D01*
X136025594Y-61085714D01*
X135930355Y-61085714D01*
X135245831Y-61704762D02*
X135347022Y-61752381D01*
X135537499Y-61752381D01*
X135626784Y-61704762D01*
X135668451Y-61657143D01*
X135704165Y-61561905D01*
X135668451Y-61276190D01*
X135608927Y-61180952D01*
X135555356Y-61133333D01*
X135454165Y-61085714D01*
X135263688Y-61085714D01*
X135174403Y-61133333D01*
X134823213Y-61752381D02*
X134698213Y-60752381D01*
X134394641Y-61752381D02*
X134329164Y-61228571D01*
X134364879Y-61133333D01*
X134454164Y-61085714D01*
X134597022Y-61085714D01*
X134698213Y-61133333D01*
X134751784Y-61180952D01*
X133091069Y-60847619D02*
X133037498Y-60800000D01*
X132936308Y-60752381D01*
X132698212Y-60752381D01*
X132608926Y-60800000D01*
X132567259Y-60847619D01*
X132531545Y-60942857D01*
X132543450Y-61038095D01*
X132608926Y-61180952D01*
X133251784Y-61752381D01*
X132632736Y-61752381D01*
X131888689Y-60752381D02*
X131793450Y-60752381D01*
X131704164Y-60800000D01*
X131662497Y-60847619D01*
X131626783Y-60942857D01*
X131602974Y-61133333D01*
X131632736Y-61371429D01*
X131704164Y-61561905D01*
X131763688Y-61657143D01*
X131817259Y-61704762D01*
X131918450Y-61752381D01*
X132013689Y-61752381D01*
X132102974Y-61704762D01*
X132144641Y-61657143D01*
X132180355Y-61561905D01*
X132204165Y-61371429D01*
X132174403Y-61133333D01*
X132102974Y-60942857D01*
X132043450Y-60847619D01*
X131989879Y-60800000D01*
X131888689Y-60752381D01*
X130727974Y-61752381D02*
X131299403Y-61752381D01*
X131013689Y-61752381D02*
X130888689Y-60752381D01*
X131001784Y-60895238D01*
X131108926Y-60990476D01*
X131210117Y-61038095D01*
X129745831Y-60752381D02*
X129936308Y-60752381D01*
X130037498Y-60800000D01*
X130091069Y-60847619D01*
X130204164Y-60990476D01*
X130275593Y-61180952D01*
X130323212Y-61561905D01*
X130287498Y-61657143D01*
X130245831Y-61704762D01*
X130156546Y-61752381D01*
X129966069Y-61752381D01*
X129864878Y-61704762D01*
X129811307Y-61657143D01*
X129751783Y-61561905D01*
X129722021Y-61323810D01*
X129757735Y-61228571D01*
X129799402Y-61180952D01*
X129888688Y-61133333D01*
X130079165Y-61133333D01*
X130180355Y-61180952D01*
X130233926Y-61228571D01*
X130293450Y-61323810D01*
X138533333Y-77652381D02*
X138200000Y-78652381D01*
X137866666Y-77652381D01*
X136961904Y-78557143D02*
X137009523Y-78604762D01*
X137152380Y-78652381D01*
X137247618Y-78652381D01*
X137390476Y-78604762D01*
X137485714Y-78509524D01*
X137533333Y-78414286D01*
X137580952Y-78223810D01*
X137580952Y-78080952D01*
X137533333Y-77890476D01*
X137485714Y-77795238D01*
X137390476Y-77700000D01*
X137247618Y-77652381D01*
X137152380Y-77652381D01*
X137009523Y-77700000D01*
X136961904Y-77747619D01*
X135961904Y-78557143D02*
X136009523Y-78604762D01*
X136152380Y-78652381D01*
X136247618Y-78652381D01*
X136390476Y-78604762D01*
X136485714Y-78509524D01*
X136533333Y-78414286D01*
X136580952Y-78223810D01*
X136580952Y-78080952D01*
X136533333Y-77890476D01*
X136485714Y-77795238D01*
X136390476Y-77700000D01*
X136247618Y-77652381D01*
X136152380Y-77652381D01*
X136009523Y-77700000D01*
X135961904Y-77747619D01*
X166550000Y-98710000D02*
X166550000Y-93630000D01*
X166550000Y-93630000D02*
X169090000Y-93630000D01*
X169090000Y-93630000D02*
X169090000Y-98710000D01*
X169370000Y-101530000D02*
X169370000Y-99980000D01*
X169090000Y-98710000D02*
X166550000Y-98710000D01*
X166270000Y-99980000D02*
X166270000Y-101530000D01*
X166270000Y-101530000D02*
X169370000Y-101530000D01*
X159620000Y-80620000D02*
G75*
G02X144380000Y-80620000I-7620000J7620000D01*
G01*
X144380000Y-65380000D02*
G75*
G02X159620000Y-65380000I7620000J-7620000D01*
G01*
X155810000Y-88240000D02*
X157080000Y-88240000D01*
X156445000Y-87605000D02*
X156445000Y-88875000D01*
X148825000Y-90145000D02*
X148825000Y-90780000D01*
X148825000Y-90780000D02*
X155175000Y-90780000D01*
X155175000Y-90780000D02*
X155175000Y-90145000D01*
X148825000Y-88875000D02*
X148825000Y-90145000D01*
X155175000Y-90145000D02*
X155175000Y-83795000D01*
X148825000Y-83795000D02*
X148825000Y-88875000D01*
X129380000Y-89380000D02*
G75*
G02X144620000Y-89380000I7620000J-7620000D01*
G01*
X144620000Y-104620000D02*
G75*
G02X129380000Y-104620000I-7620000J7620000D01*
G01*
X133190000Y-81760000D02*
X131920000Y-81760000D01*
X132555000Y-82395000D02*
X132555000Y-81125000D01*
X140175000Y-79855000D02*
X140175000Y-79220000D01*
X140175000Y-79220000D02*
X133825000Y-79220000D01*
X133825000Y-79220000D02*
X133825000Y-79855000D01*
X140175000Y-81125000D02*
X140175000Y-79855000D01*
X133825000Y-79855000D02*
X133825000Y-86205000D01*
X140175000Y-86205000D02*
X140175000Y-81125000D01*
X159779000Y-95546000D02*
X159939000Y-95306000D01*
X159939000Y-95306000D02*
X160149000Y-95246000D01*
X160149000Y-95246000D02*
X160409000Y-95246000D01*
X160409000Y-95246000D02*
X160589000Y-95366000D01*
X160589000Y-95366000D02*
X160739000Y-95566000D01*
X160739000Y-95566000D02*
X160739000Y-95796000D01*
X160739000Y-95796000D02*
X160569000Y-95996000D01*
X160569000Y-95996000D02*
X160309000Y-96056000D01*
X160309000Y-96056000D02*
X160069000Y-96036000D01*
X160069000Y-96036000D02*
X159899000Y-95996000D01*
X159899000Y-95996000D02*
X159819000Y-95876000D01*
X159819000Y-95876000D02*
X159799000Y-95756000D01*
X159799000Y-95756000D02*
X159799000Y-95656000D01*
X159799000Y-95656000D02*
X159779000Y-95616000D01*
X158419000Y-95246000D02*
X158699000Y-95326000D01*
X158699000Y-95326000D02*
X158809000Y-95586000D01*
X158809000Y-95586000D02*
X158789000Y-95816000D01*
X158789000Y-95816000D02*
X158539000Y-95976000D01*
X158539000Y-95976000D02*
X158299000Y-95976000D01*
X158299000Y-95976000D02*
X157989000Y-95896000D01*
X157989000Y-95896000D02*
X157909000Y-95696000D01*
X157909000Y-95696000D02*
X157929000Y-95406000D01*
X157929000Y-95406000D02*
X158079000Y-95286000D01*
X158079000Y-95286000D02*
X158179000Y-95226000D01*
X158179000Y-95226000D02*
X158399000Y-95226000D01*
X156839000Y-108466000D02*
X156639000Y-108086000D01*
X156639000Y-108086000D02*
X156489000Y-107626000D01*
X156489000Y-107626000D02*
X156419000Y-107166000D01*
X156419000Y-107166000D02*
X156299000Y-107856000D01*
X156299000Y-107856000D02*
X156419000Y-108696000D01*
X156419000Y-108696000D02*
X156679000Y-109116000D01*
X156679000Y-109116000D02*
X156989000Y-109306000D01*
X159469000Y-99516000D02*
X158569000Y-101841000D01*
X158569000Y-101841000D02*
X157769000Y-103066000D01*
X157769000Y-103066000D02*
X157244000Y-104591000D01*
X157244000Y-104591000D02*
X156969000Y-106291000D01*
X156969000Y-106291000D02*
X156869000Y-108141000D01*
X156869000Y-108141000D02*
X157144000Y-110191000D01*
X160844000Y-97091000D02*
X160519000Y-97616000D01*
X160519000Y-97616000D02*
X160069000Y-97816000D01*
X160069000Y-97816000D02*
X159494000Y-98041000D01*
X159494000Y-98041000D02*
X158719000Y-98166000D01*
X158719000Y-98166000D02*
X158094000Y-97941000D01*
X158094000Y-97941000D02*
X157669000Y-97541000D01*
X157669000Y-97541000D02*
X157494000Y-96866000D01*
X157494000Y-96866000D02*
X157594000Y-96866000D01*
X155769000Y-99066000D02*
X156194000Y-98566000D01*
X156194000Y-98566000D02*
X157094000Y-98166000D01*
X157094000Y-98166000D02*
X155994000Y-98166000D01*
X155994000Y-98166000D02*
X154519000Y-97716000D01*
X154519000Y-97716000D02*
X153644000Y-97166000D01*
X153644000Y-97166000D02*
X153344000Y-96366000D01*
X153344000Y-96366000D02*
X153419000Y-95716000D01*
X153419000Y-95716000D02*
X153694000Y-95266000D01*
X153694000Y-95266000D02*
X154369000Y-94816000D01*
X154369000Y-94816000D02*
X155044000Y-94766000D01*
X155044000Y-94766000D02*
X155919000Y-94691000D01*
X155919000Y-94691000D02*
X156594000Y-94691000D01*
X156594000Y-94691000D02*
X156994000Y-94691000D01*
X156994000Y-94691000D02*
X156994000Y-94641000D01*
X161969000Y-95141000D02*
X162969000Y-95316000D01*
X162969000Y-95316000D02*
X163694000Y-95491000D01*
X163694000Y-95491000D02*
X164469000Y-95916000D01*
X164469000Y-95916000D02*
X165144000Y-96491000D01*
X165144000Y-96491000D02*
X165269000Y-97666000D01*
X165269000Y-97666000D02*
X164819000Y-98566000D01*
X164819000Y-98566000D02*
X163969000Y-98941000D01*
X163969000Y-98941000D02*
X162919000Y-98841000D01*
X162919000Y-98841000D02*
X162294000Y-98441000D01*
X162294000Y-98441000D02*
X161844000Y-98166000D01*
X161844000Y-98166000D02*
X162344000Y-98891000D01*
X162344000Y-98891000D02*
X162744000Y-100116000D01*
X162744000Y-100116000D02*
X162519000Y-101016000D01*
X162519000Y-101016000D02*
X162019000Y-101791000D01*
X162019000Y-101791000D02*
X161169000Y-101916000D01*
X161169000Y-101916000D02*
X159994000Y-101691000D01*
X159994000Y-101691000D02*
X159569000Y-101066000D01*
X159569000Y-101066000D02*
X159394000Y-100341000D01*
X159394000Y-100341000D02*
X159444000Y-99516000D01*
X159444000Y-99516000D02*
X158994000Y-100241000D01*
X158994000Y-100241000D02*
X158544000Y-100791000D01*
X158544000Y-100791000D02*
X157444000Y-101416000D01*
X157444000Y-101416000D02*
X156319000Y-101341000D01*
X156319000Y-101341000D02*
X155419000Y-100566000D01*
X155419000Y-100566000D02*
X155369000Y-99716000D01*
X155369000Y-99716000D02*
X155819000Y-98991000D01*
X159394000Y-93516000D02*
X159844000Y-92741000D01*
X159844000Y-92741000D02*
X160519000Y-92191000D01*
X160519000Y-92191000D02*
X161294000Y-91691000D01*
X161294000Y-91691000D02*
X162694000Y-91566000D01*
X162694000Y-91566000D02*
X163594000Y-92016000D01*
X163594000Y-92016000D02*
X164144000Y-92866000D01*
X164144000Y-92866000D02*
X164094000Y-93866000D01*
X164094000Y-93866000D02*
X163469000Y-94691000D01*
X163469000Y-94691000D02*
X162694000Y-94866000D01*
X162694000Y-94866000D02*
X161844000Y-95041000D01*
X161844000Y-95041000D02*
X161894000Y-95266000D01*
X159344000Y-93516000D02*
X159169000Y-92466000D01*
X159169000Y-92466000D02*
X158669000Y-91566000D01*
X158669000Y-91566000D02*
X157444000Y-90891000D01*
X157444000Y-90891000D02*
X156044000Y-91016000D01*
X156044000Y-91016000D02*
X155194000Y-91791000D01*
X155194000Y-91791000D02*
X154969000Y-92916000D01*
X154969000Y-92916000D02*
X155594000Y-93866000D01*
X155594000Y-93866000D02*
X156419000Y-94466000D01*
X156419000Y-94466000D02*
X157044000Y-94691000D01*
X162258806Y-96436000D02*
G75*
G03X162258806Y-96436000I-2839806J0D01*
G01*
X120550000Y-82200000D02*
X120550000Y-80650000D01*
X120550000Y-80650000D02*
X123650000Y-80650000D01*
X123650000Y-80650000D02*
X123650000Y-82200000D01*
X120830000Y-83470000D02*
X120830000Y-88550000D01*
X120830000Y-88550000D02*
X123370000Y-88550000D01*
X123370000Y-88550000D02*
X123370000Y-83470000D01*
X123370000Y-83470000D02*
X120830000Y-83470000D01*
X136070000Y-68230000D02*
X130990000Y-68230000D01*
X138890000Y-68510000D02*
X138890000Y-66960000D01*
X138610000Y-65690000D02*
X136070000Y-65690000D01*
X136070000Y-65690000D02*
X136070000Y-68230000D01*
X130990000Y-68230000D02*
X130990000Y-63150000D01*
X130990000Y-63150000D02*
X136070000Y-63150000D01*
X138890000Y-68510000D02*
X137340000Y-68510000D01*
X138610000Y-63150000D02*
X138610000Y-65690000D01*
X136070000Y-63150000D02*
X138610000Y-63150000D01*
X169370000Y-87280000D02*
X169370000Y-88830000D01*
X169370000Y-88830000D02*
X166270000Y-88830000D01*
X166270000Y-88830000D02*
X166270000Y-87280000D01*
X169090000Y-86010000D02*
X169090000Y-80930000D01*
X169090000Y-80930000D02*
X166550000Y-80930000D01*
X166550000Y-80930000D02*
X166550000Y-86010000D01*
X166550000Y-86010000D02*
X169090000Y-86010000D01*
X166375000Y-73500000D02*
X166375000Y-72300000D01*
X164625000Y-72300000D02*
X164625000Y-73500000D01*
X167238000Y-71249000D02*
X167238000Y-72392000D01*
X167238000Y-74043000D02*
X167238000Y-73408000D01*
X167200000Y-72800000D02*
X167200000Y-73100000D01*
X167600000Y-73100000D02*
X167200000Y-72800000D01*
X167200000Y-72800000D02*
X167500000Y-72700000D01*
X168750000Y-71300000D02*
X168750000Y-74000000D01*
X168150000Y-72800000D02*
X167900000Y-72800000D01*
X167900000Y-72800000D02*
X168050000Y-72650000D01*
X167650000Y-72550000D02*
X168350000Y-72550000D01*
X168000000Y-72900000D02*
X168000000Y-73250000D01*
X168000000Y-72550000D02*
X167650000Y-72900000D01*
X167650000Y-72900000D02*
X168350000Y-72900000D01*
X168350000Y-72900000D02*
X168000000Y-72550000D01*
X120830000Y-73310000D02*
X120830000Y-75850000D01*
X120550000Y-70490000D02*
X120550000Y-72040000D01*
X120830000Y-73310000D02*
X123370000Y-73310000D01*
X123650000Y-72040000D02*
X123650000Y-70490000D01*
X123650000Y-70490000D02*
X120550000Y-70490000D01*
X123370000Y-73310000D02*
X123370000Y-75850000D01*
X123370000Y-75850000D02*
X120830000Y-75850000D01*
X136070000Y-73310000D02*
X136070000Y-70770000D01*
X136070000Y-70770000D02*
X128450000Y-70770000D01*
X128450000Y-70770000D02*
X128450000Y-73310000D01*
X128450000Y-73310000D02*
X136070000Y-73310000D01*
X133530000Y-70770000D02*
X133530000Y-73310000D01*
X152785714Y-72328571D02*
X152642857Y-72376190D01*
X152595238Y-72423810D01*
X152547619Y-72519048D01*
X152547619Y-72661905D01*
X152595238Y-72757143D01*
X152642857Y-72804762D01*
X152738095Y-72852381D01*
X153119048Y-72852381D01*
X153119048Y-71852381D01*
X152785714Y-71852381D01*
X152690476Y-71900000D01*
X152642857Y-71947619D01*
X152595238Y-72042857D01*
X152595238Y-72138095D01*
X152642857Y-72233333D01*
X152690476Y-72280952D01*
X152785714Y-72328571D01*
X153119048Y-72328571D01*
X152261905Y-71852381D02*
X151690476Y-71852381D01*
X151976191Y-72852381D02*
X151976191Y-71852381D01*
X151404762Y-71947619D02*
X151357143Y-71900000D01*
X151261905Y-71852381D01*
X151023809Y-71852381D01*
X150928571Y-71900000D01*
X150880952Y-71947619D01*
X150833333Y-72042857D01*
X150833333Y-72138095D01*
X150880952Y-72280952D01*
X151452381Y-72852381D01*
X150833333Y-72852381D01*
X137785714Y-96928571D02*
X137642857Y-96976190D01*
X137595238Y-97023810D01*
X137547619Y-97119048D01*
X137547619Y-97261905D01*
X137595238Y-97357143D01*
X137642857Y-97404762D01*
X137738095Y-97452381D01*
X138119048Y-97452381D01*
X138119048Y-96452381D01*
X137785714Y-96452381D01*
X137690476Y-96500000D01*
X137642857Y-96547619D01*
X137595238Y-96642857D01*
X137595238Y-96738095D01*
X137642857Y-96833333D01*
X137690476Y-96880952D01*
X137785714Y-96928571D01*
X138119048Y-96928571D01*
X137261905Y-96452381D02*
X136690476Y-96452381D01*
X136976191Y-97452381D02*
X136976191Y-96452381D01*
X135833333Y-97452381D02*
X136404762Y-97452381D01*
X136119048Y-97452381D02*
X136119048Y-96452381D01*
X136214286Y-96595238D01*
X136309524Y-96690476D01*
X136404762Y-96738095D01*
X125830333Y-89859714D02*
X125830333Y-90526381D01*
X126068429Y-89478762D02*
X126306524Y-90193048D01*
X125687476Y-90193048D01*
X125401762Y-89526381D02*
X124782714Y-89526381D01*
X125116048Y-89907333D01*
X124973190Y-89907333D01*
X124877952Y-89954952D01*
X124830333Y-90002571D01*
X124782714Y-90097810D01*
X124782714Y-90335905D01*
X124830333Y-90431143D01*
X124877952Y-90478762D01*
X124973190Y-90526381D01*
X125258905Y-90526381D01*
X125354143Y-90478762D01*
X125401762Y-90431143D01*
X124449381Y-89526381D02*
X123830333Y-89526381D01*
X124163667Y-89907333D01*
X124020809Y-89907333D01*
X123925571Y-89954952D01*
X123877952Y-90002571D01*
X123830333Y-90097810D01*
X123830333Y-90335905D01*
X123877952Y-90431143D01*
X123925571Y-90478762D01*
X124020809Y-90526381D01*
X124306524Y-90526381D01*
X124401762Y-90478762D01*
X124449381Y-90431143D01*
X123401762Y-90526381D02*
X123401762Y-89526381D01*
X123068428Y-90240667D01*
X122735095Y-89526381D01*
X122735095Y-90526381D01*
X122258905Y-90526381D02*
X122258905Y-89526381D01*
X122258905Y-90002571D02*
X121687476Y-90002571D01*
X121687476Y-90526381D02*
X121687476Y-89526381D01*
X121306524Y-89526381D02*
X120639857Y-89526381D01*
X121306524Y-90526381D01*
X120639857Y-90526381D01*
X142516190Y-64912381D02*
X142516190Y-63912381D01*
X141468571Y-64817143D02*
X141516190Y-64864762D01*
X141659047Y-64912381D01*
X141754285Y-64912381D01*
X141897143Y-64864762D01*
X141992381Y-64769524D01*
X142040000Y-64674286D01*
X142087619Y-64483810D01*
X142087619Y-64340952D01*
X142040000Y-64150476D01*
X141992381Y-64055238D01*
X141897143Y-63960000D01*
X141754285Y-63912381D01*
X141659047Y-63912381D01*
X141516190Y-63960000D01*
X141468571Y-64007619D01*
X141087619Y-64864762D02*
X140944762Y-64912381D01*
X140706666Y-64912381D01*
X140611428Y-64864762D01*
X140563809Y-64817143D01*
X140516190Y-64721905D01*
X140516190Y-64626667D01*
X140563809Y-64531429D01*
X140611428Y-64483810D01*
X140706666Y-64436190D01*
X140897143Y-64388571D01*
X140992381Y-64340952D01*
X141040000Y-64293333D01*
X141087619Y-64198095D01*
X141087619Y-64102857D01*
X141040000Y-64007619D01*
X140992381Y-63960000D01*
X140897143Y-63912381D01*
X140659047Y-63912381D01*
X140516190Y-63960000D01*
X140087619Y-64912381D02*
X140087619Y-63912381D01*
X139706666Y-63912381D01*
X139611428Y-63960000D01*
X139563809Y-64007619D01*
X139516190Y-64102857D01*
X139516190Y-64245714D01*
X139563809Y-64340952D01*
X139611428Y-64388571D01*
X139706666Y-64436190D01*
X140087619Y-64436190D01*
X169010333Y-79318714D02*
X169010333Y-79985381D01*
X169248429Y-78937762D02*
X169486524Y-79652048D01*
X168867476Y-79652048D01*
X168581762Y-78985381D02*
X167962714Y-78985381D01*
X168296048Y-79366333D01*
X168153190Y-79366333D01*
X168057952Y-79413952D01*
X168010333Y-79461571D01*
X167962714Y-79556810D01*
X167962714Y-79794905D01*
X168010333Y-79890143D01*
X168057952Y-79937762D01*
X168153190Y-79985381D01*
X168438905Y-79985381D01*
X168534143Y-79937762D01*
X168581762Y-79890143D01*
X167629381Y-78985381D02*
X167010333Y-78985381D01*
X167343667Y-79366333D01*
X167200809Y-79366333D01*
X167105571Y-79413952D01*
X167057952Y-79461571D01*
X167010333Y-79556810D01*
X167010333Y-79794905D01*
X167057952Y-79890143D01*
X167105571Y-79937762D01*
X167200809Y-79985381D01*
X167486524Y-79985381D01*
X167581762Y-79937762D01*
X167629381Y-79890143D01*
X166581762Y-79985381D02*
X166581762Y-78985381D01*
X166248428Y-79699667D01*
X165915095Y-78985381D01*
X165915095Y-79985381D01*
X165438905Y-79985381D02*
X165438905Y-78985381D01*
X165438905Y-79461571D02*
X164867476Y-79461571D01*
X164867476Y-79985381D02*
X164867476Y-78985381D01*
X164486524Y-78985381D02*
X163819857Y-78985381D01*
X164486524Y-79985381D01*
X163819857Y-79985381D01*
X163666666Y-74602381D02*
X164000000Y-74126190D01*
X164238095Y-74602381D02*
X164238095Y-73602381D01*
X163857142Y-73602381D01*
X163761904Y-73650000D01*
X163714285Y-73697619D01*
X163666666Y-73792857D01*
X163666666Y-73935714D01*
X163714285Y-74030952D01*
X163761904Y-74078571D01*
X163857142Y-74126190D01*
X164238095Y-74126190D01*
X162761904Y-73602381D02*
X163238095Y-73602381D01*
X163285714Y-74078571D01*
X163238095Y-74030952D01*
X163142857Y-73983333D01*
X162904761Y-73983333D01*
X162809523Y-74030952D01*
X162761904Y-74078571D01*
X162714285Y-74173810D01*
X162714285Y-74411905D01*
X162761904Y-74507143D01*
X162809523Y-74554762D01*
X162904761Y-74602381D01*
X163142857Y-74602381D01*
X163238095Y-74554762D01*
X163285714Y-74507143D01*
X164047619Y-72530952D02*
X164142857Y-72483333D01*
X164190476Y-72435714D01*
X164238095Y-72340476D01*
X164238095Y-72292857D01*
X164190476Y-72197619D01*
X164142857Y-72150000D01*
X164047619Y-72102381D01*
X163857142Y-72102381D01*
X163761904Y-72150000D01*
X163714285Y-72197619D01*
X163666666Y-72292857D01*
X163666666Y-72340476D01*
X163714285Y-72435714D01*
X163761904Y-72483333D01*
X163857142Y-72530952D01*
X164047619Y-72530952D01*
X164142857Y-72578571D01*
X164190476Y-72626190D01*
X164238095Y-72721429D01*
X164238095Y-72911905D01*
X164190476Y-73007143D01*
X164142857Y-73054762D01*
X164047619Y-73102381D01*
X163857142Y-73102381D01*
X163761904Y-73054762D01*
X163714285Y-73007143D01*
X163666666Y-72911905D01*
X163666666Y-72721429D01*
X163714285Y-72626190D01*
X163761904Y-72578571D01*
X163857142Y-72530952D01*
X163285714Y-72197619D02*
X163238095Y-72150000D01*
X163142857Y-72102381D01*
X162904761Y-72102381D01*
X162809523Y-72150000D01*
X162761904Y-72197619D01*
X162714285Y-72292857D01*
X162714285Y-72388095D01*
X162761904Y-72530952D01*
X163333333Y-73102381D01*
X162714285Y-73102381D01*
X162095238Y-72102381D02*
X161999999Y-72102381D01*
X161904761Y-72150000D01*
X161857142Y-72197619D01*
X161809523Y-72292857D01*
X161761904Y-72483333D01*
X161761904Y-72721429D01*
X161809523Y-72911905D01*
X161857142Y-73007143D01*
X161904761Y-73054762D01*
X161999999Y-73102381D01*
X162095238Y-73102381D01*
X162190476Y-73054762D01*
X162238095Y-73007143D01*
X162285714Y-72911905D01*
X162333333Y-72721429D01*
X162333333Y-72483333D01*
X162285714Y-72292857D01*
X162238095Y-72197619D01*
X162190476Y-72150000D01*
X162095238Y-72102381D01*
X168738095Y-70352381D02*
X168738095Y-69352381D01*
X168500000Y-69352381D01*
X168357142Y-69400000D01*
X168261904Y-69495238D01*
X168214285Y-69590476D01*
X168166666Y-69780952D01*
X168166666Y-69923810D01*
X168214285Y-70114286D01*
X168261904Y-70209524D01*
X168357142Y-70304762D01*
X168500000Y-70352381D01*
X168738095Y-70352381D01*
X167309523Y-69685714D02*
X167309523Y-70352381D01*
X167547619Y-69304762D02*
X167785714Y-70019048D01*
X167166666Y-70019048D01*
X168571428Y-76252381D02*
X169047619Y-76252381D01*
X169047619Y-75252381D01*
X167857142Y-76204762D02*
X167952380Y-76252381D01*
X168142857Y-76252381D01*
X168238095Y-76204762D01*
X168285714Y-76109524D01*
X168285714Y-75728571D01*
X168238095Y-75633333D01*
X168142857Y-75585714D01*
X167952380Y-75585714D01*
X167857142Y-75633333D01*
X167809523Y-75728571D01*
X167809523Y-75823810D01*
X168285714Y-75919048D01*
X166952380Y-76252381D02*
X166952380Y-75252381D01*
X166952380Y-76204762D02*
X167047618Y-76252381D01*
X167238095Y-76252381D01*
X167333333Y-76204762D01*
X167380952Y-76157143D01*
X167428571Y-76061905D01*
X167428571Y-75776190D01*
X167380952Y-75680952D01*
X167333333Y-75633333D01*
X167238095Y-75585714D01*
X167047618Y-75585714D01*
X166952380Y-75633333D01*
X131172191Y-77032667D02*
X130696000Y-77032667D01*
X131267429Y-77318381D02*
X130934096Y-76318381D01*
X130600762Y-77318381D01*
X129791238Y-77318381D02*
X130267429Y-77318381D01*
X130267429Y-76318381D01*
X129600762Y-76318381D02*
X129029333Y-76318381D01*
X129315048Y-77318381D02*
X129315048Y-76318381D01*
X128934095Y-77413619D02*
X128172190Y-77413619D01*
X127934095Y-77318381D02*
X127934095Y-76318381D01*
X127553142Y-76318381D01*
X127457904Y-76366000D01*
X127410285Y-76413619D01*
X127362666Y-76508857D01*
X127362666Y-76651714D01*
X127410285Y-76746952D01*
X127457904Y-76794571D01*
X127553142Y-76842190D01*
X127934095Y-76842190D01*
X127029333Y-76318381D02*
X126791238Y-77318381D01*
X126600761Y-76604095D01*
X126410285Y-77318381D01*
X126172190Y-76318381D01*
X125219809Y-77318381D02*
X125553143Y-76842190D01*
X125791238Y-77318381D02*
X125791238Y-76318381D01*
X125410285Y-76318381D01*
X125315047Y-76366000D01*
X125267428Y-76413619D01*
X125219809Y-76508857D01*
X125219809Y-76651714D01*
X125267428Y-76746952D01*
X125315047Y-76794571D01*
X125410285Y-76842190D01*
X125791238Y-76842190D01*
X133593333Y-74694762D02*
X133450476Y-74742381D01*
X133212380Y-74742381D01*
X133117142Y-74694762D01*
X133069523Y-74647143D01*
X133021904Y-74551905D01*
X133021904Y-74456667D01*
X133069523Y-74361429D01*
X133117142Y-74313810D01*
X133212380Y-74266190D01*
X133402857Y-74218571D01*
X133498095Y-74170952D01*
X133545714Y-74123333D01*
X133593333Y-74028095D01*
X133593333Y-73932857D01*
X133545714Y-73837619D01*
X133498095Y-73790000D01*
X133402857Y-73742381D01*
X133164761Y-73742381D01*
X133021904Y-73790000D01*
X132688571Y-73742381D02*
X132450476Y-74742381D01*
X132259999Y-74028095D01*
X132069523Y-74742381D01*
X131831428Y-73742381D01*
X130926666Y-74742381D02*
X131498095Y-74742381D01*
X131212381Y-74742381D02*
X131212381Y-73742381D01*
X131307619Y-73885238D01*
X131402857Y-73980476D01*
X131498095Y-74028095D01*
%LPC*%
D12*
X167820000Y-99980000D03*
D13*
X167820000Y-97440000D03*
X167820000Y-94900000D03*
D14*
X152000000Y-68000000D03*
X152000000Y-88240000D03*
X137000000Y-102000000D03*
X137000000Y-81760000D03*
D15*
X166000000Y-64000000D03*
D16*
X142420000Y-94900000D03*
D17*
X144960000Y-94900000D03*
X147500000Y-94900000D03*
D12*
X122100000Y-82200000D03*
D13*
X122100000Y-84740000D03*
X122100000Y-87280000D03*
D18*
X137340000Y-66960000D03*
D19*
X137340000Y-64420000D03*
X134800000Y-66960000D03*
X134800000Y-64420000D03*
X132260000Y-66960000D03*
X132260000Y-64420000D03*
D12*
X167820000Y-87280000D03*
D13*
X167820000Y-84740000D03*
X167820000Y-82200000D03*
D15*
X166000000Y-106000000D03*
X124000000Y-106000000D03*
X124000000Y-64000000D03*
D20*
X165500000Y-71550000D03*
X165500000Y-74250000D03*
D21*
X168000000Y-73949020D03*
X168000000Y-71850980D03*
D22*
X122100000Y-72040000D03*
D23*
X122100000Y-74580000D03*
D24*
X130500000Y-85000000D03*
X159500000Y-85000000D03*
D25*
X134800000Y-72040000D03*
D26*
X132260000Y-72040000D03*
X129720000Y-72040000D03*
M02*
