<?xml version="1.0" standalone="no"?>
 <!DOCTYPE svg PUBLIC "-//W3C//DTD SVG 1.1//EN" 
 "http://www.w3.org/Graphics/SVG/1.1/DTD/svg11.dtd"> 
<svg xmlns="http://www.w3.org/2000/svg" version="1.1" 
    width="3.26644cm" height="3.14452cm" viewBox="0 0 12860 12380 ">
<title>SVG Picture created as rc_power_sockets-brd.svg date 2016/09/03 18:41:16 </title>
  <desc>Picture generated by PCBNEW </desc>
<g style="fill:#000000; fill-opacity:1;stroke:#000000; stroke-opacity:1;
stroke-linecap:round; stroke-linejoin:round; "
 transform="translate(0 0) scale(1 1)">
</g>
<g style="fill:#000000; fill-opacity:0.0; 
stroke:#000000; stroke-width:-0.000393701; stroke-opacity:1; 
stroke-linecap:round; stroke-linejoin:round;">
</g>
<g style="fill:#840084; fill-opacity:0.0; 
stroke:#840084; stroke-width:-0.000393701; stroke-opacity:1; 
stroke-linecap:round; stroke-linejoin:round;">
</g>
<g style="fill:#840084; fill-opacity:0.0; 
stroke:#840084; stroke-width:60; stroke-opacity:1; 
stroke-linecap:round; stroke-linejoin:round;">
<path d="M9641 3488
L9832 3488
" />
<path d="M9603 3602
L9737 3202
L9870 3602
" />
<path d="M10079 3202
L10118 3202
L10156 3222
L10175 3241
L10194 3279
L10213 3355
L10213 3450
L10194 3526
L10175 3564
L10156 3583
L10118 3602
L10079 3602
L10041 3583
L10022 3564
L10003 3526
L9984 3450
L9984 3355
L10003 3279
L10022 3241
L10041 3222
L10079 3202
" />
<path d="M9282 2352
L9529 2352
L9396 2505
L9453 2505
L9491 2524
L9510 2543
L9529 2581
L9529 2676
L9510 2714
L9491 2733
L9453 2752
L9339 2752
L9301 2733
L9282 2714
" />
<path d="M9644 2352
L9777 2752
L9910 2352
" />
<path d="M10006 2352
L10253 2352
L10120 2505
L10177 2505
L10215 2524
L10234 2543
L10253 2581
L10253 2676
L10234 2714
L10215 2733
L10177 2752
L10063 2752
L10025 2733
L10006 2714
" />
<path d="M6391 2652
L6163 2652
" />
<path d="M6277 2652
L6277 2252
L6239 2310
L6201 2348
L6163 2367
" />
</g>
<g style="fill:#840084; fill-opacity:0.0; 
stroke:#840084; stroke-width:100; stroke-opacity:1; 
stroke-linecap:round; stroke-linejoin:round;">
<path d="M2875 1450
L3179 1450
" />
<path d="M6125 1450
L6429 1450
" />
<path d="M6277 1602
L6277 1298
" />
<path d="M3075 9950
L3379 9950
" />
<path d="M6175 9950
L6479 9950
" />
<path d="M6327 10102
L6327 9798
" />
<path d="M8525 10000
L8829 10000
" />
<path d="M9875 6450
L10179 6450
" />
<path d="M9875 5750
L10179 5750
" />
<path d="M10027 5902
L10027 5598
" />
</g>
<g style="fill:#840084; fill-opacity:0.0; 
stroke:#840084; stroke-width:60; stroke-opacity:1; 
stroke-linecap:round; stroke-linejoin:round;">
<path d="M2896 5272
L3296 5272
L3296 5424
L3277 5462
L3258 5481
L3220 5500
L3163 5500
L3125 5481
L3106 5462
L3087 5424
L3087 5272
" />
<path d="M2896 5672
L3296 5672
" />
<path d="M2896 6091
L3087 5957
" />
<path d="M2896 5862
L3296 5862
L3296 6014
L3277 6052
L3258 6072
L3220 6091
L3163 6091
L3125 6072
L3106 6052
L3087 6014
L3087 5862
" />
</g>
<g style="fill:#840084; fill-opacity:0.0; 
stroke:#840084; stroke-width:100; stroke-opacity:1; 
stroke-linecap:round; stroke-linejoin:round;">
<path d="M2175 3900
L2479 3900
" />
<path d="M2175 7500
L2479 7500
" />
<path d="M2327 7652
L2327 7348
" />
</g>
<g style="fill:#840084; fill-opacity:0.0; 
stroke:#840084; stroke-width:60; stroke-opacity:1; 
stroke-linecap:round; stroke-linejoin:round;">
<path d="M8958 4838
L9149 4838
" />
<path d="M8920 4952
L9053 4552
L9187 4952
" />
<path d="M9263 4552
L9491 4552
" />
<path d="M9377 4952
L9377 4552
" />
<path d="M9606 4838
L9796 4838
" />
<path d="M9568 4952
L9701 4552
L9834 4952
" />
<path d="M9968 4952
L9968 4552
L10063 4552
L10120 4572
L10158 4610
L10177 4648
L10196 4724
L10196 4781
L10177 4857
L10158 4895
L10120 4933
L10063 4952
L9968 4952
" />
<path d="M7878 1762
L7769 1572
" />
<path d="M7650 1762
L7700 1362
L7852 1362
L7888 1382
L7904 1401
L7919 1439
L7912 1496
L7888 1534
L7866 1553
L7826 1572
L7674 1572
" />
<path d="M8283 1724
L8262 1743
L8202 1762
L8164 1762
L8109 1743
L8076 1705
L8062 1667
L8052 1591
L8059 1534
L8088 1458
L8112 1420
L8154 1382
L8214 1362
L8252 1362
L8307 1382
L8324 1401
" />
<path d="M7164 2382
L7214 1982
L7366 1982
L7402 2002
L7419 2021
L7433 2059
L7426 2116
L7402 2154
L7381 2173
L7340 2192
L7188 2192
" />
<path d="M7621 2382
L7585 2363
L7569 2344
L7554 2306
L7569 2192
L7593 2154
L7614 2135
L7654 2116
L7712 2116
L7747 2135
L7764 2154
L7778 2192
L7764 2306
L7740 2344
L7719 2363
L7678 2382
L7621 2382
" />
<path d="M7921 2116
L7964 2382
L8064 2192
L8116 2382
L8226 2116
" />
<path d="M8500 2363
L8459 2382
L8383 2382
L8347 2363
L8333 2325
L8352 2173
L8376 2135
L8416 2116
L8493 2116
L8528 2135
L8543 2173
L8538 2211
L8343 2249
" />
<path d="M8688 2382
L8721 2116
" />
<path d="M8712 2192
L8735 2154
L8757 2135
L8797 2116
L8835 2116
" />
<path d="M6881 2983
L6935 3002
L7031 3002
L7071 2983
L7093 2964
L7116 2926
L7121 2888
L7107 2850
L7090 2831
L7054 2812
L6981 2793
L6945 2774
L6928 2755
L6914 2717
L6919 2679
L6943 2641
L6964 2622
L7004 2602
L7100 2602
L7154 2622
" />
<path d="M7335 3002
L7300 2983
L7283 2964
L7269 2926
L7283 2812
L7307 2774
L7328 2755
L7369 2736
L7426 2736
L7462 2755
L7478 2774
L7493 2812
L7478 2926
L7454 2964
L7433 2983
L7393 3002
L7335 3002
" />
<path d="M7814 2983
L7774 3002
L7697 3002
L7662 2983
L7645 2964
L7631 2926
L7645 2812
L7669 2774
L7690 2755
L7731 2736
L7807 2736
L7843 2755
" />
<path d="M7983 3002
L8033 2602
" />
<path d="M8040 2850
L8135 3002
" />
<path d="M8169 2736
L7997 2888
" />
<path d="M8462 2983
L8421 3002
L8345 3002
L8309 2983
L8295 2945
L8314 2793
L8338 2755
L8378 2736
L8454 2736
L8490 2755
L8504 2793
L8500 2831
L8304 2869
" />
<path d="M8626 2736
L8778 2736
" />
<path d="M8700 2602
L8657 2945
L8671 2983
L8707 3002
L8745 3002
" />
<path d="M8862 2983
L8897 3002
L8974 3002
L9014 2983
L9038 2945
L9040 2926
L9026 2888
L8990 2869
L8933 2869
L8897 2850
L8883 2812
L8885 2793
L8909 2755
L8950 2736
L9007 2736
L9043 2755
" />
<path d="M7185 3603
L7240 3622
L7335 3622
L7376 3603
L7397 3584
L7421 3546
L7426 3508
L7412 3470
L7395 3451
L7359 3432
L7285 3413
L7250 3394
L7233 3375
L7219 3337
L7224 3299
L7247 3261
L7269 3242
L7309 3222
L7404 3222
L7459 3242
" />
<path d="M7583 3622
L7616 3356
" />
<path d="M7612 3394
L7633 3375
L7674 3356
L7731 3356
L7766 3375
L7781 3413
L7754 3622
" />
<path d="M7781 3413
L7804 3375
L7845 3356
L7902 3356
L7938 3375
L7952 3413
L7926 3622
" />
<path d="M8288 3622
L8314 3413
L8300 3375
L8264 3356
L8188 3356
L8147 3375
" />
<path d="M8290 3603
L8250 3622
L8154 3622
L8119 3603
L8104 3565
L8109 3527
L8133 3489
L8174 3470
L8269 3470
L8309 3451
" />
<path d="M8535 3622
L8500 3603
L8485 3565
L8528 3222
" />
<path d="M8745 3622
L8709 3603
L8695 3565
L8738 3222
" />
<path d="M7416 3976
L7478 4242
L7607 3976
" />
<path d="M7935 4242
L7707 4242
" />
<path d="M7821 4242
L7871 3842
L7826 3900
L7783 3938
L7743 3957
" />
<path d="M8112 4204
L8128 4223
L8107 4242
L8090 4223
L8112 4204
L8107 4242
" />
<path d="M8507 4242
L8278 4242
" />
<path d="M8393 4242
L8443 3842
L8397 3900
L8354 3938
L8314 3957
" />
</g>
<g style="fill:#840084; fill-opacity:0.0; 
stroke:#840084; stroke-width:59.0551; stroke-opacity:1; 
stroke-linecap:round; stroke-linejoin:round;">
<path d="M3492 5633
L3492 6026
" />
<path d="M4162 6026
L4162 5633
" />
<path d="M4227 5772
L4227 6972
" />
<path d="M4227 6972
L7027 6972
" />
<path d="M7027 6972
L7027 5772
" />
<path d="M4227 4572
L4227 4272
" />
<path d="M4227 4272
L4827 3372
" />
<path d="M4827 3372
L6427 3372
" />
<path d="M6427 3372
L7027 4272
" />
<path d="M7027 4272
L7027 4572
" />
<path d="M8947 9362
L8671 9362
" />
<path d="M8671 9362
L8671 9264
" />
<path d="M8671 8260
L8671 8181
" />
<path d="M8671 8181
L8947 8181
" />
<path d="M8947 7962
L8671 7962
" />
<path d="M8671 7962
L8671 7864
" />
<path d="M8671 6860
L8671 6781
" />
<path d="M8671 6781
L8947 6781
" />
<path d="M2937 4722
L2937 4111
" />
<path d="M2937 4111
L1717 4111
" />
<path d="M1717 4111
L1717 4722
" />
<path d="M2827 5222
L2827 7222
" />
<path d="M2827 7222
L1827 7222
" />
<path d="M1827 7222
L1827 5222
" />
<path d="M1827 5222
L2827 5222
" />
<path d="M8016 5937
L7622 5937
" />
<path d="M7622 6606
L8016 6606
" />
<path d="M6313 9216
L5841 9216
" />
<path d="M5841 8527
L6313 8527
" />
<path d="M6313 8366
L5841 8366
" />
<path d="M5841 7677
L6313 7677
" />
<path d="M10972 8135
L10972 8608
" />
<path d="M10283 8608
L10283 8135
" />
<path d="M10217 10582
L10217 9972
" />
<path d="M11437 9972
L11437 10582
" />
<path d="M11437 10582
L10217 10582
" />
<path d="M11327 9472
L10327 9472
" />
<path d="M1717 10582
L1717 9972
" />
<path d="M2937 9972
L2937 10582
" />
<path d="M2937 10582
L1717 10582
" />
<path d="M2827 9472
L1827 9472
" />
<path d="M10217 2082
L10217 1472
" />
<path d="M11437 1472
L11437 2082
" />
<path d="M11437 2082
L10217 2082
" />
<path d="M11327 972
L10327 972
" />
<path d="M1717 2082
L1717 1472
" />
<path d="M2937 1472
L2937 2082
" />
<path d="M2937 2082
L1717 2082
" />
<path d="M2827 972
L1827 972
" />
<path d="M3252 8872
L3402 8872
" />
<path d="M2852 8872
L3002 8872
" />
<path d="M3002 8872
L3252 8722
" />
<path d="M3252 8722
L3252 9022
" />
<path d="M3252 9022
L3002 8872
" />
<path d="M3002 8672
L3002 9072
" />
<path d="M2340 9226
L3733 9226
" />
<path d="M2340 8517
L3733 8517
" />
<path d="M3599 4137
L3599 3912
" />
<path d="M3599 4025
L3993 4025
L3936 3987
L3899 3950
L3880 3912
" />
<path d="M3861 4475
L3599 4475
" />
<path d="M3861 4306
L3655 4306
L3618 4325
L3599 4362
L3599 4418
L3618 4456
L3636 4475
" />
<path d="M3805 4793
L3805 4662
" />
<path d="M3599 4662
L3993 4662
L3993 4850
" />
</g>
<g style="fill:#840000; fill-opacity:0.0; 
stroke:#840000; stroke-width:59.0551; stroke-opacity:1; 
stroke-linecap:round; stroke-linejoin:round;">
<path d="M5327 5006
L5327 5325
L5346 5362
L5365 5381
L5402 5400
L5477 5400
L5515 5381
L5533 5362
L5552 5325
L5552 5006
" />
<path d="M5946 5400
L5721 5400
" />
<path d="M5833 5400
L5833 5006
L5796 5062
L5758 5100
L5721 5118
" />
</g>
<g style="fill:#840084; fill-opacity:0.0; 
stroke:#840084; stroke-width:59.0551; stroke-opacity:1; 
stroke-linecap:round; stroke-linejoin:round;">
<path d="M7046 8500
L7046 8106
L7271 8500
L7271 8106
" />
<path d="M7458 8500
L7458 8106
L7590 8387
L7721 8106
L7721 8500
" />
<path d="M7983 8106
L8058 8106
L8096 8125
L8133 8162
L8152 8237
L8152 8368
L8133 8443
L8096 8481
L8058 8500
L7983 8500
L7946 8481
L7908 8443
L7890 8368
L7890 8237
L7908 8162
L7946 8125
L7983 8106
" />
<path d="M8302 8481
L8358 8500
L8452 8500
L8489 8481
L8508 8462
L8527 8425
L8527 8387
L8508 8350
L8489 8331
L8452 8312
L8377 8293
L8340 8275
L8321 8256
L8302 8218
L8302 8181
L8321 8143
L8340 8125
L8377 8106
L8471 8106
L8527 8125
" />
<path d="M7055 8050
L7055 7656
L7205 7656
L7243 7675
L7262 7693
L7280 7731
L7280 7787
L7262 7825
L7243 7843
L7205 7862
L7055 7862
" />
<path d="M7449 8050
L7449 7656
L7580 7937
L7711 7656
L7711 8050
" />
<path d="M7974 7656
L8049 7656
L8086 7675
L8124 7712
L8143 7787
L8143 7918
L8124 7993
L8086 8031
L8049 8050
L7974 8050
L7936 8031
L7899 7993
L7880 7918
L7880 7787
L7899 7712
L7936 7675
L7974 7656
" />
<path d="M8293 8031
L8349 8050
L8443 8050
L8480 8031
L8499 8012
L8518 7975
L8518 7937
L8499 7900
L8480 7881
L8443 7862
L8368 7843
L8330 7825
L8311 7806
L8293 7768
L8293 7731
L8311 7693
L8330 7675
L8368 7656
L8461 7656
L8518 7675
" />
<path d="M7593 5800
L7368 5800
" />
<path d="M7480 5800
L7480 5406
L7443 5462
L7405 5500
L7368 5518
" />
<path d="M7930 5537
L7930 5800
" />
<path d="M7761 5537
L7761 5743
L7780 5781
L7818 5800
L7874 5800
L7911 5781
L7930 5762
" />
<path d="M8249 5593
L8118 5593
" />
<path d="M8118 5800
L8118 5406
L8305 5406
" />
<path d="M5590 9293
L5608 9275
L5646 9256
L5740 9256
L5777 9275
L5796 9293
L5815 9331
L5815 9368
L5796 9425
L5571 9650
L5815 9650
" />
<path d="M5965 9293
L5983 9275
L6021 9256
L6115 9256
L6152 9275
L6171 9293
L6190 9331
L6190 9368
L6171 9425
L5946 9650
L6190 9650
" />
<path d="M6433 9256
L6471 9256
L6508 9275
L6527 9293
L6546 9331
L6565 9406
L6565 9500
L6546 9575
L6527 9612
L6508 9631
L6471 9650
L6433 9650
L6396 9631
L6377 9612
L6358 9575
L6340 9500
L6340 9406
L6358 9331
L6377 9293
L6396 9275
L6433 9256
" />
<path d="M5618 7550
L5393 7550
" />
<path d="M5505 7550
L5505 7156
L5468 7212
L5430 7250
L5393 7268
" />
<path d="M5861 7156
L5899 7156
L5936 7175
L5955 7193
L5974 7231
L5993 7306
L5993 7400
L5974 7475
L5955 7512
L5936 7531
L5899 7550
L5861 7550
L5824 7531
L5805 7512
L5786 7475
L5768 7400
L5768 7306
L5786 7231
L5805 7193
L5824 7175
L5861 7156
" />
<path d="M6236 7156
L6274 7156
L6311 7175
L6330 7193
L6349 7231
L6368 7306
L6368 7400
L6349 7475
L6330 7512
L6311 7531
L6274 7550
L6236 7550
L6199 7531
L6180 7512
L6161 7475
L6143 7400
L6143 7306
L6161 7231
L6180 7193
L6199 7175
L6236 7156
" />
<path d="M6536 7550
L6536 7156
" />
<path d="M6761 7550
L6593 7325
" />
<path d="M6761 7156
L6536 7381
" />
<path d="M10999 8100
L10999 7875
" />
<path d="M10999 7987
L11393 7987
L11336 7950
L11299 7912
L11280 7875
" />
<path d="M11393 8343
L11393 8381
L11374 8418
L11355 8437
L11318 8456
L11243 8475
L11149 8475
L11074 8456
L11036 8437
L11018 8418
L10999 8381
L10999 8343
L11018 8306
L11036 8287
L11074 8268
L11149 8250
L11243 8250
L11318 8268
L11355 8287
L11374 8306
L11393 8343
" />
<path d="M10999 8643
L11393 8643
" />
<path d="M10999 8868
L11224 8700
" />
<path d="M11393 8868
L11168 8643
" />
</g>
<g style="fill:#000000; fill-opacity:0.0; 
stroke:#000000; stroke-width:59.0551; stroke-opacity:1; 
stroke-linecap:round; stroke-linejoin:round;">
</g>
<g style="fill:#008400; fill-opacity:0.0; 
stroke:#008400; stroke-width:59.0551; stroke-opacity:1; 
stroke-linecap:round; stroke-linejoin:round;">
</g>
<g style="fill:#008400; fill-opacity:0.0; 
stroke:#008400; stroke-width:0; stroke-opacity:1; 
stroke-linecap:round; stroke-linejoin:round;">
</g>
<g style="fill:#008400; fill-opacity:1.0; 
stroke:#008400; stroke-width:0; stroke-opacity:1; 
stroke-linecap:round; stroke-linejoin:round;">
<polyline style="fill-rule:evenodd;"
points="3581,6617
4073,6617
4073,6026
3581,6026
3581,6617
" /> 
<polyline style="fill-rule:evenodd;"
points="3581,5633
4073,5633
4073,5042
3581,5042
3581,5633
" /> 
<polyline style="fill-rule:evenodd;"
points="4907,3472
4907,4272
6347,4272
6347,3472
4907,3472
" /> 
<polyline style="fill-rule:evenodd;"
points="5427,6072
5427,6872
5827,6872
5827,6072
5427,6072
" /> 
<polyline style="fill-rule:evenodd;"
points="6327,6072
6327,6872
6727,6872
6727,6072
6327,6072
" /> 
<polyline style="fill-rule:evenodd;"
points="4527,6072
4527,6872
4927,6872
4927,6072
4527,6072
" /> 
<polyline style="fill-rule:evenodd;"
points="9164,9303
9873,9303
9873,8988
9164,8988
9164,9303
" /> 
<polyline style="fill-rule:evenodd;"
points="9164,8555
9873,8555
9873,8240
9164,8240
9164,8555
" /> 
<polyline style="fill-rule:evenodd;"
points="7982,8929
8691,8929
8691,8614
7982,8614
7982,8929
" /> 
<polyline style="fill-rule:evenodd;"
points="9164,7903
9873,7903
9873,7588
9164,7588
9164,7903
" /> 
<polyline style="fill-rule:evenodd;"
points="9164,7155
9873,7155
9873,6840
9164,6840
9164,7155
" /> 
<polyline style="fill-rule:evenodd;"
points="7982,7529
8691,7529
8691,7214
7982,7214
7982,7529
" /> 
<polyline style="fill-rule:evenodd;"
points="7032,6025
7032,6518
7622,6518
7622,6025
7032,6025
" /> 
<polyline style="fill-rule:evenodd;"
points="8016,6025
8016,6518
8607,6518
8607,6025
8016,6025
" /> 
<polyline style="fill-rule:evenodd;"
points="5250,8616
5250,9127
5841,9127
5841,8616
5250,8616
" /> 
<polyline style="fill-rule:evenodd;"
points="6313,8616
6313,9127
6904,9127
6904,8616
6313,8616
" /> 
<polyline style="fill-rule:evenodd;"
points="5250,7766
5250,8277
5841,8277
5841,7766
5250,7766
" /> 
<polyline style="fill-rule:evenodd;"
points="6313,7766
6313,8277
6904,8277
6904,7766
6313,7766
" /> 
<polyline style="fill-rule:evenodd;"
points="10371,9198
10883,9198
10883,8608
10371,8608
10371,9198
" /> 
<polyline style="fill-rule:evenodd;"
points="10371,8135
10883,8135
10883,7545
10371,7545
10371,8135
" /> 
<polyline style="fill-rule:evenodd;"
points="1957,8622
1957,9122
2657,9122
2657,8622
1957,8622
" /> 
<polyline style="fill-rule:evenodd;"
points="3587,8622
3587,9122
4287,9122
4287,8622
3587,8622
" /> 
</g>
<g style="fill:#000000; fill-opacity:1.0; 
stroke:#000000; stroke-width:0; stroke-opacity:1; 
stroke-linecap:round; stroke-linejoin:round;">
</g>
<g style="fill:#008400; fill-opacity:1.0; 
stroke:#008400; stroke-width:0; stroke-opacity:1; 
stroke-linecap:round; stroke-linejoin:round;">
<polyline style="fill-rule:evenodd;"
points="3502,6696
4152,6696
4152,5948
3502,5948
3502,6696
" /> 
<polyline style="fill-rule:evenodd;"
points="3502,5711
4152,5711
4152,4963
3502,4963
3502,5711
" /> 
<polyline style="fill-rule:evenodd;"
points="4828,3393
4828,4350
6426,4350
6426,3393
4828,3393
" /> 
<polyline style="fill-rule:evenodd;"
points="5348,5993
5348,6950
5906,6950
5906,5993
5348,5993
" /> 
<polyline style="fill-rule:evenodd;"
points="6248,5993
6248,6950
6806,6950
6806,5993
6248,5993
" /> 
<polyline style="fill-rule:evenodd;"
points="4448,5993
4448,6950
5006,6950
5006,5993
4448,5993
" /> 
<polyline style="fill-rule:evenodd;"
points="9085,9382
9951,9382
9951,8909
9085,8909
9085,9382
" /> 
<polyline style="fill-rule:evenodd;"
points="9085,8634
9951,8634
9951,8161
9085,8161
9085,8634
" /> 
<polyline style="fill-rule:evenodd;"
points="7903,9008
8769,9008
8769,8535
7903,8535
7903,9008
" /> 
<polyline style="fill-rule:evenodd;"
points="9085,7982
9951,7982
9951,7509
9085,7509
9085,7982
" /> 
<polyline style="fill-rule:evenodd;"
points="9085,7234
9951,7234
9951,6761
9085,6761
9085,7234
" /> 
<polyline style="fill-rule:evenodd;"
points="7903,7608
8769,7608
8769,7135
7903,7135
7903,7608
" /> 
</g>
<g style="fill:#840000; fill-opacity:1.0; 
stroke:#840000; stroke-width:0; stroke-opacity:1; 
stroke-linecap:round; stroke-linejoin:round;">
<polyline style="fill-rule:evenodd;"
points="2806,4303
1848,4303
1848,5140
2806,5140
2806,4303
" /> 
</g>
<g style="fill:#840000; fill-opacity:1.0; 
stroke:#840000; stroke-width:837.48; stroke-opacity:1; 
stroke-linecap:round; stroke-linejoin:round;">
</g>
<g style="fill:#840000; fill-opacity:0.0; 
stroke:#840000; stroke-width:837.48; stroke-opacity:1; 
stroke-linecap:round; stroke-linejoin:round;">
<path d="M2267 5722
L2387 5722
" />
<path d="M2267 6722
L2387 6722
" />
</g>
<g style="fill:#840000; fill-opacity:0.0; 
stroke:#840000; stroke-width:0; stroke-opacity:1; 
stroke-linecap:round; stroke-linejoin:round;">
</g>
<g style="fill:#840000; fill-opacity:1.0; 
stroke:#840000; stroke-width:0; stroke-opacity:1; 
stroke-linecap:round; stroke-linejoin:round;">
<polyline style="fill-rule:evenodd;"
points="10348,7140
11306,7140
11306,6303
10348,6303
10348,7140
" /> 
</g>
<g style="fill:#840000; fill-opacity:1.0; 
stroke:#840000; stroke-width:837.48; stroke-opacity:1; 
stroke-linecap:round; stroke-linejoin:round;">
</g>
<g style="fill:#840000; fill-opacity:0.0; 
stroke:#840000; stroke-width:837.48; stroke-opacity:1; 
stroke-linecap:round; stroke-linejoin:round;">
<path d="M10887 5722
L10767 5722
" />
<path d="M10887 4722
L10767 4722
" />
</g>
<g style="fill:#008400; fill-opacity:0.0; 
stroke:#008400; stroke-width:837.48; stroke-opacity:1; 
stroke-linecap:round; stroke-linejoin:round;">
</g>
<g style="fill:#008400; fill-opacity:0.0; 
stroke:#008400; stroke-width:0; stroke-opacity:1; 
stroke-linecap:round; stroke-linejoin:round;">
</g>
<g style="fill:#008400; fill-opacity:1.0; 
stroke:#008400; stroke-width:0; stroke-opacity:1; 
stroke-linecap:round; stroke-linejoin:round;">
<polyline style="fill-rule:evenodd;"
points="6953,5947
6953,6596
7701,6596
7701,5947
6953,5947
" /> 
<polyline style="fill-rule:evenodd;"
points="7937,5947
7937,6596
8685,6596
8685,5947
7937,5947
" /> 
<polyline style="fill-rule:evenodd;"
points="5172,8537
5172,9206
5920,9206
5920,8537
5172,8537
" /> 
<polyline style="fill-rule:evenodd;"
points="6235,8537
6235,9206
6983,9206
6983,8537
6235,8537
" /> 
<polyline style="fill-rule:evenodd;"
points="5172,7687
5172,8356
5920,8356
5920,7687
5172,7687
" /> 
<polyline style="fill-rule:evenodd;"
points="6235,7687
6235,8356
6983,8356
6983,7687
6235,7687
" /> 
<polyline style="fill-rule:evenodd;"
points="10292,9277
10962,9277
10962,8529
10292,8529
10292,9277
" /> 
<polyline style="fill-rule:evenodd;"
points="10292,8214
10962,8214
10962,7466
10292,7466
10292,8214
" /> 
</g>
<g style="fill:#840000; fill-opacity:1.0; 
stroke:#840000; stroke-width:0; stroke-opacity:1; 
stroke-linecap:round; stroke-linejoin:round;">
<polyline style="fill-rule:evenodd;"
points="5208,2890
6046,2890
6046,2053
5208,2053
5208,2890
" /> 
</g>
<g style="fill:#840000; fill-opacity:1.0; 
stroke:#840000; stroke-width:837.48; stroke-opacity:1; 
stroke-linecap:round; stroke-linejoin:round;">
</g>
<g style="fill:#840000; fill-opacity:0.0; 
stroke:#840000; stroke-width:837.48; stroke-opacity:1; 
stroke-linecap:round; stroke-linejoin:round;">
<path d="M5627 1472
L5627 1472
" />
<path d="M4627 2472
L4627 2472
" />
<path d="M4627 1472
L4627 1472
" />
<path d="M3627 2472
L3627 2472
" />
<path d="M3627 1472
L3627 1472
" />
</g>
<g style="fill:#840000; fill-opacity:0.0; 
stroke:#840000; stroke-width:0; stroke-opacity:1; 
stroke-linecap:round; stroke-linejoin:round;">
</g>
<g style="fill:#840000; fill-opacity:1.0; 
stroke:#840000; stroke-width:0; stroke-opacity:1; 
stroke-linecap:round; stroke-linejoin:round;">
<polyline style="fill-rule:evenodd;"
points="11346,10490
11346,9453
10308,9453
10308,10490
11346,10490
" /> 
<polyline style="fill-rule:evenodd;"
points="2846,10490
2846,9453
1808,9453
1808,10490
2846,10490
" /> 
<polyline style="fill-rule:evenodd;"
points="11346,1990
11346,953
10308,953
10308,1990
11346,1990
" /> 
<polyline style="fill-rule:evenodd;"
points="2846,1990
2846,953
1808,953
1808,1990
2846,1990
" /> 
<polyline style="fill-rule:evenodd;"
points="6181,10325
6181,9618
5473,9618
5473,10325
6181,10325
" /> 
<circle cx="4827.59" cy="9972.05" r="353.74" /> 
</g>
<g style="fill:#840000; fill-opacity:1.0; 
stroke:#840000; stroke-width:40; stroke-opacity:1; 
stroke-linecap:round; stroke-linejoin:round;">
</g>
<g style="fill:#840000; fill-opacity:1.0; 
stroke:#840000; stroke-width:0; stroke-opacity:1; 
stroke-linecap:round; stroke-linejoin:round;">
<circle cx="3827.59" cy="9972.05" r="353.74" /> 
</g>
<g style="fill:#840000; fill-opacity:1.0; 
stroke:#840000; stroke-width:40; stroke-opacity:1; 
stroke-linecap:round; stroke-linejoin:round;">
</g>
<g style="fill:#008400; fill-opacity:1.0; 
stroke:#008400; stroke-width:40; stroke-opacity:1; 
stroke-linecap:round; stroke-linejoin:round;">
</g>
<g style="fill:#008400; fill-opacity:1.0; 
stroke:#008400; stroke-width:0; stroke-opacity:1; 
stroke-linecap:round; stroke-linejoin:round;">
<polyline style="fill-rule:evenodd;"
points="1878,8543
1878,9200
2736,9200
2736,8543
1878,8543
" /> 
<polyline style="fill-rule:evenodd;"
points="3508,8543
3508,9200
4366,9200
4366,8543
3508,8543
" /> 
</g>
<g style="fill:#840000; fill-opacity:1.0; 
stroke:#840000; stroke-width:0; stroke-opacity:1; 
stroke-linecap:round; stroke-linejoin:round;">
<polyline style="fill-rule:evenodd;"
points="11346,3990
11346,2953
10308,2953
10308,3990
11346,3990
" /> 
<polyline style="fill-rule:evenodd;"
points="11346,2990
11346,1953
10308,1953
10308,2990
11346,2990
" /> 
<polyline style="fill-rule:evenodd;"
points="7448,10450
8406,10450
8406,9493
7448,9493
7448,10450
" /> 
</g>
<g style="fill:#840000; fill-opacity:1.0; 
stroke:#840000; stroke-width:957.48; stroke-opacity:1; 
stroke-linecap:round; stroke-linejoin:round;">
</g>
<g style="fill:#840000; fill-opacity:0.0; 
stroke:#840000; stroke-width:957.48; stroke-opacity:1; 
stroke-linecap:round; stroke-linejoin:round;">
<path d="M6927 9972
L6927 9972
" />
</g>
<g style="fill:#000000; fill-opacity:0.0; 
stroke:#000000; stroke-width:957.48; stroke-opacity:1; 
stroke-linecap:round; stroke-linejoin:round;">
</g>
<g style="fill:#008400; fill-opacity:0.0; 
stroke:#008400; stroke-width:957.48; stroke-opacity:1; 
stroke-linecap:round; stroke-linejoin:round;">
</g>
<g style="fill:#008400; fill-opacity:0.0; 
stroke:#008400; stroke-width:0; stroke-opacity:1; 
stroke-linecap:round; stroke-linejoin:round;">
</g>
<g style="fill:#008400; fill-opacity:1.0; 
stroke:#008400; stroke-width:0; stroke-opacity:1; 
stroke-linecap:round; stroke-linejoin:round;">
<polyline style="fill-rule:evenodd;"
points="3581,6617
4073,6617
4073,6026
3581,6026
3581,6617
" /> 
<polyline style="fill-rule:evenodd;"
points="3581,5633
4073,5633
4073,5042
3581,5042
3581,5633
" /> 
<polyline style="fill-rule:evenodd;"
points="4907,3472
4907,4272
6347,4272
6347,3472
4907,3472
" /> 
<polyline style="fill-rule:evenodd;"
points="5427,6072
5427,6872
5827,6872
5827,6072
5427,6072
" /> 
<polyline style="fill-rule:evenodd;"
points="6327,6072
6327,6872
6727,6872
6727,6072
6327,6072
" /> 
<polyline style="fill-rule:evenodd;"
points="4527,6072
4527,6872
4927,6872
4927,6072
4527,6072
" /> 
<polyline style="fill-rule:evenodd;"
points="9164,9303
9873,9303
9873,8988
9164,8988
9164,9303
" /> 
<polyline style="fill-rule:evenodd;"
points="9164,8555
9873,8555
9873,8240
9164,8240
9164,8555
" /> 
<polyline style="fill-rule:evenodd;"
points="7982,8929
8691,8929
8691,8614
7982,8614
7982,8929
" /> 
<polyline style="fill-rule:evenodd;"
points="9164,7903
9873,7903
9873,7588
9164,7588
9164,7903
" /> 
<polyline style="fill-rule:evenodd;"
points="9164,7155
9873,7155
9873,6840
9164,6840
9164,7155
" /> 
<polyline style="fill-rule:evenodd;"
points="7982,7529
8691,7529
8691,7214
7982,7214
7982,7529
" /> 
</g>
<g style="fill:#840000; fill-opacity:1.0; 
stroke:#840000; stroke-width:0; stroke-opacity:1; 
stroke-linecap:round; stroke-linejoin:round;">
<polyline style="fill-rule:evenodd;"
points="2727,4382
1927,4382
1927,5062
2727,5062
2727,4382
" /> 
</g>
<g style="fill:#840000; fill-opacity:1.0; 
stroke:#840000; stroke-width:680; stroke-opacity:1; 
stroke-linecap:round; stroke-linejoin:round;">
</g>
<g style="fill:#840000; fill-opacity:0.0; 
stroke:#840000; stroke-width:680; stroke-opacity:1; 
stroke-linecap:round; stroke-linejoin:round;">
<path d="M2267 5722
L2387 5722
" />
<path d="M2267 6722
L2387 6722
" />
</g>
<g style="fill:#840000; fill-opacity:0.0; 
stroke:#840000; stroke-width:0; stroke-opacity:1; 
stroke-linecap:round; stroke-linejoin:round;">
</g>
<g style="fill:#840000; fill-opacity:1.0; 
stroke:#840000; stroke-width:0; stroke-opacity:1; 
stroke-linecap:round; stroke-linejoin:round;">
<polyline style="fill-rule:evenodd;"
points="10427,7062
11227,7062
11227,6382
10427,6382
10427,7062
" /> 
</g>
<g style="fill:#840000; fill-opacity:1.0; 
stroke:#840000; stroke-width:680; stroke-opacity:1; 
stroke-linecap:round; stroke-linejoin:round;">
</g>
<g style="fill:#840000; fill-opacity:0.0; 
stroke:#840000; stroke-width:680; stroke-opacity:1; 
stroke-linecap:round; stroke-linejoin:round;">
<path d="M10887 5722
L10767 5722
" />
<path d="M10887 4722
L10767 4722
" />
</g>
<g style="fill:#008400; fill-opacity:0.0; 
stroke:#008400; stroke-width:680; stroke-opacity:1; 
stroke-linecap:round; stroke-linejoin:round;">
</g>
<g style="fill:#008400; fill-opacity:0.0; 
stroke:#008400; stroke-width:0; stroke-opacity:1; 
stroke-linecap:round; stroke-linejoin:round;">
</g>
<g style="fill:#008400; fill-opacity:1.0; 
stroke:#008400; stroke-width:0; stroke-opacity:1; 
stroke-linecap:round; stroke-linejoin:round;">
<polyline style="fill-rule:evenodd;"
points="7032,6025
7032,6518
7622,6518
7622,6025
7032,6025
" /> 
<polyline style="fill-rule:evenodd;"
points="8016,6025
8016,6518
8607,6518
8607,6025
8016,6025
" /> 
<polyline style="fill-rule:evenodd;"
points="5250,8616
5250,9127
5841,9127
5841,8616
5250,8616
" /> 
<polyline style="fill-rule:evenodd;"
points="6313,8616
6313,9127
6904,9127
6904,8616
6313,8616
" /> 
<polyline style="fill-rule:evenodd;"
points="5250,7766
5250,8277
5841,8277
5841,7766
5250,7766
" /> 
<polyline style="fill-rule:evenodd;"
points="6313,7766
6313,8277
6904,8277
6904,7766
6313,7766
" /> 
<polyline style="fill-rule:evenodd;"
points="10371,9198
10883,9198
10883,8608
10371,8608
10371,9198
" /> 
<polyline style="fill-rule:evenodd;"
points="10371,8135
10883,8135
10883,7545
10371,7545
10371,8135
" /> 
</g>
<g style="fill:#840000; fill-opacity:1.0; 
stroke:#840000; stroke-width:0; stroke-opacity:1; 
stroke-linecap:round; stroke-linejoin:round;">
<polyline style="fill-rule:evenodd;"
points="5287,2812
5967,2812
5967,2132
5287,2132
5287,2812
" /> 
</g>
<g style="fill:#840000; fill-opacity:1.0; 
stroke:#840000; stroke-width:680; stroke-opacity:1; 
stroke-linecap:round; stroke-linejoin:round;">
</g>
<g style="fill:#840000; fill-opacity:0.0; 
stroke:#840000; stroke-width:680; stroke-opacity:1; 
stroke-linecap:round; stroke-linejoin:round;">
<path d="M5627 1472
L5627 1472
" />
<path d="M4627 2472
L4627 2472
" />
<path d="M4627 1472
L4627 1472
" />
<path d="M3627 2472
L3627 2472
" />
<path d="M3627 1472
L3627 1472
" />
</g>
<g style="fill:#840000; fill-opacity:0.0; 
stroke:#840000; stroke-width:0; stroke-opacity:1; 
stroke-linecap:round; stroke-linejoin:round;">
</g>
<g style="fill:#840000; fill-opacity:1.0; 
stroke:#840000; stroke-width:0; stroke-opacity:1; 
stroke-linecap:round; stroke-linejoin:round;">
<polyline style="fill-rule:evenodd;"
points="11267,10412
11267,9532
10387,9532
10387,10412
11267,10412
" /> 
<polyline style="fill-rule:evenodd;"
points="2767,10412
2767,9532
1887,9532
1887,10412
2767,10412
" /> 
<polyline style="fill-rule:evenodd;"
points="11267,1912
11267,1032
10387,1032
10387,1912
11267,1912
" /> 
<polyline style="fill-rule:evenodd;"
points="2767,1912
2767,1032
1887,1032
1887,1912
2767,1912
" /> 
<polyline style="fill-rule:evenodd;"
points="6102,10247
6102,9697
5552,9697
5552,10247
6102,10247
" /> 
<circle cx="4827.59" cy="9972.05" r="275" /> 
</g>
<g style="fill:#840000; fill-opacity:1.0; 
stroke:#840000; stroke-width:40; stroke-opacity:1; 
stroke-linecap:round; stroke-linejoin:round;">
</g>
<g style="fill:#840000; fill-opacity:1.0; 
stroke:#840000; stroke-width:0; stroke-opacity:1; 
stroke-linecap:round; stroke-linejoin:round;">
<circle cx="3827.59" cy="9972.05" r="275" /> 
</g>
<g style="fill:#840000; fill-opacity:1.0; 
stroke:#840000; stroke-width:40; stroke-opacity:1; 
stroke-linecap:round; stroke-linejoin:round;">
</g>
<g style="fill:#008400; fill-opacity:1.0; 
stroke:#008400; stroke-width:40; stroke-opacity:1; 
stroke-linecap:round; stroke-linejoin:round;">
</g>
<g style="fill:#008400; fill-opacity:1.0; 
stroke:#008400; stroke-width:0; stroke-opacity:1; 
stroke-linecap:round; stroke-linejoin:round;">
<polyline style="fill-rule:evenodd;"
points="1957,8622
1957,9122
2657,9122
2657,8622
1957,8622
" /> 
<polyline style="fill-rule:evenodd;"
points="3587,8622
3587,9122
4287,9122
4287,8622
3587,8622
" /> 
</g>
<g style="fill:#840000; fill-opacity:1.0; 
stroke:#840000; stroke-width:0; stroke-opacity:1; 
stroke-linecap:round; stroke-linejoin:round;">
<polyline style="fill-rule:evenodd;"
points="11267,3912
11267,3032
10387,3032
10387,3912
11267,3912
" /> 
<polyline style="fill-rule:evenodd;"
points="11267,2912
11267,2032
10387,2032
10387,2912
11267,2912
" /> 
<polyline style="fill-rule:evenodd;"
points="7527,10372
8327,10372
8327,9572
7527,9572
7527,10372
" /> 
</g>
<g style="fill:#840000; fill-opacity:1.0; 
stroke:#840000; stroke-width:800; stroke-opacity:1; 
stroke-linecap:round; stroke-linejoin:round;">
</g>
<g style="fill:#840000; fill-opacity:0.0; 
stroke:#840000; stroke-width:800; stroke-opacity:1; 
stroke-linecap:round; stroke-linejoin:round;">
<path d="M6927 9972
L6927 9972
" />
</g>
<g style="fill:#C2C2C2; fill-opacity:0.0; 
stroke:#C2C2C2; stroke-width:800; stroke-opacity:1; 
stroke-linecap:round; stroke-linejoin:round;">
</g>
<g style="fill:#C2C2C2; fill-opacity:1.0; 
stroke:#C2C2C2; stroke-width:0; stroke-opacity:1; 
stroke-linecap:round; stroke-linejoin:round;">
<circle cx="4827.59" cy="5422.05" r="150" /> 
</g>
<g style="fill:#C2C2C2; fill-opacity:1.0; 
stroke:#C2C2C2; stroke-width:40; stroke-opacity:1; 
stroke-linecap:round; stroke-linejoin:round;">
</g>
<g style="fill:#C2C2C2; fill-opacity:1.0; 
stroke:#C2C2C2; stroke-width:0; stroke-opacity:1; 
stroke-linecap:round; stroke-linejoin:round;">
<circle cx="5477.59" cy="4622.05" r="150" /> 
</g>
<g style="fill:#C2C2C2; fill-opacity:1.0; 
stroke:#C2C2C2; stroke-width:40; stroke-opacity:1; 
stroke-linecap:round; stroke-linejoin:round;">
</g>
<g style="fill:#C2C2C2; fill-opacity:1.0; 
stroke:#C2C2C2; stroke-width:0; stroke-opacity:1; 
stroke-linecap:round; stroke-linejoin:round;">
<circle cx="8327.59" cy="5572.05" r="150" /> 
</g>
<g style="fill:#C2C2C2; fill-opacity:1.0; 
stroke:#C2C2C2; stroke-width:40; stroke-opacity:1; 
stroke-linecap:round; stroke-linejoin:round;">
</g>
<g style="fill:#C2C2C2; fill-opacity:1.0; 
stroke:#C2C2C2; stroke-width:0; stroke-opacity:1; 
stroke-linecap:round; stroke-linejoin:round;">
<circle cx="3827.59" cy="3822.05" r="150" /> 
</g>
<g style="fill:#C2C2C2; fill-opacity:1.0; 
stroke:#C2C2C2; stroke-width:40; stroke-opacity:1; 
stroke-linecap:round; stroke-linejoin:round;">
</g>
<g style="fill:#C2C2C2; fill-opacity:1.0; 
stroke:#C2C2C2; stroke-width:0; stroke-opacity:1; 
stroke-linecap:round; stroke-linejoin:round;">
<circle cx="7327.59" cy="3072.05" r="150" /> 
</g>
<g style="fill:#C2C2C2; fill-opacity:1.0; 
stroke:#C2C2C2; stroke-width:40; stroke-opacity:1; 
stroke-linecap:round; stroke-linejoin:round;">
</g>
<g style="fill:#C2C2C2; fill-opacity:1.0; 
stroke:#C2C2C2; stroke-width:0; stroke-opacity:1; 
stroke-linecap:round; stroke-linejoin:round;">
<circle cx="9777.59" cy="3322.05" r="150" /> 
</g>
<g style="fill:#C2C2C2; fill-opacity:1.0; 
stroke:#C2C2C2; stroke-width:40; stroke-opacity:1; 
stroke-linecap:round; stroke-linejoin:round;">
</g>
<g style="fill:#C2C2C2; fill-opacity:1.0; 
stroke:#C2C2C2; stroke-width:0; stroke-opacity:1; 
stroke-linecap:round; stroke-linejoin:round;">
<circle cx="9777.59" cy="2690.55" r="150" /> 
</g>
<g style="fill:#C2C2C2; fill-opacity:1.0; 
stroke:#C2C2C2; stroke-width:40; stroke-opacity:1; 
stroke-linecap:round; stroke-linejoin:round;">
</g>
<g style="fill:#C2C2C2; fill-opacity:1.0; 
stroke:#C2C2C2; stroke-width:0; stroke-opacity:1; 
stroke-linecap:round; stroke-linejoin:round;">
<circle cx="7327.59" cy="5072.05" r="150" /> 
</g>
<g style="fill:#C2C2C2; fill-opacity:1.0; 
stroke:#C2C2C2; stroke-width:40; stroke-opacity:1; 
stroke-linecap:round; stroke-linejoin:round;">
</g>
<g style="fill:#C2C2C2; fill-opacity:1.0; 
stroke:#C2C2C2; stroke-width:0; stroke-opacity:1; 
stroke-linecap:round; stroke-linejoin:round;">
<circle cx="7477.59" cy="8672.05" r="150" /> 
</g>
<g style="fill:#C2C2C2; fill-opacity:1.0; 
stroke:#C2C2C2; stroke-width:40; stroke-opacity:1; 
stroke-linecap:round; stroke-linejoin:round;">
</g>
<g style="fill:#008400; fill-opacity:1.0; 
stroke:#008400; stroke-width:40; stroke-opacity:1; 
stroke-linecap:round; stroke-linejoin:round;">
</g>
<g style="fill:#008400; fill-opacity:1.0; 
stroke:#008400; stroke-width:120; stroke-opacity:1; 
stroke-linecap:round; stroke-linejoin:round;">
</g>
<g style="fill:#008400; fill-opacity:0.0; 
stroke:#008400; stroke-width:120; stroke-opacity:1; 
stroke-linecap:round; stroke-linejoin:round;">
<path d="M3827 4579
L4069 4579
" />
<path d="M4069 4579
L4777 3872
" />
<path d="M4777 3872
L5627 3872
" />
<path d="M4827 5422
L5477 5422
" />
<path d="M5477 5422
L5477 4622
" />
<path d="M4827 5422
L5527 5422
" />
<path d="M5527 5422
L5627 5522
" />
<path d="M5627 5522
L5627 6472
" />
<path d="M5627 6672
L5627 6472
" />
<path d="M3827 5337
L3827 4579
" />
<path d="M7927 9972
L10827 9972
" />
<path d="M3827 4579
L2469 4579
" />
<path d="M2469 4579
L2327 4722
" />
<path d="M5477 4622
L5477 4022
" />
<path d="M5477 4022
L5627 3872
" />
<path d="M2327 1472
L3627 1472
" />
<path d="M2327 4722
L2327 4262
" />
<path d="M2327 4262
L2327 1472
" />
<path d="M8311 6272
L8311 6099
" />
<path d="M8327 5572
L8327 6256
" />
<path d="M8327 6256
L8311 6272
" />
<path d="M10827 9972
L11127 9672
" />
<path d="M11127 9672
L11127 8379
" />
<path d="M11127 8379
L10627 7879
" />
<path d="M10627 7879
L10627 7840
" />
<path d="M10627 7840
L10627 6922
" />
<path d="M10627 6922
L10827 6722
" />
<path d="M10627 7840
L10209 7840
" />
<path d="M10209 7840
L10077 7972
" />
<path d="M10077 7972
L10077 8036
" />
<path d="M10077 8036
L9715 8398
" />
<path d="M9715 8398
L9518 8398
" />
<path d="M3977 3672
L3827 3822
" />
<path d="M4627 3022
L3977 3672
" />
<path d="M4627 2472
L4627 3022
" />
<path d="M2387 5722
L2327 5722
" />
<path d="M7539 3072
L7327 3072
" />
<path d="M9527 3072
L7539 3072
" />
<path d="M9777 3322
L9527 3072
" />
</g>
<g style="fill:#008400; fill-opacity:0.0; 
stroke:#008400; stroke-width:160; stroke-opacity:1; 
stroke-linecap:round; stroke-linejoin:round;">
<path d="M8336 7372
L8336 7263
" />
<path d="M8336 7263
L9877 5722
" />
<path d="M9877 5722
L10267 5722
" />
<path d="M10267 5722
L10827 5722
" />
<path d="M8336 7372
L7627 7372
" />
<path d="M5227 7172
L4727 6672
" />
<path d="M7627 7372
L7427 7172
" />
<path d="M4727 6672
L4727 6472
" />
<path d="M7427 7172
L5227 7172
" />
<path d="M3827 6322
L4577 6322
" />
<path d="M4577 6322
L4727 6472
" />
<path d="M5627 1472
L9377 1472
" />
<path d="M9377 1472
L10177 2272
" />
<path d="M10177 2272
L10177 5072
" />
<path d="M10177 5072
L10827 5722
" />
</g>
<g style="fill:#008400; fill-opacity:0.0; 
stroke:#008400; stroke-width:120; stroke-opacity:1; 
stroke-linecap:round; stroke-linejoin:round;">
<path d="M7327 5072
L6877 4622
" />
<path d="M6877 4622
L6877 2922
" />
<path d="M6877 2922
L7109 2690
" />
<path d="M7109 2690
L9777 2690
" />
<path d="M7327 6272
L6727 6272
" />
<path d="M6727 6272
L6527 6472
" />
<path d="M7327 6272
L7327 5072
" />
<path d="M5546 8872
L5585 8872
" />
<path d="M5585 8872
L6035 9322
" />
<path d="M6035 9322
L8868 9322
" />
<path d="M8868 9322
L9044 9146
" />
<path d="M9044 9146
L9518 9146
" />
<path d="M10627 8903
L10459 9072
" />
<path d="M9592 9072
L9518 9146
" />
<path d="M10459 9072
L9592 9072
" />
<path d="M9559 9186
L9518 9146
" />
<path d="M9518 7746
L9321 7746
" />
<path d="M8877 8190
L8877 8428
" />
<path d="M9321 7746
L8877 8190
" />
<path d="M8877 8428
L8533 8772
" />
<path d="M8533 8772
L8336 8772
" />
<path d="M6609 8022
L7024 8022
" />
<path d="M7024 8022
L7265 8263
" />
<path d="M7265 8263
L8336 8263
" />
<path d="M8336 8263
L8336 8494
" />
<path d="M8336 8494
L8336 8772
" />
</g>
<g style="fill:#008400; fill-opacity:0.0; 
stroke:#008400; stroke-width:160; stroke-opacity:1; 
stroke-linecap:round; stroke-linejoin:round;">
<path d="M6403 8072
L6364 8072
" />
</g>
<g style="fill:#008400; fill-opacity:0.0; 
stroke:#008400; stroke-width:120; stroke-opacity:1; 
stroke-linecap:round; stroke-linejoin:round;">
<path d="M7327 8822
L7477 8672
" />
<path d="M7277 8872
L7327 8822
" />
<path d="M6609 8872
L7277 8872
" />
</g>
<g style="fill:#008400; fill-opacity:0.0; 
stroke:#008400; stroke-width:160; stroke-opacity:1; 
stroke-linecap:round; stroke-linejoin:round;">
<path d="M5546 8022
L5546 7606
" />
<path d="M5546 7606
L5680 7472
" />
<path d="M5680 7472
L7077 7472
" />
<path d="M7077 7472
L7477 7872
" />
<path d="M7477 7872
L8727 7872
" />
<path d="M8727 7872
L8927 7672
" />
<path d="M8927 7392
L9321 6998
" />
<path d="M8927 7672
L8927 7392
" />
<path d="M9321 6998
L9518 6998
" />
<path d="M2327 6722
L2327 8022
" />
<path d="M2327 8022
L2327 8852
" />
<path d="M5546 8022
L2327 8022
" />
<path d="M5585 8022
L5546 8022
" />
<path d="M2327 8852
L2307 8872
" />
<path d="M3937 8872
L4447 8872
" />
<path d="M4447 8872
L4827 9252
" />
<path d="M4827 9252
L4827 9583
" />
<path d="M4827 9583
L4827 9972
" />
</g>
<g style="fill:#008400; fill-opacity:0.0; 
stroke:#008400; stroke-width:120; stroke-opacity:1; 
stroke-linecap:round; stroke-linejoin:round;">
<path d="M3937 8872
L4037 8872
" />
</g>
<g style="fill:#008400; fill-opacity:1.0; 
stroke:#008400; stroke-width:100; stroke-opacity:1; 
stroke-linecap:round; stroke-linejoin:round;">
<polyline style="fill-rule:evenodd;"
points="10110,9396
10055,9481
9972,9538
9873,9558
9164,9558
9084,9543
8986,9608
8868,9632
8577,9632
8577,9859
8515,9922
7977,9922
7977,9914
7877,9914
7877,9922
7869,9922
7869,10022
7877,10022
7877,10029
7977,10029
7977,10022
8515,10022
8577,10084
8577,10363
10137,10363
10137,10084
10200,10022
10777,10022
10777,10029
10877,10029
10877,10022
10885,10022
10885,9922
10877,9922
10877,9914
10777,9914
10777,9922
10200,9922
10137,9859
10137,9482
10175,9390
10184,9382
10113,9382
10110,9396
" /> 
<polyline style="fill-rule:evenodd;"
points="2657,8367
2750,8384
2835,8439
2892,8522
2912,8622
2912,9122
2895,9214
2844,9293
2909,9320
2979,9390
3017,9482
3017,9859
2955,9922
2377,9922
2377,9914
2277,9914
2277,9922
2269,9922
2269,10022
2277,10022
2277,10029
2377,10029
2377,10022
2955,10022
3017,10084
3017,10363
3536,10363
3530,10339
3827,10042
4124,10339
4118,10363
4476,10363
4382,10269
4330,10143
4288,10244
4195,10269
3898,9972
3756,9972
3459,10269
3367,10244
3297,10047
3309,9839
3367,9699
3459,9674
3756,9972
3898,9972
4195,9674
4288,9699
4326,9809
4382,9675
4452,9604
4124,9604
3827,9901
3530,9604
3554,9511
3751,9442
3960,9453
4100,9511
4124,9604
4452,9604
4497,9559
4497,9388
4433,9324
4386,9356
4287,9376
3587,9376
3494,9359
3409,9304
3352,9221
3332,9122
3332,8622
3350,8529
3404,8444
3488,8387
3587,8367
4287,8367
4380,8384
4465,8439
4522,8522
4529,8558
4573,8567
4680,8638
4995,8953
4995,8616
5013,8523
5063,8446
5015,8377
5010,8352
2657,8352
2657,8367
" /> 
<polyline style="fill-rule:evenodd;"
points="11025,7333
11095,7403
11133,7495
11133,7728
11070,7790
10677,7790
10677,7782
10577,7782
10577,7790
10569,7790
10569,7890
10577,7890
10577,7898
10677,7898
10677,7890
11070,7890
11133,7953
11133,8185
11095,8277
11025,8347
10971,8369
10976,8370
11061,8425
11118,8509
11138,8608
11138,9198
11122,9282
11219,9282
11219,7312
10973,7312
11025,7333
" /> 
<polyline style="fill-rule:evenodd;"
points="10127,7903
10110,7996
10060,8074
10085,8098
10123,8190
10123,8285
10060,8348
9568,8348
9568,8340
9468,8340
9468,8348
9460,8348
9460,8448
9468,8448
9468,8455
9568,8455
9568,8448
10060,8448
10123,8510
10123,8574
10134,8515
10188,8430
10272,8373
10285,8370
10230,8347
10159,8277
10121,8185
10121,7953
10184,7890
10127,7890
10127,7903
" /> 
<polyline style="fill-rule:evenodd;"
points="3017,1359
2955,1422
2377,1422
2377,1414
2277,1414
2277,1422
2269,1422
2269,1522
2277,1522
2277,2099
2215,2162
1935,2162
1935,4132
2215,4132
2277,4194
2277,4672
2269,4672
2269,4772
2277,4772
2277,4779
2377,4779
2377,4772
2915,4772
2977,4834
2977,5111
2939,5203
2869,5273
2808,5299
2817,5304
2945,5496
2990,5722
2945,5947
2817,6139
2693,6222
2817,6304
2945,6496
2990,6722
2945,6947
2817,7139
2657,7246
2657,7692
5009,7692
5013,7673
5068,7588
5151,7531
5234,7514
5236,7502
5227,7502
5101,7476
4994,7405
4715,7126
4527,7126
4434,7109
4349,7054
4292,6971
4272,6872
4272,6769
4256,6795
4172,6852
4073,6872
3581,6872
3488,6854
3403,6800
3346,6716
3326,6617
3326,6026
3344,5934
3398,5849
3425,5830
3369,5774
3331,5682
3331,5450
3394,5387
3777,5387
3777,5395
3877,5395
3877,5387
4261,5387
4323,5450
4323,5682
4285,5774
4229,5830
4251,5844
4308,5927
4312,5945
4344,5894
4428,5837
4527,5817
4927,5817
5020,5834
5105,5889
5162,5972
5177,6047
5177,6022
5215,5930
5285,5860
5377,5822
5515,5822
5577,5884
5577,6422
5569,6422
5569,6522
5577,6522
5577,6529
5677,6529
5677,6522
5685,6522
5685,6422
5677,6422
5677,5884
5740,5822
5877,5822
5969,5860
6039,5930
6077,6022
6077,6046
6090,5979
6144,5894
6228,5837
6327,5817
6727,5817
6820,5834
6847,5851
6849,5848
6933,5791
7017,5774
7017,5327
6988,5298
6927,5151
6927,5110
6809,4992
4323,4992
4323,5225
4261,5287
3877,5287
3877,4855
3777,4855
3777,5287
3394,5287
3331,5225
3331,4992
3369,4900
3439,4830
3531,4792
3715,4792
3777,4855
3877,4855
3940,4792
4123,4792
4215,4830
4285,4900
4323,4992
6809,4992
6658,4841
6591,4740
6567,4622
6567,4394
6559,4413
6489,4483
6397,4522
5740,4522
5677,4459
5677,3922
5577,3922
5577,4459
5515,4522
4857,4522
4765,4483
4695,4413
4661,4332
2977,4332
2977,4609
2915,4672
2377,4672
2377,4194
2440,4132
2777,4132
2869,4170
2939,4240
2977,4332
4661,4332
4657,4321
4657,3984
4720,3922
5577,3922
5677,3922
5685,3922
5685,3822
5677,3822
5677,3284
5740,3222
6397,3222
6489,3260
6559,3330
6567,3349
6567,2922
6591,2803
6658,2702
6889,2471
6990,2404
7109,2380
9521,2380
9550,2351
9697,2290
9729,2290
9240,1802
6110,1802
6050,1892
6060,1894
6145,1949
6202,2032
6222,2132
6222,2812
6205,2904
6150,2989
6066,3046
5967,3066
5287,3066
5194,3049
5109,2994
5052,2911
5049,2894
5044,2900
4937,2972
4937,3022
4913,3140
4859,3222
5515,3222
5577,3284
5577,3822
4720,3822
4657,3759
4657,3430
4227,3860
4227,3901
4166,4048
4054,4160
3907,4221
3748,4222
3601,4161
3488,4048
3427,3901
3427,3742
3488,3595
3600,3483
3747,3422
3789,3422
4270,2940
4210,2900
4127,2776
4044,2900
3853,3028
3627,3073
3401,3028
3210,2900
3082,2709
3037,2483
3037,2460
3082,2234
3210,2043
3317,1972
3152,1821
3054,1613
3069,1584
3017,1584
3017,1961
2979,2053
2909,2123
2817,2162
2440,2162
2377,2099
2377,1522
2955,1522
3017,1584
3069,1584
3102,1522
3577,1522
3577,1529
3677,1529
3677,1522
3685,1522
3685,1422
3677,1422
3677,1414
3577,1414
3577,1422
3102,1422
3054,1330
3152,1122
3198,1080
3017,1080
3017,1359
" /> 
<polyline style="fill-rule:evenodd;"
points="9480,6585
9873,6585
9965,6603
10050,6657
10107,6741
10127,6840
10127,7155
10110,7248
10055,7333
9998,7372
10050,7405
10107,7489
10121,7557
10121,7495
10159,7403
10230,7333
10321,7295
10337,7295
10285,7273
10215,7203
10177,7111
10177,6834
10240,6772
10777,6772
10777,6779
10877,6779
10877,6772
10885,6772
10885,6672
10877,6672
10877,6664
10777,6664
10777,6672
10240,6672
10177,6609
10177,6332
10215,6240
10285,6170
10346,6145
10337,6139
10279,6052
10014,6052
9480,6585
" /> 
<polyline style="fill-rule:evenodd;"
points="7554,3410
7407,3471
7248,3472
7187,3447
7187,4493
7365,4672
7406,4671
7553,4732
7666,4845
7727,4992
7727,5151
7666,5298
7637,5327
7637,5773
7715,5788
7800,5843
7818,5870
7874,5814
7966,5775
8199,5775
8261,5838
8261,6222
8253,6222
8253,6322
8261,6322
8261,6705
8199,6768
7966,6768
7874,6730
7819,6674
7805,6695
7722,6752
7622,6773
7032,6773
6982,6763
6982,6842
7427,6842
7553,6867
7561,6872
7660,6938
7764,7042
7796,7042
7799,7036
7882,6979
7982,6959
8173,6959
8394,6738
8361,6705
8361,6322
8794,6322
8802,6330
9156,5976
8857,5976
8857,6159
8794,6222
8361,6222
8361,5838
8424,5775
8656,5775
8748,5814
8819,5884
8857,5976
9156,5976
9644,5488
9751,5417
9877,5392
10030,5392
9944,5305
9872,5198
9847,5072
9847,3721
9698,3722
9551,3661
9438,3548
9377,3401
9377,3382
7583,3382
7554,3410
" /> 
<polyline style="fill-rule:evenodd;"
points="6110,1142
9377,1142
9503,1167
9610,1238
10137,1765
10137,1584
10200,1522
10777,1522
10777,1529
10877,1529
10877,1522
10885,1522
10885,1422
10877,1422
10877,1414
10777,1414
10777,1422
10200,1422
10137,1359
10137,1080
6069,1080
6110,1142
" /> 
</g>
<g style="fill:#FFFFFF; fill-opacity:1.0; 
stroke:#FFFFFF; stroke-width:100; stroke-opacity:1; 
stroke-linecap:round; stroke-linejoin:round;">
</g>
<g style="fill:#FFFFFF; fill-opacity:1.0; 
stroke:#FFFFFF; stroke-width:0; stroke-opacity:1; 
stroke-linecap:round; stroke-linejoin:round;">
<circle cx="4827.59" cy="5422.05" r="80" /> 
</g>
<g style="fill:#FFFFFF; fill-opacity:1.0; 
stroke:#FFFFFF; stroke-width:40; stroke-opacity:1; 
stroke-linecap:round; stroke-linejoin:round;">
</g>
<g style="fill:#FFFFFF; fill-opacity:1.0; 
stroke:#FFFFFF; stroke-width:0; stroke-opacity:1; 
stroke-linecap:round; stroke-linejoin:round;">
<circle cx="5477.59" cy="4622.05" r="80" /> 
</g>
<g style="fill:#FFFFFF; fill-opacity:1.0; 
stroke:#FFFFFF; stroke-width:40; stroke-opacity:1; 
stroke-linecap:round; stroke-linejoin:round;">
</g>
<g style="fill:#FFFFFF; fill-opacity:1.0; 
stroke:#FFFFFF; stroke-width:0; stroke-opacity:1; 
stroke-linecap:round; stroke-linejoin:round;">
<circle cx="8327.59" cy="5572.05" r="80" /> 
</g>
<g style="fill:#FFFFFF; fill-opacity:1.0; 
stroke:#FFFFFF; stroke-width:40; stroke-opacity:1; 
stroke-linecap:round; stroke-linejoin:round;">
</g>
<g style="fill:#FFFFFF; fill-opacity:1.0; 
stroke:#FFFFFF; stroke-width:0; stroke-opacity:1; 
stroke-linecap:round; stroke-linejoin:round;">
<circle cx="3827.59" cy="3822.05" r="80" /> 
</g>
<g style="fill:#FFFFFF; fill-opacity:1.0; 
stroke:#FFFFFF; stroke-width:40; stroke-opacity:1; 
stroke-linecap:round; stroke-linejoin:round;">
</g>
<g style="fill:#FFFFFF; fill-opacity:1.0; 
stroke:#FFFFFF; stroke-width:0; stroke-opacity:1; 
stroke-linecap:round; stroke-linejoin:round;">
<circle cx="7327.59" cy="3072.05" r="80" /> 
</g>
<g style="fill:#FFFFFF; fill-opacity:1.0; 
stroke:#FFFFFF; stroke-width:40; stroke-opacity:1; 
stroke-linecap:round; stroke-linejoin:round;">
</g>
<g style="fill:#FFFFFF; fill-opacity:1.0; 
stroke:#FFFFFF; stroke-width:0; stroke-opacity:1; 
stroke-linecap:round; stroke-linejoin:round;">
<circle cx="9777.59" cy="3322.05" r="80" /> 
</g>
<g style="fill:#FFFFFF; fill-opacity:1.0; 
stroke:#FFFFFF; stroke-width:40; stroke-opacity:1; 
stroke-linecap:round; stroke-linejoin:round;">
</g>
<g style="fill:#FFFFFF; fill-opacity:1.0; 
stroke:#FFFFFF; stroke-width:0; stroke-opacity:1; 
stroke-linecap:round; stroke-linejoin:round;">
<circle cx="9777.59" cy="2690.55" r="80" /> 
</g>
<g style="fill:#FFFFFF; fill-opacity:1.0; 
stroke:#FFFFFF; stroke-width:40; stroke-opacity:1; 
stroke-linecap:round; stroke-linejoin:round;">
</g>
<g style="fill:#FFFFFF; fill-opacity:1.0; 
stroke:#FFFFFF; stroke-width:0; stroke-opacity:1; 
stroke-linecap:round; stroke-linejoin:round;">
<circle cx="7327.59" cy="5072.05" r="80" /> 
</g>
<g style="fill:#FFFFFF; fill-opacity:1.0; 
stroke:#FFFFFF; stroke-width:40; stroke-opacity:1; 
stroke-linecap:round; stroke-linejoin:round;">
</g>
<g style="fill:#FFFFFF; fill-opacity:1.0; 
stroke:#FFFFFF; stroke-width:0; stroke-opacity:1; 
stroke-linecap:round; stroke-linejoin:round;">
<circle cx="7477.59" cy="8672.05" r="80" /> 
</g>
<g style="fill:#FFFFFF; fill-opacity:1.0; 
stroke:#FFFFFF; stroke-width:40; stroke-opacity:1; 
stroke-linecap:round; stroke-linejoin:round;">
</g>
<g style="fill:#FFFFFF; fill-opacity:1.0; 
stroke:#FFFFFF; stroke-width:0; stroke-opacity:1; 
stroke-linecap:round; stroke-linejoin:round;">
<circle cx="2327.59" cy="4722.05" r="200" /> 
</g>
<g style="fill:#FFFFFF; fill-opacity:1.0; 
stroke:#FFFFFF; stroke-width:40; stroke-opacity:1; 
stroke-linecap:round; stroke-linejoin:round;">
</g>
<g style="fill:#FFFFFF; fill-opacity:1.0; 
stroke:#FFFFFF; stroke-width:0; stroke-opacity:1; 
stroke-linecap:round; stroke-linejoin:round;">
<circle cx="2327.59" cy="5722.05" r="200" /> 
</g>
<g style="fill:#FFFFFF; fill-opacity:1.0; 
stroke:#FFFFFF; stroke-width:40; stroke-opacity:1; 
stroke-linecap:round; stroke-linejoin:round;">
</g>
<g style="fill:#FFFFFF; fill-opacity:1.0; 
stroke:#FFFFFF; stroke-width:0; stroke-opacity:1; 
stroke-linecap:round; stroke-linejoin:round;">
<circle cx="2327.59" cy="6722.05" r="200" /> 
</g>
<g style="fill:#FFFFFF; fill-opacity:1.0; 
stroke:#FFFFFF; stroke-width:40; stroke-opacity:1; 
stroke-linecap:round; stroke-linejoin:round;">
</g>
<g style="fill:#FFFFFF; fill-opacity:1.0; 
stroke:#FFFFFF; stroke-width:0; stroke-opacity:1; 
stroke-linecap:round; stroke-linejoin:round;">
<circle cx="10827.6" cy="6722.05" r="200" /> 
</g>
<g style="fill:#FFFFFF; fill-opacity:1.0; 
stroke:#FFFFFF; stroke-width:40; stroke-opacity:1; 
stroke-linecap:round; stroke-linejoin:round;">
</g>
<g style="fill:#FFFFFF; fill-opacity:1.0; 
stroke:#FFFFFF; stroke-width:0; stroke-opacity:1; 
stroke-linecap:round; stroke-linejoin:round;">
<circle cx="10827.6" cy="5722.05" r="200" /> 
</g>
<g style="fill:#FFFFFF; fill-opacity:1.0; 
stroke:#FFFFFF; stroke-width:40; stroke-opacity:1; 
stroke-linecap:round; stroke-linejoin:round;">
</g>
<g style="fill:#FFFFFF; fill-opacity:1.0; 
stroke:#FFFFFF; stroke-width:0; stroke-opacity:1; 
stroke-linecap:round; stroke-linejoin:round;">
<circle cx="10827.6" cy="4722.05" r="200" /> 
</g>
<g style="fill:#FFFFFF; fill-opacity:1.0; 
stroke:#FFFFFF; stroke-width:40; stroke-opacity:1; 
stroke-linecap:round; stroke-linejoin:round;">
</g>
<g style="fill:#FFFFFF; fill-opacity:1.0; 
stroke:#FFFFFF; stroke-width:0; stroke-opacity:1; 
stroke-linecap:round; stroke-linejoin:round;">
<circle cx="5627.59" cy="2472.05" r="200" /> 
</g>
<g style="fill:#FFFFFF; fill-opacity:1.0; 
stroke:#FFFFFF; stroke-width:40; stroke-opacity:1; 
stroke-linecap:round; stroke-linejoin:round;">
</g>
<g style="fill:#FFFFFF; fill-opacity:1.0; 
stroke:#FFFFFF; stroke-width:0; stroke-opacity:1; 
stroke-linecap:round; stroke-linejoin:round;">
<circle cx="5627.59" cy="1472.05" r="200" /> 
</g>
<g style="fill:#FFFFFF; fill-opacity:1.0; 
stroke:#FFFFFF; stroke-width:40; stroke-opacity:1; 
stroke-linecap:round; stroke-linejoin:round;">
</g>
<g style="fill:#FFFFFF; fill-opacity:1.0; 
stroke:#FFFFFF; stroke-width:0; stroke-opacity:1; 
stroke-linecap:round; stroke-linejoin:round;">
<circle cx="4627.59" cy="2472.05" r="200" /> 
</g>
<g style="fill:#FFFFFF; fill-opacity:1.0; 
stroke:#FFFFFF; stroke-width:40; stroke-opacity:1; 
stroke-linecap:round; stroke-linejoin:round;">
</g>
<g style="fill:#FFFFFF; fill-opacity:1.0; 
stroke:#FFFFFF; stroke-width:0; stroke-opacity:1; 
stroke-linecap:round; stroke-linejoin:round;">
<circle cx="4627.59" cy="1472.05" r="200" /> 
</g>
<g style="fill:#FFFFFF; fill-opacity:1.0; 
stroke:#FFFFFF; stroke-width:40; stroke-opacity:1; 
stroke-linecap:round; stroke-linejoin:round;">
</g>
<g style="fill:#FFFFFF; fill-opacity:1.0; 
stroke:#FFFFFF; stroke-width:0; stroke-opacity:1; 
stroke-linecap:round; stroke-linejoin:round;">
<circle cx="3627.59" cy="2472.05" r="200" /> 
</g>
<g style="fill:#FFFFFF; fill-opacity:1.0; 
stroke:#FFFFFF; stroke-width:40; stroke-opacity:1; 
stroke-linecap:round; stroke-linejoin:round;">
</g>
<g style="fill:#FFFFFF; fill-opacity:1.0; 
stroke:#FFFFFF; stroke-width:0; stroke-opacity:1; 
stroke-linecap:round; stroke-linejoin:round;">
<circle cx="3627.59" cy="1472.05" r="200" /> 
</g>
<g style="fill:#FFFFFF; fill-opacity:1.0; 
stroke:#FFFFFF; stroke-width:40; stroke-opacity:1; 
stroke-linecap:round; stroke-linejoin:round;">
</g>
<g style="fill:#FFFFFF; fill-opacity:1.0; 
stroke:#FFFFFF; stroke-width:0; stroke-opacity:1; 
stroke-linecap:round; stroke-linejoin:round;">
<circle cx="10827.6" cy="9972.05" r="200" /> 
</g>
<g style="fill:#FFFFFF; fill-opacity:1.0; 
stroke:#FFFFFF; stroke-width:40; stroke-opacity:1; 
stroke-linecap:round; stroke-linejoin:round;">
</g>
<g style="fill:#FFFFFF; fill-opacity:1.0; 
stroke:#FFFFFF; stroke-width:0; stroke-opacity:1; 
stroke-linecap:round; stroke-linejoin:round;">
<circle cx="2327.59" cy="9972.05" r="200" /> 
</g>
<g style="fill:#FFFFFF; fill-opacity:1.0; 
stroke:#FFFFFF; stroke-width:40; stroke-opacity:1; 
stroke-linecap:round; stroke-linejoin:round;">
</g>
<g style="fill:#FFFFFF; fill-opacity:1.0; 
stroke:#FFFFFF; stroke-width:0; stroke-opacity:1; 
stroke-linecap:round; stroke-linejoin:round;">
<circle cx="10827.6" cy="1472.05" r="200" /> 
</g>
<g style="fill:#FFFFFF; fill-opacity:1.0; 
stroke:#FFFFFF; stroke-width:40; stroke-opacity:1; 
stroke-linecap:round; stroke-linejoin:round;">
</g>
<g style="fill:#FFFFFF; fill-opacity:1.0; 
stroke:#FFFFFF; stroke-width:0; stroke-opacity:1; 
stroke-linecap:round; stroke-linejoin:round;">
<circle cx="2327.59" cy="1472.05" r="200" /> 
</g>
<g style="fill:#FFFFFF; fill-opacity:1.0; 
stroke:#FFFFFF; stroke-width:40; stroke-opacity:1; 
stroke-linecap:round; stroke-linejoin:round;">
</g>
<g style="fill:#FFFFFF; fill-opacity:1.0; 
stroke:#FFFFFF; stroke-width:0; stroke-opacity:1; 
stroke-linecap:round; stroke-linejoin:round;">
<circle cx="5827.59" cy="9972.05" r="160" /> 
</g>
<g style="fill:#FFFFFF; fill-opacity:1.0; 
stroke:#FFFFFF; stroke-width:40; stroke-opacity:1; 
stroke-linecap:round; stroke-linejoin:round;">
</g>
<g style="fill:#FFFFFF; fill-opacity:1.0; 
stroke:#FFFFFF; stroke-width:0; stroke-opacity:1; 
stroke-linecap:round; stroke-linejoin:round;">
<circle cx="4827.59" cy="9972.05" r="160" /> 
</g>
<g style="fill:#FFFFFF; fill-opacity:1.0; 
stroke:#FFFFFF; stroke-width:40; stroke-opacity:1; 
stroke-linecap:round; stroke-linejoin:round;">
</g>
<g style="fill:#FFFFFF; fill-opacity:1.0; 
stroke:#FFFFFF; stroke-width:0; stroke-opacity:1; 
stroke-linecap:round; stroke-linejoin:round;">
<circle cx="3827.59" cy="9972.05" r="160" /> 
</g>
<g style="fill:#FFFFFF; fill-opacity:1.0; 
stroke:#FFFFFF; stroke-width:40; stroke-opacity:1; 
stroke-linecap:round; stroke-linejoin:round;">
</g>
<g style="fill:#FFFFFF; fill-opacity:1.0; 
stroke:#FFFFFF; stroke-width:0; stroke-opacity:1; 
stroke-linecap:round; stroke-linejoin:round;">
<circle cx="10827.6" cy="3472.05" r="200" /> 
</g>
<g style="fill:#FFFFFF; fill-opacity:1.0; 
stroke:#FFFFFF; stroke-width:40; stroke-opacity:1; 
stroke-linecap:round; stroke-linejoin:round;">
</g>
<g style="fill:#FFFFFF; fill-opacity:1.0; 
stroke:#FFFFFF; stroke-width:0; stroke-opacity:1; 
stroke-linecap:round; stroke-linejoin:round;">
<circle cx="10827.6" cy="2472.05" r="200" /> 
</g>
<g style="fill:#FFFFFF; fill-opacity:1.0; 
stroke:#FFFFFF; stroke-width:40; stroke-opacity:1; 
stroke-linecap:round; stroke-linejoin:round;">
</g>
<g style="fill:#FFFFFF; fill-opacity:1.0; 
stroke:#FFFFFF; stroke-width:0; stroke-opacity:1; 
stroke-linecap:round; stroke-linejoin:round;">
<circle cx="7927.59" cy="9972.05" r="200" /> 
</g>
<g style="fill:#FFFFFF; fill-opacity:1.0; 
stroke:#FFFFFF; stroke-width:40; stroke-opacity:1; 
stroke-linecap:round; stroke-linejoin:round;">
</g>
<g style="fill:#FFFFFF; fill-opacity:1.0; 
stroke:#FFFFFF; stroke-width:0; stroke-opacity:1; 
stroke-linecap:round; stroke-linejoin:round;">
<circle cx="6927.59" cy="9972.05" r="200" /> 
</g>
<g style="fill:#FFFFFF; fill-opacity:1.0; 
stroke:#FFFFFF; stroke-width:40; stroke-opacity:1; 
stroke-linecap:round; stroke-linejoin:round;">
</g>
<g style="fill:#000000; fill-opacity:1.0; 
stroke:#000000; stroke-width:40; stroke-opacity:1; 
stroke-linecap:round; stroke-linejoin:round;">
</g>
<g style="fill:#C2C200; fill-opacity:1.0; 
stroke:#C2C200; stroke-width:40; stroke-opacity:1; 
stroke-linecap:round; stroke-linejoin:round;">
</g>
<g style="fill:#C2C200; fill-opacity:1.0; 
stroke:#C2C200; stroke-width:59.0551; stroke-opacity:1; 
stroke-linecap:round; stroke-linejoin:round;">
</g>
<g style="fill:#C2C200; fill-opacity:0.0; 
stroke:#C2C200; stroke-width:59.0551; stroke-opacity:1; 
stroke-linecap:round; stroke-linejoin:round;">
<path d="M11498 10643
L11498 800
" />
<path d="M1656 10643
L11498 10643
" />
<path d="M1656 800
L1656 10643
" />
<path d="M11498 800
L1656 800
" />
</g> 
</svg>
