<?xml version="1.0" standalone="no"?>
 <!DOCTYPE svg PUBLIC "-//W3C//DTD SVG 1.1//EN" 
 "http://www.w3.org/Graphics/SVG/1.1/DTD/svg11.dtd"> 
<svg xmlns="http://www.w3.org/2000/svg" version="1.1" 
    width="3.26644cm" height="3.14452cm" viewBox="0 0 12860 12380 ">
<title>SVG Picture created as rc_power_sockets-brd.svg date 2016/09/03 18:35:52 </title>
  <desc>Picture generated by PCBNEW </desc>
<g style="fill:#000000; fill-opacity:1;stroke:#000000; stroke-opacity:1;
stroke-linecap:round; stroke-linejoin:round; "
 transform="translate(0 0) scale(1 1)">
</g>
<g style="fill:#000000; fill-opacity:0.0; 
stroke:#000000; stroke-width:-0.000393701; stroke-opacity:1; 
stroke-linecap:round; stroke-linejoin:round;">
</g>
<g style="fill:#840000; fill-opacity:0.0; 
stroke:#840000; stroke-width:-0.000393701; stroke-opacity:1; 
stroke-linecap:round; stroke-linejoin:round;">
</g>
<g style="fill:#840000; fill-opacity:0.0; 
stroke:#840000; stroke-width:0; stroke-opacity:1; 
stroke-linecap:round; stroke-linejoin:round;">
</g>
<g style="fill:#840000; fill-opacity:1.0; 
stroke:#840000; stroke-width:0; stroke-opacity:1; 
stroke-linecap:round; stroke-linejoin:round;">
<polyline style="fill-rule:evenodd;"
points="10132,4382
10932,4382
10932,5062
10132,5062
10132,4382
" /> 
</g>
<g style="fill:#840000; fill-opacity:1.0; 
stroke:#840000; stroke-width:680; stroke-opacity:1; 
stroke-linecap:round; stroke-linejoin:round;">
</g>
<g style="fill:#840000; fill-opacity:0.0; 
stroke:#840000; stroke-width:680; stroke-opacity:1; 
stroke-linecap:round; stroke-linejoin:round;">
<path d="M10592 5722
L10472 5722
" />
<path d="M10592 6722
L10472 6722
" />
</g>
<g style="fill:#840000; fill-opacity:0.0; 
stroke:#840000; stroke-width:0; stroke-opacity:1; 
stroke-linecap:round; stroke-linejoin:round;">
</g>
<g style="fill:#840000; fill-opacity:1.0; 
stroke:#840000; stroke-width:0; stroke-opacity:1; 
stroke-linecap:round; stroke-linejoin:round;">
<polyline style="fill-rule:evenodd;"
points="2432,7062
1632,7062
1632,6382
2432,6382
2432,7062
" /> 
</g>
<g style="fill:#840000; fill-opacity:1.0; 
stroke:#840000; stroke-width:680; stroke-opacity:1; 
stroke-linecap:round; stroke-linejoin:round;">
</g>
<g style="fill:#840000; fill-opacity:0.0; 
stroke:#840000; stroke-width:680; stroke-opacity:1; 
stroke-linecap:round; stroke-linejoin:round;">
<path d="M1972 5722
L2092 5722
" />
<path d="M1972 4722
L2092 4722
" />
</g>
<g style="fill:#840000; fill-opacity:0.0; 
stroke:#840000; stroke-width:0; stroke-opacity:1; 
stroke-linecap:round; stroke-linejoin:round;">
</g>
<g style="fill:#840000; fill-opacity:1.0; 
stroke:#840000; stroke-width:0; stroke-opacity:1; 
stroke-linecap:round; stroke-linejoin:round;">
<polyline style="fill-rule:evenodd;"
points="6095,4018
6095,3525
6685,3525
6685,4018
6095,4018
" /> 
<polyline style="fill-rule:evenodd;"
points="7079,4018
7079,3525
7669,3525
7669,4018
7079,4018
" /> 
<polyline style="fill-rule:evenodd;"
points="4088,4048
3576,4048
3576,3458
4088,3458
4088,4048
" /> 
<polyline style="fill-rule:evenodd;"
points="4088,2985
3576,2985
3576,2395
4088,2395
4088,2985
" /> 
<polyline style="fill-rule:evenodd;"
points="7572,2812
6892,2812
6892,2132
7572,2132
7572,2812
" /> 
</g>
<g style="fill:#840000; fill-opacity:1.0; 
stroke:#840000; stroke-width:680; stroke-opacity:1; 
stroke-linecap:round; stroke-linejoin:round;">
</g>
<g style="fill:#840000; fill-opacity:0.0; 
stroke:#840000; stroke-width:680; stroke-opacity:1; 
stroke-linecap:round; stroke-linejoin:round;">
<path d="M7232 1472
L7232 1472
" />
<path d="M8232 2472
L8232 2472
" />
<path d="M8232 1472
L8232 1472
" />
<path d="M9232 2472
L9232 2472
" />
<path d="M9232 1472
L9232 1472
" />
</g>
<g style="fill:#840000; fill-opacity:0.0; 
stroke:#840000; stroke-width:0; stroke-opacity:1; 
stroke-linecap:round; stroke-linejoin:round;">
</g>
<g style="fill:#840000; fill-opacity:1.0; 
stroke:#840000; stroke-width:0; stroke-opacity:1; 
stroke-linecap:round; stroke-linejoin:round;">
<polyline style="fill-rule:evenodd;"
points="2726,7445
3238,7445
3238,8035
2726,8035
2726,7445
" /> 
<polyline style="fill-rule:evenodd;"
points="2726,8508
3238,8508
3238,9098
2726,9098
2726,8508
" /> 
<polyline style="fill-rule:evenodd;"
points="2268,8934
1796,8934
1796,8462
2268,8462
2268,8934
" /> 
<polyline style="fill-rule:evenodd;"
points="2268,8108
1796,8108
1796,7636
2268,7636
2268,8108
" /> 
<polyline style="fill-rule:evenodd;"
points="1592,10412
1592,9532
2472,9532
2472,10412
1592,10412
" /> 
<polyline style="fill-rule:evenodd;"
points="10092,10412
10092,9532
10972,9532
10972,10412
10092,10412
" /> 
<polyline style="fill-rule:evenodd;"
points="1592,1912
1592,1032
2472,1032
2472,1912
1592,1912
" /> 
<polyline style="fill-rule:evenodd;"
points="10092,1912
10092,1032
10972,1032
10972,1912
10092,1912
" /> 
<polyline style="fill-rule:evenodd;"
points="6757,10247
6757,9697
7307,9697
7307,10247
6757,10247
" /> 
<circle cx="8032.41" cy="9972.05" r="275" /> 
</g>
<g style="fill:#840000; fill-opacity:1.0; 
stroke:#840000; stroke-width:40; stroke-opacity:1; 
stroke-linecap:round; stroke-linejoin:round;">
</g>
<g style="fill:#840000; fill-opacity:1.0; 
stroke:#840000; stroke-width:0; stroke-opacity:1; 
stroke-linecap:round; stroke-linejoin:round;">
<circle cx="9032.41" cy="9972.05" r="275" /> 
</g>
<g style="fill:#840000; fill-opacity:1.0; 
stroke:#840000; stroke-width:40; stroke-opacity:1; 
stroke-linecap:round; stroke-linejoin:round;">
</g>
<g style="fill:#840000; fill-opacity:1.0; 
stroke:#840000; stroke-width:0; stroke-opacity:1; 
stroke-linecap:round; stroke-linejoin:round;">
<polyline style="fill-rule:evenodd;"
points="4052,7972
4052,7472
4752,7472
4752,7972
4052,7972
" /> 
<polyline style="fill-rule:evenodd;"
points="5682,7972
5682,7472
6382,7472
6382,7972
5682,7972
" /> 
<polyline style="fill-rule:evenodd;"
points="4052,7122
4052,6622
4752,6622
4752,7122
4052,7122
" /> 
<polyline style="fill-rule:evenodd;"
points="5682,7122
5682,6622
6382,6622
6382,7122
5682,7122
" /> 
<polyline style="fill-rule:evenodd;"
points="6082,4402
6782,4402
6782,4642
6082,4642
6082,4402
" /> 
<polyline style="fill-rule:evenodd;"
points="6082,4902
6782,4902
6782,5142
6082,5142
6082,4902
" /> 
<polyline style="fill-rule:evenodd;"
points="6082,5402
6782,5402
6782,5642
6082,5642
6082,5402
" /> 
<polyline style="fill-rule:evenodd;"
points="6082,5902
6782,5902
6782,6142
6082,6142
6082,5902
" /> 
<polyline style="fill-rule:evenodd;"
points="3482,5902
4182,5902
4182,6142
3482,6142
3482,5902
" /> 
<polyline style="fill-rule:evenodd;"
points="3482,5402
4182,5402
4182,5642
3482,5642
3482,5402
" /> 
<polyline style="fill-rule:evenodd;"
points="3482,4902
4182,4902
4182,5142
3482,5142
3482,4902
" /> 
<polyline style="fill-rule:evenodd;"
points="3482,4402
4182,4402
4182,4642
3482,4642
3482,4402
" /> 
<polyline style="fill-rule:evenodd;"
points="1592,3912
1592,3032
2472,3032
2472,3912
1592,3912
" /> 
<polyline style="fill-rule:evenodd;"
points="1592,2912
1592,2032
2472,2032
2472,2912
1592,2912
" /> 
<polyline style="fill-rule:evenodd;"
points="5332,10372
4532,10372
4532,9572
5332,9572
5332,10372
" /> 
</g>
<g style="fill:#840000; fill-opacity:1.0; 
stroke:#840000; stroke-width:800; stroke-opacity:1; 
stroke-linecap:round; stroke-linejoin:round;">
</g>
<g style="fill:#840000; fill-opacity:0.0; 
stroke:#840000; stroke-width:800; stroke-opacity:1; 
stroke-linecap:round; stroke-linejoin:round;">
<path d="M5932 9972
L5932 9972
" />
</g>
<g style="fill:#840000; fill-opacity:0.0; 
stroke:#840000; stroke-width:0; stroke-opacity:1; 
stroke-linecap:round; stroke-linejoin:round;">
</g>
<g style="fill:#840000; fill-opacity:1.0; 
stroke:#840000; stroke-width:0; stroke-opacity:1; 
stroke-linecap:round; stroke-linejoin:round;">
<polyline style="fill-rule:evenodd;"
points="7102,8668
7102,8175
7693,8175
7693,8668
7102,8668
" /> 
<polyline style="fill-rule:evenodd;"
points="8087,8668
8087,8175
8677,8175
8677,8668
8087,8668
" /> 
</g>
<g style="fill:#C2C2C2; fill-opacity:1.0; 
stroke:#C2C2C2; stroke-width:0; stroke-opacity:1; 
stroke-linecap:round; stroke-linejoin:round;">
<circle cx="8032.41" cy="5422.05" r="150" /> 
</g>
<g style="fill:#C2C2C2; fill-opacity:1.0; 
stroke:#C2C2C2; stroke-width:40; stroke-opacity:1; 
stroke-linecap:round; stroke-linejoin:round;">
</g>
<g style="fill:#C2C2C2; fill-opacity:1.0; 
stroke:#C2C2C2; stroke-width:0; stroke-opacity:1; 
stroke-linecap:round; stroke-linejoin:round;">
<circle cx="7382.41" cy="4622.05" r="150" /> 
</g>
<g style="fill:#C2C2C2; fill-opacity:1.0; 
stroke:#C2C2C2; stroke-width:40; stroke-opacity:1; 
stroke-linecap:round; stroke-linejoin:round;">
</g>
<g style="fill:#C2C2C2; fill-opacity:1.0; 
stroke:#C2C2C2; stroke-width:0; stroke-opacity:1; 
stroke-linecap:round; stroke-linejoin:round;">
<circle cx="4532.41" cy="5572.05" r="150" /> 
</g>
<g style="fill:#C2C2C2; fill-opacity:1.0; 
stroke:#C2C2C2; stroke-width:40; stroke-opacity:1; 
stroke-linecap:round; stroke-linejoin:round;">
</g>
<g style="fill:#C2C2C2; fill-opacity:1.0; 
stroke:#C2C2C2; stroke-width:0; stroke-opacity:1; 
stroke-linecap:round; stroke-linejoin:round;">
<circle cx="9032.41" cy="3822.05" r="150" /> 
</g>
<g style="fill:#C2C2C2; fill-opacity:1.0; 
stroke:#C2C2C2; stroke-width:40; stroke-opacity:1; 
stroke-linecap:round; stroke-linejoin:round;">
</g>
<g style="fill:#C2C2C2; fill-opacity:1.0; 
stroke:#C2C2C2; stroke-width:0; stroke-opacity:1; 
stroke-linecap:round; stroke-linejoin:round;">
<circle cx="5532.41" cy="3072.05" r="150" /> 
</g>
<g style="fill:#C2C2C2; fill-opacity:1.0; 
stroke:#C2C2C2; stroke-width:40; stroke-opacity:1; 
stroke-linecap:round; stroke-linejoin:round;">
</g>
<g style="fill:#C2C2C2; fill-opacity:1.0; 
stroke:#C2C2C2; stroke-width:0; stroke-opacity:1; 
stroke-linecap:round; stroke-linejoin:round;">
<circle cx="3082.41" cy="3322.05" r="150" /> 
</g>
<g style="fill:#C2C2C2; fill-opacity:1.0; 
stroke:#C2C2C2; stroke-width:40; stroke-opacity:1; 
stroke-linecap:round; stroke-linejoin:round;">
</g>
<g style="fill:#C2C2C2; fill-opacity:1.0; 
stroke:#C2C2C2; stroke-width:0; stroke-opacity:1; 
stroke-linecap:round; stroke-linejoin:round;">
<circle cx="3082.41" cy="2690.55" r="150" /> 
</g>
<g style="fill:#C2C2C2; fill-opacity:1.0; 
stroke:#C2C2C2; stroke-width:40; stroke-opacity:1; 
stroke-linecap:round; stroke-linejoin:round;">
</g>
<g style="fill:#C2C2C2; fill-opacity:1.0; 
stroke:#C2C2C2; stroke-width:0; stroke-opacity:1; 
stroke-linecap:round; stroke-linejoin:round;">
<circle cx="5532.41" cy="5072.05" r="150" /> 
</g>
<g style="fill:#C2C2C2; fill-opacity:1.0; 
stroke:#C2C2C2; stroke-width:40; stroke-opacity:1; 
stroke-linecap:round; stroke-linejoin:round;">
</g>
<g style="fill:#C2C2C2; fill-opacity:1.0; 
stroke:#C2C2C2; stroke-width:0; stroke-opacity:1; 
stroke-linecap:round; stroke-linejoin:round;">
<circle cx="5382.41" cy="8672.05" r="150" /> 
</g>
<g style="fill:#C2C2C2; fill-opacity:1.0; 
stroke:#C2C2C2; stroke-width:40; stroke-opacity:1; 
stroke-linecap:round; stroke-linejoin:round;">
</g>
<g style="fill:#840000; fill-opacity:1.0; 
stroke:#840000; stroke-width:40; stroke-opacity:1; 
stroke-linecap:round; stroke-linejoin:round;">
</g>
<g style="fill:#840000; fill-opacity:1.0; 
stroke:#840000; stroke-width:120; stroke-opacity:1; 
stroke-linecap:round; stroke-linejoin:round;">
</g>
<g style="fill:#840000; fill-opacity:0.0; 
stroke:#840000; stroke-width:120; stroke-opacity:1; 
stroke-linecap:round; stroke-linejoin:round;">
<path d="M10532 9972
L9832 9972
" />
<path d="M9832 9972
L9482 9622
" />
<path d="M9482 9622
L9382 9622
" />
<path d="M9382 9622
L9032 9972
" />
<path d="M6196 10522
L4962 10522
" />
<path d="M4932 10492
L4932 9972
" />
<path d="M4962 10522
L4932 10492
" />
<path d="M8382 8422
L8382 8022
" />
<path d="M8382 8022
L8232 7872
" />
<path d="M6982 7922
L6932 7922
" />
<path d="M8232 7872
L7032 7872
" />
<path d="M7032 7872
L6982 7922
" />
<path d="M6932 7922
L5632 9222
" />
<path d="M5632 9222
L5132 9222
" />
<path d="M5132 9222
L4932 9422
" />
<path d="M4932 9422
L4932 9972
" />
<path d="M8382 8422
L8382 9322
" />
<path d="M8382 9322
L9032 9972
" />
<path d="M6196 10522
L6296 10422
" />
<path d="M6296 10422
L8482 10422
" />
<path d="M8482 10422
L8832 10072
" />
<path d="M8832 10072
L8932 10072
" />
<path d="M8932 10072
L9032 9972
" />
<path d="M10532 9972
L10532 7922
" />
<path d="M10532 7922
L8032 5422
" />
<path d="M7374 3772
L7374 4614
" />
<path d="M7374 4614
L7382 4622
" />
<path d="M4532 5572
L4532 2569
" />
<path d="M4532 2569
L3435 1472
" />
<path d="M3435 1472
L2592 1472
" />
<path d="M2592 1472
L2032 1472
" />
<path d="M3832 6022
L4082 6022
" />
<path d="M4082 6022
L4532 5572
" />
<path d="M2032 6722
L2632 6722
" />
<path d="M2632 6722
L3332 6022
" />
<path d="M3332 6022
L3832 6022
" />
<path d="M2032 9972
L2032 9412
" />
<path d="M2032 7182
L2032 6722
" />
<path d="M2032 9412
L1632 9012
" />
<path d="M1632 9012
L1632 7582
" />
<path d="M1632 7582
L2032 7182
" />
<path d="M2032 7872
L2032 6722
" />
<path d="M6502 7722
L6032 7722
" />
<path d="M6902 5022
L7482 5602
" />
<path d="M6432 5022
L6902 5022
" />
<path d="M7482 6742
L6502 7722
" />
<path d="M7482 5602
L7482 6742
" />
<path d="M8882 3972
L9032 3822
" />
<path d="M8332 4522
L8882 3972
" />
<path d="M8332 5022
L8332 4522
" />
<path d="M6432 5022
L8332 5022
" />
<path d="M8332 5022
L9032 5022
" />
<path d="M8232 2472
L8232 2522
" />
<path d="M9032 5022
L9732 5722
" />
<path d="M9732 5722
L10532 5722
" />
<path d="M7232 2472
L6772 2472
" />
<path d="M5332 5522
L5962 5522
" />
<path d="M6772 2472
L6535 2234
" />
<path d="M6535 2234
L5469 2234
" />
<path d="M5469 2234
L5132 2572
" />
<path d="M5132 2572
L5132 3216
" />
<path d="M5132 3216
L5132 3216
" />
<path d="M5132 3216
L5132 5322
" />
<path d="M5132 5322
L5332 5522
" />
<path d="M5962 5522
L6432 5522
" />
<path d="M6432 5522
L6982 5522
" />
<path d="M6982 5522
L7182 5722
" />
<path d="M7182 5722
L7182 6572
" />
<path d="M7182 6572
L6882 6872
" />
<path d="M6882 6872
L6082 6872
" />
<path d="M8632 3072
L5744 3072
" />
<path d="M9232 2472
L8632 3072
" />
<path d="M5744 3072
L5532 3072
" />
<path d="M3082 3322
L3400 3322
" />
<path d="M3400 3322
L3832 3753
" />
<path d="M3832 3753
L3832 4522
" />
<path d="M3832 3753
L3832 3714
" />
<path d="M3832 5522
L2892 5522
" />
<path d="M2892 5522
L2092 4722
" />
<path d="M2092 4722
L2032 4722
" />
<path d="M8232 1472
L7732 1972
" />
<path d="M7732 1972
L5232 1972
" />
<path d="M5232 1972
L4832 2372
" />
<path d="M4832 2372
L4832 5522
" />
<path d="M5332 6022
L6432 6022
" />
<path d="M4832 5522
L5332 6022
" />
<path d="M6432 6022
L5962 6022
" />
<path d="M2982 7325
L2982 7740
" />
<path d="M5962 6022
L5512 6472
" />
<path d="M5512 6472
L3835 6472
" />
<path d="M3835 6472
L2982 7325
" />
<path d="M2032 3472
L2492 3472
" />
<path d="M3282 5022
L3832 5022
" />
<path d="M2492 3472
L2982 3962
" />
<path d="M2982 3962
L2982 4722
" />
<path d="M2982 4722
L3282 5022
" />
<path d="M6390 3772
L6390 4479
" />
<path d="M6390 4479
L6432 4522
" />
<path d="M6390 3772
L5882 3772
" />
<path d="M5882 3772
L5532 4122
" />
<path d="M5532 4122
L5532 5072
" />
<path d="M3832 2690
L3082 2690
" />
<path d="M3082 2690
L2250 2690
" />
<path d="M2250 2690
L2032 2472
" />
<path d="M5382 8602
L5382 8672
" />
<path d="M4402 7722
L4502 7722
" />
<path d="M4502 7722
L5382 8602
" />
<path d="M4402 6872
L4402 7722
" />
<path d="M2982 8803
L2137 8803
" />
<path d="M2137 8803
L2032 8698
" />
<path d="M7398 8956
L7032 9322
" />
<path d="M7032 9322
L7032 9972
" />
<path d="M7398 8422
L7398 8956
" />
<path d="M5932 9972
L7032 9972
" />
</g>
<g style="fill:#840000; fill-opacity:1.0; 
stroke:#840000; stroke-width:100; stroke-opacity:1; 
stroke-linecap:round; stroke-linejoin:round;">
<polyline style="fill-rule:evenodd;"
points="9513,5941
9613,6008
9732,6032
9970,6032
10042,6139
10166,6222
10042,6304
9914,6496
9869,6722
9914,6947
10042,7139
10233,7267
10459,7312
10605,7312
10830,7267
10924,7204
10924,9282
10644,9282
10582,9344
10582,9922
10590,9922
10590,10022
10582,10022
10582,10029
10482,10029
10482,10022
9904,10022
9842,10084
9842,10363
9323,10363
9329,10339
9032,10042
8735,10339
8741,10363
8383,10363
8477,10269
8529,10143
8571,10244
8664,10269
8961,9972
9103,9972
9400,10269
9492,10244
9562,10047
9550,9839
9492,9699
9400,9674
9103,9972
8961,9972
8664,9674
8571,9699
8533,9809
8477,9675
8407,9604
8735,9604
9032,9901
9329,9604
9305,9511
9222,9482
9842,9482
9842,9859
9904,9922
10482,9922
10482,9344
10419,9282
10042,9282
9950,9320
9880,9390
9842,9482
9222,9482
9108,9442
8899,9453
8759,9511
8735,9604
8407,9604
8330,9527
8137,9447
7928,9446
7735,9526
7587,9674
7562,9735
7562,9697
7544,9604
7490,9519
7406,9462
7343,9449
7617,9175
7684,9074
7708,8956
7708,8920
7786,8905
7871,8850
7889,8824
7945,8880
8037,8918
8269,8918
8332,8855
8332,8472
8432,8472
8432,8855
8494,8918
8727,8918
8819,8880
8889,8809
8927,8717
8927,8534
8865,8472
8432,8472
8332,8472
8324,8472
8324,8372
8332,8372
8332,7988
8432,7988
8432,8372
8865,8372
8927,8309
8927,8126
8889,8034
8819,7964
8727,7925
8494,7925
8432,7988
8332,7988
8269,7925
8037,7925
7945,7964
7889,8019
7876,7998
7792,7941
7693,7921
7102,7921
7010,7938
6925,7993
6868,8076
6847,8175
6847,8668
6865,8760
6920,8845
7003,8902
7011,8904
6813,9102
6746,9203
6722,9322
6722,9448
6664,9459
6579,9514
6522,9597
6509,9662
6500,9662
6392,9499
6181,9358
5932,9309
5683,9358
5551,9447
5544,9430
5474,9360
5382,9322
5044,9322
4982,9384
4982,9922
4990,9922
4990,10022
4982,10022
4982,10029
4882,10029
4882,10022
4344,10022
4282,10084
4282,10363
2722,10363
2722,10084
2659,10022
2082,10022
2082,10029
1982,10029
1982,10022
1974,10022
1974,9922
1982,9922
1982,9344
1919,9282
1640,9282
1640,9130
1697,9168
1796,9188
2268,9188
2361,9171
2446,9116
2448,9113
2474,9113
2489,9191
2543,9276
2597,9313
2522,9282
2144,9282
2082,9344
2082,9922
2659,9922
2722,9859
2722,9522
4282,9522
4282,9859
4344,9922
4882,9922
4882,9384
4819,9322
4482,9322
4390,9360
4320,9430
4282,9522
2722,9522
2722,9482
2684,9390
2627,9333
2726,9353
3238,9353
3330,9336
3416,9281
3473,9197
3493,9098
3493,8508
3475,8415
3421,8330
3337,8273
3332,8272
3416,8218
3473,8134
3493,8035
3493,7445
3475,7352
3443,7302
3797,6948
3797,7122
3814,7214
3868,7298
3817,7372
3797,7472
3797,7972
3814,8064
3869,8149
3953,8206
4052,8226
4568,8226
4982,8640
4982,8751
5043,8898
5155,9010
5302,9071
5461,9072
5608,9011
5721,8898
5782,8751
5782,8592
5721,8445
5609,8333
5511,8292
5007,7788
5007,7472
4989,7379
4936,7295
4987,7221
5007,7122
5007,6782
5427,6782
5427,7122
5444,7214
5498,7298
5447,7372
5427,7472
5427,7972
5444,8064
5499,8149
5583,8206
5682,8226
6382,8226
6475,8209
6560,8154
6617,8071
6631,8001
6721,7941
7701,6961
7768,6860
7792,6742
7792,5602
7768,5483
7701,5382
7650,5332
8904,5332
9513,5941
" /> 
<polyline style="fill-rule:evenodd;"
points="6687,1234
6642,1460
6642,1483
6677,1662
5232,1662
5113,1685
5013,1752
4613,2152
4546,2253
4522,2372
4522,5522
4546,5640
4613,5741
5034,6162
4432,6162
4432,6134
4369,6072
3882,6072
3882,6079
3782,6079
3782,6072
3294,6072
3232,6134
3232,6191
3270,6283
3340,6353
3432,6392
3477,6392
2763,7106
2704,7194
2641,7206
2644,7203
2682,7111
2682,6834
2619,6772
2082,6772
2082,7249
2144,7312
2482,7312
2527,7293
2491,7346
2471,7445
2471,7485
2410,7424
2318,7386
2144,7386
2082,7448
2082,7822
2090,7822
2090,7922
2082,7922
2082,7929
1982,7929
1982,7922
1974,7922
1974,7822
1982,7822
1982,7448
1919,7386
1746,7386
1654,7424
1640,7438
1640,7312
1919,7312
1982,7249
1982,6772
1974,6772
1974,6672
1982,6672
1982,6664
2082,6664
2082,6672
2619,6672
2682,6609
2682,6332
2644,6240
2574,6170
2513,6145
2522,6139
2650,5947
2689,5751
2773,5808
2892,5832
3240,5832
3232,5852
3232,5909
3294,5972
3782,5972
3782,5964
3882,5964
3882,5972
4369,5972
4432,5909
4432,5852
4398,5769
4417,5741
4437,5642
4437,5402
4419,5309
4395,5272
4417,5241
4437,5142
4437,4902
4419,4809
4395,4772
4417,4741
4437,4642
4437,4402
4419,4309
4365,4224
4300,4180
4323,4147
4343,4048
4343,3458
4325,3365
4271,3280
4187,3223
4182,3222
4266,3168
4323,3084
4343,2985
4343,2395
4325,2302
4271,2217
4187,2160
4088,2140
3576,2140
3483,2157
3398,2212
3341,2296
3326,2369
3309,2351
3162,2290
3003,2290
2856,2351
2826,2380
2727,2380
2727,2032
2716,1975
2722,1961
2722,1584
2659,1522
2082,1522
2082,1529
1982,1529
1982,1522
1974,1522
1974,1422
1982,1422
1982,1414
2082,1414
2082,1422
2659,1422
2722,1359
2722,1080
6790,1080
6687,1234
" /> 
<polyline style="fill-rule:evenodd;"
points="9842,1359
9904,1422
10482,1422
10482,1414
10582,1414
10582,1422
10590,1422
10590,1522
10582,1522
10582,2099
10644,2162
10924,2162
10924,4132
10644,4132
10582,4194
10582,4672
10590,4672
10590,4772
10582,4772
10582,4779
10482,4779
10482,4772
9944,4772
9882,4834
9882,5111
9920,5203
9990,5273
10051,5299
10042,5304
9970,5412
9860,5412
9251,4802
9151,4735
9032,4712
8642,4712
8642,4650
8960,4332
9882,4332
9882,4609
9944,4672
10482,4672
10482,4194
10419,4132
10082,4132
9990,4170
9920,4240
9882,4332
8960,4332
9070,4222
9111,4222
9258,4161
9371,4048
9432,3901
9432,3742
9371,3595
9259,3483
9112,3422
8953,3421
8806,3482
8693,3595
8632,3742
8632,3783
8113,4302
8046,4403
8022,4522
8022,4712
7023,4712
7037,4642
7037,4402
7019,4309
6980,4247
7029,4268
7262,4268
7324,4205
7324,3822
7424,3822
7424,4205
7487,4268
7719,4268
7811,4230
7881,4159
7919,4067
7919,3884
7857,3822
7424,3822
7324,3822
7316,3822
7316,3722
7324,3722
7324,3714
7424,3714
7424,3722
7857,3722
7919,3659
7919,3476
7881,3384
7879,3382
8632,3382
8751,3358
8851,3291
9096,3046
9232,3073
9458,3028
9649,2900
9777,2709
9822,2483
9822,2460
9777,2234
9649,2043
9542,1972
9707,1821
9805,1613
9790,1584
9842,1584
9842,1961
9880,2053
9950,2123
10042,2162
10419,2162
10482,2099
10482,1522
9904,1522
9842,1584
9790,1584
9757,1522
9282,1522
9282,1529
9182,1529
9182,1522
9174,1522
9174,1422
9182,1422
9182,1414
9282,1414
9282,1422
9757,1422
9805,1330
9707,1122
9661,1080
9842,1080
9842,1359
" /> 
</g>
<g style="fill:#FFFFFF; fill-opacity:1.0; 
stroke:#FFFFFF; stroke-width:100; stroke-opacity:1; 
stroke-linecap:round; stroke-linejoin:round;">
</g>
<g style="fill:#FFFFFF; fill-opacity:1.0; 
stroke:#FFFFFF; stroke-width:0; stroke-opacity:1; 
stroke-linecap:round; stroke-linejoin:round;">
<circle cx="8032.41" cy="5422.05" r="80" /> 
</g>
<g style="fill:#FFFFFF; fill-opacity:1.0; 
stroke:#FFFFFF; stroke-width:40; stroke-opacity:1; 
stroke-linecap:round; stroke-linejoin:round;">
</g>
<g style="fill:#FFFFFF; fill-opacity:1.0; 
stroke:#FFFFFF; stroke-width:0; stroke-opacity:1; 
stroke-linecap:round; stroke-linejoin:round;">
<circle cx="7382.41" cy="4622.05" r="80" /> 
</g>
<g style="fill:#FFFFFF; fill-opacity:1.0; 
stroke:#FFFFFF; stroke-width:40; stroke-opacity:1; 
stroke-linecap:round; stroke-linejoin:round;">
</g>
<g style="fill:#FFFFFF; fill-opacity:1.0; 
stroke:#FFFFFF; stroke-width:0; stroke-opacity:1; 
stroke-linecap:round; stroke-linejoin:round;">
<circle cx="4532.41" cy="5572.05" r="80" /> 
</g>
<g style="fill:#FFFFFF; fill-opacity:1.0; 
stroke:#FFFFFF; stroke-width:40; stroke-opacity:1; 
stroke-linecap:round; stroke-linejoin:round;">
</g>
<g style="fill:#FFFFFF; fill-opacity:1.0; 
stroke:#FFFFFF; stroke-width:0; stroke-opacity:1; 
stroke-linecap:round; stroke-linejoin:round;">
<circle cx="9032.41" cy="3822.05" r="80" /> 
</g>
<g style="fill:#FFFFFF; fill-opacity:1.0; 
stroke:#FFFFFF; stroke-width:40; stroke-opacity:1; 
stroke-linecap:round; stroke-linejoin:round;">
</g>
<g style="fill:#FFFFFF; fill-opacity:1.0; 
stroke:#FFFFFF; stroke-width:0; stroke-opacity:1; 
stroke-linecap:round; stroke-linejoin:round;">
<circle cx="5532.41" cy="3072.05" r="80" /> 
</g>
<g style="fill:#FFFFFF; fill-opacity:1.0; 
stroke:#FFFFFF; stroke-width:40; stroke-opacity:1; 
stroke-linecap:round; stroke-linejoin:round;">
</g>
<g style="fill:#FFFFFF; fill-opacity:1.0; 
stroke:#FFFFFF; stroke-width:0; stroke-opacity:1; 
stroke-linecap:round; stroke-linejoin:round;">
<circle cx="3082.41" cy="3322.05" r="80" /> 
</g>
<g style="fill:#FFFFFF; fill-opacity:1.0; 
stroke:#FFFFFF; stroke-width:40; stroke-opacity:1; 
stroke-linecap:round; stroke-linejoin:round;">
</g>
<g style="fill:#FFFFFF; fill-opacity:1.0; 
stroke:#FFFFFF; stroke-width:0; stroke-opacity:1; 
stroke-linecap:round; stroke-linejoin:round;">
<circle cx="3082.41" cy="2690.55" r="80" /> 
</g>
<g style="fill:#FFFFFF; fill-opacity:1.0; 
stroke:#FFFFFF; stroke-width:40; stroke-opacity:1; 
stroke-linecap:round; stroke-linejoin:round;">
</g>
<g style="fill:#FFFFFF; fill-opacity:1.0; 
stroke:#FFFFFF; stroke-width:0; stroke-opacity:1; 
stroke-linecap:round; stroke-linejoin:round;">
<circle cx="5532.41" cy="5072.05" r="80" /> 
</g>
<g style="fill:#FFFFFF; fill-opacity:1.0; 
stroke:#FFFFFF; stroke-width:40; stroke-opacity:1; 
stroke-linecap:round; stroke-linejoin:round;">
</g>
<g style="fill:#FFFFFF; fill-opacity:1.0; 
stroke:#FFFFFF; stroke-width:0; stroke-opacity:1; 
stroke-linecap:round; stroke-linejoin:round;">
<circle cx="5382.41" cy="8672.05" r="80" /> 
</g>
<g style="fill:#FFFFFF; fill-opacity:1.0; 
stroke:#FFFFFF; stroke-width:40; stroke-opacity:1; 
stroke-linecap:round; stroke-linejoin:round;">
</g>
<g style="fill:#FFFFFF; fill-opacity:1.0; 
stroke:#FFFFFF; stroke-width:0; stroke-opacity:1; 
stroke-linecap:round; stroke-linejoin:round;">
<circle cx="10532.4" cy="4722.05" r="200" /> 
</g>
<g style="fill:#FFFFFF; fill-opacity:1.0; 
stroke:#FFFFFF; stroke-width:40; stroke-opacity:1; 
stroke-linecap:round; stroke-linejoin:round;">
</g>
<g style="fill:#FFFFFF; fill-opacity:1.0; 
stroke:#FFFFFF; stroke-width:0; stroke-opacity:1; 
stroke-linecap:round; stroke-linejoin:round;">
<circle cx="10532.4" cy="5722.05" r="200" /> 
</g>
<g style="fill:#FFFFFF; fill-opacity:1.0; 
stroke:#FFFFFF; stroke-width:40; stroke-opacity:1; 
stroke-linecap:round; stroke-linejoin:round;">
</g>
<g style="fill:#FFFFFF; fill-opacity:1.0; 
stroke:#FFFFFF; stroke-width:0; stroke-opacity:1; 
stroke-linecap:round; stroke-linejoin:round;">
<circle cx="10532.4" cy="6722.05" r="200" /> 
</g>
<g style="fill:#FFFFFF; fill-opacity:1.0; 
stroke:#FFFFFF; stroke-width:40; stroke-opacity:1; 
stroke-linecap:round; stroke-linejoin:round;">
</g>
<g style="fill:#FFFFFF; fill-opacity:1.0; 
stroke:#FFFFFF; stroke-width:0; stroke-opacity:1; 
stroke-linecap:round; stroke-linejoin:round;">
<circle cx="2032.41" cy="6722.05" r="200" /> 
</g>
<g style="fill:#FFFFFF; fill-opacity:1.0; 
stroke:#FFFFFF; stroke-width:40; stroke-opacity:1; 
stroke-linecap:round; stroke-linejoin:round;">
</g>
<g style="fill:#FFFFFF; fill-opacity:1.0; 
stroke:#FFFFFF; stroke-width:0; stroke-opacity:1; 
stroke-linecap:round; stroke-linejoin:round;">
<circle cx="2032.41" cy="5722.05" r="200" /> 
</g>
<g style="fill:#FFFFFF; fill-opacity:1.0; 
stroke:#FFFFFF; stroke-width:40; stroke-opacity:1; 
stroke-linecap:round; stroke-linejoin:round;">
</g>
<g style="fill:#FFFFFF; fill-opacity:1.0; 
stroke:#FFFFFF; stroke-width:0; stroke-opacity:1; 
stroke-linecap:round; stroke-linejoin:round;">
<circle cx="2032.41" cy="4722.05" r="200" /> 
</g>
<g style="fill:#FFFFFF; fill-opacity:1.0; 
stroke:#FFFFFF; stroke-width:40; stroke-opacity:1; 
stroke-linecap:round; stroke-linejoin:round;">
</g>
<g style="fill:#FFFFFF; fill-opacity:1.0; 
stroke:#FFFFFF; stroke-width:0; stroke-opacity:1; 
stroke-linecap:round; stroke-linejoin:round;">
<circle cx="7232.41" cy="2472.05" r="200" /> 
</g>
<g style="fill:#FFFFFF; fill-opacity:1.0; 
stroke:#FFFFFF; stroke-width:40; stroke-opacity:1; 
stroke-linecap:round; stroke-linejoin:round;">
</g>
<g style="fill:#FFFFFF; fill-opacity:1.0; 
stroke:#FFFFFF; stroke-width:0; stroke-opacity:1; 
stroke-linecap:round; stroke-linejoin:round;">
<circle cx="7232.41" cy="1472.05" r="200" /> 
</g>
<g style="fill:#FFFFFF; fill-opacity:1.0; 
stroke:#FFFFFF; stroke-width:40; stroke-opacity:1; 
stroke-linecap:round; stroke-linejoin:round;">
</g>
<g style="fill:#FFFFFF; fill-opacity:1.0; 
stroke:#FFFFFF; stroke-width:0; stroke-opacity:1; 
stroke-linecap:round; stroke-linejoin:round;">
<circle cx="8232.41" cy="2472.05" r="200" /> 
</g>
<g style="fill:#FFFFFF; fill-opacity:1.0; 
stroke:#FFFFFF; stroke-width:40; stroke-opacity:1; 
stroke-linecap:round; stroke-linejoin:round;">
</g>
<g style="fill:#FFFFFF; fill-opacity:1.0; 
stroke:#FFFFFF; stroke-width:0; stroke-opacity:1; 
stroke-linecap:round; stroke-linejoin:round;">
<circle cx="8232.41" cy="1472.05" r="200" /> 
</g>
<g style="fill:#FFFFFF; fill-opacity:1.0; 
stroke:#FFFFFF; stroke-width:40; stroke-opacity:1; 
stroke-linecap:round; stroke-linejoin:round;">
</g>
<g style="fill:#FFFFFF; fill-opacity:1.0; 
stroke:#FFFFFF; stroke-width:0; stroke-opacity:1; 
stroke-linecap:round; stroke-linejoin:round;">
<circle cx="9232.41" cy="2472.05" r="200" /> 
</g>
<g style="fill:#FFFFFF; fill-opacity:1.0; 
stroke:#FFFFFF; stroke-width:40; stroke-opacity:1; 
stroke-linecap:round; stroke-linejoin:round;">
</g>
<g style="fill:#FFFFFF; fill-opacity:1.0; 
stroke:#FFFFFF; stroke-width:0; stroke-opacity:1; 
stroke-linecap:round; stroke-linejoin:round;">
<circle cx="9232.41" cy="1472.05" r="200" /> 
</g>
<g style="fill:#FFFFFF; fill-opacity:1.0; 
stroke:#FFFFFF; stroke-width:40; stroke-opacity:1; 
stroke-linecap:round; stroke-linejoin:round;">
</g>
<g style="fill:#FFFFFF; fill-opacity:1.0; 
stroke:#FFFFFF; stroke-width:0; stroke-opacity:1; 
stroke-linecap:round; stroke-linejoin:round;">
<circle cx="2032.41" cy="9972.05" r="200" /> 
</g>
<g style="fill:#FFFFFF; fill-opacity:1.0; 
stroke:#FFFFFF; stroke-width:40; stroke-opacity:1; 
stroke-linecap:round; stroke-linejoin:round;">
</g>
<g style="fill:#FFFFFF; fill-opacity:1.0; 
stroke:#FFFFFF; stroke-width:0; stroke-opacity:1; 
stroke-linecap:round; stroke-linejoin:round;">
<circle cx="10532.4" cy="9972.05" r="200" /> 
</g>
<g style="fill:#FFFFFF; fill-opacity:1.0; 
stroke:#FFFFFF; stroke-width:40; stroke-opacity:1; 
stroke-linecap:round; stroke-linejoin:round;">
</g>
<g style="fill:#FFFFFF; fill-opacity:1.0; 
stroke:#FFFFFF; stroke-width:0; stroke-opacity:1; 
stroke-linecap:round; stroke-linejoin:round;">
<circle cx="2032.41" cy="1472.05" r="200" /> 
</g>
<g style="fill:#FFFFFF; fill-opacity:1.0; 
stroke:#FFFFFF; stroke-width:40; stroke-opacity:1; 
stroke-linecap:round; stroke-linejoin:round;">
</g>
<g style="fill:#FFFFFF; fill-opacity:1.0; 
stroke:#FFFFFF; stroke-width:0; stroke-opacity:1; 
stroke-linecap:round; stroke-linejoin:round;">
<circle cx="10532.4" cy="1472.05" r="200" /> 
</g>
<g style="fill:#FFFFFF; fill-opacity:1.0; 
stroke:#FFFFFF; stroke-width:40; stroke-opacity:1; 
stroke-linecap:round; stroke-linejoin:round;">
</g>
<g style="fill:#FFFFFF; fill-opacity:1.0; 
stroke:#FFFFFF; stroke-width:0; stroke-opacity:1; 
stroke-linecap:round; stroke-linejoin:round;">
<circle cx="7032.41" cy="9972.05" r="160" /> 
</g>
<g style="fill:#FFFFFF; fill-opacity:1.0; 
stroke:#FFFFFF; stroke-width:40; stroke-opacity:1; 
stroke-linecap:round; stroke-linejoin:round;">
</g>
<g style="fill:#FFFFFF; fill-opacity:1.0; 
stroke:#FFFFFF; stroke-width:0; stroke-opacity:1; 
stroke-linecap:round; stroke-linejoin:round;">
<circle cx="8032.41" cy="9972.05" r="160" /> 
</g>
<g style="fill:#FFFFFF; fill-opacity:1.0; 
stroke:#FFFFFF; stroke-width:40; stroke-opacity:1; 
stroke-linecap:round; stroke-linejoin:round;">
</g>
<g style="fill:#FFFFFF; fill-opacity:1.0; 
stroke:#FFFFFF; stroke-width:0; stroke-opacity:1; 
stroke-linecap:round; stroke-linejoin:round;">
<circle cx="9032.41" cy="9972.05" r="160" /> 
</g>
<g style="fill:#FFFFFF; fill-opacity:1.0; 
stroke:#FFFFFF; stroke-width:40; stroke-opacity:1; 
stroke-linecap:round; stroke-linejoin:round;">
</g>
<g style="fill:#FFFFFF; fill-opacity:1.0; 
stroke:#FFFFFF; stroke-width:0; stroke-opacity:1; 
stroke-linecap:round; stroke-linejoin:round;">
<circle cx="2032.41" cy="3472.05" r="200" /> 
</g>
<g style="fill:#FFFFFF; fill-opacity:1.0; 
stroke:#FFFFFF; stroke-width:40; stroke-opacity:1; 
stroke-linecap:round; stroke-linejoin:round;">
</g>
<g style="fill:#FFFFFF; fill-opacity:1.0; 
stroke:#FFFFFF; stroke-width:0; stroke-opacity:1; 
stroke-linecap:round; stroke-linejoin:round;">
<circle cx="2032.41" cy="2472.05" r="200" /> 
</g>
<g style="fill:#FFFFFF; fill-opacity:1.0; 
stroke:#FFFFFF; stroke-width:40; stroke-opacity:1; 
stroke-linecap:round; stroke-linejoin:round;">
</g>
<g style="fill:#FFFFFF; fill-opacity:1.0; 
stroke:#FFFFFF; stroke-width:0; stroke-opacity:1; 
stroke-linecap:round; stroke-linejoin:round;">
<circle cx="4932.41" cy="9972.05" r="200" /> 
</g>
<g style="fill:#FFFFFF; fill-opacity:1.0; 
stroke:#FFFFFF; stroke-width:40; stroke-opacity:1; 
stroke-linecap:round; stroke-linejoin:round;">
</g>
<g style="fill:#FFFFFF; fill-opacity:1.0; 
stroke:#FFFFFF; stroke-width:0; stroke-opacity:1; 
stroke-linecap:round; stroke-linejoin:round;">
<circle cx="5932.41" cy="9972.05" r="200" /> 
</g>
<g style="fill:#FFFFFF; fill-opacity:1.0; 
stroke:#FFFFFF; stroke-width:40; stroke-opacity:1; 
stroke-linecap:round; stroke-linejoin:round;">
</g>
<g style="fill:#000000; fill-opacity:1.0; 
stroke:#000000; stroke-width:40; stroke-opacity:1; 
stroke-linecap:round; stroke-linejoin:round;">
</g>
<g style="fill:#840084; fill-opacity:1.0; 
stroke:#840084; stroke-width:40; stroke-opacity:1; 
stroke-linecap:round; stroke-linejoin:round;">
</g>
<g style="fill:#840084; fill-opacity:0.0; 
stroke:#840084; stroke-width:40; stroke-opacity:1; 
stroke-linecap:round; stroke-linejoin:round;">
<path d="M10634 3574
L10697 3369
" />
<path d="M10650 3487
L10634 3574
" />
<path d="M10603 3377
L10650 3487
" />
<path d="M10516 3259
L10603 3377
" />
<path d="M10481 3090
L10516 3259
" />
<path d="M10626 3094
L10626 3027
" />
<path d="M10634 3133
L10626 3094
" />
<path d="M10615 3168
L10634 3133
" />
<path d="M10567 3180
L10615 3168
" />
<path d="M10520 3129
L10567 3180
" />
<path d="M10493 3054
L10520 3129
" />
<path d="M10697 3054
L10662 3003
" />
<path d="M10748 3066
L10697 3054
" />
<path d="M10792 3050
L10748 3066
" />
<path d="M10808 3011
L10792 3050
" />
<path d="M10808 2956
L10808 3011
" />
<path d="M10768 2901
L10808 2956
" />
<path d="M10697 2857
L10768 2901
" />
<path d="M10737 2846
L10697 2846
" />
<path d="M10796 2842
L10737 2846
" />
<path d="M10835 2814
L10796 2842
" />
<path d="M10827 2755
L10835 2814
" />
<path d="M10784 2716
L10827 2755
" />
<path d="M10638 2720
L10784 2716
" />
<path d="M10685 2668
L10650 2724
" />
<path d="M10693 2625
L10685 2668
" />
<path d="M10674 2582
L10693 2625
" />
<path d="M10607 2570
L10674 2582
" />
<path d="M10544 2594
L10607 2570
" />
<path d="M10508 2700
L10544 2594
" />
<path d="M10469 3058
L10465 3046
" />
<path d="M10481 3050
L10469 3058
" />
<path d="M10473 3058
L10481 3050
" />
<path d="M10465 3101
L10473 3058
" />
<path d="M10441 3145
L10465 3101
" />
<path d="M10394 3161
L10441 3145
" />
<path d="M10351 3145
L10394 3161
" />
<path d="M10347 3070
L10351 3145
" />
<path d="M10378 2991
L10347 3070
" />
<path d="M10272 3007
L10370 2983
" />
<path d="M10225 2975
L10272 3007
" />
<path d="M10209 2924
L10225 2975
" />
<path d="M10245 2865
L10209 2924
" />
<path d="M10351 2846
L10245 2865
" />
<path d="M10264 2798
L10347 2818
" />
<path d="M10221 2731
L10264 2798
" />
<path d="M10264 2657
L10221 2731
" />
<path d="M10374 2629
L10264 2657
" />
<path d="M10481 2684
L10374 2629
" />
</g>
<g style="fill:#840084; fill-opacity:0.0; 
stroke:#840084; stroke-width:30; stroke-opacity:1; 
stroke-linecap:round; stroke-linejoin:round;">
<path d="M10548 2948
L10595 2912
" />
<path d="M10496 2952
L10548 2948
" />
<path d="M10449 2924
L10496 2952
" />
</g>
<g style="fill:#840084; fill-opacity:0.0; 
stroke:#840084; stroke-width:59.0551; stroke-opacity:1; 
stroke-linecap:round; stroke-linejoin:round;">
<circle cx="10469.4" cy="2838.19" r="12.45" /> 
</g>
<g style="fill:#840084; fill-opacity:0.0; 
stroke:#840084; stroke-width:50; stroke-opacity:1; 
stroke-linecap:round; stroke-linejoin:round;">
<circle cx="10524.5" cy="2869.69" r="161.417" /> 
</g>
<g style="fill:#840084; fill-opacity:0.0; 
stroke:#840084; stroke-width:59.0551; stroke-opacity:1; 
stroke-linecap:round; stroke-linejoin:round;">
<circle cx="10579.7" cy="2838.19" r="12.45" /> 
</g>
<g style="fill:#840000; fill-opacity:0.0; 
stroke:#840000; stroke-width:59.0551; stroke-opacity:1; 
stroke-linecap:round; stroke-linejoin:round;">
</g>
<g style="fill:#840000; fill-opacity:0.0; 
stroke:#840000; stroke-width:0; stroke-opacity:1; 
stroke-linecap:round; stroke-linejoin:round;">
</g>
<g style="fill:#840000; fill-opacity:1.0; 
stroke:#840000; stroke-width:0; stroke-opacity:1; 
stroke-linecap:round; stroke-linejoin:round;">
<polyline style="fill-rule:evenodd;"
points="10053,4303
11011,4303
11011,5140
10053,5140
10053,4303
" /> 
</g>
<g style="fill:#840000; fill-opacity:1.0; 
stroke:#840000; stroke-width:837.48; stroke-opacity:1; 
stroke-linecap:round; stroke-linejoin:round;">
</g>
<g style="fill:#840000; fill-opacity:0.0; 
stroke:#840000; stroke-width:837.48; stroke-opacity:1; 
stroke-linecap:round; stroke-linejoin:round;">
<path d="M10592 5722
L10472 5722
" />
<path d="M10592 6722
L10472 6722
" />
</g>
<g style="fill:#840000; fill-opacity:0.0; 
stroke:#840000; stroke-width:0; stroke-opacity:1; 
stroke-linecap:round; stroke-linejoin:round;">
</g>
<g style="fill:#840000; fill-opacity:1.0; 
stroke:#840000; stroke-width:0; stroke-opacity:1; 
stroke-linecap:round; stroke-linejoin:round;">
<polyline style="fill-rule:evenodd;"
points="2511,7140
1553,7140
1553,6303
2511,6303
2511,7140
" /> 
</g>
<g style="fill:#840000; fill-opacity:1.0; 
stroke:#840000; stroke-width:837.48; stroke-opacity:1; 
stroke-linecap:round; stroke-linejoin:round;">
</g>
<g style="fill:#840000; fill-opacity:0.0; 
stroke:#840000; stroke-width:837.48; stroke-opacity:1; 
stroke-linecap:round; stroke-linejoin:round;">
<path d="M1972 5722
L2092 5722
" />
<path d="M1972 4722
L2092 4722
" />
</g>
<g style="fill:#840000; fill-opacity:0.0; 
stroke:#840000; stroke-width:0; stroke-opacity:1; 
stroke-linecap:round; stroke-linejoin:round;">
</g>
<g style="fill:#840000; fill-opacity:1.0; 
stroke:#840000; stroke-width:0; stroke-opacity:1; 
stroke-linecap:round; stroke-linejoin:round;">
<polyline style="fill-rule:evenodd;"
points="6016,4096
6016,3447
6764,3447
6764,4096
6016,4096
" /> 
<polyline style="fill-rule:evenodd;"
points="7000,4096
7000,3447
7748,3447
7748,4096
7000,4096
" /> 
<polyline style="fill-rule:evenodd;"
points="4167,4127
3497,4127
3497,3379
4167,3379
4167,4127
" /> 
<polyline style="fill-rule:evenodd;"
points="4167,3064
3497,3064
3497,2316
4167,2316
4167,3064
" /> 
<polyline style="fill-rule:evenodd;"
points="7651,2890
6813,2890
6813,2053
7651,2053
7651,2890
" /> 
</g>
<g style="fill:#840000; fill-opacity:1.0; 
stroke:#840000; stroke-width:837.48; stroke-opacity:1; 
stroke-linecap:round; stroke-linejoin:round;">
</g>
<g style="fill:#840000; fill-opacity:0.0; 
stroke:#840000; stroke-width:837.48; stroke-opacity:1; 
stroke-linecap:round; stroke-linejoin:round;">
<path d="M7232 1472
L7232 1472
" />
<path d="M8232 2472
L8232 2472
" />
<path d="M8232 1472
L8232 1472
" />
<path d="M9232 2472
L9232 2472
" />
<path d="M9232 1472
L9232 1472
" />
</g>
<g style="fill:#840000; fill-opacity:0.0; 
stroke:#840000; stroke-width:0; stroke-opacity:1; 
stroke-linecap:round; stroke-linejoin:round;">
</g>
<g style="fill:#840000; fill-opacity:1.0; 
stroke:#840000; stroke-width:0; stroke-opacity:1; 
stroke-linecap:round; stroke-linejoin:round;">
<polyline style="fill-rule:evenodd;"
points="2647,7366
3317,7366
3317,8114
2647,8114
2647,7366
" /> 
<polyline style="fill-rule:evenodd;"
points="2647,8429
3317,8429
3317,9177
2647,9177
2647,8429
" /> 
<polyline style="fill-rule:evenodd;"
points="2347,9012
1717,9012
1717,8383
2347,8383
2347,9012
" /> 
<polyline style="fill-rule:evenodd;"
points="2347,8186
1717,8186
1717,7557
2347,7557
2347,8186
" /> 
<polyline style="fill-rule:evenodd;"
points="1513,10490
1513,9453
2551,9453
2551,10490
1513,10490
" /> 
<polyline style="fill-rule:evenodd;"
points="10013,10490
10013,9453
11051,9453
11051,10490
10013,10490
" /> 
<polyline style="fill-rule:evenodd;"
points="1513,1990
1513,953
2551,953
2551,1990
1513,1990
" /> 
<polyline style="fill-rule:evenodd;"
points="10013,1990
10013,953
11051,953
11051,1990
10013,1990
" /> 
<polyline style="fill-rule:evenodd;"
points="6678,10325
6678,9618
7386,9618
7386,10325
6678,10325
" /> 
<circle cx="8032.41" cy="9972.05" r="353.74" /> 
</g>
<g style="fill:#840000; fill-opacity:1.0; 
stroke:#840000; stroke-width:40; stroke-opacity:1; 
stroke-linecap:round; stroke-linejoin:round;">
</g>
<g style="fill:#840000; fill-opacity:1.0; 
stroke:#840000; stroke-width:0; stroke-opacity:1; 
stroke-linecap:round; stroke-linejoin:round;">
<circle cx="9032.41" cy="9972.05" r="353.74" /> 
</g>
<g style="fill:#840000; fill-opacity:1.0; 
stroke:#840000; stroke-width:40; stroke-opacity:1; 
stroke-linecap:round; stroke-linejoin:round;">
</g>
<g style="fill:#840000; fill-opacity:1.0; 
stroke:#840000; stroke-width:0; stroke-opacity:1; 
stroke-linecap:round; stroke-linejoin:round;">
<polyline style="fill-rule:evenodd;"
points="3973,8050
3973,7393
4831,7393
4831,8050
3973,8050
" /> 
<polyline style="fill-rule:evenodd;"
points="5603,8050
5603,7393
6461,7393
6461,8050
5603,8050
" /> 
<polyline style="fill-rule:evenodd;"
points="3973,7200
3973,6543
4831,6543
4831,7200
3973,7200
" /> 
<polyline style="fill-rule:evenodd;"
points="5603,7200
5603,6543
6461,6543
6461,7200
5603,7200
" /> 
<polyline style="fill-rule:evenodd;"
points="6003,4323
6861,4323
6861,4720
6003,4720
6003,4323
" /> 
<polyline style="fill-rule:evenodd;"
points="6003,4823
6861,4823
6861,5220
6003,5220
6003,4823
" /> 
<polyline style="fill-rule:evenodd;"
points="6003,5323
6861,5323
6861,5720
6003,5720
6003,5323
" /> 
<polyline style="fill-rule:evenodd;"
points="6003,5823
6861,5823
6861,6220
6003,6220
6003,5823
" /> 
<polyline style="fill-rule:evenodd;"
points="3403,5823
4261,5823
4261,6220
3403,6220
3403,5823
" /> 
<polyline style="fill-rule:evenodd;"
points="3403,5323
4261,5323
4261,5720
3403,5720
3403,5323
" /> 
<polyline style="fill-rule:evenodd;"
points="3403,4823
4261,4823
4261,5220
3403,5220
3403,4823
" /> 
<polyline style="fill-rule:evenodd;"
points="3403,4323
4261,4323
4261,4720
3403,4720
3403,4323
" /> 
<polyline style="fill-rule:evenodd;"
points="1513,3990
1513,2953
2551,2953
2551,3990
1513,3990
" /> 
<polyline style="fill-rule:evenodd;"
points="1513,2990
1513,1953
2551,1953
2551,2990
1513,2990
" /> 
<polyline style="fill-rule:evenodd;"
points="5411,10450
4453,10450
4453,9493
5411,9493
5411,10450
" /> 
</g>
<g style="fill:#840000; fill-opacity:1.0; 
stroke:#840000; stroke-width:957.48; stroke-opacity:1; 
stroke-linecap:round; stroke-linejoin:round;">
</g>
<g style="fill:#840000; fill-opacity:0.0; 
stroke:#840000; stroke-width:957.48; stroke-opacity:1; 
stroke-linecap:round; stroke-linejoin:round;">
<path d="M5932 9972
L5932 9972
" />
</g>
<g style="fill:#840000; fill-opacity:0.0; 
stroke:#840000; stroke-width:0; stroke-opacity:1; 
stroke-linecap:round; stroke-linejoin:round;">
</g>
<g style="fill:#840000; fill-opacity:1.0; 
stroke:#840000; stroke-width:0; stroke-opacity:1; 
stroke-linecap:round; stroke-linejoin:round;">
<polyline style="fill-rule:evenodd;"
points="7024,8746
7024,8097
7772,8097
7772,8746
7024,8746
" /> 
<polyline style="fill-rule:evenodd;"
points="8008,8746
8008,8097
8756,8097
8756,8746
8008,8746
" /> 
</g>
<g style="fill:#000000; fill-opacity:1.0; 
stroke:#000000; stroke-width:0; stroke-opacity:1; 
stroke-linecap:round; stroke-linejoin:round;">
</g>
<g style="fill:#840000; fill-opacity:1.0; 
stroke:#840000; stroke-width:0; stroke-opacity:1; 
stroke-linecap:round; stroke-linejoin:round;">
<polyline style="fill-rule:evenodd;"
points="6095,4018
6095,3525
6685,3525
6685,4018
6095,4018
" /> 
<polyline style="fill-rule:evenodd;"
points="7079,4018
7079,3525
7669,3525
7669,4018
7079,4018
" /> 
<polyline style="fill-rule:evenodd;"
points="4088,4048
3576,4048
3576,3458
4088,3458
4088,4048
" /> 
<polyline style="fill-rule:evenodd;"
points="4088,2985
3576,2985
3576,2395
4088,2395
4088,2985
" /> 
<polyline style="fill-rule:evenodd;"
points="2726,7445
3238,7445
3238,8035
2726,8035
2726,7445
" /> 
<polyline style="fill-rule:evenodd;"
points="2726,8508
3238,8508
3238,9098
2726,9098
2726,8508
" /> 
<polyline style="fill-rule:evenodd;"
points="2268,8934
1796,8934
1796,8462
2268,8462
2268,8934
" /> 
<polyline style="fill-rule:evenodd;"
points="2268,8108
1796,8108
1796,7636
2268,7636
2268,8108
" /> 
<polyline style="fill-rule:evenodd;"
points="4052,7972
4052,7472
4752,7472
4752,7972
4052,7972
" /> 
<polyline style="fill-rule:evenodd;"
points="5682,7972
5682,7472
6382,7472
6382,7972
5682,7972
" /> 
<polyline style="fill-rule:evenodd;"
points="4052,7122
4052,6622
4752,6622
4752,7122
4052,7122
" /> 
<polyline style="fill-rule:evenodd;"
points="5682,7122
5682,6622
6382,6622
6382,7122
5682,7122
" /> 
<polyline style="fill-rule:evenodd;"
points="6082,4402
6782,4402
6782,4642
6082,4642
6082,4402
" /> 
<polyline style="fill-rule:evenodd;"
points="6082,4902
6782,4902
6782,5142
6082,5142
6082,4902
" /> 
<polyline style="fill-rule:evenodd;"
points="6082,5402
6782,5402
6782,5642
6082,5642
6082,5402
" /> 
<polyline style="fill-rule:evenodd;"
points="6082,5902
6782,5902
6782,6142
6082,6142
6082,5902
" /> 
<polyline style="fill-rule:evenodd;"
points="3482,5902
4182,5902
4182,6142
3482,6142
3482,5902
" /> 
<polyline style="fill-rule:evenodd;"
points="3482,5402
4182,5402
4182,5642
3482,5642
3482,5402
" /> 
<polyline style="fill-rule:evenodd;"
points="3482,4902
4182,4902
4182,5142
3482,5142
3482,4902
" /> 
<polyline style="fill-rule:evenodd;"
points="3482,4402
4182,4402
4182,4642
3482,4642
3482,4402
" /> 
<polyline style="fill-rule:evenodd;"
points="7102,8668
7102,8175
7693,8175
7693,8668
7102,8668
" /> 
<polyline style="fill-rule:evenodd;"
points="8087,8668
8087,8175
8677,8175
8677,8668
8087,8668
" /> 
</g>
<g style="fill:#000000; fill-opacity:1.0; 
stroke:#000000; stroke-width:0; stroke-opacity:1; 
stroke-linecap:round; stroke-linejoin:round;">
</g>
<g style="fill:#008484; fill-opacity:1.0; 
stroke:#008484; stroke-width:0; stroke-opacity:1; 
stroke-linecap:round; stroke-linejoin:round;">
</g>
<g style="fill:#008484; fill-opacity:0.0; 
stroke:#008484; stroke-width:0; stroke-opacity:1; 
stroke-linecap:round; stroke-linejoin:round;">
</g>
<g style="fill:#008484; fill-opacity:0.0; 
stroke:#008484; stroke-width:60; stroke-opacity:1; 
stroke-linecap:round; stroke-linejoin:round;">
<path d="M3254 1167
L3217 1467
" />
<path d="M3252 1182
L3283 1167
L3340 1167
L3367 1182
L3379 1196
L3390 1224
L3379 1310
L3361 1339
L3345 1353
L3315 1367
L3258 1367
L3231 1353
" />
<path d="M3617 1353
L3586 1367
L3529 1367
L3502 1353
L3492 1324
L3506 1210
L3524 1182
L3554 1167
L3611 1167
L3638 1182
L3649 1210
L3645 1239
L3499 1267
" />
<path d="M3740 1167
L3854 1167
" />
<path d="M3795 1067
L3763 1324
L3774 1353
L3801 1367
L3829 1367
" />
<path d="M4045 1353
L4015 1367
L3958 1367
L3931 1353
L3920 1324
L3935 1210
L3952 1182
L3983 1167
L4040 1167
L4067 1182
L4077 1210
L4074 1239
L3927 1267
" />
<path d="M4186 1367
L4211 1167
" />
<path d="M4204 1224
L4222 1196
L4238 1182
L4269 1167
L4297 1167
" />
<path d="M4372 1367
L4397 1167
" />
<path d="M4394 1196
L4410 1182
L4440 1167
L4483 1167
L4510 1182
L4520 1210
L4501 1367
" />
<path d="M4520 1210
L4538 1182
L4569 1167
L4611 1167
L4638 1182
L4649 1210
L4629 1367
" />
<path d="M4902 1353
L4872 1367
L4815 1367
L4788 1353
L4776 1339
L4765 1310
L4776 1224
L4794 1196
L4810 1182
L4840 1167
L4897 1167
L4924 1182
" />
<path d="M5072 1367
L5045 1353
L5035 1324
L5067 1067
" />
<path d="M5315 1367
L5335 1210
L5324 1182
L5297 1167
L5240 1167
L5210 1182
" />
<path d="M5317 1353
L5286 1367
L5215 1367
L5188 1353
L5177 1324
L5181 1296
L5199 1267
L5229 1253
L5301 1253
L5331 1239
" />
<path d="M5458 1367
L5483 1167
" />
<path d="M5476 1224
L5494 1196
L5510 1182
L5540 1167
L5569 1167
" />
<path d="M5644 1367
L5681 1067
" />
<path d="M5686 1253
L5758 1367
" />
<path d="M5783 1167
L5654 1282
" />
<path d="M6002 1353
L5972 1367
L5915 1367
L5888 1353
L5877 1324
L5892 1210
L5910 1182
L5940 1167
L5997 1167
L6024 1182
L6035 1210
L6031 1239
L5885 1267
" />
<path d="M3540 1704
L3527 1690
L3501 1676
L3472 1676
L3442 1690
L3426 1704
L3408 1733
L3404 1762
L3415 1790
L3427 1804
L3454 1819
L3483 1819
L3513 1804
L3529 1790
" />
<path d="M3544 1676
L3529 1790
L3542 1804
L3556 1804
L3586 1790
L3604 1762
L3613 1690
L3590 1647
L3551 1619
L3495 1604
L3436 1619
L3390 1647
L3356 1690
L3335 1747
L3342 1804
L3365 1847
L3404 1876
L3460 1890
L3519 1876
L3565 1847
" />
<path d="M3876 1647
L3845 1890
L3827 1919
L3811 1933
L3781 1947
L3738 1947
L3711 1933
" />
<path d="M3852 1833
L3822 1847
L3765 1847
L3738 1833
L3726 1819
L3715 1790
L3726 1704
L3744 1676
L3760 1662
L3790 1647
L3847 1647
L3874 1662
" />
<path d="M3994 1847
L4019 1647
" />
<path d="M4015 1676
L4031 1662
L4061 1647
L4104 1647
L4131 1662
L4142 1690
L4122 1847
" />
<path d="M4142 1690
L4160 1662
L4190 1647
L4233 1647
L4260 1662
L4270 1690
L4251 1847
" />
<path d="M4522 1847
L4542 1690
L4531 1662
L4504 1647
L4447 1647
L4417 1662
" />
<path d="M4524 1833
L4494 1847
L4422 1847
L4395 1833
L4385 1804
L4388 1776
L4406 1747
L4436 1733
L4508 1733
L4538 1719
" />
<path d="M4665 1847
L4690 1647
" />
<path d="M4702 1547
L4686 1562
L4699 1576
L4715 1562
L4702 1547
L4699 1576
" />
<path d="M4851 1847
L4824 1833
L4813 1804
L4845 1547
" />
<path d="M4969 1819
L4981 1833
L4965 1847
L4952 1833
L4969 1819
L4965 1847
" />
<path d="M5238 1833
L5208 1847
L5151 1847
L5124 1833
L5111 1819
L5101 1790
L5111 1704
L5129 1676
L5145 1662
L5176 1647
L5233 1647
L5260 1662
" />
<path d="M5408 1847
L5381 1833
L5369 1819
L5358 1790
L5369 1704
L5386 1676
L5402 1662
L5433 1647
L5476 1647
L5502 1662
L5515 1676
L5526 1704
L5515 1790
L5497 1819
L5481 1833
L5451 1847
L5408 1847
" />
<path d="M5636 1847
L5661 1647
" />
<path d="M5658 1676
L5674 1662
L5704 1647
L5747 1647
L5774 1662
L5785 1690
L5765 1847
" />
<path d="M5785 1690
L5802 1662
L5833 1647
L5876 1647
L5902 1662
L5913 1690
L5894 1847
" />
<path d="M6496 2652
L6268 2652
" />
<path d="M6382 2652
L6382 2252
L6344 2310
L6306 2348
L6268 2367
" />
</g>
<g style="fill:#008484; fill-opacity:0.0; 
stroke:#008484; stroke-width:100; stroke-opacity:1; 
stroke-linecap:round; stroke-linejoin:round;">
<path d="M10380 4100
L10684 4100
" />
<path d="M10380 7500
L10684 7500
" />
<path d="M10532 7652
L10532 7348
" />
<path d="M9680 1450
L9984 1450
" />
<path d="M6330 1450
L6634 1450
" />
<path d="M6482 1602
L6482 1298
" />
</g>
<g style="fill:#008484; fill-opacity:0.0; 
stroke:#008484; stroke-width:60; stroke-opacity:1; 
stroke-linecap:round; stroke-linejoin:round;">
<path d="M3149 3807
L3149 3617
" />
<path d="M3263 3845
L2863 3712
L3263 3579
" />
<path d="M2863 3369
L2863 3331
L2882 3293
L2901 3274
L2939 3255
L3015 3236
L3110 3236
L3187 3255
L3225 3274
L3244 3293
L3263 3331
L3263 3369
L3244 3407
L3225 3426
L3187 3445
L3110 3464
L3015 3464
L2939 3445
L2901 3426
L2882 3407
L2863 3369
" />
</g>
<g style="fill:#008484; fill-opacity:0.0; 
stroke:#008484; stroke-width:100; stroke-opacity:1; 
stroke-linecap:round; stroke-linejoin:round;">
<path d="M2830 5700
L3134 5700
" />
<path d="M2982 5852
L2982 5548
" />
<path d="M2830 6700
L3134 6700
" />
<path d="M4780 9100
L5084 9100
" />
</g>
<g style="fill:#008484; fill-opacity:0.0; 
stroke:#008484; stroke-width:60; stroke-opacity:1; 
stroke-linecap:round; stroke-linejoin:round;">
<path d="M7027 8902
L7103 8902
L7141 8922
L7180 8960
L7199 9036
L7199 9169
L7180 9245
L7141 9283
L7103 9302
L7027 9302
L6989 9283
L6951 9245
L6932 9169
L6932 9036
L6951 8960
L6989 8922
L7027 8902
" />
<path d="M7370 9302
L7370 8902
L7599 9302
L7599 8902
" />
<path d="M8475 8902
L8551 8902
L8589 8922
L8627 8960
L8646 9036
L8646 9169
L8627 9245
L8589 9283
L8551 9302
L8475 9302
L8437 9283
L8399 9245
L8380 9169
L8380 9036
L8399 8960
L8437 8922
L8475 8902
" />
<path d="M8951 9093
L8818 9093
" />
<path d="M8818 9302
L8818 8902
L9008 8902
" />
<path d="M9294 9093
L9160 9093
" />
<path d="M9160 9302
L9160 8902
L9351 8902
" />
</g>
<g style="fill:#008484; fill-opacity:0.0; 
stroke:#008484; stroke-width:100; stroke-opacity:1; 
stroke-linecap:round; stroke-linejoin:round;">
<path d="M5830 9100
L6134 9100
" />
<path d="M5982 9252
L5982 8948
" />
</g>
<g style="fill:#008484; fill-opacity:0.0; 
stroke:#008484; stroke-width:60; stroke-opacity:1; 
stroke-linecap:round; stroke-linejoin:round;">
<path d="M2863 2967
L2863 2719
L3015 2852
L3015 2795
L3034 2757
L3053 2738
L3091 2719
L3187 2719
L3225 2738
L3244 2757
L3263 2795
L3263 2910
L3244 2948
L3225 2967
" />
<path d="M2863 2605
L3263 2472
L2863 2338
" />
<path d="M2863 2243
L2863 1995
L3015 2129
L3015 2072
L3034 2033
L3053 2014
L3091 1995
L3187 1995
L3225 2014
L3244 2033
L3263 2072
L3263 2186
L3244 2224
L3225 2243
" />
<path d="M4422 8486
L4422 8752
" />
<path d="M4327 8333
L4232 8619
L4480 8619
" />
<path d="M4632 8714
L4651 8733
L4632 8752
L4613 8733
L4632 8714
L4632 8752
" />
<path d="M5013 8352
L4822 8352
L4803 8543
L4822 8524
L4860 8505
L4956 8505
L4994 8524
L5013 8543
L5032 8581
L5032 8676
L5013 8714
L4994 8733
L4956 8752
L4860 8752
L4822 8733
L4803 8714
" />
<path d="M5203 8600
L5508 8600
" />
<path d="M5908 8752
L5680 8752
" />
<path d="M5794 8752
L5794 8352
L5756 8410
L5718 8448
L5680 8467
" />
<path d="M6156 8352
L6194 8352
L6232 8372
L6251 8391
L6270 8429
L6289 8505
L6289 8600
L6270 8676
L6251 8714
L6232 8733
L6194 8752
L6156 8752
L6118 8733
L6099 8714
L6080 8676
L6060 8600
L6060 8505
L6080 8429
L6099 8391
L6118 8372
L6156 8352
" />
<path d="M6403 8352
L6537 8752
L6670 8352
" />
<path d="M2877 4902
L2877 4502
L2972 4502
L3030 4522
L3068 4560
L3087 4598
L3106 4674
L3106 4731
L3087 4807
L3068 4845
L3030 4883
L2972 4902
L2877 4902
" />
</g>
<g style="fill:#008484; fill-opacity:0.0; 
stroke:#008484; stroke-width:59.0551; stroke-opacity:1; 
stroke-linecap:round; stroke-linejoin:round;">
<path d="M1422 6722
L1422 7332
" />
<path d="M1422 7332
L2642 7332
" />
<path d="M2642 7332
L2642 6722
" />
<path d="M1532 6222
L1532 4222
" />
<path d="M1532 4222
L2532 4222
" />
<path d="M2532 4222
L2532 6222
" />
<path d="M2532 6222
L1532 6222
" />
<path d="M7079 3437
L6685 3437
" />
<path d="M6685 4106
L7079 4106
" />
<path d="M4176 2985
L4176 3458
" />
<path d="M3487 3458
L3487 2985
" />
<path d="M7732 2972
L9732 2972
" />
<path d="M6622 3082
L6622 2472
" />
<path d="M6732 1972
L7732 1972
" />
<path d="M7732 1972
L7732 2972
" />
<path d="M9732 2972
L9732 972
" />
<path d="M9732 972
L7732 972
" />
<path d="M6622 3082
L7232 3082
" />
<path d="M6732 972
L6732 1972
" />
<path d="M7732 972
L6732 972
" />
<path d="M2637 8508
L2637 8035
" />
<path d="M3326 8035
L3326 8508
" />
<path d="M2332 7635
L2332 8085
" />
<path d="M2332 8735
L2332 8485
" />
<path d="M2347 8245
L2347 8363
" />
<path d="M2189 8363
L2347 8245
" />
<path d="M2347 8245
L2229 8206
" />
<path d="M1737 7655
L1737 8718
" />
<path d="M1973 8245
L2071 8245
" />
<path d="M2071 8245
L2012 8186
" />
<path d="M2170 8147
L1894 8147
" />
<path d="M2032 8285
L2032 8422
" />
<path d="M2032 8147
L2170 8285
" />
<path d="M2170 8285
L1894 8285
" />
<path d="M1894 8285
L2032 8147
" />
<path d="M6532 10472
L6532 9472
" />
<path d="M6532 9472
L9532 9472
" />
<path d="M9532 9472
L9532 10472
" />
<path d="M9532 10472
L6532 10472
" />
<path d="M7532 9472
L7532 10472
" />
<path d="M5347 7722
L5497 7722
" />
<path d="M4947 7722
L5097 7722
" />
<path d="M5097 7722
L5347 7572
" />
<path d="M5347 7572
L5347 7872
" />
<path d="M5347 7872
L5097 7722
" />
<path d="M5097 7522
L5097 7922
" />
<path d="M4435 8076
L5828 8076
" />
<path d="M4435 7367
L5828 7367
" />
<path d="M5347 6872
L5497 6872
" />
<path d="M4947 6872
L5097 6872
" />
<path d="M5097 6872
L5347 6722
" />
<path d="M5347 6722
L5347 7022
" />
<path d="M5347 7022
L5097 6872
" />
<path d="M5097 6672
L5097 7072
" />
<path d="M4435 7226
L5828 7226
" />
<path d="M4435 6517
L5828 6517
" />
<path d="M6032 4272
L6032 6272
" />
<path d="M6032 6272
L4232 6272
" />
<path d="M4232 6272
L4232 4272
" />
<path d="M4232 4272
L6032 4272
" />
<path d="M5432 4272
L5432 4472
" />
<path d="M5432 4472
L4932 4472
" />
<path d="M4932 4472
L4932 4272
" />
<path d="M2642 2861
L2642 3472
" />
<path d="M1422 3472
L1422 2861
" />
<path d="M1422 2861
L2642 2861
" />
<path d="M1532 3972
L2532 3972
" />
<path d="M2642 1861
L2642 2472
" />
<path d="M1422 2472
L1422 1861
" />
<path d="M1422 1861
L2642 1861
" />
<path d="M1532 2972
L2532 2972
" />
<path d="M5432 9472
L6432 9472
" />
<path d="M4322 9361
L4932 9361
" />
<path d="M5432 9472
L5432 10472
" />
<path d="M4932 10582
L4322 10582
" />
<path d="M4322 10582
L4322 9361
" />
<path d="M5432 10472
L6432 10472
" />
<path d="M6432 10472
L6432 9472
" />
<path d="M8973 8475
L9028 8369
" />
<path d="M9028 8369
L9075 8294
" />
<path d="M9075 8294
L9142 8219
" />
<path d="M9142 8219
L9213 8152
" />
<path d="M9213 8152
L9087 8168
" />
<path d="M9087 8168
L9040 8219
" />
<path d="M9040 8219
L8961 8314
" />
<path d="M8611 6688
L8788 7105
" />
<path d="M8788 7105
L8898 7282
" />
<path d="M8898 7282
L8961 7459
" />
<path d="M8961 7459
L8961 7633
" />
<path d="M8961 7633
L8961 7833
" />
<path d="M8961 7833
L8898 8054
" />
<path d="M8898 8054
L8898 8207
" />
<path d="M8898 8207
L8985 8581
" />
<path d="M8985 8581
L9028 8755
" />
<path d="M9028 8755
L9008 8755
" />
<path d="M8615 5692
L8556 5739
" />
<path d="M8556 5739
L8520 5814
" />
<path d="M8520 5814
L8559 5853
" />
<path d="M8559 5853
L8622 5877
" />
<path d="M8622 5877
L8693 5861
" />
<path d="M8693 5861
L8741 5794
" />
<path d="M8741 5794
L8729 5747
" />
<path d="M8729 5747
L8693 5703
" />
<path d="M8693 5703
L8622 5688
" />
<path d="M8134 5739
L8087 5825
" />
<path d="M8087 5825
L8079 5885
" />
<path d="M8079 5885
L8119 5920
" />
<path d="M8119 5920
L8178 5951
" />
<path d="M8178 5951
L8237 5912
" />
<path d="M8237 5912
L8284 5853
" />
<path d="M8284 5853
L8292 5814
" />
<path d="M8292 5814
L8248 5782
" />
<path d="M8248 5782
L8146 5759
" />
<path d="M8193 6148
L8327 6255
" />
<path d="M8327 6255
L8386 6282
" />
<path d="M8386 6282
L8461 6282
" />
<path d="M8461 6282
L8520 6282
" />
<path d="M8520 6282
L8583 6282
" />
<path d="M8583 6282
L8642 6255
" />
<path d="M8642 6255
L8733 6180
" />
<path d="M8733 6180
L8776 6101
" />
<path d="M8776 6101
L8823 6014
" />
<path d="M8823 6014
L8792 6042
" />
<path d="M9032 6117
L9197 6314
" />
<path d="M9197 6314
L9288 6522
" />
<path d="M9288 6522
L9288 6703
" />
<path d="M9288 6703
L9213 6810
" />
<path d="M9213 6810
L9075 6912
" />
<path d="M9075 6912
L8941 6912
" />
<path d="M8941 6912
L8823 6853
" />
<path d="M8823 6853
L8748 6778
" />
<path d="M8748 6778
L8658 6629
" />
<path d="M8658 6629
L8595 6538
" />
<path d="M8898 5637
L9150 5562
" />
<path d="M9150 5562
L9347 5550
" />
<path d="M9347 5550
L9556 5684
" />
<path d="M9556 5684
L9587 5849
" />
<path d="M9587 5849
L9587 5967
" />
<path d="M9587 5967
L9528 6089
" />
<path d="M9528 6089
L9390 6133
" />
<path d="M9390 6133
L9272 6164
" />
<path d="M9272 6164
L9138 6148
" />
<path d="M9138 6148
L9048 6117
" />
<path d="M9048 6117
L8985 6089
" />
<path d="M7981 6314
L7922 6538
" />
<path d="M7922 6538
L7906 6762
" />
<path d="M7906 6762
L8012 6971
" />
<path d="M8012 6971
L8205 7093
" />
<path d="M8205 7093
L8433 7050
" />
<path d="M8433 7050
L8520 6912
" />
<path d="M8520 6912
L8567 6778
" />
<path d="M8567 6778
L8595 6644
" />
<path d="M8595 6644
L8595 6538
" />
<path d="M7922 5743
L7713 5833
" />
<path d="M7713 5833
L7548 5940
" />
<path d="M7548 5940
L7485 6058
" />
<path d="M7485 6058
L7457 6164
" />
<path d="M7457 6164
L7457 6266
" />
<path d="M7457 6266
L7485 6357
" />
<path d="M7485 6357
L7622 6479
" />
<path d="M7622 6479
L7772 6479
" />
<path d="M7772 6479
L7847 6432
" />
<path d="M7847 6432
L7953 6314
" />
<path d="M7953 6314
L7981 6314
" />
<path d="M8461 5428
L8327 5188
" />
<path d="M8327 5188
L8193 5113
" />
<path d="M8193 5113
L7965 5081
" />
<path d="M7965 5081
L7800 5144
" />
<path d="M7800 5144
L7682 5262
" />
<path d="M7682 5262
L7638 5503
" />
<path d="M7638 5503
L7713 5668
" />
<path d="M7713 5668
L7815 5727
" />
<path d="M7815 5727
L7906 5743
" />
<path d="M7906 5743
L7937 5743
" />
<path d="M7937 5743
L7937 5759
" />
<path d="M8461 5412
L8520 5262
" />
<path d="M8520 5262
L8611 5188
" />
<path d="M8611 5188
L8748 5070
" />
<path d="M8748 5070
L8898 5054
" />
<path d="M8898 5054
L9048 5113
" />
<path d="M9048 5113
L9107 5231
" />
<path d="M9107 5231
L9122 5369
" />
<path d="M9122 5369
L9107 5444
" />
<path d="M9107 5444
L9048 5503
" />
<path d="M9048 5503
L8973 5534
" />
<path d="M8973 5534
L8882 5577
" />
<circle cx="8465.49" cy="5979.53" r="556.777" /> 
<path d="M8087 8087
L7693 8087
" />
<path d="M7693 8756
L8087 8756
" />
</g>
<g style="fill:#008484; fill-opacity:0.0; 
stroke:#008484; stroke-width:60; stroke-opacity:1; 
stroke-linecap:round; stroke-linejoin:round;">
<path d="M5463 4029
L5463 3991
L5482 3952
L5501 3933
L5539 3914
L5615 3895
L5710 3895
L5787 3914
L5825 3933
L5844 3952
L5863 3991
L5863 4029
L5844 4067
L5825 4086
L5787 4105
L5710 4124
L5615 4124
L5539 4105
L5501 4086
L5482 4067
L5463 4029
" />
<path d="M5825 3724
L5844 3705
L5863 3724
L5844 3743
L5825 3724
L5863 3724
" />
<path d="M5863 3324
L5863 3552
" />
<path d="M5863 3438
L5463 3438
L5520 3476
L5558 3514
L5577 3552
" />
<path d="M5596 2981
L5863 2981
" />
<path d="M5596 3152
L5806 3152
L5844 3133
L5863 3095
L5863 3038
L5844 3000
L5825 2981
" />
<path d="M5653 2657
L5653 2791
" />
<path d="M5863 2791
L5463 2791
L5463 2600
" />
<path d="M4713 3498
L4713 3726
" />
<path d="M4713 3612
L4313 3612
L4370 3650
L4408 3688
L4427 3726
" />
<path d="M4313 3250
L4313 3212
L4332 3174
L4351 3155
L4389 3136
L4465 3117
L4560 3117
L4637 3136
L4675 3155
L4694 3174
L4713 3212
L4713 3250
L4694 3288
L4675 3307
L4637 3326
L4560 3345
L4465 3345
L4389 3326
L4351 3307
L4332 3288
L4313 3250
" />
<path d="M4713 2945
L4313 2945
" />
<path d="M4713 2717
L4484 2888
" />
<path d="M4313 2717
L4541 2945
" />
<path d="M3584 8741
L3565 8779
L3546 8798
L3508 8817
L3489 8817
L3451 8798
L3432 8779
L3413 8741
L3413 8664
L3432 8626
L3451 8607
L3489 8588
L3508 8588
L3546 8607
L3565 8626
L3584 8664
L3584 8741
L3603 8779
L3622 8798
L3660 8817
L3737 8817
L3775 8798
L3794 8779
L3813 8741
L3813 8664
L3794 8626
L3775 8607
L3737 8588
L3660 8588
L3622 8607
L3603 8626
L3584 8664
" />
<path d="M3451 8436
L3432 8417
L3413 8379
L3413 8283
L3432 8245
L3451 8226
L3489 8207
L3527 8207
L3584 8226
L3813 8455
L3813 8207
" />
<path d="M3413 7960
L3413 7922
L3432 7883
L3451 7864
L3489 7845
L3565 7826
L3660 7826
L3737 7845
L3775 7864
L3794 7883
L3813 7922
L3813 7960
L3794 7998
L3775 8017
L3737 8036
L3660 8055
L3565 8055
L3489 8036
L3451 8017
L3432 7998
L3413 7960
" />
</g>
<g style="fill:#C2C200; fill-opacity:0.0; 
stroke:#C2C200; stroke-width:60; stroke-opacity:1; 
stroke-linecap:round; stroke-linejoin:round;">
</g>
<g style="fill:#C2C200; fill-opacity:0.0; 
stroke:#C2C200; stroke-width:59.0551; stroke-opacity:1; 
stroke-linecap:round; stroke-linejoin:round;">
<path d="M4798 5450
L4798 5056
" />
<path d="M5210 5412
L5191 5431
L5135 5450
L5098 5450
L5041 5431
L5004 5393
L4985 5356
L4966 5281
L4966 5225
L4985 5150
L5004 5112
L5041 5075
L5098 5056
L5135 5056
L5191 5075
L5210 5093
" />
<path d="M5585 5450
L5360 5450
" />
<path d="M5473 5450
L5473 5056
L5435 5112
L5398 5150
L5360 5168
" />
</g>
<g style="fill:#008484; fill-opacity:0.0; 
stroke:#008484; stroke-width:59.0551; stroke-opacity:1; 
stroke-linecap:round; stroke-linejoin:round;">
<path d="M7418 7900
L7193 7900
" />
<path d="M7305 7900
L7305 7506
L7268 7562
L7230 7600
L7193 7618
" />
<path d="M7662 7506
L7699 7506
L7737 7525
L7755 7543
L7774 7581
L7793 7656
L7793 7750
L7774 7825
L7755 7862
L7737 7881
L7699 7900
L7662 7900
L7624 7881
L7605 7862
L7587 7825
L7568 7750
L7568 7656
L7587 7581
L7605 7543
L7624 7525
L7662 7506
" />
<path d="M8130 7637
L8130 7900
" />
<path d="M7962 7637
L7962 7843
L7980 7881
L8018 7900
L8074 7900
L8112 7881
L8130 7862
" />
<path d="M8449 7693
L8318 7693
" />
<path d="M8318 7900
L8318 7506
L8505 7506
" />
</g>
<g style="fill:#000000; fill-opacity:0.0; 
stroke:#000000; stroke-width:59.0551; stroke-opacity:1; 
stroke-linecap:round; stroke-linejoin:round;">
</g>
<g style="fill:#C2C200; fill-opacity:0.0; 
stroke:#C2C200; stroke-width:59.0551; stroke-opacity:1; 
stroke-linecap:round; stroke-linejoin:round;">
<path d="M1361 10643
L1361 800
" />
<path d="M11203 10643
L1361 10643
" />
<path d="M11203 800
L11203 10643
" />
<path d="M1361 800
L11203 800
" />
</g> 
</svg>
