M48
;DRILL file {KiCad 4.0.1-stable} date 28/03/2016 18:18:22
;FORMAT={-:-/ absolute / metric / decimal}
FMAT,2
METRIC,TZ
T1C0.400
T2C1.016
T3C1.199
T4C2.200
T5C3.200
%
G90
G05
M71
T1
X131.456Y-74.476
X139.33Y-84.636
X142.886Y-75.492
X143.013Y-89.589
X145.426Y-77.27
X145.426Y-84.636
X146.696Y-83.366
X150.2Y-85.7
X155.459Y-73.587
X155.8Y-66.2
X155.8Y-67.4
X157.Y-66.2
X157.Y-67.4
X158.4Y-66.2
X158.4Y-67.4
X159.6Y-66.2
X159.6Y-67.4
T2
X123.Y-82.92
X123.Y-85.46
X123.Y-88.
X133.42Y-64.06
X133.42Y-66.6
X134.5Y-75.9
X135.96Y-64.06
X135.96Y-66.6
X137.Y-81.76
X137.Y-104.62
X137.04Y-75.9
X138.5Y-64.06
X138.5Y-66.6
X142.42Y-94.9
X144.96Y-94.9
X147.5Y-94.9
X152.Y-65.38
X152.Y-88.24
X167.Y-83.
X167.Y-85.54
X167.Y-88.08
T3
X166.Y-93.92
X166.Y-96.46
X166.Y-99.
T4
X130.5Y-85.
X159.5Y-85.
T5
X124.Y-64.
X124.Y-106.
X166.Y-64.
X166.Y-106.
T0
M30
