G04 #@! TF.FileFunction,Copper,L1,Top,Signal*
%FSLAX46Y46*%
G04 Gerber Fmt 4.6, Leading zero omitted, Abs format (unit mm)*
G04 Created by KiCad (PCBNEW 4.0.2-4+6225~38~ubuntu14.04.1-stable) date Tue 22 Mar 2016 13:46:15 GMT*
%MOMM*%
G01*
G04 APERTURE LIST*
%ADD10C,0.100000*%
%ADD11R,1.800860X0.800100*%
%ADD12R,1.143000X0.508000*%
%ADD13R,1.727200X2.032000*%
%ADD14O,1.727200X2.032000*%
%ADD15R,2.032000X1.727200*%
%ADD16O,2.032000X1.727200*%
%ADD17R,1.500000X1.250000*%
%ADD18R,1.500000X1.300000*%
%ADD19R,1.300000X1.500000*%
%ADD20R,0.910000X1.220000*%
%ADD21R,0.800100X1.800860*%
%ADD22C,1.998980*%
%ADD23R,1.727200X1.727200*%
%ADD24O,1.727200X1.727200*%
%ADD25R,2.032000X2.032000*%
%ADD26O,2.032000X2.032000*%
%ADD27C,6.400000*%
%ADD28C,0.600000*%
%ADD29C,0.250000*%
%ADD30C,0.350000*%
%ADD31C,0.254000*%
G04 APERTURE END LIST*
D10*
D11*
X149748860Y-87800000D03*
X149748860Y-89700000D03*
X152751140Y-88750000D03*
X149748860Y-80050000D03*
X149748860Y-81950000D03*
X152751140Y-81000000D03*
D12*
X140675000Y-72345000D03*
X140675000Y-73615000D03*
X140675000Y-74885000D03*
X140675000Y-76155000D03*
X134325000Y-76155000D03*
X134325000Y-74885000D03*
X134325000Y-73615000D03*
X134325000Y-72345000D03*
D13*
X147500000Y-94500000D03*
D14*
X144960000Y-94500000D03*
X142420000Y-94500000D03*
D15*
X123000000Y-88000000D03*
D16*
X123000000Y-85460000D03*
X123000000Y-82920000D03*
D17*
X154000000Y-76000000D03*
X156500000Y-76000000D03*
X148500000Y-69750000D03*
X151000000Y-69750000D03*
X140750000Y-69750000D03*
X143250000Y-69750000D03*
D18*
X146350000Y-85000000D03*
X143650000Y-85000000D03*
D19*
X153000000Y-96350000D03*
X153000000Y-93650000D03*
X146500000Y-87650000D03*
X146500000Y-90350000D03*
D18*
X151400000Y-65000000D03*
X154100000Y-65000000D03*
D20*
X141615000Y-80750000D03*
X144885000Y-80750000D03*
X138135000Y-80750000D03*
X134865000Y-80750000D03*
D21*
X150450000Y-72748860D03*
X148550000Y-72748860D03*
X149500000Y-75751140D03*
D22*
X124000000Y-73460000D03*
X124000000Y-70920000D03*
X124000000Y-76000000D03*
D23*
X142000000Y-65000000D03*
D24*
X142000000Y-62460000D03*
X144540000Y-65000000D03*
X144540000Y-62460000D03*
X147080000Y-65000000D03*
X147080000Y-62460000D03*
D15*
X167000000Y-83000000D03*
D16*
X167000000Y-85540000D03*
X167000000Y-88080000D03*
D25*
X144000000Y-106000000D03*
D26*
X146540000Y-106000000D03*
D27*
X166000000Y-106000000D03*
X124000000Y-106000000D03*
X166000000Y-64000000D03*
X124000000Y-64000000D03*
D28*
X154000000Y-72750000D03*
X146000000Y-68000000D03*
X131750000Y-76250000D03*
X134250000Y-70250000D03*
X136000000Y-75500000D03*
X162000000Y-76000000D03*
D29*
X146500000Y-90350000D02*
X146500000Y-91500000D01*
X147500000Y-92500000D02*
X147500000Y-94500000D01*
X146500000Y-91500000D02*
X147500000Y-92500000D01*
X143250000Y-69750000D02*
X144250000Y-69750000D01*
X144250000Y-69750000D02*
X146000000Y-68000000D01*
X146500000Y-90850000D02*
X146900000Y-90850000D01*
X146900000Y-90850000D02*
X148050000Y-89700000D01*
X148050000Y-89700000D02*
X149748860Y-89700000D01*
X156500000Y-76000000D02*
X156500000Y-75250000D01*
X156500000Y-75250000D02*
X154000000Y-72750000D01*
X150450000Y-72748860D02*
X153998860Y-72748860D01*
X153998860Y-72748860D02*
X154000000Y-72750000D01*
X151000000Y-69750000D02*
X151000000Y-72198860D01*
X151000000Y-72198860D02*
X150450000Y-72748860D01*
X134325000Y-76155000D02*
X131845000Y-76155000D01*
X131845000Y-76155000D02*
X131750000Y-76250000D01*
X144885000Y-80750000D02*
X145065000Y-95145000D01*
X145065000Y-95145000D02*
X144960000Y-95250000D01*
X140675000Y-73615000D02*
X143365000Y-73615000D01*
X144885000Y-75135000D02*
X144885000Y-80750000D01*
X143365000Y-73615000D02*
X144885000Y-75135000D01*
X140675000Y-73615000D02*
X139635000Y-73615000D01*
X144540000Y-65960000D02*
X144540000Y-65000000D01*
X143210000Y-67290000D02*
X144540000Y-65960000D01*
X139750000Y-67290000D02*
X143210000Y-67290000D01*
X138520000Y-68520000D02*
X139750000Y-67290000D01*
X138520000Y-72500000D02*
X138520000Y-68520000D01*
X139635000Y-73615000D02*
X138520000Y-72500000D01*
X134865000Y-80750000D02*
X134865000Y-79385000D01*
X142885000Y-74885000D02*
X140675000Y-74885000D01*
X143750000Y-75750000D02*
X142885000Y-74885000D01*
X143750000Y-77250000D02*
X143750000Y-75750000D01*
X142750000Y-78250000D02*
X143750000Y-77250000D01*
X136000000Y-78250000D02*
X142750000Y-78250000D01*
X134865000Y-79385000D02*
X136000000Y-78250000D01*
X138135000Y-74885000D02*
X140675000Y-74885000D01*
X137250000Y-74000000D02*
X138135000Y-74885000D01*
X138750000Y-65000000D02*
X137250000Y-66500000D01*
X142000000Y-65000000D02*
X138750000Y-65000000D01*
X137250000Y-66500000D02*
X137250000Y-74000000D01*
X134325000Y-72345000D02*
X129095000Y-72345000D01*
X127670000Y-70920000D02*
X124000000Y-70920000D01*
X129095000Y-72345000D02*
X127670000Y-70920000D01*
X134325000Y-70325000D02*
X134325000Y-72345000D01*
X134250000Y-70250000D02*
X134325000Y-70325000D01*
X147080000Y-65000000D02*
X151400000Y-65000000D01*
X134325000Y-74885000D02*
X130865000Y-74885000D01*
X130865000Y-74885000D02*
X123000000Y-82750000D01*
X123000000Y-82750000D02*
X123000000Y-82920000D01*
X167000000Y-88080000D02*
X165580000Y-88080000D01*
X135385000Y-74885000D02*
X134325000Y-74885000D01*
X136000000Y-75500000D02*
X135385000Y-74885000D01*
X164500000Y-79250000D02*
X162000000Y-76000000D01*
X164500000Y-85750000D02*
X164500000Y-79250000D01*
X165580000Y-88080000D02*
X164500000Y-85750000D01*
X134885000Y-74885000D02*
X134325000Y-74885000D01*
X144540000Y-62460000D02*
X143250000Y-63750000D01*
X143250000Y-63750000D02*
X138500000Y-63750000D01*
X138500000Y-63750000D02*
X136000000Y-66250000D01*
X136000000Y-66250000D02*
X136000000Y-74250000D01*
X136000000Y-74250000D02*
X137905000Y-76155000D01*
X137905000Y-76155000D02*
X140675000Y-76155000D01*
X134325000Y-73615000D02*
X124155000Y-73615000D01*
X124155000Y-73615000D02*
X124000000Y-73460000D01*
D30*
X153000000Y-96350000D02*
X151650000Y-96350000D01*
X143750000Y-104250000D02*
X143750000Y-106500000D01*
X151650000Y-96350000D02*
X143750000Y-104250000D01*
X142420000Y-94500000D02*
X142420000Y-105170000D01*
X142420000Y-105170000D02*
X143750000Y-106500000D01*
X153000000Y-96350000D02*
X154150000Y-96350000D01*
X154150000Y-96350000D02*
X154500000Y-96000000D01*
X154500000Y-96000000D02*
X154500000Y-82748860D01*
X154500000Y-82748860D02*
X152751140Y-81000000D01*
D29*
X154000000Y-76000000D02*
X149748860Y-76000000D01*
X149748860Y-76000000D02*
X149500000Y-75751140D01*
X148500000Y-69750000D02*
X148500000Y-68250000D01*
X152100000Y-67000000D02*
X154100000Y-65000000D01*
X149750000Y-67000000D02*
X152100000Y-67000000D01*
X148500000Y-68250000D02*
X149750000Y-67000000D01*
X148550000Y-72748860D02*
X148550000Y-69800000D01*
X148550000Y-69800000D02*
X148500000Y-69750000D01*
X148500000Y-69750000D02*
X146500000Y-69750000D01*
X143905000Y-72345000D02*
X140675000Y-72345000D01*
X146500000Y-69750000D02*
X143905000Y-72345000D01*
X140675000Y-72345000D02*
X140675000Y-69825000D01*
X140675000Y-69825000D02*
X140750000Y-69750000D01*
X149748860Y-87800000D02*
X146650000Y-87800000D01*
X146650000Y-87800000D02*
X146500000Y-87650000D01*
X146350000Y-85500000D02*
X146350000Y-88000000D01*
X146350000Y-88000000D02*
X146500000Y-88150000D01*
X152751140Y-88750000D02*
X152751140Y-93401140D01*
X152751140Y-93401140D02*
X153000000Y-93650000D01*
X149748860Y-80050000D02*
X150300000Y-80050000D01*
X150300000Y-80050000D02*
X151250000Y-81000000D01*
X151250000Y-81000000D02*
X151250000Y-85500000D01*
X151250000Y-85500000D02*
X152751140Y-87001140D01*
X152751140Y-87001140D02*
X152751140Y-88750000D01*
X141615000Y-80750000D02*
X141615000Y-82965000D01*
X141615000Y-82965000D02*
X143650000Y-85500000D01*
X138135000Y-80750000D02*
X141615000Y-80750000D01*
D31*
G36*
X163830485Y-60746950D02*
X162750741Y-61824811D01*
X162165667Y-63233825D01*
X162164336Y-64759482D01*
X162746950Y-66169515D01*
X163824811Y-67249259D01*
X165233825Y-67834333D01*
X166759482Y-67835664D01*
X168169515Y-67253050D01*
X169249259Y-66175189D01*
X169290000Y-66077074D01*
X169290000Y-103919911D01*
X169253050Y-103830485D01*
X168175189Y-102750741D01*
X166766175Y-102165667D01*
X165240518Y-102164336D01*
X163830485Y-102746950D01*
X162750741Y-103824811D01*
X162165667Y-105233825D01*
X162164336Y-106759482D01*
X162746950Y-108169515D01*
X163824811Y-109249259D01*
X163922926Y-109290000D01*
X126080089Y-109290000D01*
X126169515Y-109253050D01*
X127249259Y-108175189D01*
X127834333Y-106766175D01*
X127835664Y-105240518D01*
X127253050Y-103830485D01*
X126175189Y-102750741D01*
X124766175Y-102165667D01*
X123240518Y-102164336D01*
X121830485Y-102746950D01*
X120750741Y-103824811D01*
X120710000Y-103922926D01*
X120710000Y-87136400D01*
X121336560Y-87136400D01*
X121336560Y-88863600D01*
X121380838Y-89098917D01*
X121519910Y-89315041D01*
X121732110Y-89460031D01*
X121984000Y-89511040D01*
X124016000Y-89511040D01*
X124251317Y-89466762D01*
X124467441Y-89327690D01*
X124612431Y-89115490D01*
X124663440Y-88863600D01*
X124663440Y-87136400D01*
X124619162Y-86901083D01*
X124480090Y-86684959D01*
X124267890Y-86539969D01*
X124173073Y-86520768D01*
X124350732Y-86362036D01*
X124604709Y-85834791D01*
X124607358Y-85819026D01*
X124486217Y-85587000D01*
X123127000Y-85587000D01*
X123127000Y-85607000D01*
X122873000Y-85607000D01*
X122873000Y-85587000D01*
X121513783Y-85587000D01*
X121392642Y-85819026D01*
X121395291Y-85834791D01*
X121649268Y-86362036D01*
X121824845Y-86518907D01*
X121748683Y-86533238D01*
X121532559Y-86672310D01*
X121387569Y-86884510D01*
X121336560Y-87136400D01*
X120710000Y-87136400D01*
X120710000Y-82920000D01*
X121316655Y-82920000D01*
X121430729Y-83493489D01*
X121755585Y-83979670D01*
X122065069Y-84186461D01*
X121649268Y-84557964D01*
X121395291Y-85085209D01*
X121392642Y-85100974D01*
X121513783Y-85333000D01*
X122873000Y-85333000D01*
X122873000Y-85313000D01*
X123127000Y-85313000D01*
X123127000Y-85333000D01*
X124486217Y-85333000D01*
X124607358Y-85100974D01*
X124604709Y-85085209D01*
X124563664Y-85000000D01*
X128290000Y-85000000D01*
X128420166Y-85654389D01*
X128790847Y-86209153D01*
X129345611Y-86579834D01*
X130000000Y-86710000D01*
X130654389Y-86579834D01*
X131209153Y-86209153D01*
X131579834Y-85654389D01*
X131710000Y-85000000D01*
X131579834Y-84345611D01*
X131209153Y-83790847D01*
X130654389Y-83420166D01*
X130000000Y-83290000D01*
X129345611Y-83420166D01*
X128790847Y-83790847D01*
X128420166Y-84345611D01*
X128290000Y-85000000D01*
X124563664Y-85000000D01*
X124350732Y-84557964D01*
X123934931Y-84186461D01*
X124244415Y-83979670D01*
X124569271Y-83493489D01*
X124683345Y-82920000D01*
X124569271Y-82346511D01*
X124532830Y-82291972D01*
X130853196Y-75971606D01*
X130815162Y-76063201D01*
X130814838Y-76435167D01*
X130956883Y-76778943D01*
X131219673Y-77042192D01*
X131563201Y-77184838D01*
X131935167Y-77185162D01*
X132278943Y-77043117D01*
X132407284Y-76915000D01*
X133369260Y-76915000D01*
X133501610Y-77005431D01*
X133753500Y-77056440D01*
X134896500Y-77056440D01*
X135131817Y-77012162D01*
X135347941Y-76873090D01*
X135492931Y-76660890D01*
X135543940Y-76409000D01*
X135543940Y-76323031D01*
X135813201Y-76434838D01*
X136185167Y-76435162D01*
X136528943Y-76293117D01*
X136748821Y-76073623D01*
X137367599Y-76692401D01*
X137614161Y-76857148D01*
X137905000Y-76915000D01*
X139719260Y-76915000D01*
X139851610Y-77005431D01*
X140103500Y-77056440D01*
X141246500Y-77056440D01*
X141481817Y-77012162D01*
X141697941Y-76873090D01*
X141842931Y-76660890D01*
X141893940Y-76409000D01*
X141893940Y-75901000D01*
X141849662Y-75665683D01*
X141836353Y-75645000D01*
X142570198Y-75645000D01*
X142990000Y-76064802D01*
X142990000Y-76935198D01*
X142435198Y-77490000D01*
X136000000Y-77490000D01*
X135709160Y-77547852D01*
X135462599Y-77712599D01*
X134327599Y-78847599D01*
X134162852Y-79094161D01*
X134105000Y-79385000D01*
X134105000Y-79581678D01*
X133958559Y-79675910D01*
X133813569Y-79888110D01*
X133762560Y-80140000D01*
X133762560Y-81360000D01*
X133806838Y-81595317D01*
X133945910Y-81811441D01*
X134158110Y-81956431D01*
X134410000Y-82007440D01*
X135320000Y-82007440D01*
X135555317Y-81963162D01*
X135771441Y-81824090D01*
X135916431Y-81611890D01*
X135967440Y-81360000D01*
X135967440Y-80140000D01*
X135923162Y-79904683D01*
X135784090Y-79688559D01*
X135696257Y-79628545D01*
X136314802Y-79010000D01*
X142750000Y-79010000D01*
X143040839Y-78952148D01*
X143287401Y-78787401D01*
X144125000Y-77949802D01*
X144125000Y-79581678D01*
X143978559Y-79675910D01*
X143833569Y-79888110D01*
X143782560Y-80140000D01*
X143782560Y-81360000D01*
X143826838Y-81595317D01*
X143965910Y-81811441D01*
X144139698Y-81930185D01*
X144161860Y-83702560D01*
X143181672Y-83702560D01*
X142375000Y-82697689D01*
X142375000Y-81918322D01*
X142521441Y-81824090D01*
X142666431Y-81611890D01*
X142717440Y-81360000D01*
X142717440Y-80140000D01*
X142673162Y-79904683D01*
X142534090Y-79688559D01*
X142321890Y-79543569D01*
X142070000Y-79492560D01*
X141160000Y-79492560D01*
X140924683Y-79536838D01*
X140708559Y-79675910D01*
X140563569Y-79888110D01*
X140542936Y-79990000D01*
X139209216Y-79990000D01*
X139193162Y-79904683D01*
X139054090Y-79688559D01*
X138841890Y-79543569D01*
X138590000Y-79492560D01*
X137680000Y-79492560D01*
X137444683Y-79536838D01*
X137228559Y-79675910D01*
X137083569Y-79888110D01*
X137032560Y-80140000D01*
X137032560Y-81360000D01*
X137076838Y-81595317D01*
X137215910Y-81811441D01*
X137428110Y-81956431D01*
X137680000Y-82007440D01*
X138590000Y-82007440D01*
X138825317Y-81963162D01*
X139041441Y-81824090D01*
X139186431Y-81611890D01*
X139207064Y-81510000D01*
X140540784Y-81510000D01*
X140556838Y-81595317D01*
X140695910Y-81811441D01*
X140855000Y-81920143D01*
X140855000Y-82965000D01*
X140875996Y-83070552D01*
X140885386Y-83177748D01*
X140904695Y-83214830D01*
X140912852Y-83255839D01*
X140972640Y-83345318D01*
X141022339Y-83440765D01*
X142252560Y-84973252D01*
X142252560Y-85650000D01*
X142296838Y-85885317D01*
X142435910Y-86101441D01*
X142648110Y-86246431D01*
X142900000Y-86297440D01*
X144194307Y-86297440D01*
X144278157Y-93003129D01*
X143900330Y-93255585D01*
X143690000Y-93570366D01*
X143479670Y-93255585D01*
X142993489Y-92930729D01*
X142420000Y-92816655D01*
X141846511Y-92930729D01*
X141360330Y-93255585D01*
X141035474Y-93741766D01*
X140921400Y-94315255D01*
X140921400Y-94684745D01*
X141035474Y-95258234D01*
X141360330Y-95744415D01*
X141610000Y-95911239D01*
X141610000Y-105170000D01*
X141671658Y-105479974D01*
X141847244Y-105742756D01*
X142336560Y-106232072D01*
X142336560Y-107016000D01*
X142380838Y-107251317D01*
X142519910Y-107467441D01*
X142732110Y-107612431D01*
X142984000Y-107663440D01*
X145016000Y-107663440D01*
X145251317Y-107619162D01*
X145467441Y-107480090D01*
X145569198Y-107331163D01*
X145908190Y-107557670D01*
X146540000Y-107683345D01*
X147171810Y-107557670D01*
X147707433Y-107199778D01*
X148065325Y-106664155D01*
X148191000Y-106032345D01*
X148191000Y-105967655D01*
X148065325Y-105335845D01*
X147707433Y-104800222D01*
X147171810Y-104442330D01*
X146540000Y-104316655D01*
X145908190Y-104442330D01*
X145568208Y-104669499D01*
X145480090Y-104532559D01*
X145267890Y-104387569D01*
X145016000Y-104336560D01*
X144808952Y-104336560D01*
X151771645Y-97373868D01*
X151885910Y-97551441D01*
X152098110Y-97696431D01*
X152350000Y-97747440D01*
X153650000Y-97747440D01*
X153885317Y-97703162D01*
X154101441Y-97564090D01*
X154246431Y-97351890D01*
X154290968Y-97131960D01*
X154459974Y-97098342D01*
X154722756Y-96922756D01*
X155072757Y-96572756D01*
X155248343Y-96309973D01*
X155287636Y-96112431D01*
X155310000Y-96000000D01*
X155310000Y-85000000D01*
X158290000Y-85000000D01*
X158420166Y-85654389D01*
X158790847Y-86209153D01*
X159345611Y-86579834D01*
X160000000Y-86710000D01*
X160654389Y-86579834D01*
X161209153Y-86209153D01*
X161579834Y-85654389D01*
X161710000Y-85000000D01*
X161579834Y-84345611D01*
X161209153Y-83790847D01*
X160654389Y-83420166D01*
X160000000Y-83290000D01*
X159345611Y-83420166D01*
X158790847Y-83790847D01*
X158420166Y-84345611D01*
X158290000Y-85000000D01*
X155310000Y-85000000D01*
X155310000Y-82748860D01*
X155302220Y-82709748D01*
X155248343Y-82438887D01*
X155072757Y-82176104D01*
X154298621Y-81401969D01*
X154299010Y-81400050D01*
X154299010Y-80599950D01*
X154254732Y-80364633D01*
X154115660Y-80148509D01*
X153903460Y-80003519D01*
X153651570Y-79952510D01*
X151850710Y-79952510D01*
X151615393Y-79996788D01*
X151436624Y-80111822D01*
X151296730Y-79971928D01*
X151296730Y-79649950D01*
X151252452Y-79414633D01*
X151113380Y-79198509D01*
X150901180Y-79053519D01*
X150649290Y-79002510D01*
X148848430Y-79002510D01*
X148613113Y-79046788D01*
X148396989Y-79185860D01*
X148251999Y-79398060D01*
X148200990Y-79649950D01*
X148200990Y-80450050D01*
X148245268Y-80685367D01*
X148384340Y-80901491D01*
X148524089Y-80996977D01*
X148488731Y-81011623D01*
X148310103Y-81190252D01*
X148213430Y-81423641D01*
X148213430Y-81664250D01*
X148372180Y-81823000D01*
X149621860Y-81823000D01*
X149621860Y-81803000D01*
X149875860Y-81803000D01*
X149875860Y-81823000D01*
X149895860Y-81823000D01*
X149895860Y-82077000D01*
X149875860Y-82077000D01*
X149875860Y-82826300D01*
X150034610Y-82985050D01*
X150490000Y-82985050D01*
X150490000Y-85500000D01*
X150547852Y-85790839D01*
X150712599Y-86037401D01*
X151991140Y-87315942D01*
X151991140Y-87702510D01*
X151850710Y-87702510D01*
X151615393Y-87746788D01*
X151399269Y-87885860D01*
X151296730Y-88035931D01*
X151296730Y-87399950D01*
X151252452Y-87164633D01*
X151113380Y-86948509D01*
X150901180Y-86803519D01*
X150649290Y-86752510D01*
X148848430Y-86752510D01*
X148613113Y-86796788D01*
X148396989Y-86935860D01*
X148325833Y-87040000D01*
X147797440Y-87040000D01*
X147797440Y-86900000D01*
X147753162Y-86664683D01*
X147614090Y-86448559D01*
X147401890Y-86303569D01*
X147240798Y-86270947D01*
X147335317Y-86253162D01*
X147551441Y-86114090D01*
X147696431Y-85901890D01*
X147747440Y-85650000D01*
X147747440Y-84350000D01*
X147703162Y-84114683D01*
X147564090Y-83898559D01*
X147351890Y-83753569D01*
X147100000Y-83702560D01*
X145681980Y-83702560D01*
X145663639Y-82235750D01*
X148213430Y-82235750D01*
X148213430Y-82476359D01*
X148310103Y-82709748D01*
X148488731Y-82888377D01*
X148722120Y-82985050D01*
X149463110Y-82985050D01*
X149621860Y-82826300D01*
X149621860Y-82077000D01*
X148372180Y-82077000D01*
X148213430Y-82235750D01*
X145663639Y-82235750D01*
X145659552Y-81908958D01*
X145791441Y-81824090D01*
X145936431Y-81611890D01*
X145987440Y-81360000D01*
X145987440Y-80140000D01*
X145943162Y-79904683D01*
X145804090Y-79688559D01*
X145645000Y-79579857D01*
X145645000Y-76036890D01*
X148464950Y-76036890D01*
X148464950Y-76777880D01*
X148561623Y-77011269D01*
X148740252Y-77189897D01*
X148973641Y-77286570D01*
X149214250Y-77286570D01*
X149373000Y-77127820D01*
X149373000Y-75878140D01*
X149627000Y-75878140D01*
X149627000Y-77127820D01*
X149785750Y-77286570D01*
X150026359Y-77286570D01*
X150259748Y-77189897D01*
X150438377Y-77011269D01*
X150535050Y-76777880D01*
X150535050Y-76285750D01*
X152615000Y-76285750D01*
X152615000Y-76751310D01*
X152711673Y-76984699D01*
X152890302Y-77163327D01*
X153123691Y-77260000D01*
X153714250Y-77260000D01*
X153873000Y-77101250D01*
X153873000Y-76127000D01*
X152773750Y-76127000D01*
X152615000Y-76285750D01*
X150535050Y-76285750D01*
X150535050Y-76036890D01*
X150376300Y-75878140D01*
X149627000Y-75878140D01*
X149373000Y-75878140D01*
X148623700Y-75878140D01*
X148464950Y-76036890D01*
X145645000Y-76036890D01*
X145645000Y-75135000D01*
X145587148Y-74844161D01*
X145422401Y-74597599D01*
X143925687Y-73100885D01*
X144195839Y-73047148D01*
X144442401Y-72882401D01*
X146814802Y-70510000D01*
X147127962Y-70510000D01*
X147146838Y-70610317D01*
X147285910Y-70826441D01*
X147498110Y-70971431D01*
X147750000Y-71022440D01*
X147790000Y-71022440D01*
X147790000Y-71325467D01*
X147698509Y-71384340D01*
X147553519Y-71596540D01*
X147502510Y-71848430D01*
X147502510Y-73649290D01*
X147546788Y-73884607D01*
X147685860Y-74100731D01*
X147898060Y-74245721D01*
X148149950Y-74296730D01*
X148778042Y-74296730D01*
X148740252Y-74312383D01*
X148561623Y-74491011D01*
X148464950Y-74724400D01*
X148464950Y-75465390D01*
X148623700Y-75624140D01*
X149373000Y-75624140D01*
X149373000Y-74374460D01*
X149225297Y-74226757D01*
X149401491Y-74113380D01*
X149500632Y-73968283D01*
X149585860Y-74100731D01*
X149772918Y-74228542D01*
X149627000Y-74374460D01*
X149627000Y-75624140D01*
X150376300Y-75624140D01*
X150535050Y-75465390D01*
X150535050Y-75248690D01*
X152615000Y-75248690D01*
X152615000Y-75714250D01*
X152773750Y-75873000D01*
X153873000Y-75873000D01*
X153873000Y-74898750D01*
X153714250Y-74740000D01*
X153123691Y-74740000D01*
X152890302Y-74836673D01*
X152711673Y-75015301D01*
X152615000Y-75248690D01*
X150535050Y-75248690D01*
X150535050Y-74724400D01*
X150438377Y-74491011D01*
X150259748Y-74312383D01*
X150221958Y-74296730D01*
X150850050Y-74296730D01*
X151085367Y-74252452D01*
X151301491Y-74113380D01*
X151446481Y-73901180D01*
X151497490Y-73649290D01*
X151497490Y-73508860D01*
X153436399Y-73508860D01*
X153469673Y-73542192D01*
X153813201Y-73684838D01*
X153860077Y-73684879D01*
X154942697Y-74767499D01*
X154876309Y-74740000D01*
X154285750Y-74740000D01*
X154127000Y-74898750D01*
X154127000Y-75873000D01*
X154147000Y-75873000D01*
X154147000Y-76127000D01*
X154127000Y-76127000D01*
X154127000Y-77101250D01*
X154285750Y-77260000D01*
X154876309Y-77260000D01*
X155109698Y-77163327D01*
X155250936Y-77022090D01*
X155285910Y-77076441D01*
X155498110Y-77221431D01*
X155750000Y-77272440D01*
X157250000Y-77272440D01*
X157485317Y-77228162D01*
X157701441Y-77089090D01*
X157846431Y-76876890D01*
X157897440Y-76625000D01*
X157897440Y-76185167D01*
X161064838Y-76185167D01*
X161206883Y-76528943D01*
X161469673Y-76792192D01*
X161735422Y-76902541D01*
X163740000Y-79508492D01*
X163740000Y-85750000D01*
X163743113Y-85765649D01*
X163740650Y-85781410D01*
X163771933Y-85910538D01*
X163797852Y-86040839D01*
X163806714Y-86054102D01*
X163810471Y-86069610D01*
X164890472Y-88399610D01*
X164968790Y-88506937D01*
X165042599Y-88617401D01*
X165055864Y-88626264D01*
X165065268Y-88639152D01*
X165178704Y-88708343D01*
X165289161Y-88782148D01*
X165304806Y-88785260D01*
X165318428Y-88793569D01*
X165449698Y-88814081D01*
X165551574Y-88834346D01*
X165755585Y-89139670D01*
X166241766Y-89464526D01*
X166815255Y-89578600D01*
X167184745Y-89578600D01*
X167758234Y-89464526D01*
X168244415Y-89139670D01*
X168569271Y-88653489D01*
X168683345Y-88080000D01*
X168569271Y-87506511D01*
X168244415Y-87020330D01*
X167934931Y-86813539D01*
X168350732Y-86442036D01*
X168604709Y-85914791D01*
X168607358Y-85899026D01*
X168486217Y-85667000D01*
X167127000Y-85667000D01*
X167127000Y-85687000D01*
X166873000Y-85687000D01*
X166873000Y-85667000D01*
X165513783Y-85667000D01*
X165400116Y-85884711D01*
X165260000Y-85582425D01*
X165260000Y-82136400D01*
X165336560Y-82136400D01*
X165336560Y-83863600D01*
X165380838Y-84098917D01*
X165519910Y-84315041D01*
X165732110Y-84460031D01*
X165826927Y-84479232D01*
X165649268Y-84637964D01*
X165395291Y-85165209D01*
X165392642Y-85180974D01*
X165513783Y-85413000D01*
X166873000Y-85413000D01*
X166873000Y-85393000D01*
X167127000Y-85393000D01*
X167127000Y-85413000D01*
X168486217Y-85413000D01*
X168607358Y-85180974D01*
X168604709Y-85165209D01*
X168350732Y-84637964D01*
X168175155Y-84481093D01*
X168251317Y-84466762D01*
X168467441Y-84327690D01*
X168612431Y-84115490D01*
X168663440Y-83863600D01*
X168663440Y-82136400D01*
X168619162Y-81901083D01*
X168480090Y-81684959D01*
X168267890Y-81539969D01*
X168016000Y-81488960D01*
X165984000Y-81488960D01*
X165748683Y-81533238D01*
X165532559Y-81672310D01*
X165387569Y-81884510D01*
X165336560Y-82136400D01*
X165260000Y-82136400D01*
X165260000Y-79250000D01*
X165240517Y-79152055D01*
X165233867Y-79052419D01*
X165211840Y-79007888D01*
X165202148Y-78959161D01*
X165146669Y-78876130D01*
X165102394Y-78786620D01*
X162935028Y-75969044D01*
X162935162Y-75814833D01*
X162793117Y-75471057D01*
X162530327Y-75207808D01*
X162186799Y-75065162D01*
X161814833Y-75064838D01*
X161471057Y-75206883D01*
X161207808Y-75469673D01*
X161065162Y-75813201D01*
X161064838Y-76185167D01*
X157897440Y-76185167D01*
X157897440Y-75375000D01*
X157853162Y-75139683D01*
X157714090Y-74923559D01*
X157501890Y-74778569D01*
X157250000Y-74727560D01*
X157047398Y-74727560D01*
X157037401Y-74712599D01*
X154935122Y-72610320D01*
X154935162Y-72564833D01*
X154793117Y-72221057D01*
X154530327Y-71957808D01*
X154186799Y-71815162D01*
X153814833Y-71814838D01*
X153471057Y-71956883D01*
X153439024Y-71988860D01*
X151760000Y-71988860D01*
X151760000Y-71020558D01*
X151985317Y-70978162D01*
X152201441Y-70839090D01*
X152346431Y-70626890D01*
X152397440Y-70375000D01*
X152397440Y-69125000D01*
X152353162Y-68889683D01*
X152214090Y-68673559D01*
X152001890Y-68528569D01*
X151750000Y-68477560D01*
X150250000Y-68477560D01*
X150014683Y-68521838D01*
X149798559Y-68660910D01*
X149750866Y-68730711D01*
X149714090Y-68673559D01*
X149501890Y-68528569D01*
X149330866Y-68493936D01*
X150064802Y-67760000D01*
X152100000Y-67760000D01*
X152390839Y-67702148D01*
X152637401Y-67537401D01*
X153877362Y-66297440D01*
X154850000Y-66297440D01*
X155085317Y-66253162D01*
X155301441Y-66114090D01*
X155446431Y-65901890D01*
X155497440Y-65650000D01*
X155497440Y-64350000D01*
X155453162Y-64114683D01*
X155314090Y-63898559D01*
X155101890Y-63753569D01*
X154850000Y-63702560D01*
X153350000Y-63702560D01*
X153114683Y-63746838D01*
X152898559Y-63885910D01*
X152753569Y-64098110D01*
X152750919Y-64111197D01*
X152614090Y-63898559D01*
X152401890Y-63753569D01*
X152150000Y-63702560D01*
X150650000Y-63702560D01*
X150414683Y-63746838D01*
X150198559Y-63885910D01*
X150053569Y-64098110D01*
X150024836Y-64240000D01*
X148359520Y-64240000D01*
X148139670Y-63910971D01*
X147868828Y-63730000D01*
X148139670Y-63549029D01*
X148464526Y-63062848D01*
X148578600Y-62489359D01*
X148578600Y-62430641D01*
X148464526Y-61857152D01*
X148139670Y-61370971D01*
X147653489Y-61046115D01*
X147080000Y-60932041D01*
X146506511Y-61046115D01*
X146020330Y-61370971D01*
X145810000Y-61685752D01*
X145599670Y-61370971D01*
X145113489Y-61046115D01*
X144540000Y-60932041D01*
X143966511Y-61046115D01*
X143480330Y-61370971D01*
X143264336Y-61694228D01*
X143206821Y-61571510D01*
X142774947Y-61177312D01*
X142359026Y-61005042D01*
X142127000Y-61126183D01*
X142127000Y-62333000D01*
X142147000Y-62333000D01*
X142147000Y-62587000D01*
X142127000Y-62587000D01*
X142127000Y-62607000D01*
X141873000Y-62607000D01*
X141873000Y-62587000D01*
X140665531Y-62587000D01*
X140545032Y-62819027D01*
X140625163Y-62990000D01*
X138500000Y-62990000D01*
X138209161Y-63047852D01*
X137962599Y-63212599D01*
X135462599Y-65712599D01*
X135297852Y-65959161D01*
X135240000Y-66250000D01*
X135240000Y-71557163D01*
X135148390Y-71494569D01*
X135085000Y-71481732D01*
X135085000Y-70677234D01*
X135184838Y-70436799D01*
X135185162Y-70064833D01*
X135043117Y-69721057D01*
X134780327Y-69457808D01*
X134436799Y-69315162D01*
X134064833Y-69314838D01*
X133721057Y-69456883D01*
X133457808Y-69719673D01*
X133315162Y-70063201D01*
X133314838Y-70435167D01*
X133456883Y-70778943D01*
X133565000Y-70887249D01*
X133565000Y-71479029D01*
X133518183Y-71487838D01*
X133367189Y-71585000D01*
X129409802Y-71585000D01*
X128207401Y-70382599D01*
X127960839Y-70217852D01*
X127670000Y-70160000D01*
X125454496Y-70160000D01*
X125386462Y-69995345D01*
X124927073Y-69535154D01*
X124326547Y-69285794D01*
X123676306Y-69285226D01*
X123075345Y-69533538D01*
X122615154Y-69992927D01*
X122365794Y-70593453D01*
X122365226Y-71243694D01*
X122613538Y-71844655D01*
X122958480Y-72190199D01*
X122615154Y-72532927D01*
X122365794Y-73133453D01*
X122365226Y-73783694D01*
X122613538Y-74384655D01*
X122958480Y-74730199D01*
X122615154Y-75072927D01*
X122365794Y-75673453D01*
X122365226Y-76323694D01*
X122613538Y-76924655D01*
X123072927Y-77384846D01*
X123673453Y-77634206D01*
X124323694Y-77634774D01*
X124924655Y-77386462D01*
X125384846Y-76927073D01*
X125634206Y-76326547D01*
X125634774Y-75676306D01*
X125386462Y-75075345D01*
X125041520Y-74729801D01*
X125384846Y-74387073D01*
X125389859Y-74375000D01*
X130300198Y-74375000D01*
X123242341Y-81432857D01*
X123184745Y-81421400D01*
X122815255Y-81421400D01*
X122241766Y-81535474D01*
X121755585Y-81860330D01*
X121430729Y-82346511D01*
X121316655Y-82920000D01*
X120710000Y-82920000D01*
X120710000Y-66080089D01*
X120746950Y-66169515D01*
X121824811Y-67249259D01*
X123233825Y-67834333D01*
X124759482Y-67835664D01*
X126169515Y-67253050D01*
X127249259Y-66175189D01*
X127834333Y-64766175D01*
X127835664Y-63240518D01*
X127364814Y-62100973D01*
X140545032Y-62100973D01*
X140665531Y-62333000D01*
X141873000Y-62333000D01*
X141873000Y-61126183D01*
X141640974Y-61005042D01*
X141225053Y-61177312D01*
X140793179Y-61571510D01*
X140545032Y-62100973D01*
X127364814Y-62100973D01*
X127253050Y-61830485D01*
X126175189Y-60750741D01*
X126077074Y-60710000D01*
X163919911Y-60710000D01*
X163830485Y-60746950D01*
X163830485Y-60746950D01*
G37*
X163830485Y-60746950D02*
X162750741Y-61824811D01*
X162165667Y-63233825D01*
X162164336Y-64759482D01*
X162746950Y-66169515D01*
X163824811Y-67249259D01*
X165233825Y-67834333D01*
X166759482Y-67835664D01*
X168169515Y-67253050D01*
X169249259Y-66175189D01*
X169290000Y-66077074D01*
X169290000Y-103919911D01*
X169253050Y-103830485D01*
X168175189Y-102750741D01*
X166766175Y-102165667D01*
X165240518Y-102164336D01*
X163830485Y-102746950D01*
X162750741Y-103824811D01*
X162165667Y-105233825D01*
X162164336Y-106759482D01*
X162746950Y-108169515D01*
X163824811Y-109249259D01*
X163922926Y-109290000D01*
X126080089Y-109290000D01*
X126169515Y-109253050D01*
X127249259Y-108175189D01*
X127834333Y-106766175D01*
X127835664Y-105240518D01*
X127253050Y-103830485D01*
X126175189Y-102750741D01*
X124766175Y-102165667D01*
X123240518Y-102164336D01*
X121830485Y-102746950D01*
X120750741Y-103824811D01*
X120710000Y-103922926D01*
X120710000Y-87136400D01*
X121336560Y-87136400D01*
X121336560Y-88863600D01*
X121380838Y-89098917D01*
X121519910Y-89315041D01*
X121732110Y-89460031D01*
X121984000Y-89511040D01*
X124016000Y-89511040D01*
X124251317Y-89466762D01*
X124467441Y-89327690D01*
X124612431Y-89115490D01*
X124663440Y-88863600D01*
X124663440Y-87136400D01*
X124619162Y-86901083D01*
X124480090Y-86684959D01*
X124267890Y-86539969D01*
X124173073Y-86520768D01*
X124350732Y-86362036D01*
X124604709Y-85834791D01*
X124607358Y-85819026D01*
X124486217Y-85587000D01*
X123127000Y-85587000D01*
X123127000Y-85607000D01*
X122873000Y-85607000D01*
X122873000Y-85587000D01*
X121513783Y-85587000D01*
X121392642Y-85819026D01*
X121395291Y-85834791D01*
X121649268Y-86362036D01*
X121824845Y-86518907D01*
X121748683Y-86533238D01*
X121532559Y-86672310D01*
X121387569Y-86884510D01*
X121336560Y-87136400D01*
X120710000Y-87136400D01*
X120710000Y-82920000D01*
X121316655Y-82920000D01*
X121430729Y-83493489D01*
X121755585Y-83979670D01*
X122065069Y-84186461D01*
X121649268Y-84557964D01*
X121395291Y-85085209D01*
X121392642Y-85100974D01*
X121513783Y-85333000D01*
X122873000Y-85333000D01*
X122873000Y-85313000D01*
X123127000Y-85313000D01*
X123127000Y-85333000D01*
X124486217Y-85333000D01*
X124607358Y-85100974D01*
X124604709Y-85085209D01*
X124563664Y-85000000D01*
X128290000Y-85000000D01*
X128420166Y-85654389D01*
X128790847Y-86209153D01*
X129345611Y-86579834D01*
X130000000Y-86710000D01*
X130654389Y-86579834D01*
X131209153Y-86209153D01*
X131579834Y-85654389D01*
X131710000Y-85000000D01*
X131579834Y-84345611D01*
X131209153Y-83790847D01*
X130654389Y-83420166D01*
X130000000Y-83290000D01*
X129345611Y-83420166D01*
X128790847Y-83790847D01*
X128420166Y-84345611D01*
X128290000Y-85000000D01*
X124563664Y-85000000D01*
X124350732Y-84557964D01*
X123934931Y-84186461D01*
X124244415Y-83979670D01*
X124569271Y-83493489D01*
X124683345Y-82920000D01*
X124569271Y-82346511D01*
X124532830Y-82291972D01*
X130853196Y-75971606D01*
X130815162Y-76063201D01*
X130814838Y-76435167D01*
X130956883Y-76778943D01*
X131219673Y-77042192D01*
X131563201Y-77184838D01*
X131935167Y-77185162D01*
X132278943Y-77043117D01*
X132407284Y-76915000D01*
X133369260Y-76915000D01*
X133501610Y-77005431D01*
X133753500Y-77056440D01*
X134896500Y-77056440D01*
X135131817Y-77012162D01*
X135347941Y-76873090D01*
X135492931Y-76660890D01*
X135543940Y-76409000D01*
X135543940Y-76323031D01*
X135813201Y-76434838D01*
X136185167Y-76435162D01*
X136528943Y-76293117D01*
X136748821Y-76073623D01*
X137367599Y-76692401D01*
X137614161Y-76857148D01*
X137905000Y-76915000D01*
X139719260Y-76915000D01*
X139851610Y-77005431D01*
X140103500Y-77056440D01*
X141246500Y-77056440D01*
X141481817Y-77012162D01*
X141697941Y-76873090D01*
X141842931Y-76660890D01*
X141893940Y-76409000D01*
X141893940Y-75901000D01*
X141849662Y-75665683D01*
X141836353Y-75645000D01*
X142570198Y-75645000D01*
X142990000Y-76064802D01*
X142990000Y-76935198D01*
X142435198Y-77490000D01*
X136000000Y-77490000D01*
X135709160Y-77547852D01*
X135462599Y-77712599D01*
X134327599Y-78847599D01*
X134162852Y-79094161D01*
X134105000Y-79385000D01*
X134105000Y-79581678D01*
X133958559Y-79675910D01*
X133813569Y-79888110D01*
X133762560Y-80140000D01*
X133762560Y-81360000D01*
X133806838Y-81595317D01*
X133945910Y-81811441D01*
X134158110Y-81956431D01*
X134410000Y-82007440D01*
X135320000Y-82007440D01*
X135555317Y-81963162D01*
X135771441Y-81824090D01*
X135916431Y-81611890D01*
X135967440Y-81360000D01*
X135967440Y-80140000D01*
X135923162Y-79904683D01*
X135784090Y-79688559D01*
X135696257Y-79628545D01*
X136314802Y-79010000D01*
X142750000Y-79010000D01*
X143040839Y-78952148D01*
X143287401Y-78787401D01*
X144125000Y-77949802D01*
X144125000Y-79581678D01*
X143978559Y-79675910D01*
X143833569Y-79888110D01*
X143782560Y-80140000D01*
X143782560Y-81360000D01*
X143826838Y-81595317D01*
X143965910Y-81811441D01*
X144139698Y-81930185D01*
X144161860Y-83702560D01*
X143181672Y-83702560D01*
X142375000Y-82697689D01*
X142375000Y-81918322D01*
X142521441Y-81824090D01*
X142666431Y-81611890D01*
X142717440Y-81360000D01*
X142717440Y-80140000D01*
X142673162Y-79904683D01*
X142534090Y-79688559D01*
X142321890Y-79543569D01*
X142070000Y-79492560D01*
X141160000Y-79492560D01*
X140924683Y-79536838D01*
X140708559Y-79675910D01*
X140563569Y-79888110D01*
X140542936Y-79990000D01*
X139209216Y-79990000D01*
X139193162Y-79904683D01*
X139054090Y-79688559D01*
X138841890Y-79543569D01*
X138590000Y-79492560D01*
X137680000Y-79492560D01*
X137444683Y-79536838D01*
X137228559Y-79675910D01*
X137083569Y-79888110D01*
X137032560Y-80140000D01*
X137032560Y-81360000D01*
X137076838Y-81595317D01*
X137215910Y-81811441D01*
X137428110Y-81956431D01*
X137680000Y-82007440D01*
X138590000Y-82007440D01*
X138825317Y-81963162D01*
X139041441Y-81824090D01*
X139186431Y-81611890D01*
X139207064Y-81510000D01*
X140540784Y-81510000D01*
X140556838Y-81595317D01*
X140695910Y-81811441D01*
X140855000Y-81920143D01*
X140855000Y-82965000D01*
X140875996Y-83070552D01*
X140885386Y-83177748D01*
X140904695Y-83214830D01*
X140912852Y-83255839D01*
X140972640Y-83345318D01*
X141022339Y-83440765D01*
X142252560Y-84973252D01*
X142252560Y-85650000D01*
X142296838Y-85885317D01*
X142435910Y-86101441D01*
X142648110Y-86246431D01*
X142900000Y-86297440D01*
X144194307Y-86297440D01*
X144278157Y-93003129D01*
X143900330Y-93255585D01*
X143690000Y-93570366D01*
X143479670Y-93255585D01*
X142993489Y-92930729D01*
X142420000Y-92816655D01*
X141846511Y-92930729D01*
X141360330Y-93255585D01*
X141035474Y-93741766D01*
X140921400Y-94315255D01*
X140921400Y-94684745D01*
X141035474Y-95258234D01*
X141360330Y-95744415D01*
X141610000Y-95911239D01*
X141610000Y-105170000D01*
X141671658Y-105479974D01*
X141847244Y-105742756D01*
X142336560Y-106232072D01*
X142336560Y-107016000D01*
X142380838Y-107251317D01*
X142519910Y-107467441D01*
X142732110Y-107612431D01*
X142984000Y-107663440D01*
X145016000Y-107663440D01*
X145251317Y-107619162D01*
X145467441Y-107480090D01*
X145569198Y-107331163D01*
X145908190Y-107557670D01*
X146540000Y-107683345D01*
X147171810Y-107557670D01*
X147707433Y-107199778D01*
X148065325Y-106664155D01*
X148191000Y-106032345D01*
X148191000Y-105967655D01*
X148065325Y-105335845D01*
X147707433Y-104800222D01*
X147171810Y-104442330D01*
X146540000Y-104316655D01*
X145908190Y-104442330D01*
X145568208Y-104669499D01*
X145480090Y-104532559D01*
X145267890Y-104387569D01*
X145016000Y-104336560D01*
X144808952Y-104336560D01*
X151771645Y-97373868D01*
X151885910Y-97551441D01*
X152098110Y-97696431D01*
X152350000Y-97747440D01*
X153650000Y-97747440D01*
X153885317Y-97703162D01*
X154101441Y-97564090D01*
X154246431Y-97351890D01*
X154290968Y-97131960D01*
X154459974Y-97098342D01*
X154722756Y-96922756D01*
X155072757Y-96572756D01*
X155248343Y-96309973D01*
X155287636Y-96112431D01*
X155310000Y-96000000D01*
X155310000Y-85000000D01*
X158290000Y-85000000D01*
X158420166Y-85654389D01*
X158790847Y-86209153D01*
X159345611Y-86579834D01*
X160000000Y-86710000D01*
X160654389Y-86579834D01*
X161209153Y-86209153D01*
X161579834Y-85654389D01*
X161710000Y-85000000D01*
X161579834Y-84345611D01*
X161209153Y-83790847D01*
X160654389Y-83420166D01*
X160000000Y-83290000D01*
X159345611Y-83420166D01*
X158790847Y-83790847D01*
X158420166Y-84345611D01*
X158290000Y-85000000D01*
X155310000Y-85000000D01*
X155310000Y-82748860D01*
X155302220Y-82709748D01*
X155248343Y-82438887D01*
X155072757Y-82176104D01*
X154298621Y-81401969D01*
X154299010Y-81400050D01*
X154299010Y-80599950D01*
X154254732Y-80364633D01*
X154115660Y-80148509D01*
X153903460Y-80003519D01*
X153651570Y-79952510D01*
X151850710Y-79952510D01*
X151615393Y-79996788D01*
X151436624Y-80111822D01*
X151296730Y-79971928D01*
X151296730Y-79649950D01*
X151252452Y-79414633D01*
X151113380Y-79198509D01*
X150901180Y-79053519D01*
X150649290Y-79002510D01*
X148848430Y-79002510D01*
X148613113Y-79046788D01*
X148396989Y-79185860D01*
X148251999Y-79398060D01*
X148200990Y-79649950D01*
X148200990Y-80450050D01*
X148245268Y-80685367D01*
X148384340Y-80901491D01*
X148524089Y-80996977D01*
X148488731Y-81011623D01*
X148310103Y-81190252D01*
X148213430Y-81423641D01*
X148213430Y-81664250D01*
X148372180Y-81823000D01*
X149621860Y-81823000D01*
X149621860Y-81803000D01*
X149875860Y-81803000D01*
X149875860Y-81823000D01*
X149895860Y-81823000D01*
X149895860Y-82077000D01*
X149875860Y-82077000D01*
X149875860Y-82826300D01*
X150034610Y-82985050D01*
X150490000Y-82985050D01*
X150490000Y-85500000D01*
X150547852Y-85790839D01*
X150712599Y-86037401D01*
X151991140Y-87315942D01*
X151991140Y-87702510D01*
X151850710Y-87702510D01*
X151615393Y-87746788D01*
X151399269Y-87885860D01*
X151296730Y-88035931D01*
X151296730Y-87399950D01*
X151252452Y-87164633D01*
X151113380Y-86948509D01*
X150901180Y-86803519D01*
X150649290Y-86752510D01*
X148848430Y-86752510D01*
X148613113Y-86796788D01*
X148396989Y-86935860D01*
X148325833Y-87040000D01*
X147797440Y-87040000D01*
X147797440Y-86900000D01*
X147753162Y-86664683D01*
X147614090Y-86448559D01*
X147401890Y-86303569D01*
X147240798Y-86270947D01*
X147335317Y-86253162D01*
X147551441Y-86114090D01*
X147696431Y-85901890D01*
X147747440Y-85650000D01*
X147747440Y-84350000D01*
X147703162Y-84114683D01*
X147564090Y-83898559D01*
X147351890Y-83753569D01*
X147100000Y-83702560D01*
X145681980Y-83702560D01*
X145663639Y-82235750D01*
X148213430Y-82235750D01*
X148213430Y-82476359D01*
X148310103Y-82709748D01*
X148488731Y-82888377D01*
X148722120Y-82985050D01*
X149463110Y-82985050D01*
X149621860Y-82826300D01*
X149621860Y-82077000D01*
X148372180Y-82077000D01*
X148213430Y-82235750D01*
X145663639Y-82235750D01*
X145659552Y-81908958D01*
X145791441Y-81824090D01*
X145936431Y-81611890D01*
X145987440Y-81360000D01*
X145987440Y-80140000D01*
X145943162Y-79904683D01*
X145804090Y-79688559D01*
X145645000Y-79579857D01*
X145645000Y-76036890D01*
X148464950Y-76036890D01*
X148464950Y-76777880D01*
X148561623Y-77011269D01*
X148740252Y-77189897D01*
X148973641Y-77286570D01*
X149214250Y-77286570D01*
X149373000Y-77127820D01*
X149373000Y-75878140D01*
X149627000Y-75878140D01*
X149627000Y-77127820D01*
X149785750Y-77286570D01*
X150026359Y-77286570D01*
X150259748Y-77189897D01*
X150438377Y-77011269D01*
X150535050Y-76777880D01*
X150535050Y-76285750D01*
X152615000Y-76285750D01*
X152615000Y-76751310D01*
X152711673Y-76984699D01*
X152890302Y-77163327D01*
X153123691Y-77260000D01*
X153714250Y-77260000D01*
X153873000Y-77101250D01*
X153873000Y-76127000D01*
X152773750Y-76127000D01*
X152615000Y-76285750D01*
X150535050Y-76285750D01*
X150535050Y-76036890D01*
X150376300Y-75878140D01*
X149627000Y-75878140D01*
X149373000Y-75878140D01*
X148623700Y-75878140D01*
X148464950Y-76036890D01*
X145645000Y-76036890D01*
X145645000Y-75135000D01*
X145587148Y-74844161D01*
X145422401Y-74597599D01*
X143925687Y-73100885D01*
X144195839Y-73047148D01*
X144442401Y-72882401D01*
X146814802Y-70510000D01*
X147127962Y-70510000D01*
X147146838Y-70610317D01*
X147285910Y-70826441D01*
X147498110Y-70971431D01*
X147750000Y-71022440D01*
X147790000Y-71022440D01*
X147790000Y-71325467D01*
X147698509Y-71384340D01*
X147553519Y-71596540D01*
X147502510Y-71848430D01*
X147502510Y-73649290D01*
X147546788Y-73884607D01*
X147685860Y-74100731D01*
X147898060Y-74245721D01*
X148149950Y-74296730D01*
X148778042Y-74296730D01*
X148740252Y-74312383D01*
X148561623Y-74491011D01*
X148464950Y-74724400D01*
X148464950Y-75465390D01*
X148623700Y-75624140D01*
X149373000Y-75624140D01*
X149373000Y-74374460D01*
X149225297Y-74226757D01*
X149401491Y-74113380D01*
X149500632Y-73968283D01*
X149585860Y-74100731D01*
X149772918Y-74228542D01*
X149627000Y-74374460D01*
X149627000Y-75624140D01*
X150376300Y-75624140D01*
X150535050Y-75465390D01*
X150535050Y-75248690D01*
X152615000Y-75248690D01*
X152615000Y-75714250D01*
X152773750Y-75873000D01*
X153873000Y-75873000D01*
X153873000Y-74898750D01*
X153714250Y-74740000D01*
X153123691Y-74740000D01*
X152890302Y-74836673D01*
X152711673Y-75015301D01*
X152615000Y-75248690D01*
X150535050Y-75248690D01*
X150535050Y-74724400D01*
X150438377Y-74491011D01*
X150259748Y-74312383D01*
X150221958Y-74296730D01*
X150850050Y-74296730D01*
X151085367Y-74252452D01*
X151301491Y-74113380D01*
X151446481Y-73901180D01*
X151497490Y-73649290D01*
X151497490Y-73508860D01*
X153436399Y-73508860D01*
X153469673Y-73542192D01*
X153813201Y-73684838D01*
X153860077Y-73684879D01*
X154942697Y-74767499D01*
X154876309Y-74740000D01*
X154285750Y-74740000D01*
X154127000Y-74898750D01*
X154127000Y-75873000D01*
X154147000Y-75873000D01*
X154147000Y-76127000D01*
X154127000Y-76127000D01*
X154127000Y-77101250D01*
X154285750Y-77260000D01*
X154876309Y-77260000D01*
X155109698Y-77163327D01*
X155250936Y-77022090D01*
X155285910Y-77076441D01*
X155498110Y-77221431D01*
X155750000Y-77272440D01*
X157250000Y-77272440D01*
X157485317Y-77228162D01*
X157701441Y-77089090D01*
X157846431Y-76876890D01*
X157897440Y-76625000D01*
X157897440Y-76185167D01*
X161064838Y-76185167D01*
X161206883Y-76528943D01*
X161469673Y-76792192D01*
X161735422Y-76902541D01*
X163740000Y-79508492D01*
X163740000Y-85750000D01*
X163743113Y-85765649D01*
X163740650Y-85781410D01*
X163771933Y-85910538D01*
X163797852Y-86040839D01*
X163806714Y-86054102D01*
X163810471Y-86069610D01*
X164890472Y-88399610D01*
X164968790Y-88506937D01*
X165042599Y-88617401D01*
X165055864Y-88626264D01*
X165065268Y-88639152D01*
X165178704Y-88708343D01*
X165289161Y-88782148D01*
X165304806Y-88785260D01*
X165318428Y-88793569D01*
X165449698Y-88814081D01*
X165551574Y-88834346D01*
X165755585Y-89139670D01*
X166241766Y-89464526D01*
X166815255Y-89578600D01*
X167184745Y-89578600D01*
X167758234Y-89464526D01*
X168244415Y-89139670D01*
X168569271Y-88653489D01*
X168683345Y-88080000D01*
X168569271Y-87506511D01*
X168244415Y-87020330D01*
X167934931Y-86813539D01*
X168350732Y-86442036D01*
X168604709Y-85914791D01*
X168607358Y-85899026D01*
X168486217Y-85667000D01*
X167127000Y-85667000D01*
X167127000Y-85687000D01*
X166873000Y-85687000D01*
X166873000Y-85667000D01*
X165513783Y-85667000D01*
X165400116Y-85884711D01*
X165260000Y-85582425D01*
X165260000Y-82136400D01*
X165336560Y-82136400D01*
X165336560Y-83863600D01*
X165380838Y-84098917D01*
X165519910Y-84315041D01*
X165732110Y-84460031D01*
X165826927Y-84479232D01*
X165649268Y-84637964D01*
X165395291Y-85165209D01*
X165392642Y-85180974D01*
X165513783Y-85413000D01*
X166873000Y-85413000D01*
X166873000Y-85393000D01*
X167127000Y-85393000D01*
X167127000Y-85413000D01*
X168486217Y-85413000D01*
X168607358Y-85180974D01*
X168604709Y-85165209D01*
X168350732Y-84637964D01*
X168175155Y-84481093D01*
X168251317Y-84466762D01*
X168467441Y-84327690D01*
X168612431Y-84115490D01*
X168663440Y-83863600D01*
X168663440Y-82136400D01*
X168619162Y-81901083D01*
X168480090Y-81684959D01*
X168267890Y-81539969D01*
X168016000Y-81488960D01*
X165984000Y-81488960D01*
X165748683Y-81533238D01*
X165532559Y-81672310D01*
X165387569Y-81884510D01*
X165336560Y-82136400D01*
X165260000Y-82136400D01*
X165260000Y-79250000D01*
X165240517Y-79152055D01*
X165233867Y-79052419D01*
X165211840Y-79007888D01*
X165202148Y-78959161D01*
X165146669Y-78876130D01*
X165102394Y-78786620D01*
X162935028Y-75969044D01*
X162935162Y-75814833D01*
X162793117Y-75471057D01*
X162530327Y-75207808D01*
X162186799Y-75065162D01*
X161814833Y-75064838D01*
X161471057Y-75206883D01*
X161207808Y-75469673D01*
X161065162Y-75813201D01*
X161064838Y-76185167D01*
X157897440Y-76185167D01*
X157897440Y-75375000D01*
X157853162Y-75139683D01*
X157714090Y-74923559D01*
X157501890Y-74778569D01*
X157250000Y-74727560D01*
X157047398Y-74727560D01*
X157037401Y-74712599D01*
X154935122Y-72610320D01*
X154935162Y-72564833D01*
X154793117Y-72221057D01*
X154530327Y-71957808D01*
X154186799Y-71815162D01*
X153814833Y-71814838D01*
X153471057Y-71956883D01*
X153439024Y-71988860D01*
X151760000Y-71988860D01*
X151760000Y-71020558D01*
X151985317Y-70978162D01*
X152201441Y-70839090D01*
X152346431Y-70626890D01*
X152397440Y-70375000D01*
X152397440Y-69125000D01*
X152353162Y-68889683D01*
X152214090Y-68673559D01*
X152001890Y-68528569D01*
X151750000Y-68477560D01*
X150250000Y-68477560D01*
X150014683Y-68521838D01*
X149798559Y-68660910D01*
X149750866Y-68730711D01*
X149714090Y-68673559D01*
X149501890Y-68528569D01*
X149330866Y-68493936D01*
X150064802Y-67760000D01*
X152100000Y-67760000D01*
X152390839Y-67702148D01*
X152637401Y-67537401D01*
X153877362Y-66297440D01*
X154850000Y-66297440D01*
X155085317Y-66253162D01*
X155301441Y-66114090D01*
X155446431Y-65901890D01*
X155497440Y-65650000D01*
X155497440Y-64350000D01*
X155453162Y-64114683D01*
X155314090Y-63898559D01*
X155101890Y-63753569D01*
X154850000Y-63702560D01*
X153350000Y-63702560D01*
X153114683Y-63746838D01*
X152898559Y-63885910D01*
X152753569Y-64098110D01*
X152750919Y-64111197D01*
X152614090Y-63898559D01*
X152401890Y-63753569D01*
X152150000Y-63702560D01*
X150650000Y-63702560D01*
X150414683Y-63746838D01*
X150198559Y-63885910D01*
X150053569Y-64098110D01*
X150024836Y-64240000D01*
X148359520Y-64240000D01*
X148139670Y-63910971D01*
X147868828Y-63730000D01*
X148139670Y-63549029D01*
X148464526Y-63062848D01*
X148578600Y-62489359D01*
X148578600Y-62430641D01*
X148464526Y-61857152D01*
X148139670Y-61370971D01*
X147653489Y-61046115D01*
X147080000Y-60932041D01*
X146506511Y-61046115D01*
X146020330Y-61370971D01*
X145810000Y-61685752D01*
X145599670Y-61370971D01*
X145113489Y-61046115D01*
X144540000Y-60932041D01*
X143966511Y-61046115D01*
X143480330Y-61370971D01*
X143264336Y-61694228D01*
X143206821Y-61571510D01*
X142774947Y-61177312D01*
X142359026Y-61005042D01*
X142127000Y-61126183D01*
X142127000Y-62333000D01*
X142147000Y-62333000D01*
X142147000Y-62587000D01*
X142127000Y-62587000D01*
X142127000Y-62607000D01*
X141873000Y-62607000D01*
X141873000Y-62587000D01*
X140665531Y-62587000D01*
X140545032Y-62819027D01*
X140625163Y-62990000D01*
X138500000Y-62990000D01*
X138209161Y-63047852D01*
X137962599Y-63212599D01*
X135462599Y-65712599D01*
X135297852Y-65959161D01*
X135240000Y-66250000D01*
X135240000Y-71557163D01*
X135148390Y-71494569D01*
X135085000Y-71481732D01*
X135085000Y-70677234D01*
X135184838Y-70436799D01*
X135185162Y-70064833D01*
X135043117Y-69721057D01*
X134780327Y-69457808D01*
X134436799Y-69315162D01*
X134064833Y-69314838D01*
X133721057Y-69456883D01*
X133457808Y-69719673D01*
X133315162Y-70063201D01*
X133314838Y-70435167D01*
X133456883Y-70778943D01*
X133565000Y-70887249D01*
X133565000Y-71479029D01*
X133518183Y-71487838D01*
X133367189Y-71585000D01*
X129409802Y-71585000D01*
X128207401Y-70382599D01*
X127960839Y-70217852D01*
X127670000Y-70160000D01*
X125454496Y-70160000D01*
X125386462Y-69995345D01*
X124927073Y-69535154D01*
X124326547Y-69285794D01*
X123676306Y-69285226D01*
X123075345Y-69533538D01*
X122615154Y-69992927D01*
X122365794Y-70593453D01*
X122365226Y-71243694D01*
X122613538Y-71844655D01*
X122958480Y-72190199D01*
X122615154Y-72532927D01*
X122365794Y-73133453D01*
X122365226Y-73783694D01*
X122613538Y-74384655D01*
X122958480Y-74730199D01*
X122615154Y-75072927D01*
X122365794Y-75673453D01*
X122365226Y-76323694D01*
X122613538Y-76924655D01*
X123072927Y-77384846D01*
X123673453Y-77634206D01*
X124323694Y-77634774D01*
X124924655Y-77386462D01*
X125384846Y-76927073D01*
X125634206Y-76326547D01*
X125634774Y-75676306D01*
X125386462Y-75075345D01*
X125041520Y-74729801D01*
X125384846Y-74387073D01*
X125389859Y-74375000D01*
X130300198Y-74375000D01*
X123242341Y-81432857D01*
X123184745Y-81421400D01*
X122815255Y-81421400D01*
X122241766Y-81535474D01*
X121755585Y-81860330D01*
X121430729Y-82346511D01*
X121316655Y-82920000D01*
X120710000Y-82920000D01*
X120710000Y-66080089D01*
X120746950Y-66169515D01*
X121824811Y-67249259D01*
X123233825Y-67834333D01*
X124759482Y-67835664D01*
X126169515Y-67253050D01*
X127249259Y-66175189D01*
X127834333Y-64766175D01*
X127835664Y-63240518D01*
X127364814Y-62100973D01*
X140545032Y-62100973D01*
X140665531Y-62333000D01*
X141873000Y-62333000D01*
X141873000Y-61126183D01*
X141640974Y-61005042D01*
X141225053Y-61177312D01*
X140793179Y-61571510D01*
X140545032Y-62100973D01*
X127364814Y-62100973D01*
X127253050Y-61830485D01*
X126175189Y-60750741D01*
X126077074Y-60710000D01*
X163919911Y-60710000D01*
X163830485Y-60746950D01*
M02*
