%TF.GenerationSoftware,KiCad,Pcbnew,4.0.1-stable*%
%TF.CreationDate,2016-03-27T18:54:41+01:00*%
%TF.ProjectId,rc_power_sockets,72635F706F7765725F736F636B657473,rev?*%
%TF.FileFunction,Copper,L1,Top,Signal*%
%FSLAX46Y46*%
G04 Gerber Fmt 4.6, Leading zero omitted, Abs format (unit mm)*
G04 Created by KiCad (PCBNEW 4.0.1-stable) date 27/03/2016 18:54:41*
%MOMM*%
G01*
G04 APERTURE LIST*
%ADD10C,0.100000*%
%ADD11C,2.286000*%
%ADD12R,1.143000X0.508000*%
%ADD13R,3.657600X2.032000*%
%ADD14R,1.016000X2.032000*%
%ADD15C,6.400000*%
%ADD16R,0.800100X1.800860*%
%ADD17R,1.800860X0.800100*%
%ADD18R,1.727200X2.032000*%
%ADD19O,1.727200X2.032000*%
%ADD20R,2.032000X1.727200*%
%ADD21O,2.032000X1.727200*%
%ADD22R,1.250000X1.500000*%
%ADD23R,1.500000X1.250000*%
%ADD24R,1.500000X1.300000*%
%ADD25C,1.998980*%
%ADD26R,1.727200X1.727200*%
%ADD27O,1.727200X1.727200*%
%ADD28R,1.300000X1.500000*%
%ADD29R,1.220000X0.910000*%
%ADD30R,2.032000X2.032000*%
%ADD31O,2.032000X2.032000*%
%ADD32C,4.400000*%
%ADD33C,0.685800*%
%ADD34C,0.350000*%
%ADD35C,0.250000*%
%ADD36C,0.254000*%
G04 APERTURE END LIST*
D10*
D11*
X152000000Y-65380000D03*
X152000000Y-88240000D03*
D12*
X148175000Y-82095000D03*
X148175000Y-83365000D03*
X148175000Y-84635000D03*
X148175000Y-85905000D03*
X141825000Y-85905000D03*
X141825000Y-84635000D03*
X141825000Y-83365000D03*
X141825000Y-82095000D03*
D11*
X137000000Y-104620000D03*
X137000000Y-81760000D03*
D13*
X157750000Y-63948000D03*
D14*
X157750000Y-70552000D03*
X160036000Y-70552000D03*
X155464000Y-70552000D03*
D15*
X166000000Y-64000000D03*
D16*
X151450000Y-103998860D03*
X149550000Y-103998860D03*
X150500000Y-107001140D03*
D17*
X129498860Y-97050000D03*
X129498860Y-98950000D03*
X132501140Y-98000000D03*
D18*
X147500000Y-94900000D03*
D19*
X144960000Y-94900000D03*
X142420000Y-94900000D03*
D20*
X123000000Y-88000000D03*
D21*
X123000000Y-85460000D03*
X123000000Y-82920000D03*
D22*
X152750000Y-71000000D03*
X152750000Y-68500000D03*
X162750000Y-70750000D03*
X162750000Y-68250000D03*
D23*
X147750000Y-79000000D03*
X150250000Y-79000000D03*
D24*
X154650000Y-99000000D03*
X157350000Y-99000000D03*
X132350000Y-94000000D03*
X129650000Y-94000000D03*
X154650000Y-103000000D03*
X157350000Y-103000000D03*
X140650000Y-79000000D03*
X143350000Y-79000000D03*
D25*
X166000000Y-96460000D03*
X166000000Y-93920000D03*
X166000000Y-99000000D03*
D26*
X138500000Y-66600000D03*
D27*
X138500000Y-64060000D03*
X135960000Y-66600000D03*
X135960000Y-64060000D03*
X133420000Y-66600000D03*
X133420000Y-64060000D03*
D20*
X167000000Y-83000000D03*
D21*
X167000000Y-85540000D03*
X167000000Y-88080000D03*
D15*
X166000000Y-106000000D03*
X124000000Y-106000000D03*
X124000000Y-64000000D03*
D28*
X131400000Y-69650000D03*
X131400000Y-72350000D03*
D29*
X159000000Y-95035000D03*
X159000000Y-91765000D03*
X156000000Y-95035000D03*
X156000000Y-91765000D03*
X137000000Y-90385000D03*
X137000000Y-87115000D03*
D30*
X134500000Y-75900000D03*
D31*
X137040000Y-75900000D03*
D32*
X130500000Y-85000000D03*
X159500000Y-85000000D03*
D33*
X147500000Y-89900000D03*
X159100000Y-67700000D03*
X156400000Y-67700000D03*
X146500000Y-83400000D03*
X146500000Y-77100000D03*
X145500000Y-84500000D03*
X139500000Y-84700000D03*
X150200000Y-85700000D03*
X155300000Y-73600000D03*
X131500000Y-74650000D03*
D34*
X141825000Y-85905000D02*
X141825000Y-88225000D01*
X141825000Y-88225000D02*
X147500000Y-89900000D01*
X157700000Y-67700000D02*
X159100000Y-67700000D01*
X157750000Y-67700000D02*
X157700000Y-67700000D01*
X157700000Y-67700000D02*
X156400000Y-67700000D01*
X167000000Y-83000000D02*
X167000000Y-69900000D01*
X168900000Y-66900000D02*
X166000000Y-64000000D01*
X168900000Y-68000000D02*
X168900000Y-66900000D01*
X167000000Y-69900000D02*
X168900000Y-68000000D01*
X152000000Y-65380000D02*
X152020000Y-65380000D01*
X152020000Y-65380000D02*
X153452000Y-63948000D01*
X153452000Y-63948000D02*
X157750000Y-63948000D01*
X166000000Y-64000000D02*
X163000000Y-61000000D01*
X163000000Y-61000000D02*
X160698000Y-61000000D01*
X160698000Y-61000000D02*
X157750000Y-63948000D01*
X152750000Y-68500000D02*
X153198000Y-68500000D01*
X153198000Y-68500000D02*
X157750000Y-63948000D01*
X157750000Y-63948000D02*
X156952000Y-63948000D01*
X157750000Y-63948000D02*
X158252000Y-63948000D01*
X164100000Y-62100000D02*
X166000000Y-64000000D01*
X157750000Y-63948000D02*
X156848000Y-63948000D01*
X157750000Y-70552000D02*
X157750000Y-76250000D01*
X155000000Y-79000000D02*
X150250000Y-79000000D01*
X157750000Y-76250000D02*
X155000000Y-79000000D01*
X162750000Y-68250000D02*
X162052000Y-68250000D01*
X162052000Y-68250000D02*
X157750000Y-63948000D01*
X157750000Y-70552000D02*
X157750000Y-67700000D01*
X157750000Y-67700000D02*
X157750000Y-63948000D01*
X162750000Y-68250000D02*
X162750000Y-67250000D01*
X162750000Y-67250000D02*
X166000000Y-64000000D01*
X149550000Y-103998860D02*
X149550000Y-100750000D01*
X149550000Y-100750000D02*
X147500000Y-98700000D01*
X147500000Y-98700000D02*
X147500000Y-94900000D01*
X157350000Y-103000000D02*
X163000000Y-103000000D01*
X163000000Y-103000000D02*
X166000000Y-106000000D01*
D35*
X148175000Y-83365000D02*
X152465000Y-83365000D01*
X159000000Y-89900000D02*
X159000000Y-91765000D01*
X152465000Y-83365000D02*
X159000000Y-89900000D01*
X144960000Y-94900000D02*
X144960000Y-94440000D01*
X135960000Y-66600000D02*
X135960000Y-68960000D01*
X146865000Y-83365000D02*
X148175000Y-83365000D01*
X146500000Y-83400000D02*
X146865000Y-83365000D01*
X143600000Y-77000000D02*
X146500000Y-77100000D01*
X135960000Y-68960000D02*
X143600000Y-77000000D01*
X148175000Y-84635000D02*
X152235000Y-84635000D01*
X156000000Y-88400000D02*
X156000000Y-91765000D01*
X152235000Y-84635000D02*
X156000000Y-88400000D01*
X148175000Y-84635000D02*
X145635000Y-84635000D01*
X145635000Y-84635000D02*
X145500000Y-84500000D01*
X133420000Y-66600000D02*
X133420000Y-69320000D01*
X140650000Y-76550000D02*
X140650000Y-79000000D01*
X133420000Y-69320000D02*
X140650000Y-76550000D01*
X141825000Y-82095000D02*
X141825000Y-81325000D01*
X140650000Y-80150000D02*
X140650000Y-79000000D01*
X141825000Y-81325000D02*
X140650000Y-80150000D01*
X141825000Y-84635000D02*
X139565000Y-84635000D01*
X139565000Y-84635000D02*
X139500000Y-84700000D01*
X150200000Y-85700000D02*
X150100000Y-85700000D01*
X150100000Y-85700000D02*
X150200000Y-85700000D01*
X141825000Y-84635000D02*
X143035000Y-84635000D01*
X150200000Y-85700000D02*
X150200000Y-85700000D01*
X150100000Y-85700000D02*
X150200000Y-85700000D01*
X149300000Y-87100000D02*
X150100000Y-85700000D01*
X148600000Y-87100000D02*
X149300000Y-87100000D01*
X143900000Y-87100000D02*
X148600000Y-87100000D01*
X143400000Y-86600000D02*
X143900000Y-87100000D01*
X143400000Y-85000000D02*
X143400000Y-86600000D01*
X143035000Y-84635000D02*
X143400000Y-85000000D01*
X135960000Y-64060000D02*
X135960000Y-63460000D01*
X135960000Y-63460000D02*
X134900000Y-62400000D01*
X131400000Y-63200000D02*
X131400000Y-69650000D01*
X132200000Y-62400000D02*
X131400000Y-63200000D01*
X134900000Y-62400000D02*
X132200000Y-62400000D01*
X135960000Y-64060000D02*
X135960000Y-64140000D01*
X135960000Y-64140000D02*
X134700000Y-65400000D01*
X135960000Y-64140000D02*
X134700000Y-65400000D01*
X134700000Y-65400000D02*
X134700000Y-69300000D01*
X134700000Y-69300000D02*
X142000000Y-76600000D01*
X142000000Y-76600000D02*
X142000000Y-80000000D01*
X142000000Y-80000000D02*
X144100000Y-82100000D01*
X144100000Y-82100000D02*
X144100000Y-85400000D01*
X144100000Y-85400000D02*
X144605000Y-85905000D01*
X144605000Y-85905000D02*
X148175000Y-85905000D01*
X141825000Y-83365000D02*
X138835000Y-83365000D01*
X163360000Y-96460000D02*
X166000000Y-96460000D01*
X160300000Y-93400000D02*
X163360000Y-96460000D01*
X150800000Y-93400000D02*
X160300000Y-93400000D01*
X149200000Y-91800000D02*
X150800000Y-93400000D01*
X143200000Y-91800000D02*
X149200000Y-91800000D01*
X139600000Y-88200000D02*
X143200000Y-91800000D01*
X139600000Y-86900000D02*
X139600000Y-88200000D01*
X138300000Y-85600000D02*
X139600000Y-86900000D01*
X138300000Y-83900000D02*
X138300000Y-85600000D01*
X138835000Y-83365000D02*
X138300000Y-83900000D01*
X123000000Y-85460000D02*
X124260000Y-85460000D01*
X127850000Y-98950000D02*
X129498860Y-98950000D01*
X126800000Y-97900000D02*
X127850000Y-98950000D01*
X126800000Y-88000000D02*
X126800000Y-97900000D01*
X124260000Y-85460000D02*
X126800000Y-88000000D01*
X123000000Y-85460000D02*
X123340000Y-85460000D01*
X123340000Y-85460000D02*
X124500000Y-84300000D01*
X125600000Y-83100000D02*
X125600000Y-83070000D01*
X125570000Y-83100000D02*
X125600000Y-83100000D01*
X124500000Y-84300000D02*
X125570000Y-83100000D01*
X155464000Y-73436000D02*
X155464000Y-70552000D01*
X155300000Y-73600000D02*
X155464000Y-73436000D01*
X152750000Y-71000000D02*
X146600000Y-71000000D01*
X139660000Y-64060000D02*
X138500000Y-64060000D01*
X146600000Y-71000000D02*
X139660000Y-64060000D01*
X152750000Y-71000000D02*
X155016000Y-71000000D01*
X155016000Y-71000000D02*
X155464000Y-70552000D01*
X125600000Y-83070000D02*
X129700000Y-79300000D01*
X129700000Y-79300000D02*
X129600000Y-62800000D01*
X129600000Y-62800000D02*
X131150000Y-61550000D01*
X131150000Y-61550000D02*
X137650000Y-61550000D01*
X137650000Y-61550000D02*
X138500000Y-62500000D01*
X138500000Y-62500000D02*
X138500000Y-64060000D01*
D34*
X162750000Y-70750000D02*
X162750000Y-78350000D01*
X164100000Y-92020000D02*
X166000000Y-93920000D01*
X164100000Y-79700000D02*
X164100000Y-92020000D01*
X162750000Y-78350000D02*
X164100000Y-79700000D01*
X160036000Y-70552000D02*
X160036000Y-78564000D01*
X156505000Y-82095000D02*
X148175000Y-82095000D01*
X160036000Y-78564000D02*
X156505000Y-82095000D01*
X162750000Y-70750000D02*
X160234000Y-70750000D01*
X160234000Y-70750000D02*
X160036000Y-70552000D01*
X147750000Y-79000000D02*
X147750000Y-81670000D01*
X147750000Y-81670000D02*
X148175000Y-82095000D01*
X147750000Y-79000000D02*
X143350000Y-79000000D01*
D35*
X151450000Y-103998860D02*
X153651140Y-103998860D01*
X153651140Y-103998860D02*
X154650000Y-103000000D01*
X154000000Y-98350000D02*
X154000000Y-102350000D01*
X154000000Y-102350000D02*
X154650000Y-103000000D01*
X129498860Y-97050000D02*
X130050000Y-97050000D01*
X130050000Y-97050000D02*
X131000000Y-98000000D01*
X147001140Y-107001140D02*
X150500000Y-107001140D01*
X141000000Y-101000000D02*
X147001140Y-107001140D01*
X132000000Y-101000000D02*
X141000000Y-101000000D01*
X131000000Y-100000000D02*
X132000000Y-101000000D01*
X131000000Y-98000000D02*
X131000000Y-100000000D01*
X129498860Y-97050000D02*
X129498860Y-94151140D01*
X129498860Y-94151140D02*
X129650000Y-94000000D01*
X157000000Y-98650000D02*
X157350000Y-99000000D01*
X157000000Y-98650000D02*
X157350000Y-99000000D01*
X157000000Y-98650000D02*
X157350000Y-99000000D01*
D34*
X132350000Y-94000000D02*
X132350000Y-97848860D01*
X132350000Y-97848860D02*
X132501140Y-98000000D01*
X142420000Y-94900000D02*
X142420000Y-92920000D01*
X139885000Y-90385000D02*
X137000000Y-90385000D01*
X142420000Y-92920000D02*
X139885000Y-90385000D01*
X137000000Y-90385000D02*
X137000000Y-92000000D01*
X135000000Y-94000000D02*
X132350000Y-94000000D01*
X137000000Y-92000000D02*
X135000000Y-94000000D01*
D35*
X142500000Y-94580000D02*
X142420000Y-94500000D01*
X131400000Y-72350000D02*
X131400000Y-74550000D01*
X131400000Y-74550000D02*
X131500000Y-74650000D01*
X137040000Y-75900000D02*
X137040000Y-81720000D01*
X137040000Y-81720000D02*
X137000000Y-81760000D01*
X136750000Y-81510000D02*
X137000000Y-81760000D01*
X137000000Y-87115000D02*
X137000000Y-81760000D01*
D36*
G36*
X121849754Y-60734181D02*
X121805640Y-60763657D01*
X121438695Y-61259090D01*
X124000000Y-63820395D01*
X126561305Y-61259090D01*
X126194360Y-60763657D01*
X126067266Y-60710000D01*
X163909271Y-60710000D01*
X163849754Y-60734181D01*
X163805640Y-60763657D01*
X163438695Y-61259090D01*
X166000000Y-63820395D01*
X168561305Y-61259090D01*
X168194360Y-60763657D01*
X168067266Y-60710000D01*
X169290000Y-60710000D01*
X169290000Y-61909271D01*
X169265819Y-61849754D01*
X169236343Y-61805640D01*
X168740910Y-61438695D01*
X166179605Y-64000000D01*
X168740910Y-66561305D01*
X169236343Y-66194360D01*
X169290000Y-66067266D01*
X169290000Y-103909271D01*
X169265819Y-103849754D01*
X169236343Y-103805640D01*
X168740910Y-103438695D01*
X166179605Y-106000000D01*
X168740910Y-108561305D01*
X169236343Y-108194360D01*
X169290000Y-108067266D01*
X169290000Y-109290000D01*
X168090729Y-109290000D01*
X168150246Y-109265819D01*
X168194360Y-109236343D01*
X168561305Y-108740910D01*
X166000000Y-106179605D01*
X163438695Y-108740910D01*
X163805640Y-109236343D01*
X163932734Y-109290000D01*
X126090729Y-109290000D01*
X126150246Y-109265819D01*
X126194360Y-109236343D01*
X126561305Y-108740910D01*
X124000000Y-106179605D01*
X121438695Y-108740910D01*
X121805640Y-109236343D01*
X121932734Y-109290000D01*
X120710000Y-109290000D01*
X120710000Y-108090729D01*
X120734181Y-108150246D01*
X120763657Y-108194360D01*
X121259090Y-108561305D01*
X123820395Y-106000000D01*
X124179605Y-106000000D01*
X126740910Y-108561305D01*
X127236343Y-108194360D01*
X127829736Y-106788829D01*
X127840087Y-105263207D01*
X127729223Y-104990334D01*
X135129677Y-104990334D01*
X135413767Y-105677886D01*
X135939347Y-106204384D01*
X136626402Y-106489674D01*
X137370334Y-106490323D01*
X138057886Y-106206233D01*
X138584384Y-105680653D01*
X138869674Y-104993598D01*
X138870323Y-104249666D01*
X138586233Y-103562114D01*
X138060653Y-103035616D01*
X137373598Y-102750326D01*
X136629666Y-102749677D01*
X135942114Y-103033767D01*
X135415616Y-103559347D01*
X135130326Y-104246402D01*
X135129677Y-104990334D01*
X127729223Y-104990334D01*
X127265819Y-103849754D01*
X127236343Y-103805640D01*
X126740910Y-103438695D01*
X124179605Y-106000000D01*
X123820395Y-106000000D01*
X121259090Y-103438695D01*
X120763657Y-103805640D01*
X120710000Y-103932734D01*
X120710000Y-103259090D01*
X121438695Y-103259090D01*
X124000000Y-105820395D01*
X126561305Y-103259090D01*
X126194360Y-102763657D01*
X124788829Y-102170264D01*
X123263207Y-102159913D01*
X121849754Y-102734181D01*
X121805640Y-102763657D01*
X121438695Y-103259090D01*
X120710000Y-103259090D01*
X120710000Y-88285750D01*
X121349000Y-88285750D01*
X121349000Y-88989909D01*
X121445673Y-89223298D01*
X121624301Y-89401927D01*
X121857690Y-89498600D01*
X122714250Y-89498600D01*
X122873000Y-89339850D01*
X122873000Y-88127000D01*
X123127000Y-88127000D01*
X123127000Y-89339850D01*
X123285750Y-89498600D01*
X124142310Y-89498600D01*
X124375699Y-89401927D01*
X124554327Y-89223298D01*
X124651000Y-88989909D01*
X124651000Y-88285750D01*
X124492250Y-88127000D01*
X123127000Y-88127000D01*
X122873000Y-88127000D01*
X121507750Y-88127000D01*
X121349000Y-88285750D01*
X120710000Y-88285750D01*
X120710000Y-82920000D01*
X121316655Y-82920000D01*
X121430729Y-83493489D01*
X121755585Y-83979670D01*
X122070366Y-84190000D01*
X121755585Y-84400330D01*
X121430729Y-84886511D01*
X121316655Y-85460000D01*
X121430729Y-86033489D01*
X121755585Y-86519670D01*
X121777780Y-86534500D01*
X121624301Y-86598073D01*
X121445673Y-86776702D01*
X121349000Y-87010091D01*
X121349000Y-87714250D01*
X121507750Y-87873000D01*
X122873000Y-87873000D01*
X122873000Y-87853000D01*
X123127000Y-87853000D01*
X123127000Y-87873000D01*
X124492250Y-87873000D01*
X124651000Y-87714250D01*
X124651000Y-87010091D01*
X124591399Y-86866201D01*
X126040000Y-88314802D01*
X126040000Y-97900000D01*
X126097852Y-98190839D01*
X126262599Y-98437401D01*
X127312599Y-99487401D01*
X127559160Y-99652148D01*
X127850000Y-99710000D01*
X128075467Y-99710000D01*
X128134340Y-99801491D01*
X128346540Y-99946481D01*
X128598430Y-99997490D01*
X130240000Y-99997490D01*
X130240000Y-100000000D01*
X130297852Y-100290839D01*
X130462599Y-100537401D01*
X131462599Y-101537401D01*
X131709161Y-101702148D01*
X132000000Y-101760000D01*
X140685198Y-101760000D01*
X146463739Y-107538541D01*
X146710301Y-107703288D01*
X147001140Y-107761140D01*
X149452510Y-107761140D01*
X149452510Y-107901570D01*
X149496788Y-108136887D01*
X149635860Y-108353011D01*
X149848060Y-108498001D01*
X150099950Y-108549010D01*
X150900050Y-108549010D01*
X151135367Y-108504732D01*
X151351491Y-108365660D01*
X151496481Y-108153460D01*
X151547490Y-107901570D01*
X151547490Y-106736793D01*
X162159913Y-106736793D01*
X162734181Y-108150246D01*
X162763657Y-108194360D01*
X163259090Y-108561305D01*
X165820395Y-106000000D01*
X163259090Y-103438695D01*
X162763657Y-103805640D01*
X162170264Y-105211171D01*
X162159913Y-106736793D01*
X151547490Y-106736793D01*
X151547490Y-106100710D01*
X151503212Y-105865393D01*
X151364140Y-105649269D01*
X151214069Y-105546730D01*
X151850050Y-105546730D01*
X152085367Y-105502452D01*
X152301491Y-105363380D01*
X152446481Y-105151180D01*
X152497490Y-104899290D01*
X152497490Y-104758860D01*
X153651140Y-104758860D01*
X153941979Y-104701008D01*
X154188541Y-104536261D01*
X154427362Y-104297440D01*
X155400000Y-104297440D01*
X155635317Y-104253162D01*
X155851441Y-104114090D01*
X155996431Y-103901890D01*
X156003191Y-103868510D01*
X156061673Y-104009699D01*
X156240302Y-104188327D01*
X156473691Y-104285000D01*
X157064250Y-104285000D01*
X157223000Y-104126250D01*
X157223000Y-103127000D01*
X157477000Y-103127000D01*
X157477000Y-104126250D01*
X157635750Y-104285000D01*
X158226309Y-104285000D01*
X158459698Y-104188327D01*
X158638327Y-104009699D01*
X158735000Y-103776310D01*
X158735000Y-103285750D01*
X158708340Y-103259090D01*
X163438695Y-103259090D01*
X166000000Y-105820395D01*
X168561305Y-103259090D01*
X168194360Y-102763657D01*
X166788829Y-102170264D01*
X165263207Y-102159913D01*
X163849754Y-102734181D01*
X163805640Y-102763657D01*
X163438695Y-103259090D01*
X158708340Y-103259090D01*
X158576250Y-103127000D01*
X157477000Y-103127000D01*
X157223000Y-103127000D01*
X157203000Y-103127000D01*
X157203000Y-102873000D01*
X157223000Y-102873000D01*
X157223000Y-101873750D01*
X157477000Y-101873750D01*
X157477000Y-102873000D01*
X158576250Y-102873000D01*
X158735000Y-102714250D01*
X158735000Y-102223690D01*
X158638327Y-101990301D01*
X158459698Y-101811673D01*
X158226309Y-101715000D01*
X157635750Y-101715000D01*
X157477000Y-101873750D01*
X157223000Y-101873750D01*
X157064250Y-101715000D01*
X156473691Y-101715000D01*
X156240302Y-101811673D01*
X156061673Y-101990301D01*
X156005346Y-102126287D01*
X156003162Y-102114683D01*
X155864090Y-101898559D01*
X155651890Y-101753569D01*
X155400000Y-101702560D01*
X154760000Y-101702560D01*
X154760000Y-100297440D01*
X155400000Y-100297440D01*
X155635317Y-100253162D01*
X155851441Y-100114090D01*
X155996431Y-99901890D01*
X155999081Y-99888803D01*
X156135910Y-100101441D01*
X156348110Y-100246431D01*
X156600000Y-100297440D01*
X158100000Y-100297440D01*
X158335317Y-100253162D01*
X158492273Y-100152163D01*
X165027443Y-100152163D01*
X165126042Y-100418965D01*
X165735582Y-100645401D01*
X166385377Y-100621341D01*
X166873958Y-100418965D01*
X166972557Y-100152163D01*
X166000000Y-99179605D01*
X165027443Y-100152163D01*
X158492273Y-100152163D01*
X158551441Y-100114090D01*
X158696431Y-99901890D01*
X158747440Y-99650000D01*
X158747440Y-98735582D01*
X164354599Y-98735582D01*
X164378659Y-99385377D01*
X164581035Y-99873958D01*
X164847837Y-99972557D01*
X165820395Y-99000000D01*
X166179605Y-99000000D01*
X167152163Y-99972557D01*
X167418965Y-99873958D01*
X167645401Y-99264418D01*
X167621341Y-98614623D01*
X167418965Y-98126042D01*
X167152163Y-98027443D01*
X166179605Y-99000000D01*
X165820395Y-99000000D01*
X164847837Y-98027443D01*
X164581035Y-98126042D01*
X164354599Y-98735582D01*
X158747440Y-98735582D01*
X158747440Y-98350000D01*
X158703162Y-98114683D01*
X158564090Y-97898559D01*
X158351890Y-97753569D01*
X158100000Y-97702560D01*
X156600000Y-97702560D01*
X156364683Y-97746838D01*
X156148559Y-97885910D01*
X156003569Y-98098110D01*
X156000919Y-98111197D01*
X155864090Y-97898559D01*
X155651890Y-97753569D01*
X155400000Y-97702560D01*
X154372716Y-97702560D01*
X154290839Y-97647852D01*
X154000000Y-97590000D01*
X153709161Y-97647852D01*
X153462599Y-97812599D01*
X153297852Y-98059161D01*
X153240000Y-98350000D01*
X153240000Y-102350000D01*
X153252560Y-102413143D01*
X153252560Y-103238860D01*
X152497490Y-103238860D01*
X152497490Y-103098430D01*
X152453212Y-102863113D01*
X152314140Y-102646989D01*
X152101940Y-102501999D01*
X151850050Y-102450990D01*
X151049950Y-102450990D01*
X150814633Y-102495268D01*
X150598509Y-102634340D01*
X150503023Y-102774089D01*
X150488377Y-102738731D01*
X150309748Y-102560103D01*
X150076359Y-102463430D01*
X149835750Y-102463430D01*
X149677000Y-102622180D01*
X149677000Y-103871860D01*
X149697000Y-103871860D01*
X149697000Y-104125860D01*
X149677000Y-104125860D01*
X149677000Y-105375540D01*
X149824703Y-105523243D01*
X149648509Y-105636620D01*
X149503519Y-105848820D01*
X149452510Y-106100710D01*
X149452510Y-106241140D01*
X147315942Y-106241140D01*
X145359412Y-104284610D01*
X148514950Y-104284610D01*
X148514950Y-105025600D01*
X148611623Y-105258989D01*
X148790252Y-105437617D01*
X149023641Y-105534290D01*
X149264250Y-105534290D01*
X149423000Y-105375540D01*
X149423000Y-104125860D01*
X148673700Y-104125860D01*
X148514950Y-104284610D01*
X145359412Y-104284610D01*
X144046922Y-102972120D01*
X148514950Y-102972120D01*
X148514950Y-103713110D01*
X148673700Y-103871860D01*
X149423000Y-103871860D01*
X149423000Y-102622180D01*
X149264250Y-102463430D01*
X149023641Y-102463430D01*
X148790252Y-102560103D01*
X148611623Y-102738731D01*
X148514950Y-102972120D01*
X144046922Y-102972120D01*
X141537401Y-100462599D01*
X141290839Y-100297852D01*
X141000000Y-100240000D01*
X132314802Y-100240000D01*
X131760000Y-99685198D01*
X131760000Y-99047490D01*
X133401570Y-99047490D01*
X133636887Y-99003212D01*
X133853011Y-98864140D01*
X133998001Y-98651940D01*
X134049010Y-98400050D01*
X134049010Y-97599950D01*
X134004732Y-97364633D01*
X133865660Y-97148509D01*
X133653460Y-97003519D01*
X133401570Y-96952510D01*
X133160000Y-96952510D01*
X133160000Y-95286150D01*
X133335317Y-95253162D01*
X133551441Y-95114090D01*
X133696431Y-94901890D01*
X133715039Y-94810000D01*
X135000000Y-94810000D01*
X135309974Y-94748342D01*
X135572756Y-94572756D01*
X137572756Y-92572757D01*
X137660549Y-92441365D01*
X137748342Y-92309974D01*
X137810000Y-92000000D01*
X137810000Y-91449807D01*
X137845317Y-91443162D01*
X138061441Y-91304090D01*
X138135979Y-91195000D01*
X139549488Y-91195000D01*
X141610000Y-93255513D01*
X141610000Y-93488761D01*
X141360330Y-93655585D01*
X141035474Y-94141766D01*
X140921400Y-94715255D01*
X140921400Y-95084745D01*
X141035474Y-95658234D01*
X141360330Y-96144415D01*
X141846511Y-96469271D01*
X142420000Y-96583345D01*
X142993489Y-96469271D01*
X143479670Y-96144415D01*
X143690000Y-95829634D01*
X143900330Y-96144415D01*
X144386511Y-96469271D01*
X144960000Y-96583345D01*
X145533489Y-96469271D01*
X146019670Y-96144415D01*
X146034500Y-96122220D01*
X146098073Y-96275699D01*
X146276702Y-96454327D01*
X146510091Y-96551000D01*
X147214250Y-96551000D01*
X147373000Y-96392250D01*
X147373000Y-95027000D01*
X147627000Y-95027000D01*
X147627000Y-96392250D01*
X147785750Y-96551000D01*
X148489909Y-96551000D01*
X148723298Y-96454327D01*
X148901927Y-96275699D01*
X148998600Y-96042310D01*
X148998600Y-95185750D01*
X148839850Y-95027000D01*
X147627000Y-95027000D01*
X147373000Y-95027000D01*
X147353000Y-95027000D01*
X147353000Y-94773000D01*
X147373000Y-94773000D01*
X147373000Y-93407750D01*
X147627000Y-93407750D01*
X147627000Y-94773000D01*
X148839850Y-94773000D01*
X148998600Y-94614250D01*
X148998600Y-93757690D01*
X148901927Y-93524301D01*
X148723298Y-93345673D01*
X148489909Y-93249000D01*
X147785750Y-93249000D01*
X147627000Y-93407750D01*
X147373000Y-93407750D01*
X147214250Y-93249000D01*
X146510091Y-93249000D01*
X146276702Y-93345673D01*
X146098073Y-93524301D01*
X146034500Y-93677780D01*
X146019670Y-93655585D01*
X145533489Y-93330729D01*
X144960000Y-93216655D01*
X144386511Y-93330729D01*
X143900330Y-93655585D01*
X143690000Y-93970366D01*
X143479670Y-93655585D01*
X143230000Y-93488761D01*
X143230000Y-92920000D01*
X143168342Y-92610026D01*
X143124939Y-92545069D01*
X143200000Y-92560000D01*
X148885198Y-92560000D01*
X150262599Y-93937401D01*
X150509161Y-94102148D01*
X150800000Y-94160000D01*
X154908434Y-94160000D01*
X154793569Y-94328110D01*
X154742560Y-94580000D01*
X154742560Y-95490000D01*
X154786838Y-95725317D01*
X154925910Y-95941441D01*
X155138110Y-96086431D01*
X155390000Y-96137440D01*
X156610000Y-96137440D01*
X156845317Y-96093162D01*
X157061441Y-95954090D01*
X157206431Y-95741890D01*
X157257440Y-95490000D01*
X157257440Y-94580000D01*
X157213162Y-94344683D01*
X157094322Y-94160000D01*
X157908434Y-94160000D01*
X157793569Y-94328110D01*
X157742560Y-94580000D01*
X157742560Y-95490000D01*
X157786838Y-95725317D01*
X157925910Y-95941441D01*
X158138110Y-96086431D01*
X158390000Y-96137440D01*
X159610000Y-96137440D01*
X159845317Y-96093162D01*
X160061441Y-95954090D01*
X160206431Y-95741890D01*
X160257440Y-95490000D01*
X160257440Y-94580000D01*
X160223193Y-94397996D01*
X162822599Y-96997402D01*
X163069161Y-97162148D01*
X163360000Y-97220000D01*
X164545504Y-97220000D01*
X164613538Y-97384655D01*
X165040539Y-97812401D01*
X165027443Y-97847837D01*
X166000000Y-98820395D01*
X166972557Y-97847837D01*
X166959276Y-97811901D01*
X167384846Y-97387073D01*
X167634206Y-96786547D01*
X167634774Y-96136306D01*
X167386462Y-95535345D01*
X167041520Y-95189801D01*
X167384846Y-94847073D01*
X167634206Y-94246547D01*
X167634774Y-93596306D01*
X167386462Y-92995345D01*
X166927073Y-92535154D01*
X166326547Y-92285794D01*
X165676306Y-92285226D01*
X165559147Y-92333635D01*
X164910000Y-91684488D01*
X164910000Y-85540000D01*
X165316655Y-85540000D01*
X165430729Y-86113489D01*
X165755585Y-86599670D01*
X166070366Y-86810000D01*
X165755585Y-87020330D01*
X165430729Y-87506511D01*
X165316655Y-88080000D01*
X165430729Y-88653489D01*
X165755585Y-89139670D01*
X166241766Y-89464526D01*
X166815255Y-89578600D01*
X167184745Y-89578600D01*
X167758234Y-89464526D01*
X168244415Y-89139670D01*
X168569271Y-88653489D01*
X168683345Y-88080000D01*
X168569271Y-87506511D01*
X168244415Y-87020330D01*
X167929634Y-86810000D01*
X168244415Y-86599670D01*
X168569271Y-86113489D01*
X168683345Y-85540000D01*
X168569271Y-84966511D01*
X168244415Y-84480330D01*
X168222220Y-84465500D01*
X168375699Y-84401927D01*
X168554327Y-84223298D01*
X168651000Y-83989909D01*
X168651000Y-83285750D01*
X168492250Y-83127000D01*
X167127000Y-83127000D01*
X167127000Y-83147000D01*
X166873000Y-83147000D01*
X166873000Y-83127000D01*
X165507750Y-83127000D01*
X165349000Y-83285750D01*
X165349000Y-83989909D01*
X165445673Y-84223298D01*
X165624301Y-84401927D01*
X165777780Y-84465500D01*
X165755585Y-84480330D01*
X165430729Y-84966511D01*
X165316655Y-85540000D01*
X164910000Y-85540000D01*
X164910000Y-82010091D01*
X165349000Y-82010091D01*
X165349000Y-82714250D01*
X165507750Y-82873000D01*
X166873000Y-82873000D01*
X166873000Y-81660150D01*
X167127000Y-81660150D01*
X167127000Y-82873000D01*
X168492250Y-82873000D01*
X168651000Y-82714250D01*
X168651000Y-82010091D01*
X168554327Y-81776702D01*
X168375699Y-81598073D01*
X168142310Y-81501400D01*
X167285750Y-81501400D01*
X167127000Y-81660150D01*
X166873000Y-81660150D01*
X166714250Y-81501400D01*
X165857690Y-81501400D01*
X165624301Y-81598073D01*
X165445673Y-81776702D01*
X165349000Y-82010091D01*
X164910000Y-82010091D01*
X164910000Y-79700000D01*
X164848342Y-79390026D01*
X164760549Y-79258635D01*
X164672756Y-79127243D01*
X163560000Y-78014488D01*
X163560000Y-72112630D01*
X163610317Y-72103162D01*
X163826441Y-71964090D01*
X163971431Y-71751890D01*
X164022440Y-71500000D01*
X164022440Y-70000000D01*
X163978162Y-69764683D01*
X163839090Y-69548559D01*
X163770994Y-69502031D01*
X163913327Y-69359698D01*
X164010000Y-69126309D01*
X164010000Y-68535750D01*
X163851250Y-68377000D01*
X162877000Y-68377000D01*
X162877000Y-68397000D01*
X162623000Y-68397000D01*
X162623000Y-68377000D01*
X161648750Y-68377000D01*
X161490000Y-68535750D01*
X161490000Y-69126309D01*
X161586673Y-69359698D01*
X161727910Y-69500936D01*
X161673559Y-69535910D01*
X161528569Y-69748110D01*
X161489710Y-69940000D01*
X161191440Y-69940000D01*
X161191440Y-69536000D01*
X161147162Y-69300683D01*
X161008090Y-69084559D01*
X160795890Y-68939569D01*
X160544000Y-68888560D01*
X159528000Y-68888560D01*
X159292683Y-68932838D01*
X159076559Y-69071910D01*
X158931569Y-69284110D01*
X158893000Y-69474569D01*
X158893000Y-69409690D01*
X158796327Y-69176301D01*
X158617698Y-68997673D01*
X158384309Y-68901000D01*
X158035750Y-68901000D01*
X157877000Y-69059750D01*
X157877000Y-70425000D01*
X157897000Y-70425000D01*
X157897000Y-70679000D01*
X157877000Y-70679000D01*
X157877000Y-72044250D01*
X158035750Y-72203000D01*
X158384309Y-72203000D01*
X158617698Y-72106327D01*
X158796327Y-71927699D01*
X158893000Y-71694310D01*
X158893000Y-71634113D01*
X158924838Y-71803317D01*
X159063910Y-72019441D01*
X159226000Y-72130192D01*
X159226000Y-78228487D01*
X156169488Y-81285000D01*
X149057563Y-81285000D01*
X148998390Y-81244569D01*
X148746500Y-81193560D01*
X148560000Y-81193560D01*
X148560000Y-80261150D01*
X148735317Y-80228162D01*
X148951441Y-80089090D01*
X148997969Y-80020994D01*
X149140302Y-80163327D01*
X149373691Y-80260000D01*
X149964250Y-80260000D01*
X150123000Y-80101250D01*
X150123000Y-79127000D01*
X150377000Y-79127000D01*
X150377000Y-80101250D01*
X150535750Y-80260000D01*
X151126309Y-80260000D01*
X151359698Y-80163327D01*
X151538327Y-79984699D01*
X151635000Y-79751310D01*
X151635000Y-79285750D01*
X151476250Y-79127000D01*
X150377000Y-79127000D01*
X150123000Y-79127000D01*
X150103000Y-79127000D01*
X150103000Y-78873000D01*
X150123000Y-78873000D01*
X150123000Y-77898750D01*
X150377000Y-77898750D01*
X150377000Y-78873000D01*
X151476250Y-78873000D01*
X151635000Y-78714250D01*
X151635000Y-78248690D01*
X151538327Y-78015301D01*
X151359698Y-77836673D01*
X151126309Y-77740000D01*
X150535750Y-77740000D01*
X150377000Y-77898750D01*
X150123000Y-77898750D01*
X149964250Y-77740000D01*
X149373691Y-77740000D01*
X149140302Y-77836673D01*
X148999064Y-77977910D01*
X148964090Y-77923559D01*
X148751890Y-77778569D01*
X148500000Y-77727560D01*
X147255512Y-77727560D01*
X147328540Y-77654659D01*
X147477730Y-77295370D01*
X147478069Y-76906337D01*
X147329507Y-76546788D01*
X147054659Y-76271460D01*
X146695370Y-76122270D01*
X146306337Y-76121931D01*
X145946788Y-76270493D01*
X145898394Y-76318803D01*
X143936825Y-76251163D01*
X136720000Y-68656493D01*
X136720000Y-67889262D01*
X137019670Y-67689029D01*
X137028805Y-67675358D01*
X137033238Y-67698917D01*
X137172310Y-67915041D01*
X137384510Y-68060031D01*
X137636400Y-68111040D01*
X139363600Y-68111040D01*
X139598917Y-68066762D01*
X139815041Y-67927690D01*
X139960031Y-67715490D01*
X140011040Y-67463600D01*
X140011040Y-65736400D01*
X139966762Y-65501083D01*
X139859336Y-65334138D01*
X146062599Y-71537401D01*
X146309161Y-71702148D01*
X146600000Y-71760000D01*
X151479442Y-71760000D01*
X151521838Y-71985317D01*
X151660910Y-72201441D01*
X151873110Y-72346431D01*
X152125000Y-72397440D01*
X153375000Y-72397440D01*
X153610317Y-72353162D01*
X153826441Y-72214090D01*
X153971431Y-72001890D01*
X154020415Y-71760000D01*
X154344687Y-71760000D01*
X154352838Y-71803317D01*
X154491910Y-72019441D01*
X154704000Y-72164356D01*
X154704000Y-72813206D01*
X154471460Y-73045341D01*
X154322270Y-73404630D01*
X154321931Y-73793663D01*
X154470493Y-74153212D01*
X154745341Y-74428540D01*
X155104630Y-74577730D01*
X155493663Y-74578069D01*
X155853212Y-74429507D01*
X156128540Y-74154659D01*
X156277730Y-73795370D01*
X156278069Y-73406337D01*
X156224000Y-73275479D01*
X156224000Y-72160427D01*
X156423441Y-72032090D01*
X156568431Y-71819890D01*
X156607000Y-71629431D01*
X156607000Y-71694310D01*
X156703673Y-71927699D01*
X156882302Y-72106327D01*
X157115691Y-72203000D01*
X157464250Y-72203000D01*
X157623000Y-72044250D01*
X157623000Y-70679000D01*
X157603000Y-70679000D01*
X157603000Y-70425000D01*
X157623000Y-70425000D01*
X157623000Y-69059750D01*
X157464250Y-68901000D01*
X157115691Y-68901000D01*
X156882302Y-68997673D01*
X156703673Y-69176301D01*
X156607000Y-69409690D01*
X156607000Y-69469887D01*
X156575162Y-69300683D01*
X156436090Y-69084559D01*
X156223890Y-68939569D01*
X155972000Y-68888560D01*
X154956000Y-68888560D01*
X154720683Y-68932838D01*
X154504559Y-69071910D01*
X154359569Y-69284110D01*
X154308560Y-69536000D01*
X154308560Y-70240000D01*
X154020558Y-70240000D01*
X153978162Y-70014683D01*
X153839090Y-69798559D01*
X153770994Y-69752031D01*
X153913327Y-69609698D01*
X154010000Y-69376309D01*
X154010000Y-68785750D01*
X153851250Y-68627000D01*
X152877000Y-68627000D01*
X152877000Y-68647000D01*
X152623000Y-68647000D01*
X152623000Y-68627000D01*
X151648750Y-68627000D01*
X151490000Y-68785750D01*
X151490000Y-69376309D01*
X151586673Y-69609698D01*
X151727910Y-69750936D01*
X151673559Y-69785910D01*
X151528569Y-69998110D01*
X151479585Y-70240000D01*
X146914802Y-70240000D01*
X143310765Y-66635963D01*
X150923642Y-66635963D01*
X151039806Y-66917658D01*
X151701333Y-67168062D01*
X151884209Y-67162420D01*
X151765301Y-67211673D01*
X151586673Y-67390302D01*
X151490000Y-67623691D01*
X151490000Y-68214250D01*
X151648750Y-68373000D01*
X152623000Y-68373000D01*
X152623000Y-67273750D01*
X152877000Y-67273750D01*
X152877000Y-68373000D01*
X153851250Y-68373000D01*
X154010000Y-68214250D01*
X154010000Y-67623691D01*
X153913327Y-67390302D01*
X153896717Y-67373691D01*
X161490000Y-67373691D01*
X161490000Y-67964250D01*
X161648750Y-68123000D01*
X162623000Y-68123000D01*
X162623000Y-67023750D01*
X162877000Y-67023750D01*
X162877000Y-68123000D01*
X163851250Y-68123000D01*
X164010000Y-67964250D01*
X164010000Y-67373691D01*
X163984363Y-67311797D01*
X165211171Y-67829736D01*
X166736793Y-67840087D01*
X168150246Y-67265819D01*
X168194360Y-67236343D01*
X168561305Y-66740910D01*
X166000000Y-64179605D01*
X163438695Y-66740910D01*
X163543567Y-66882503D01*
X163501310Y-66865000D01*
X163035750Y-66865000D01*
X162877000Y-67023750D01*
X162623000Y-67023750D01*
X162464250Y-66865000D01*
X161998690Y-66865000D01*
X161765301Y-66961673D01*
X161586673Y-67140302D01*
X161490000Y-67373691D01*
X153896717Y-67373691D01*
X153734699Y-67211673D01*
X153501310Y-67115000D01*
X153035750Y-67115000D01*
X152877000Y-67273750D01*
X152623000Y-67273750D01*
X152469967Y-67120717D01*
X152960194Y-66917658D01*
X153076358Y-66635963D01*
X152000000Y-65559605D01*
X150923642Y-66635963D01*
X143310765Y-66635963D01*
X141756135Y-65081333D01*
X150211938Y-65081333D01*
X150233751Y-65788329D01*
X150462342Y-66340194D01*
X150744037Y-66456358D01*
X151820395Y-65380000D01*
X152179605Y-65380000D01*
X153255963Y-66456358D01*
X153537658Y-66340194D01*
X153788062Y-65678667D01*
X153766249Y-64971671D01*
X153537658Y-64419806D01*
X153255963Y-64303642D01*
X152179605Y-65380000D01*
X151820395Y-65380000D01*
X150744037Y-64303642D01*
X150462342Y-64419806D01*
X150211938Y-65081333D01*
X141756135Y-65081333D01*
X140798839Y-64124037D01*
X150923642Y-64124037D01*
X152000000Y-65200395D01*
X152966645Y-64233750D01*
X155286200Y-64233750D01*
X155286200Y-65090310D01*
X155382873Y-65323699D01*
X155561502Y-65502327D01*
X155794891Y-65599000D01*
X157464250Y-65599000D01*
X157623000Y-65440250D01*
X157623000Y-64075000D01*
X157877000Y-64075000D01*
X157877000Y-65440250D01*
X158035750Y-65599000D01*
X159705109Y-65599000D01*
X159938498Y-65502327D01*
X160117127Y-65323699D01*
X160213800Y-65090310D01*
X160213800Y-64736793D01*
X162159913Y-64736793D01*
X162734181Y-66150246D01*
X162763657Y-66194360D01*
X163259090Y-66561305D01*
X165820395Y-64000000D01*
X163259090Y-61438695D01*
X162763657Y-61805640D01*
X162170264Y-63211171D01*
X162159913Y-64736793D01*
X160213800Y-64736793D01*
X160213800Y-64233750D01*
X160055050Y-64075000D01*
X157877000Y-64075000D01*
X157623000Y-64075000D01*
X155444950Y-64075000D01*
X155286200Y-64233750D01*
X152966645Y-64233750D01*
X153076358Y-64124037D01*
X152960194Y-63842342D01*
X152298667Y-63591938D01*
X151591671Y-63613751D01*
X151039806Y-63842342D01*
X150923642Y-64124037D01*
X140798839Y-64124037D01*
X140197401Y-63522599D01*
X139950839Y-63357852D01*
X139797841Y-63327418D01*
X139559670Y-62970971D01*
X139312310Y-62805690D01*
X155286200Y-62805690D01*
X155286200Y-63662250D01*
X155444950Y-63821000D01*
X157623000Y-63821000D01*
X157623000Y-62455750D01*
X157877000Y-62455750D01*
X157877000Y-63821000D01*
X160055050Y-63821000D01*
X160213800Y-63662250D01*
X160213800Y-62805690D01*
X160117127Y-62572301D01*
X159938498Y-62393673D01*
X159705109Y-62297000D01*
X158035750Y-62297000D01*
X157877000Y-62455750D01*
X157623000Y-62455750D01*
X157464250Y-62297000D01*
X155794891Y-62297000D01*
X155561502Y-62393673D01*
X155382873Y-62572301D01*
X155286200Y-62805690D01*
X139312310Y-62805690D01*
X139260000Y-62770738D01*
X139260000Y-62500000D01*
X139235111Y-62374874D01*
X139217200Y-62248557D01*
X139206321Y-62230140D01*
X139202148Y-62209161D01*
X139131269Y-62103083D01*
X139066383Y-61993236D01*
X138216383Y-61043236D01*
X138199285Y-61030384D01*
X138187401Y-61012599D01*
X138081324Y-60941721D01*
X137979340Y-60865066D01*
X137958624Y-60859735D01*
X137940839Y-60847852D01*
X137815714Y-60822963D01*
X137692157Y-60791170D01*
X137670979Y-60794173D01*
X137650000Y-60790000D01*
X131150000Y-60790000D01*
X131043631Y-60811158D01*
X130935618Y-60820864D01*
X130899332Y-60839861D01*
X130859161Y-60847852D01*
X130768990Y-60908102D01*
X130672908Y-60958406D01*
X129122908Y-62208406D01*
X129095176Y-62241614D01*
X129059352Y-62265866D01*
X129000895Y-62354511D01*
X128932832Y-62436014D01*
X128919920Y-62477305D01*
X128896102Y-62513422D01*
X128876018Y-62617690D01*
X128844325Y-62719035D01*
X128848197Y-62762124D01*
X128840014Y-62804606D01*
X128937975Y-78968237D01*
X125085585Y-82510556D01*
X125076044Y-82523615D01*
X125062599Y-82532599D01*
X125050583Y-82550583D01*
X125032599Y-82562599D01*
X125020352Y-82580928D01*
X125002752Y-82594204D01*
X124675045Y-82961726D01*
X124683345Y-82920000D01*
X124569271Y-82346511D01*
X124244415Y-81860330D01*
X123758234Y-81535474D01*
X123184745Y-81421400D01*
X122815255Y-81421400D01*
X122241766Y-81535474D01*
X121755585Y-81860330D01*
X121430729Y-82346511D01*
X121316655Y-82920000D01*
X120710000Y-82920000D01*
X120710000Y-66740910D01*
X121438695Y-66740910D01*
X121805640Y-67236343D01*
X123211171Y-67829736D01*
X124736793Y-67840087D01*
X126150246Y-67265819D01*
X126194360Y-67236343D01*
X126561305Y-66740910D01*
X124000000Y-64179605D01*
X121438695Y-66740910D01*
X120710000Y-66740910D01*
X120710000Y-66090729D01*
X120734181Y-66150246D01*
X120763657Y-66194360D01*
X121259090Y-66561305D01*
X123820395Y-64000000D01*
X124179605Y-64000000D01*
X126740910Y-66561305D01*
X127236343Y-66194360D01*
X127829736Y-64788829D01*
X127840087Y-63263207D01*
X127265819Y-61849754D01*
X127236343Y-61805640D01*
X126740910Y-61438695D01*
X124179605Y-64000000D01*
X123820395Y-64000000D01*
X121259090Y-61438695D01*
X120763657Y-61805640D01*
X120710000Y-61932734D01*
X120710000Y-60710000D01*
X121909271Y-60710000D01*
X121849754Y-60734181D01*
X121849754Y-60734181D01*
G37*
X121849754Y-60734181D02*
X121805640Y-60763657D01*
X121438695Y-61259090D01*
X124000000Y-63820395D01*
X126561305Y-61259090D01*
X126194360Y-60763657D01*
X126067266Y-60710000D01*
X163909271Y-60710000D01*
X163849754Y-60734181D01*
X163805640Y-60763657D01*
X163438695Y-61259090D01*
X166000000Y-63820395D01*
X168561305Y-61259090D01*
X168194360Y-60763657D01*
X168067266Y-60710000D01*
X169290000Y-60710000D01*
X169290000Y-61909271D01*
X169265819Y-61849754D01*
X169236343Y-61805640D01*
X168740910Y-61438695D01*
X166179605Y-64000000D01*
X168740910Y-66561305D01*
X169236343Y-66194360D01*
X169290000Y-66067266D01*
X169290000Y-103909271D01*
X169265819Y-103849754D01*
X169236343Y-103805640D01*
X168740910Y-103438695D01*
X166179605Y-106000000D01*
X168740910Y-108561305D01*
X169236343Y-108194360D01*
X169290000Y-108067266D01*
X169290000Y-109290000D01*
X168090729Y-109290000D01*
X168150246Y-109265819D01*
X168194360Y-109236343D01*
X168561305Y-108740910D01*
X166000000Y-106179605D01*
X163438695Y-108740910D01*
X163805640Y-109236343D01*
X163932734Y-109290000D01*
X126090729Y-109290000D01*
X126150246Y-109265819D01*
X126194360Y-109236343D01*
X126561305Y-108740910D01*
X124000000Y-106179605D01*
X121438695Y-108740910D01*
X121805640Y-109236343D01*
X121932734Y-109290000D01*
X120710000Y-109290000D01*
X120710000Y-108090729D01*
X120734181Y-108150246D01*
X120763657Y-108194360D01*
X121259090Y-108561305D01*
X123820395Y-106000000D01*
X124179605Y-106000000D01*
X126740910Y-108561305D01*
X127236343Y-108194360D01*
X127829736Y-106788829D01*
X127840087Y-105263207D01*
X127729223Y-104990334D01*
X135129677Y-104990334D01*
X135413767Y-105677886D01*
X135939347Y-106204384D01*
X136626402Y-106489674D01*
X137370334Y-106490323D01*
X138057886Y-106206233D01*
X138584384Y-105680653D01*
X138869674Y-104993598D01*
X138870323Y-104249666D01*
X138586233Y-103562114D01*
X138060653Y-103035616D01*
X137373598Y-102750326D01*
X136629666Y-102749677D01*
X135942114Y-103033767D01*
X135415616Y-103559347D01*
X135130326Y-104246402D01*
X135129677Y-104990334D01*
X127729223Y-104990334D01*
X127265819Y-103849754D01*
X127236343Y-103805640D01*
X126740910Y-103438695D01*
X124179605Y-106000000D01*
X123820395Y-106000000D01*
X121259090Y-103438695D01*
X120763657Y-103805640D01*
X120710000Y-103932734D01*
X120710000Y-103259090D01*
X121438695Y-103259090D01*
X124000000Y-105820395D01*
X126561305Y-103259090D01*
X126194360Y-102763657D01*
X124788829Y-102170264D01*
X123263207Y-102159913D01*
X121849754Y-102734181D01*
X121805640Y-102763657D01*
X121438695Y-103259090D01*
X120710000Y-103259090D01*
X120710000Y-88285750D01*
X121349000Y-88285750D01*
X121349000Y-88989909D01*
X121445673Y-89223298D01*
X121624301Y-89401927D01*
X121857690Y-89498600D01*
X122714250Y-89498600D01*
X122873000Y-89339850D01*
X122873000Y-88127000D01*
X123127000Y-88127000D01*
X123127000Y-89339850D01*
X123285750Y-89498600D01*
X124142310Y-89498600D01*
X124375699Y-89401927D01*
X124554327Y-89223298D01*
X124651000Y-88989909D01*
X124651000Y-88285750D01*
X124492250Y-88127000D01*
X123127000Y-88127000D01*
X122873000Y-88127000D01*
X121507750Y-88127000D01*
X121349000Y-88285750D01*
X120710000Y-88285750D01*
X120710000Y-82920000D01*
X121316655Y-82920000D01*
X121430729Y-83493489D01*
X121755585Y-83979670D01*
X122070366Y-84190000D01*
X121755585Y-84400330D01*
X121430729Y-84886511D01*
X121316655Y-85460000D01*
X121430729Y-86033489D01*
X121755585Y-86519670D01*
X121777780Y-86534500D01*
X121624301Y-86598073D01*
X121445673Y-86776702D01*
X121349000Y-87010091D01*
X121349000Y-87714250D01*
X121507750Y-87873000D01*
X122873000Y-87873000D01*
X122873000Y-87853000D01*
X123127000Y-87853000D01*
X123127000Y-87873000D01*
X124492250Y-87873000D01*
X124651000Y-87714250D01*
X124651000Y-87010091D01*
X124591399Y-86866201D01*
X126040000Y-88314802D01*
X126040000Y-97900000D01*
X126097852Y-98190839D01*
X126262599Y-98437401D01*
X127312599Y-99487401D01*
X127559160Y-99652148D01*
X127850000Y-99710000D01*
X128075467Y-99710000D01*
X128134340Y-99801491D01*
X128346540Y-99946481D01*
X128598430Y-99997490D01*
X130240000Y-99997490D01*
X130240000Y-100000000D01*
X130297852Y-100290839D01*
X130462599Y-100537401D01*
X131462599Y-101537401D01*
X131709161Y-101702148D01*
X132000000Y-101760000D01*
X140685198Y-101760000D01*
X146463739Y-107538541D01*
X146710301Y-107703288D01*
X147001140Y-107761140D01*
X149452510Y-107761140D01*
X149452510Y-107901570D01*
X149496788Y-108136887D01*
X149635860Y-108353011D01*
X149848060Y-108498001D01*
X150099950Y-108549010D01*
X150900050Y-108549010D01*
X151135367Y-108504732D01*
X151351491Y-108365660D01*
X151496481Y-108153460D01*
X151547490Y-107901570D01*
X151547490Y-106736793D01*
X162159913Y-106736793D01*
X162734181Y-108150246D01*
X162763657Y-108194360D01*
X163259090Y-108561305D01*
X165820395Y-106000000D01*
X163259090Y-103438695D01*
X162763657Y-103805640D01*
X162170264Y-105211171D01*
X162159913Y-106736793D01*
X151547490Y-106736793D01*
X151547490Y-106100710D01*
X151503212Y-105865393D01*
X151364140Y-105649269D01*
X151214069Y-105546730D01*
X151850050Y-105546730D01*
X152085367Y-105502452D01*
X152301491Y-105363380D01*
X152446481Y-105151180D01*
X152497490Y-104899290D01*
X152497490Y-104758860D01*
X153651140Y-104758860D01*
X153941979Y-104701008D01*
X154188541Y-104536261D01*
X154427362Y-104297440D01*
X155400000Y-104297440D01*
X155635317Y-104253162D01*
X155851441Y-104114090D01*
X155996431Y-103901890D01*
X156003191Y-103868510D01*
X156061673Y-104009699D01*
X156240302Y-104188327D01*
X156473691Y-104285000D01*
X157064250Y-104285000D01*
X157223000Y-104126250D01*
X157223000Y-103127000D01*
X157477000Y-103127000D01*
X157477000Y-104126250D01*
X157635750Y-104285000D01*
X158226309Y-104285000D01*
X158459698Y-104188327D01*
X158638327Y-104009699D01*
X158735000Y-103776310D01*
X158735000Y-103285750D01*
X158708340Y-103259090D01*
X163438695Y-103259090D01*
X166000000Y-105820395D01*
X168561305Y-103259090D01*
X168194360Y-102763657D01*
X166788829Y-102170264D01*
X165263207Y-102159913D01*
X163849754Y-102734181D01*
X163805640Y-102763657D01*
X163438695Y-103259090D01*
X158708340Y-103259090D01*
X158576250Y-103127000D01*
X157477000Y-103127000D01*
X157223000Y-103127000D01*
X157203000Y-103127000D01*
X157203000Y-102873000D01*
X157223000Y-102873000D01*
X157223000Y-101873750D01*
X157477000Y-101873750D01*
X157477000Y-102873000D01*
X158576250Y-102873000D01*
X158735000Y-102714250D01*
X158735000Y-102223690D01*
X158638327Y-101990301D01*
X158459698Y-101811673D01*
X158226309Y-101715000D01*
X157635750Y-101715000D01*
X157477000Y-101873750D01*
X157223000Y-101873750D01*
X157064250Y-101715000D01*
X156473691Y-101715000D01*
X156240302Y-101811673D01*
X156061673Y-101990301D01*
X156005346Y-102126287D01*
X156003162Y-102114683D01*
X155864090Y-101898559D01*
X155651890Y-101753569D01*
X155400000Y-101702560D01*
X154760000Y-101702560D01*
X154760000Y-100297440D01*
X155400000Y-100297440D01*
X155635317Y-100253162D01*
X155851441Y-100114090D01*
X155996431Y-99901890D01*
X155999081Y-99888803D01*
X156135910Y-100101441D01*
X156348110Y-100246431D01*
X156600000Y-100297440D01*
X158100000Y-100297440D01*
X158335317Y-100253162D01*
X158492273Y-100152163D01*
X165027443Y-100152163D01*
X165126042Y-100418965D01*
X165735582Y-100645401D01*
X166385377Y-100621341D01*
X166873958Y-100418965D01*
X166972557Y-100152163D01*
X166000000Y-99179605D01*
X165027443Y-100152163D01*
X158492273Y-100152163D01*
X158551441Y-100114090D01*
X158696431Y-99901890D01*
X158747440Y-99650000D01*
X158747440Y-98735582D01*
X164354599Y-98735582D01*
X164378659Y-99385377D01*
X164581035Y-99873958D01*
X164847837Y-99972557D01*
X165820395Y-99000000D01*
X166179605Y-99000000D01*
X167152163Y-99972557D01*
X167418965Y-99873958D01*
X167645401Y-99264418D01*
X167621341Y-98614623D01*
X167418965Y-98126042D01*
X167152163Y-98027443D01*
X166179605Y-99000000D01*
X165820395Y-99000000D01*
X164847837Y-98027443D01*
X164581035Y-98126042D01*
X164354599Y-98735582D01*
X158747440Y-98735582D01*
X158747440Y-98350000D01*
X158703162Y-98114683D01*
X158564090Y-97898559D01*
X158351890Y-97753569D01*
X158100000Y-97702560D01*
X156600000Y-97702560D01*
X156364683Y-97746838D01*
X156148559Y-97885910D01*
X156003569Y-98098110D01*
X156000919Y-98111197D01*
X155864090Y-97898559D01*
X155651890Y-97753569D01*
X155400000Y-97702560D01*
X154372716Y-97702560D01*
X154290839Y-97647852D01*
X154000000Y-97590000D01*
X153709161Y-97647852D01*
X153462599Y-97812599D01*
X153297852Y-98059161D01*
X153240000Y-98350000D01*
X153240000Y-102350000D01*
X153252560Y-102413143D01*
X153252560Y-103238860D01*
X152497490Y-103238860D01*
X152497490Y-103098430D01*
X152453212Y-102863113D01*
X152314140Y-102646989D01*
X152101940Y-102501999D01*
X151850050Y-102450990D01*
X151049950Y-102450990D01*
X150814633Y-102495268D01*
X150598509Y-102634340D01*
X150503023Y-102774089D01*
X150488377Y-102738731D01*
X150309748Y-102560103D01*
X150076359Y-102463430D01*
X149835750Y-102463430D01*
X149677000Y-102622180D01*
X149677000Y-103871860D01*
X149697000Y-103871860D01*
X149697000Y-104125860D01*
X149677000Y-104125860D01*
X149677000Y-105375540D01*
X149824703Y-105523243D01*
X149648509Y-105636620D01*
X149503519Y-105848820D01*
X149452510Y-106100710D01*
X149452510Y-106241140D01*
X147315942Y-106241140D01*
X145359412Y-104284610D01*
X148514950Y-104284610D01*
X148514950Y-105025600D01*
X148611623Y-105258989D01*
X148790252Y-105437617D01*
X149023641Y-105534290D01*
X149264250Y-105534290D01*
X149423000Y-105375540D01*
X149423000Y-104125860D01*
X148673700Y-104125860D01*
X148514950Y-104284610D01*
X145359412Y-104284610D01*
X144046922Y-102972120D01*
X148514950Y-102972120D01*
X148514950Y-103713110D01*
X148673700Y-103871860D01*
X149423000Y-103871860D01*
X149423000Y-102622180D01*
X149264250Y-102463430D01*
X149023641Y-102463430D01*
X148790252Y-102560103D01*
X148611623Y-102738731D01*
X148514950Y-102972120D01*
X144046922Y-102972120D01*
X141537401Y-100462599D01*
X141290839Y-100297852D01*
X141000000Y-100240000D01*
X132314802Y-100240000D01*
X131760000Y-99685198D01*
X131760000Y-99047490D01*
X133401570Y-99047490D01*
X133636887Y-99003212D01*
X133853011Y-98864140D01*
X133998001Y-98651940D01*
X134049010Y-98400050D01*
X134049010Y-97599950D01*
X134004732Y-97364633D01*
X133865660Y-97148509D01*
X133653460Y-97003519D01*
X133401570Y-96952510D01*
X133160000Y-96952510D01*
X133160000Y-95286150D01*
X133335317Y-95253162D01*
X133551441Y-95114090D01*
X133696431Y-94901890D01*
X133715039Y-94810000D01*
X135000000Y-94810000D01*
X135309974Y-94748342D01*
X135572756Y-94572756D01*
X137572756Y-92572757D01*
X137660549Y-92441365D01*
X137748342Y-92309974D01*
X137810000Y-92000000D01*
X137810000Y-91449807D01*
X137845317Y-91443162D01*
X138061441Y-91304090D01*
X138135979Y-91195000D01*
X139549488Y-91195000D01*
X141610000Y-93255513D01*
X141610000Y-93488761D01*
X141360330Y-93655585D01*
X141035474Y-94141766D01*
X140921400Y-94715255D01*
X140921400Y-95084745D01*
X141035474Y-95658234D01*
X141360330Y-96144415D01*
X141846511Y-96469271D01*
X142420000Y-96583345D01*
X142993489Y-96469271D01*
X143479670Y-96144415D01*
X143690000Y-95829634D01*
X143900330Y-96144415D01*
X144386511Y-96469271D01*
X144960000Y-96583345D01*
X145533489Y-96469271D01*
X146019670Y-96144415D01*
X146034500Y-96122220D01*
X146098073Y-96275699D01*
X146276702Y-96454327D01*
X146510091Y-96551000D01*
X147214250Y-96551000D01*
X147373000Y-96392250D01*
X147373000Y-95027000D01*
X147627000Y-95027000D01*
X147627000Y-96392250D01*
X147785750Y-96551000D01*
X148489909Y-96551000D01*
X148723298Y-96454327D01*
X148901927Y-96275699D01*
X148998600Y-96042310D01*
X148998600Y-95185750D01*
X148839850Y-95027000D01*
X147627000Y-95027000D01*
X147373000Y-95027000D01*
X147353000Y-95027000D01*
X147353000Y-94773000D01*
X147373000Y-94773000D01*
X147373000Y-93407750D01*
X147627000Y-93407750D01*
X147627000Y-94773000D01*
X148839850Y-94773000D01*
X148998600Y-94614250D01*
X148998600Y-93757690D01*
X148901927Y-93524301D01*
X148723298Y-93345673D01*
X148489909Y-93249000D01*
X147785750Y-93249000D01*
X147627000Y-93407750D01*
X147373000Y-93407750D01*
X147214250Y-93249000D01*
X146510091Y-93249000D01*
X146276702Y-93345673D01*
X146098073Y-93524301D01*
X146034500Y-93677780D01*
X146019670Y-93655585D01*
X145533489Y-93330729D01*
X144960000Y-93216655D01*
X144386511Y-93330729D01*
X143900330Y-93655585D01*
X143690000Y-93970366D01*
X143479670Y-93655585D01*
X143230000Y-93488761D01*
X143230000Y-92920000D01*
X143168342Y-92610026D01*
X143124939Y-92545069D01*
X143200000Y-92560000D01*
X148885198Y-92560000D01*
X150262599Y-93937401D01*
X150509161Y-94102148D01*
X150800000Y-94160000D01*
X154908434Y-94160000D01*
X154793569Y-94328110D01*
X154742560Y-94580000D01*
X154742560Y-95490000D01*
X154786838Y-95725317D01*
X154925910Y-95941441D01*
X155138110Y-96086431D01*
X155390000Y-96137440D01*
X156610000Y-96137440D01*
X156845317Y-96093162D01*
X157061441Y-95954090D01*
X157206431Y-95741890D01*
X157257440Y-95490000D01*
X157257440Y-94580000D01*
X157213162Y-94344683D01*
X157094322Y-94160000D01*
X157908434Y-94160000D01*
X157793569Y-94328110D01*
X157742560Y-94580000D01*
X157742560Y-95490000D01*
X157786838Y-95725317D01*
X157925910Y-95941441D01*
X158138110Y-96086431D01*
X158390000Y-96137440D01*
X159610000Y-96137440D01*
X159845317Y-96093162D01*
X160061441Y-95954090D01*
X160206431Y-95741890D01*
X160257440Y-95490000D01*
X160257440Y-94580000D01*
X160223193Y-94397996D01*
X162822599Y-96997402D01*
X163069161Y-97162148D01*
X163360000Y-97220000D01*
X164545504Y-97220000D01*
X164613538Y-97384655D01*
X165040539Y-97812401D01*
X165027443Y-97847837D01*
X166000000Y-98820395D01*
X166972557Y-97847837D01*
X166959276Y-97811901D01*
X167384846Y-97387073D01*
X167634206Y-96786547D01*
X167634774Y-96136306D01*
X167386462Y-95535345D01*
X167041520Y-95189801D01*
X167384846Y-94847073D01*
X167634206Y-94246547D01*
X167634774Y-93596306D01*
X167386462Y-92995345D01*
X166927073Y-92535154D01*
X166326547Y-92285794D01*
X165676306Y-92285226D01*
X165559147Y-92333635D01*
X164910000Y-91684488D01*
X164910000Y-85540000D01*
X165316655Y-85540000D01*
X165430729Y-86113489D01*
X165755585Y-86599670D01*
X166070366Y-86810000D01*
X165755585Y-87020330D01*
X165430729Y-87506511D01*
X165316655Y-88080000D01*
X165430729Y-88653489D01*
X165755585Y-89139670D01*
X166241766Y-89464526D01*
X166815255Y-89578600D01*
X167184745Y-89578600D01*
X167758234Y-89464526D01*
X168244415Y-89139670D01*
X168569271Y-88653489D01*
X168683345Y-88080000D01*
X168569271Y-87506511D01*
X168244415Y-87020330D01*
X167929634Y-86810000D01*
X168244415Y-86599670D01*
X168569271Y-86113489D01*
X168683345Y-85540000D01*
X168569271Y-84966511D01*
X168244415Y-84480330D01*
X168222220Y-84465500D01*
X168375699Y-84401927D01*
X168554327Y-84223298D01*
X168651000Y-83989909D01*
X168651000Y-83285750D01*
X168492250Y-83127000D01*
X167127000Y-83127000D01*
X167127000Y-83147000D01*
X166873000Y-83147000D01*
X166873000Y-83127000D01*
X165507750Y-83127000D01*
X165349000Y-83285750D01*
X165349000Y-83989909D01*
X165445673Y-84223298D01*
X165624301Y-84401927D01*
X165777780Y-84465500D01*
X165755585Y-84480330D01*
X165430729Y-84966511D01*
X165316655Y-85540000D01*
X164910000Y-85540000D01*
X164910000Y-82010091D01*
X165349000Y-82010091D01*
X165349000Y-82714250D01*
X165507750Y-82873000D01*
X166873000Y-82873000D01*
X166873000Y-81660150D01*
X167127000Y-81660150D01*
X167127000Y-82873000D01*
X168492250Y-82873000D01*
X168651000Y-82714250D01*
X168651000Y-82010091D01*
X168554327Y-81776702D01*
X168375699Y-81598073D01*
X168142310Y-81501400D01*
X167285750Y-81501400D01*
X167127000Y-81660150D01*
X166873000Y-81660150D01*
X166714250Y-81501400D01*
X165857690Y-81501400D01*
X165624301Y-81598073D01*
X165445673Y-81776702D01*
X165349000Y-82010091D01*
X164910000Y-82010091D01*
X164910000Y-79700000D01*
X164848342Y-79390026D01*
X164760549Y-79258635D01*
X164672756Y-79127243D01*
X163560000Y-78014488D01*
X163560000Y-72112630D01*
X163610317Y-72103162D01*
X163826441Y-71964090D01*
X163971431Y-71751890D01*
X164022440Y-71500000D01*
X164022440Y-70000000D01*
X163978162Y-69764683D01*
X163839090Y-69548559D01*
X163770994Y-69502031D01*
X163913327Y-69359698D01*
X164010000Y-69126309D01*
X164010000Y-68535750D01*
X163851250Y-68377000D01*
X162877000Y-68377000D01*
X162877000Y-68397000D01*
X162623000Y-68397000D01*
X162623000Y-68377000D01*
X161648750Y-68377000D01*
X161490000Y-68535750D01*
X161490000Y-69126309D01*
X161586673Y-69359698D01*
X161727910Y-69500936D01*
X161673559Y-69535910D01*
X161528569Y-69748110D01*
X161489710Y-69940000D01*
X161191440Y-69940000D01*
X161191440Y-69536000D01*
X161147162Y-69300683D01*
X161008090Y-69084559D01*
X160795890Y-68939569D01*
X160544000Y-68888560D01*
X159528000Y-68888560D01*
X159292683Y-68932838D01*
X159076559Y-69071910D01*
X158931569Y-69284110D01*
X158893000Y-69474569D01*
X158893000Y-69409690D01*
X158796327Y-69176301D01*
X158617698Y-68997673D01*
X158384309Y-68901000D01*
X158035750Y-68901000D01*
X157877000Y-69059750D01*
X157877000Y-70425000D01*
X157897000Y-70425000D01*
X157897000Y-70679000D01*
X157877000Y-70679000D01*
X157877000Y-72044250D01*
X158035750Y-72203000D01*
X158384309Y-72203000D01*
X158617698Y-72106327D01*
X158796327Y-71927699D01*
X158893000Y-71694310D01*
X158893000Y-71634113D01*
X158924838Y-71803317D01*
X159063910Y-72019441D01*
X159226000Y-72130192D01*
X159226000Y-78228487D01*
X156169488Y-81285000D01*
X149057563Y-81285000D01*
X148998390Y-81244569D01*
X148746500Y-81193560D01*
X148560000Y-81193560D01*
X148560000Y-80261150D01*
X148735317Y-80228162D01*
X148951441Y-80089090D01*
X148997969Y-80020994D01*
X149140302Y-80163327D01*
X149373691Y-80260000D01*
X149964250Y-80260000D01*
X150123000Y-80101250D01*
X150123000Y-79127000D01*
X150377000Y-79127000D01*
X150377000Y-80101250D01*
X150535750Y-80260000D01*
X151126309Y-80260000D01*
X151359698Y-80163327D01*
X151538327Y-79984699D01*
X151635000Y-79751310D01*
X151635000Y-79285750D01*
X151476250Y-79127000D01*
X150377000Y-79127000D01*
X150123000Y-79127000D01*
X150103000Y-79127000D01*
X150103000Y-78873000D01*
X150123000Y-78873000D01*
X150123000Y-77898750D01*
X150377000Y-77898750D01*
X150377000Y-78873000D01*
X151476250Y-78873000D01*
X151635000Y-78714250D01*
X151635000Y-78248690D01*
X151538327Y-78015301D01*
X151359698Y-77836673D01*
X151126309Y-77740000D01*
X150535750Y-77740000D01*
X150377000Y-77898750D01*
X150123000Y-77898750D01*
X149964250Y-77740000D01*
X149373691Y-77740000D01*
X149140302Y-77836673D01*
X148999064Y-77977910D01*
X148964090Y-77923559D01*
X148751890Y-77778569D01*
X148500000Y-77727560D01*
X147255512Y-77727560D01*
X147328540Y-77654659D01*
X147477730Y-77295370D01*
X147478069Y-76906337D01*
X147329507Y-76546788D01*
X147054659Y-76271460D01*
X146695370Y-76122270D01*
X146306337Y-76121931D01*
X145946788Y-76270493D01*
X145898394Y-76318803D01*
X143936825Y-76251163D01*
X136720000Y-68656493D01*
X136720000Y-67889262D01*
X137019670Y-67689029D01*
X137028805Y-67675358D01*
X137033238Y-67698917D01*
X137172310Y-67915041D01*
X137384510Y-68060031D01*
X137636400Y-68111040D01*
X139363600Y-68111040D01*
X139598917Y-68066762D01*
X139815041Y-67927690D01*
X139960031Y-67715490D01*
X140011040Y-67463600D01*
X140011040Y-65736400D01*
X139966762Y-65501083D01*
X139859336Y-65334138D01*
X146062599Y-71537401D01*
X146309161Y-71702148D01*
X146600000Y-71760000D01*
X151479442Y-71760000D01*
X151521838Y-71985317D01*
X151660910Y-72201441D01*
X151873110Y-72346431D01*
X152125000Y-72397440D01*
X153375000Y-72397440D01*
X153610317Y-72353162D01*
X153826441Y-72214090D01*
X153971431Y-72001890D01*
X154020415Y-71760000D01*
X154344687Y-71760000D01*
X154352838Y-71803317D01*
X154491910Y-72019441D01*
X154704000Y-72164356D01*
X154704000Y-72813206D01*
X154471460Y-73045341D01*
X154322270Y-73404630D01*
X154321931Y-73793663D01*
X154470493Y-74153212D01*
X154745341Y-74428540D01*
X155104630Y-74577730D01*
X155493663Y-74578069D01*
X155853212Y-74429507D01*
X156128540Y-74154659D01*
X156277730Y-73795370D01*
X156278069Y-73406337D01*
X156224000Y-73275479D01*
X156224000Y-72160427D01*
X156423441Y-72032090D01*
X156568431Y-71819890D01*
X156607000Y-71629431D01*
X156607000Y-71694310D01*
X156703673Y-71927699D01*
X156882302Y-72106327D01*
X157115691Y-72203000D01*
X157464250Y-72203000D01*
X157623000Y-72044250D01*
X157623000Y-70679000D01*
X157603000Y-70679000D01*
X157603000Y-70425000D01*
X157623000Y-70425000D01*
X157623000Y-69059750D01*
X157464250Y-68901000D01*
X157115691Y-68901000D01*
X156882302Y-68997673D01*
X156703673Y-69176301D01*
X156607000Y-69409690D01*
X156607000Y-69469887D01*
X156575162Y-69300683D01*
X156436090Y-69084559D01*
X156223890Y-68939569D01*
X155972000Y-68888560D01*
X154956000Y-68888560D01*
X154720683Y-68932838D01*
X154504559Y-69071910D01*
X154359569Y-69284110D01*
X154308560Y-69536000D01*
X154308560Y-70240000D01*
X154020558Y-70240000D01*
X153978162Y-70014683D01*
X153839090Y-69798559D01*
X153770994Y-69752031D01*
X153913327Y-69609698D01*
X154010000Y-69376309D01*
X154010000Y-68785750D01*
X153851250Y-68627000D01*
X152877000Y-68627000D01*
X152877000Y-68647000D01*
X152623000Y-68647000D01*
X152623000Y-68627000D01*
X151648750Y-68627000D01*
X151490000Y-68785750D01*
X151490000Y-69376309D01*
X151586673Y-69609698D01*
X151727910Y-69750936D01*
X151673559Y-69785910D01*
X151528569Y-69998110D01*
X151479585Y-70240000D01*
X146914802Y-70240000D01*
X143310765Y-66635963D01*
X150923642Y-66635963D01*
X151039806Y-66917658D01*
X151701333Y-67168062D01*
X151884209Y-67162420D01*
X151765301Y-67211673D01*
X151586673Y-67390302D01*
X151490000Y-67623691D01*
X151490000Y-68214250D01*
X151648750Y-68373000D01*
X152623000Y-68373000D01*
X152623000Y-67273750D01*
X152877000Y-67273750D01*
X152877000Y-68373000D01*
X153851250Y-68373000D01*
X154010000Y-68214250D01*
X154010000Y-67623691D01*
X153913327Y-67390302D01*
X153896717Y-67373691D01*
X161490000Y-67373691D01*
X161490000Y-67964250D01*
X161648750Y-68123000D01*
X162623000Y-68123000D01*
X162623000Y-67023750D01*
X162877000Y-67023750D01*
X162877000Y-68123000D01*
X163851250Y-68123000D01*
X164010000Y-67964250D01*
X164010000Y-67373691D01*
X163984363Y-67311797D01*
X165211171Y-67829736D01*
X166736793Y-67840087D01*
X168150246Y-67265819D01*
X168194360Y-67236343D01*
X168561305Y-66740910D01*
X166000000Y-64179605D01*
X163438695Y-66740910D01*
X163543567Y-66882503D01*
X163501310Y-66865000D01*
X163035750Y-66865000D01*
X162877000Y-67023750D01*
X162623000Y-67023750D01*
X162464250Y-66865000D01*
X161998690Y-66865000D01*
X161765301Y-66961673D01*
X161586673Y-67140302D01*
X161490000Y-67373691D01*
X153896717Y-67373691D01*
X153734699Y-67211673D01*
X153501310Y-67115000D01*
X153035750Y-67115000D01*
X152877000Y-67273750D01*
X152623000Y-67273750D01*
X152469967Y-67120717D01*
X152960194Y-66917658D01*
X153076358Y-66635963D01*
X152000000Y-65559605D01*
X150923642Y-66635963D01*
X143310765Y-66635963D01*
X141756135Y-65081333D01*
X150211938Y-65081333D01*
X150233751Y-65788329D01*
X150462342Y-66340194D01*
X150744037Y-66456358D01*
X151820395Y-65380000D01*
X152179605Y-65380000D01*
X153255963Y-66456358D01*
X153537658Y-66340194D01*
X153788062Y-65678667D01*
X153766249Y-64971671D01*
X153537658Y-64419806D01*
X153255963Y-64303642D01*
X152179605Y-65380000D01*
X151820395Y-65380000D01*
X150744037Y-64303642D01*
X150462342Y-64419806D01*
X150211938Y-65081333D01*
X141756135Y-65081333D01*
X140798839Y-64124037D01*
X150923642Y-64124037D01*
X152000000Y-65200395D01*
X152966645Y-64233750D01*
X155286200Y-64233750D01*
X155286200Y-65090310D01*
X155382873Y-65323699D01*
X155561502Y-65502327D01*
X155794891Y-65599000D01*
X157464250Y-65599000D01*
X157623000Y-65440250D01*
X157623000Y-64075000D01*
X157877000Y-64075000D01*
X157877000Y-65440250D01*
X158035750Y-65599000D01*
X159705109Y-65599000D01*
X159938498Y-65502327D01*
X160117127Y-65323699D01*
X160213800Y-65090310D01*
X160213800Y-64736793D01*
X162159913Y-64736793D01*
X162734181Y-66150246D01*
X162763657Y-66194360D01*
X163259090Y-66561305D01*
X165820395Y-64000000D01*
X163259090Y-61438695D01*
X162763657Y-61805640D01*
X162170264Y-63211171D01*
X162159913Y-64736793D01*
X160213800Y-64736793D01*
X160213800Y-64233750D01*
X160055050Y-64075000D01*
X157877000Y-64075000D01*
X157623000Y-64075000D01*
X155444950Y-64075000D01*
X155286200Y-64233750D01*
X152966645Y-64233750D01*
X153076358Y-64124037D01*
X152960194Y-63842342D01*
X152298667Y-63591938D01*
X151591671Y-63613751D01*
X151039806Y-63842342D01*
X150923642Y-64124037D01*
X140798839Y-64124037D01*
X140197401Y-63522599D01*
X139950839Y-63357852D01*
X139797841Y-63327418D01*
X139559670Y-62970971D01*
X139312310Y-62805690D01*
X155286200Y-62805690D01*
X155286200Y-63662250D01*
X155444950Y-63821000D01*
X157623000Y-63821000D01*
X157623000Y-62455750D01*
X157877000Y-62455750D01*
X157877000Y-63821000D01*
X160055050Y-63821000D01*
X160213800Y-63662250D01*
X160213800Y-62805690D01*
X160117127Y-62572301D01*
X159938498Y-62393673D01*
X159705109Y-62297000D01*
X158035750Y-62297000D01*
X157877000Y-62455750D01*
X157623000Y-62455750D01*
X157464250Y-62297000D01*
X155794891Y-62297000D01*
X155561502Y-62393673D01*
X155382873Y-62572301D01*
X155286200Y-62805690D01*
X139312310Y-62805690D01*
X139260000Y-62770738D01*
X139260000Y-62500000D01*
X139235111Y-62374874D01*
X139217200Y-62248557D01*
X139206321Y-62230140D01*
X139202148Y-62209161D01*
X139131269Y-62103083D01*
X139066383Y-61993236D01*
X138216383Y-61043236D01*
X138199285Y-61030384D01*
X138187401Y-61012599D01*
X138081324Y-60941721D01*
X137979340Y-60865066D01*
X137958624Y-60859735D01*
X137940839Y-60847852D01*
X137815714Y-60822963D01*
X137692157Y-60791170D01*
X137670979Y-60794173D01*
X137650000Y-60790000D01*
X131150000Y-60790000D01*
X131043631Y-60811158D01*
X130935618Y-60820864D01*
X130899332Y-60839861D01*
X130859161Y-60847852D01*
X130768990Y-60908102D01*
X130672908Y-60958406D01*
X129122908Y-62208406D01*
X129095176Y-62241614D01*
X129059352Y-62265866D01*
X129000895Y-62354511D01*
X128932832Y-62436014D01*
X128919920Y-62477305D01*
X128896102Y-62513422D01*
X128876018Y-62617690D01*
X128844325Y-62719035D01*
X128848197Y-62762124D01*
X128840014Y-62804606D01*
X128937975Y-78968237D01*
X125085585Y-82510556D01*
X125076044Y-82523615D01*
X125062599Y-82532599D01*
X125050583Y-82550583D01*
X125032599Y-82562599D01*
X125020352Y-82580928D01*
X125002752Y-82594204D01*
X124675045Y-82961726D01*
X124683345Y-82920000D01*
X124569271Y-82346511D01*
X124244415Y-81860330D01*
X123758234Y-81535474D01*
X123184745Y-81421400D01*
X122815255Y-81421400D01*
X122241766Y-81535474D01*
X121755585Y-81860330D01*
X121430729Y-82346511D01*
X121316655Y-82920000D01*
X120710000Y-82920000D01*
X120710000Y-66740910D01*
X121438695Y-66740910D01*
X121805640Y-67236343D01*
X123211171Y-67829736D01*
X124736793Y-67840087D01*
X126150246Y-67265819D01*
X126194360Y-67236343D01*
X126561305Y-66740910D01*
X124000000Y-64179605D01*
X121438695Y-66740910D01*
X120710000Y-66740910D01*
X120710000Y-66090729D01*
X120734181Y-66150246D01*
X120763657Y-66194360D01*
X121259090Y-66561305D01*
X123820395Y-64000000D01*
X124179605Y-64000000D01*
X126740910Y-66561305D01*
X127236343Y-66194360D01*
X127829736Y-64788829D01*
X127840087Y-63263207D01*
X127265819Y-61849754D01*
X127236343Y-61805640D01*
X126740910Y-61438695D01*
X124179605Y-64000000D01*
X123820395Y-64000000D01*
X121259090Y-61438695D01*
X120763657Y-61805640D01*
X120710000Y-61932734D01*
X120710000Y-60710000D01*
X121909271Y-60710000D01*
X121849754Y-60734181D01*
G36*
X132717852Y-69610839D02*
X132882599Y-69857401D01*
X137291974Y-74266776D01*
X137040000Y-74216655D01*
X136408190Y-74342330D01*
X136071999Y-74566966D01*
X136054327Y-74524302D01*
X135875699Y-74345673D01*
X135642310Y-74249000D01*
X134785750Y-74249000D01*
X134627000Y-74407750D01*
X134627000Y-75773000D01*
X134647000Y-75773000D01*
X134647000Y-76027000D01*
X134627000Y-76027000D01*
X134627000Y-77392250D01*
X134785750Y-77551000D01*
X135642310Y-77551000D01*
X135875699Y-77454327D01*
X136054327Y-77275698D01*
X136071999Y-77233034D01*
X136280000Y-77372016D01*
X136280000Y-80133699D01*
X135994160Y-80251806D01*
X135493564Y-80751529D01*
X135222309Y-81404782D01*
X135221692Y-82112114D01*
X135491806Y-82765840D01*
X135991529Y-83266436D01*
X136240000Y-83369610D01*
X136240000Y-86040784D01*
X136154683Y-86056838D01*
X135938559Y-86195910D01*
X135793569Y-86408110D01*
X135742560Y-86660000D01*
X135742560Y-87570000D01*
X135786838Y-87805317D01*
X135925910Y-88021441D01*
X136138110Y-88166431D01*
X136390000Y-88217440D01*
X137610000Y-88217440D01*
X137845317Y-88173162D01*
X138061441Y-88034090D01*
X138206431Y-87821890D01*
X138257440Y-87570000D01*
X138257440Y-86660000D01*
X138251006Y-86625808D01*
X138840000Y-87214802D01*
X138840000Y-88200000D01*
X138897852Y-88490839D01*
X139062599Y-88737401D01*
X139903972Y-89578774D01*
X139885000Y-89575000D01*
X138136148Y-89575000D01*
X138074090Y-89478559D01*
X137861890Y-89333569D01*
X137610000Y-89282560D01*
X136390000Y-89282560D01*
X136154683Y-89326838D01*
X135938559Y-89465910D01*
X135793569Y-89678110D01*
X135742560Y-89930000D01*
X135742560Y-90840000D01*
X135786838Y-91075317D01*
X135925910Y-91291441D01*
X136138110Y-91436431D01*
X136190000Y-91446939D01*
X136190000Y-91664487D01*
X134664488Y-93190000D01*
X133717334Y-93190000D01*
X133703162Y-93114683D01*
X133564090Y-92898559D01*
X133351890Y-92753569D01*
X133100000Y-92702560D01*
X131600000Y-92702560D01*
X131364683Y-92746838D01*
X131148559Y-92885910D01*
X131003569Y-93098110D01*
X131000919Y-93111197D01*
X130864090Y-92898559D01*
X130651890Y-92753569D01*
X130400000Y-92702560D01*
X128900000Y-92702560D01*
X128664683Y-92746838D01*
X128448559Y-92885910D01*
X128303569Y-93098110D01*
X128252560Y-93350000D01*
X128252560Y-94650000D01*
X128296838Y-94885317D01*
X128435910Y-95101441D01*
X128648110Y-95246431D01*
X128738860Y-95264808D01*
X128738860Y-96002510D01*
X128598430Y-96002510D01*
X128363113Y-96046788D01*
X128146989Y-96185860D01*
X128001999Y-96398060D01*
X127950990Y-96649950D01*
X127950990Y-97450050D01*
X127995268Y-97685367D01*
X128134340Y-97901491D01*
X128279437Y-98000632D01*
X128146989Y-98085860D01*
X128111947Y-98137145D01*
X127560000Y-97585198D01*
X127560000Y-88000000D01*
X127502148Y-87709161D01*
X127502148Y-87709160D01*
X127337401Y-87462599D01*
X126894184Y-87019382D01*
X128660223Y-87019382D01*
X128905368Y-87410888D01*
X129949360Y-87837609D01*
X131077181Y-87832330D01*
X132094632Y-87410888D01*
X132339777Y-87019382D01*
X130500000Y-85179605D01*
X128660223Y-87019382D01*
X126894184Y-87019382D01*
X124874802Y-85000000D01*
X125037401Y-84837401D01*
X125049648Y-84819072D01*
X125067248Y-84805796D01*
X125385070Y-84449360D01*
X127662391Y-84449360D01*
X127667670Y-85577181D01*
X128089112Y-86594632D01*
X128480618Y-86839777D01*
X130320395Y-85000000D01*
X130679605Y-85000000D01*
X132519382Y-86839777D01*
X132910888Y-86594632D01*
X133337609Y-85550640D01*
X133332330Y-84422819D01*
X132910888Y-83405368D01*
X132519382Y-83160223D01*
X130679605Y-85000000D01*
X130320395Y-85000000D01*
X128480618Y-83160223D01*
X128089112Y-83405368D01*
X127662391Y-84449360D01*
X125385070Y-84449360D01*
X126067303Y-83684239D01*
X126137401Y-83637401D01*
X126187813Y-83561953D01*
X126820034Y-82980618D01*
X128660223Y-82980618D01*
X130500000Y-84820395D01*
X132339777Y-82980618D01*
X132094632Y-82589112D01*
X131050640Y-82162391D01*
X129922819Y-82167670D01*
X128905368Y-82589112D01*
X128660223Y-82980618D01*
X126820034Y-82980618D01*
X130214415Y-79859444D01*
X130225330Y-79844504D01*
X130240648Y-79834134D01*
X130312428Y-79725286D01*
X130389346Y-79620001D01*
X130393712Y-79602024D01*
X130403898Y-79586578D01*
X130428563Y-79458530D01*
X130459332Y-79331840D01*
X130456486Y-79313562D01*
X130459986Y-79295394D01*
X130441140Y-76185750D01*
X132849000Y-76185750D01*
X132849000Y-77042309D01*
X132945673Y-77275698D01*
X133124301Y-77454327D01*
X133357690Y-77551000D01*
X134214250Y-77551000D01*
X134373000Y-77392250D01*
X134373000Y-76027000D01*
X133007750Y-76027000D01*
X132849000Y-76185750D01*
X130441140Y-76185750D01*
X130425753Y-73646992D01*
X130498110Y-73696431D01*
X130640000Y-73725164D01*
X130640000Y-74171105D01*
X130522270Y-74454630D01*
X130521931Y-74843663D01*
X130670493Y-75203212D01*
X130945341Y-75478540D01*
X131304630Y-75627730D01*
X131693663Y-75628069D01*
X132053212Y-75479507D01*
X132328540Y-75204659D01*
X132477730Y-74845370D01*
X132477806Y-74757691D01*
X132849000Y-74757691D01*
X132849000Y-75614250D01*
X133007750Y-75773000D01*
X134373000Y-75773000D01*
X134373000Y-74407750D01*
X134214250Y-74249000D01*
X133357690Y-74249000D01*
X133124301Y-74345673D01*
X132945673Y-74524302D01*
X132849000Y-74757691D01*
X132477806Y-74757691D01*
X132478069Y-74456337D01*
X132329507Y-74096788D01*
X132160000Y-73926985D01*
X132160000Y-73726742D01*
X132285317Y-73703162D01*
X132501441Y-73564090D01*
X132646431Y-73351890D01*
X132697440Y-73100000D01*
X132697440Y-71600000D01*
X132653162Y-71364683D01*
X132514090Y-71148559D01*
X132301890Y-71003569D01*
X132288803Y-71000919D01*
X132501441Y-70864090D01*
X132646431Y-70651890D01*
X132697440Y-70400000D01*
X132697440Y-69508222D01*
X132717852Y-69610839D01*
X132717852Y-69610839D01*
G37*
X132717852Y-69610839D02*
X132882599Y-69857401D01*
X137291974Y-74266776D01*
X137040000Y-74216655D01*
X136408190Y-74342330D01*
X136071999Y-74566966D01*
X136054327Y-74524302D01*
X135875699Y-74345673D01*
X135642310Y-74249000D01*
X134785750Y-74249000D01*
X134627000Y-74407750D01*
X134627000Y-75773000D01*
X134647000Y-75773000D01*
X134647000Y-76027000D01*
X134627000Y-76027000D01*
X134627000Y-77392250D01*
X134785750Y-77551000D01*
X135642310Y-77551000D01*
X135875699Y-77454327D01*
X136054327Y-77275698D01*
X136071999Y-77233034D01*
X136280000Y-77372016D01*
X136280000Y-80133699D01*
X135994160Y-80251806D01*
X135493564Y-80751529D01*
X135222309Y-81404782D01*
X135221692Y-82112114D01*
X135491806Y-82765840D01*
X135991529Y-83266436D01*
X136240000Y-83369610D01*
X136240000Y-86040784D01*
X136154683Y-86056838D01*
X135938559Y-86195910D01*
X135793569Y-86408110D01*
X135742560Y-86660000D01*
X135742560Y-87570000D01*
X135786838Y-87805317D01*
X135925910Y-88021441D01*
X136138110Y-88166431D01*
X136390000Y-88217440D01*
X137610000Y-88217440D01*
X137845317Y-88173162D01*
X138061441Y-88034090D01*
X138206431Y-87821890D01*
X138257440Y-87570000D01*
X138257440Y-86660000D01*
X138251006Y-86625808D01*
X138840000Y-87214802D01*
X138840000Y-88200000D01*
X138897852Y-88490839D01*
X139062599Y-88737401D01*
X139903972Y-89578774D01*
X139885000Y-89575000D01*
X138136148Y-89575000D01*
X138074090Y-89478559D01*
X137861890Y-89333569D01*
X137610000Y-89282560D01*
X136390000Y-89282560D01*
X136154683Y-89326838D01*
X135938559Y-89465910D01*
X135793569Y-89678110D01*
X135742560Y-89930000D01*
X135742560Y-90840000D01*
X135786838Y-91075317D01*
X135925910Y-91291441D01*
X136138110Y-91436431D01*
X136190000Y-91446939D01*
X136190000Y-91664487D01*
X134664488Y-93190000D01*
X133717334Y-93190000D01*
X133703162Y-93114683D01*
X133564090Y-92898559D01*
X133351890Y-92753569D01*
X133100000Y-92702560D01*
X131600000Y-92702560D01*
X131364683Y-92746838D01*
X131148559Y-92885910D01*
X131003569Y-93098110D01*
X131000919Y-93111197D01*
X130864090Y-92898559D01*
X130651890Y-92753569D01*
X130400000Y-92702560D01*
X128900000Y-92702560D01*
X128664683Y-92746838D01*
X128448559Y-92885910D01*
X128303569Y-93098110D01*
X128252560Y-93350000D01*
X128252560Y-94650000D01*
X128296838Y-94885317D01*
X128435910Y-95101441D01*
X128648110Y-95246431D01*
X128738860Y-95264808D01*
X128738860Y-96002510D01*
X128598430Y-96002510D01*
X128363113Y-96046788D01*
X128146989Y-96185860D01*
X128001999Y-96398060D01*
X127950990Y-96649950D01*
X127950990Y-97450050D01*
X127995268Y-97685367D01*
X128134340Y-97901491D01*
X128279437Y-98000632D01*
X128146989Y-98085860D01*
X128111947Y-98137145D01*
X127560000Y-97585198D01*
X127560000Y-88000000D01*
X127502148Y-87709161D01*
X127502148Y-87709160D01*
X127337401Y-87462599D01*
X126894184Y-87019382D01*
X128660223Y-87019382D01*
X128905368Y-87410888D01*
X129949360Y-87837609D01*
X131077181Y-87832330D01*
X132094632Y-87410888D01*
X132339777Y-87019382D01*
X130500000Y-85179605D01*
X128660223Y-87019382D01*
X126894184Y-87019382D01*
X124874802Y-85000000D01*
X125037401Y-84837401D01*
X125049648Y-84819072D01*
X125067248Y-84805796D01*
X125385070Y-84449360D01*
X127662391Y-84449360D01*
X127667670Y-85577181D01*
X128089112Y-86594632D01*
X128480618Y-86839777D01*
X130320395Y-85000000D01*
X130679605Y-85000000D01*
X132519382Y-86839777D01*
X132910888Y-86594632D01*
X133337609Y-85550640D01*
X133332330Y-84422819D01*
X132910888Y-83405368D01*
X132519382Y-83160223D01*
X130679605Y-85000000D01*
X130320395Y-85000000D01*
X128480618Y-83160223D01*
X128089112Y-83405368D01*
X127662391Y-84449360D01*
X125385070Y-84449360D01*
X126067303Y-83684239D01*
X126137401Y-83637401D01*
X126187813Y-83561953D01*
X126820034Y-82980618D01*
X128660223Y-82980618D01*
X130500000Y-84820395D01*
X132339777Y-82980618D01*
X132094632Y-82589112D01*
X131050640Y-82162391D01*
X129922819Y-82167670D01*
X128905368Y-82589112D01*
X128660223Y-82980618D01*
X126820034Y-82980618D01*
X130214415Y-79859444D01*
X130225330Y-79844504D01*
X130240648Y-79834134D01*
X130312428Y-79725286D01*
X130389346Y-79620001D01*
X130393712Y-79602024D01*
X130403898Y-79586578D01*
X130428563Y-79458530D01*
X130459332Y-79331840D01*
X130456486Y-79313562D01*
X130459986Y-79295394D01*
X130441140Y-76185750D01*
X132849000Y-76185750D01*
X132849000Y-77042309D01*
X132945673Y-77275698D01*
X133124301Y-77454327D01*
X133357690Y-77551000D01*
X134214250Y-77551000D01*
X134373000Y-77392250D01*
X134373000Y-76027000D01*
X133007750Y-76027000D01*
X132849000Y-76185750D01*
X130441140Y-76185750D01*
X130425753Y-73646992D01*
X130498110Y-73696431D01*
X130640000Y-73725164D01*
X130640000Y-74171105D01*
X130522270Y-74454630D01*
X130521931Y-74843663D01*
X130670493Y-75203212D01*
X130945341Y-75478540D01*
X131304630Y-75627730D01*
X131693663Y-75628069D01*
X132053212Y-75479507D01*
X132328540Y-75204659D01*
X132477730Y-74845370D01*
X132477806Y-74757691D01*
X132849000Y-74757691D01*
X132849000Y-75614250D01*
X133007750Y-75773000D01*
X134373000Y-75773000D01*
X134373000Y-74407750D01*
X134214250Y-74249000D01*
X133357690Y-74249000D01*
X133124301Y-74345673D01*
X132945673Y-74524302D01*
X132849000Y-74757691D01*
X132477806Y-74757691D01*
X132478069Y-74456337D01*
X132329507Y-74096788D01*
X132160000Y-73926985D01*
X132160000Y-73726742D01*
X132285317Y-73703162D01*
X132501441Y-73564090D01*
X132646431Y-73351890D01*
X132697440Y-73100000D01*
X132697440Y-71600000D01*
X132653162Y-71364683D01*
X132514090Y-71148559D01*
X132301890Y-71003569D01*
X132288803Y-71000919D01*
X132501441Y-70864090D01*
X132646431Y-70651890D01*
X132697440Y-70400000D01*
X132697440Y-69508222D01*
X132717852Y-69610839D01*
G36*
X161521838Y-71735317D02*
X161660910Y-71951441D01*
X161873110Y-72096431D01*
X161940000Y-72109977D01*
X161940000Y-78350000D01*
X162001658Y-78659974D01*
X162085589Y-78785585D01*
X162177244Y-78922756D01*
X163290000Y-80035513D01*
X163290000Y-92020000D01*
X163351658Y-92329974D01*
X163505357Y-92560000D01*
X163527244Y-92592756D01*
X164413368Y-93478881D01*
X164365794Y-93593453D01*
X164365226Y-94243694D01*
X164613538Y-94844655D01*
X164958480Y-95190199D01*
X164615154Y-95532927D01*
X164545779Y-95700000D01*
X163674803Y-95700000D01*
X160837401Y-92862599D01*
X160590839Y-92697852D01*
X160300000Y-92640000D01*
X160091566Y-92640000D01*
X160206431Y-92471890D01*
X160257440Y-92220000D01*
X160257440Y-91310000D01*
X160213162Y-91074683D01*
X160074090Y-90858559D01*
X159861890Y-90713569D01*
X159760000Y-90692936D01*
X159760000Y-89900000D01*
X159702148Y-89609161D01*
X159537401Y-89362599D01*
X157194184Y-87019382D01*
X157660223Y-87019382D01*
X157905368Y-87410888D01*
X158949360Y-87837609D01*
X160077181Y-87832330D01*
X161094632Y-87410888D01*
X161339777Y-87019382D01*
X159500000Y-85179605D01*
X157660223Y-87019382D01*
X157194184Y-87019382D01*
X154624162Y-84449360D01*
X156662391Y-84449360D01*
X156667670Y-85577181D01*
X157089112Y-86594632D01*
X157480618Y-86839777D01*
X159320395Y-85000000D01*
X159679605Y-85000000D01*
X161519382Y-86839777D01*
X161910888Y-86594632D01*
X162337609Y-85550640D01*
X162332330Y-84422819D01*
X161910888Y-83405368D01*
X161519382Y-83160223D01*
X159679605Y-85000000D01*
X159320395Y-85000000D01*
X157480618Y-83160223D01*
X157089112Y-83405368D01*
X156662391Y-84449360D01*
X154624162Y-84449360D01*
X153155420Y-82980618D01*
X157660223Y-82980618D01*
X159500000Y-84820395D01*
X161339777Y-82980618D01*
X161094632Y-82589112D01*
X160050640Y-82162391D01*
X158922819Y-82167670D01*
X157905368Y-82589112D01*
X157660223Y-82980618D01*
X153155420Y-82980618D01*
X153079802Y-82905000D01*
X156505000Y-82905000D01*
X156814974Y-82843342D01*
X157077756Y-82667756D01*
X160608756Y-79136757D01*
X160732435Y-78951658D01*
X160784342Y-78873974D01*
X160846000Y-78564000D01*
X160846000Y-72128253D01*
X160995441Y-72032090D01*
X161140431Y-71819890D01*
X161191440Y-71568000D01*
X161191440Y-71560000D01*
X161488850Y-71560000D01*
X161521838Y-71735317D01*
X161521838Y-71735317D01*
G37*
X161521838Y-71735317D02*
X161660910Y-71951441D01*
X161873110Y-72096431D01*
X161940000Y-72109977D01*
X161940000Y-78350000D01*
X162001658Y-78659974D01*
X162085589Y-78785585D01*
X162177244Y-78922756D01*
X163290000Y-80035513D01*
X163290000Y-92020000D01*
X163351658Y-92329974D01*
X163505357Y-92560000D01*
X163527244Y-92592756D01*
X164413368Y-93478881D01*
X164365794Y-93593453D01*
X164365226Y-94243694D01*
X164613538Y-94844655D01*
X164958480Y-95190199D01*
X164615154Y-95532927D01*
X164545779Y-95700000D01*
X163674803Y-95700000D01*
X160837401Y-92862599D01*
X160590839Y-92697852D01*
X160300000Y-92640000D01*
X160091566Y-92640000D01*
X160206431Y-92471890D01*
X160257440Y-92220000D01*
X160257440Y-91310000D01*
X160213162Y-91074683D01*
X160074090Y-90858559D01*
X159861890Y-90713569D01*
X159760000Y-90692936D01*
X159760000Y-89900000D01*
X159702148Y-89609161D01*
X159537401Y-89362599D01*
X157194184Y-87019382D01*
X157660223Y-87019382D01*
X157905368Y-87410888D01*
X158949360Y-87837609D01*
X160077181Y-87832330D01*
X161094632Y-87410888D01*
X161339777Y-87019382D01*
X159500000Y-85179605D01*
X157660223Y-87019382D01*
X157194184Y-87019382D01*
X154624162Y-84449360D01*
X156662391Y-84449360D01*
X156667670Y-85577181D01*
X157089112Y-86594632D01*
X157480618Y-86839777D01*
X159320395Y-85000000D01*
X159679605Y-85000000D01*
X161519382Y-86839777D01*
X161910888Y-86594632D01*
X162337609Y-85550640D01*
X162332330Y-84422819D01*
X161910888Y-83405368D01*
X161519382Y-83160223D01*
X159679605Y-85000000D01*
X159320395Y-85000000D01*
X157480618Y-83160223D01*
X157089112Y-83405368D01*
X156662391Y-84449360D01*
X154624162Y-84449360D01*
X153155420Y-82980618D01*
X157660223Y-82980618D01*
X159500000Y-84820395D01*
X161339777Y-82980618D01*
X161094632Y-82589112D01*
X160050640Y-82162391D01*
X158922819Y-82167670D01*
X157905368Y-82589112D01*
X157660223Y-82980618D01*
X153155420Y-82980618D01*
X153079802Y-82905000D01*
X156505000Y-82905000D01*
X156814974Y-82843342D01*
X157077756Y-82667756D01*
X160608756Y-79136757D01*
X160732435Y-78951658D01*
X160784342Y-78873974D01*
X160846000Y-78564000D01*
X160846000Y-72128253D01*
X160995441Y-72032090D01*
X161140431Y-71819890D01*
X161191440Y-71568000D01*
X161191440Y-71560000D01*
X161488850Y-71560000D01*
X161521838Y-71735317D01*
G36*
X140618500Y-85524691D02*
X140618500Y-85619250D01*
X140777250Y-85778000D01*
X141698000Y-85778000D01*
X141698000Y-85758000D01*
X141952000Y-85758000D01*
X141952000Y-85778000D01*
X141972000Y-85778000D01*
X141972000Y-86032000D01*
X141952000Y-86032000D01*
X141952000Y-86635250D01*
X142110750Y-86794000D01*
X142522810Y-86794000D01*
X142666731Y-86734386D01*
X142697852Y-86890839D01*
X142862599Y-87137401D01*
X143362599Y-87637401D01*
X143609161Y-87802148D01*
X143900000Y-87860000D01*
X149300000Y-87860000D01*
X149399139Y-87840280D01*
X149499969Y-87833220D01*
X149543323Y-87811600D01*
X149590839Y-87802148D01*
X149674883Y-87745992D01*
X149765339Y-87700882D01*
X149797120Y-87664316D01*
X149837401Y-87637401D01*
X149893555Y-87553360D01*
X149959865Y-87477066D01*
X150423473Y-86665752D01*
X150753212Y-86529507D01*
X151028540Y-86254659D01*
X151177730Y-85895370D01*
X151178069Y-85506337D01*
X151132066Y-85395000D01*
X151920198Y-85395000D01*
X155240000Y-88714802D01*
X155240000Y-90690784D01*
X155154683Y-90706838D01*
X154938559Y-90845910D01*
X154793569Y-91058110D01*
X154742560Y-91310000D01*
X154742560Y-92220000D01*
X154786838Y-92455317D01*
X154905678Y-92640000D01*
X151114802Y-92640000D01*
X149737401Y-91262599D01*
X149490839Y-91097852D01*
X149200000Y-91040000D01*
X143514802Y-91040000D01*
X141085136Y-88610334D01*
X150129677Y-88610334D01*
X150413767Y-89297886D01*
X150939347Y-89824384D01*
X151626402Y-90109674D01*
X152370334Y-90110323D01*
X153057886Y-89826233D01*
X153584384Y-89300653D01*
X153869674Y-88613598D01*
X153870323Y-87869666D01*
X153586233Y-87182114D01*
X153060653Y-86655616D01*
X152373598Y-86370326D01*
X151629666Y-86369677D01*
X150942114Y-86653767D01*
X150415616Y-87179347D01*
X150130326Y-87866402D01*
X150129677Y-88610334D01*
X141085136Y-88610334D01*
X140360000Y-87885198D01*
X140360000Y-86900000D01*
X140302148Y-86609161D01*
X140137401Y-86362599D01*
X139965552Y-86190750D01*
X140618500Y-86190750D01*
X140618500Y-86285309D01*
X140715173Y-86518698D01*
X140893801Y-86697327D01*
X141127190Y-86794000D01*
X141539250Y-86794000D01*
X141698000Y-86635250D01*
X141698000Y-86032000D01*
X140777250Y-86032000D01*
X140618500Y-86190750D01*
X139965552Y-86190750D01*
X139452661Y-85677859D01*
X139693663Y-85678069D01*
X140053212Y-85529507D01*
X140187954Y-85395000D01*
X140672220Y-85395000D01*
X140618500Y-85524691D01*
X140618500Y-85524691D01*
G37*
X140618500Y-85524691D02*
X140618500Y-85619250D01*
X140777250Y-85778000D01*
X141698000Y-85778000D01*
X141698000Y-85758000D01*
X141952000Y-85758000D01*
X141952000Y-85778000D01*
X141972000Y-85778000D01*
X141972000Y-86032000D01*
X141952000Y-86032000D01*
X141952000Y-86635250D01*
X142110750Y-86794000D01*
X142522810Y-86794000D01*
X142666731Y-86734386D01*
X142697852Y-86890839D01*
X142862599Y-87137401D01*
X143362599Y-87637401D01*
X143609161Y-87802148D01*
X143900000Y-87860000D01*
X149300000Y-87860000D01*
X149399139Y-87840280D01*
X149499969Y-87833220D01*
X149543323Y-87811600D01*
X149590839Y-87802148D01*
X149674883Y-87745992D01*
X149765339Y-87700882D01*
X149797120Y-87664316D01*
X149837401Y-87637401D01*
X149893555Y-87553360D01*
X149959865Y-87477066D01*
X150423473Y-86665752D01*
X150753212Y-86529507D01*
X151028540Y-86254659D01*
X151177730Y-85895370D01*
X151178069Y-85506337D01*
X151132066Y-85395000D01*
X151920198Y-85395000D01*
X155240000Y-88714802D01*
X155240000Y-90690784D01*
X155154683Y-90706838D01*
X154938559Y-90845910D01*
X154793569Y-91058110D01*
X154742560Y-91310000D01*
X154742560Y-92220000D01*
X154786838Y-92455317D01*
X154905678Y-92640000D01*
X151114802Y-92640000D01*
X149737401Y-91262599D01*
X149490839Y-91097852D01*
X149200000Y-91040000D01*
X143514802Y-91040000D01*
X141085136Y-88610334D01*
X150129677Y-88610334D01*
X150413767Y-89297886D01*
X150939347Y-89824384D01*
X151626402Y-90109674D01*
X152370334Y-90110323D01*
X153057886Y-89826233D01*
X153584384Y-89300653D01*
X153869674Y-88613598D01*
X153870323Y-87869666D01*
X153586233Y-87182114D01*
X153060653Y-86655616D01*
X152373598Y-86370326D01*
X151629666Y-86369677D01*
X150942114Y-86653767D01*
X150415616Y-87179347D01*
X150130326Y-87866402D01*
X150129677Y-88610334D01*
X141085136Y-88610334D01*
X140360000Y-87885198D01*
X140360000Y-86900000D01*
X140302148Y-86609161D01*
X140137401Y-86362599D01*
X139965552Y-86190750D01*
X140618500Y-86190750D01*
X140618500Y-86285309D01*
X140715173Y-86518698D01*
X140893801Y-86697327D01*
X141127190Y-86794000D01*
X141539250Y-86794000D01*
X141698000Y-86635250D01*
X141698000Y-86032000D01*
X140777250Y-86032000D01*
X140618500Y-86190750D01*
X139965552Y-86190750D01*
X139452661Y-85677859D01*
X139693663Y-85678069D01*
X140053212Y-85529507D01*
X140187954Y-85395000D01*
X140672220Y-85395000D01*
X140618500Y-85524691D01*
G36*
X133547000Y-63933000D02*
X133567000Y-63933000D01*
X133567000Y-64187000D01*
X133547000Y-64187000D01*
X133547000Y-64207000D01*
X133293000Y-64207000D01*
X133293000Y-64187000D01*
X133273000Y-64187000D01*
X133273000Y-63933000D01*
X133293000Y-63933000D01*
X133293000Y-63913000D01*
X133547000Y-63913000D01*
X133547000Y-63933000D01*
X133547000Y-63933000D01*
G37*
X133547000Y-63933000D02*
X133567000Y-63933000D01*
X133567000Y-64187000D01*
X133547000Y-64187000D01*
X133547000Y-64207000D01*
X133293000Y-64207000D01*
X133293000Y-64187000D01*
X133273000Y-64187000D01*
X133273000Y-63933000D01*
X133293000Y-63933000D01*
X133293000Y-63913000D01*
X133547000Y-63913000D01*
X133547000Y-63933000D01*
M02*
