G04 #@! TF.FileFunction,Legend,Bot*
%FSLAX46Y46*%
G04 Gerber Fmt 4.6, Leading zero omitted, Abs format (unit mm)*
G04 Created by KiCad (PCBNEW 4.0.2-4+6225~38~ubuntu14.04.1-stable) date Tue 22 Mar 2016 13:46:15 GMT*
%MOMM*%
G01*
G04 APERTURE LIST*
%ADD10C,0.100000*%
%ADD11C,0.150000*%
G04 APERTURE END LIST*
D10*
D11*
X150990476Y-82385714D02*
X150800000Y-83052381D01*
X150609523Y-82576190D01*
X150419047Y-83052381D01*
X150228571Y-82385714D01*
X149942857Y-82385714D02*
X149752381Y-83052381D01*
X149561904Y-82576190D01*
X149371428Y-83052381D01*
X149180952Y-82385714D01*
X148895238Y-82385714D02*
X148704762Y-83052381D01*
X148514285Y-82576190D01*
X148323809Y-83052381D01*
X148133333Y-82385714D01*
X147752381Y-82957143D02*
X147704762Y-83004762D01*
X147752381Y-83052381D01*
X147800000Y-83004762D01*
X147752381Y-82957143D01*
X147752381Y-83052381D01*
X147419048Y-82385714D02*
X147038096Y-82385714D01*
X147276191Y-82052381D02*
X147276191Y-82909524D01*
X147228572Y-83004762D01*
X147133334Y-83052381D01*
X147038096Y-83052381D01*
X146704762Y-83052381D02*
X146704762Y-82052381D01*
X146276190Y-83052381D02*
X146276190Y-82528571D01*
X146323809Y-82433333D01*
X146419047Y-82385714D01*
X146561905Y-82385714D01*
X146657143Y-82433333D01*
X146704762Y-82480952D01*
X145419047Y-83004762D02*
X145514285Y-83052381D01*
X145704762Y-83052381D01*
X145800000Y-83004762D01*
X145847619Y-82909524D01*
X145847619Y-82528571D01*
X145800000Y-82433333D01*
X145704762Y-82385714D01*
X145514285Y-82385714D01*
X145419047Y-82433333D01*
X145371428Y-82528571D01*
X145371428Y-82623810D01*
X145847619Y-82719048D01*
X144514285Y-83052381D02*
X144514285Y-82528571D01*
X144561904Y-82433333D01*
X144657142Y-82385714D01*
X144847619Y-82385714D01*
X144942857Y-82433333D01*
X144514285Y-83004762D02*
X144609523Y-83052381D01*
X144847619Y-83052381D01*
X144942857Y-83004762D01*
X144990476Y-82909524D01*
X144990476Y-82814286D01*
X144942857Y-82719048D01*
X144847619Y-82671429D01*
X144609523Y-82671429D01*
X144514285Y-82623810D01*
X144038095Y-82385714D02*
X144038095Y-83385714D01*
X144038095Y-82433333D02*
X143942857Y-82385714D01*
X143752380Y-82385714D01*
X143657142Y-82433333D01*
X143609523Y-82480952D01*
X143561904Y-82576190D01*
X143561904Y-82861905D01*
X143609523Y-82957143D01*
X143657142Y-83004762D01*
X143752380Y-83052381D01*
X143942857Y-83052381D01*
X144038095Y-83004762D01*
X143133333Y-83052381D02*
X143133333Y-82385714D01*
X143133333Y-82052381D02*
X143180952Y-82100000D01*
X143133333Y-82147619D01*
X143085714Y-82100000D01*
X143133333Y-82052381D01*
X143133333Y-82147619D01*
X142657143Y-82957143D02*
X142609524Y-83004762D01*
X142657143Y-83052381D01*
X142704762Y-83004762D01*
X142657143Y-82957143D01*
X142657143Y-83052381D01*
X141752381Y-83004762D02*
X141847619Y-83052381D01*
X142038096Y-83052381D01*
X142133334Y-83004762D01*
X142180953Y-82957143D01*
X142228572Y-82861905D01*
X142228572Y-82576190D01*
X142180953Y-82480952D01*
X142133334Y-82433333D01*
X142038096Y-82385714D01*
X141847619Y-82385714D01*
X141752381Y-82433333D01*
X141180953Y-83052381D02*
X141276191Y-83004762D01*
X141323810Y-82957143D01*
X141371429Y-82861905D01*
X141371429Y-82576190D01*
X141323810Y-82480952D01*
X141276191Y-82433333D01*
X141180953Y-82385714D01*
X141038095Y-82385714D01*
X140942857Y-82433333D01*
X140895238Y-82480952D01*
X140847619Y-82576190D01*
X140847619Y-82861905D01*
X140895238Y-82957143D01*
X140942857Y-83004762D01*
X141038095Y-83052381D01*
X141180953Y-83052381D01*
X140419048Y-82957143D02*
X140371429Y-83004762D01*
X140419048Y-83052381D01*
X140466667Y-83004762D01*
X140419048Y-82957143D01*
X140419048Y-83052381D01*
X139514286Y-82385714D02*
X139514286Y-83052381D01*
X139942858Y-82385714D02*
X139942858Y-82909524D01*
X139895239Y-83004762D01*
X139800001Y-83052381D01*
X139657143Y-83052381D01*
X139561905Y-83004762D01*
X139514286Y-82957143D01*
X139038096Y-83052381D02*
X139038096Y-82052381D01*
X138942858Y-82671429D02*
X138657143Y-83052381D01*
X138657143Y-82385714D02*
X139038096Y-82766667D01*
X153056549Y-81052381D02*
X153330359Y-80576190D01*
X153627978Y-81052381D02*
X153502978Y-80052381D01*
X153122025Y-80052381D01*
X153032739Y-80100000D01*
X152991072Y-80147619D01*
X152955358Y-80242857D01*
X152973215Y-80385714D01*
X153032739Y-80480952D01*
X153086310Y-80528571D01*
X153187501Y-80576190D01*
X153568454Y-80576190D01*
X152044644Y-80957143D02*
X152098215Y-81004762D01*
X152247025Y-81052381D01*
X152342263Y-81052381D01*
X152479168Y-81004762D01*
X152562501Y-80909524D01*
X152598216Y-80814286D01*
X152622025Y-80623810D01*
X152604168Y-80480952D01*
X152532739Y-80290476D01*
X152473216Y-80195238D01*
X152366073Y-80100000D01*
X152217263Y-80052381D01*
X152122025Y-80052381D01*
X151985120Y-80100000D01*
X151943453Y-80147619D01*
X150866073Y-81052381D02*
X150741073Y-80052381D01*
X150360120Y-80052381D01*
X150270834Y-80100000D01*
X150229167Y-80147619D01*
X150193453Y-80242857D01*
X150211310Y-80385714D01*
X150270834Y-80480952D01*
X150324405Y-80528571D01*
X150425596Y-80576190D01*
X150806549Y-80576190D01*
X149723216Y-81052381D02*
X149812501Y-81004762D01*
X149854168Y-80957143D01*
X149889882Y-80861905D01*
X149854168Y-80576190D01*
X149794644Y-80480952D01*
X149741073Y-80433333D01*
X149639882Y-80385714D01*
X149497024Y-80385714D01*
X149407739Y-80433333D01*
X149366072Y-80480952D01*
X149330358Y-80576190D01*
X149366072Y-80861905D01*
X149425596Y-80957143D01*
X149479167Y-81004762D01*
X149580358Y-81052381D01*
X149723216Y-81052381D01*
X148973215Y-80385714D02*
X148866073Y-81052381D01*
X148616072Y-80576190D01*
X148485120Y-81052381D01*
X148211310Y-80385714D01*
X147526786Y-81004762D02*
X147627977Y-81052381D01*
X147818454Y-81052381D01*
X147907739Y-81004762D01*
X147943453Y-80909524D01*
X147895834Y-80528571D01*
X147836311Y-80433333D01*
X147735120Y-80385714D01*
X147544643Y-80385714D01*
X147455358Y-80433333D01*
X147419643Y-80528571D01*
X147431548Y-80623810D01*
X147919644Y-80719048D01*
X147056549Y-81052381D02*
X146973215Y-80385714D01*
X146997025Y-80576190D02*
X146937501Y-80480952D01*
X146883930Y-80433333D01*
X146782739Y-80385714D01*
X146687500Y-80385714D01*
X145717262Y-81004762D02*
X145580358Y-81052381D01*
X145342262Y-81052381D01*
X145241071Y-81004762D01*
X145187500Y-80957143D01*
X145127976Y-80861905D01*
X145116071Y-80766667D01*
X145151786Y-80671429D01*
X145193452Y-80623810D01*
X145282738Y-80576190D01*
X145467262Y-80528571D01*
X145556548Y-80480952D01*
X145598215Y-80433333D01*
X145633929Y-80338095D01*
X145622024Y-80242857D01*
X145562500Y-80147619D01*
X145508929Y-80100000D01*
X145407739Y-80052381D01*
X145169643Y-80052381D01*
X145032738Y-80100000D01*
X144580358Y-81052381D02*
X144669643Y-81004762D01*
X144711310Y-80957143D01*
X144747024Y-80861905D01*
X144711310Y-80576190D01*
X144651786Y-80480952D01*
X144598215Y-80433333D01*
X144497024Y-80385714D01*
X144354166Y-80385714D01*
X144264881Y-80433333D01*
X144223214Y-80480952D01*
X144187500Y-80576190D01*
X144223214Y-80861905D01*
X144282738Y-80957143D01*
X144336309Y-81004762D01*
X144437500Y-81052381D01*
X144580358Y-81052381D01*
X143383928Y-81004762D02*
X143485119Y-81052381D01*
X143675596Y-81052381D01*
X143764881Y-81004762D01*
X143806548Y-80957143D01*
X143842262Y-80861905D01*
X143806548Y-80576190D01*
X143747024Y-80480952D01*
X143693453Y-80433333D01*
X143592262Y-80385714D01*
X143401785Y-80385714D01*
X143312500Y-80433333D01*
X142961310Y-81052381D02*
X142836310Y-80052381D01*
X142818453Y-80671429D02*
X142580357Y-81052381D01*
X142497023Y-80385714D02*
X142925595Y-80766667D01*
X141764880Y-81004762D02*
X141866071Y-81052381D01*
X142056548Y-81052381D01*
X142145833Y-81004762D01*
X142181547Y-80909524D01*
X142133928Y-80528571D01*
X142074405Y-80433333D01*
X141973214Y-80385714D01*
X141782737Y-80385714D01*
X141693452Y-80433333D01*
X141657737Y-80528571D01*
X141669642Y-80623810D01*
X142157738Y-80719048D01*
X141354166Y-80385714D02*
X140973214Y-80385714D01*
X141169643Y-80052381D02*
X141276785Y-80909524D01*
X141241071Y-81004762D01*
X141151786Y-81052381D01*
X141056548Y-81052381D01*
X140764880Y-81004762D02*
X140675595Y-81052381D01*
X140485119Y-81052381D01*
X140383927Y-81004762D01*
X140324403Y-80909524D01*
X140318451Y-80861905D01*
X140354165Y-80766667D01*
X140443452Y-80719048D01*
X140586309Y-80719048D01*
X140675595Y-80671429D01*
X140711309Y-80576190D01*
X140705356Y-80528571D01*
X140645833Y-80433333D01*
X140544642Y-80385714D01*
X140401785Y-80385714D01*
X140312499Y-80433333D01*
X139163689Y-80385714D02*
X139008928Y-81052381D01*
X138687498Y-80385714D01*
X137866070Y-81052381D02*
X138437499Y-81052381D01*
X138151785Y-81052381D02*
X138026785Y-80052381D01*
X138139880Y-80195238D01*
X138247022Y-80290476D01*
X138348213Y-80338095D01*
X137425594Y-80957143D02*
X137383927Y-81004762D01*
X137437499Y-81052381D01*
X137479165Y-81004762D01*
X137425594Y-80957143D01*
X137437499Y-81052381D01*
X136645833Y-80052381D02*
X136550594Y-80052381D01*
X136461308Y-80100000D01*
X136419641Y-80147619D01*
X136383927Y-80242857D01*
X136360118Y-80433333D01*
X136389880Y-80671429D01*
X136461308Y-80861905D01*
X136520832Y-80957143D01*
X136574403Y-81004762D01*
X136675594Y-81052381D01*
X136770833Y-81052381D01*
X136860118Y-81004762D01*
X136901785Y-80957143D01*
X136937499Y-80861905D01*
X136961309Y-80671429D01*
X136931547Y-80433333D01*
X136860118Y-80242857D01*
X136800594Y-80147619D01*
X136747023Y-80100000D01*
X136645833Y-80052381D01*
X141952381Y-96666667D02*
X142952381Y-97000000D01*
X141952381Y-97333334D01*
X142857143Y-98238096D02*
X142904762Y-98190477D01*
X142952381Y-98047620D01*
X142952381Y-97952382D01*
X142904762Y-97809524D01*
X142809524Y-97714286D01*
X142714286Y-97666667D01*
X142523810Y-97619048D01*
X142380952Y-97619048D01*
X142190476Y-97666667D01*
X142095238Y-97714286D01*
X142000000Y-97809524D01*
X141952381Y-97952382D01*
X141952381Y-98047620D01*
X142000000Y-98190477D01*
X142047619Y-98238096D01*
X142857143Y-99238096D02*
X142904762Y-99190477D01*
X142952381Y-99047620D01*
X142952381Y-98952382D01*
X142904762Y-98809524D01*
X142809524Y-98714286D01*
X142714286Y-98666667D01*
X142523810Y-98619048D01*
X142380952Y-98619048D01*
X142190476Y-98666667D01*
X142095238Y-98714286D01*
X142000000Y-98809524D01*
X141952381Y-98952382D01*
X141952381Y-99047620D01*
X142000000Y-99190477D01*
X142047619Y-99238096D01*
X144452381Y-97000000D02*
X144452381Y-97190477D01*
X144500000Y-97285715D01*
X144595238Y-97380953D01*
X144785714Y-97428572D01*
X145119048Y-97428572D01*
X145309524Y-97380953D01*
X145404762Y-97285715D01*
X145452381Y-97190477D01*
X145452381Y-97000000D01*
X145404762Y-96904762D01*
X145309524Y-96809524D01*
X145119048Y-96761905D01*
X144785714Y-96761905D01*
X144595238Y-96809524D01*
X144500000Y-96904762D01*
X144452381Y-97000000D01*
X144452381Y-97857143D02*
X145261905Y-97857143D01*
X145357143Y-97904762D01*
X145404762Y-97952381D01*
X145452381Y-98047619D01*
X145452381Y-98238096D01*
X145404762Y-98333334D01*
X145357143Y-98380953D01*
X145261905Y-98428572D01*
X144452381Y-98428572D01*
X144452381Y-98761905D02*
X144452381Y-99333334D01*
X145452381Y-99047619D02*
X144452381Y-99047619D01*
X147000000Y-97238096D02*
X146952381Y-97142858D01*
X146952381Y-97000001D01*
X147000000Y-96857143D01*
X147095238Y-96761905D01*
X147190476Y-96714286D01*
X147380952Y-96666667D01*
X147523810Y-96666667D01*
X147714286Y-96714286D01*
X147809524Y-96761905D01*
X147904762Y-96857143D01*
X147952381Y-97000001D01*
X147952381Y-97095239D01*
X147904762Y-97238096D01*
X147857143Y-97285715D01*
X147523810Y-97285715D01*
X147523810Y-97095239D01*
X147952381Y-97714286D02*
X146952381Y-97714286D01*
X147952381Y-98285715D01*
X146952381Y-98285715D01*
X147952381Y-98761905D02*
X146952381Y-98761905D01*
X146952381Y-99000000D01*
X147000000Y-99142858D01*
X147095238Y-99238096D01*
X147190476Y-99285715D01*
X147380952Y-99333334D01*
X147523810Y-99333334D01*
X147714286Y-99285715D01*
X147809524Y-99238096D01*
X147904762Y-99142858D01*
X147952381Y-99000000D01*
X147952381Y-98761905D01*
X147500000Y-92950000D02*
X149050000Y-92950000D01*
X149050000Y-92950000D02*
X149050000Y-96050000D01*
X149050000Y-96050000D02*
X147500000Y-96050000D01*
X146230000Y-93230000D02*
X141150000Y-93230000D01*
X141150000Y-93230000D02*
X141150000Y-95770000D01*
X141150000Y-95770000D02*
X146230000Y-95770000D01*
X146230000Y-95770000D02*
X146230000Y-93230000D01*
X146000000Y-92202381D02*
X146000000Y-91202381D01*
X145619047Y-91202381D01*
X145523809Y-91250000D01*
X145476190Y-91297619D01*
X145428571Y-91392857D01*
X145428571Y-91535714D01*
X145476190Y-91630952D01*
X145523809Y-91678571D01*
X145619047Y-91726190D01*
X146000000Y-91726190D01*
X145000000Y-92202381D02*
X145000000Y-91202381D01*
X143952381Y-92202381D02*
X144285715Y-91726190D01*
X144523810Y-92202381D02*
X144523810Y-91202381D01*
X144142857Y-91202381D01*
X144047619Y-91250000D01*
X144000000Y-91297619D01*
X143952381Y-91392857D01*
X143952381Y-91535714D01*
X144000000Y-91630952D01*
X144047619Y-91678571D01*
X144142857Y-91726190D01*
X144523810Y-91726190D01*
M02*
