M48
;DRILL file {KiCad 4.0.2-4+6225~38~ubuntu14.04.1-stable} date Tue 22 Mar 2016 13:46:37 GMT
;FORMAT={-:-/ absolute / metric / decimal}
FMAT,2
METRIC,TZ
T1C0.400
T2C1.016
T3C1.199
T4C3.200
%
G90
G05
M71
T1
X131.75Y-76.25
X134.25Y-70.25
X136.Y-75.5
X146.Y-68.
X154.Y-72.75
X162.Y-76.
T2
X123.Y-82.92
X123.Y-85.46
X123.Y-88.
X142.Y-62.46
X142.Y-65.
X142.42Y-94.5
X144.Y-106.
X144.54Y-62.46
X144.54Y-65.
X144.96Y-94.5
X146.54Y-106.
X147.08Y-62.46
X147.08Y-65.
X147.5Y-94.5
X167.Y-83.
X167.Y-85.54
X167.Y-88.08
T3
X124.Y-70.92
X124.Y-73.46
X124.Y-76.
T4
X124.Y-64.
X124.Y-106.
X166.Y-64.
X166.Y-106.
T0
M30
