G04 #@! TF.FileFunction,Legend,Bot*
%FSLAX46Y46*%
G04 Gerber Fmt 4.6, Leading zero omitted, Abs format (unit mm)*
G04 Created by KiCad (PCBNEW 4.0.2-4+6225~38~ubuntu14.04.1-stable) date Thu 24 Mar 2016 13:26:21 GMT*
%MOMM*%
G01*
G04 APERTURE LIST*
%ADD10C,0.100000*%
%ADD11C,0.150000*%
G04 APERTURE END LIST*
D10*
D11*
X150940476Y-84785714D02*
X150750000Y-85452381D01*
X150559523Y-84976190D01*
X150369047Y-85452381D01*
X150178571Y-84785714D01*
X149892857Y-84785714D02*
X149702381Y-85452381D01*
X149511904Y-84976190D01*
X149321428Y-85452381D01*
X149130952Y-84785714D01*
X148845238Y-84785714D02*
X148654762Y-85452381D01*
X148464285Y-84976190D01*
X148273809Y-85452381D01*
X148083333Y-84785714D01*
X147702381Y-85357143D02*
X147654762Y-85404762D01*
X147702381Y-85452381D01*
X147750000Y-85404762D01*
X147702381Y-85357143D01*
X147702381Y-85452381D01*
X147369048Y-84785714D02*
X146988096Y-84785714D01*
X147226191Y-84452381D02*
X147226191Y-85309524D01*
X147178572Y-85404762D01*
X147083334Y-85452381D01*
X146988096Y-85452381D01*
X146654762Y-85452381D02*
X146654762Y-84452381D01*
X146226190Y-85452381D02*
X146226190Y-84928571D01*
X146273809Y-84833333D01*
X146369047Y-84785714D01*
X146511905Y-84785714D01*
X146607143Y-84833333D01*
X146654762Y-84880952D01*
X145369047Y-85404762D02*
X145464285Y-85452381D01*
X145654762Y-85452381D01*
X145750000Y-85404762D01*
X145797619Y-85309524D01*
X145797619Y-84928571D01*
X145750000Y-84833333D01*
X145654762Y-84785714D01*
X145464285Y-84785714D01*
X145369047Y-84833333D01*
X145321428Y-84928571D01*
X145321428Y-85023810D01*
X145797619Y-85119048D01*
X144464285Y-85452381D02*
X144464285Y-84928571D01*
X144511904Y-84833333D01*
X144607142Y-84785714D01*
X144797619Y-84785714D01*
X144892857Y-84833333D01*
X144464285Y-85404762D02*
X144559523Y-85452381D01*
X144797619Y-85452381D01*
X144892857Y-85404762D01*
X144940476Y-85309524D01*
X144940476Y-85214286D01*
X144892857Y-85119048D01*
X144797619Y-85071429D01*
X144559523Y-85071429D01*
X144464285Y-85023810D01*
X143988095Y-84785714D02*
X143988095Y-85785714D01*
X143988095Y-84833333D02*
X143892857Y-84785714D01*
X143702380Y-84785714D01*
X143607142Y-84833333D01*
X143559523Y-84880952D01*
X143511904Y-84976190D01*
X143511904Y-85261905D01*
X143559523Y-85357143D01*
X143607142Y-85404762D01*
X143702380Y-85452381D01*
X143892857Y-85452381D01*
X143988095Y-85404762D01*
X143083333Y-85452381D02*
X143083333Y-84785714D01*
X143083333Y-84452381D02*
X143130952Y-84500000D01*
X143083333Y-84547619D01*
X143035714Y-84500000D01*
X143083333Y-84452381D01*
X143083333Y-84547619D01*
X142607143Y-85357143D02*
X142559524Y-85404762D01*
X142607143Y-85452381D01*
X142654762Y-85404762D01*
X142607143Y-85357143D01*
X142607143Y-85452381D01*
X141702381Y-85404762D02*
X141797619Y-85452381D01*
X141988096Y-85452381D01*
X142083334Y-85404762D01*
X142130953Y-85357143D01*
X142178572Y-85261905D01*
X142178572Y-84976190D01*
X142130953Y-84880952D01*
X142083334Y-84833333D01*
X141988096Y-84785714D01*
X141797619Y-84785714D01*
X141702381Y-84833333D01*
X141130953Y-85452381D02*
X141226191Y-85404762D01*
X141273810Y-85357143D01*
X141321429Y-85261905D01*
X141321429Y-84976190D01*
X141273810Y-84880952D01*
X141226191Y-84833333D01*
X141130953Y-84785714D01*
X140988095Y-84785714D01*
X140892857Y-84833333D01*
X140845238Y-84880952D01*
X140797619Y-84976190D01*
X140797619Y-85261905D01*
X140845238Y-85357143D01*
X140892857Y-85404762D01*
X140988095Y-85452381D01*
X141130953Y-85452381D01*
X140369048Y-85357143D02*
X140321429Y-85404762D01*
X140369048Y-85452381D01*
X140416667Y-85404762D01*
X140369048Y-85357143D01*
X140369048Y-85452381D01*
X139464286Y-84785714D02*
X139464286Y-85452381D01*
X139892858Y-84785714D02*
X139892858Y-85309524D01*
X139845239Y-85404762D01*
X139750001Y-85452381D01*
X139607143Y-85452381D01*
X139511905Y-85404762D01*
X139464286Y-85357143D01*
X138988096Y-85452381D02*
X138988096Y-84452381D01*
X138892858Y-85071429D02*
X138607143Y-85452381D01*
X138607143Y-84785714D02*
X138988096Y-85166667D01*
X162380954Y-78952381D02*
X162380954Y-77952381D01*
X161952382Y-78952381D02*
X161952382Y-78428571D01*
X162000001Y-78333333D01*
X162095239Y-78285714D01*
X162238097Y-78285714D01*
X162333335Y-78333333D01*
X162380954Y-78380952D01*
X161619049Y-78285714D02*
X161238097Y-78285714D01*
X161476192Y-77952381D02*
X161476192Y-78809524D01*
X161428573Y-78904762D01*
X161333335Y-78952381D01*
X161238097Y-78952381D01*
X161047620Y-78285714D02*
X160666668Y-78285714D01*
X160904763Y-77952381D02*
X160904763Y-78809524D01*
X160857144Y-78904762D01*
X160761906Y-78952381D01*
X160666668Y-78952381D01*
X160333334Y-78285714D02*
X160333334Y-79285714D01*
X160333334Y-78333333D02*
X160238096Y-78285714D01*
X160047619Y-78285714D01*
X159952381Y-78333333D01*
X159904762Y-78380952D01*
X159857143Y-78476190D01*
X159857143Y-78761905D01*
X159904762Y-78857143D01*
X159952381Y-78904762D01*
X160047619Y-78952381D01*
X160238096Y-78952381D01*
X160333334Y-78904762D01*
X159476191Y-78904762D02*
X159380953Y-78952381D01*
X159190477Y-78952381D01*
X159095238Y-78904762D01*
X159047619Y-78809524D01*
X159047619Y-78761905D01*
X159095238Y-78666667D01*
X159190477Y-78619048D01*
X159333334Y-78619048D01*
X159428572Y-78571429D01*
X159476191Y-78476190D01*
X159476191Y-78428571D01*
X159428572Y-78333333D01*
X159333334Y-78285714D01*
X159190477Y-78285714D01*
X159095238Y-78333333D01*
X158619048Y-78857143D02*
X158571429Y-78904762D01*
X158619048Y-78952381D01*
X158666667Y-78904762D01*
X158619048Y-78857143D01*
X158619048Y-78952381D01*
X158619048Y-78333333D02*
X158571429Y-78380952D01*
X158619048Y-78428571D01*
X158666667Y-78380952D01*
X158619048Y-78333333D01*
X158619048Y-78428571D01*
X157428572Y-77904762D02*
X158285715Y-79190476D01*
X156380953Y-77904762D02*
X157238096Y-79190476D01*
X155619048Y-78285714D02*
X155619048Y-79095238D01*
X155666667Y-79190476D01*
X155714286Y-79238095D01*
X155809525Y-79285714D01*
X155952382Y-79285714D01*
X156047620Y-79238095D01*
X155619048Y-78904762D02*
X155714286Y-78952381D01*
X155904763Y-78952381D01*
X156000001Y-78904762D01*
X156047620Y-78857143D01*
X156095239Y-78761905D01*
X156095239Y-78476190D01*
X156047620Y-78380952D01*
X156000001Y-78333333D01*
X155904763Y-78285714D01*
X155714286Y-78285714D01*
X155619048Y-78333333D01*
X155142858Y-78952381D02*
X155142858Y-78285714D01*
X155142858Y-77952381D02*
X155190477Y-78000000D01*
X155142858Y-78047619D01*
X155095239Y-78000000D01*
X155142858Y-77952381D01*
X155142858Y-78047619D01*
X154809525Y-78285714D02*
X154428573Y-78285714D01*
X154666668Y-77952381D02*
X154666668Y-78809524D01*
X154619049Y-78904762D01*
X154523811Y-78952381D01*
X154428573Y-78952381D01*
X154095239Y-78952381D02*
X154095239Y-77952381D01*
X153666667Y-78952381D02*
X153666667Y-78428571D01*
X153714286Y-78333333D01*
X153809524Y-78285714D01*
X153952382Y-78285714D01*
X154047620Y-78333333D01*
X154095239Y-78380952D01*
X152761905Y-78285714D02*
X152761905Y-78952381D01*
X153190477Y-78285714D02*
X153190477Y-78809524D01*
X153142858Y-78904762D01*
X153047620Y-78952381D01*
X152904762Y-78952381D01*
X152809524Y-78904762D01*
X152761905Y-78857143D01*
X152285715Y-78952381D02*
X152285715Y-77952381D01*
X152285715Y-78333333D02*
X152190477Y-78285714D01*
X152000000Y-78285714D01*
X151904762Y-78333333D01*
X151857143Y-78380952D01*
X151809524Y-78476190D01*
X151809524Y-78761905D01*
X151857143Y-78857143D01*
X151904762Y-78904762D01*
X152000000Y-78952381D01*
X152190477Y-78952381D01*
X152285715Y-78904762D01*
X151380953Y-78857143D02*
X151333334Y-78904762D01*
X151380953Y-78952381D01*
X151428572Y-78904762D01*
X151380953Y-78857143D01*
X151380953Y-78952381D01*
X150476191Y-78904762D02*
X150571429Y-78952381D01*
X150761906Y-78952381D01*
X150857144Y-78904762D01*
X150904763Y-78857143D01*
X150952382Y-78761905D01*
X150952382Y-78476190D01*
X150904763Y-78380952D01*
X150857144Y-78333333D01*
X150761906Y-78285714D01*
X150571429Y-78285714D01*
X150476191Y-78333333D01*
X149904763Y-78952381D02*
X150000001Y-78904762D01*
X150047620Y-78857143D01*
X150095239Y-78761905D01*
X150095239Y-78476190D01*
X150047620Y-78380952D01*
X150000001Y-78333333D01*
X149904763Y-78285714D01*
X149761905Y-78285714D01*
X149666667Y-78333333D01*
X149619048Y-78380952D01*
X149571429Y-78476190D01*
X149571429Y-78761905D01*
X149619048Y-78857143D01*
X149666667Y-78904762D01*
X149761905Y-78952381D01*
X149904763Y-78952381D01*
X149142858Y-78952381D02*
X149142858Y-78285714D01*
X149142858Y-78380952D02*
X149095239Y-78333333D01*
X149000001Y-78285714D01*
X148857143Y-78285714D01*
X148761905Y-78333333D01*
X148714286Y-78428571D01*
X148714286Y-78952381D01*
X148714286Y-78428571D02*
X148666667Y-78333333D01*
X148571429Y-78285714D01*
X148428572Y-78285714D01*
X148333334Y-78333333D01*
X148285715Y-78428571D01*
X148285715Y-78952381D01*
X147095239Y-77904762D02*
X147952382Y-79190476D01*
X146904763Y-78285714D02*
X146523811Y-78285714D01*
X146761906Y-77952381D02*
X146761906Y-78809524D01*
X146714287Y-78904762D01*
X146619049Y-78952381D01*
X146523811Y-78952381D01*
X146190477Y-78952381D02*
X146190477Y-77952381D01*
X145761905Y-78952381D02*
X145761905Y-78428571D01*
X145809524Y-78333333D01*
X145904762Y-78285714D01*
X146047620Y-78285714D01*
X146142858Y-78333333D01*
X146190477Y-78380952D01*
X144904762Y-78904762D02*
X145000000Y-78952381D01*
X145190477Y-78952381D01*
X145285715Y-78904762D01*
X145333334Y-78809524D01*
X145333334Y-78428571D01*
X145285715Y-78333333D01*
X145190477Y-78285714D01*
X145000000Y-78285714D01*
X144904762Y-78333333D01*
X144857143Y-78428571D01*
X144857143Y-78523810D01*
X145333334Y-78619048D01*
X144000000Y-78952381D02*
X144000000Y-78428571D01*
X144047619Y-78333333D01*
X144142857Y-78285714D01*
X144333334Y-78285714D01*
X144428572Y-78333333D01*
X144000000Y-78904762D02*
X144095238Y-78952381D01*
X144333334Y-78952381D01*
X144428572Y-78904762D01*
X144476191Y-78809524D01*
X144476191Y-78714286D01*
X144428572Y-78619048D01*
X144333334Y-78571429D01*
X144095238Y-78571429D01*
X144000000Y-78523810D01*
X143523810Y-78285714D02*
X143523810Y-79285714D01*
X143523810Y-78333333D02*
X143428572Y-78285714D01*
X143238095Y-78285714D01*
X143142857Y-78333333D01*
X143095238Y-78380952D01*
X143047619Y-78476190D01*
X143047619Y-78761905D01*
X143095238Y-78857143D01*
X143142857Y-78904762D01*
X143238095Y-78952381D01*
X143428572Y-78952381D01*
X143523810Y-78904762D01*
X142619048Y-78952381D02*
X142619048Y-78285714D01*
X142619048Y-77952381D02*
X142666667Y-78000000D01*
X142619048Y-78047619D01*
X142571429Y-78000000D01*
X142619048Y-77952381D01*
X142619048Y-78047619D01*
X141428572Y-77904762D02*
X142285715Y-79190476D01*
X141095239Y-78952381D02*
X141095239Y-78285714D01*
X141095239Y-78476190D02*
X141047620Y-78380952D01*
X141000001Y-78333333D01*
X140904763Y-78285714D01*
X140809524Y-78285714D01*
X140047619Y-78904762D02*
X140142857Y-78952381D01*
X140333334Y-78952381D01*
X140428572Y-78904762D01*
X140476191Y-78857143D01*
X140523810Y-78761905D01*
X140523810Y-78476190D01*
X140476191Y-78380952D01*
X140428572Y-78333333D01*
X140333334Y-78285714D01*
X140142857Y-78285714D01*
X140047619Y-78333333D01*
X139857143Y-79047619D02*
X139095238Y-79047619D01*
X138857143Y-78285714D02*
X138857143Y-79285714D01*
X138857143Y-78333333D02*
X138761905Y-78285714D01*
X138571428Y-78285714D01*
X138476190Y-78333333D01*
X138428571Y-78380952D01*
X138380952Y-78476190D01*
X138380952Y-78761905D01*
X138428571Y-78857143D01*
X138476190Y-78904762D01*
X138571428Y-78952381D01*
X138761905Y-78952381D01*
X138857143Y-78904762D01*
X137809524Y-78952381D02*
X137904762Y-78904762D01*
X137952381Y-78857143D01*
X138000000Y-78761905D01*
X138000000Y-78476190D01*
X137952381Y-78380952D01*
X137904762Y-78333333D01*
X137809524Y-78285714D01*
X137666666Y-78285714D01*
X137571428Y-78333333D01*
X137523809Y-78380952D01*
X137476190Y-78476190D01*
X137476190Y-78761905D01*
X137523809Y-78857143D01*
X137571428Y-78904762D01*
X137666666Y-78952381D01*
X137809524Y-78952381D01*
X137142857Y-78285714D02*
X136952381Y-78952381D01*
X136761904Y-78476190D01*
X136571428Y-78952381D01*
X136380952Y-78285714D01*
X135619047Y-78904762D02*
X135714285Y-78952381D01*
X135904762Y-78952381D01*
X136000000Y-78904762D01*
X136047619Y-78809524D01*
X136047619Y-78428571D01*
X136000000Y-78333333D01*
X135904762Y-78285714D01*
X135714285Y-78285714D01*
X135619047Y-78333333D01*
X135571428Y-78428571D01*
X135571428Y-78523810D01*
X136047619Y-78619048D01*
X135142857Y-78952381D02*
X135142857Y-78285714D01*
X135142857Y-78476190D02*
X135095238Y-78380952D01*
X135047619Y-78333333D01*
X134952381Y-78285714D01*
X134857142Y-78285714D01*
X134761904Y-79047619D02*
X133999999Y-79047619D01*
X133809523Y-78904762D02*
X133714285Y-78952381D01*
X133523809Y-78952381D01*
X133428570Y-78904762D01*
X133380951Y-78809524D01*
X133380951Y-78761905D01*
X133428570Y-78666667D01*
X133523809Y-78619048D01*
X133666666Y-78619048D01*
X133761904Y-78571429D01*
X133809523Y-78476190D01*
X133809523Y-78428571D01*
X133761904Y-78333333D01*
X133666666Y-78285714D01*
X133523809Y-78285714D01*
X133428570Y-78333333D01*
X132809523Y-78952381D02*
X132904761Y-78904762D01*
X132952380Y-78857143D01*
X132999999Y-78761905D01*
X132999999Y-78476190D01*
X132952380Y-78380952D01*
X132904761Y-78333333D01*
X132809523Y-78285714D01*
X132666665Y-78285714D01*
X132571427Y-78333333D01*
X132523808Y-78380952D01*
X132476189Y-78476190D01*
X132476189Y-78761905D01*
X132523808Y-78857143D01*
X132571427Y-78904762D01*
X132666665Y-78952381D01*
X132809523Y-78952381D01*
X131619046Y-78904762D02*
X131714284Y-78952381D01*
X131904761Y-78952381D01*
X131999999Y-78904762D01*
X132047618Y-78857143D01*
X132095237Y-78761905D01*
X132095237Y-78476190D01*
X132047618Y-78380952D01*
X131999999Y-78333333D01*
X131904761Y-78285714D01*
X131714284Y-78285714D01*
X131619046Y-78333333D01*
X131190475Y-78952381D02*
X131190475Y-77952381D01*
X131095237Y-78571429D02*
X130809522Y-78952381D01*
X130809522Y-78285714D02*
X131190475Y-78666667D01*
X129999998Y-78904762D02*
X130095236Y-78952381D01*
X130285713Y-78952381D01*
X130380951Y-78904762D01*
X130428570Y-78809524D01*
X130428570Y-78428571D01*
X130380951Y-78333333D01*
X130285713Y-78285714D01*
X130095236Y-78285714D01*
X129999998Y-78333333D01*
X129952379Y-78428571D01*
X129952379Y-78523810D01*
X130428570Y-78619048D01*
X129666665Y-78285714D02*
X129285713Y-78285714D01*
X129523808Y-77952381D02*
X129523808Y-78809524D01*
X129476189Y-78904762D01*
X129380951Y-78952381D01*
X129285713Y-78952381D01*
X128999998Y-78904762D02*
X128904760Y-78952381D01*
X128714284Y-78952381D01*
X128619045Y-78904762D01*
X128571426Y-78809524D01*
X128571426Y-78761905D01*
X128619045Y-78666667D01*
X128714284Y-78619048D01*
X128857141Y-78619048D01*
X128952379Y-78571429D01*
X128999998Y-78476190D01*
X128999998Y-78428571D01*
X128952379Y-78333333D01*
X128857141Y-78285714D01*
X128714284Y-78285714D01*
X128619045Y-78333333D01*
X140068453Y-81452381D02*
X139943453Y-80452381D01*
X139699404Y-81166667D01*
X139276786Y-80452381D01*
X139401786Y-81452381D01*
X138497024Y-81452381D02*
X138431547Y-80928571D01*
X138467262Y-80833333D01*
X138556547Y-80785714D01*
X138747024Y-80785714D01*
X138848215Y-80833333D01*
X138491071Y-81404762D02*
X138592262Y-81452381D01*
X138830358Y-81452381D01*
X138919643Y-81404762D01*
X138955357Y-81309524D01*
X138943453Y-81214286D01*
X138883929Y-81119048D01*
X138782739Y-81071429D01*
X138544643Y-81071429D01*
X138443452Y-81023810D01*
X138020834Y-81452381D02*
X137937500Y-80785714D01*
X137961310Y-80976190D02*
X137901786Y-80880952D01*
X137848215Y-80833333D01*
X137747024Y-80785714D01*
X137651785Y-80785714D01*
X136967261Y-81404762D02*
X137068452Y-81452381D01*
X137258929Y-81452381D01*
X137348214Y-81404762D01*
X137389881Y-81357143D01*
X137425595Y-81261905D01*
X137389881Y-80976190D01*
X137330357Y-80880952D01*
X137276786Y-80833333D01*
X137175595Y-80785714D01*
X136985118Y-80785714D01*
X136895833Y-80833333D01*
X136544643Y-81452381D02*
X136419643Y-80452381D01*
X136116071Y-81452381D02*
X136050594Y-80928571D01*
X136086309Y-80833333D01*
X136175594Y-80785714D01*
X136318452Y-80785714D01*
X136419643Y-80833333D01*
X136473214Y-80880952D01*
X134812499Y-80547619D02*
X134758928Y-80500000D01*
X134657738Y-80452381D01*
X134419642Y-80452381D01*
X134330356Y-80500000D01*
X134288689Y-80547619D01*
X134252975Y-80642857D01*
X134264880Y-80738095D01*
X134330356Y-80880952D01*
X134973214Y-81452381D01*
X134354166Y-81452381D01*
X133610119Y-80452381D02*
X133514880Y-80452381D01*
X133425594Y-80500000D01*
X133383927Y-80547619D01*
X133348213Y-80642857D01*
X133324404Y-80833333D01*
X133354166Y-81071429D01*
X133425594Y-81261905D01*
X133485118Y-81357143D01*
X133538689Y-81404762D01*
X133639880Y-81452381D01*
X133735119Y-81452381D01*
X133824404Y-81404762D01*
X133866071Y-81357143D01*
X133901785Y-81261905D01*
X133925595Y-81071429D01*
X133895833Y-80833333D01*
X133824404Y-80642857D01*
X133764880Y-80547619D01*
X133711309Y-80500000D01*
X133610119Y-80452381D01*
X132449404Y-81452381D02*
X133020833Y-81452381D01*
X132735119Y-81452381D02*
X132610119Y-80452381D01*
X132723214Y-80595238D01*
X132830356Y-80690476D01*
X132931547Y-80738095D01*
X131467261Y-80452381D02*
X131657738Y-80452381D01*
X131758928Y-80500000D01*
X131812499Y-80547619D01*
X131925594Y-80690476D01*
X131997023Y-80880952D01*
X132044642Y-81261905D01*
X132008928Y-81357143D01*
X131967261Y-81404762D01*
X131877976Y-81452381D01*
X131687499Y-81452381D01*
X131586308Y-81404762D01*
X131532737Y-81357143D01*
X131473213Y-81261905D01*
X131443451Y-81023810D01*
X131479165Y-80928571D01*
X131520832Y-80880952D01*
X131610118Y-80833333D01*
X131800595Y-80833333D01*
X131901785Y-80880952D01*
X131955356Y-80928571D01*
X132014880Y-81023810D01*
X158056549Y-81452381D02*
X158330359Y-80976190D01*
X158627978Y-81452381D02*
X158502978Y-80452381D01*
X158122025Y-80452381D01*
X158032739Y-80500000D01*
X157991072Y-80547619D01*
X157955358Y-80642857D01*
X157973215Y-80785714D01*
X158032739Y-80880952D01*
X158086310Y-80928571D01*
X158187501Y-80976190D01*
X158568454Y-80976190D01*
X157044644Y-81357143D02*
X157098215Y-81404762D01*
X157247025Y-81452381D01*
X157342263Y-81452381D01*
X157479168Y-81404762D01*
X157562501Y-81309524D01*
X157598216Y-81214286D01*
X157622025Y-81023810D01*
X157604168Y-80880952D01*
X157532739Y-80690476D01*
X157473216Y-80595238D01*
X157366073Y-80500000D01*
X157217263Y-80452381D01*
X157122025Y-80452381D01*
X156985120Y-80500000D01*
X156943453Y-80547619D01*
X155866073Y-81452381D02*
X155741073Y-80452381D01*
X155360120Y-80452381D01*
X155270834Y-80500000D01*
X155229167Y-80547619D01*
X155193453Y-80642857D01*
X155211310Y-80785714D01*
X155270834Y-80880952D01*
X155324405Y-80928571D01*
X155425596Y-80976190D01*
X155806549Y-80976190D01*
X154723216Y-81452381D02*
X154812501Y-81404762D01*
X154854168Y-81357143D01*
X154889882Y-81261905D01*
X154854168Y-80976190D01*
X154794644Y-80880952D01*
X154741073Y-80833333D01*
X154639882Y-80785714D01*
X154497024Y-80785714D01*
X154407739Y-80833333D01*
X154366072Y-80880952D01*
X154330358Y-80976190D01*
X154366072Y-81261905D01*
X154425596Y-81357143D01*
X154479167Y-81404762D01*
X154580358Y-81452381D01*
X154723216Y-81452381D01*
X153973215Y-80785714D02*
X153866073Y-81452381D01*
X153616072Y-80976190D01*
X153485120Y-81452381D01*
X153211310Y-80785714D01*
X152526786Y-81404762D02*
X152627977Y-81452381D01*
X152818454Y-81452381D01*
X152907739Y-81404762D01*
X152943453Y-81309524D01*
X152895834Y-80928571D01*
X152836311Y-80833333D01*
X152735120Y-80785714D01*
X152544643Y-80785714D01*
X152455358Y-80833333D01*
X152419643Y-80928571D01*
X152431548Y-81023810D01*
X152919644Y-81119048D01*
X152056549Y-81452381D02*
X151973215Y-80785714D01*
X151997025Y-80976190D02*
X151937501Y-80880952D01*
X151883930Y-80833333D01*
X151782739Y-80785714D01*
X151687500Y-80785714D01*
X150717262Y-81404762D02*
X150580358Y-81452381D01*
X150342262Y-81452381D01*
X150241071Y-81404762D01*
X150187500Y-81357143D01*
X150127976Y-81261905D01*
X150116071Y-81166667D01*
X150151786Y-81071429D01*
X150193452Y-81023810D01*
X150282738Y-80976190D01*
X150467262Y-80928571D01*
X150556548Y-80880952D01*
X150598215Y-80833333D01*
X150633929Y-80738095D01*
X150622024Y-80642857D01*
X150562500Y-80547619D01*
X150508929Y-80500000D01*
X150407739Y-80452381D01*
X150169643Y-80452381D01*
X150032738Y-80500000D01*
X149580358Y-81452381D02*
X149669643Y-81404762D01*
X149711310Y-81357143D01*
X149747024Y-81261905D01*
X149711310Y-80976190D01*
X149651786Y-80880952D01*
X149598215Y-80833333D01*
X149497024Y-80785714D01*
X149354166Y-80785714D01*
X149264881Y-80833333D01*
X149223214Y-80880952D01*
X149187500Y-80976190D01*
X149223214Y-81261905D01*
X149282738Y-81357143D01*
X149336309Y-81404762D01*
X149437500Y-81452381D01*
X149580358Y-81452381D01*
X148383928Y-81404762D02*
X148485119Y-81452381D01*
X148675596Y-81452381D01*
X148764881Y-81404762D01*
X148806548Y-81357143D01*
X148842262Y-81261905D01*
X148806548Y-80976190D01*
X148747024Y-80880952D01*
X148693453Y-80833333D01*
X148592262Y-80785714D01*
X148401785Y-80785714D01*
X148312500Y-80833333D01*
X147961310Y-81452381D02*
X147836310Y-80452381D01*
X147818453Y-81071429D02*
X147580357Y-81452381D01*
X147497023Y-80785714D02*
X147925595Y-81166667D01*
X146764880Y-81404762D02*
X146866071Y-81452381D01*
X147056548Y-81452381D01*
X147145833Y-81404762D01*
X147181547Y-81309524D01*
X147133928Y-80928571D01*
X147074405Y-80833333D01*
X146973214Y-80785714D01*
X146782737Y-80785714D01*
X146693452Y-80833333D01*
X146657737Y-80928571D01*
X146669642Y-81023810D01*
X147157738Y-81119048D01*
X146354166Y-80785714D02*
X145973214Y-80785714D01*
X146169643Y-80452381D02*
X146276785Y-81309524D01*
X146241071Y-81404762D01*
X146151786Y-81452381D01*
X146056548Y-81452381D01*
X145764880Y-81404762D02*
X145675595Y-81452381D01*
X145485119Y-81452381D01*
X145383927Y-81404762D01*
X145324403Y-81309524D01*
X145318451Y-81261905D01*
X145354165Y-81166667D01*
X145443452Y-81119048D01*
X145586309Y-81119048D01*
X145675595Y-81071429D01*
X145711309Y-80976190D01*
X145705356Y-80928571D01*
X145645833Y-80833333D01*
X145544642Y-80785714D01*
X145401785Y-80785714D01*
X145312499Y-80833333D01*
X144163689Y-80785714D02*
X144008928Y-81452381D01*
X143687498Y-80785714D01*
X142866070Y-81452381D02*
X143437499Y-81452381D01*
X143151785Y-81452381D02*
X143026785Y-80452381D01*
X143139880Y-80595238D01*
X143247022Y-80690476D01*
X143348213Y-80738095D01*
X142425594Y-81357143D02*
X142383927Y-81404762D01*
X142437499Y-81452381D01*
X142479165Y-81404762D01*
X142425594Y-81357143D01*
X142437499Y-81452381D01*
X141645833Y-80452381D02*
X141550594Y-80452381D01*
X141461308Y-80500000D01*
X141419641Y-80547619D01*
X141383927Y-80642857D01*
X141360118Y-80833333D01*
X141389880Y-81071429D01*
X141461308Y-81261905D01*
X141520832Y-81357143D01*
X141574403Y-81404762D01*
X141675594Y-81452381D01*
X141770833Y-81452381D01*
X141860118Y-81404762D01*
X141901785Y-81357143D01*
X141937499Y-81261905D01*
X141961309Y-81071429D01*
X141931547Y-80833333D01*
X141860118Y-80642857D01*
X141800594Y-80547619D01*
X141747023Y-80500000D01*
X141645833Y-80452381D01*
X141952381Y-96666667D02*
X142952381Y-97000000D01*
X141952381Y-97333334D01*
X142857143Y-98238096D02*
X142904762Y-98190477D01*
X142952381Y-98047620D01*
X142952381Y-97952382D01*
X142904762Y-97809524D01*
X142809524Y-97714286D01*
X142714286Y-97666667D01*
X142523810Y-97619048D01*
X142380952Y-97619048D01*
X142190476Y-97666667D01*
X142095238Y-97714286D01*
X142000000Y-97809524D01*
X141952381Y-97952382D01*
X141952381Y-98047620D01*
X142000000Y-98190477D01*
X142047619Y-98238096D01*
X142857143Y-99238096D02*
X142904762Y-99190477D01*
X142952381Y-99047620D01*
X142952381Y-98952382D01*
X142904762Y-98809524D01*
X142809524Y-98714286D01*
X142714286Y-98666667D01*
X142523810Y-98619048D01*
X142380952Y-98619048D01*
X142190476Y-98666667D01*
X142095238Y-98714286D01*
X142000000Y-98809524D01*
X141952381Y-98952382D01*
X141952381Y-99047620D01*
X142000000Y-99190477D01*
X142047619Y-99238096D01*
X144452381Y-97000000D02*
X144452381Y-97190477D01*
X144500000Y-97285715D01*
X144595238Y-97380953D01*
X144785714Y-97428572D01*
X145119048Y-97428572D01*
X145309524Y-97380953D01*
X145404762Y-97285715D01*
X145452381Y-97190477D01*
X145452381Y-97000000D01*
X145404762Y-96904762D01*
X145309524Y-96809524D01*
X145119048Y-96761905D01*
X144785714Y-96761905D01*
X144595238Y-96809524D01*
X144500000Y-96904762D01*
X144452381Y-97000000D01*
X144452381Y-97857143D02*
X145261905Y-97857143D01*
X145357143Y-97904762D01*
X145404762Y-97952381D01*
X145452381Y-98047619D01*
X145452381Y-98238096D01*
X145404762Y-98333334D01*
X145357143Y-98380953D01*
X145261905Y-98428572D01*
X144452381Y-98428572D01*
X144452381Y-98761905D02*
X144452381Y-99333334D01*
X145452381Y-99047619D02*
X144452381Y-99047619D01*
X147000000Y-97238096D02*
X146952381Y-97142858D01*
X146952381Y-97000001D01*
X147000000Y-96857143D01*
X147095238Y-96761905D01*
X147190476Y-96714286D01*
X147380952Y-96666667D01*
X147523810Y-96666667D01*
X147714286Y-96714286D01*
X147809524Y-96761905D01*
X147904762Y-96857143D01*
X147952381Y-97000001D01*
X147952381Y-97095239D01*
X147904762Y-97238096D01*
X147857143Y-97285715D01*
X147523810Y-97285715D01*
X147523810Y-97095239D01*
X147952381Y-97714286D02*
X146952381Y-97714286D01*
X147952381Y-98285715D01*
X146952381Y-98285715D01*
X147952381Y-98761905D02*
X146952381Y-98761905D01*
X146952381Y-99000000D01*
X147000000Y-99142858D01*
X147095238Y-99238096D01*
X147190476Y-99285715D01*
X147380952Y-99333334D01*
X147523810Y-99333334D01*
X147714286Y-99285715D01*
X147809524Y-99238096D01*
X147904762Y-99142858D01*
X147952381Y-99000000D01*
X147952381Y-98761905D01*
X147500000Y-92950000D02*
X149050000Y-92950000D01*
X149050000Y-92950000D02*
X149050000Y-96050000D01*
X149050000Y-96050000D02*
X147500000Y-96050000D01*
X146230000Y-93230000D02*
X141150000Y-93230000D01*
X141150000Y-93230000D02*
X141150000Y-95770000D01*
X141150000Y-95770000D02*
X146230000Y-95770000D01*
X146230000Y-95770000D02*
X146230000Y-93230000D01*
X146000000Y-92202381D02*
X146000000Y-91202381D01*
X145619047Y-91202381D01*
X145523809Y-91250000D01*
X145476190Y-91297619D01*
X145428571Y-91392857D01*
X145428571Y-91535714D01*
X145476190Y-91630952D01*
X145523809Y-91678571D01*
X145619047Y-91726190D01*
X146000000Y-91726190D01*
X145000000Y-92202381D02*
X145000000Y-91202381D01*
X143952381Y-92202381D02*
X144285715Y-91726190D01*
X144523810Y-92202381D02*
X144523810Y-91202381D01*
X144142857Y-91202381D01*
X144047619Y-91250000D01*
X144000000Y-91297619D01*
X143952381Y-91392857D01*
X143952381Y-91535714D01*
X144000000Y-91630952D01*
X144047619Y-91678571D01*
X144142857Y-91726190D01*
X144523810Y-91726190D01*
M02*
