%TF.GenerationSoftware,KiCad,Pcbnew,4.0.1-stable*%
%TF.CreationDate,2016-03-27T19:11:50+01:00*%
%TF.ProjectId,rc_power_sockets,72635F706F7765725F736F636B657473,rev?*%
%TF.FileFunction,Copper,L2,Bot,Signal*%
%FSLAX46Y46*%
G04 Gerber Fmt 4.6, Leading zero omitted, Abs format (unit mm)*
G04 Created by KiCad (PCBNEW 4.0.1-stable) date 27/03/2016 19:11:50*
%MOMM*%
G01*
G04 APERTURE LIST*
%ADD10C,0.100000*%
%ADD11C,2.286000*%
%ADD12C,6.400000*%
%ADD13R,1.727200X2.032000*%
%ADD14O,1.727200X2.032000*%
%ADD15R,2.032000X1.727200*%
%ADD16O,2.032000X1.727200*%
%ADD17C,1.998980*%
%ADD18R,1.727200X1.727200*%
%ADD19O,1.727200X1.727200*%
%ADD20R,1.198880X1.198880*%
%ADD21R,2.032000X2.032000*%
%ADD22O,2.032000X2.032000*%
%ADD23C,4.400000*%
%ADD24C,0.685800*%
%ADD25C,0.350000*%
%ADD26C,0.250000*%
%ADD27C,0.500000*%
%ADD28C,0.254000*%
G04 APERTURE END LIST*
D10*
D11*
X152000000Y-65380000D03*
X152000000Y-88240000D03*
X137000000Y-104620000D03*
X137000000Y-81760000D03*
D12*
X166000000Y-64000000D03*
D13*
X147500000Y-94900000D03*
D14*
X144960000Y-94900000D03*
X142420000Y-94900000D03*
D15*
X123000000Y-88000000D03*
D16*
X123000000Y-85460000D03*
X123000000Y-82920000D03*
D17*
X166000000Y-96460000D03*
X166000000Y-93920000D03*
X166000000Y-99000000D03*
D18*
X138500000Y-66600000D03*
D19*
X138500000Y-64060000D03*
X135960000Y-66600000D03*
X135960000Y-64060000D03*
X133420000Y-66600000D03*
X133420000Y-64060000D03*
D15*
X167000000Y-83000000D03*
D16*
X167000000Y-85540000D03*
X167000000Y-88080000D03*
D12*
X166000000Y-106000000D03*
X124000000Y-106000000D03*
X124000000Y-64000000D03*
D20*
X129500000Y-66049020D03*
X129500000Y-63950980D03*
D21*
X134500000Y-75900000D03*
D22*
X137040000Y-75900000D03*
D23*
X130500000Y-85000000D03*
X159500000Y-85000000D03*
D24*
X147500000Y-89900000D03*
X159100000Y-67700000D03*
X156400000Y-67700000D03*
X146500000Y-83400000D03*
X146500000Y-77100000D03*
X145500000Y-84500000D03*
X139500000Y-84700000D03*
X150200000Y-85700000D03*
X155300000Y-73600000D03*
X131500000Y-74650000D03*
D25*
X147500000Y-89900000D02*
X147500000Y-93900000D01*
X147500000Y-93900000D02*
X147500000Y-94900000D01*
X129500000Y-63950980D02*
X129500000Y-62500000D01*
X126800000Y-61200000D02*
X124000000Y-64000000D01*
X128200000Y-61200000D02*
X126800000Y-61200000D01*
X129500000Y-62500000D02*
X128200000Y-61200000D01*
X164620000Y-65380000D02*
X166000000Y-64000000D01*
X167000000Y-83000000D02*
X166900000Y-83000000D01*
X166000000Y-106000000D02*
X166000000Y-99000000D01*
X124000000Y-106000000D02*
X129300000Y-106000000D01*
X131000000Y-107700000D02*
X164300000Y-107700000D01*
X129300000Y-106000000D02*
X131000000Y-107700000D01*
X164300000Y-107700000D02*
X166000000Y-106000000D01*
X124000000Y-106000000D02*
X124000000Y-94000000D01*
X123000000Y-93000000D02*
X123000000Y-88000000D01*
X124000000Y-94000000D02*
X123000000Y-93000000D01*
X147500000Y-94900000D02*
X147500000Y-98800000D01*
X128700000Y-101300000D02*
X124000000Y-106000000D01*
X145000000Y-101300000D02*
X128700000Y-101300000D01*
X147500000Y-98800000D02*
X145000000Y-101300000D01*
X124060000Y-64060000D02*
X124000000Y-64000000D01*
X133420000Y-64060000D02*
X132940000Y-64060000D01*
D26*
X146500000Y-83400000D02*
X146500000Y-86700000D01*
X144960000Y-88240000D02*
X144960000Y-94900000D01*
X146500000Y-86700000D02*
X144960000Y-88240000D01*
X146500000Y-77100000D02*
X146500000Y-83400000D01*
X146500000Y-77100000D02*
X146500000Y-77100000D01*
X144000000Y-72100000D02*
X138500000Y-66600000D01*
X144000000Y-83000000D02*
X144000000Y-72100000D01*
X145500000Y-84500000D02*
X144000000Y-83000000D01*
X126020000Y-79900000D02*
X123000000Y-82920000D01*
X131400000Y-79900000D02*
X126020000Y-79900000D01*
X136100000Y-84600000D02*
X131400000Y-79900000D01*
X139400000Y-84600000D02*
X136100000Y-84600000D01*
X139500000Y-84700000D02*
X139400000Y-84600000D01*
X167000000Y-88080000D02*
X167000000Y-89800000D01*
X153700000Y-85700000D02*
X150200000Y-85700000D01*
X158300000Y-90300000D02*
X153700000Y-85700000D01*
X166500000Y-90300000D02*
X158300000Y-90300000D01*
X167000000Y-89800000D02*
X166500000Y-90300000D01*
X123000000Y-82920000D02*
X123580000Y-82920000D01*
X123080000Y-83000000D02*
X123000000Y-82920000D01*
X167000000Y-85540000D02*
X165540000Y-85540000D01*
X155300000Y-75300000D02*
X155300000Y-73600000D01*
X165540000Y-85540000D02*
X155300000Y-75300000D01*
X129500000Y-73000000D02*
X129500000Y-66049020D01*
X131500000Y-74650000D02*
X129500000Y-73000000D01*
D27*
X137000000Y-104620000D02*
X144380000Y-104620000D01*
X152000000Y-97000000D02*
X152000000Y-88240000D01*
X144380000Y-104620000D02*
X152000000Y-97000000D01*
D28*
G36*
X121849754Y-60734181D02*
X121805640Y-60763657D01*
X121438695Y-61259090D01*
X124000000Y-63820395D01*
X126561305Y-61259090D01*
X126194360Y-60763657D01*
X126067266Y-60710000D01*
X163909271Y-60710000D01*
X163849754Y-60734181D01*
X163805640Y-60763657D01*
X163438695Y-61259090D01*
X166000000Y-63820395D01*
X168561305Y-61259090D01*
X168194360Y-60763657D01*
X168067266Y-60710000D01*
X169290000Y-60710000D01*
X169290000Y-61909271D01*
X169265819Y-61849754D01*
X169236343Y-61805640D01*
X168740910Y-61438695D01*
X166179605Y-64000000D01*
X168740910Y-66561305D01*
X169236343Y-66194360D01*
X169290000Y-66067266D01*
X169290000Y-103909271D01*
X169265819Y-103849754D01*
X169236343Y-103805640D01*
X168740910Y-103438695D01*
X166179605Y-106000000D01*
X168740910Y-108561305D01*
X169236343Y-108194360D01*
X169290000Y-108067266D01*
X169290000Y-109290000D01*
X168090729Y-109290000D01*
X168150246Y-109265819D01*
X168194360Y-109236343D01*
X168561305Y-108740910D01*
X166000000Y-106179605D01*
X163438695Y-108740910D01*
X163805640Y-109236343D01*
X163932734Y-109290000D01*
X126090729Y-109290000D01*
X126150246Y-109265819D01*
X126194360Y-109236343D01*
X126561305Y-108740910D01*
X124000000Y-106179605D01*
X121438695Y-108740910D01*
X121805640Y-109236343D01*
X121932734Y-109290000D01*
X120710000Y-109290000D01*
X120710000Y-108090729D01*
X120734181Y-108150246D01*
X120763657Y-108194360D01*
X121259090Y-108561305D01*
X123820395Y-106000000D01*
X124179605Y-106000000D01*
X126740910Y-108561305D01*
X127236343Y-108194360D01*
X127829736Y-106788829D01*
X127830089Y-106736793D01*
X162159913Y-106736793D01*
X162734181Y-108150246D01*
X162763657Y-108194360D01*
X163259090Y-108561305D01*
X165820395Y-106000000D01*
X163259090Y-103438695D01*
X162763657Y-103805640D01*
X162170264Y-105211171D01*
X162159913Y-106736793D01*
X127830089Y-106736793D01*
X127840087Y-105263207D01*
X127729223Y-104990334D01*
X135129677Y-104990334D01*
X135413767Y-105677886D01*
X135939347Y-106204384D01*
X136626402Y-106489674D01*
X137370334Y-106490323D01*
X138057886Y-106206233D01*
X138584384Y-105680653D01*
X138619120Y-105597000D01*
X144380000Y-105597000D01*
X144753882Y-105522630D01*
X145070843Y-105310843D01*
X147122596Y-103259090D01*
X163438695Y-103259090D01*
X166000000Y-105820395D01*
X168561305Y-103259090D01*
X168194360Y-102763657D01*
X166788829Y-102170264D01*
X165263207Y-102159913D01*
X163849754Y-102734181D01*
X163805640Y-102763657D01*
X163438695Y-103259090D01*
X147122596Y-103259090D01*
X150229523Y-100152163D01*
X165027443Y-100152163D01*
X165126042Y-100418965D01*
X165735582Y-100645401D01*
X166385377Y-100621341D01*
X166873958Y-100418965D01*
X166972557Y-100152163D01*
X166000000Y-99179605D01*
X165027443Y-100152163D01*
X150229523Y-100152163D01*
X151646104Y-98735582D01*
X164354599Y-98735582D01*
X164378659Y-99385377D01*
X164581035Y-99873958D01*
X164847837Y-99972557D01*
X165820395Y-99000000D01*
X166179605Y-99000000D01*
X167152163Y-99972557D01*
X167418965Y-99873958D01*
X167645401Y-99264418D01*
X167621341Y-98614623D01*
X167418965Y-98126042D01*
X167152163Y-98027443D01*
X166179605Y-99000000D01*
X165820395Y-99000000D01*
X164847837Y-98027443D01*
X164581035Y-98126042D01*
X164354599Y-98735582D01*
X151646104Y-98735582D01*
X152690843Y-97690844D01*
X152902630Y-97373882D01*
X152906466Y-97354599D01*
X152977000Y-97000000D01*
X152977000Y-94243694D01*
X164365226Y-94243694D01*
X164613538Y-94844655D01*
X164958480Y-95190199D01*
X164615154Y-95532927D01*
X164365794Y-96133453D01*
X164365226Y-96783694D01*
X164613538Y-97384655D01*
X165040539Y-97812401D01*
X165027443Y-97847837D01*
X166000000Y-98820395D01*
X166972557Y-97847837D01*
X166959276Y-97811901D01*
X167384846Y-97387073D01*
X167634206Y-96786547D01*
X167634774Y-96136306D01*
X167386462Y-95535345D01*
X167041520Y-95189801D01*
X167384846Y-94847073D01*
X167634206Y-94246547D01*
X167634774Y-93596306D01*
X167386462Y-92995345D01*
X166927073Y-92535154D01*
X166326547Y-92285794D01*
X165676306Y-92285226D01*
X165075345Y-92533538D01*
X164615154Y-92992927D01*
X164365794Y-93593453D01*
X164365226Y-94243694D01*
X152977000Y-94243694D01*
X152977000Y-89859654D01*
X153057886Y-89826233D01*
X153584384Y-89300653D01*
X153869674Y-88613598D01*
X153870323Y-87869666D01*
X153586233Y-87182114D01*
X153060653Y-86655616D01*
X152589557Y-86460000D01*
X153385198Y-86460000D01*
X157762599Y-90837401D01*
X158009160Y-91002148D01*
X158300000Y-91060000D01*
X166500000Y-91060000D01*
X166790839Y-91002148D01*
X167037401Y-90837401D01*
X167537401Y-90337401D01*
X167702148Y-90090839D01*
X167760000Y-89800000D01*
X167760000Y-89463346D01*
X168244415Y-89139670D01*
X168569271Y-88653489D01*
X168683345Y-88080000D01*
X168569271Y-87506511D01*
X168244415Y-87020330D01*
X167929634Y-86810000D01*
X168244415Y-86599670D01*
X168569271Y-86113489D01*
X168683345Y-85540000D01*
X168569271Y-84966511D01*
X168244415Y-84480330D01*
X168222220Y-84465500D01*
X168375699Y-84401927D01*
X168554327Y-84223298D01*
X168651000Y-83989909D01*
X168651000Y-83285750D01*
X168492250Y-83127000D01*
X167127000Y-83127000D01*
X167127000Y-83147000D01*
X166873000Y-83147000D01*
X166873000Y-83127000D01*
X165507750Y-83127000D01*
X165349000Y-83285750D01*
X165349000Y-83989909D01*
X165445673Y-84223298D01*
X165624301Y-84401927D01*
X165777780Y-84465500D01*
X165755585Y-84480330D01*
X165675295Y-84600493D01*
X163084893Y-82010091D01*
X165349000Y-82010091D01*
X165349000Y-82714250D01*
X165507750Y-82873000D01*
X166873000Y-82873000D01*
X166873000Y-81660150D01*
X167127000Y-81660150D01*
X167127000Y-82873000D01*
X168492250Y-82873000D01*
X168651000Y-82714250D01*
X168651000Y-82010091D01*
X168554327Y-81776702D01*
X168375699Y-81598073D01*
X168142310Y-81501400D01*
X167285750Y-81501400D01*
X167127000Y-81660150D01*
X166873000Y-81660150D01*
X166714250Y-81501400D01*
X165857690Y-81501400D01*
X165624301Y-81598073D01*
X165445673Y-81776702D01*
X165349000Y-82010091D01*
X163084893Y-82010091D01*
X156060000Y-74985198D01*
X156060000Y-74223080D01*
X156128540Y-74154659D01*
X156277730Y-73795370D01*
X156278069Y-73406337D01*
X156129507Y-73046788D01*
X155854659Y-72771460D01*
X155495370Y-72622270D01*
X155106337Y-72621931D01*
X154746788Y-72770493D01*
X154471460Y-73045341D01*
X154322270Y-73404630D01*
X154321931Y-73793663D01*
X154470493Y-74153212D01*
X154540000Y-74222840D01*
X154540000Y-75300000D01*
X154597852Y-75590839D01*
X154762599Y-75837401D01*
X165002599Y-86077401D01*
X165249161Y-86242148D01*
X165540000Y-86300000D01*
X165555352Y-86300000D01*
X165755585Y-86599670D01*
X166070366Y-86810000D01*
X165755585Y-87020330D01*
X165430729Y-87506511D01*
X165316655Y-88080000D01*
X165430729Y-88653489D01*
X165755585Y-89139670D01*
X166240000Y-89463346D01*
X166240000Y-89485198D01*
X166185198Y-89540000D01*
X158614802Y-89540000D01*
X156094184Y-87019382D01*
X157660223Y-87019382D01*
X157905368Y-87410888D01*
X158949360Y-87837609D01*
X160077181Y-87832330D01*
X161094632Y-87410888D01*
X161339777Y-87019382D01*
X159500000Y-85179605D01*
X157660223Y-87019382D01*
X156094184Y-87019382D01*
X154237401Y-85162599D01*
X153990839Y-84997852D01*
X153700000Y-84940000D01*
X150823080Y-84940000D01*
X150754659Y-84871460D01*
X150395370Y-84722270D01*
X150006337Y-84721931D01*
X149646788Y-84870493D01*
X149371460Y-85145341D01*
X149222270Y-85504630D01*
X149221931Y-85893663D01*
X149370493Y-86253212D01*
X149645341Y-86528540D01*
X150004630Y-86677730D01*
X150393663Y-86678069D01*
X150753212Y-86529507D01*
X150822840Y-86460000D01*
X151411067Y-86460000D01*
X150942114Y-86653767D01*
X150415616Y-87179347D01*
X150130326Y-87866402D01*
X150129677Y-88610334D01*
X150413767Y-89297886D01*
X150939347Y-89824384D01*
X151023000Y-89859120D01*
X151023000Y-96595313D01*
X143975314Y-103643000D01*
X138619654Y-103643000D01*
X138586233Y-103562114D01*
X138060653Y-103035616D01*
X137373598Y-102750326D01*
X136629666Y-102749677D01*
X135942114Y-103033767D01*
X135415616Y-103559347D01*
X135130326Y-104246402D01*
X135129677Y-104990334D01*
X127729223Y-104990334D01*
X127265819Y-103849754D01*
X127236343Y-103805640D01*
X126740910Y-103438695D01*
X124179605Y-106000000D01*
X123820395Y-106000000D01*
X121259090Y-103438695D01*
X120763657Y-103805640D01*
X120710000Y-103932734D01*
X120710000Y-103259090D01*
X121438695Y-103259090D01*
X124000000Y-105820395D01*
X126561305Y-103259090D01*
X126194360Y-102763657D01*
X124788829Y-102170264D01*
X123263207Y-102159913D01*
X121849754Y-102734181D01*
X121805640Y-102763657D01*
X121438695Y-103259090D01*
X120710000Y-103259090D01*
X120710000Y-88285750D01*
X121349000Y-88285750D01*
X121349000Y-88989909D01*
X121445673Y-89223298D01*
X121624301Y-89401927D01*
X121857690Y-89498600D01*
X122714250Y-89498600D01*
X122873000Y-89339850D01*
X122873000Y-88127000D01*
X123127000Y-88127000D01*
X123127000Y-89339850D01*
X123285750Y-89498600D01*
X124142310Y-89498600D01*
X124375699Y-89401927D01*
X124554327Y-89223298D01*
X124651000Y-88989909D01*
X124651000Y-88285750D01*
X124492250Y-88127000D01*
X123127000Y-88127000D01*
X122873000Y-88127000D01*
X121507750Y-88127000D01*
X121349000Y-88285750D01*
X120710000Y-88285750D01*
X120710000Y-82920000D01*
X121316655Y-82920000D01*
X121430729Y-83493489D01*
X121755585Y-83979670D01*
X122070366Y-84190000D01*
X121755585Y-84400330D01*
X121430729Y-84886511D01*
X121316655Y-85460000D01*
X121430729Y-86033489D01*
X121755585Y-86519670D01*
X121777780Y-86534500D01*
X121624301Y-86598073D01*
X121445673Y-86776702D01*
X121349000Y-87010091D01*
X121349000Y-87714250D01*
X121507750Y-87873000D01*
X122873000Y-87873000D01*
X122873000Y-87853000D01*
X123127000Y-87853000D01*
X123127000Y-87873000D01*
X124492250Y-87873000D01*
X124651000Y-87714250D01*
X124651000Y-87019382D01*
X128660223Y-87019382D01*
X128905368Y-87410888D01*
X129949360Y-87837609D01*
X131077181Y-87832330D01*
X132094632Y-87410888D01*
X132339777Y-87019382D01*
X130500000Y-85179605D01*
X128660223Y-87019382D01*
X124651000Y-87019382D01*
X124651000Y-87010091D01*
X124554327Y-86776702D01*
X124375699Y-86598073D01*
X124222220Y-86534500D01*
X124244415Y-86519670D01*
X124569271Y-86033489D01*
X124683345Y-85460000D01*
X124569271Y-84886511D01*
X124277176Y-84449360D01*
X127662391Y-84449360D01*
X127667670Y-85577181D01*
X128089112Y-86594632D01*
X128480618Y-86839777D01*
X130320395Y-85000000D01*
X130679605Y-85000000D01*
X132519382Y-86839777D01*
X132910888Y-86594632D01*
X133337609Y-85550640D01*
X133332330Y-84422819D01*
X132910888Y-83405368D01*
X132519382Y-83160223D01*
X130679605Y-85000000D01*
X130320395Y-85000000D01*
X128480618Y-83160223D01*
X128089112Y-83405368D01*
X127662391Y-84449360D01*
X124277176Y-84449360D01*
X124244415Y-84400330D01*
X123929634Y-84190000D01*
X124244415Y-83979670D01*
X124569271Y-83493489D01*
X124671287Y-82980618D01*
X128660223Y-82980618D01*
X130500000Y-84820395D01*
X132339777Y-82980618D01*
X132094632Y-82589112D01*
X131050640Y-82162391D01*
X129922819Y-82167670D01*
X128905368Y-82589112D01*
X128660223Y-82980618D01*
X124671287Y-82980618D01*
X124683345Y-82920000D01*
X124582381Y-82412421D01*
X126334802Y-80660000D01*
X131085198Y-80660000D01*
X135562599Y-85137401D01*
X135809161Y-85302148D01*
X136100000Y-85360000D01*
X138777095Y-85360000D01*
X138945341Y-85528540D01*
X139304630Y-85677730D01*
X139693663Y-85678069D01*
X140053212Y-85529507D01*
X140328540Y-85254659D01*
X140477730Y-84895370D01*
X140478069Y-84506337D01*
X140329507Y-84146788D01*
X140054659Y-83871460D01*
X139695370Y-83722270D01*
X139306337Y-83721931D01*
X139020587Y-83840000D01*
X136414802Y-83840000D01*
X134686916Y-82112114D01*
X135221692Y-82112114D01*
X135491806Y-82765840D01*
X135991529Y-83266436D01*
X136644782Y-83537691D01*
X137352114Y-83538308D01*
X138005840Y-83268194D01*
X138506436Y-82768471D01*
X138777691Y-82115218D01*
X138778308Y-81407886D01*
X138508194Y-80754160D01*
X138008471Y-80253564D01*
X137355218Y-79982309D01*
X136647886Y-79981692D01*
X135994160Y-80251806D01*
X135493564Y-80751529D01*
X135222309Y-81404782D01*
X135221692Y-82112114D01*
X134686916Y-82112114D01*
X131937401Y-79362599D01*
X131690839Y-79197852D01*
X131400000Y-79140000D01*
X126020000Y-79140000D01*
X125729161Y-79197852D01*
X125482599Y-79362599D01*
X123384137Y-81461061D01*
X123184745Y-81421400D01*
X122815255Y-81421400D01*
X122241766Y-81535474D01*
X121755585Y-81860330D01*
X121430729Y-82346511D01*
X121316655Y-82920000D01*
X120710000Y-82920000D01*
X120710000Y-76185750D01*
X132849000Y-76185750D01*
X132849000Y-77042309D01*
X132945673Y-77275698D01*
X133124301Y-77454327D01*
X133357690Y-77551000D01*
X134214250Y-77551000D01*
X134373000Y-77392250D01*
X134373000Y-76027000D01*
X133007750Y-76027000D01*
X132849000Y-76185750D01*
X120710000Y-76185750D01*
X120710000Y-66740910D01*
X121438695Y-66740910D01*
X121805640Y-67236343D01*
X123211171Y-67829736D01*
X124736793Y-67840087D01*
X126150246Y-67265819D01*
X126194360Y-67236343D01*
X126561305Y-66740910D01*
X124000000Y-64179605D01*
X121438695Y-66740910D01*
X120710000Y-66740910D01*
X120710000Y-66090729D01*
X120734181Y-66150246D01*
X120763657Y-66194360D01*
X121259090Y-66561305D01*
X123820395Y-64000000D01*
X124179605Y-64000000D01*
X126740910Y-66561305D01*
X127236343Y-66194360D01*
X127550777Y-65449580D01*
X128253120Y-65449580D01*
X128253120Y-66648460D01*
X128297398Y-66883777D01*
X128436470Y-67099901D01*
X128648670Y-67244891D01*
X128740000Y-67263386D01*
X128740000Y-73000000D01*
X128747163Y-73036012D01*
X128743470Y-73072544D01*
X128775882Y-73180391D01*
X128797852Y-73290839D01*
X128818252Y-73321370D01*
X128828820Y-73356533D01*
X128900034Y-73443766D01*
X128962599Y-73537401D01*
X128993128Y-73557800D01*
X129016349Y-73586244D01*
X130521944Y-74828359D01*
X130521931Y-74843663D01*
X130670493Y-75203212D01*
X130945341Y-75478540D01*
X131304630Y-75627730D01*
X131693663Y-75628069D01*
X132053212Y-75479507D01*
X132328540Y-75204659D01*
X132477730Y-74845370D01*
X132477806Y-74757691D01*
X132849000Y-74757691D01*
X132849000Y-75614250D01*
X133007750Y-75773000D01*
X134373000Y-75773000D01*
X134373000Y-74407750D01*
X134627000Y-74407750D01*
X134627000Y-75773000D01*
X134647000Y-75773000D01*
X134647000Y-76027000D01*
X134627000Y-76027000D01*
X134627000Y-77392250D01*
X134785750Y-77551000D01*
X135642310Y-77551000D01*
X135875699Y-77454327D01*
X136054327Y-77275698D01*
X136071999Y-77233034D01*
X136408190Y-77457670D01*
X137040000Y-77583345D01*
X137671810Y-77457670D01*
X138207433Y-77099778D01*
X138565325Y-76564155D01*
X138691000Y-75932345D01*
X138691000Y-75867655D01*
X138565325Y-75235845D01*
X138207433Y-74700222D01*
X137671810Y-74342330D01*
X137040000Y-74216655D01*
X136408190Y-74342330D01*
X136071999Y-74566966D01*
X136054327Y-74524302D01*
X135875699Y-74345673D01*
X135642310Y-74249000D01*
X134785750Y-74249000D01*
X134627000Y-74407750D01*
X134373000Y-74407750D01*
X134214250Y-74249000D01*
X133357690Y-74249000D01*
X133124301Y-74345673D01*
X132945673Y-74524302D01*
X132849000Y-74757691D01*
X132477806Y-74757691D01*
X132478069Y-74456337D01*
X132329507Y-74096788D01*
X132054659Y-73821460D01*
X131695370Y-73672270D01*
X131508926Y-73672108D01*
X130260000Y-72641744D01*
X130260000Y-67265689D01*
X130334757Y-67251622D01*
X130550881Y-67112550D01*
X130695871Y-66900350D01*
X130746880Y-66648460D01*
X130746880Y-66570641D01*
X131921400Y-66570641D01*
X131921400Y-66629359D01*
X132035474Y-67202848D01*
X132360330Y-67689029D01*
X132846511Y-68013885D01*
X133420000Y-68127959D01*
X133993489Y-68013885D01*
X134479670Y-67689029D01*
X134690000Y-67374248D01*
X134900330Y-67689029D01*
X135386511Y-68013885D01*
X135960000Y-68127959D01*
X136533489Y-68013885D01*
X137019670Y-67689029D01*
X137028805Y-67675358D01*
X137033238Y-67698917D01*
X137172310Y-67915041D01*
X137384510Y-68060031D01*
X137636400Y-68111040D01*
X138936238Y-68111040D01*
X143240000Y-72414802D01*
X143240000Y-83000000D01*
X143297852Y-83290839D01*
X143462599Y-83537401D01*
X144522015Y-84596817D01*
X144521931Y-84693663D01*
X144670493Y-85053212D01*
X144945341Y-85328540D01*
X145304630Y-85477730D01*
X145693663Y-85478069D01*
X145740000Y-85458923D01*
X145740000Y-86385198D01*
X144422599Y-87702599D01*
X144257852Y-87949161D01*
X144200000Y-88240000D01*
X144200000Y-93455352D01*
X143900330Y-93655585D01*
X143690000Y-93970366D01*
X143479670Y-93655585D01*
X142993489Y-93330729D01*
X142420000Y-93216655D01*
X141846511Y-93330729D01*
X141360330Y-93655585D01*
X141035474Y-94141766D01*
X140921400Y-94715255D01*
X140921400Y-95084745D01*
X141035474Y-95658234D01*
X141360330Y-96144415D01*
X141846511Y-96469271D01*
X142420000Y-96583345D01*
X142993489Y-96469271D01*
X143479670Y-96144415D01*
X143690000Y-95829634D01*
X143900330Y-96144415D01*
X144386511Y-96469271D01*
X144960000Y-96583345D01*
X145533489Y-96469271D01*
X146019670Y-96144415D01*
X146034500Y-96122220D01*
X146098073Y-96275699D01*
X146276702Y-96454327D01*
X146510091Y-96551000D01*
X147214250Y-96551000D01*
X147373000Y-96392250D01*
X147373000Y-95027000D01*
X147627000Y-95027000D01*
X147627000Y-96392250D01*
X147785750Y-96551000D01*
X148489909Y-96551000D01*
X148723298Y-96454327D01*
X148901927Y-96275699D01*
X148998600Y-96042310D01*
X148998600Y-95185750D01*
X148839850Y-95027000D01*
X147627000Y-95027000D01*
X147373000Y-95027000D01*
X147353000Y-95027000D01*
X147353000Y-94773000D01*
X147373000Y-94773000D01*
X147373000Y-93407750D01*
X147627000Y-93407750D01*
X147627000Y-94773000D01*
X148839850Y-94773000D01*
X148998600Y-94614250D01*
X148998600Y-93757690D01*
X148901927Y-93524301D01*
X148723298Y-93345673D01*
X148489909Y-93249000D01*
X147785750Y-93249000D01*
X147627000Y-93407750D01*
X147373000Y-93407750D01*
X147214250Y-93249000D01*
X146510091Y-93249000D01*
X146276702Y-93345673D01*
X146098073Y-93524301D01*
X146034500Y-93677780D01*
X146019670Y-93655585D01*
X145720000Y-93455352D01*
X145720000Y-88554802D01*
X147037401Y-87237401D01*
X147202148Y-86990839D01*
X147260000Y-86700000D01*
X147260000Y-84449360D01*
X156662391Y-84449360D01*
X156667670Y-85577181D01*
X157089112Y-86594632D01*
X157480618Y-86839777D01*
X159320395Y-85000000D01*
X159679605Y-85000000D01*
X161519382Y-86839777D01*
X161910888Y-86594632D01*
X162337609Y-85550640D01*
X162332330Y-84422819D01*
X161910888Y-83405368D01*
X161519382Y-83160223D01*
X159679605Y-85000000D01*
X159320395Y-85000000D01*
X157480618Y-83160223D01*
X157089112Y-83405368D01*
X156662391Y-84449360D01*
X147260000Y-84449360D01*
X147260000Y-84023080D01*
X147328540Y-83954659D01*
X147477730Y-83595370D01*
X147478069Y-83206337D01*
X147384805Y-82980618D01*
X157660223Y-82980618D01*
X159500000Y-84820395D01*
X161339777Y-82980618D01*
X161094632Y-82589112D01*
X160050640Y-82162391D01*
X158922819Y-82167670D01*
X157905368Y-82589112D01*
X157660223Y-82980618D01*
X147384805Y-82980618D01*
X147329507Y-82846788D01*
X147260000Y-82777160D01*
X147260000Y-77723080D01*
X147328540Y-77654659D01*
X147477730Y-77295370D01*
X147478069Y-76906337D01*
X147329507Y-76546788D01*
X147054659Y-76271460D01*
X146695370Y-76122270D01*
X146306337Y-76121931D01*
X145946788Y-76270493D01*
X145671460Y-76545341D01*
X145522270Y-76904630D01*
X145521931Y-77293663D01*
X145670493Y-77653212D01*
X145740000Y-77722840D01*
X145740000Y-82776920D01*
X145671460Y-82845341D01*
X145522270Y-83204630D01*
X145522059Y-83447257D01*
X144760000Y-82685198D01*
X144760000Y-72100000D01*
X144702148Y-71809161D01*
X144537401Y-71562599D01*
X140011040Y-67036238D01*
X140011040Y-66635963D01*
X150923642Y-66635963D01*
X151039806Y-66917658D01*
X151701333Y-67168062D01*
X152408329Y-67146249D01*
X152960194Y-66917658D01*
X153033080Y-66740910D01*
X163438695Y-66740910D01*
X163805640Y-67236343D01*
X165211171Y-67829736D01*
X166736793Y-67840087D01*
X168150246Y-67265819D01*
X168194360Y-67236343D01*
X168561305Y-66740910D01*
X166000000Y-64179605D01*
X163438695Y-66740910D01*
X153033080Y-66740910D01*
X153076358Y-66635963D01*
X152000000Y-65559605D01*
X150923642Y-66635963D01*
X140011040Y-66635963D01*
X140011040Y-65736400D01*
X139966762Y-65501083D01*
X139827690Y-65284959D01*
X139615490Y-65139969D01*
X139571655Y-65131092D01*
X139604902Y-65081333D01*
X150211938Y-65081333D01*
X150233751Y-65788329D01*
X150462342Y-66340194D01*
X150744037Y-66456358D01*
X151820395Y-65380000D01*
X152179605Y-65380000D01*
X153255963Y-66456358D01*
X153537658Y-66340194D01*
X153788062Y-65678667D01*
X153766249Y-64971671D01*
X153668959Y-64736793D01*
X162159913Y-64736793D01*
X162734181Y-66150246D01*
X162763657Y-66194360D01*
X163259090Y-66561305D01*
X165820395Y-64000000D01*
X163259090Y-61438695D01*
X162763657Y-61805640D01*
X162170264Y-63211171D01*
X162159913Y-64736793D01*
X153668959Y-64736793D01*
X153537658Y-64419806D01*
X153255963Y-64303642D01*
X152179605Y-65380000D01*
X151820395Y-65380000D01*
X150744037Y-64303642D01*
X150462342Y-64419806D01*
X150211938Y-65081333D01*
X139604902Y-65081333D01*
X139884526Y-64662848D01*
X139991702Y-64124037D01*
X150923642Y-64124037D01*
X152000000Y-65200395D01*
X153076358Y-64124037D01*
X152960194Y-63842342D01*
X152298667Y-63591938D01*
X151591671Y-63613751D01*
X151039806Y-63842342D01*
X150923642Y-64124037D01*
X139991702Y-64124037D01*
X139998600Y-64089359D01*
X139998600Y-64030641D01*
X139884526Y-63457152D01*
X139559670Y-62970971D01*
X139073489Y-62646115D01*
X138500000Y-62532041D01*
X137926511Y-62646115D01*
X137440330Y-62970971D01*
X137230000Y-63285752D01*
X137019670Y-62970971D01*
X136533489Y-62646115D01*
X135960000Y-62532041D01*
X135386511Y-62646115D01*
X134900330Y-62970971D01*
X134684336Y-63294228D01*
X134626821Y-63171510D01*
X134194947Y-62777312D01*
X133779026Y-62605042D01*
X133547000Y-62726183D01*
X133547000Y-63933000D01*
X133567000Y-63933000D01*
X133567000Y-64187000D01*
X133547000Y-64187000D01*
X133547000Y-64207000D01*
X133293000Y-64207000D01*
X133293000Y-64187000D01*
X132085531Y-64187000D01*
X131965032Y-64419027D01*
X132213179Y-64948490D01*
X132631161Y-65330008D01*
X132360330Y-65510971D01*
X132035474Y-65997152D01*
X131921400Y-66570641D01*
X130746880Y-66570641D01*
X130746880Y-65449580D01*
X130702602Y-65214263D01*
X130563530Y-64998139D01*
X130555341Y-64992544D01*
X130637767Y-64910118D01*
X130734440Y-64676729D01*
X130734440Y-64236730D01*
X130575690Y-64077980D01*
X129627000Y-64077980D01*
X129627000Y-64097980D01*
X129373000Y-64097980D01*
X129373000Y-64077980D01*
X128424310Y-64077980D01*
X128265560Y-64236730D01*
X128265560Y-64676729D01*
X128362233Y-64910118D01*
X128444445Y-64992331D01*
X128304129Y-65197690D01*
X128253120Y-65449580D01*
X127550777Y-65449580D01*
X127829736Y-64788829D01*
X127840087Y-63263207D01*
X127824658Y-63225231D01*
X128265560Y-63225231D01*
X128265560Y-63665230D01*
X128424310Y-63823980D01*
X129373000Y-63823980D01*
X129373000Y-62875290D01*
X129627000Y-62875290D01*
X129627000Y-63823980D01*
X130575690Y-63823980D01*
X130698697Y-63700973D01*
X131965032Y-63700973D01*
X132085531Y-63933000D01*
X133293000Y-63933000D01*
X133293000Y-62726183D01*
X133060974Y-62605042D01*
X132645053Y-62777312D01*
X132213179Y-63171510D01*
X131965032Y-63700973D01*
X130698697Y-63700973D01*
X130734440Y-63665230D01*
X130734440Y-63225231D01*
X130637767Y-62991842D01*
X130459139Y-62813213D01*
X130225750Y-62716540D01*
X129785750Y-62716540D01*
X129627000Y-62875290D01*
X129373000Y-62875290D01*
X129214250Y-62716540D01*
X128774250Y-62716540D01*
X128540861Y-62813213D01*
X128362233Y-62991842D01*
X128265560Y-63225231D01*
X127824658Y-63225231D01*
X127265819Y-61849754D01*
X127236343Y-61805640D01*
X126740910Y-61438695D01*
X124179605Y-64000000D01*
X123820395Y-64000000D01*
X121259090Y-61438695D01*
X120763657Y-61805640D01*
X120710000Y-61932734D01*
X120710000Y-60710000D01*
X121909271Y-60710000D01*
X121849754Y-60734181D01*
X121849754Y-60734181D01*
G37*
X121849754Y-60734181D02*
X121805640Y-60763657D01*
X121438695Y-61259090D01*
X124000000Y-63820395D01*
X126561305Y-61259090D01*
X126194360Y-60763657D01*
X126067266Y-60710000D01*
X163909271Y-60710000D01*
X163849754Y-60734181D01*
X163805640Y-60763657D01*
X163438695Y-61259090D01*
X166000000Y-63820395D01*
X168561305Y-61259090D01*
X168194360Y-60763657D01*
X168067266Y-60710000D01*
X169290000Y-60710000D01*
X169290000Y-61909271D01*
X169265819Y-61849754D01*
X169236343Y-61805640D01*
X168740910Y-61438695D01*
X166179605Y-64000000D01*
X168740910Y-66561305D01*
X169236343Y-66194360D01*
X169290000Y-66067266D01*
X169290000Y-103909271D01*
X169265819Y-103849754D01*
X169236343Y-103805640D01*
X168740910Y-103438695D01*
X166179605Y-106000000D01*
X168740910Y-108561305D01*
X169236343Y-108194360D01*
X169290000Y-108067266D01*
X169290000Y-109290000D01*
X168090729Y-109290000D01*
X168150246Y-109265819D01*
X168194360Y-109236343D01*
X168561305Y-108740910D01*
X166000000Y-106179605D01*
X163438695Y-108740910D01*
X163805640Y-109236343D01*
X163932734Y-109290000D01*
X126090729Y-109290000D01*
X126150246Y-109265819D01*
X126194360Y-109236343D01*
X126561305Y-108740910D01*
X124000000Y-106179605D01*
X121438695Y-108740910D01*
X121805640Y-109236343D01*
X121932734Y-109290000D01*
X120710000Y-109290000D01*
X120710000Y-108090729D01*
X120734181Y-108150246D01*
X120763657Y-108194360D01*
X121259090Y-108561305D01*
X123820395Y-106000000D01*
X124179605Y-106000000D01*
X126740910Y-108561305D01*
X127236343Y-108194360D01*
X127829736Y-106788829D01*
X127830089Y-106736793D01*
X162159913Y-106736793D01*
X162734181Y-108150246D01*
X162763657Y-108194360D01*
X163259090Y-108561305D01*
X165820395Y-106000000D01*
X163259090Y-103438695D01*
X162763657Y-103805640D01*
X162170264Y-105211171D01*
X162159913Y-106736793D01*
X127830089Y-106736793D01*
X127840087Y-105263207D01*
X127729223Y-104990334D01*
X135129677Y-104990334D01*
X135413767Y-105677886D01*
X135939347Y-106204384D01*
X136626402Y-106489674D01*
X137370334Y-106490323D01*
X138057886Y-106206233D01*
X138584384Y-105680653D01*
X138619120Y-105597000D01*
X144380000Y-105597000D01*
X144753882Y-105522630D01*
X145070843Y-105310843D01*
X147122596Y-103259090D01*
X163438695Y-103259090D01*
X166000000Y-105820395D01*
X168561305Y-103259090D01*
X168194360Y-102763657D01*
X166788829Y-102170264D01*
X165263207Y-102159913D01*
X163849754Y-102734181D01*
X163805640Y-102763657D01*
X163438695Y-103259090D01*
X147122596Y-103259090D01*
X150229523Y-100152163D01*
X165027443Y-100152163D01*
X165126042Y-100418965D01*
X165735582Y-100645401D01*
X166385377Y-100621341D01*
X166873958Y-100418965D01*
X166972557Y-100152163D01*
X166000000Y-99179605D01*
X165027443Y-100152163D01*
X150229523Y-100152163D01*
X151646104Y-98735582D01*
X164354599Y-98735582D01*
X164378659Y-99385377D01*
X164581035Y-99873958D01*
X164847837Y-99972557D01*
X165820395Y-99000000D01*
X166179605Y-99000000D01*
X167152163Y-99972557D01*
X167418965Y-99873958D01*
X167645401Y-99264418D01*
X167621341Y-98614623D01*
X167418965Y-98126042D01*
X167152163Y-98027443D01*
X166179605Y-99000000D01*
X165820395Y-99000000D01*
X164847837Y-98027443D01*
X164581035Y-98126042D01*
X164354599Y-98735582D01*
X151646104Y-98735582D01*
X152690843Y-97690844D01*
X152902630Y-97373882D01*
X152906466Y-97354599D01*
X152977000Y-97000000D01*
X152977000Y-94243694D01*
X164365226Y-94243694D01*
X164613538Y-94844655D01*
X164958480Y-95190199D01*
X164615154Y-95532927D01*
X164365794Y-96133453D01*
X164365226Y-96783694D01*
X164613538Y-97384655D01*
X165040539Y-97812401D01*
X165027443Y-97847837D01*
X166000000Y-98820395D01*
X166972557Y-97847837D01*
X166959276Y-97811901D01*
X167384846Y-97387073D01*
X167634206Y-96786547D01*
X167634774Y-96136306D01*
X167386462Y-95535345D01*
X167041520Y-95189801D01*
X167384846Y-94847073D01*
X167634206Y-94246547D01*
X167634774Y-93596306D01*
X167386462Y-92995345D01*
X166927073Y-92535154D01*
X166326547Y-92285794D01*
X165676306Y-92285226D01*
X165075345Y-92533538D01*
X164615154Y-92992927D01*
X164365794Y-93593453D01*
X164365226Y-94243694D01*
X152977000Y-94243694D01*
X152977000Y-89859654D01*
X153057886Y-89826233D01*
X153584384Y-89300653D01*
X153869674Y-88613598D01*
X153870323Y-87869666D01*
X153586233Y-87182114D01*
X153060653Y-86655616D01*
X152589557Y-86460000D01*
X153385198Y-86460000D01*
X157762599Y-90837401D01*
X158009160Y-91002148D01*
X158300000Y-91060000D01*
X166500000Y-91060000D01*
X166790839Y-91002148D01*
X167037401Y-90837401D01*
X167537401Y-90337401D01*
X167702148Y-90090839D01*
X167760000Y-89800000D01*
X167760000Y-89463346D01*
X168244415Y-89139670D01*
X168569271Y-88653489D01*
X168683345Y-88080000D01*
X168569271Y-87506511D01*
X168244415Y-87020330D01*
X167929634Y-86810000D01*
X168244415Y-86599670D01*
X168569271Y-86113489D01*
X168683345Y-85540000D01*
X168569271Y-84966511D01*
X168244415Y-84480330D01*
X168222220Y-84465500D01*
X168375699Y-84401927D01*
X168554327Y-84223298D01*
X168651000Y-83989909D01*
X168651000Y-83285750D01*
X168492250Y-83127000D01*
X167127000Y-83127000D01*
X167127000Y-83147000D01*
X166873000Y-83147000D01*
X166873000Y-83127000D01*
X165507750Y-83127000D01*
X165349000Y-83285750D01*
X165349000Y-83989909D01*
X165445673Y-84223298D01*
X165624301Y-84401927D01*
X165777780Y-84465500D01*
X165755585Y-84480330D01*
X165675295Y-84600493D01*
X163084893Y-82010091D01*
X165349000Y-82010091D01*
X165349000Y-82714250D01*
X165507750Y-82873000D01*
X166873000Y-82873000D01*
X166873000Y-81660150D01*
X167127000Y-81660150D01*
X167127000Y-82873000D01*
X168492250Y-82873000D01*
X168651000Y-82714250D01*
X168651000Y-82010091D01*
X168554327Y-81776702D01*
X168375699Y-81598073D01*
X168142310Y-81501400D01*
X167285750Y-81501400D01*
X167127000Y-81660150D01*
X166873000Y-81660150D01*
X166714250Y-81501400D01*
X165857690Y-81501400D01*
X165624301Y-81598073D01*
X165445673Y-81776702D01*
X165349000Y-82010091D01*
X163084893Y-82010091D01*
X156060000Y-74985198D01*
X156060000Y-74223080D01*
X156128540Y-74154659D01*
X156277730Y-73795370D01*
X156278069Y-73406337D01*
X156129507Y-73046788D01*
X155854659Y-72771460D01*
X155495370Y-72622270D01*
X155106337Y-72621931D01*
X154746788Y-72770493D01*
X154471460Y-73045341D01*
X154322270Y-73404630D01*
X154321931Y-73793663D01*
X154470493Y-74153212D01*
X154540000Y-74222840D01*
X154540000Y-75300000D01*
X154597852Y-75590839D01*
X154762599Y-75837401D01*
X165002599Y-86077401D01*
X165249161Y-86242148D01*
X165540000Y-86300000D01*
X165555352Y-86300000D01*
X165755585Y-86599670D01*
X166070366Y-86810000D01*
X165755585Y-87020330D01*
X165430729Y-87506511D01*
X165316655Y-88080000D01*
X165430729Y-88653489D01*
X165755585Y-89139670D01*
X166240000Y-89463346D01*
X166240000Y-89485198D01*
X166185198Y-89540000D01*
X158614802Y-89540000D01*
X156094184Y-87019382D01*
X157660223Y-87019382D01*
X157905368Y-87410888D01*
X158949360Y-87837609D01*
X160077181Y-87832330D01*
X161094632Y-87410888D01*
X161339777Y-87019382D01*
X159500000Y-85179605D01*
X157660223Y-87019382D01*
X156094184Y-87019382D01*
X154237401Y-85162599D01*
X153990839Y-84997852D01*
X153700000Y-84940000D01*
X150823080Y-84940000D01*
X150754659Y-84871460D01*
X150395370Y-84722270D01*
X150006337Y-84721931D01*
X149646788Y-84870493D01*
X149371460Y-85145341D01*
X149222270Y-85504630D01*
X149221931Y-85893663D01*
X149370493Y-86253212D01*
X149645341Y-86528540D01*
X150004630Y-86677730D01*
X150393663Y-86678069D01*
X150753212Y-86529507D01*
X150822840Y-86460000D01*
X151411067Y-86460000D01*
X150942114Y-86653767D01*
X150415616Y-87179347D01*
X150130326Y-87866402D01*
X150129677Y-88610334D01*
X150413767Y-89297886D01*
X150939347Y-89824384D01*
X151023000Y-89859120D01*
X151023000Y-96595313D01*
X143975314Y-103643000D01*
X138619654Y-103643000D01*
X138586233Y-103562114D01*
X138060653Y-103035616D01*
X137373598Y-102750326D01*
X136629666Y-102749677D01*
X135942114Y-103033767D01*
X135415616Y-103559347D01*
X135130326Y-104246402D01*
X135129677Y-104990334D01*
X127729223Y-104990334D01*
X127265819Y-103849754D01*
X127236343Y-103805640D01*
X126740910Y-103438695D01*
X124179605Y-106000000D01*
X123820395Y-106000000D01*
X121259090Y-103438695D01*
X120763657Y-103805640D01*
X120710000Y-103932734D01*
X120710000Y-103259090D01*
X121438695Y-103259090D01*
X124000000Y-105820395D01*
X126561305Y-103259090D01*
X126194360Y-102763657D01*
X124788829Y-102170264D01*
X123263207Y-102159913D01*
X121849754Y-102734181D01*
X121805640Y-102763657D01*
X121438695Y-103259090D01*
X120710000Y-103259090D01*
X120710000Y-88285750D01*
X121349000Y-88285750D01*
X121349000Y-88989909D01*
X121445673Y-89223298D01*
X121624301Y-89401927D01*
X121857690Y-89498600D01*
X122714250Y-89498600D01*
X122873000Y-89339850D01*
X122873000Y-88127000D01*
X123127000Y-88127000D01*
X123127000Y-89339850D01*
X123285750Y-89498600D01*
X124142310Y-89498600D01*
X124375699Y-89401927D01*
X124554327Y-89223298D01*
X124651000Y-88989909D01*
X124651000Y-88285750D01*
X124492250Y-88127000D01*
X123127000Y-88127000D01*
X122873000Y-88127000D01*
X121507750Y-88127000D01*
X121349000Y-88285750D01*
X120710000Y-88285750D01*
X120710000Y-82920000D01*
X121316655Y-82920000D01*
X121430729Y-83493489D01*
X121755585Y-83979670D01*
X122070366Y-84190000D01*
X121755585Y-84400330D01*
X121430729Y-84886511D01*
X121316655Y-85460000D01*
X121430729Y-86033489D01*
X121755585Y-86519670D01*
X121777780Y-86534500D01*
X121624301Y-86598073D01*
X121445673Y-86776702D01*
X121349000Y-87010091D01*
X121349000Y-87714250D01*
X121507750Y-87873000D01*
X122873000Y-87873000D01*
X122873000Y-87853000D01*
X123127000Y-87853000D01*
X123127000Y-87873000D01*
X124492250Y-87873000D01*
X124651000Y-87714250D01*
X124651000Y-87019382D01*
X128660223Y-87019382D01*
X128905368Y-87410888D01*
X129949360Y-87837609D01*
X131077181Y-87832330D01*
X132094632Y-87410888D01*
X132339777Y-87019382D01*
X130500000Y-85179605D01*
X128660223Y-87019382D01*
X124651000Y-87019382D01*
X124651000Y-87010091D01*
X124554327Y-86776702D01*
X124375699Y-86598073D01*
X124222220Y-86534500D01*
X124244415Y-86519670D01*
X124569271Y-86033489D01*
X124683345Y-85460000D01*
X124569271Y-84886511D01*
X124277176Y-84449360D01*
X127662391Y-84449360D01*
X127667670Y-85577181D01*
X128089112Y-86594632D01*
X128480618Y-86839777D01*
X130320395Y-85000000D01*
X130679605Y-85000000D01*
X132519382Y-86839777D01*
X132910888Y-86594632D01*
X133337609Y-85550640D01*
X133332330Y-84422819D01*
X132910888Y-83405368D01*
X132519382Y-83160223D01*
X130679605Y-85000000D01*
X130320395Y-85000000D01*
X128480618Y-83160223D01*
X128089112Y-83405368D01*
X127662391Y-84449360D01*
X124277176Y-84449360D01*
X124244415Y-84400330D01*
X123929634Y-84190000D01*
X124244415Y-83979670D01*
X124569271Y-83493489D01*
X124671287Y-82980618D01*
X128660223Y-82980618D01*
X130500000Y-84820395D01*
X132339777Y-82980618D01*
X132094632Y-82589112D01*
X131050640Y-82162391D01*
X129922819Y-82167670D01*
X128905368Y-82589112D01*
X128660223Y-82980618D01*
X124671287Y-82980618D01*
X124683345Y-82920000D01*
X124582381Y-82412421D01*
X126334802Y-80660000D01*
X131085198Y-80660000D01*
X135562599Y-85137401D01*
X135809161Y-85302148D01*
X136100000Y-85360000D01*
X138777095Y-85360000D01*
X138945341Y-85528540D01*
X139304630Y-85677730D01*
X139693663Y-85678069D01*
X140053212Y-85529507D01*
X140328540Y-85254659D01*
X140477730Y-84895370D01*
X140478069Y-84506337D01*
X140329507Y-84146788D01*
X140054659Y-83871460D01*
X139695370Y-83722270D01*
X139306337Y-83721931D01*
X139020587Y-83840000D01*
X136414802Y-83840000D01*
X134686916Y-82112114D01*
X135221692Y-82112114D01*
X135491806Y-82765840D01*
X135991529Y-83266436D01*
X136644782Y-83537691D01*
X137352114Y-83538308D01*
X138005840Y-83268194D01*
X138506436Y-82768471D01*
X138777691Y-82115218D01*
X138778308Y-81407886D01*
X138508194Y-80754160D01*
X138008471Y-80253564D01*
X137355218Y-79982309D01*
X136647886Y-79981692D01*
X135994160Y-80251806D01*
X135493564Y-80751529D01*
X135222309Y-81404782D01*
X135221692Y-82112114D01*
X134686916Y-82112114D01*
X131937401Y-79362599D01*
X131690839Y-79197852D01*
X131400000Y-79140000D01*
X126020000Y-79140000D01*
X125729161Y-79197852D01*
X125482599Y-79362599D01*
X123384137Y-81461061D01*
X123184745Y-81421400D01*
X122815255Y-81421400D01*
X122241766Y-81535474D01*
X121755585Y-81860330D01*
X121430729Y-82346511D01*
X121316655Y-82920000D01*
X120710000Y-82920000D01*
X120710000Y-76185750D01*
X132849000Y-76185750D01*
X132849000Y-77042309D01*
X132945673Y-77275698D01*
X133124301Y-77454327D01*
X133357690Y-77551000D01*
X134214250Y-77551000D01*
X134373000Y-77392250D01*
X134373000Y-76027000D01*
X133007750Y-76027000D01*
X132849000Y-76185750D01*
X120710000Y-76185750D01*
X120710000Y-66740910D01*
X121438695Y-66740910D01*
X121805640Y-67236343D01*
X123211171Y-67829736D01*
X124736793Y-67840087D01*
X126150246Y-67265819D01*
X126194360Y-67236343D01*
X126561305Y-66740910D01*
X124000000Y-64179605D01*
X121438695Y-66740910D01*
X120710000Y-66740910D01*
X120710000Y-66090729D01*
X120734181Y-66150246D01*
X120763657Y-66194360D01*
X121259090Y-66561305D01*
X123820395Y-64000000D01*
X124179605Y-64000000D01*
X126740910Y-66561305D01*
X127236343Y-66194360D01*
X127550777Y-65449580D01*
X128253120Y-65449580D01*
X128253120Y-66648460D01*
X128297398Y-66883777D01*
X128436470Y-67099901D01*
X128648670Y-67244891D01*
X128740000Y-67263386D01*
X128740000Y-73000000D01*
X128747163Y-73036012D01*
X128743470Y-73072544D01*
X128775882Y-73180391D01*
X128797852Y-73290839D01*
X128818252Y-73321370D01*
X128828820Y-73356533D01*
X128900034Y-73443766D01*
X128962599Y-73537401D01*
X128993128Y-73557800D01*
X129016349Y-73586244D01*
X130521944Y-74828359D01*
X130521931Y-74843663D01*
X130670493Y-75203212D01*
X130945341Y-75478540D01*
X131304630Y-75627730D01*
X131693663Y-75628069D01*
X132053212Y-75479507D01*
X132328540Y-75204659D01*
X132477730Y-74845370D01*
X132477806Y-74757691D01*
X132849000Y-74757691D01*
X132849000Y-75614250D01*
X133007750Y-75773000D01*
X134373000Y-75773000D01*
X134373000Y-74407750D01*
X134627000Y-74407750D01*
X134627000Y-75773000D01*
X134647000Y-75773000D01*
X134647000Y-76027000D01*
X134627000Y-76027000D01*
X134627000Y-77392250D01*
X134785750Y-77551000D01*
X135642310Y-77551000D01*
X135875699Y-77454327D01*
X136054327Y-77275698D01*
X136071999Y-77233034D01*
X136408190Y-77457670D01*
X137040000Y-77583345D01*
X137671810Y-77457670D01*
X138207433Y-77099778D01*
X138565325Y-76564155D01*
X138691000Y-75932345D01*
X138691000Y-75867655D01*
X138565325Y-75235845D01*
X138207433Y-74700222D01*
X137671810Y-74342330D01*
X137040000Y-74216655D01*
X136408190Y-74342330D01*
X136071999Y-74566966D01*
X136054327Y-74524302D01*
X135875699Y-74345673D01*
X135642310Y-74249000D01*
X134785750Y-74249000D01*
X134627000Y-74407750D01*
X134373000Y-74407750D01*
X134214250Y-74249000D01*
X133357690Y-74249000D01*
X133124301Y-74345673D01*
X132945673Y-74524302D01*
X132849000Y-74757691D01*
X132477806Y-74757691D01*
X132478069Y-74456337D01*
X132329507Y-74096788D01*
X132054659Y-73821460D01*
X131695370Y-73672270D01*
X131508926Y-73672108D01*
X130260000Y-72641744D01*
X130260000Y-67265689D01*
X130334757Y-67251622D01*
X130550881Y-67112550D01*
X130695871Y-66900350D01*
X130746880Y-66648460D01*
X130746880Y-66570641D01*
X131921400Y-66570641D01*
X131921400Y-66629359D01*
X132035474Y-67202848D01*
X132360330Y-67689029D01*
X132846511Y-68013885D01*
X133420000Y-68127959D01*
X133993489Y-68013885D01*
X134479670Y-67689029D01*
X134690000Y-67374248D01*
X134900330Y-67689029D01*
X135386511Y-68013885D01*
X135960000Y-68127959D01*
X136533489Y-68013885D01*
X137019670Y-67689029D01*
X137028805Y-67675358D01*
X137033238Y-67698917D01*
X137172310Y-67915041D01*
X137384510Y-68060031D01*
X137636400Y-68111040D01*
X138936238Y-68111040D01*
X143240000Y-72414802D01*
X143240000Y-83000000D01*
X143297852Y-83290839D01*
X143462599Y-83537401D01*
X144522015Y-84596817D01*
X144521931Y-84693663D01*
X144670493Y-85053212D01*
X144945341Y-85328540D01*
X145304630Y-85477730D01*
X145693663Y-85478069D01*
X145740000Y-85458923D01*
X145740000Y-86385198D01*
X144422599Y-87702599D01*
X144257852Y-87949161D01*
X144200000Y-88240000D01*
X144200000Y-93455352D01*
X143900330Y-93655585D01*
X143690000Y-93970366D01*
X143479670Y-93655585D01*
X142993489Y-93330729D01*
X142420000Y-93216655D01*
X141846511Y-93330729D01*
X141360330Y-93655585D01*
X141035474Y-94141766D01*
X140921400Y-94715255D01*
X140921400Y-95084745D01*
X141035474Y-95658234D01*
X141360330Y-96144415D01*
X141846511Y-96469271D01*
X142420000Y-96583345D01*
X142993489Y-96469271D01*
X143479670Y-96144415D01*
X143690000Y-95829634D01*
X143900330Y-96144415D01*
X144386511Y-96469271D01*
X144960000Y-96583345D01*
X145533489Y-96469271D01*
X146019670Y-96144415D01*
X146034500Y-96122220D01*
X146098073Y-96275699D01*
X146276702Y-96454327D01*
X146510091Y-96551000D01*
X147214250Y-96551000D01*
X147373000Y-96392250D01*
X147373000Y-95027000D01*
X147627000Y-95027000D01*
X147627000Y-96392250D01*
X147785750Y-96551000D01*
X148489909Y-96551000D01*
X148723298Y-96454327D01*
X148901927Y-96275699D01*
X148998600Y-96042310D01*
X148998600Y-95185750D01*
X148839850Y-95027000D01*
X147627000Y-95027000D01*
X147373000Y-95027000D01*
X147353000Y-95027000D01*
X147353000Y-94773000D01*
X147373000Y-94773000D01*
X147373000Y-93407750D01*
X147627000Y-93407750D01*
X147627000Y-94773000D01*
X148839850Y-94773000D01*
X148998600Y-94614250D01*
X148998600Y-93757690D01*
X148901927Y-93524301D01*
X148723298Y-93345673D01*
X148489909Y-93249000D01*
X147785750Y-93249000D01*
X147627000Y-93407750D01*
X147373000Y-93407750D01*
X147214250Y-93249000D01*
X146510091Y-93249000D01*
X146276702Y-93345673D01*
X146098073Y-93524301D01*
X146034500Y-93677780D01*
X146019670Y-93655585D01*
X145720000Y-93455352D01*
X145720000Y-88554802D01*
X147037401Y-87237401D01*
X147202148Y-86990839D01*
X147260000Y-86700000D01*
X147260000Y-84449360D01*
X156662391Y-84449360D01*
X156667670Y-85577181D01*
X157089112Y-86594632D01*
X157480618Y-86839777D01*
X159320395Y-85000000D01*
X159679605Y-85000000D01*
X161519382Y-86839777D01*
X161910888Y-86594632D01*
X162337609Y-85550640D01*
X162332330Y-84422819D01*
X161910888Y-83405368D01*
X161519382Y-83160223D01*
X159679605Y-85000000D01*
X159320395Y-85000000D01*
X157480618Y-83160223D01*
X157089112Y-83405368D01*
X156662391Y-84449360D01*
X147260000Y-84449360D01*
X147260000Y-84023080D01*
X147328540Y-83954659D01*
X147477730Y-83595370D01*
X147478069Y-83206337D01*
X147384805Y-82980618D01*
X157660223Y-82980618D01*
X159500000Y-84820395D01*
X161339777Y-82980618D01*
X161094632Y-82589112D01*
X160050640Y-82162391D01*
X158922819Y-82167670D01*
X157905368Y-82589112D01*
X157660223Y-82980618D01*
X147384805Y-82980618D01*
X147329507Y-82846788D01*
X147260000Y-82777160D01*
X147260000Y-77723080D01*
X147328540Y-77654659D01*
X147477730Y-77295370D01*
X147478069Y-76906337D01*
X147329507Y-76546788D01*
X147054659Y-76271460D01*
X146695370Y-76122270D01*
X146306337Y-76121931D01*
X145946788Y-76270493D01*
X145671460Y-76545341D01*
X145522270Y-76904630D01*
X145521931Y-77293663D01*
X145670493Y-77653212D01*
X145740000Y-77722840D01*
X145740000Y-82776920D01*
X145671460Y-82845341D01*
X145522270Y-83204630D01*
X145522059Y-83447257D01*
X144760000Y-82685198D01*
X144760000Y-72100000D01*
X144702148Y-71809161D01*
X144537401Y-71562599D01*
X140011040Y-67036238D01*
X140011040Y-66635963D01*
X150923642Y-66635963D01*
X151039806Y-66917658D01*
X151701333Y-67168062D01*
X152408329Y-67146249D01*
X152960194Y-66917658D01*
X153033080Y-66740910D01*
X163438695Y-66740910D01*
X163805640Y-67236343D01*
X165211171Y-67829736D01*
X166736793Y-67840087D01*
X168150246Y-67265819D01*
X168194360Y-67236343D01*
X168561305Y-66740910D01*
X166000000Y-64179605D01*
X163438695Y-66740910D01*
X153033080Y-66740910D01*
X153076358Y-66635963D01*
X152000000Y-65559605D01*
X150923642Y-66635963D01*
X140011040Y-66635963D01*
X140011040Y-65736400D01*
X139966762Y-65501083D01*
X139827690Y-65284959D01*
X139615490Y-65139969D01*
X139571655Y-65131092D01*
X139604902Y-65081333D01*
X150211938Y-65081333D01*
X150233751Y-65788329D01*
X150462342Y-66340194D01*
X150744037Y-66456358D01*
X151820395Y-65380000D01*
X152179605Y-65380000D01*
X153255963Y-66456358D01*
X153537658Y-66340194D01*
X153788062Y-65678667D01*
X153766249Y-64971671D01*
X153668959Y-64736793D01*
X162159913Y-64736793D01*
X162734181Y-66150246D01*
X162763657Y-66194360D01*
X163259090Y-66561305D01*
X165820395Y-64000000D01*
X163259090Y-61438695D01*
X162763657Y-61805640D01*
X162170264Y-63211171D01*
X162159913Y-64736793D01*
X153668959Y-64736793D01*
X153537658Y-64419806D01*
X153255963Y-64303642D01*
X152179605Y-65380000D01*
X151820395Y-65380000D01*
X150744037Y-64303642D01*
X150462342Y-64419806D01*
X150211938Y-65081333D01*
X139604902Y-65081333D01*
X139884526Y-64662848D01*
X139991702Y-64124037D01*
X150923642Y-64124037D01*
X152000000Y-65200395D01*
X153076358Y-64124037D01*
X152960194Y-63842342D01*
X152298667Y-63591938D01*
X151591671Y-63613751D01*
X151039806Y-63842342D01*
X150923642Y-64124037D01*
X139991702Y-64124037D01*
X139998600Y-64089359D01*
X139998600Y-64030641D01*
X139884526Y-63457152D01*
X139559670Y-62970971D01*
X139073489Y-62646115D01*
X138500000Y-62532041D01*
X137926511Y-62646115D01*
X137440330Y-62970971D01*
X137230000Y-63285752D01*
X137019670Y-62970971D01*
X136533489Y-62646115D01*
X135960000Y-62532041D01*
X135386511Y-62646115D01*
X134900330Y-62970971D01*
X134684336Y-63294228D01*
X134626821Y-63171510D01*
X134194947Y-62777312D01*
X133779026Y-62605042D01*
X133547000Y-62726183D01*
X133547000Y-63933000D01*
X133567000Y-63933000D01*
X133567000Y-64187000D01*
X133547000Y-64187000D01*
X133547000Y-64207000D01*
X133293000Y-64207000D01*
X133293000Y-64187000D01*
X132085531Y-64187000D01*
X131965032Y-64419027D01*
X132213179Y-64948490D01*
X132631161Y-65330008D01*
X132360330Y-65510971D01*
X132035474Y-65997152D01*
X131921400Y-66570641D01*
X130746880Y-66570641D01*
X130746880Y-65449580D01*
X130702602Y-65214263D01*
X130563530Y-64998139D01*
X130555341Y-64992544D01*
X130637767Y-64910118D01*
X130734440Y-64676729D01*
X130734440Y-64236730D01*
X130575690Y-64077980D01*
X129627000Y-64077980D01*
X129627000Y-64097980D01*
X129373000Y-64097980D01*
X129373000Y-64077980D01*
X128424310Y-64077980D01*
X128265560Y-64236730D01*
X128265560Y-64676729D01*
X128362233Y-64910118D01*
X128444445Y-64992331D01*
X128304129Y-65197690D01*
X128253120Y-65449580D01*
X127550777Y-65449580D01*
X127829736Y-64788829D01*
X127840087Y-63263207D01*
X127824658Y-63225231D01*
X128265560Y-63225231D01*
X128265560Y-63665230D01*
X128424310Y-63823980D01*
X129373000Y-63823980D01*
X129373000Y-62875290D01*
X129627000Y-62875290D01*
X129627000Y-63823980D01*
X130575690Y-63823980D01*
X130698697Y-63700973D01*
X131965032Y-63700973D01*
X132085531Y-63933000D01*
X133293000Y-63933000D01*
X133293000Y-62726183D01*
X133060974Y-62605042D01*
X132645053Y-62777312D01*
X132213179Y-63171510D01*
X131965032Y-63700973D01*
X130698697Y-63700973D01*
X130734440Y-63665230D01*
X130734440Y-63225231D01*
X130637767Y-62991842D01*
X130459139Y-62813213D01*
X130225750Y-62716540D01*
X129785750Y-62716540D01*
X129627000Y-62875290D01*
X129373000Y-62875290D01*
X129214250Y-62716540D01*
X128774250Y-62716540D01*
X128540861Y-62813213D01*
X128362233Y-62991842D01*
X128265560Y-63225231D01*
X127824658Y-63225231D01*
X127265819Y-61849754D01*
X127236343Y-61805640D01*
X126740910Y-61438695D01*
X124179605Y-64000000D01*
X123820395Y-64000000D01*
X121259090Y-61438695D01*
X120763657Y-61805640D01*
X120710000Y-61932734D01*
X120710000Y-60710000D01*
X121909271Y-60710000D01*
X121849754Y-60734181D01*
M02*
