G04 #@! TF.FileFunction,Copper,L2,Bot,Signal*
%FSLAX46Y46*%
G04 Gerber Fmt 4.6, Leading zero omitted, Abs format (unit mm)*
G04 Created by KiCad (PCBNEW 4.0.2-4+6225~38~ubuntu14.04.1-stable) date Tue 22 Mar 2016 13:46:15 GMT*
%MOMM*%
G01*
G04 APERTURE LIST*
%ADD10C,0.100000*%
%ADD11R,1.727200X2.032000*%
%ADD12O,1.727200X2.032000*%
%ADD13R,2.032000X1.727200*%
%ADD14O,2.032000X1.727200*%
%ADD15C,1.998980*%
%ADD16R,1.727200X1.727200*%
%ADD17O,1.727200X1.727200*%
%ADD18R,2.032000X2.032000*%
%ADD19O,2.032000X2.032000*%
%ADD20C,6.400000*%
%ADD21C,0.600000*%
%ADD22C,0.250000*%
%ADD23C,0.254000*%
G04 APERTURE END LIST*
D10*
D11*
X147500000Y-94500000D03*
D12*
X144960000Y-94500000D03*
X142420000Y-94500000D03*
D13*
X123000000Y-88000000D03*
D14*
X123000000Y-85460000D03*
X123000000Y-82920000D03*
D15*
X124000000Y-73460000D03*
X124000000Y-70920000D03*
X124000000Y-76000000D03*
D16*
X142000000Y-65000000D03*
D17*
X142000000Y-62460000D03*
X144540000Y-65000000D03*
X144540000Y-62460000D03*
X147080000Y-65000000D03*
X147080000Y-62460000D03*
D13*
X167000000Y-83000000D03*
D14*
X167000000Y-85540000D03*
X167000000Y-88080000D03*
D18*
X144000000Y-106000000D03*
D19*
X146540000Y-106000000D03*
D20*
X166000000Y-106000000D03*
X124000000Y-106000000D03*
X166000000Y-64000000D03*
X124000000Y-64000000D03*
D21*
X154000000Y-72750000D03*
X146000000Y-68000000D03*
X131750000Y-76250000D03*
X134250000Y-70250000D03*
X136000000Y-75500000D03*
X162000000Y-76000000D03*
D22*
X147080000Y-65000000D02*
X147080000Y-65670000D01*
X147080000Y-65670000D02*
X146250000Y-66500000D01*
X138000000Y-66500000D02*
X134250000Y-70250000D01*
X146250000Y-66500000D02*
X138000000Y-66500000D01*
X159500000Y-75500000D02*
X136000000Y-75500000D01*
X162000000Y-76000000D02*
X159500000Y-75500000D01*
D23*
G36*
X121849754Y-60734181D02*
X121805640Y-60763657D01*
X121438695Y-61259090D01*
X124000000Y-63820395D01*
X126561305Y-61259090D01*
X126194360Y-60763657D01*
X126067266Y-60710000D01*
X163909271Y-60710000D01*
X163849754Y-60734181D01*
X163805640Y-60763657D01*
X163438695Y-61259090D01*
X166000000Y-63820395D01*
X168561305Y-61259090D01*
X168194360Y-60763657D01*
X168067266Y-60710000D01*
X169290000Y-60710000D01*
X169290000Y-61909271D01*
X169265819Y-61849754D01*
X169236343Y-61805640D01*
X168740910Y-61438695D01*
X166179605Y-64000000D01*
X168740910Y-66561305D01*
X169236343Y-66194360D01*
X169290000Y-66067266D01*
X169290000Y-103909271D01*
X169265819Y-103849754D01*
X169236343Y-103805640D01*
X168740910Y-103438695D01*
X166179605Y-106000000D01*
X168740910Y-108561305D01*
X169236343Y-108194360D01*
X169290000Y-108067266D01*
X169290000Y-109290000D01*
X168090729Y-109290000D01*
X168150246Y-109265819D01*
X168194360Y-109236343D01*
X168561305Y-108740910D01*
X166000000Y-106179605D01*
X163438695Y-108740910D01*
X163805640Y-109236343D01*
X163932734Y-109290000D01*
X126090729Y-109290000D01*
X126150246Y-109265819D01*
X126194360Y-109236343D01*
X126561305Y-108740910D01*
X124000000Y-106179605D01*
X121438695Y-108740910D01*
X121805640Y-109236343D01*
X121932734Y-109290000D01*
X120710000Y-109290000D01*
X120710000Y-108090729D01*
X120734181Y-108150246D01*
X120763657Y-108194360D01*
X121259090Y-108561305D01*
X123820395Y-106000000D01*
X124179605Y-106000000D01*
X126740910Y-108561305D01*
X127236343Y-108194360D01*
X127829736Y-106788829D01*
X127840087Y-105263207D01*
X127726649Y-104984000D01*
X142336560Y-104984000D01*
X142336560Y-107016000D01*
X142380838Y-107251317D01*
X142519910Y-107467441D01*
X142732110Y-107612431D01*
X142984000Y-107663440D01*
X145016000Y-107663440D01*
X145251317Y-107619162D01*
X145467441Y-107480090D01*
X145578840Y-107317052D01*
X145675182Y-107406385D01*
X146157056Y-107605975D01*
X146413000Y-107486836D01*
X146413000Y-106127000D01*
X146667000Y-106127000D01*
X146667000Y-107486836D01*
X146922944Y-107605975D01*
X147404818Y-107406385D01*
X147877188Y-106968379D01*
X147983518Y-106736793D01*
X162159913Y-106736793D01*
X162734181Y-108150246D01*
X162763657Y-108194360D01*
X163259090Y-108561305D01*
X165820395Y-106000000D01*
X163259090Y-103438695D01*
X162763657Y-103805640D01*
X162170264Y-105211171D01*
X162159913Y-106736793D01*
X147983518Y-106736793D01*
X148145983Y-106382946D01*
X148027367Y-106127000D01*
X146667000Y-106127000D01*
X146413000Y-106127000D01*
X146393000Y-106127000D01*
X146393000Y-105873000D01*
X146413000Y-105873000D01*
X146413000Y-104513164D01*
X146667000Y-104513164D01*
X146667000Y-105873000D01*
X148027367Y-105873000D01*
X148145983Y-105617054D01*
X147877188Y-105031621D01*
X147404818Y-104593615D01*
X146922944Y-104394025D01*
X146667000Y-104513164D01*
X146413000Y-104513164D01*
X146157056Y-104394025D01*
X145675182Y-104593615D01*
X145577602Y-104684097D01*
X145480090Y-104532559D01*
X145267890Y-104387569D01*
X145016000Y-104336560D01*
X142984000Y-104336560D01*
X142748683Y-104380838D01*
X142532559Y-104519910D01*
X142387569Y-104732110D01*
X142336560Y-104984000D01*
X127726649Y-104984000D01*
X127265819Y-103849754D01*
X127236343Y-103805640D01*
X126740910Y-103438695D01*
X124179605Y-106000000D01*
X123820395Y-106000000D01*
X121259090Y-103438695D01*
X120763657Y-103805640D01*
X120710000Y-103932734D01*
X120710000Y-103259090D01*
X121438695Y-103259090D01*
X124000000Y-105820395D01*
X126561305Y-103259090D01*
X163438695Y-103259090D01*
X166000000Y-105820395D01*
X168561305Y-103259090D01*
X168194360Y-102763657D01*
X166788829Y-102170264D01*
X165263207Y-102159913D01*
X163849754Y-102734181D01*
X163805640Y-102763657D01*
X163438695Y-103259090D01*
X126561305Y-103259090D01*
X126194360Y-102763657D01*
X124788829Y-102170264D01*
X123263207Y-102159913D01*
X121849754Y-102734181D01*
X121805640Y-102763657D01*
X121438695Y-103259090D01*
X120710000Y-103259090D01*
X120710000Y-94315255D01*
X140921400Y-94315255D01*
X140921400Y-94684745D01*
X141035474Y-95258234D01*
X141360330Y-95744415D01*
X141846511Y-96069271D01*
X142420000Y-96183345D01*
X142993489Y-96069271D01*
X143479670Y-95744415D01*
X143690000Y-95429634D01*
X143900330Y-95744415D01*
X144386511Y-96069271D01*
X144960000Y-96183345D01*
X145533489Y-96069271D01*
X146019670Y-95744415D01*
X146034500Y-95722220D01*
X146098073Y-95875699D01*
X146276702Y-96054327D01*
X146510091Y-96151000D01*
X147214250Y-96151000D01*
X147373000Y-95992250D01*
X147373000Y-94627000D01*
X147627000Y-94627000D01*
X147627000Y-95992250D01*
X147785750Y-96151000D01*
X148489909Y-96151000D01*
X148723298Y-96054327D01*
X148901927Y-95875699D01*
X148998600Y-95642310D01*
X148998600Y-94785750D01*
X148839850Y-94627000D01*
X147627000Y-94627000D01*
X147373000Y-94627000D01*
X147353000Y-94627000D01*
X147353000Y-94373000D01*
X147373000Y-94373000D01*
X147373000Y-93007750D01*
X147627000Y-93007750D01*
X147627000Y-94373000D01*
X148839850Y-94373000D01*
X148998600Y-94214250D01*
X148998600Y-93357690D01*
X148901927Y-93124301D01*
X148723298Y-92945673D01*
X148489909Y-92849000D01*
X147785750Y-92849000D01*
X147627000Y-93007750D01*
X147373000Y-93007750D01*
X147214250Y-92849000D01*
X146510091Y-92849000D01*
X146276702Y-92945673D01*
X146098073Y-93124301D01*
X146034500Y-93277780D01*
X146019670Y-93255585D01*
X145533489Y-92930729D01*
X144960000Y-92816655D01*
X144386511Y-92930729D01*
X143900330Y-93255585D01*
X143690000Y-93570366D01*
X143479670Y-93255585D01*
X142993489Y-92930729D01*
X142420000Y-92816655D01*
X141846511Y-92930729D01*
X141360330Y-93255585D01*
X141035474Y-93741766D01*
X140921400Y-94315255D01*
X120710000Y-94315255D01*
X120710000Y-88285750D01*
X121349000Y-88285750D01*
X121349000Y-88989909D01*
X121445673Y-89223298D01*
X121624301Y-89401927D01*
X121857690Y-89498600D01*
X122714250Y-89498600D01*
X122873000Y-89339850D01*
X122873000Y-88127000D01*
X123127000Y-88127000D01*
X123127000Y-89339850D01*
X123285750Y-89498600D01*
X124142310Y-89498600D01*
X124375699Y-89401927D01*
X124554327Y-89223298D01*
X124651000Y-88989909D01*
X124651000Y-88285750D01*
X124492250Y-88127000D01*
X123127000Y-88127000D01*
X122873000Y-88127000D01*
X121507750Y-88127000D01*
X121349000Y-88285750D01*
X120710000Y-88285750D01*
X120710000Y-82920000D01*
X121316655Y-82920000D01*
X121430729Y-83493489D01*
X121755585Y-83979670D01*
X122070366Y-84190000D01*
X121755585Y-84400330D01*
X121430729Y-84886511D01*
X121316655Y-85460000D01*
X121430729Y-86033489D01*
X121755585Y-86519670D01*
X121777780Y-86534500D01*
X121624301Y-86598073D01*
X121445673Y-86776702D01*
X121349000Y-87010091D01*
X121349000Y-87714250D01*
X121507750Y-87873000D01*
X122873000Y-87873000D01*
X122873000Y-87853000D01*
X123127000Y-87853000D01*
X123127000Y-87873000D01*
X124492250Y-87873000D01*
X124651000Y-87714250D01*
X124651000Y-87010091D01*
X124554327Y-86776702D01*
X124375699Y-86598073D01*
X124222220Y-86534500D01*
X124244415Y-86519670D01*
X124569271Y-86033489D01*
X124683345Y-85460000D01*
X124591846Y-85000000D01*
X128290000Y-85000000D01*
X128420166Y-85654389D01*
X128790847Y-86209153D01*
X129345611Y-86579834D01*
X130000000Y-86710000D01*
X130654389Y-86579834D01*
X131209153Y-86209153D01*
X131579834Y-85654389D01*
X131710000Y-85000000D01*
X158290000Y-85000000D01*
X158420166Y-85654389D01*
X158790847Y-86209153D01*
X159345611Y-86579834D01*
X160000000Y-86710000D01*
X160654389Y-86579834D01*
X161209153Y-86209153D01*
X161579834Y-85654389D01*
X161602587Y-85540000D01*
X165316655Y-85540000D01*
X165430729Y-86113489D01*
X165755585Y-86599670D01*
X166070366Y-86810000D01*
X165755585Y-87020330D01*
X165430729Y-87506511D01*
X165316655Y-88080000D01*
X165430729Y-88653489D01*
X165755585Y-89139670D01*
X166241766Y-89464526D01*
X166815255Y-89578600D01*
X167184745Y-89578600D01*
X167758234Y-89464526D01*
X168244415Y-89139670D01*
X168569271Y-88653489D01*
X168683345Y-88080000D01*
X168569271Y-87506511D01*
X168244415Y-87020330D01*
X167929634Y-86810000D01*
X168244415Y-86599670D01*
X168569271Y-86113489D01*
X168683345Y-85540000D01*
X168569271Y-84966511D01*
X168244415Y-84480330D01*
X168222220Y-84465500D01*
X168375699Y-84401927D01*
X168554327Y-84223298D01*
X168651000Y-83989909D01*
X168651000Y-83285750D01*
X168492250Y-83127000D01*
X167127000Y-83127000D01*
X167127000Y-83147000D01*
X166873000Y-83147000D01*
X166873000Y-83127000D01*
X165507750Y-83127000D01*
X165349000Y-83285750D01*
X165349000Y-83989909D01*
X165445673Y-84223298D01*
X165624301Y-84401927D01*
X165777780Y-84465500D01*
X165755585Y-84480330D01*
X165430729Y-84966511D01*
X165316655Y-85540000D01*
X161602587Y-85540000D01*
X161710000Y-85000000D01*
X161579834Y-84345611D01*
X161209153Y-83790847D01*
X160654389Y-83420166D01*
X160000000Y-83290000D01*
X159345611Y-83420166D01*
X158790847Y-83790847D01*
X158420166Y-84345611D01*
X158290000Y-85000000D01*
X131710000Y-85000000D01*
X131579834Y-84345611D01*
X131209153Y-83790847D01*
X130654389Y-83420166D01*
X130000000Y-83290000D01*
X129345611Y-83420166D01*
X128790847Y-83790847D01*
X128420166Y-84345611D01*
X128290000Y-85000000D01*
X124591846Y-85000000D01*
X124569271Y-84886511D01*
X124244415Y-84400330D01*
X123929634Y-84190000D01*
X124244415Y-83979670D01*
X124569271Y-83493489D01*
X124683345Y-82920000D01*
X124569271Y-82346511D01*
X124344483Y-82010091D01*
X165349000Y-82010091D01*
X165349000Y-82714250D01*
X165507750Y-82873000D01*
X166873000Y-82873000D01*
X166873000Y-81660150D01*
X167127000Y-81660150D01*
X167127000Y-82873000D01*
X168492250Y-82873000D01*
X168651000Y-82714250D01*
X168651000Y-82010091D01*
X168554327Y-81776702D01*
X168375699Y-81598073D01*
X168142310Y-81501400D01*
X167285750Y-81501400D01*
X167127000Y-81660150D01*
X166873000Y-81660150D01*
X166714250Y-81501400D01*
X165857690Y-81501400D01*
X165624301Y-81598073D01*
X165445673Y-81776702D01*
X165349000Y-82010091D01*
X124344483Y-82010091D01*
X124244415Y-81860330D01*
X123758234Y-81535474D01*
X123184745Y-81421400D01*
X122815255Y-81421400D01*
X122241766Y-81535474D01*
X121755585Y-81860330D01*
X121430729Y-82346511D01*
X121316655Y-82920000D01*
X120710000Y-82920000D01*
X120710000Y-77152163D01*
X123027443Y-77152163D01*
X123126042Y-77418965D01*
X123735582Y-77645401D01*
X124385377Y-77621341D01*
X124873958Y-77418965D01*
X124972557Y-77152163D01*
X124000000Y-76179605D01*
X123027443Y-77152163D01*
X120710000Y-77152163D01*
X120710000Y-75735582D01*
X122354599Y-75735582D01*
X122378659Y-76385377D01*
X122581035Y-76873958D01*
X122847837Y-76972557D01*
X123820395Y-76000000D01*
X124179605Y-76000000D01*
X125152163Y-76972557D01*
X125418965Y-76873958D01*
X125645401Y-76264418D01*
X125623954Y-75685167D01*
X135064838Y-75685167D01*
X135206883Y-76028943D01*
X135469673Y-76292192D01*
X135813201Y-76434838D01*
X136185167Y-76435162D01*
X136528943Y-76293117D01*
X136562118Y-76260000D01*
X159424747Y-76260000D01*
X161316000Y-76638251D01*
X161469673Y-76792192D01*
X161813201Y-76934838D01*
X162185167Y-76935162D01*
X162528943Y-76793117D01*
X162792192Y-76530327D01*
X162934838Y-76186799D01*
X162935162Y-75814833D01*
X162793117Y-75471057D01*
X162530327Y-75207808D01*
X162186799Y-75065162D01*
X161814833Y-75064838D01*
X161614116Y-75147772D01*
X159649048Y-74754759D01*
X159573802Y-74754680D01*
X159500000Y-74740000D01*
X136562463Y-74740000D01*
X136530327Y-74707808D01*
X136186799Y-74565162D01*
X135814833Y-74564838D01*
X135471057Y-74706883D01*
X135207808Y-74969673D01*
X135065162Y-75313201D01*
X135064838Y-75685167D01*
X125623954Y-75685167D01*
X125621341Y-75614623D01*
X125418965Y-75126042D01*
X125152163Y-75027443D01*
X124179605Y-76000000D01*
X123820395Y-76000000D01*
X122847837Y-75027443D01*
X122581035Y-75126042D01*
X122354599Y-75735582D01*
X120710000Y-75735582D01*
X120710000Y-71243694D01*
X122365226Y-71243694D01*
X122613538Y-71844655D01*
X122958480Y-72190199D01*
X122615154Y-72532927D01*
X122365794Y-73133453D01*
X122365226Y-73783694D01*
X122613538Y-74384655D01*
X123040539Y-74812401D01*
X123027443Y-74847837D01*
X124000000Y-75820395D01*
X124972557Y-74847837D01*
X124959276Y-74811901D01*
X125384846Y-74387073D01*
X125634206Y-73786547D01*
X125634774Y-73136306D01*
X125386462Y-72535345D01*
X125041520Y-72189801D01*
X125384846Y-71847073D01*
X125634206Y-71246547D01*
X125634774Y-70596306D01*
X125568193Y-70435167D01*
X133314838Y-70435167D01*
X133456883Y-70778943D01*
X133719673Y-71042192D01*
X134063201Y-71184838D01*
X134435167Y-71185162D01*
X134778943Y-71043117D01*
X135042192Y-70780327D01*
X135184838Y-70436799D01*
X135184879Y-70389923D01*
X138314802Y-67260000D01*
X146250000Y-67260000D01*
X146540839Y-67202148D01*
X146787401Y-67037401D01*
X147083892Y-66740910D01*
X163438695Y-66740910D01*
X163805640Y-67236343D01*
X165211171Y-67829736D01*
X166736793Y-67840087D01*
X168150246Y-67265819D01*
X168194360Y-67236343D01*
X168561305Y-66740910D01*
X166000000Y-64179605D01*
X163438695Y-66740910D01*
X147083892Y-66740910D01*
X147350686Y-66474116D01*
X147653489Y-66413885D01*
X148139670Y-66089029D01*
X148464526Y-65602848D01*
X148578600Y-65029359D01*
X148578600Y-64970641D01*
X148532085Y-64736793D01*
X162159913Y-64736793D01*
X162734181Y-66150246D01*
X162763657Y-66194360D01*
X163259090Y-66561305D01*
X165820395Y-64000000D01*
X163259090Y-61438695D01*
X162763657Y-61805640D01*
X162170264Y-63211171D01*
X162159913Y-64736793D01*
X148532085Y-64736793D01*
X148464526Y-64397152D01*
X148139670Y-63910971D01*
X147868839Y-63730008D01*
X148286821Y-63348490D01*
X148534968Y-62819027D01*
X148414469Y-62587000D01*
X147207000Y-62587000D01*
X147207000Y-62607000D01*
X146953000Y-62607000D01*
X146953000Y-62587000D01*
X146933000Y-62587000D01*
X146933000Y-62333000D01*
X146953000Y-62333000D01*
X146953000Y-61126183D01*
X147207000Y-61126183D01*
X147207000Y-62333000D01*
X148414469Y-62333000D01*
X148534968Y-62100973D01*
X148286821Y-61571510D01*
X147854947Y-61177312D01*
X147439026Y-61005042D01*
X147207000Y-61126183D01*
X146953000Y-61126183D01*
X146720974Y-61005042D01*
X146305053Y-61177312D01*
X145873179Y-61571510D01*
X145815664Y-61694228D01*
X145599670Y-61370971D01*
X145113489Y-61046115D01*
X144540000Y-60932041D01*
X143966511Y-61046115D01*
X143480330Y-61370971D01*
X143270000Y-61685752D01*
X143059670Y-61370971D01*
X142573489Y-61046115D01*
X142000000Y-60932041D01*
X141426511Y-61046115D01*
X140940330Y-61370971D01*
X140615474Y-61857152D01*
X140501400Y-62430641D01*
X140501400Y-62489359D01*
X140615474Y-63062848D01*
X140926574Y-63528442D01*
X140901083Y-63533238D01*
X140684959Y-63672310D01*
X140539969Y-63884510D01*
X140488960Y-64136400D01*
X140488960Y-65740000D01*
X138000000Y-65740000D01*
X137709161Y-65797852D01*
X137462599Y-65962599D01*
X134110320Y-69314878D01*
X134064833Y-69314838D01*
X133721057Y-69456883D01*
X133457808Y-69719673D01*
X133315162Y-70063201D01*
X133314838Y-70435167D01*
X125568193Y-70435167D01*
X125386462Y-69995345D01*
X124927073Y-69535154D01*
X124326547Y-69285794D01*
X123676306Y-69285226D01*
X123075345Y-69533538D01*
X122615154Y-69992927D01*
X122365794Y-70593453D01*
X122365226Y-71243694D01*
X120710000Y-71243694D01*
X120710000Y-66740910D01*
X121438695Y-66740910D01*
X121805640Y-67236343D01*
X123211171Y-67829736D01*
X124736793Y-67840087D01*
X126150246Y-67265819D01*
X126194360Y-67236343D01*
X126561305Y-66740910D01*
X124000000Y-64179605D01*
X121438695Y-66740910D01*
X120710000Y-66740910D01*
X120710000Y-66090729D01*
X120734181Y-66150246D01*
X120763657Y-66194360D01*
X121259090Y-66561305D01*
X123820395Y-64000000D01*
X124179605Y-64000000D01*
X126740910Y-66561305D01*
X127236343Y-66194360D01*
X127829736Y-64788829D01*
X127840087Y-63263207D01*
X127265819Y-61849754D01*
X127236343Y-61805640D01*
X126740910Y-61438695D01*
X124179605Y-64000000D01*
X123820395Y-64000000D01*
X121259090Y-61438695D01*
X120763657Y-61805640D01*
X120710000Y-61932734D01*
X120710000Y-60710000D01*
X121909271Y-60710000D01*
X121849754Y-60734181D01*
X121849754Y-60734181D01*
G37*
X121849754Y-60734181D02*
X121805640Y-60763657D01*
X121438695Y-61259090D01*
X124000000Y-63820395D01*
X126561305Y-61259090D01*
X126194360Y-60763657D01*
X126067266Y-60710000D01*
X163909271Y-60710000D01*
X163849754Y-60734181D01*
X163805640Y-60763657D01*
X163438695Y-61259090D01*
X166000000Y-63820395D01*
X168561305Y-61259090D01*
X168194360Y-60763657D01*
X168067266Y-60710000D01*
X169290000Y-60710000D01*
X169290000Y-61909271D01*
X169265819Y-61849754D01*
X169236343Y-61805640D01*
X168740910Y-61438695D01*
X166179605Y-64000000D01*
X168740910Y-66561305D01*
X169236343Y-66194360D01*
X169290000Y-66067266D01*
X169290000Y-103909271D01*
X169265819Y-103849754D01*
X169236343Y-103805640D01*
X168740910Y-103438695D01*
X166179605Y-106000000D01*
X168740910Y-108561305D01*
X169236343Y-108194360D01*
X169290000Y-108067266D01*
X169290000Y-109290000D01*
X168090729Y-109290000D01*
X168150246Y-109265819D01*
X168194360Y-109236343D01*
X168561305Y-108740910D01*
X166000000Y-106179605D01*
X163438695Y-108740910D01*
X163805640Y-109236343D01*
X163932734Y-109290000D01*
X126090729Y-109290000D01*
X126150246Y-109265819D01*
X126194360Y-109236343D01*
X126561305Y-108740910D01*
X124000000Y-106179605D01*
X121438695Y-108740910D01*
X121805640Y-109236343D01*
X121932734Y-109290000D01*
X120710000Y-109290000D01*
X120710000Y-108090729D01*
X120734181Y-108150246D01*
X120763657Y-108194360D01*
X121259090Y-108561305D01*
X123820395Y-106000000D01*
X124179605Y-106000000D01*
X126740910Y-108561305D01*
X127236343Y-108194360D01*
X127829736Y-106788829D01*
X127840087Y-105263207D01*
X127726649Y-104984000D01*
X142336560Y-104984000D01*
X142336560Y-107016000D01*
X142380838Y-107251317D01*
X142519910Y-107467441D01*
X142732110Y-107612431D01*
X142984000Y-107663440D01*
X145016000Y-107663440D01*
X145251317Y-107619162D01*
X145467441Y-107480090D01*
X145578840Y-107317052D01*
X145675182Y-107406385D01*
X146157056Y-107605975D01*
X146413000Y-107486836D01*
X146413000Y-106127000D01*
X146667000Y-106127000D01*
X146667000Y-107486836D01*
X146922944Y-107605975D01*
X147404818Y-107406385D01*
X147877188Y-106968379D01*
X147983518Y-106736793D01*
X162159913Y-106736793D01*
X162734181Y-108150246D01*
X162763657Y-108194360D01*
X163259090Y-108561305D01*
X165820395Y-106000000D01*
X163259090Y-103438695D01*
X162763657Y-103805640D01*
X162170264Y-105211171D01*
X162159913Y-106736793D01*
X147983518Y-106736793D01*
X148145983Y-106382946D01*
X148027367Y-106127000D01*
X146667000Y-106127000D01*
X146413000Y-106127000D01*
X146393000Y-106127000D01*
X146393000Y-105873000D01*
X146413000Y-105873000D01*
X146413000Y-104513164D01*
X146667000Y-104513164D01*
X146667000Y-105873000D01*
X148027367Y-105873000D01*
X148145983Y-105617054D01*
X147877188Y-105031621D01*
X147404818Y-104593615D01*
X146922944Y-104394025D01*
X146667000Y-104513164D01*
X146413000Y-104513164D01*
X146157056Y-104394025D01*
X145675182Y-104593615D01*
X145577602Y-104684097D01*
X145480090Y-104532559D01*
X145267890Y-104387569D01*
X145016000Y-104336560D01*
X142984000Y-104336560D01*
X142748683Y-104380838D01*
X142532559Y-104519910D01*
X142387569Y-104732110D01*
X142336560Y-104984000D01*
X127726649Y-104984000D01*
X127265819Y-103849754D01*
X127236343Y-103805640D01*
X126740910Y-103438695D01*
X124179605Y-106000000D01*
X123820395Y-106000000D01*
X121259090Y-103438695D01*
X120763657Y-103805640D01*
X120710000Y-103932734D01*
X120710000Y-103259090D01*
X121438695Y-103259090D01*
X124000000Y-105820395D01*
X126561305Y-103259090D01*
X163438695Y-103259090D01*
X166000000Y-105820395D01*
X168561305Y-103259090D01*
X168194360Y-102763657D01*
X166788829Y-102170264D01*
X165263207Y-102159913D01*
X163849754Y-102734181D01*
X163805640Y-102763657D01*
X163438695Y-103259090D01*
X126561305Y-103259090D01*
X126194360Y-102763657D01*
X124788829Y-102170264D01*
X123263207Y-102159913D01*
X121849754Y-102734181D01*
X121805640Y-102763657D01*
X121438695Y-103259090D01*
X120710000Y-103259090D01*
X120710000Y-94315255D01*
X140921400Y-94315255D01*
X140921400Y-94684745D01*
X141035474Y-95258234D01*
X141360330Y-95744415D01*
X141846511Y-96069271D01*
X142420000Y-96183345D01*
X142993489Y-96069271D01*
X143479670Y-95744415D01*
X143690000Y-95429634D01*
X143900330Y-95744415D01*
X144386511Y-96069271D01*
X144960000Y-96183345D01*
X145533489Y-96069271D01*
X146019670Y-95744415D01*
X146034500Y-95722220D01*
X146098073Y-95875699D01*
X146276702Y-96054327D01*
X146510091Y-96151000D01*
X147214250Y-96151000D01*
X147373000Y-95992250D01*
X147373000Y-94627000D01*
X147627000Y-94627000D01*
X147627000Y-95992250D01*
X147785750Y-96151000D01*
X148489909Y-96151000D01*
X148723298Y-96054327D01*
X148901927Y-95875699D01*
X148998600Y-95642310D01*
X148998600Y-94785750D01*
X148839850Y-94627000D01*
X147627000Y-94627000D01*
X147373000Y-94627000D01*
X147353000Y-94627000D01*
X147353000Y-94373000D01*
X147373000Y-94373000D01*
X147373000Y-93007750D01*
X147627000Y-93007750D01*
X147627000Y-94373000D01*
X148839850Y-94373000D01*
X148998600Y-94214250D01*
X148998600Y-93357690D01*
X148901927Y-93124301D01*
X148723298Y-92945673D01*
X148489909Y-92849000D01*
X147785750Y-92849000D01*
X147627000Y-93007750D01*
X147373000Y-93007750D01*
X147214250Y-92849000D01*
X146510091Y-92849000D01*
X146276702Y-92945673D01*
X146098073Y-93124301D01*
X146034500Y-93277780D01*
X146019670Y-93255585D01*
X145533489Y-92930729D01*
X144960000Y-92816655D01*
X144386511Y-92930729D01*
X143900330Y-93255585D01*
X143690000Y-93570366D01*
X143479670Y-93255585D01*
X142993489Y-92930729D01*
X142420000Y-92816655D01*
X141846511Y-92930729D01*
X141360330Y-93255585D01*
X141035474Y-93741766D01*
X140921400Y-94315255D01*
X120710000Y-94315255D01*
X120710000Y-88285750D01*
X121349000Y-88285750D01*
X121349000Y-88989909D01*
X121445673Y-89223298D01*
X121624301Y-89401927D01*
X121857690Y-89498600D01*
X122714250Y-89498600D01*
X122873000Y-89339850D01*
X122873000Y-88127000D01*
X123127000Y-88127000D01*
X123127000Y-89339850D01*
X123285750Y-89498600D01*
X124142310Y-89498600D01*
X124375699Y-89401927D01*
X124554327Y-89223298D01*
X124651000Y-88989909D01*
X124651000Y-88285750D01*
X124492250Y-88127000D01*
X123127000Y-88127000D01*
X122873000Y-88127000D01*
X121507750Y-88127000D01*
X121349000Y-88285750D01*
X120710000Y-88285750D01*
X120710000Y-82920000D01*
X121316655Y-82920000D01*
X121430729Y-83493489D01*
X121755585Y-83979670D01*
X122070366Y-84190000D01*
X121755585Y-84400330D01*
X121430729Y-84886511D01*
X121316655Y-85460000D01*
X121430729Y-86033489D01*
X121755585Y-86519670D01*
X121777780Y-86534500D01*
X121624301Y-86598073D01*
X121445673Y-86776702D01*
X121349000Y-87010091D01*
X121349000Y-87714250D01*
X121507750Y-87873000D01*
X122873000Y-87873000D01*
X122873000Y-87853000D01*
X123127000Y-87853000D01*
X123127000Y-87873000D01*
X124492250Y-87873000D01*
X124651000Y-87714250D01*
X124651000Y-87010091D01*
X124554327Y-86776702D01*
X124375699Y-86598073D01*
X124222220Y-86534500D01*
X124244415Y-86519670D01*
X124569271Y-86033489D01*
X124683345Y-85460000D01*
X124591846Y-85000000D01*
X128290000Y-85000000D01*
X128420166Y-85654389D01*
X128790847Y-86209153D01*
X129345611Y-86579834D01*
X130000000Y-86710000D01*
X130654389Y-86579834D01*
X131209153Y-86209153D01*
X131579834Y-85654389D01*
X131710000Y-85000000D01*
X158290000Y-85000000D01*
X158420166Y-85654389D01*
X158790847Y-86209153D01*
X159345611Y-86579834D01*
X160000000Y-86710000D01*
X160654389Y-86579834D01*
X161209153Y-86209153D01*
X161579834Y-85654389D01*
X161602587Y-85540000D01*
X165316655Y-85540000D01*
X165430729Y-86113489D01*
X165755585Y-86599670D01*
X166070366Y-86810000D01*
X165755585Y-87020330D01*
X165430729Y-87506511D01*
X165316655Y-88080000D01*
X165430729Y-88653489D01*
X165755585Y-89139670D01*
X166241766Y-89464526D01*
X166815255Y-89578600D01*
X167184745Y-89578600D01*
X167758234Y-89464526D01*
X168244415Y-89139670D01*
X168569271Y-88653489D01*
X168683345Y-88080000D01*
X168569271Y-87506511D01*
X168244415Y-87020330D01*
X167929634Y-86810000D01*
X168244415Y-86599670D01*
X168569271Y-86113489D01*
X168683345Y-85540000D01*
X168569271Y-84966511D01*
X168244415Y-84480330D01*
X168222220Y-84465500D01*
X168375699Y-84401927D01*
X168554327Y-84223298D01*
X168651000Y-83989909D01*
X168651000Y-83285750D01*
X168492250Y-83127000D01*
X167127000Y-83127000D01*
X167127000Y-83147000D01*
X166873000Y-83147000D01*
X166873000Y-83127000D01*
X165507750Y-83127000D01*
X165349000Y-83285750D01*
X165349000Y-83989909D01*
X165445673Y-84223298D01*
X165624301Y-84401927D01*
X165777780Y-84465500D01*
X165755585Y-84480330D01*
X165430729Y-84966511D01*
X165316655Y-85540000D01*
X161602587Y-85540000D01*
X161710000Y-85000000D01*
X161579834Y-84345611D01*
X161209153Y-83790847D01*
X160654389Y-83420166D01*
X160000000Y-83290000D01*
X159345611Y-83420166D01*
X158790847Y-83790847D01*
X158420166Y-84345611D01*
X158290000Y-85000000D01*
X131710000Y-85000000D01*
X131579834Y-84345611D01*
X131209153Y-83790847D01*
X130654389Y-83420166D01*
X130000000Y-83290000D01*
X129345611Y-83420166D01*
X128790847Y-83790847D01*
X128420166Y-84345611D01*
X128290000Y-85000000D01*
X124591846Y-85000000D01*
X124569271Y-84886511D01*
X124244415Y-84400330D01*
X123929634Y-84190000D01*
X124244415Y-83979670D01*
X124569271Y-83493489D01*
X124683345Y-82920000D01*
X124569271Y-82346511D01*
X124344483Y-82010091D01*
X165349000Y-82010091D01*
X165349000Y-82714250D01*
X165507750Y-82873000D01*
X166873000Y-82873000D01*
X166873000Y-81660150D01*
X167127000Y-81660150D01*
X167127000Y-82873000D01*
X168492250Y-82873000D01*
X168651000Y-82714250D01*
X168651000Y-82010091D01*
X168554327Y-81776702D01*
X168375699Y-81598073D01*
X168142310Y-81501400D01*
X167285750Y-81501400D01*
X167127000Y-81660150D01*
X166873000Y-81660150D01*
X166714250Y-81501400D01*
X165857690Y-81501400D01*
X165624301Y-81598073D01*
X165445673Y-81776702D01*
X165349000Y-82010091D01*
X124344483Y-82010091D01*
X124244415Y-81860330D01*
X123758234Y-81535474D01*
X123184745Y-81421400D01*
X122815255Y-81421400D01*
X122241766Y-81535474D01*
X121755585Y-81860330D01*
X121430729Y-82346511D01*
X121316655Y-82920000D01*
X120710000Y-82920000D01*
X120710000Y-77152163D01*
X123027443Y-77152163D01*
X123126042Y-77418965D01*
X123735582Y-77645401D01*
X124385377Y-77621341D01*
X124873958Y-77418965D01*
X124972557Y-77152163D01*
X124000000Y-76179605D01*
X123027443Y-77152163D01*
X120710000Y-77152163D01*
X120710000Y-75735582D01*
X122354599Y-75735582D01*
X122378659Y-76385377D01*
X122581035Y-76873958D01*
X122847837Y-76972557D01*
X123820395Y-76000000D01*
X124179605Y-76000000D01*
X125152163Y-76972557D01*
X125418965Y-76873958D01*
X125645401Y-76264418D01*
X125623954Y-75685167D01*
X135064838Y-75685167D01*
X135206883Y-76028943D01*
X135469673Y-76292192D01*
X135813201Y-76434838D01*
X136185167Y-76435162D01*
X136528943Y-76293117D01*
X136562118Y-76260000D01*
X159424747Y-76260000D01*
X161316000Y-76638251D01*
X161469673Y-76792192D01*
X161813201Y-76934838D01*
X162185167Y-76935162D01*
X162528943Y-76793117D01*
X162792192Y-76530327D01*
X162934838Y-76186799D01*
X162935162Y-75814833D01*
X162793117Y-75471057D01*
X162530327Y-75207808D01*
X162186799Y-75065162D01*
X161814833Y-75064838D01*
X161614116Y-75147772D01*
X159649048Y-74754759D01*
X159573802Y-74754680D01*
X159500000Y-74740000D01*
X136562463Y-74740000D01*
X136530327Y-74707808D01*
X136186799Y-74565162D01*
X135814833Y-74564838D01*
X135471057Y-74706883D01*
X135207808Y-74969673D01*
X135065162Y-75313201D01*
X135064838Y-75685167D01*
X125623954Y-75685167D01*
X125621341Y-75614623D01*
X125418965Y-75126042D01*
X125152163Y-75027443D01*
X124179605Y-76000000D01*
X123820395Y-76000000D01*
X122847837Y-75027443D01*
X122581035Y-75126042D01*
X122354599Y-75735582D01*
X120710000Y-75735582D01*
X120710000Y-71243694D01*
X122365226Y-71243694D01*
X122613538Y-71844655D01*
X122958480Y-72190199D01*
X122615154Y-72532927D01*
X122365794Y-73133453D01*
X122365226Y-73783694D01*
X122613538Y-74384655D01*
X123040539Y-74812401D01*
X123027443Y-74847837D01*
X124000000Y-75820395D01*
X124972557Y-74847837D01*
X124959276Y-74811901D01*
X125384846Y-74387073D01*
X125634206Y-73786547D01*
X125634774Y-73136306D01*
X125386462Y-72535345D01*
X125041520Y-72189801D01*
X125384846Y-71847073D01*
X125634206Y-71246547D01*
X125634774Y-70596306D01*
X125568193Y-70435167D01*
X133314838Y-70435167D01*
X133456883Y-70778943D01*
X133719673Y-71042192D01*
X134063201Y-71184838D01*
X134435167Y-71185162D01*
X134778943Y-71043117D01*
X135042192Y-70780327D01*
X135184838Y-70436799D01*
X135184879Y-70389923D01*
X138314802Y-67260000D01*
X146250000Y-67260000D01*
X146540839Y-67202148D01*
X146787401Y-67037401D01*
X147083892Y-66740910D01*
X163438695Y-66740910D01*
X163805640Y-67236343D01*
X165211171Y-67829736D01*
X166736793Y-67840087D01*
X168150246Y-67265819D01*
X168194360Y-67236343D01*
X168561305Y-66740910D01*
X166000000Y-64179605D01*
X163438695Y-66740910D01*
X147083892Y-66740910D01*
X147350686Y-66474116D01*
X147653489Y-66413885D01*
X148139670Y-66089029D01*
X148464526Y-65602848D01*
X148578600Y-65029359D01*
X148578600Y-64970641D01*
X148532085Y-64736793D01*
X162159913Y-64736793D01*
X162734181Y-66150246D01*
X162763657Y-66194360D01*
X163259090Y-66561305D01*
X165820395Y-64000000D01*
X163259090Y-61438695D01*
X162763657Y-61805640D01*
X162170264Y-63211171D01*
X162159913Y-64736793D01*
X148532085Y-64736793D01*
X148464526Y-64397152D01*
X148139670Y-63910971D01*
X147868839Y-63730008D01*
X148286821Y-63348490D01*
X148534968Y-62819027D01*
X148414469Y-62587000D01*
X147207000Y-62587000D01*
X147207000Y-62607000D01*
X146953000Y-62607000D01*
X146953000Y-62587000D01*
X146933000Y-62587000D01*
X146933000Y-62333000D01*
X146953000Y-62333000D01*
X146953000Y-61126183D01*
X147207000Y-61126183D01*
X147207000Y-62333000D01*
X148414469Y-62333000D01*
X148534968Y-62100973D01*
X148286821Y-61571510D01*
X147854947Y-61177312D01*
X147439026Y-61005042D01*
X147207000Y-61126183D01*
X146953000Y-61126183D01*
X146720974Y-61005042D01*
X146305053Y-61177312D01*
X145873179Y-61571510D01*
X145815664Y-61694228D01*
X145599670Y-61370971D01*
X145113489Y-61046115D01*
X144540000Y-60932041D01*
X143966511Y-61046115D01*
X143480330Y-61370971D01*
X143270000Y-61685752D01*
X143059670Y-61370971D01*
X142573489Y-61046115D01*
X142000000Y-60932041D01*
X141426511Y-61046115D01*
X140940330Y-61370971D01*
X140615474Y-61857152D01*
X140501400Y-62430641D01*
X140501400Y-62489359D01*
X140615474Y-63062848D01*
X140926574Y-63528442D01*
X140901083Y-63533238D01*
X140684959Y-63672310D01*
X140539969Y-63884510D01*
X140488960Y-64136400D01*
X140488960Y-65740000D01*
X138000000Y-65740000D01*
X137709161Y-65797852D01*
X137462599Y-65962599D01*
X134110320Y-69314878D01*
X134064833Y-69314838D01*
X133721057Y-69456883D01*
X133457808Y-69719673D01*
X133315162Y-70063201D01*
X133314838Y-70435167D01*
X125568193Y-70435167D01*
X125386462Y-69995345D01*
X124927073Y-69535154D01*
X124326547Y-69285794D01*
X123676306Y-69285226D01*
X123075345Y-69533538D01*
X122615154Y-69992927D01*
X122365794Y-70593453D01*
X122365226Y-71243694D01*
X120710000Y-71243694D01*
X120710000Y-66740910D01*
X121438695Y-66740910D01*
X121805640Y-67236343D01*
X123211171Y-67829736D01*
X124736793Y-67840087D01*
X126150246Y-67265819D01*
X126194360Y-67236343D01*
X126561305Y-66740910D01*
X124000000Y-64179605D01*
X121438695Y-66740910D01*
X120710000Y-66740910D01*
X120710000Y-66090729D01*
X120734181Y-66150246D01*
X120763657Y-66194360D01*
X121259090Y-66561305D01*
X123820395Y-64000000D01*
X124179605Y-64000000D01*
X126740910Y-66561305D01*
X127236343Y-66194360D01*
X127829736Y-64788829D01*
X127840087Y-63263207D01*
X127265819Y-61849754D01*
X127236343Y-61805640D01*
X126740910Y-61438695D01*
X124179605Y-64000000D01*
X123820395Y-64000000D01*
X121259090Y-61438695D01*
X120763657Y-61805640D01*
X120710000Y-61932734D01*
X120710000Y-60710000D01*
X121909271Y-60710000D01*
X121849754Y-60734181D01*
M02*
