G04 #@! TF.FileFunction,Soldermask,Top*
%FSLAX46Y46*%
G04 Gerber Fmt 4.6, Leading zero omitted, Abs format (unit mm)*
G04 Created by KiCad (PCBNEW 4.0.2-4+6225~38~ubuntu14.04.1-stable) date Wed 23 Mar 2016 14:02:06 GMT*
%MOMM*%
G01*
G04 APERTURE LIST*
%ADD10C,0.100000*%
%ADD11R,2.200860X1.200100*%
%ADD12R,1.543000X0.908000*%
%ADD13R,2.127200X2.432000*%
%ADD14O,2.127200X2.432000*%
%ADD15R,2.432000X2.127200*%
%ADD16O,2.432000X2.127200*%
%ADD17R,1.900000X1.650000*%
%ADD18R,1.900000X1.700000*%
%ADD19R,1.700000X1.900000*%
%ADD20R,1.310000X1.620000*%
%ADD21R,1.200100X2.200860*%
%ADD22C,2.398980*%
%ADD23R,2.127200X2.127200*%
%ADD24O,2.127200X2.127200*%
%ADD25R,2.432000X2.432000*%
%ADD26O,2.432000X2.432000*%
%ADD27C,6.800000*%
%ADD28R,1.620000X1.310000*%
G04 APERTURE END LIST*
D10*
D11*
X149748860Y-87800000D03*
X149748860Y-89700000D03*
X152751140Y-88750000D03*
X149748860Y-80050000D03*
X149748860Y-81950000D03*
X152751140Y-81000000D03*
D12*
X140675000Y-72345000D03*
X140675000Y-73615000D03*
X140675000Y-74885000D03*
X140675000Y-76155000D03*
X134325000Y-76155000D03*
X134325000Y-74885000D03*
X134325000Y-73615000D03*
X134325000Y-72345000D03*
D13*
X147500000Y-94500000D03*
D14*
X144960000Y-94500000D03*
X142420000Y-94500000D03*
D15*
X123000000Y-88000000D03*
D16*
X123000000Y-85460000D03*
X123000000Y-82920000D03*
D17*
X154000000Y-76000000D03*
X156500000Y-76000000D03*
X148500000Y-69750000D03*
X151000000Y-69750000D03*
X140750000Y-69750000D03*
X143250000Y-69750000D03*
D18*
X146350000Y-85000000D03*
X143650000Y-85000000D03*
D19*
X153000000Y-96350000D03*
X153000000Y-93650000D03*
X146500000Y-87650000D03*
X146500000Y-90350000D03*
D18*
X151400000Y-65000000D03*
X154100000Y-65000000D03*
D20*
X141615000Y-80750000D03*
X144885000Y-80750000D03*
X138135000Y-80750000D03*
X134865000Y-80750000D03*
D21*
X150450000Y-72748860D03*
X148550000Y-72748860D03*
X149500000Y-75751140D03*
D22*
X124000000Y-73460000D03*
X124000000Y-70920000D03*
X124000000Y-76000000D03*
D23*
X142000000Y-65000000D03*
D24*
X142000000Y-62460000D03*
X144540000Y-65000000D03*
X144540000Y-62460000D03*
X147080000Y-65000000D03*
X147080000Y-62460000D03*
D15*
X167000000Y-83000000D03*
D16*
X167000000Y-85540000D03*
X167000000Y-88080000D03*
D25*
X146250000Y-106000000D03*
D26*
X143710000Y-106000000D03*
D27*
X166000000Y-106000000D03*
X124000000Y-106000000D03*
X166000000Y-64000000D03*
X124000000Y-64000000D03*
D28*
X142500000Y-99865000D03*
X142500000Y-103135000D03*
M02*
