M48
;DRILL file {KiCad 4.0.1-stable} date 27/03/2016 20:30:42
;FORMAT={-:-/ absolute / inch / decimal}
FMAT,2
INCH,TZ
T1C0.013
T2C0.040
T3C0.047
T4C0.087
T5C0.126
%
G90
G05
M72
T1
X5.1754Y-2.9321
X5.4854Y-3.3321
X5.6254Y-2.9721
X5.6304Y-3.5271
X5.7254Y-3.0421
X5.7254Y-3.3321
X5.7754Y-3.2821
X5.9134Y-3.374
X6.1204Y-2.8971
X6.1575Y-2.6654
X6.2638Y-2.6654
T2
X4.8425Y-3.2646
X4.8425Y-3.3646
X4.8425Y-3.4646
X5.2528Y-2.522
X5.2528Y-2.622
X5.2953Y-2.9882
X5.3528Y-2.522
X5.3528Y-2.622
X5.3937Y-3.2189
X5.3937Y-4.1189
X5.3953Y-2.9882
X5.4528Y-2.522
X5.4528Y-2.622
X5.6071Y-3.7362
X5.7071Y-3.7362
X5.8071Y-3.7362
X5.9843Y-2.574
X5.9843Y-3.474
X6.5748Y-3.2677
X6.5748Y-3.3677
X6.5748Y-3.4677
T3
X6.5354Y-3.6976
X6.5354Y-3.7976
X6.5354Y-3.8976
T4
X5.1378Y-3.3465
X6.2795Y-3.3465
T5
X4.8819Y-2.5197
X4.8819Y-4.1732
X6.5354Y-2.5197
X6.5354Y-4.1732
T0
M30
