%TF.GenerationSoftware,KiCad,Pcbnew,4.0.1-stable*%
%TF.CreationDate,2016-03-27T19:11:50+01:00*%
%TF.ProjectId,rc_power_sockets,72635F706F7765725F736F636B657473,rev?*%
%TF.FileFunction,Legend,Top*%
%FSLAX46Y46*%
G04 Gerber Fmt 4.6, Leading zero omitted, Abs format (unit mm)*
G04 Created by KiCad (PCBNEW 4.0.1-stable) date 27/03/2016 19:11:50*
%MOMM*%
G01*
G04 APERTURE LIST*
%ADD10C,0.100000*%
%ADD11C,0.150000*%
%ADD12C,2.686000*%
%ADD13R,1.543000X0.908000*%
%ADD14R,4.057600X2.432000*%
%ADD15R,1.416000X2.432000*%
%ADD16C,6.800000*%
%ADD17R,1.200100X2.200860*%
%ADD18R,2.200860X1.200100*%
%ADD19R,2.127200X2.432000*%
%ADD20O,2.127200X2.432000*%
%ADD21R,2.432000X2.127200*%
%ADD22O,2.432000X2.127200*%
%ADD23R,1.650000X1.900000*%
%ADD24R,1.900000X1.650000*%
%ADD25R,1.900000X1.700000*%
%ADD26C,2.398980*%
%ADD27R,2.127200X2.127200*%
%ADD28O,2.127200X2.127200*%
%ADD29R,1.700000X1.900000*%
%ADD30R,1.620000X1.310000*%
%ADD31R,2.432000X2.432000*%
%ADD32O,2.432000X2.432000*%
%ADD33C,4.800000*%
G04 APERTURE END LIST*
D10*
D11*
X164761905Y-91052381D02*
X165380953Y-91052381D01*
X165047619Y-91433333D01*
X165190477Y-91433333D01*
X165285715Y-91480952D01*
X165333334Y-91528571D01*
X165380953Y-91623810D01*
X165380953Y-91861905D01*
X165333334Y-91957143D01*
X165285715Y-92004762D01*
X165190477Y-92052381D01*
X164904762Y-92052381D01*
X164809524Y-92004762D01*
X164761905Y-91957143D01*
X165666667Y-91052381D02*
X166000000Y-92052381D01*
X166333334Y-91052381D01*
X166571429Y-91052381D02*
X167190477Y-91052381D01*
X166857143Y-91433333D01*
X167000001Y-91433333D01*
X167095239Y-91480952D01*
X167142858Y-91528571D01*
X167190477Y-91623810D01*
X167190477Y-91861905D01*
X167142858Y-91957143D01*
X167095239Y-92004762D01*
X167000001Y-92052381D01*
X166714286Y-92052381D01*
X166619048Y-92004762D01*
X166571429Y-91957143D01*
X133638096Y-72900000D02*
X133542858Y-72852381D01*
X133400001Y-72852381D01*
X133257143Y-72900000D01*
X133161905Y-72995238D01*
X133114286Y-73090476D01*
X133066667Y-73280952D01*
X133066667Y-73423810D01*
X133114286Y-73614286D01*
X133161905Y-73709524D01*
X133257143Y-73804762D01*
X133400001Y-73852381D01*
X133495239Y-73852381D01*
X133638096Y-73804762D01*
X133685715Y-73757143D01*
X133685715Y-73423810D01*
X133495239Y-73423810D01*
X134114286Y-73852381D02*
X134114286Y-72852381D01*
X134685715Y-73852381D01*
X134685715Y-72852381D01*
X135161905Y-73852381D02*
X135161905Y-72852381D01*
X135400000Y-72852381D01*
X135542858Y-72900000D01*
X135638096Y-72995238D01*
X135685715Y-73090476D01*
X135733334Y-73280952D01*
X135733334Y-73423810D01*
X135685715Y-73614286D01*
X135638096Y-73709524D01*
X135542858Y-73804762D01*
X135400000Y-73852381D01*
X135161905Y-73852381D01*
X135666667Y-78652381D02*
X136000000Y-79652381D01*
X136333334Y-78652381D01*
X137238096Y-79557143D02*
X137190477Y-79604762D01*
X137047620Y-79652381D01*
X136952382Y-79652381D01*
X136809524Y-79604762D01*
X136714286Y-79509524D01*
X136666667Y-79414286D01*
X136619048Y-79223810D01*
X136619048Y-79080952D01*
X136666667Y-78890476D01*
X136714286Y-78795238D01*
X136809524Y-78700000D01*
X136952382Y-78652381D01*
X137047620Y-78652381D01*
X137190477Y-78700000D01*
X137238096Y-78747619D01*
X138238096Y-79557143D02*
X138190477Y-79604762D01*
X138047620Y-79652381D01*
X137952382Y-79652381D01*
X137809524Y-79604762D01*
X137714286Y-79509524D01*
X137666667Y-79414286D01*
X137619048Y-79223810D01*
X137619048Y-79080952D01*
X137666667Y-78890476D01*
X137714286Y-78795238D01*
X137809524Y-78700000D01*
X137952382Y-78652381D01*
X138047620Y-78652381D01*
X138190477Y-78700000D01*
X138238096Y-78747619D01*
X165238096Y-100900000D02*
X165142858Y-100852381D01*
X165000001Y-100852381D01*
X164857143Y-100900000D01*
X164761905Y-100995238D01*
X164714286Y-101090476D01*
X164666667Y-101280952D01*
X164666667Y-101423810D01*
X164714286Y-101614286D01*
X164761905Y-101709524D01*
X164857143Y-101804762D01*
X165000001Y-101852381D01*
X165095239Y-101852381D01*
X165238096Y-101804762D01*
X165285715Y-101757143D01*
X165285715Y-101423810D01*
X165095239Y-101423810D01*
X165714286Y-101852381D02*
X165714286Y-100852381D01*
X166285715Y-101852381D01*
X166285715Y-100852381D01*
X166761905Y-101852381D02*
X166761905Y-100852381D01*
X167000000Y-100852381D01*
X167142858Y-100900000D01*
X167238096Y-100995238D01*
X167285715Y-101090476D01*
X167333334Y-101280952D01*
X167333334Y-101423810D01*
X167285715Y-101614286D01*
X167238096Y-101709524D01*
X167142858Y-101804762D01*
X167000000Y-101852381D01*
X166761905Y-101852381D01*
X154628571Y-60952381D02*
X155247619Y-60952381D01*
X154914285Y-61333333D01*
X155057143Y-61333333D01*
X155152381Y-61380952D01*
X155200000Y-61428571D01*
X155247619Y-61523810D01*
X155247619Y-61761905D01*
X155200000Y-61857143D01*
X155152381Y-61904762D01*
X155057143Y-61952381D01*
X154771428Y-61952381D01*
X154676190Y-61904762D01*
X154628571Y-61857143D01*
X155533333Y-60952381D02*
X155866666Y-61952381D01*
X156200000Y-60952381D01*
X156438095Y-60952381D02*
X157057143Y-60952381D01*
X156723809Y-61333333D01*
X156866667Y-61333333D01*
X156961905Y-61380952D01*
X157009524Y-61428571D01*
X157057143Y-61523810D01*
X157057143Y-61761905D01*
X157009524Y-61857143D01*
X156961905Y-61904762D01*
X156866667Y-61952381D01*
X156580952Y-61952381D01*
X156485714Y-61904762D01*
X156438095Y-61857143D01*
X158819048Y-61952381D02*
X158485714Y-61476190D01*
X158247619Y-61952381D02*
X158247619Y-60952381D01*
X158628572Y-60952381D01*
X158723810Y-61000000D01*
X158771429Y-61047619D01*
X158819048Y-61142857D01*
X158819048Y-61285714D01*
X158771429Y-61380952D01*
X158723810Y-61428571D01*
X158628572Y-61476190D01*
X158247619Y-61476190D01*
X159247619Y-61428571D02*
X159580953Y-61428571D01*
X159723810Y-61952381D02*
X159247619Y-61952381D01*
X159247619Y-60952381D01*
X159723810Y-60952381D01*
X160676191Y-61000000D02*
X160580953Y-60952381D01*
X160438096Y-60952381D01*
X160295238Y-61000000D01*
X160200000Y-61095238D01*
X160152381Y-61190476D01*
X160104762Y-61380952D01*
X160104762Y-61523810D01*
X160152381Y-61714286D01*
X160200000Y-61809524D01*
X160295238Y-61904762D01*
X160438096Y-61952381D01*
X160533334Y-61952381D01*
X160676191Y-61904762D01*
X160723810Y-61857143D01*
X160723810Y-61523810D01*
X160533334Y-61523810D01*
X147738096Y-65000000D02*
X147642858Y-64952381D01*
X147500001Y-64952381D01*
X147357143Y-65000000D01*
X147261905Y-65095238D01*
X147214286Y-65190476D01*
X147166667Y-65380952D01*
X147166667Y-65523810D01*
X147214286Y-65714286D01*
X147261905Y-65809524D01*
X147357143Y-65904762D01*
X147500001Y-65952381D01*
X147595239Y-65952381D01*
X147738096Y-65904762D01*
X147785715Y-65857143D01*
X147785715Y-65523810D01*
X147595239Y-65523810D01*
X148214286Y-65952381D02*
X148214286Y-64952381D01*
X148785715Y-65952381D01*
X148785715Y-64952381D01*
X149261905Y-65952381D02*
X149261905Y-64952381D01*
X149500000Y-64952381D01*
X149642858Y-65000000D01*
X149738096Y-65095238D01*
X149785715Y-65190476D01*
X149833334Y-65380952D01*
X149833334Y-65523810D01*
X149785715Y-65714286D01*
X149738096Y-65809524D01*
X149642858Y-65904762D01*
X149500000Y-65952381D01*
X149261905Y-65952381D01*
X162738096Y-82500000D02*
X162642858Y-82452381D01*
X162500001Y-82452381D01*
X162357143Y-82500000D01*
X162261905Y-82595238D01*
X162214286Y-82690476D01*
X162166667Y-82880952D01*
X162166667Y-83023810D01*
X162214286Y-83214286D01*
X162261905Y-83309524D01*
X162357143Y-83404762D01*
X162500001Y-83452381D01*
X162595239Y-83452381D01*
X162738096Y-83404762D01*
X162785715Y-83357143D01*
X162785715Y-83023810D01*
X162595239Y-83023810D01*
X163214286Y-83452381D02*
X163214286Y-82452381D01*
X163785715Y-83452381D01*
X163785715Y-82452381D01*
X164261905Y-83452381D02*
X164261905Y-82452381D01*
X164500000Y-82452381D01*
X164642858Y-82500000D01*
X164738096Y-82595238D01*
X164785715Y-82690476D01*
X164833334Y-82880952D01*
X164833334Y-83023810D01*
X164785715Y-83214286D01*
X164738096Y-83309524D01*
X164642858Y-83404762D01*
X164500000Y-83452381D01*
X164261905Y-83452381D01*
X162166667Y-84952381D02*
X162500000Y-85952381D01*
X162833334Y-84952381D01*
X163738096Y-85857143D02*
X163690477Y-85904762D01*
X163547620Y-85952381D01*
X163452382Y-85952381D01*
X163309524Y-85904762D01*
X163214286Y-85809524D01*
X163166667Y-85714286D01*
X163119048Y-85523810D01*
X163119048Y-85380952D01*
X163166667Y-85190476D01*
X163214286Y-85095238D01*
X163309524Y-85000000D01*
X163452382Y-84952381D01*
X163547620Y-84952381D01*
X163690477Y-85000000D01*
X163738096Y-85047619D01*
X164738096Y-85857143D02*
X164690477Y-85904762D01*
X164547620Y-85952381D01*
X164452382Y-85952381D01*
X164309524Y-85904762D01*
X164214286Y-85809524D01*
X164166667Y-85714286D01*
X164119048Y-85523810D01*
X164119048Y-85380952D01*
X164166667Y-85190476D01*
X164214286Y-85095238D01*
X164309524Y-85000000D01*
X164452382Y-84952381D01*
X164547620Y-84952381D01*
X164690477Y-85000000D01*
X164738096Y-85047619D01*
X162000000Y-88452381D02*
X162000000Y-87452381D01*
X162238095Y-87452381D01*
X162380953Y-87500000D01*
X162476191Y-87595238D01*
X162523810Y-87690476D01*
X162571429Y-87880952D01*
X162571429Y-88023810D01*
X162523810Y-88214286D01*
X162476191Y-88309524D01*
X162380953Y-88404762D01*
X162238095Y-88452381D01*
X162000000Y-88452381D01*
X162952381Y-88166667D02*
X163428572Y-88166667D01*
X162857143Y-88452381D02*
X163190476Y-87452381D01*
X163523810Y-88452381D01*
X163714286Y-87452381D02*
X164285715Y-87452381D01*
X164000000Y-88452381D02*
X164000000Y-87452381D01*
X164571429Y-88166667D02*
X165047620Y-88166667D01*
X164476191Y-88452381D02*
X164809524Y-87452381D01*
X165142858Y-88452381D01*
X125000000Y-83452381D02*
X125000000Y-82452381D01*
X125238095Y-82452381D01*
X125380953Y-82500000D01*
X125476191Y-82595238D01*
X125523810Y-82690476D01*
X125571429Y-82880952D01*
X125571429Y-83023810D01*
X125523810Y-83214286D01*
X125476191Y-83309524D01*
X125380953Y-83404762D01*
X125238095Y-83452381D01*
X125000000Y-83452381D01*
X125952381Y-83166667D02*
X126428572Y-83166667D01*
X125857143Y-83452381D02*
X126190476Y-82452381D01*
X126523810Y-83452381D01*
X126714286Y-82452381D02*
X127285715Y-82452381D01*
X127000000Y-83452381D02*
X127000000Y-82452381D01*
X127571429Y-83166667D02*
X128047620Y-83166667D01*
X127476191Y-83452381D02*
X127809524Y-82452381D01*
X128142858Y-83452381D01*
X125738096Y-87500000D02*
X125642858Y-87452381D01*
X125500001Y-87452381D01*
X125357143Y-87500000D01*
X125261905Y-87595238D01*
X125214286Y-87690476D01*
X125166667Y-87880952D01*
X125166667Y-88023810D01*
X125214286Y-88214286D01*
X125261905Y-88309524D01*
X125357143Y-88404762D01*
X125500001Y-88452381D01*
X125595239Y-88452381D01*
X125738096Y-88404762D01*
X125785715Y-88357143D01*
X125785715Y-88023810D01*
X125595239Y-88023810D01*
X126214286Y-88452381D02*
X126214286Y-87452381D01*
X126785715Y-88452381D01*
X126785715Y-87452381D01*
X127261905Y-88452381D02*
X127261905Y-87452381D01*
X127500000Y-87452381D01*
X127642858Y-87500000D01*
X127738096Y-87595238D01*
X127785715Y-87690476D01*
X127833334Y-87880952D01*
X127833334Y-88023810D01*
X127785715Y-88214286D01*
X127738096Y-88309524D01*
X127642858Y-88404762D01*
X127500000Y-88452381D01*
X127261905Y-88452381D01*
X125166667Y-84952381D02*
X125500000Y-85952381D01*
X125833334Y-84952381D01*
X126738096Y-85857143D02*
X126690477Y-85904762D01*
X126547620Y-85952381D01*
X126452382Y-85952381D01*
X126309524Y-85904762D01*
X126214286Y-85809524D01*
X126166667Y-85714286D01*
X126119048Y-85523810D01*
X126119048Y-85380952D01*
X126166667Y-85190476D01*
X126214286Y-85095238D01*
X126309524Y-85000000D01*
X126452382Y-84952381D01*
X126547620Y-84952381D01*
X126690477Y-85000000D01*
X126738096Y-85047619D01*
X127738096Y-85857143D02*
X127690477Y-85904762D01*
X127547620Y-85952381D01*
X127452382Y-85952381D01*
X127309524Y-85904762D01*
X127214286Y-85809524D01*
X127166667Y-85714286D01*
X127119048Y-85523810D01*
X127119048Y-85380952D01*
X127166667Y-85190476D01*
X127214286Y-85095238D01*
X127309524Y-85000000D01*
X127452382Y-84952381D01*
X127547620Y-84952381D01*
X127690477Y-85000000D01*
X127738096Y-85047619D01*
X141952381Y-99583333D02*
X142952381Y-99250000D01*
X141952381Y-98916666D01*
X142857143Y-98011904D02*
X142904762Y-98059523D01*
X142952381Y-98202380D01*
X142952381Y-98297618D01*
X142904762Y-98440476D01*
X142809524Y-98535714D01*
X142714286Y-98583333D01*
X142523810Y-98630952D01*
X142380952Y-98630952D01*
X142190476Y-98583333D01*
X142095238Y-98535714D01*
X142000000Y-98440476D01*
X141952381Y-98297618D01*
X141952381Y-98202380D01*
X142000000Y-98059523D01*
X142047619Y-98011904D01*
X142857143Y-97011904D02*
X142904762Y-97059523D01*
X142952381Y-97202380D01*
X142952381Y-97297618D01*
X142904762Y-97440476D01*
X142809524Y-97535714D01*
X142714286Y-97583333D01*
X142523810Y-97630952D01*
X142380952Y-97630952D01*
X142190476Y-97583333D01*
X142095238Y-97535714D01*
X142000000Y-97440476D01*
X141952381Y-97297618D01*
X141952381Y-97202380D01*
X142000000Y-97059523D01*
X142047619Y-97011904D01*
X144452381Y-99250000D02*
X144452381Y-99059523D01*
X144500000Y-98964285D01*
X144595238Y-98869047D01*
X144785714Y-98821428D01*
X145119048Y-98821428D01*
X145309524Y-98869047D01*
X145404762Y-98964285D01*
X145452381Y-99059523D01*
X145452381Y-99250000D01*
X145404762Y-99345238D01*
X145309524Y-99440476D01*
X145119048Y-99488095D01*
X144785714Y-99488095D01*
X144595238Y-99440476D01*
X144500000Y-99345238D01*
X144452381Y-99250000D01*
X144452381Y-98392857D02*
X145261905Y-98392857D01*
X145357143Y-98345238D01*
X145404762Y-98297619D01*
X145452381Y-98202381D01*
X145452381Y-98011904D01*
X145404762Y-97916666D01*
X145357143Y-97869047D01*
X145261905Y-97821428D01*
X144452381Y-97821428D01*
X144452381Y-97488095D02*
X144452381Y-96916666D01*
X145452381Y-97202381D02*
X144452381Y-97202381D01*
X147000000Y-99011904D02*
X146952381Y-99107142D01*
X146952381Y-99249999D01*
X147000000Y-99392857D01*
X147095238Y-99488095D01*
X147190476Y-99535714D01*
X147380952Y-99583333D01*
X147523810Y-99583333D01*
X147714286Y-99535714D01*
X147809524Y-99488095D01*
X147904762Y-99392857D01*
X147952381Y-99249999D01*
X147952381Y-99154761D01*
X147904762Y-99011904D01*
X147857143Y-98964285D01*
X147523810Y-98964285D01*
X147523810Y-99154761D01*
X147952381Y-98535714D02*
X146952381Y-98535714D01*
X147952381Y-97964285D01*
X146952381Y-97964285D01*
X147952381Y-97488095D02*
X146952381Y-97488095D01*
X146952381Y-97250000D01*
X147000000Y-97107142D01*
X147095238Y-97011904D01*
X147190476Y-96964285D01*
X147380952Y-96916666D01*
X147523810Y-96916666D01*
X147714286Y-96964285D01*
X147809524Y-97011904D01*
X147904762Y-97107142D01*
X147952381Y-97250000D01*
X147952381Y-97488095D01*
X147286000Y-81460000D02*
X147286000Y-86540000D01*
X147286000Y-86540000D02*
X142714000Y-86540000D01*
X142714000Y-86540000D02*
X142714000Y-81460000D01*
X142714000Y-81460000D02*
X147286000Y-81460000D01*
X145762000Y-81460000D02*
X145762000Y-81968000D01*
X145762000Y-81968000D02*
X144492000Y-81968000D01*
X144492000Y-81968000D02*
X144492000Y-81460000D01*
X154194000Y-68774000D02*
X154194000Y-71822000D01*
X154194000Y-71822000D02*
X161306000Y-71822000D01*
X161306000Y-71822000D02*
X161306000Y-68774000D01*
X154194000Y-65726000D02*
X154194000Y-64964000D01*
X154194000Y-64964000D02*
X155718000Y-62678000D01*
X155718000Y-62678000D02*
X159782000Y-62678000D01*
X159782000Y-62678000D02*
X161306000Y-64964000D01*
X161306000Y-64964000D02*
X161306000Y-65726000D01*
X151999820Y-105449200D02*
X151999820Y-106150240D01*
X151999820Y-106150240D02*
X151750900Y-106150240D01*
X149200840Y-106150240D02*
X149000180Y-106150240D01*
X149000180Y-106150240D02*
X149000180Y-105449200D01*
X130949200Y-96500180D02*
X131650240Y-96500180D01*
X131650240Y-96500180D02*
X131650240Y-96749100D01*
X131650240Y-99299160D02*
X131650240Y-99499820D01*
X131650240Y-99499820D02*
X130949200Y-99499820D01*
X147500000Y-96450000D02*
X149050000Y-96450000D01*
X149050000Y-96450000D02*
X149050000Y-93350000D01*
X149050000Y-93350000D02*
X147500000Y-93350000D01*
X146230000Y-96170000D02*
X141150000Y-96170000D01*
X141150000Y-96170000D02*
X141150000Y-93630000D01*
X141150000Y-93630000D02*
X146230000Y-93630000D01*
X146230000Y-93630000D02*
X146230000Y-96170000D01*
X121450000Y-88000000D02*
X121450000Y-89550000D01*
X121450000Y-89550000D02*
X124550000Y-89550000D01*
X124550000Y-89550000D02*
X124550000Y-88000000D01*
X121730000Y-86730000D02*
X121730000Y-81650000D01*
X121730000Y-81650000D02*
X124270000Y-81650000D01*
X124270000Y-81650000D02*
X124270000Y-86730000D01*
X124270000Y-86730000D02*
X121730000Y-86730000D01*
X151900000Y-69250000D02*
X151900000Y-70250000D01*
X153600000Y-70250000D02*
X153600000Y-69250000D01*
X161900000Y-69000000D02*
X161900000Y-70000000D01*
X163600000Y-70000000D02*
X163600000Y-69000000D01*
X149500000Y-78150000D02*
X148500000Y-78150000D01*
X148500000Y-79850000D02*
X149500000Y-79850000D01*
X156600000Y-99875000D02*
X155400000Y-99875000D01*
X155400000Y-98125000D02*
X156600000Y-98125000D01*
X130400000Y-93125000D02*
X131600000Y-93125000D01*
X131600000Y-94875000D02*
X130400000Y-94875000D01*
X156600000Y-103875000D02*
X155400000Y-103875000D01*
X155400000Y-102125000D02*
X156600000Y-102125000D01*
X142600000Y-79875000D02*
X141400000Y-79875000D01*
X141400000Y-78125000D02*
X142600000Y-78125000D01*
X168550000Y-83000000D02*
X168550000Y-81450000D01*
X168550000Y-81450000D02*
X165450000Y-81450000D01*
X165450000Y-81450000D02*
X165450000Y-83000000D01*
X168270000Y-84270000D02*
X168270000Y-89350000D01*
X168270000Y-89350000D02*
X165730000Y-89350000D01*
X165730000Y-89350000D02*
X165730000Y-84270000D01*
X165730000Y-84270000D02*
X168270000Y-84270000D01*
X130525000Y-71600000D02*
X130525000Y-70400000D01*
X132275000Y-70400000D02*
X132275000Y-71600000D01*
X158500000Y-93700000D02*
X158500000Y-94100000D01*
X159500000Y-93700000D02*
X159500000Y-93400000D01*
X159000000Y-93082500D02*
X159000000Y-92701500D01*
X159000000Y-94098500D02*
X159000000Y-93717500D01*
X159000000Y-93717500D02*
X158619000Y-93082500D01*
X158619000Y-93082500D02*
X159381000Y-93082500D01*
X159381000Y-93082500D02*
X159000000Y-93717500D01*
X158492000Y-93717500D02*
X159508000Y-93717500D01*
X159900000Y-95400000D02*
X159900000Y-91860000D01*
X158100000Y-95400000D02*
X158100000Y-91860000D01*
X155500000Y-93700000D02*
X155500000Y-94100000D01*
X156500000Y-93700000D02*
X156500000Y-93400000D01*
X156000000Y-93082500D02*
X156000000Y-92701500D01*
X156000000Y-94098500D02*
X156000000Y-93717500D01*
X156000000Y-93717500D02*
X155619000Y-93082500D01*
X155619000Y-93082500D02*
X156381000Y-93082500D01*
X156381000Y-93082500D02*
X156000000Y-93717500D01*
X155492000Y-93717500D02*
X156508000Y-93717500D01*
X156900000Y-95400000D02*
X156900000Y-91860000D01*
X155100000Y-95400000D02*
X155100000Y-91860000D01*
X136500000Y-89050000D02*
X136500000Y-89450000D01*
X137500000Y-89050000D02*
X137500000Y-88750000D01*
X137000000Y-88432500D02*
X137000000Y-88051500D01*
X137000000Y-89448500D02*
X137000000Y-89067500D01*
X137000000Y-89067500D02*
X136619000Y-88432500D01*
X136619000Y-88432500D02*
X137381000Y-88432500D01*
X137381000Y-88432500D02*
X137000000Y-89067500D01*
X136492000Y-89067500D02*
X137508000Y-89067500D01*
X137900000Y-90750000D02*
X137900000Y-87210000D01*
X136100000Y-90750000D02*
X136100000Y-87210000D01*
X144273810Y-81102381D02*
X144273810Y-80102381D01*
X145321429Y-81007143D02*
X145273810Y-81054762D01*
X145130953Y-81102381D01*
X145035715Y-81102381D01*
X144892857Y-81054762D01*
X144797619Y-80959524D01*
X144750000Y-80864286D01*
X144702381Y-80673810D01*
X144702381Y-80530952D01*
X144750000Y-80340476D01*
X144797619Y-80245238D01*
X144892857Y-80150000D01*
X145035715Y-80102381D01*
X145130953Y-80102381D01*
X145273810Y-80150000D01*
X145321429Y-80197619D01*
X146273810Y-81102381D02*
X145702381Y-81102381D01*
X145988095Y-81102381D02*
X145988095Y-80102381D01*
X145892857Y-80245238D01*
X145797619Y-80340476D01*
X145702381Y-80388095D01*
X141857143Y-88166667D02*
X142333334Y-88166667D01*
X141761905Y-88452381D02*
X142095238Y-87452381D01*
X142428572Y-88452381D01*
X142619048Y-87452381D02*
X143190477Y-87452381D01*
X142904762Y-88452381D02*
X142904762Y-87452381D01*
X143380953Y-87452381D02*
X143952382Y-87452381D01*
X143666667Y-88452381D02*
X143666667Y-87452381D01*
X144285715Y-88452381D02*
X144285715Y-87452381D01*
X144761905Y-88452381D02*
X144761905Y-87452381D01*
X145333334Y-88452381D01*
X145333334Y-87452381D01*
X146000000Y-87976190D02*
X146000000Y-88452381D01*
X145666667Y-87452381D02*
X146000000Y-87976190D01*
X146333334Y-87452381D01*
X146809524Y-87880952D02*
X146714286Y-87833333D01*
X146666667Y-87785714D01*
X146619048Y-87690476D01*
X146619048Y-87642857D01*
X146666667Y-87547619D01*
X146714286Y-87500000D01*
X146809524Y-87452381D01*
X147000001Y-87452381D01*
X147095239Y-87500000D01*
X147142858Y-87547619D01*
X147190477Y-87642857D01*
X147190477Y-87690476D01*
X147142858Y-87785714D01*
X147095239Y-87833333D01*
X147000001Y-87880952D01*
X146809524Y-87880952D01*
X146714286Y-87928571D01*
X146666667Y-87976190D01*
X146619048Y-88071429D01*
X146619048Y-88261905D01*
X146666667Y-88357143D01*
X146714286Y-88404762D01*
X146809524Y-88452381D01*
X147000001Y-88452381D01*
X147095239Y-88404762D01*
X147142858Y-88357143D01*
X147190477Y-88261905D01*
X147190477Y-88071429D01*
X147142858Y-87976190D01*
X147095239Y-87928571D01*
X147000001Y-87880952D01*
X148095239Y-87452381D02*
X147619048Y-87452381D01*
X147571429Y-87928571D01*
X147619048Y-87880952D01*
X147714286Y-87833333D01*
X147952382Y-87833333D01*
X148047620Y-87880952D01*
X148095239Y-87928571D01*
X148142858Y-88023810D01*
X148142858Y-88261905D01*
X148095239Y-88357143D01*
X148047620Y-88404762D01*
X147952382Y-88452381D01*
X147714286Y-88452381D01*
X147619048Y-88404762D01*
X147571429Y-88357143D01*
X156938095Y-72752381D02*
X156938095Y-73561905D01*
X156985714Y-73657143D01*
X157033333Y-73704762D01*
X157128571Y-73752381D01*
X157319048Y-73752381D01*
X157414286Y-73704762D01*
X157461905Y-73657143D01*
X157509524Y-73561905D01*
X157509524Y-72752381D01*
X158509524Y-73752381D02*
X157938095Y-73752381D01*
X158223809Y-73752381D02*
X158223809Y-72752381D01*
X158128571Y-72895238D01*
X158033333Y-72990476D01*
X157938095Y-73038095D01*
X148642857Y-102452381D02*
X148642857Y-101452381D01*
X149214286Y-102452381D01*
X149214286Y-101452381D01*
X149690476Y-102452381D02*
X149690476Y-101452381D01*
X150023810Y-102166667D01*
X150357143Y-101452381D01*
X150357143Y-102452381D01*
X151023809Y-101452381D02*
X151214286Y-101452381D01*
X151309524Y-101500000D01*
X151404762Y-101595238D01*
X151452381Y-101785714D01*
X151452381Y-102119048D01*
X151404762Y-102309524D01*
X151309524Y-102404762D01*
X151214286Y-102452381D01*
X151023809Y-102452381D01*
X150928571Y-102404762D01*
X150833333Y-102309524D01*
X150785714Y-102119048D01*
X150785714Y-101785714D01*
X150833333Y-101595238D01*
X150928571Y-101500000D01*
X151023809Y-101452381D01*
X151833333Y-102404762D02*
X151976190Y-102452381D01*
X152214286Y-102452381D01*
X152309524Y-102404762D01*
X152357143Y-102357143D01*
X152404762Y-102261905D01*
X152404762Y-102166667D01*
X152357143Y-102071429D01*
X152309524Y-102023810D01*
X152214286Y-101976190D01*
X152023809Y-101928571D01*
X151928571Y-101880952D01*
X151880952Y-101833333D01*
X151833333Y-101738095D01*
X151833333Y-101642857D01*
X151880952Y-101547619D01*
X151928571Y-101500000D01*
X152023809Y-101452381D01*
X152261905Y-101452381D01*
X152404762Y-101500000D01*
X129116667Y-101452381D02*
X129116667Y-100452381D01*
X129497620Y-100452381D01*
X129592858Y-100500000D01*
X129640477Y-100547619D01*
X129688096Y-100642857D01*
X129688096Y-100785714D01*
X129640477Y-100880952D01*
X129592858Y-100928571D01*
X129497620Y-100976190D01*
X129116667Y-100976190D01*
X130116667Y-101452381D02*
X130116667Y-100452381D01*
X130450001Y-101166667D01*
X130783334Y-100452381D01*
X130783334Y-101452381D01*
X131450000Y-100452381D02*
X131640477Y-100452381D01*
X131735715Y-100500000D01*
X131830953Y-100595238D01*
X131878572Y-100785714D01*
X131878572Y-101119048D01*
X131830953Y-101309524D01*
X131735715Y-101404762D01*
X131640477Y-101452381D01*
X131450000Y-101452381D01*
X131354762Y-101404762D01*
X131259524Y-101309524D01*
X131211905Y-101119048D01*
X131211905Y-100785714D01*
X131259524Y-100595238D01*
X131354762Y-100500000D01*
X131450000Y-100452381D01*
X132259524Y-101404762D02*
X132402381Y-101452381D01*
X132640477Y-101452381D01*
X132735715Y-101404762D01*
X132783334Y-101357143D01*
X132830953Y-101261905D01*
X132830953Y-101166667D01*
X132783334Y-101071429D01*
X132735715Y-101023810D01*
X132640477Y-100976190D01*
X132450000Y-100928571D01*
X132354762Y-100880952D01*
X132307143Y-100833333D01*
X132259524Y-100738095D01*
X132259524Y-100642857D01*
X132307143Y-100547619D01*
X132354762Y-100500000D01*
X132450000Y-100452381D01*
X132688096Y-100452381D01*
X132830953Y-100500000D01*
X144100000Y-92652381D02*
X144100000Y-91652381D01*
X144480953Y-91652381D01*
X144576191Y-91700000D01*
X144623810Y-91747619D01*
X144671429Y-91842857D01*
X144671429Y-91985714D01*
X144623810Y-92080952D01*
X144576191Y-92128571D01*
X144480953Y-92176190D01*
X144100000Y-92176190D01*
X145100000Y-92652381D02*
X145100000Y-91652381D01*
X146147619Y-92652381D02*
X145814285Y-92176190D01*
X145576190Y-92652381D02*
X145576190Y-91652381D01*
X145957143Y-91652381D01*
X146052381Y-91700000D01*
X146100000Y-91747619D01*
X146147619Y-91842857D01*
X146147619Y-91985714D01*
X146100000Y-92080952D01*
X146052381Y-92128571D01*
X145957143Y-92176190D01*
X145576190Y-92176190D01*
X121166667Y-90785714D02*
X121166667Y-91452381D01*
X120928571Y-90404762D02*
X120690476Y-91119048D01*
X121309524Y-91119048D01*
X121595238Y-90452381D02*
X122214286Y-90452381D01*
X121880952Y-90833333D01*
X122023810Y-90833333D01*
X122119048Y-90880952D01*
X122166667Y-90928571D01*
X122214286Y-91023810D01*
X122214286Y-91261905D01*
X122166667Y-91357143D01*
X122119048Y-91404762D01*
X122023810Y-91452381D01*
X121738095Y-91452381D01*
X121642857Y-91404762D01*
X121595238Y-91357143D01*
X122547619Y-90452381D02*
X123166667Y-90452381D01*
X122833333Y-90833333D01*
X122976191Y-90833333D01*
X123071429Y-90880952D01*
X123119048Y-90928571D01*
X123166667Y-91023810D01*
X123166667Y-91261905D01*
X123119048Y-91357143D01*
X123071429Y-91404762D01*
X122976191Y-91452381D01*
X122690476Y-91452381D01*
X122595238Y-91404762D01*
X122547619Y-91357143D01*
X123595238Y-91452381D02*
X123595238Y-90452381D01*
X123928572Y-91166667D01*
X124261905Y-90452381D01*
X124261905Y-91452381D01*
X124738095Y-91452381D02*
X124738095Y-90452381D01*
X124738095Y-90928571D02*
X125309524Y-90928571D01*
X125309524Y-91452381D02*
X125309524Y-90452381D01*
X125690476Y-90452381D02*
X126357143Y-90452381D01*
X125690476Y-91452381D01*
X126357143Y-91452381D01*
X150333334Y-69857143D02*
X150285715Y-69904762D01*
X150142858Y-69952381D01*
X150047620Y-69952381D01*
X149904762Y-69904762D01*
X149809524Y-69809524D01*
X149761905Y-69714286D01*
X149714286Y-69523810D01*
X149714286Y-69380952D01*
X149761905Y-69190476D01*
X149809524Y-69095238D01*
X149904762Y-69000000D01*
X150047620Y-68952381D01*
X150142858Y-68952381D01*
X150285715Y-69000000D01*
X150333334Y-69047619D01*
X151285715Y-69952381D02*
X150714286Y-69952381D01*
X151000000Y-69952381D02*
X151000000Y-68952381D01*
X150904762Y-69095238D01*
X150809524Y-69190476D01*
X150714286Y-69238095D01*
X149404762Y-71452381D02*
X148833333Y-71452381D01*
X149119047Y-71452381D02*
X149119047Y-70452381D01*
X149023809Y-70595238D01*
X148928571Y-70690476D01*
X148833333Y-70738095D01*
X150261905Y-70785714D02*
X150261905Y-71452381D01*
X149833333Y-70785714D02*
X149833333Y-71309524D01*
X149880952Y-71404762D01*
X149976190Y-71452381D01*
X150119048Y-71452381D01*
X150214286Y-71404762D01*
X150261905Y-71357143D01*
X151071429Y-70928571D02*
X150738095Y-70928571D01*
X150738095Y-71452381D02*
X150738095Y-70452381D01*
X151214286Y-70452381D01*
X164833334Y-69857143D02*
X164785715Y-69904762D01*
X164642858Y-69952381D01*
X164547620Y-69952381D01*
X164404762Y-69904762D01*
X164309524Y-69809524D01*
X164261905Y-69714286D01*
X164214286Y-69523810D01*
X164214286Y-69380952D01*
X164261905Y-69190476D01*
X164309524Y-69095238D01*
X164404762Y-69000000D01*
X164547620Y-68952381D01*
X164642858Y-68952381D01*
X164785715Y-69000000D01*
X164833334Y-69047619D01*
X165214286Y-69047619D02*
X165261905Y-69000000D01*
X165357143Y-68952381D01*
X165595239Y-68952381D01*
X165690477Y-69000000D01*
X165738096Y-69047619D01*
X165785715Y-69142857D01*
X165785715Y-69238095D01*
X165738096Y-69380952D01*
X165166667Y-69952381D01*
X165785715Y-69952381D01*
X164904762Y-71452381D02*
X164333333Y-71452381D01*
X164619047Y-71452381D02*
X164619047Y-70452381D01*
X164523809Y-70595238D01*
X164428571Y-70690476D01*
X164333333Y-70738095D01*
X165761905Y-70785714D02*
X165761905Y-71452381D01*
X165333333Y-70785714D02*
X165333333Y-71309524D01*
X165380952Y-71404762D01*
X165476190Y-71452381D01*
X165619048Y-71452381D01*
X165714286Y-71404762D01*
X165761905Y-71357143D01*
X166571429Y-70928571D02*
X166238095Y-70928571D01*
X166238095Y-71452381D02*
X166238095Y-70452381D01*
X166714286Y-70452381D01*
X148833334Y-81107143D02*
X148785715Y-81154762D01*
X148642858Y-81202381D01*
X148547620Y-81202381D01*
X148404762Y-81154762D01*
X148309524Y-81059524D01*
X148261905Y-80964286D01*
X148214286Y-80773810D01*
X148214286Y-80630952D01*
X148261905Y-80440476D01*
X148309524Y-80345238D01*
X148404762Y-80250000D01*
X148547620Y-80202381D01*
X148642858Y-80202381D01*
X148785715Y-80250000D01*
X148833334Y-80297619D01*
X149166667Y-80202381D02*
X149785715Y-80202381D01*
X149452381Y-80583333D01*
X149595239Y-80583333D01*
X149690477Y-80630952D01*
X149738096Y-80678571D01*
X149785715Y-80773810D01*
X149785715Y-81011905D01*
X149738096Y-81107143D01*
X149690477Y-81154762D01*
X149595239Y-81202381D01*
X149309524Y-81202381D01*
X149214286Y-81154762D01*
X149166667Y-81107143D01*
X147357143Y-76702381D02*
X147452382Y-76702381D01*
X147547620Y-76750000D01*
X147595239Y-76797619D01*
X147642858Y-76892857D01*
X147690477Y-77083333D01*
X147690477Y-77321429D01*
X147642858Y-77511905D01*
X147595239Y-77607143D01*
X147547620Y-77654762D01*
X147452382Y-77702381D01*
X147357143Y-77702381D01*
X147261905Y-77654762D01*
X147214286Y-77607143D01*
X147166667Y-77511905D01*
X147119048Y-77321429D01*
X147119048Y-77083333D01*
X147166667Y-76892857D01*
X147214286Y-76797619D01*
X147261905Y-76750000D01*
X147357143Y-76702381D01*
X148119048Y-77607143D02*
X148166667Y-77654762D01*
X148119048Y-77702381D01*
X148071429Y-77654762D01*
X148119048Y-77607143D01*
X148119048Y-77702381D01*
X149119048Y-77702381D02*
X148547619Y-77702381D01*
X148833333Y-77702381D02*
X148833333Y-76702381D01*
X148738095Y-76845238D01*
X148642857Y-76940476D01*
X148547619Y-76988095D01*
X149976191Y-77035714D02*
X149976191Y-77702381D01*
X149547619Y-77035714D02*
X149547619Y-77559524D01*
X149595238Y-77654762D01*
X149690476Y-77702381D01*
X149833334Y-77702381D01*
X149928572Y-77654762D01*
X149976191Y-77607143D01*
X150785715Y-77178571D02*
X150452381Y-77178571D01*
X150452381Y-77702381D02*
X150452381Y-76702381D01*
X150928572Y-76702381D01*
X155833334Y-101452381D02*
X155500000Y-100976190D01*
X155261905Y-101452381D02*
X155261905Y-100452381D01*
X155642858Y-100452381D01*
X155738096Y-100500000D01*
X155785715Y-100547619D01*
X155833334Y-100642857D01*
X155833334Y-100785714D01*
X155785715Y-100880952D01*
X155738096Y-100928571D01*
X155642858Y-100976190D01*
X155261905Y-100976190D01*
X156785715Y-101452381D02*
X156214286Y-101452381D01*
X156500000Y-101452381D02*
X156500000Y-100452381D01*
X156404762Y-100595238D01*
X156309524Y-100690476D01*
X156214286Y-100738095D01*
X159011905Y-98547619D02*
X159059524Y-98500000D01*
X159154762Y-98452381D01*
X159392858Y-98452381D01*
X159488096Y-98500000D01*
X159535715Y-98547619D01*
X159583334Y-98642857D01*
X159583334Y-98738095D01*
X159535715Y-98880952D01*
X158964286Y-99452381D01*
X159583334Y-99452381D01*
X160202381Y-98452381D02*
X160297620Y-98452381D01*
X160392858Y-98500000D01*
X160440477Y-98547619D01*
X160488096Y-98642857D01*
X160535715Y-98833333D01*
X160535715Y-99071429D01*
X160488096Y-99261905D01*
X160440477Y-99357143D01*
X160392858Y-99404762D01*
X160297620Y-99452381D01*
X160202381Y-99452381D01*
X160107143Y-99404762D01*
X160059524Y-99357143D01*
X160011905Y-99261905D01*
X159964286Y-99071429D01*
X159964286Y-98833333D01*
X160011905Y-98642857D01*
X160059524Y-98547619D01*
X160107143Y-98500000D01*
X160202381Y-98452381D01*
X161154762Y-98452381D02*
X161250001Y-98452381D01*
X161345239Y-98500000D01*
X161392858Y-98547619D01*
X161440477Y-98642857D01*
X161488096Y-98833333D01*
X161488096Y-99071429D01*
X161440477Y-99261905D01*
X161392858Y-99357143D01*
X161345239Y-99404762D01*
X161250001Y-99452381D01*
X161154762Y-99452381D01*
X161059524Y-99404762D01*
X161011905Y-99357143D01*
X160964286Y-99261905D01*
X160916667Y-99071429D01*
X160916667Y-98833333D01*
X160964286Y-98642857D01*
X161011905Y-98547619D01*
X161059524Y-98500000D01*
X161154762Y-98452381D01*
X130833334Y-96202381D02*
X130500000Y-95726190D01*
X130261905Y-96202381D02*
X130261905Y-95202381D01*
X130642858Y-95202381D01*
X130738096Y-95250000D01*
X130785715Y-95297619D01*
X130833334Y-95392857D01*
X130833334Y-95535714D01*
X130785715Y-95630952D01*
X130738096Y-95678571D01*
X130642858Y-95726190D01*
X130261905Y-95726190D01*
X131214286Y-95297619D02*
X131261905Y-95250000D01*
X131357143Y-95202381D01*
X131595239Y-95202381D01*
X131690477Y-95250000D01*
X131738096Y-95297619D01*
X131785715Y-95392857D01*
X131785715Y-95488095D01*
X131738096Y-95630952D01*
X131166667Y-96202381D01*
X131785715Y-96202381D01*
X134809524Y-94452381D02*
X134238095Y-94452381D01*
X134523809Y-94452381D02*
X134523809Y-93452381D01*
X134428571Y-93595238D01*
X134333333Y-93690476D01*
X134238095Y-93738095D01*
X135428571Y-93452381D02*
X135523810Y-93452381D01*
X135619048Y-93500000D01*
X135666667Y-93547619D01*
X135714286Y-93642857D01*
X135761905Y-93833333D01*
X135761905Y-94071429D01*
X135714286Y-94261905D01*
X135666667Y-94357143D01*
X135619048Y-94404762D01*
X135523810Y-94452381D01*
X135428571Y-94452381D01*
X135333333Y-94404762D01*
X135285714Y-94357143D01*
X135238095Y-94261905D01*
X135190476Y-94071429D01*
X135190476Y-93833333D01*
X135238095Y-93642857D01*
X135285714Y-93547619D01*
X135333333Y-93500000D01*
X135428571Y-93452381D01*
X136190476Y-94452381D02*
X136190476Y-93452381D01*
X136761905Y-94452381D02*
X136333333Y-93880952D01*
X136761905Y-93452381D02*
X136190476Y-94023810D01*
X155833334Y-105702381D02*
X155500000Y-105226190D01*
X155261905Y-105702381D02*
X155261905Y-104702381D01*
X155642858Y-104702381D01*
X155738096Y-104750000D01*
X155785715Y-104797619D01*
X155833334Y-104892857D01*
X155833334Y-105035714D01*
X155785715Y-105130952D01*
X155738096Y-105178571D01*
X155642858Y-105226190D01*
X155261905Y-105226190D01*
X156166667Y-104702381D02*
X156785715Y-104702381D01*
X156452381Y-105083333D01*
X156595239Y-105083333D01*
X156690477Y-105130952D01*
X156738096Y-105178571D01*
X156785715Y-105273810D01*
X156785715Y-105511905D01*
X156738096Y-105607143D01*
X156690477Y-105654762D01*
X156595239Y-105702381D01*
X156309524Y-105702381D01*
X156214286Y-105654762D01*
X156166667Y-105607143D01*
X159809524Y-103452381D02*
X159238095Y-103452381D01*
X159523809Y-103452381D02*
X159523809Y-102452381D01*
X159428571Y-102595238D01*
X159333333Y-102690476D01*
X159238095Y-102738095D01*
X160428571Y-102452381D02*
X160523810Y-102452381D01*
X160619048Y-102500000D01*
X160666667Y-102547619D01*
X160714286Y-102642857D01*
X160761905Y-102833333D01*
X160761905Y-103071429D01*
X160714286Y-103261905D01*
X160666667Y-103357143D01*
X160619048Y-103404762D01*
X160523810Y-103452381D01*
X160428571Y-103452381D01*
X160333333Y-103404762D01*
X160285714Y-103357143D01*
X160238095Y-103261905D01*
X160190476Y-103071429D01*
X160190476Y-102833333D01*
X160238095Y-102642857D01*
X160285714Y-102547619D01*
X160333333Y-102500000D01*
X160428571Y-102452381D01*
X161190476Y-103452381D02*
X161190476Y-102452381D01*
X161761905Y-103452381D02*
X161333333Y-102880952D01*
X161761905Y-102452381D02*
X161190476Y-103023810D01*
X141833334Y-81202381D02*
X141500000Y-80726190D01*
X141261905Y-81202381D02*
X141261905Y-80202381D01*
X141642858Y-80202381D01*
X141738096Y-80250000D01*
X141785715Y-80297619D01*
X141833334Y-80392857D01*
X141833334Y-80535714D01*
X141785715Y-80630952D01*
X141738096Y-80678571D01*
X141642858Y-80726190D01*
X141261905Y-80726190D01*
X142690477Y-80535714D02*
X142690477Y-81202381D01*
X142452381Y-80154762D02*
X142214286Y-80869048D01*
X142833334Y-80869048D01*
X141309524Y-77652381D02*
X140738095Y-77652381D01*
X141023809Y-77652381D02*
X141023809Y-76652381D01*
X140928571Y-76795238D01*
X140833333Y-76890476D01*
X140738095Y-76938095D01*
X141928571Y-76652381D02*
X142023810Y-76652381D01*
X142119048Y-76700000D01*
X142166667Y-76747619D01*
X142214286Y-76842857D01*
X142261905Y-77033333D01*
X142261905Y-77271429D01*
X142214286Y-77461905D01*
X142166667Y-77557143D01*
X142119048Y-77604762D01*
X142023810Y-77652381D01*
X141928571Y-77652381D01*
X141833333Y-77604762D01*
X141785714Y-77557143D01*
X141738095Y-77461905D01*
X141690476Y-77271429D01*
X141690476Y-77033333D01*
X141738095Y-76842857D01*
X141785714Y-76747619D01*
X141833333Y-76700000D01*
X141928571Y-76652381D01*
X142690476Y-77652381D02*
X142690476Y-76652381D01*
X143261905Y-77652381D02*
X142833333Y-77080952D01*
X143261905Y-76652381D02*
X142690476Y-77223810D01*
X163566667Y-80085714D02*
X163566667Y-80752381D01*
X163328571Y-79704762D02*
X163090476Y-80419048D01*
X163709524Y-80419048D01*
X163995238Y-79752381D02*
X164614286Y-79752381D01*
X164280952Y-80133333D01*
X164423810Y-80133333D01*
X164519048Y-80180952D01*
X164566667Y-80228571D01*
X164614286Y-80323810D01*
X164614286Y-80561905D01*
X164566667Y-80657143D01*
X164519048Y-80704762D01*
X164423810Y-80752381D01*
X164138095Y-80752381D01*
X164042857Y-80704762D01*
X163995238Y-80657143D01*
X164947619Y-79752381D02*
X165566667Y-79752381D01*
X165233333Y-80133333D01*
X165376191Y-80133333D01*
X165471429Y-80180952D01*
X165519048Y-80228571D01*
X165566667Y-80323810D01*
X165566667Y-80561905D01*
X165519048Y-80657143D01*
X165471429Y-80704762D01*
X165376191Y-80752381D01*
X165090476Y-80752381D01*
X164995238Y-80704762D01*
X164947619Y-80657143D01*
X165995238Y-80752381D02*
X165995238Y-79752381D01*
X166328572Y-80466667D01*
X166661905Y-79752381D01*
X166661905Y-80752381D01*
X167138095Y-80752381D02*
X167138095Y-79752381D01*
X167138095Y-80228571D02*
X167709524Y-80228571D01*
X167709524Y-80752381D02*
X167709524Y-79752381D01*
X168090476Y-79752381D02*
X168757143Y-79752381D01*
X168090476Y-80752381D01*
X168757143Y-80752381D01*
X128833334Y-71952381D02*
X128500000Y-71476190D01*
X128261905Y-71952381D02*
X128261905Y-70952381D01*
X128642858Y-70952381D01*
X128738096Y-71000000D01*
X128785715Y-71047619D01*
X128833334Y-71142857D01*
X128833334Y-71285714D01*
X128785715Y-71380952D01*
X128738096Y-71428571D01*
X128642858Y-71476190D01*
X128261905Y-71476190D01*
X129738096Y-70952381D02*
X129261905Y-70952381D01*
X129214286Y-71428571D01*
X129261905Y-71380952D01*
X129357143Y-71333333D01*
X129595239Y-71333333D01*
X129690477Y-71380952D01*
X129738096Y-71428571D01*
X129785715Y-71523810D01*
X129785715Y-71761905D01*
X129738096Y-71857143D01*
X129690477Y-71904762D01*
X129595239Y-71952381D01*
X129357143Y-71952381D01*
X129261905Y-71904762D01*
X129214286Y-71857143D01*
X127952381Y-69880952D02*
X127857143Y-69833333D01*
X127809524Y-69785714D01*
X127761905Y-69690476D01*
X127761905Y-69642857D01*
X127809524Y-69547619D01*
X127857143Y-69500000D01*
X127952381Y-69452381D01*
X128142858Y-69452381D01*
X128238096Y-69500000D01*
X128285715Y-69547619D01*
X128333334Y-69642857D01*
X128333334Y-69690476D01*
X128285715Y-69785714D01*
X128238096Y-69833333D01*
X128142858Y-69880952D01*
X127952381Y-69880952D01*
X127857143Y-69928571D01*
X127809524Y-69976190D01*
X127761905Y-70071429D01*
X127761905Y-70261905D01*
X127809524Y-70357143D01*
X127857143Y-70404762D01*
X127952381Y-70452381D01*
X128142858Y-70452381D01*
X128238096Y-70404762D01*
X128285715Y-70357143D01*
X128333334Y-70261905D01*
X128333334Y-70071429D01*
X128285715Y-69976190D01*
X128238096Y-69928571D01*
X128142858Y-69880952D01*
X128714286Y-69547619D02*
X128761905Y-69500000D01*
X128857143Y-69452381D01*
X129095239Y-69452381D01*
X129190477Y-69500000D01*
X129238096Y-69547619D01*
X129285715Y-69642857D01*
X129285715Y-69738095D01*
X129238096Y-69880952D01*
X128666667Y-70452381D01*
X129285715Y-70452381D01*
X129904762Y-69452381D02*
X130000001Y-69452381D01*
X130095239Y-69500000D01*
X130142858Y-69547619D01*
X130190477Y-69642857D01*
X130238096Y-69833333D01*
X130238096Y-70071429D01*
X130190477Y-70261905D01*
X130142858Y-70357143D01*
X130095239Y-70404762D01*
X130000001Y-70452381D01*
X129904762Y-70452381D01*
X129809524Y-70404762D01*
X129761905Y-70357143D01*
X129714286Y-70261905D01*
X129666667Y-70071429D01*
X129666667Y-69833333D01*
X129714286Y-69642857D01*
X129761905Y-69547619D01*
X129809524Y-69500000D01*
X129904762Y-69452381D01*
X158261905Y-90652381D02*
X158261905Y-89652381D01*
X158500000Y-89652381D01*
X158642858Y-89700000D01*
X158738096Y-89795238D01*
X158785715Y-89890476D01*
X158833334Y-90080952D01*
X158833334Y-90223810D01*
X158785715Y-90414286D01*
X158738096Y-90509524D01*
X158642858Y-90604762D01*
X158500000Y-90652381D01*
X158261905Y-90652381D01*
X159785715Y-90652381D02*
X159214286Y-90652381D01*
X159500000Y-90652381D02*
X159500000Y-89652381D01*
X159404762Y-89795238D01*
X159309524Y-89890476D01*
X159214286Y-89938095D01*
X155261905Y-90752381D02*
X155261905Y-89752381D01*
X155500000Y-89752381D01*
X155642858Y-89800000D01*
X155738096Y-89895238D01*
X155785715Y-89990476D01*
X155833334Y-90180952D01*
X155833334Y-90323810D01*
X155785715Y-90514286D01*
X155738096Y-90609524D01*
X155642858Y-90704762D01*
X155500000Y-90752381D01*
X155261905Y-90752381D01*
X156214286Y-89847619D02*
X156261905Y-89800000D01*
X156357143Y-89752381D01*
X156595239Y-89752381D01*
X156690477Y-89800000D01*
X156738096Y-89847619D01*
X156785715Y-89942857D01*
X156785715Y-90038095D01*
X156738096Y-90180952D01*
X156166667Y-90752381D01*
X156785715Y-90752381D01*
X136261905Y-86102381D02*
X136261905Y-85102381D01*
X136500000Y-85102381D01*
X136642858Y-85150000D01*
X136738096Y-85245238D01*
X136785715Y-85340476D01*
X136833334Y-85530952D01*
X136833334Y-85673810D01*
X136785715Y-85864286D01*
X136738096Y-85959524D01*
X136642858Y-86054762D01*
X136500000Y-86102381D01*
X136261905Y-86102381D01*
X137166667Y-85102381D02*
X137785715Y-85102381D01*
X137452381Y-85483333D01*
X137595239Y-85483333D01*
X137690477Y-85530952D01*
X137738096Y-85578571D01*
X137785715Y-85673810D01*
X137785715Y-85911905D01*
X137738096Y-86007143D01*
X137690477Y-86054762D01*
X137595239Y-86102381D01*
X137309524Y-86102381D01*
X137214286Y-86054762D01*
X137166667Y-86007143D01*
%LPC*%
D12*
X152000000Y-65380000D03*
X152000000Y-88240000D03*
D13*
X148175000Y-82095000D03*
X148175000Y-83365000D03*
X148175000Y-84635000D03*
X148175000Y-85905000D03*
X141825000Y-85905000D03*
X141825000Y-84635000D03*
X141825000Y-83365000D03*
X141825000Y-82095000D03*
D12*
X137000000Y-104620000D03*
X137000000Y-81760000D03*
D14*
X157750000Y-63948000D03*
D15*
X157750000Y-70552000D03*
X160036000Y-70552000D03*
X155464000Y-70552000D03*
D16*
X166000000Y-64000000D03*
D17*
X151450000Y-103998860D03*
X149550000Y-103998860D03*
X150500000Y-107001140D03*
D18*
X129498860Y-97050000D03*
X129498860Y-98950000D03*
X132501140Y-98000000D03*
D19*
X147500000Y-94900000D03*
D20*
X144960000Y-94900000D03*
X142420000Y-94900000D03*
D21*
X123000000Y-88000000D03*
D22*
X123000000Y-85460000D03*
X123000000Y-82920000D03*
D23*
X152750000Y-71000000D03*
X152750000Y-68500000D03*
X162750000Y-70750000D03*
X162750000Y-68250000D03*
D24*
X147750000Y-79000000D03*
X150250000Y-79000000D03*
D25*
X154650000Y-99000000D03*
X157350000Y-99000000D03*
X132350000Y-94000000D03*
X129650000Y-94000000D03*
X154650000Y-103000000D03*
X157350000Y-103000000D03*
X140650000Y-79000000D03*
X143350000Y-79000000D03*
D26*
X166000000Y-96460000D03*
X166000000Y-93920000D03*
X166000000Y-99000000D03*
D27*
X138500000Y-66600000D03*
D28*
X138500000Y-64060000D03*
X135960000Y-66600000D03*
X135960000Y-64060000D03*
X133420000Y-66600000D03*
X133420000Y-64060000D03*
D21*
X167000000Y-83000000D03*
D22*
X167000000Y-85540000D03*
X167000000Y-88080000D03*
D16*
X166000000Y-106000000D03*
X124000000Y-106000000D03*
X124000000Y-64000000D03*
D29*
X131400000Y-69650000D03*
X131400000Y-72350000D03*
D30*
X159000000Y-95035000D03*
X159000000Y-91765000D03*
X156000000Y-95035000D03*
X156000000Y-91765000D03*
X137000000Y-90385000D03*
X137000000Y-87115000D03*
D31*
X134500000Y-75900000D03*
D32*
X137040000Y-75900000D03*
D33*
X130500000Y-85000000D03*
X159500000Y-85000000D03*
M02*
