G04 #@! TF.FileFunction,Legend,Top*
%FSLAX46Y46*%
G04 Gerber Fmt 4.6, Leading zero omitted, Abs format (unit mm)*
G04 Created by KiCad (PCBNEW 4.0.2-4+6225~38~ubuntu14.04.1-stable) date Thu 24 Mar 2016 13:26:21 GMT*
%MOMM*%
G01*
G04 APERTURE LIST*
%ADD10C,0.100000*%
%ADD11C,0.150000*%
G04 APERTURE END LIST*
D10*
D11*
X139785715Y-66202381D02*
X139214286Y-66202381D01*
X139500000Y-66202381D02*
X139500000Y-65202381D01*
X139404762Y-65345238D01*
X139309524Y-65440476D01*
X139214286Y-65488095D01*
X142476191Y-108535714D02*
X142476191Y-109202381D01*
X142238095Y-108154762D02*
X142000000Y-108869048D01*
X142619048Y-108869048D01*
X143000000Y-109107143D02*
X143047619Y-109154762D01*
X143000000Y-109202381D01*
X142952381Y-109154762D01*
X143000000Y-109107143D01*
X143000000Y-109202381D01*
X143952381Y-108202381D02*
X143476190Y-108202381D01*
X143428571Y-108678571D01*
X143476190Y-108630952D01*
X143571428Y-108583333D01*
X143809524Y-108583333D01*
X143904762Y-108630952D01*
X143952381Y-108678571D01*
X144000000Y-108773810D01*
X144000000Y-109011905D01*
X143952381Y-109107143D01*
X143904762Y-109154762D01*
X143809524Y-109202381D01*
X143571428Y-109202381D01*
X143476190Y-109154762D01*
X143428571Y-109107143D01*
X144428571Y-108821429D02*
X145190476Y-108821429D01*
X146190476Y-109202381D02*
X145619047Y-109202381D01*
X145904761Y-109202381D02*
X145904761Y-108202381D01*
X145809523Y-108345238D01*
X145714285Y-108440476D01*
X145619047Y-108488095D01*
X146809523Y-108202381D02*
X146904762Y-108202381D01*
X147000000Y-108250000D01*
X147047619Y-108297619D01*
X147095238Y-108392857D01*
X147142857Y-108583333D01*
X147142857Y-108821429D01*
X147095238Y-109011905D01*
X147047619Y-109107143D01*
X147000000Y-109154762D01*
X146904762Y-109202381D01*
X146809523Y-109202381D01*
X146714285Y-109154762D01*
X146666666Y-109107143D01*
X146619047Y-109011905D01*
X146571428Y-108821429D01*
X146571428Y-108583333D01*
X146619047Y-108392857D01*
X146666666Y-108297619D01*
X146714285Y-108250000D01*
X146809523Y-108202381D01*
X147428571Y-108202381D02*
X147761904Y-109202381D01*
X148095238Y-108202381D01*
X138666667Y-105452381D02*
X139000000Y-106452381D01*
X139333334Y-105452381D01*
X140238096Y-106357143D02*
X140190477Y-106404762D01*
X140047620Y-106452381D01*
X139952382Y-106452381D01*
X139809524Y-106404762D01*
X139714286Y-106309524D01*
X139666667Y-106214286D01*
X139619048Y-106023810D01*
X139619048Y-105880952D01*
X139666667Y-105690476D01*
X139714286Y-105595238D01*
X139809524Y-105500000D01*
X139952382Y-105452381D01*
X140047620Y-105452381D01*
X140190477Y-105500000D01*
X140238096Y-105547619D01*
X141238096Y-106357143D02*
X141190477Y-106404762D01*
X141047620Y-106452381D01*
X140952382Y-106452381D01*
X140809524Y-106404762D01*
X140714286Y-106309524D01*
X140666667Y-106214286D01*
X140619048Y-106023810D01*
X140619048Y-105880952D01*
X140666667Y-105690476D01*
X140714286Y-105595238D01*
X140809524Y-105500000D01*
X140952382Y-105452381D01*
X141047620Y-105452381D01*
X141190477Y-105500000D01*
X141238096Y-105547619D01*
X149238096Y-105500000D02*
X149142858Y-105452381D01*
X149000001Y-105452381D01*
X148857143Y-105500000D01*
X148761905Y-105595238D01*
X148714286Y-105690476D01*
X148666667Y-105880952D01*
X148666667Y-106023810D01*
X148714286Y-106214286D01*
X148761905Y-106309524D01*
X148857143Y-106404762D01*
X149000001Y-106452381D01*
X149095239Y-106452381D01*
X149238096Y-106404762D01*
X149285715Y-106357143D01*
X149285715Y-106023810D01*
X149095239Y-106023810D01*
X149714286Y-106452381D02*
X149714286Y-105452381D01*
X150285715Y-106452381D01*
X150285715Y-105452381D01*
X150761905Y-106452381D02*
X150761905Y-105452381D01*
X151000000Y-105452381D01*
X151142858Y-105500000D01*
X151238096Y-105595238D01*
X151285715Y-105690476D01*
X151333334Y-105880952D01*
X151333334Y-106023810D01*
X151285715Y-106214286D01*
X151238096Y-106309524D01*
X151142858Y-106404762D01*
X151000000Y-106452381D01*
X150761905Y-106452381D01*
X162738096Y-82500000D02*
X162642858Y-82452381D01*
X162500001Y-82452381D01*
X162357143Y-82500000D01*
X162261905Y-82595238D01*
X162214286Y-82690476D01*
X162166667Y-82880952D01*
X162166667Y-83023810D01*
X162214286Y-83214286D01*
X162261905Y-83309524D01*
X162357143Y-83404762D01*
X162500001Y-83452381D01*
X162595239Y-83452381D01*
X162738096Y-83404762D01*
X162785715Y-83357143D01*
X162785715Y-83023810D01*
X162595239Y-83023810D01*
X163214286Y-83452381D02*
X163214286Y-82452381D01*
X163785715Y-83452381D01*
X163785715Y-82452381D01*
X164261905Y-83452381D02*
X164261905Y-82452381D01*
X164500000Y-82452381D01*
X164642858Y-82500000D01*
X164738096Y-82595238D01*
X164785715Y-82690476D01*
X164833334Y-82880952D01*
X164833334Y-83023810D01*
X164785715Y-83214286D01*
X164738096Y-83309524D01*
X164642858Y-83404762D01*
X164500000Y-83452381D01*
X164261905Y-83452381D01*
X162166667Y-84952381D02*
X162500000Y-85952381D01*
X162833334Y-84952381D01*
X163738096Y-85857143D02*
X163690477Y-85904762D01*
X163547620Y-85952381D01*
X163452382Y-85952381D01*
X163309524Y-85904762D01*
X163214286Y-85809524D01*
X163166667Y-85714286D01*
X163119048Y-85523810D01*
X163119048Y-85380952D01*
X163166667Y-85190476D01*
X163214286Y-85095238D01*
X163309524Y-85000000D01*
X163452382Y-84952381D01*
X163547620Y-84952381D01*
X163690477Y-85000000D01*
X163738096Y-85047619D01*
X164738096Y-85857143D02*
X164690477Y-85904762D01*
X164547620Y-85952381D01*
X164452382Y-85952381D01*
X164309524Y-85904762D01*
X164214286Y-85809524D01*
X164166667Y-85714286D01*
X164119048Y-85523810D01*
X164119048Y-85380952D01*
X164166667Y-85190476D01*
X164214286Y-85095238D01*
X164309524Y-85000000D01*
X164452382Y-84952381D01*
X164547620Y-84952381D01*
X164690477Y-85000000D01*
X164738096Y-85047619D01*
X162000000Y-88452381D02*
X162000000Y-87452381D01*
X162238095Y-87452381D01*
X162380953Y-87500000D01*
X162476191Y-87595238D01*
X162523810Y-87690476D01*
X162571429Y-87880952D01*
X162571429Y-88023810D01*
X162523810Y-88214286D01*
X162476191Y-88309524D01*
X162380953Y-88404762D01*
X162238095Y-88452381D01*
X162000000Y-88452381D01*
X162952381Y-88166667D02*
X163428572Y-88166667D01*
X162857143Y-88452381D02*
X163190476Y-87452381D01*
X163523810Y-88452381D01*
X163714286Y-87452381D02*
X164285715Y-87452381D01*
X164000000Y-88452381D02*
X164000000Y-87452381D01*
X164571429Y-88166667D02*
X165047620Y-88166667D01*
X164476191Y-88452381D02*
X164809524Y-87452381D01*
X165142858Y-88452381D01*
X125000000Y-83452381D02*
X125000000Y-82452381D01*
X125238095Y-82452381D01*
X125380953Y-82500000D01*
X125476191Y-82595238D01*
X125523810Y-82690476D01*
X125571429Y-82880952D01*
X125571429Y-83023810D01*
X125523810Y-83214286D01*
X125476191Y-83309524D01*
X125380953Y-83404762D01*
X125238095Y-83452381D01*
X125000000Y-83452381D01*
X125952381Y-83166667D02*
X126428572Y-83166667D01*
X125857143Y-83452381D02*
X126190476Y-82452381D01*
X126523810Y-83452381D01*
X126714286Y-82452381D02*
X127285715Y-82452381D01*
X127000000Y-83452381D02*
X127000000Y-82452381D01*
X127571429Y-83166667D02*
X128047620Y-83166667D01*
X127476191Y-83452381D02*
X127809524Y-82452381D01*
X128142858Y-83452381D01*
X125738096Y-87500000D02*
X125642858Y-87452381D01*
X125500001Y-87452381D01*
X125357143Y-87500000D01*
X125261905Y-87595238D01*
X125214286Y-87690476D01*
X125166667Y-87880952D01*
X125166667Y-88023810D01*
X125214286Y-88214286D01*
X125261905Y-88309524D01*
X125357143Y-88404762D01*
X125500001Y-88452381D01*
X125595239Y-88452381D01*
X125738096Y-88404762D01*
X125785715Y-88357143D01*
X125785715Y-88023810D01*
X125595239Y-88023810D01*
X126214286Y-88452381D02*
X126214286Y-87452381D01*
X126785715Y-88452381D01*
X126785715Y-87452381D01*
X127261905Y-88452381D02*
X127261905Y-87452381D01*
X127500000Y-87452381D01*
X127642858Y-87500000D01*
X127738096Y-87595238D01*
X127785715Y-87690476D01*
X127833334Y-87880952D01*
X127833334Y-88023810D01*
X127785715Y-88214286D01*
X127738096Y-88309524D01*
X127642858Y-88404762D01*
X127500000Y-88452381D01*
X127261905Y-88452381D01*
X125166667Y-84952381D02*
X125500000Y-85952381D01*
X125833334Y-84952381D01*
X126738096Y-85857143D02*
X126690477Y-85904762D01*
X126547620Y-85952381D01*
X126452382Y-85952381D01*
X126309524Y-85904762D01*
X126214286Y-85809524D01*
X126166667Y-85714286D01*
X126119048Y-85523810D01*
X126119048Y-85380952D01*
X126166667Y-85190476D01*
X126214286Y-85095238D01*
X126309524Y-85000000D01*
X126452382Y-84952381D01*
X126547620Y-84952381D01*
X126690477Y-85000000D01*
X126738096Y-85047619D01*
X127738096Y-85857143D02*
X127690477Y-85904762D01*
X127547620Y-85952381D01*
X127452382Y-85952381D01*
X127309524Y-85904762D01*
X127214286Y-85809524D01*
X127166667Y-85714286D01*
X127119048Y-85523810D01*
X127119048Y-85380952D01*
X127166667Y-85190476D01*
X127214286Y-85095238D01*
X127309524Y-85000000D01*
X127452382Y-84952381D01*
X127547620Y-84952381D01*
X127690477Y-85000000D01*
X127738096Y-85047619D01*
X132290000Y-93480000D02*
X132130000Y-93240000D01*
X132130000Y-93240000D02*
X131920000Y-93180000D01*
X131920000Y-93180000D02*
X131660000Y-93180000D01*
X131660000Y-93180000D02*
X131480000Y-93300000D01*
X131480000Y-93300000D02*
X131330000Y-93500000D01*
X131330000Y-93500000D02*
X131330000Y-93730000D01*
X131330000Y-93730000D02*
X131500000Y-93930000D01*
X131500000Y-93930000D02*
X131760000Y-93990000D01*
X131760000Y-93990000D02*
X132000000Y-93970000D01*
X132000000Y-93970000D02*
X132170000Y-93930000D01*
X132170000Y-93930000D02*
X132250000Y-93810000D01*
X132250000Y-93810000D02*
X132270000Y-93690000D01*
X132270000Y-93690000D02*
X132270000Y-93590000D01*
X132270000Y-93590000D02*
X132290000Y-93550000D01*
X133650000Y-93180000D02*
X133370000Y-93260000D01*
X133370000Y-93260000D02*
X133260000Y-93520000D01*
X133260000Y-93520000D02*
X133280000Y-93750000D01*
X133280000Y-93750000D02*
X133530000Y-93910000D01*
X133530000Y-93910000D02*
X133770000Y-93910000D01*
X133770000Y-93910000D02*
X134080000Y-93830000D01*
X134080000Y-93830000D02*
X134160000Y-93630000D01*
X134160000Y-93630000D02*
X134140000Y-93340000D01*
X134140000Y-93340000D02*
X133990000Y-93220000D01*
X133990000Y-93220000D02*
X133890000Y-93160000D01*
X133890000Y-93160000D02*
X133670000Y-93160000D01*
X135230000Y-106400000D02*
X135430000Y-106020000D01*
X135430000Y-106020000D02*
X135580000Y-105560000D01*
X135580000Y-105560000D02*
X135650000Y-105100000D01*
X135650000Y-105100000D02*
X135770000Y-105790000D01*
X135770000Y-105790000D02*
X135650000Y-106630000D01*
X135650000Y-106630000D02*
X135390000Y-107050000D01*
X135390000Y-107050000D02*
X135080000Y-107240000D01*
X132600000Y-97450000D02*
X133500000Y-99775000D01*
X133500000Y-99775000D02*
X134300000Y-101000000D01*
X134300000Y-101000000D02*
X134825000Y-102525000D01*
X134825000Y-102525000D02*
X135100000Y-104225000D01*
X135100000Y-104225000D02*
X135200000Y-106075000D01*
X135200000Y-106075000D02*
X134925000Y-108125000D01*
X131225000Y-95025000D02*
X131550000Y-95550000D01*
X131550000Y-95550000D02*
X132000000Y-95750000D01*
X132000000Y-95750000D02*
X132575000Y-95975000D01*
X132575000Y-95975000D02*
X133350000Y-96100000D01*
X133350000Y-96100000D02*
X133975000Y-95875000D01*
X133975000Y-95875000D02*
X134400000Y-95475000D01*
X134400000Y-95475000D02*
X134575000Y-94800000D01*
X134575000Y-94800000D02*
X134475000Y-94800000D01*
X136300000Y-97000000D02*
X135875000Y-96500000D01*
X135875000Y-96500000D02*
X134975000Y-96100000D01*
X134975000Y-96100000D02*
X136075000Y-96100000D01*
X136075000Y-96100000D02*
X137550000Y-95650000D01*
X137550000Y-95650000D02*
X138425000Y-95100000D01*
X138425000Y-95100000D02*
X138725000Y-94300000D01*
X138725000Y-94300000D02*
X138650000Y-93650000D01*
X138650000Y-93650000D02*
X138375000Y-93200000D01*
X138375000Y-93200000D02*
X137700000Y-92750000D01*
X137700000Y-92750000D02*
X137025000Y-92700000D01*
X137025000Y-92700000D02*
X136150000Y-92625000D01*
X136150000Y-92625000D02*
X135475000Y-92625000D01*
X135475000Y-92625000D02*
X135075000Y-92625000D01*
X135075000Y-92625000D02*
X135075000Y-92575000D01*
X130100000Y-93075000D02*
X129100000Y-93250000D01*
X129100000Y-93250000D02*
X128375000Y-93425000D01*
X128375000Y-93425000D02*
X127600000Y-93850000D01*
X127600000Y-93850000D02*
X126925000Y-94425000D01*
X126925000Y-94425000D02*
X126800000Y-95600000D01*
X126800000Y-95600000D02*
X127250000Y-96500000D01*
X127250000Y-96500000D02*
X128100000Y-96875000D01*
X128100000Y-96875000D02*
X129150000Y-96775000D01*
X129150000Y-96775000D02*
X129775000Y-96375000D01*
X129775000Y-96375000D02*
X130225000Y-96100000D01*
X130225000Y-96100000D02*
X129725000Y-96825000D01*
X129725000Y-96825000D02*
X129325000Y-98050000D01*
X129325000Y-98050000D02*
X129550000Y-98950000D01*
X129550000Y-98950000D02*
X130050000Y-99725000D01*
X130050000Y-99725000D02*
X130900000Y-99850000D01*
X130900000Y-99850000D02*
X132075000Y-99625000D01*
X132075000Y-99625000D02*
X132500000Y-99000000D01*
X132500000Y-99000000D02*
X132675000Y-98275000D01*
X132675000Y-98275000D02*
X132625000Y-97450000D01*
X132625000Y-97450000D02*
X133075000Y-98175000D01*
X133075000Y-98175000D02*
X133525000Y-98725000D01*
X133525000Y-98725000D02*
X134625000Y-99350000D01*
X134625000Y-99350000D02*
X135750000Y-99275000D01*
X135750000Y-99275000D02*
X136650000Y-98500000D01*
X136650000Y-98500000D02*
X136700000Y-97650000D01*
X136700000Y-97650000D02*
X136250000Y-96925000D01*
X132675000Y-91450000D02*
X132225000Y-90675000D01*
X132225000Y-90675000D02*
X131550000Y-90125000D01*
X131550000Y-90125000D02*
X130775000Y-89625000D01*
X130775000Y-89625000D02*
X129375000Y-89500000D01*
X129375000Y-89500000D02*
X128475000Y-89950000D01*
X128475000Y-89950000D02*
X127925000Y-90800000D01*
X127925000Y-90800000D02*
X127975000Y-91800000D01*
X127975000Y-91800000D02*
X128600000Y-92625000D01*
X128600000Y-92625000D02*
X129375000Y-92800000D01*
X129375000Y-92800000D02*
X130225000Y-92975000D01*
X130225000Y-92975000D02*
X130175000Y-93200000D01*
X132725000Y-91450000D02*
X132900000Y-90400000D01*
X132900000Y-90400000D02*
X133400000Y-89500000D01*
X133400000Y-89500000D02*
X134625000Y-88825000D01*
X134625000Y-88825000D02*
X136025000Y-88950000D01*
X136025000Y-88950000D02*
X136875000Y-89725000D01*
X136875000Y-89725000D02*
X137100000Y-90850000D01*
X137100000Y-90850000D02*
X136475000Y-91800000D01*
X136475000Y-91800000D02*
X135650000Y-92400000D01*
X135650000Y-92400000D02*
X135025000Y-92625000D01*
X135489806Y-94370000D02*
G75*
G03X135489806Y-94370000I-2839806J0D01*
G01*
X151199200Y-87250180D02*
X151900240Y-87250180D01*
X151900240Y-87250180D02*
X151900240Y-87499100D01*
X151900240Y-90049160D02*
X151900240Y-90249820D01*
X151900240Y-90249820D02*
X151199200Y-90249820D01*
X151199200Y-79500180D02*
X151900240Y-79500180D01*
X151900240Y-79500180D02*
X151900240Y-79749100D01*
X151900240Y-82299160D02*
X151900240Y-82499820D01*
X151900240Y-82499820D02*
X151199200Y-82499820D01*
X139786000Y-71710000D02*
X139786000Y-76790000D01*
X139786000Y-76790000D02*
X135214000Y-76790000D01*
X135214000Y-76790000D02*
X135214000Y-71710000D01*
X135214000Y-71710000D02*
X139786000Y-71710000D01*
X138262000Y-71710000D02*
X138262000Y-72218000D01*
X138262000Y-72218000D02*
X136992000Y-72218000D01*
X136992000Y-72218000D02*
X136992000Y-71710000D01*
X121450000Y-88000000D02*
X121450000Y-89550000D01*
X121450000Y-89550000D02*
X124550000Y-89550000D01*
X124550000Y-89550000D02*
X124550000Y-88000000D01*
X121730000Y-86730000D02*
X121730000Y-81650000D01*
X121730000Y-81650000D02*
X124270000Y-81650000D01*
X124270000Y-81650000D02*
X124270000Y-86730000D01*
X124270000Y-86730000D02*
X121730000Y-86730000D01*
X155150000Y-71900000D02*
X155150000Y-72900000D01*
X156850000Y-72900000D02*
X156850000Y-71900000D01*
X153500000Y-68150000D02*
X152500000Y-68150000D01*
X152500000Y-69850000D02*
X153500000Y-69850000D01*
X142500000Y-68900000D02*
X141500000Y-68900000D01*
X141500000Y-70600000D02*
X142500000Y-70600000D01*
X144400000Y-84125000D02*
X145600000Y-84125000D01*
X145600000Y-85875000D02*
X144400000Y-85875000D01*
X153875000Y-94400000D02*
X153875000Y-95600000D01*
X152125000Y-95600000D02*
X152125000Y-94400000D01*
X145625000Y-89600000D02*
X145625000Y-88400000D01*
X147375000Y-88400000D02*
X147375000Y-89600000D01*
X147625000Y-70600000D02*
X147625000Y-69400000D01*
X149375000Y-69400000D02*
X149375000Y-70600000D01*
X143567500Y-80750000D02*
X143948500Y-80750000D01*
X142551500Y-80750000D02*
X142932500Y-80750000D01*
X142932500Y-80750000D02*
X143567500Y-80369000D01*
X143567500Y-80369000D02*
X143567500Y-81131000D01*
X143567500Y-81131000D02*
X142932500Y-80750000D01*
X142932500Y-80242000D02*
X142932500Y-81258000D01*
X141250000Y-81650000D02*
X144790000Y-81650000D01*
X141250000Y-79850000D02*
X144790000Y-79850000D01*
X136182500Y-80750000D02*
X135801500Y-80750000D01*
X137198500Y-80750000D02*
X136817500Y-80750000D01*
X136817500Y-80750000D02*
X136182500Y-81131000D01*
X136182500Y-81131000D02*
X136182500Y-80369000D01*
X136182500Y-80369000D02*
X136817500Y-80750000D01*
X136817500Y-81258000D02*
X136817500Y-80242000D01*
X138500000Y-79850000D02*
X134960000Y-79850000D01*
X138500000Y-81650000D02*
X134960000Y-81650000D01*
X121079000Y-71809000D02*
X121079000Y-70793000D01*
X121079000Y-70793000D02*
X122476000Y-70793000D01*
X121079000Y-75111000D02*
X121079000Y-76127000D01*
X121079000Y-76127000D02*
X122476000Y-76127000D01*
X121841000Y-73460000D02*
X122476000Y-73460000D01*
X121841000Y-73460000D02*
X122349000Y-72952000D01*
X121841000Y-73460000D02*
X122349000Y-73968000D01*
X121841000Y-75111000D02*
X120444000Y-75111000D01*
X120444000Y-75111000D02*
X120444000Y-71809000D01*
X120444000Y-71809000D02*
X121841000Y-71809000D01*
X121841000Y-71809000D02*
X121841000Y-75111000D01*
X143270000Y-66270000D02*
X148350000Y-66270000D01*
X140450000Y-66550000D02*
X140450000Y-65000000D01*
X140730000Y-63730000D02*
X143270000Y-63730000D01*
X143270000Y-63730000D02*
X143270000Y-66270000D01*
X148350000Y-66270000D02*
X148350000Y-61190000D01*
X148350000Y-61190000D02*
X143270000Y-61190000D01*
X140450000Y-66550000D02*
X142000000Y-66550000D01*
X140730000Y-61190000D02*
X140730000Y-63730000D01*
X143270000Y-61190000D02*
X140730000Y-61190000D01*
X168550000Y-83000000D02*
X168550000Y-81450000D01*
X168550000Y-81450000D02*
X165450000Y-81450000D01*
X165450000Y-81450000D02*
X165450000Y-83000000D01*
X168270000Y-84270000D02*
X168270000Y-89350000D01*
X168270000Y-89350000D02*
X165730000Y-89350000D01*
X165730000Y-89350000D02*
X165730000Y-84270000D01*
X165730000Y-84270000D02*
X168270000Y-84270000D01*
X144980000Y-107270000D02*
X142440000Y-107270000D01*
X147800000Y-107550000D02*
X146250000Y-107550000D01*
X144980000Y-107270000D02*
X144980000Y-104730000D01*
X146250000Y-104450000D02*
X147800000Y-104450000D01*
X147800000Y-104450000D02*
X147800000Y-107550000D01*
X144980000Y-104730000D02*
X142440000Y-104730000D01*
X142440000Y-104730000D02*
X142440000Y-107270000D01*
X142500000Y-101817500D02*
X142500000Y-102198500D01*
X142500000Y-100801500D02*
X142500000Y-101182500D01*
X142500000Y-101182500D02*
X142881000Y-101817500D01*
X142881000Y-101817500D02*
X142119000Y-101817500D01*
X142119000Y-101817500D02*
X142500000Y-101182500D01*
X143008000Y-101182500D02*
X141992000Y-101182500D01*
X141600000Y-99500000D02*
X141600000Y-103040000D01*
X143400000Y-99500000D02*
X143400000Y-103040000D01*
X150900000Y-72800000D02*
G75*
G03X150900000Y-72800000I-100000J0D01*
G01*
X151050000Y-72250000D02*
X151050000Y-72750000D01*
X153950000Y-72250000D02*
X151050000Y-72250000D01*
X153950000Y-72750000D02*
X153950000Y-72250000D01*
X151050000Y-72750000D02*
X153950000Y-72750000D01*
X149442857Y-91952381D02*
X149442857Y-90952381D01*
X150014286Y-91952381D01*
X150014286Y-90952381D01*
X150490476Y-91952381D02*
X150490476Y-90952381D01*
X150823810Y-91666667D01*
X151157143Y-90952381D01*
X151157143Y-91952381D01*
X151823809Y-90952381D02*
X152014286Y-90952381D01*
X152109524Y-91000000D01*
X152204762Y-91095238D01*
X152252381Y-91285714D01*
X152252381Y-91619048D01*
X152204762Y-91809524D01*
X152109524Y-91904762D01*
X152014286Y-91952381D01*
X151823809Y-91952381D01*
X151728571Y-91904762D01*
X151633333Y-91809524D01*
X151585714Y-91619048D01*
X151585714Y-91285714D01*
X151633333Y-91095238D01*
X151728571Y-91000000D01*
X151823809Y-90952381D01*
X152633333Y-91904762D02*
X152776190Y-91952381D01*
X153014286Y-91952381D01*
X153109524Y-91904762D01*
X153157143Y-91857143D01*
X153204762Y-91761905D01*
X153204762Y-91666667D01*
X153157143Y-91571429D01*
X153109524Y-91523810D01*
X153014286Y-91476190D01*
X152823809Y-91428571D01*
X152728571Y-91380952D01*
X152680952Y-91333333D01*
X152633333Y-91238095D01*
X152633333Y-91142857D01*
X152680952Y-91047619D01*
X152728571Y-91000000D01*
X152823809Y-90952381D01*
X153061905Y-90952381D01*
X153204762Y-91000000D01*
X149366667Y-84452381D02*
X149366667Y-83452381D01*
X149747620Y-83452381D01*
X149842858Y-83500000D01*
X149890477Y-83547619D01*
X149938096Y-83642857D01*
X149938096Y-83785714D01*
X149890477Y-83880952D01*
X149842858Y-83928571D01*
X149747620Y-83976190D01*
X149366667Y-83976190D01*
X150366667Y-84452381D02*
X150366667Y-83452381D01*
X150700001Y-84166667D01*
X151033334Y-83452381D01*
X151033334Y-84452381D01*
X151700000Y-83452381D02*
X151890477Y-83452381D01*
X151985715Y-83500000D01*
X152080953Y-83595238D01*
X152128572Y-83785714D01*
X152128572Y-84119048D01*
X152080953Y-84309524D01*
X151985715Y-84404762D01*
X151890477Y-84452381D01*
X151700000Y-84452381D01*
X151604762Y-84404762D01*
X151509524Y-84309524D01*
X151461905Y-84119048D01*
X151461905Y-83785714D01*
X151509524Y-83595238D01*
X151604762Y-83500000D01*
X151700000Y-83452381D01*
X152509524Y-84404762D02*
X152652381Y-84452381D01*
X152890477Y-84452381D01*
X152985715Y-84404762D01*
X153033334Y-84357143D01*
X153080953Y-84261905D01*
X153080953Y-84166667D01*
X153033334Y-84071429D01*
X152985715Y-84023810D01*
X152890477Y-83976190D01*
X152700000Y-83928571D01*
X152604762Y-83880952D01*
X152557143Y-83833333D01*
X152509524Y-83738095D01*
X152509524Y-83642857D01*
X152557143Y-83547619D01*
X152604762Y-83500000D01*
X152700000Y-83452381D01*
X152938096Y-83452381D01*
X153080953Y-83500000D01*
X136773810Y-70952381D02*
X136773810Y-69952381D01*
X137821429Y-70857143D02*
X137773810Y-70904762D01*
X137630953Y-70952381D01*
X137535715Y-70952381D01*
X137392857Y-70904762D01*
X137297619Y-70809524D01*
X137250000Y-70714286D01*
X137202381Y-70523810D01*
X137202381Y-70380952D01*
X137250000Y-70190476D01*
X137297619Y-70095238D01*
X137392857Y-70000000D01*
X137535715Y-69952381D01*
X137630953Y-69952381D01*
X137773810Y-70000000D01*
X137821429Y-70047619D01*
X138773810Y-70952381D02*
X138202381Y-70952381D01*
X138488095Y-70952381D02*
X138488095Y-69952381D01*
X138392857Y-70095238D01*
X138297619Y-70190476D01*
X138202381Y-70238095D01*
X134357143Y-78416667D02*
X134833334Y-78416667D01*
X134261905Y-78702381D02*
X134595238Y-77702381D01*
X134928572Y-78702381D01*
X135119048Y-77702381D02*
X135690477Y-77702381D01*
X135404762Y-78702381D02*
X135404762Y-77702381D01*
X135880953Y-77702381D02*
X136452382Y-77702381D01*
X136166667Y-78702381D02*
X136166667Y-77702381D01*
X136785715Y-78702381D02*
X136785715Y-77702381D01*
X137261905Y-78702381D02*
X137261905Y-77702381D01*
X137833334Y-78702381D01*
X137833334Y-77702381D01*
X138500000Y-78226190D02*
X138500000Y-78702381D01*
X138166667Y-77702381D02*
X138500000Y-78226190D01*
X138833334Y-77702381D01*
X139309524Y-78130952D02*
X139214286Y-78083333D01*
X139166667Y-78035714D01*
X139119048Y-77940476D01*
X139119048Y-77892857D01*
X139166667Y-77797619D01*
X139214286Y-77750000D01*
X139309524Y-77702381D01*
X139500001Y-77702381D01*
X139595239Y-77750000D01*
X139642858Y-77797619D01*
X139690477Y-77892857D01*
X139690477Y-77940476D01*
X139642858Y-78035714D01*
X139595239Y-78083333D01*
X139500001Y-78130952D01*
X139309524Y-78130952D01*
X139214286Y-78178571D01*
X139166667Y-78226190D01*
X139119048Y-78321429D01*
X139119048Y-78511905D01*
X139166667Y-78607143D01*
X139214286Y-78654762D01*
X139309524Y-78702381D01*
X139500001Y-78702381D01*
X139595239Y-78654762D01*
X139642858Y-78607143D01*
X139690477Y-78511905D01*
X139690477Y-78321429D01*
X139642858Y-78226190D01*
X139595239Y-78178571D01*
X139500001Y-78130952D01*
X140595239Y-77702381D02*
X140119048Y-77702381D01*
X140071429Y-78178571D01*
X140119048Y-78130952D01*
X140214286Y-78083333D01*
X140452382Y-78083333D01*
X140547620Y-78130952D01*
X140595239Y-78178571D01*
X140642858Y-78273810D01*
X140642858Y-78511905D01*
X140595239Y-78607143D01*
X140547620Y-78654762D01*
X140452382Y-78702381D01*
X140214286Y-78702381D01*
X140119048Y-78654762D01*
X140071429Y-78607143D01*
X121166667Y-90785714D02*
X121166667Y-91452381D01*
X120928571Y-90404762D02*
X120690476Y-91119048D01*
X121309524Y-91119048D01*
X121595238Y-90452381D02*
X122214286Y-90452381D01*
X121880952Y-90833333D01*
X122023810Y-90833333D01*
X122119048Y-90880952D01*
X122166667Y-90928571D01*
X122214286Y-91023810D01*
X122214286Y-91261905D01*
X122166667Y-91357143D01*
X122119048Y-91404762D01*
X122023810Y-91452381D01*
X121738095Y-91452381D01*
X121642857Y-91404762D01*
X121595238Y-91357143D01*
X122547619Y-90452381D02*
X123166667Y-90452381D01*
X122833333Y-90833333D01*
X122976191Y-90833333D01*
X123071429Y-90880952D01*
X123119048Y-90928571D01*
X123166667Y-91023810D01*
X123166667Y-91261905D01*
X123119048Y-91357143D01*
X123071429Y-91404762D01*
X122976191Y-91452381D01*
X122690476Y-91452381D01*
X122595238Y-91404762D01*
X122547619Y-91357143D01*
X123595238Y-91452381D02*
X123595238Y-90452381D01*
X123928572Y-91166667D01*
X124261905Y-90452381D01*
X124261905Y-91452381D01*
X124738095Y-91452381D02*
X124738095Y-90452381D01*
X124738095Y-90928571D02*
X125309524Y-90928571D01*
X125309524Y-91452381D02*
X125309524Y-90452381D01*
X125690476Y-90452381D02*
X126357143Y-90452381D01*
X125690476Y-91452381D01*
X126357143Y-91452381D01*
X158033334Y-72257143D02*
X157985715Y-72304762D01*
X157842858Y-72352381D01*
X157747620Y-72352381D01*
X157604762Y-72304762D01*
X157509524Y-72209524D01*
X157461905Y-72114286D01*
X157414286Y-71923810D01*
X157414286Y-71780952D01*
X157461905Y-71590476D01*
X157509524Y-71495238D01*
X157604762Y-71400000D01*
X157747620Y-71352381D01*
X157842858Y-71352381D01*
X157985715Y-71400000D01*
X158033334Y-71447619D01*
X158985715Y-72352381D02*
X158414286Y-72352381D01*
X158700000Y-72352381D02*
X158700000Y-71352381D01*
X158604762Y-71495238D01*
X158509524Y-71590476D01*
X158414286Y-71638095D01*
X158004762Y-73852381D02*
X157433333Y-73852381D01*
X157719047Y-73852381D02*
X157719047Y-72852381D01*
X157623809Y-72995238D01*
X157528571Y-73090476D01*
X157433333Y-73138095D01*
X158861905Y-73185714D02*
X158861905Y-73852381D01*
X158433333Y-73185714D02*
X158433333Y-73709524D01*
X158480952Y-73804762D01*
X158576190Y-73852381D01*
X158719048Y-73852381D01*
X158814286Y-73804762D01*
X158861905Y-73757143D01*
X159671429Y-73328571D02*
X159338095Y-73328571D01*
X159338095Y-73852381D02*
X159338095Y-72852381D01*
X159814286Y-72852381D01*
X154583334Y-67607143D02*
X154535715Y-67654762D01*
X154392858Y-67702381D01*
X154297620Y-67702381D01*
X154154762Y-67654762D01*
X154059524Y-67559524D01*
X154011905Y-67464286D01*
X153964286Y-67273810D01*
X153964286Y-67130952D01*
X154011905Y-66940476D01*
X154059524Y-66845238D01*
X154154762Y-66750000D01*
X154297620Y-66702381D01*
X154392858Y-66702381D01*
X154535715Y-66750000D01*
X154583334Y-66797619D01*
X154964286Y-66797619D02*
X155011905Y-66750000D01*
X155107143Y-66702381D01*
X155345239Y-66702381D01*
X155440477Y-66750000D01*
X155488096Y-66797619D01*
X155535715Y-66892857D01*
X155535715Y-66988095D01*
X155488096Y-67130952D01*
X154916667Y-67702381D01*
X155535715Y-67702381D01*
X151154762Y-67702381D02*
X150583333Y-67702381D01*
X150869047Y-67702381D02*
X150869047Y-66702381D01*
X150773809Y-66845238D01*
X150678571Y-66940476D01*
X150583333Y-66988095D01*
X152011905Y-67035714D02*
X152011905Y-67702381D01*
X151583333Y-67035714D02*
X151583333Y-67559524D01*
X151630952Y-67654762D01*
X151726190Y-67702381D01*
X151869048Y-67702381D01*
X151964286Y-67654762D01*
X152011905Y-67607143D01*
X152821429Y-67178571D02*
X152488095Y-67178571D01*
X152488095Y-67702381D02*
X152488095Y-66702381D01*
X152964286Y-66702381D01*
X144333334Y-68357143D02*
X144285715Y-68404762D01*
X144142858Y-68452381D01*
X144047620Y-68452381D01*
X143904762Y-68404762D01*
X143809524Y-68309524D01*
X143761905Y-68214286D01*
X143714286Y-68023810D01*
X143714286Y-67880952D01*
X143761905Y-67690476D01*
X143809524Y-67595238D01*
X143904762Y-67500000D01*
X144047620Y-67452381D01*
X144142858Y-67452381D01*
X144285715Y-67500000D01*
X144333334Y-67547619D01*
X144666667Y-67452381D02*
X145285715Y-67452381D01*
X144952381Y-67833333D01*
X145095239Y-67833333D01*
X145190477Y-67880952D01*
X145238096Y-67928571D01*
X145285715Y-68023810D01*
X145285715Y-68261905D01*
X145238096Y-68357143D01*
X145190477Y-68404762D01*
X145095239Y-68452381D01*
X144809524Y-68452381D01*
X144714286Y-68404762D01*
X144666667Y-68357143D01*
X139357143Y-67452381D02*
X139452382Y-67452381D01*
X139547620Y-67500000D01*
X139595239Y-67547619D01*
X139642858Y-67642857D01*
X139690477Y-67833333D01*
X139690477Y-68071429D01*
X139642858Y-68261905D01*
X139595239Y-68357143D01*
X139547620Y-68404762D01*
X139452382Y-68452381D01*
X139357143Y-68452381D01*
X139261905Y-68404762D01*
X139214286Y-68357143D01*
X139166667Y-68261905D01*
X139119048Y-68071429D01*
X139119048Y-67833333D01*
X139166667Y-67642857D01*
X139214286Y-67547619D01*
X139261905Y-67500000D01*
X139357143Y-67452381D01*
X140119048Y-68357143D02*
X140166667Y-68404762D01*
X140119048Y-68452381D01*
X140071429Y-68404762D01*
X140119048Y-68357143D01*
X140119048Y-68452381D01*
X141119048Y-68452381D02*
X140547619Y-68452381D01*
X140833333Y-68452381D02*
X140833333Y-67452381D01*
X140738095Y-67595238D01*
X140642857Y-67690476D01*
X140547619Y-67738095D01*
X141976191Y-67785714D02*
X141976191Y-68452381D01*
X141547619Y-67785714D02*
X141547619Y-68309524D01*
X141595238Y-68404762D01*
X141690476Y-68452381D01*
X141833334Y-68452381D01*
X141928572Y-68404762D01*
X141976191Y-68357143D01*
X142785715Y-67928571D02*
X142452381Y-67928571D01*
X142452381Y-68452381D02*
X142452381Y-67452381D01*
X142928572Y-67452381D01*
X141333334Y-85452381D02*
X141000000Y-84976190D01*
X140761905Y-85452381D02*
X140761905Y-84452381D01*
X141142858Y-84452381D01*
X141238096Y-84500000D01*
X141285715Y-84547619D01*
X141333334Y-84642857D01*
X141333334Y-84785714D01*
X141285715Y-84880952D01*
X141238096Y-84928571D01*
X141142858Y-84976190D01*
X140761905Y-84976190D01*
X142285715Y-85452381D02*
X141714286Y-85452381D01*
X142000000Y-85452381D02*
X142000000Y-84452381D01*
X141904762Y-84595238D01*
X141809524Y-84690476D01*
X141714286Y-84738095D01*
X139761905Y-86047619D02*
X139809524Y-86000000D01*
X139904762Y-85952381D01*
X140142858Y-85952381D01*
X140238096Y-86000000D01*
X140285715Y-86047619D01*
X140333334Y-86142857D01*
X140333334Y-86238095D01*
X140285715Y-86380952D01*
X139714286Y-86952381D01*
X140333334Y-86952381D01*
X140952381Y-85952381D02*
X141047620Y-85952381D01*
X141142858Y-86000000D01*
X141190477Y-86047619D01*
X141238096Y-86142857D01*
X141285715Y-86333333D01*
X141285715Y-86571429D01*
X141238096Y-86761905D01*
X141190477Y-86857143D01*
X141142858Y-86904762D01*
X141047620Y-86952381D01*
X140952381Y-86952381D01*
X140857143Y-86904762D01*
X140809524Y-86857143D01*
X140761905Y-86761905D01*
X140714286Y-86571429D01*
X140714286Y-86333333D01*
X140761905Y-86142857D01*
X140809524Y-86047619D01*
X140857143Y-86000000D01*
X140952381Y-85952381D01*
X141904762Y-85952381D02*
X142000001Y-85952381D01*
X142095239Y-86000000D01*
X142142858Y-86047619D01*
X142190477Y-86142857D01*
X142238096Y-86333333D01*
X142238096Y-86571429D01*
X142190477Y-86761905D01*
X142142858Y-86857143D01*
X142095239Y-86904762D01*
X142000001Y-86952381D01*
X141904762Y-86952381D01*
X141809524Y-86904762D01*
X141761905Y-86857143D01*
X141714286Y-86761905D01*
X141666667Y-86571429D01*
X141666667Y-86333333D01*
X141714286Y-86142857D01*
X141761905Y-86047619D01*
X141809524Y-86000000D01*
X141904762Y-85952381D01*
X154833334Y-94952381D02*
X154500000Y-94476190D01*
X154261905Y-94952381D02*
X154261905Y-93952381D01*
X154642858Y-93952381D01*
X154738096Y-94000000D01*
X154785715Y-94047619D01*
X154833334Y-94142857D01*
X154833334Y-94285714D01*
X154785715Y-94380952D01*
X154738096Y-94428571D01*
X154642858Y-94476190D01*
X154261905Y-94476190D01*
X155214286Y-94047619D02*
X155261905Y-94000000D01*
X155357143Y-93952381D01*
X155595239Y-93952381D01*
X155690477Y-94000000D01*
X155738096Y-94047619D01*
X155785715Y-94142857D01*
X155785715Y-94238095D01*
X155738096Y-94380952D01*
X155166667Y-94952381D01*
X155785715Y-94952381D01*
X154833334Y-96452381D02*
X154261905Y-96452381D01*
X154547619Y-96452381D02*
X154547619Y-95452381D01*
X154452381Y-95595238D01*
X154357143Y-95690476D01*
X154261905Y-95738095D01*
X155452381Y-95452381D02*
X155547620Y-95452381D01*
X155642858Y-95500000D01*
X155690477Y-95547619D01*
X155738096Y-95642857D01*
X155785715Y-95833333D01*
X155785715Y-96071429D01*
X155738096Y-96261905D01*
X155690477Y-96357143D01*
X155642858Y-96404762D01*
X155547620Y-96452381D01*
X155452381Y-96452381D01*
X155357143Y-96404762D01*
X155309524Y-96357143D01*
X155261905Y-96261905D01*
X155214286Y-96071429D01*
X155214286Y-95833333D01*
X155261905Y-95642857D01*
X155309524Y-95547619D01*
X155357143Y-95500000D01*
X155452381Y-95452381D01*
X156404762Y-95452381D02*
X156500001Y-95452381D01*
X156595239Y-95500000D01*
X156642858Y-95547619D01*
X156690477Y-95642857D01*
X156738096Y-95833333D01*
X156738096Y-96071429D01*
X156690477Y-96261905D01*
X156642858Y-96357143D01*
X156595239Y-96404762D01*
X156500001Y-96452381D01*
X156404762Y-96452381D01*
X156309524Y-96404762D01*
X156261905Y-96357143D01*
X156214286Y-96261905D01*
X156166667Y-96071429D01*
X156166667Y-95833333D01*
X156214286Y-95642857D01*
X156261905Y-95547619D01*
X156309524Y-95500000D01*
X156404762Y-95452381D01*
X157166667Y-96452381D02*
X157166667Y-95452381D01*
X157738096Y-96452381D02*
X157309524Y-95880952D01*
X157738096Y-95452381D02*
X157166667Y-96023810D01*
X144333334Y-89452381D02*
X144000000Y-88976190D01*
X143761905Y-89452381D02*
X143761905Y-88452381D01*
X144142858Y-88452381D01*
X144238096Y-88500000D01*
X144285715Y-88547619D01*
X144333334Y-88642857D01*
X144333334Y-88785714D01*
X144285715Y-88880952D01*
X144238096Y-88928571D01*
X144142858Y-88976190D01*
X143761905Y-88976190D01*
X144666667Y-88452381D02*
X145285715Y-88452381D01*
X144952381Y-88833333D01*
X145095239Y-88833333D01*
X145190477Y-88880952D01*
X145238096Y-88928571D01*
X145285715Y-89023810D01*
X145285715Y-89261905D01*
X145238096Y-89357143D01*
X145190477Y-89404762D01*
X145095239Y-89452381D01*
X144809524Y-89452381D01*
X144714286Y-89404762D01*
X144666667Y-89357143D01*
X142333334Y-90952381D02*
X141761905Y-90952381D01*
X142047619Y-90952381D02*
X142047619Y-89952381D01*
X141952381Y-90095238D01*
X141857143Y-90190476D01*
X141761905Y-90238095D01*
X142952381Y-89952381D02*
X143047620Y-89952381D01*
X143142858Y-90000000D01*
X143190477Y-90047619D01*
X143238096Y-90142857D01*
X143285715Y-90333333D01*
X143285715Y-90571429D01*
X143238096Y-90761905D01*
X143190477Y-90857143D01*
X143142858Y-90904762D01*
X143047620Y-90952381D01*
X142952381Y-90952381D01*
X142857143Y-90904762D01*
X142809524Y-90857143D01*
X142761905Y-90761905D01*
X142714286Y-90571429D01*
X142714286Y-90333333D01*
X142761905Y-90142857D01*
X142809524Y-90047619D01*
X142857143Y-90000000D01*
X142952381Y-89952381D01*
X143904762Y-89952381D02*
X144000001Y-89952381D01*
X144095239Y-90000000D01*
X144142858Y-90047619D01*
X144190477Y-90142857D01*
X144238096Y-90333333D01*
X144238096Y-90571429D01*
X144190477Y-90761905D01*
X144142858Y-90857143D01*
X144095239Y-90904762D01*
X144000001Y-90952381D01*
X143904762Y-90952381D01*
X143809524Y-90904762D01*
X143761905Y-90857143D01*
X143714286Y-90761905D01*
X143666667Y-90571429D01*
X143666667Y-90333333D01*
X143714286Y-90142857D01*
X143761905Y-90047619D01*
X143809524Y-90000000D01*
X143904762Y-89952381D01*
X144666667Y-90952381D02*
X144666667Y-89952381D01*
X145238096Y-90952381D02*
X144809524Y-90380952D01*
X145238096Y-89952381D02*
X144666667Y-90523810D01*
X146233334Y-72352381D02*
X145900000Y-71876190D01*
X145661905Y-72352381D02*
X145661905Y-71352381D01*
X146042858Y-71352381D01*
X146138096Y-71400000D01*
X146185715Y-71447619D01*
X146233334Y-71542857D01*
X146233334Y-71685714D01*
X146185715Y-71780952D01*
X146138096Y-71828571D01*
X146042858Y-71876190D01*
X145661905Y-71876190D01*
X147090477Y-71685714D02*
X147090477Y-72352381D01*
X146852381Y-71304762D02*
X146614286Y-72019048D01*
X147233334Y-72019048D01*
X146033334Y-74052381D02*
X145461905Y-74052381D01*
X145747619Y-74052381D02*
X145747619Y-73052381D01*
X145652381Y-73195238D01*
X145557143Y-73290476D01*
X145461905Y-73338095D01*
X146652381Y-73052381D02*
X146747620Y-73052381D01*
X146842858Y-73100000D01*
X146890477Y-73147619D01*
X146938096Y-73242857D01*
X146985715Y-73433333D01*
X146985715Y-73671429D01*
X146938096Y-73861905D01*
X146890477Y-73957143D01*
X146842858Y-74004762D01*
X146747620Y-74052381D01*
X146652381Y-74052381D01*
X146557143Y-74004762D01*
X146509524Y-73957143D01*
X146461905Y-73861905D01*
X146414286Y-73671429D01*
X146414286Y-73433333D01*
X146461905Y-73242857D01*
X146509524Y-73147619D01*
X146557143Y-73100000D01*
X146652381Y-73052381D01*
X147604762Y-73052381D02*
X147700001Y-73052381D01*
X147795239Y-73100000D01*
X147842858Y-73147619D01*
X147890477Y-73242857D01*
X147938096Y-73433333D01*
X147938096Y-73671429D01*
X147890477Y-73861905D01*
X147842858Y-73957143D01*
X147795239Y-74004762D01*
X147700001Y-74052381D01*
X147604762Y-74052381D01*
X147509524Y-74004762D01*
X147461905Y-73957143D01*
X147414286Y-73861905D01*
X147366667Y-73671429D01*
X147366667Y-73433333D01*
X147414286Y-73242857D01*
X147461905Y-73147619D01*
X147509524Y-73100000D01*
X147604762Y-73052381D01*
X148366667Y-74052381D02*
X148366667Y-73052381D01*
X148938096Y-74052381D02*
X148509524Y-73480952D01*
X148938096Y-73052381D02*
X148366667Y-73623810D01*
X142511905Y-83202381D02*
X142511905Y-82202381D01*
X142750000Y-82202381D01*
X142892858Y-82250000D01*
X142988096Y-82345238D01*
X143035715Y-82440476D01*
X143083334Y-82630952D01*
X143083334Y-82773810D01*
X143035715Y-82964286D01*
X142988096Y-83059524D01*
X142892858Y-83154762D01*
X142750000Y-83202381D01*
X142511905Y-83202381D01*
X144035715Y-83202381D02*
X143464286Y-83202381D01*
X143750000Y-83202381D02*
X143750000Y-82202381D01*
X143654762Y-82345238D01*
X143559524Y-82440476D01*
X143464286Y-82488095D01*
X135511905Y-83202381D02*
X135511905Y-82202381D01*
X135750000Y-82202381D01*
X135892858Y-82250000D01*
X135988096Y-82345238D01*
X136035715Y-82440476D01*
X136083334Y-82630952D01*
X136083334Y-82773810D01*
X136035715Y-82964286D01*
X135988096Y-83059524D01*
X135892858Y-83154762D01*
X135750000Y-83202381D01*
X135511905Y-83202381D01*
X136464286Y-82297619D02*
X136511905Y-82250000D01*
X136607143Y-82202381D01*
X136845239Y-82202381D01*
X136940477Y-82250000D01*
X136988096Y-82297619D01*
X137035715Y-82392857D01*
X137035715Y-82488095D01*
X136988096Y-82630952D01*
X136416667Y-83202381D01*
X137035715Y-83202381D01*
X121652381Y-74666667D02*
X120652381Y-74666667D01*
X120652381Y-74285714D01*
X120700000Y-74190476D01*
X120747619Y-74142857D01*
X120842857Y-74095238D01*
X120985714Y-74095238D01*
X121080952Y-74142857D01*
X121128571Y-74190476D01*
X121176190Y-74285714D01*
X121176190Y-74666667D01*
X120652381Y-73476191D02*
X120652381Y-73285714D01*
X120700000Y-73190476D01*
X120795238Y-73095238D01*
X120985714Y-73047619D01*
X121319048Y-73047619D01*
X121509524Y-73095238D01*
X121604762Y-73190476D01*
X121652381Y-73285714D01*
X121652381Y-73476191D01*
X121604762Y-73571429D01*
X121509524Y-73666667D01*
X121319048Y-73714286D01*
X120985714Y-73714286D01*
X120795238Y-73666667D01*
X120700000Y-73571429D01*
X120652381Y-73476191D01*
X120652381Y-72761905D02*
X120652381Y-72190476D01*
X121652381Y-72476191D02*
X120652381Y-72476191D01*
X136773810Y-62702381D02*
X136773810Y-61702381D01*
X137821429Y-62607143D02*
X137773810Y-62654762D01*
X137630953Y-62702381D01*
X137535715Y-62702381D01*
X137392857Y-62654762D01*
X137297619Y-62559524D01*
X137250000Y-62464286D01*
X137202381Y-62273810D01*
X137202381Y-62130952D01*
X137250000Y-61940476D01*
X137297619Y-61845238D01*
X137392857Y-61750000D01*
X137535715Y-61702381D01*
X137630953Y-61702381D01*
X137773810Y-61750000D01*
X137821429Y-61797619D01*
X138202381Y-62654762D02*
X138345238Y-62702381D01*
X138583334Y-62702381D01*
X138678572Y-62654762D01*
X138726191Y-62607143D01*
X138773810Y-62511905D01*
X138773810Y-62416667D01*
X138726191Y-62321429D01*
X138678572Y-62273810D01*
X138583334Y-62226190D01*
X138392857Y-62178571D01*
X138297619Y-62130952D01*
X138250000Y-62083333D01*
X138202381Y-61988095D01*
X138202381Y-61892857D01*
X138250000Y-61797619D01*
X138297619Y-61750000D01*
X138392857Y-61702381D01*
X138630953Y-61702381D01*
X138773810Y-61750000D01*
X139202381Y-62702381D02*
X139202381Y-61702381D01*
X139583334Y-61702381D01*
X139678572Y-61750000D01*
X139726191Y-61797619D01*
X139773810Y-61892857D01*
X139773810Y-62035714D01*
X139726191Y-62130952D01*
X139678572Y-62178571D01*
X139583334Y-62226190D01*
X139202381Y-62226190D01*
X163666667Y-90785714D02*
X163666667Y-91452381D01*
X163428571Y-90404762D02*
X163190476Y-91119048D01*
X163809524Y-91119048D01*
X164095238Y-90452381D02*
X164714286Y-90452381D01*
X164380952Y-90833333D01*
X164523810Y-90833333D01*
X164619048Y-90880952D01*
X164666667Y-90928571D01*
X164714286Y-91023810D01*
X164714286Y-91261905D01*
X164666667Y-91357143D01*
X164619048Y-91404762D01*
X164523810Y-91452381D01*
X164238095Y-91452381D01*
X164142857Y-91404762D01*
X164095238Y-91357143D01*
X165047619Y-90452381D02*
X165666667Y-90452381D01*
X165333333Y-90833333D01*
X165476191Y-90833333D01*
X165571429Y-90880952D01*
X165619048Y-90928571D01*
X165666667Y-91023810D01*
X165666667Y-91261905D01*
X165619048Y-91357143D01*
X165571429Y-91404762D01*
X165476191Y-91452381D01*
X165190476Y-91452381D01*
X165095238Y-91404762D01*
X165047619Y-91357143D01*
X166095238Y-91452381D02*
X166095238Y-90452381D01*
X166428572Y-91166667D01*
X166761905Y-90452381D01*
X166761905Y-91452381D01*
X167238095Y-91452381D02*
X167238095Y-90452381D01*
X167238095Y-90928571D02*
X167809524Y-90928571D01*
X167809524Y-91452381D02*
X167809524Y-90452381D01*
X168190476Y-90452381D02*
X168857143Y-90452381D01*
X168190476Y-91452381D01*
X168857143Y-91452381D01*
X139511905Y-101702381D02*
X139511905Y-100702381D01*
X139750000Y-100702381D01*
X139892858Y-100750000D01*
X139988096Y-100845238D01*
X140035715Y-100940476D01*
X140083334Y-101130952D01*
X140083334Y-101273810D01*
X140035715Y-101464286D01*
X139988096Y-101559524D01*
X139892858Y-101654762D01*
X139750000Y-101702381D01*
X139511905Y-101702381D01*
X140416667Y-100702381D02*
X141035715Y-100702381D01*
X140702381Y-101083333D01*
X140845239Y-101083333D01*
X140940477Y-101130952D01*
X140988096Y-101178571D01*
X141035715Y-101273810D01*
X141035715Y-101511905D01*
X140988096Y-101607143D01*
X140940477Y-101654762D01*
X140845239Y-101702381D01*
X140559524Y-101702381D01*
X140464286Y-101654762D01*
X140416667Y-101607143D01*
X151738095Y-74952381D02*
X151738095Y-75761905D01*
X151785714Y-75857143D01*
X151833333Y-75904762D01*
X151928571Y-75952381D01*
X152119048Y-75952381D01*
X152214286Y-75904762D01*
X152261905Y-75857143D01*
X152309524Y-75761905D01*
X152309524Y-74952381D01*
X153309524Y-75952381D02*
X152738095Y-75952381D01*
X153023809Y-75952381D02*
X153023809Y-74952381D01*
X152928571Y-75095238D01*
X152833333Y-75190476D01*
X152738095Y-75238095D01*
X149190476Y-76452381D02*
X149809524Y-76452381D01*
X149476190Y-76833333D01*
X149619048Y-76833333D01*
X149714286Y-76880952D01*
X149761905Y-76928571D01*
X149809524Y-77023810D01*
X149809524Y-77261905D01*
X149761905Y-77357143D01*
X149714286Y-77404762D01*
X149619048Y-77452381D01*
X149333333Y-77452381D01*
X149238095Y-77404762D01*
X149190476Y-77357143D01*
X150238095Y-77357143D02*
X150285714Y-77404762D01*
X150238095Y-77452381D01*
X150190476Y-77404762D01*
X150238095Y-77357143D01*
X150238095Y-77452381D01*
X150619047Y-76452381D02*
X151238095Y-76452381D01*
X150904761Y-76833333D01*
X151047619Y-76833333D01*
X151142857Y-76880952D01*
X151190476Y-76928571D01*
X151238095Y-77023810D01*
X151238095Y-77261905D01*
X151190476Y-77357143D01*
X151142857Y-77404762D01*
X151047619Y-77452381D01*
X150761904Y-77452381D01*
X150666666Y-77404762D01*
X150619047Y-77357143D01*
X151523809Y-76452381D02*
X151857142Y-77452381D01*
X152190476Y-76452381D01*
X153857143Y-77452381D02*
X153523809Y-76976190D01*
X153285714Y-77452381D02*
X153285714Y-76452381D01*
X153666667Y-76452381D01*
X153761905Y-76500000D01*
X153809524Y-76547619D01*
X153857143Y-76642857D01*
X153857143Y-76785714D01*
X153809524Y-76880952D01*
X153761905Y-76928571D01*
X153666667Y-76976190D01*
X153285714Y-76976190D01*
X154285714Y-76928571D02*
X154619048Y-76928571D01*
X154761905Y-77452381D02*
X154285714Y-77452381D01*
X154285714Y-76452381D01*
X154761905Y-76452381D01*
X155714286Y-76500000D02*
X155619048Y-76452381D01*
X155476191Y-76452381D01*
X155333333Y-76500000D01*
X155238095Y-76595238D01*
X155190476Y-76690476D01*
X155142857Y-76880952D01*
X155142857Y-77023810D01*
X155190476Y-77214286D01*
X155238095Y-77309524D01*
X155333333Y-77404762D01*
X155476191Y-77452381D01*
X155571429Y-77452381D01*
X155714286Y-77404762D01*
X155761905Y-77357143D01*
X155761905Y-77023810D01*
X155571429Y-77023810D01*
M02*
