G04 #@! TF.FileFunction,Copper,L1,Top,Signal*
%FSLAX46Y46*%
G04 Gerber Fmt 4.6, Leading zero omitted, Abs format (unit mm)*
G04 Created by KiCad (PCBNEW 4.0.1-stable) date 01/09/2016 20:31:34*
%MOMM*%
G01*
G04 APERTURE LIST*
%ADD10C,0.101600*%
%ADD11R,2.032000X1.727200*%
%ADD12O,2.032000X1.727200*%
%ADD13R,1.500000X1.250000*%
%ADD14R,1.300000X1.500000*%
%ADD15R,1.727200X1.727200*%
%ADD16O,1.727200X1.727200*%
%ADD17R,1.198880X1.198880*%
%ADD18R,2.235200X2.235200*%
%ADD19R,1.397000X1.397000*%
%ADD20C,1.397000*%
%ADD21R,1.778000X1.270000*%
%ADD22R,1.778000X0.609600*%
%ADD23R,2.032000X2.032000*%
%ADD24O,2.032000X2.032000*%
%ADD25C,0.762000*%
%ADD26C,0.304800*%
%ADD27C,0.254000*%
G04 APERTURE END LIST*
D10*
D11*
X170753000Y-73618000D03*
D12*
X170753000Y-76158000D03*
X170753000Y-78698000D03*
D11*
X149163000Y-78698000D03*
D12*
X149163000Y-76158000D03*
X149163000Y-73618000D03*
D13*
X160232000Y-71205000D03*
X162732000Y-71205000D03*
D14*
X153735000Y-71158000D03*
X153735000Y-68458000D03*
D15*
X162371000Y-67903000D03*
D16*
X162371000Y-65363000D03*
X164911000Y-67903000D03*
X164911000Y-65363000D03*
X167451000Y-67903000D03*
X167451000Y-65363000D03*
D14*
X151576000Y-81285000D03*
X151576000Y-83985000D03*
D17*
X149163000Y-83717040D03*
X149163000Y-81619000D03*
D18*
X149163000Y-86953000D03*
X170753000Y-86953000D03*
X149163000Y-65363000D03*
X170753000Y-65363000D03*
D19*
X161863000Y-86953000D03*
D20*
X164403000Y-86953000D03*
X166943000Y-86953000D03*
D21*
X155182800Y-81238000D03*
X159323000Y-81238000D03*
X155182800Y-79079000D03*
X159323000Y-79079000D03*
D22*
X160339000Y-73110000D03*
X160339000Y-74380000D03*
X160339000Y-75650000D03*
X160339000Y-76920000D03*
X153735000Y-76920000D03*
X153735000Y-75650000D03*
X153735000Y-74380000D03*
X153735000Y-73110000D03*
D18*
X149163000Y-70443000D03*
X149163000Y-67903000D03*
D23*
X156529000Y-86953000D03*
D24*
X159069000Y-86953000D03*
D13*
X162792000Y-83016000D03*
X165292000Y-83016000D03*
D25*
X164403000Y-75396000D03*
X162752000Y-73364000D03*
X155513000Y-75777000D03*
X166943000Y-71332000D03*
X158052996Y-69427000D03*
X151830000Y-70062000D03*
X151830000Y-68458000D03*
X158053000Y-74507000D03*
X157672000Y-83651000D03*
D26*
X170753000Y-86953000D02*
X168975000Y-86953000D01*
X168975000Y-86953000D02*
X168086000Y-86064000D01*
X168086000Y-86064000D02*
X167832000Y-86064000D01*
X167832000Y-86064000D02*
X166943000Y-86953000D01*
X159739561Y-88350001D02*
X156605201Y-88350001D01*
X156529000Y-88273800D02*
X156529000Y-86953000D01*
X156605201Y-88350001D02*
X156529000Y-88273800D01*
X165292000Y-83016000D02*
X165292000Y-82000000D01*
X165292000Y-82000000D02*
X164911000Y-81619000D01*
X161736000Y-81746000D02*
X161609000Y-81746000D01*
X164911000Y-81619000D02*
X161863000Y-81619000D01*
X161863000Y-81619000D02*
X161736000Y-81746000D01*
X161609000Y-81746000D02*
X158307000Y-85048000D01*
X158307000Y-85048000D02*
X157037000Y-85048000D01*
X157037000Y-85048000D02*
X156529000Y-85556000D01*
X156529000Y-85556000D02*
X156529000Y-86953000D01*
X165292000Y-83016000D02*
X165292000Y-85302000D01*
X165292000Y-85302000D02*
X166943000Y-86953000D01*
X159739561Y-88350001D02*
X159993562Y-88096000D01*
X159993562Y-88096000D02*
X165546000Y-88096000D01*
X165546000Y-88096000D02*
X166435000Y-87207000D01*
X166435000Y-87207000D02*
X166689000Y-87207000D01*
X166689000Y-87207000D02*
X166943000Y-86953000D01*
X170753000Y-86953000D02*
X170753000Y-81746000D01*
X170753000Y-81746000D02*
X164403000Y-75396000D01*
X162732000Y-71205000D02*
X162732000Y-73344000D01*
X162732000Y-73344000D02*
X162752000Y-73364000D01*
X155513000Y-75777000D02*
X155513000Y-68150198D01*
X155513000Y-68150198D02*
X152725802Y-65363000D01*
X152725802Y-65363000D02*
X150585400Y-65363000D01*
X150585400Y-65363000D02*
X149163000Y-65363000D01*
X153735000Y-76920000D02*
X154370000Y-76920000D01*
X154370000Y-76920000D02*
X155513000Y-75777000D01*
X149163000Y-78698000D02*
X150687000Y-78698000D01*
X150687000Y-78698000D02*
X152465000Y-76920000D01*
X152465000Y-76920000D02*
X153735000Y-76920000D01*
X149163000Y-86953000D02*
X149163000Y-85530600D01*
X149163000Y-79866400D02*
X149163000Y-78698000D01*
X149163000Y-85530600D02*
X148147000Y-84514600D01*
X148147000Y-84514600D02*
X148147000Y-80882400D01*
X148147000Y-80882400D02*
X149163000Y-79866400D01*
X149163000Y-81619000D02*
X149163000Y-78698000D01*
X160516800Y-81238000D02*
X159323000Y-81238000D01*
X161532800Y-74380000D02*
X163006000Y-75853200D01*
X160339000Y-74380000D02*
X161532800Y-74380000D01*
X163006000Y-78748800D02*
X160516800Y-81238000D01*
X163006000Y-75853200D02*
X163006000Y-78748800D01*
X166562001Y-71712999D02*
X166943000Y-71332000D01*
X165165000Y-73110000D02*
X166562001Y-71712999D01*
X165165000Y-74380000D02*
X165165000Y-73110000D01*
X160339000Y-74380000D02*
X165165000Y-74380000D01*
X165165000Y-74380000D02*
X166943000Y-74380000D01*
X164911000Y-67903000D02*
X164911000Y-68030000D01*
X166943000Y-74380000D02*
X168721000Y-76158000D01*
X168721000Y-76158000D02*
X170753000Y-76158000D01*
X162371000Y-67903000D02*
X161202600Y-67903000D01*
X157545000Y-75650000D02*
X159145200Y-75650000D01*
X161202600Y-67903000D02*
X160599599Y-67299999D01*
X160599599Y-67299999D02*
X157894001Y-67299999D01*
X157894001Y-67299999D02*
X157036998Y-68157002D01*
X157036998Y-68157002D02*
X157036998Y-69792762D01*
X157036998Y-69792762D02*
X157037000Y-69792764D01*
X157037000Y-69792764D02*
X157037000Y-75142000D01*
X157037000Y-75142000D02*
X157545000Y-75650000D01*
X159145200Y-75650000D02*
X160339000Y-75650000D01*
X160339000Y-75650000D02*
X161736000Y-75650000D01*
X161736000Y-75650000D02*
X162244000Y-76158000D01*
X162244000Y-76158000D02*
X162244000Y-78317000D01*
X162244000Y-78317000D02*
X161482000Y-79079000D01*
X161482000Y-79079000D02*
X159450000Y-79079000D01*
X165927000Y-69427000D02*
X158591811Y-69427000D01*
X167451000Y-67903000D02*
X165927000Y-69427000D01*
X158591811Y-69427000D02*
X158052996Y-69427000D01*
X151830000Y-70062000D02*
X152639000Y-70062000D01*
X152639000Y-70062000D02*
X153735000Y-71158000D01*
X153735000Y-71158000D02*
X153735000Y-73110000D01*
X153735000Y-71158000D02*
X153735000Y-71058000D01*
X153735000Y-75650000D02*
X151347400Y-75650000D01*
X151347400Y-75650000D02*
X149315400Y-73618000D01*
X149315400Y-73618000D02*
X149163000Y-73618000D01*
X164911000Y-65363000D02*
X163640999Y-66633001D01*
X163640999Y-66633001D02*
X157290999Y-66633001D01*
X157290999Y-66633001D02*
X156275000Y-67649000D01*
X156275000Y-67649000D02*
X156275000Y-75650000D01*
X157545000Y-76920000D02*
X160339000Y-76920000D01*
X156275000Y-75650000D02*
X157545000Y-76920000D01*
X160339000Y-76920000D02*
X159145200Y-76920000D01*
X151576000Y-80230200D02*
X151576000Y-81285000D01*
X159145200Y-76920000D02*
X158002201Y-78062999D01*
X158002201Y-78062999D02*
X153743201Y-78062999D01*
X153743201Y-78062999D02*
X151576000Y-80230200D01*
X149163000Y-70443000D02*
X150331400Y-70443000D01*
X152338000Y-74380000D02*
X153735000Y-74380000D01*
X150331400Y-70443000D02*
X151576000Y-71687600D01*
X151576000Y-71687600D02*
X151576000Y-73618000D01*
X151576000Y-73618000D02*
X152338000Y-74380000D01*
X160232000Y-71205000D02*
X160232000Y-73003000D01*
X160232000Y-73003000D02*
X160339000Y-73110000D01*
X160232000Y-71205000D02*
X158942000Y-71205000D01*
X158942000Y-71205000D02*
X158053000Y-72094000D01*
X158053000Y-72094000D02*
X158053000Y-74507000D01*
X153735000Y-68458000D02*
X151830000Y-68458000D01*
X151830000Y-68458000D02*
X149718000Y-68458000D01*
X149718000Y-68458000D02*
X149163000Y-67903000D01*
X157672000Y-83473200D02*
X157672000Y-83651000D01*
X155182800Y-81238000D02*
X155436800Y-81238000D01*
X155436800Y-81238000D02*
X157672000Y-83473200D01*
X155182800Y-79079000D02*
X155182800Y-81238000D01*
X151576000Y-83985000D02*
X149430960Y-83985000D01*
X149430960Y-83985000D02*
X149163000Y-83717040D01*
X162792000Y-84373000D02*
X161863000Y-85302000D01*
X161863000Y-85302000D02*
X161863000Y-86953000D01*
X162792000Y-83016000D02*
X162792000Y-84373000D01*
X159069000Y-86953000D02*
X161863000Y-86953000D01*
D27*
G36*
X168164224Y-76714776D02*
X168419675Y-76885463D01*
X168721000Y-76945400D01*
X169326660Y-76945400D01*
X169508585Y-77217670D01*
X169823366Y-77428000D01*
X169508585Y-77638330D01*
X169183729Y-78124511D01*
X169069655Y-78698000D01*
X169183729Y-79271489D01*
X169508585Y-79757670D01*
X169994766Y-80082526D01*
X170568255Y-80196600D01*
X170937745Y-80196600D01*
X171511234Y-80082526D01*
X171748000Y-79924324D01*
X171748000Y-85200400D01*
X171038750Y-85200400D01*
X170880000Y-85359150D01*
X170880000Y-86826000D01*
X170900000Y-86826000D01*
X170900000Y-87080000D01*
X170880000Y-87080000D01*
X170880000Y-87100000D01*
X170626000Y-87100000D01*
X170626000Y-87080000D01*
X169159150Y-87080000D01*
X169000400Y-87238750D01*
X169000400Y-87948000D01*
X167681670Y-87948000D01*
X167697583Y-87887188D01*
X166943000Y-87132605D01*
X166188417Y-87887188D01*
X166204330Y-87948000D01*
X165293764Y-87948000D01*
X165532827Y-87709353D01*
X165666314Y-87387882D01*
X165773200Y-87645929D01*
X166008812Y-87707583D01*
X166763395Y-86953000D01*
X167122605Y-86953000D01*
X167877188Y-87707583D01*
X168112800Y-87645929D01*
X168288927Y-87145520D01*
X168260148Y-86615801D01*
X168112800Y-86260071D01*
X167877188Y-86198417D01*
X167122605Y-86953000D01*
X166763395Y-86953000D01*
X166008812Y-86198417D01*
X165773200Y-86260071D01*
X165674917Y-86539312D01*
X165534146Y-86198620D01*
X165354652Y-86018812D01*
X166188417Y-86018812D01*
X166943000Y-86773395D01*
X167697583Y-86018812D01*
X167635929Y-85783200D01*
X167425369Y-85709090D01*
X169000400Y-85709090D01*
X169000400Y-86667250D01*
X169159150Y-86826000D01*
X170626000Y-86826000D01*
X170626000Y-85359150D01*
X170467250Y-85200400D01*
X169509091Y-85200400D01*
X169275702Y-85297073D01*
X169097073Y-85475701D01*
X169000400Y-85709090D01*
X167425369Y-85709090D01*
X167135520Y-85607073D01*
X166605801Y-85635852D01*
X166250071Y-85783200D01*
X166188417Y-86018812D01*
X165354652Y-86018812D01*
X165159353Y-85823173D01*
X164669413Y-85619732D01*
X164138914Y-85619269D01*
X163648620Y-85821854D01*
X163273173Y-86196647D01*
X163208940Y-86351337D01*
X163208940Y-86254500D01*
X163164662Y-86019183D01*
X163025590Y-85803059D01*
X162813390Y-85658069D01*
X162652969Y-85625583D01*
X163348776Y-84929776D01*
X163519463Y-84674325D01*
X163579400Y-84373000D01*
X163579400Y-84281403D01*
X163777317Y-84244162D01*
X163993441Y-84105090D01*
X164039969Y-84036994D01*
X164182302Y-84179327D01*
X164415691Y-84276000D01*
X165006250Y-84276000D01*
X165165000Y-84117250D01*
X165165000Y-83143000D01*
X165419000Y-83143000D01*
X165419000Y-84117250D01*
X165577750Y-84276000D01*
X166168309Y-84276000D01*
X166401698Y-84179327D01*
X166580327Y-84000699D01*
X166677000Y-83767310D01*
X166677000Y-83301750D01*
X166518250Y-83143000D01*
X165419000Y-83143000D01*
X165165000Y-83143000D01*
X165145000Y-83143000D01*
X165145000Y-82889000D01*
X165165000Y-82889000D01*
X165165000Y-81914750D01*
X165419000Y-81914750D01*
X165419000Y-82889000D01*
X166518250Y-82889000D01*
X166677000Y-82730250D01*
X166677000Y-82264690D01*
X166580327Y-82031301D01*
X166401698Y-81852673D01*
X166168309Y-81756000D01*
X165577750Y-81756000D01*
X165419000Y-81914750D01*
X165165000Y-81914750D01*
X165006250Y-81756000D01*
X164415691Y-81756000D01*
X164182302Y-81852673D01*
X164041064Y-81993910D01*
X164006090Y-81939559D01*
X163793890Y-81794569D01*
X163542000Y-81743560D01*
X162042000Y-81743560D01*
X161806683Y-81787838D01*
X161590559Y-81926910D01*
X161445569Y-82139110D01*
X161394560Y-82391000D01*
X161394560Y-83641000D01*
X161438838Y-83876317D01*
X161577910Y-84092441D01*
X161790110Y-84237431D01*
X161809991Y-84241457D01*
X161306224Y-84745224D01*
X161135537Y-85000675D01*
X161075600Y-85302000D01*
X161075600Y-85623788D01*
X160929183Y-85651338D01*
X160713059Y-85790410D01*
X160568069Y-86002610D01*
X160535063Y-86165600D01*
X160511975Y-86165600D01*
X160236433Y-85753222D01*
X159700810Y-85395330D01*
X159069000Y-85269655D01*
X158437190Y-85395330D01*
X158100999Y-85619966D01*
X158083327Y-85577302D01*
X157904699Y-85398673D01*
X157671310Y-85302000D01*
X156814750Y-85302000D01*
X156656000Y-85460750D01*
X156656000Y-86826000D01*
X156676000Y-86826000D01*
X156676000Y-87080000D01*
X156656000Y-87080000D01*
X156656000Y-87100000D01*
X156402000Y-87100000D01*
X156402000Y-87080000D01*
X155036750Y-87080000D01*
X154878000Y-87238750D01*
X154878000Y-87948000D01*
X150915600Y-87948000D01*
X150915600Y-87238750D01*
X150756850Y-87080000D01*
X149290000Y-87080000D01*
X149290000Y-87100000D01*
X149036000Y-87100000D01*
X149036000Y-87080000D01*
X149016000Y-87080000D01*
X149016000Y-86826000D01*
X149036000Y-86826000D01*
X149036000Y-85359150D01*
X148877250Y-85200400D01*
X148168000Y-85200400D01*
X148168000Y-84814746D01*
X148311670Y-84912911D01*
X148563560Y-84963920D01*
X149762440Y-84963920D01*
X149997757Y-84919642D01*
X150213881Y-84780570D01*
X150219463Y-84772400D01*
X150285597Y-84772400D01*
X150322838Y-84970317D01*
X150461910Y-85186441D01*
X150598466Y-85279745D01*
X150406909Y-85200400D01*
X149448750Y-85200400D01*
X149290000Y-85359150D01*
X149290000Y-86826000D01*
X150756850Y-86826000D01*
X150915600Y-86667250D01*
X150915600Y-85810691D01*
X154878000Y-85810691D01*
X154878000Y-86667250D01*
X155036750Y-86826000D01*
X156402000Y-86826000D01*
X156402000Y-85460750D01*
X156243250Y-85302000D01*
X155386690Y-85302000D01*
X155153301Y-85398673D01*
X154974673Y-85577302D01*
X154878000Y-85810691D01*
X150915600Y-85810691D01*
X150915600Y-85709090D01*
X150818927Y-85475701D01*
X150674795Y-85331570D01*
X150926000Y-85382440D01*
X152226000Y-85382440D01*
X152461317Y-85338162D01*
X152677441Y-85199090D01*
X152822431Y-84986890D01*
X152873440Y-84735000D01*
X152873440Y-83235000D01*
X152829162Y-82999683D01*
X152690090Y-82783559D01*
X152477890Y-82638569D01*
X152464803Y-82635919D01*
X152677441Y-82499090D01*
X152822431Y-82286890D01*
X152873440Y-82035000D01*
X152873440Y-80535000D01*
X152829162Y-80299683D01*
X152747295Y-80172457D01*
X153646360Y-79273392D01*
X153646360Y-79714000D01*
X153690638Y-79949317D01*
X153827053Y-80161311D01*
X153697369Y-80351110D01*
X153646360Y-80603000D01*
X153646360Y-81873000D01*
X153690638Y-82108317D01*
X153829710Y-82324441D01*
X154041910Y-82469431D01*
X154293800Y-82520440D01*
X155605688Y-82520440D01*
X156656069Y-83570821D01*
X156655824Y-83852208D01*
X156810175Y-84225766D01*
X157095731Y-84511821D01*
X157469018Y-84666824D01*
X157873208Y-84667176D01*
X158246766Y-84512825D01*
X158532821Y-84227269D01*
X158687824Y-83853982D01*
X158688176Y-83449792D01*
X158533825Y-83076234D01*
X158248269Y-82790179D01*
X157999043Y-82686691D01*
X156719240Y-81406888D01*
X156719240Y-80603000D01*
X156674962Y-80367683D01*
X156538547Y-80155689D01*
X156668231Y-79965890D01*
X156719240Y-79714000D01*
X156719240Y-78850399D01*
X157786560Y-78850399D01*
X157786560Y-79714000D01*
X157830838Y-79949317D01*
X157967253Y-80161311D01*
X157837569Y-80351110D01*
X157786560Y-80603000D01*
X157786560Y-81873000D01*
X157830838Y-82108317D01*
X157969910Y-82324441D01*
X158182110Y-82469431D01*
X158434000Y-82520440D01*
X160212000Y-82520440D01*
X160447317Y-82476162D01*
X160663441Y-82337090D01*
X160808431Y-82124890D01*
X160844251Y-81948006D01*
X161073576Y-81794776D01*
X163562776Y-79305576D01*
X163733463Y-79050125D01*
X163793400Y-78748800D01*
X163793400Y-75853200D01*
X163733463Y-75551875D01*
X163562776Y-75296424D01*
X163433752Y-75167400D01*
X166616848Y-75167400D01*
X168164224Y-76714776D01*
X168164224Y-76714776D01*
G37*
X168164224Y-76714776D02*
X168419675Y-76885463D01*
X168721000Y-76945400D01*
X169326660Y-76945400D01*
X169508585Y-77217670D01*
X169823366Y-77428000D01*
X169508585Y-77638330D01*
X169183729Y-78124511D01*
X169069655Y-78698000D01*
X169183729Y-79271489D01*
X169508585Y-79757670D01*
X169994766Y-80082526D01*
X170568255Y-80196600D01*
X170937745Y-80196600D01*
X171511234Y-80082526D01*
X171748000Y-79924324D01*
X171748000Y-85200400D01*
X171038750Y-85200400D01*
X170880000Y-85359150D01*
X170880000Y-86826000D01*
X170900000Y-86826000D01*
X170900000Y-87080000D01*
X170880000Y-87080000D01*
X170880000Y-87100000D01*
X170626000Y-87100000D01*
X170626000Y-87080000D01*
X169159150Y-87080000D01*
X169000400Y-87238750D01*
X169000400Y-87948000D01*
X167681670Y-87948000D01*
X167697583Y-87887188D01*
X166943000Y-87132605D01*
X166188417Y-87887188D01*
X166204330Y-87948000D01*
X165293764Y-87948000D01*
X165532827Y-87709353D01*
X165666314Y-87387882D01*
X165773200Y-87645929D01*
X166008812Y-87707583D01*
X166763395Y-86953000D01*
X167122605Y-86953000D01*
X167877188Y-87707583D01*
X168112800Y-87645929D01*
X168288927Y-87145520D01*
X168260148Y-86615801D01*
X168112800Y-86260071D01*
X167877188Y-86198417D01*
X167122605Y-86953000D01*
X166763395Y-86953000D01*
X166008812Y-86198417D01*
X165773200Y-86260071D01*
X165674917Y-86539312D01*
X165534146Y-86198620D01*
X165354652Y-86018812D01*
X166188417Y-86018812D01*
X166943000Y-86773395D01*
X167697583Y-86018812D01*
X167635929Y-85783200D01*
X167425369Y-85709090D01*
X169000400Y-85709090D01*
X169000400Y-86667250D01*
X169159150Y-86826000D01*
X170626000Y-86826000D01*
X170626000Y-85359150D01*
X170467250Y-85200400D01*
X169509091Y-85200400D01*
X169275702Y-85297073D01*
X169097073Y-85475701D01*
X169000400Y-85709090D01*
X167425369Y-85709090D01*
X167135520Y-85607073D01*
X166605801Y-85635852D01*
X166250071Y-85783200D01*
X166188417Y-86018812D01*
X165354652Y-86018812D01*
X165159353Y-85823173D01*
X164669413Y-85619732D01*
X164138914Y-85619269D01*
X163648620Y-85821854D01*
X163273173Y-86196647D01*
X163208940Y-86351337D01*
X163208940Y-86254500D01*
X163164662Y-86019183D01*
X163025590Y-85803059D01*
X162813390Y-85658069D01*
X162652969Y-85625583D01*
X163348776Y-84929776D01*
X163519463Y-84674325D01*
X163579400Y-84373000D01*
X163579400Y-84281403D01*
X163777317Y-84244162D01*
X163993441Y-84105090D01*
X164039969Y-84036994D01*
X164182302Y-84179327D01*
X164415691Y-84276000D01*
X165006250Y-84276000D01*
X165165000Y-84117250D01*
X165165000Y-83143000D01*
X165419000Y-83143000D01*
X165419000Y-84117250D01*
X165577750Y-84276000D01*
X166168309Y-84276000D01*
X166401698Y-84179327D01*
X166580327Y-84000699D01*
X166677000Y-83767310D01*
X166677000Y-83301750D01*
X166518250Y-83143000D01*
X165419000Y-83143000D01*
X165165000Y-83143000D01*
X165145000Y-83143000D01*
X165145000Y-82889000D01*
X165165000Y-82889000D01*
X165165000Y-81914750D01*
X165419000Y-81914750D01*
X165419000Y-82889000D01*
X166518250Y-82889000D01*
X166677000Y-82730250D01*
X166677000Y-82264690D01*
X166580327Y-82031301D01*
X166401698Y-81852673D01*
X166168309Y-81756000D01*
X165577750Y-81756000D01*
X165419000Y-81914750D01*
X165165000Y-81914750D01*
X165006250Y-81756000D01*
X164415691Y-81756000D01*
X164182302Y-81852673D01*
X164041064Y-81993910D01*
X164006090Y-81939559D01*
X163793890Y-81794569D01*
X163542000Y-81743560D01*
X162042000Y-81743560D01*
X161806683Y-81787838D01*
X161590559Y-81926910D01*
X161445569Y-82139110D01*
X161394560Y-82391000D01*
X161394560Y-83641000D01*
X161438838Y-83876317D01*
X161577910Y-84092441D01*
X161790110Y-84237431D01*
X161809991Y-84241457D01*
X161306224Y-84745224D01*
X161135537Y-85000675D01*
X161075600Y-85302000D01*
X161075600Y-85623788D01*
X160929183Y-85651338D01*
X160713059Y-85790410D01*
X160568069Y-86002610D01*
X160535063Y-86165600D01*
X160511975Y-86165600D01*
X160236433Y-85753222D01*
X159700810Y-85395330D01*
X159069000Y-85269655D01*
X158437190Y-85395330D01*
X158100999Y-85619966D01*
X158083327Y-85577302D01*
X157904699Y-85398673D01*
X157671310Y-85302000D01*
X156814750Y-85302000D01*
X156656000Y-85460750D01*
X156656000Y-86826000D01*
X156676000Y-86826000D01*
X156676000Y-87080000D01*
X156656000Y-87080000D01*
X156656000Y-87100000D01*
X156402000Y-87100000D01*
X156402000Y-87080000D01*
X155036750Y-87080000D01*
X154878000Y-87238750D01*
X154878000Y-87948000D01*
X150915600Y-87948000D01*
X150915600Y-87238750D01*
X150756850Y-87080000D01*
X149290000Y-87080000D01*
X149290000Y-87100000D01*
X149036000Y-87100000D01*
X149036000Y-87080000D01*
X149016000Y-87080000D01*
X149016000Y-86826000D01*
X149036000Y-86826000D01*
X149036000Y-85359150D01*
X148877250Y-85200400D01*
X148168000Y-85200400D01*
X148168000Y-84814746D01*
X148311670Y-84912911D01*
X148563560Y-84963920D01*
X149762440Y-84963920D01*
X149997757Y-84919642D01*
X150213881Y-84780570D01*
X150219463Y-84772400D01*
X150285597Y-84772400D01*
X150322838Y-84970317D01*
X150461910Y-85186441D01*
X150598466Y-85279745D01*
X150406909Y-85200400D01*
X149448750Y-85200400D01*
X149290000Y-85359150D01*
X149290000Y-86826000D01*
X150756850Y-86826000D01*
X150915600Y-86667250D01*
X150915600Y-85810691D01*
X154878000Y-85810691D01*
X154878000Y-86667250D01*
X155036750Y-86826000D01*
X156402000Y-86826000D01*
X156402000Y-85460750D01*
X156243250Y-85302000D01*
X155386690Y-85302000D01*
X155153301Y-85398673D01*
X154974673Y-85577302D01*
X154878000Y-85810691D01*
X150915600Y-85810691D01*
X150915600Y-85709090D01*
X150818927Y-85475701D01*
X150674795Y-85331570D01*
X150926000Y-85382440D01*
X152226000Y-85382440D01*
X152461317Y-85338162D01*
X152677441Y-85199090D01*
X152822431Y-84986890D01*
X152873440Y-84735000D01*
X152873440Y-83235000D01*
X152829162Y-82999683D01*
X152690090Y-82783559D01*
X152477890Y-82638569D01*
X152464803Y-82635919D01*
X152677441Y-82499090D01*
X152822431Y-82286890D01*
X152873440Y-82035000D01*
X152873440Y-80535000D01*
X152829162Y-80299683D01*
X152747295Y-80172457D01*
X153646360Y-79273392D01*
X153646360Y-79714000D01*
X153690638Y-79949317D01*
X153827053Y-80161311D01*
X153697369Y-80351110D01*
X153646360Y-80603000D01*
X153646360Y-81873000D01*
X153690638Y-82108317D01*
X153829710Y-82324441D01*
X154041910Y-82469431D01*
X154293800Y-82520440D01*
X155605688Y-82520440D01*
X156656069Y-83570821D01*
X156655824Y-83852208D01*
X156810175Y-84225766D01*
X157095731Y-84511821D01*
X157469018Y-84666824D01*
X157873208Y-84667176D01*
X158246766Y-84512825D01*
X158532821Y-84227269D01*
X158687824Y-83853982D01*
X158688176Y-83449792D01*
X158533825Y-83076234D01*
X158248269Y-82790179D01*
X157999043Y-82686691D01*
X156719240Y-81406888D01*
X156719240Y-80603000D01*
X156674962Y-80367683D01*
X156538547Y-80155689D01*
X156668231Y-79965890D01*
X156719240Y-79714000D01*
X156719240Y-78850399D01*
X157786560Y-78850399D01*
X157786560Y-79714000D01*
X157830838Y-79949317D01*
X157967253Y-80161311D01*
X157837569Y-80351110D01*
X157786560Y-80603000D01*
X157786560Y-81873000D01*
X157830838Y-82108317D01*
X157969910Y-82324441D01*
X158182110Y-82469431D01*
X158434000Y-82520440D01*
X160212000Y-82520440D01*
X160447317Y-82476162D01*
X160663441Y-82337090D01*
X160808431Y-82124890D01*
X160844251Y-81948006D01*
X161073576Y-81794776D01*
X163562776Y-79305576D01*
X163733463Y-79050125D01*
X163793400Y-78748800D01*
X163793400Y-75853200D01*
X163733463Y-75551875D01*
X163562776Y-75296424D01*
X163433752Y-75167400D01*
X166616848Y-75167400D01*
X168164224Y-76714776D01*
G36*
X160986474Y-64760152D02*
X160872400Y-65333641D01*
X160872400Y-65392359D01*
X160962555Y-65845601D01*
X157290999Y-65845601D01*
X156989674Y-65905538D01*
X156734223Y-66076225D01*
X155718224Y-67092224D01*
X155547537Y-67347675D01*
X155487600Y-67649000D01*
X155487600Y-75650000D01*
X155547537Y-75951325D01*
X155718224Y-76206776D01*
X156787047Y-77275599D01*
X155259000Y-77275599D01*
X155259000Y-77205750D01*
X155100250Y-77047000D01*
X153862000Y-77047000D01*
X153862000Y-77067000D01*
X153608000Y-77067000D01*
X153608000Y-77047000D01*
X152369750Y-77047000D01*
X152211000Y-77205750D01*
X152211000Y-77351109D01*
X152307673Y-77584498D01*
X152486301Y-77763127D01*
X152719690Y-77859800D01*
X152832848Y-77859800D01*
X151019224Y-79673424D01*
X150868973Y-79898290D01*
X150710520Y-79928105D01*
X150717327Y-79921298D01*
X150814000Y-79687909D01*
X150814000Y-78983750D01*
X150655250Y-78825000D01*
X149290000Y-78825000D01*
X149290000Y-80037850D01*
X149448750Y-80196600D01*
X150305310Y-80196600D01*
X150421588Y-80148436D01*
X150329569Y-80283110D01*
X150278560Y-80535000D01*
X150278560Y-80637655D01*
X150122139Y-80481233D01*
X149888750Y-80384560D01*
X149448750Y-80384560D01*
X149290000Y-80543310D01*
X149290000Y-81492000D01*
X149310000Y-81492000D01*
X149310000Y-81746000D01*
X149290000Y-81746000D01*
X149290000Y-81766000D01*
X149036000Y-81766000D01*
X149036000Y-81746000D01*
X149016000Y-81746000D01*
X149016000Y-81492000D01*
X149036000Y-81492000D01*
X149036000Y-80543310D01*
X148877250Y-80384560D01*
X148437250Y-80384560D01*
X148203861Y-80481233D01*
X148168000Y-80517094D01*
X148168000Y-80196600D01*
X148877250Y-80196600D01*
X149036000Y-80037850D01*
X149036000Y-78825000D01*
X149016000Y-78825000D01*
X149016000Y-78571000D01*
X149036000Y-78571000D01*
X149036000Y-78551000D01*
X149290000Y-78551000D01*
X149290000Y-78571000D01*
X150655250Y-78571000D01*
X150814000Y-78412250D01*
X150814000Y-77708091D01*
X150717327Y-77474702D01*
X150538699Y-77296073D01*
X150385220Y-77232500D01*
X150407415Y-77217670D01*
X150732271Y-76731489D01*
X150831244Y-76233917D01*
X151046075Y-76377463D01*
X151347400Y-76437400D01*
X152232328Y-76437400D01*
X152211000Y-76488891D01*
X152211000Y-76634250D01*
X152369750Y-76793000D01*
X153608000Y-76793000D01*
X153608000Y-76773000D01*
X153862000Y-76773000D01*
X153862000Y-76793000D01*
X155100250Y-76793000D01*
X155259000Y-76634250D01*
X155259000Y-76488891D01*
X155171669Y-76278056D01*
X155220431Y-76206690D01*
X155271440Y-75954800D01*
X155271440Y-75345200D01*
X155227162Y-75109883D01*
X155166503Y-75015616D01*
X155220431Y-74936690D01*
X155271440Y-74684800D01*
X155271440Y-74075200D01*
X155227162Y-73839883D01*
X155166503Y-73745616D01*
X155220431Y-73666690D01*
X155271440Y-73414800D01*
X155271440Y-72805200D01*
X155227162Y-72569883D01*
X155088090Y-72353759D01*
X154925072Y-72242374D01*
X154981431Y-72159890D01*
X155032440Y-71908000D01*
X155032440Y-70408000D01*
X154988162Y-70172683D01*
X154849090Y-69956559D01*
X154636890Y-69811569D01*
X154623803Y-69808919D01*
X154836441Y-69672090D01*
X154981431Y-69459890D01*
X155032440Y-69208000D01*
X155032440Y-67708000D01*
X154988162Y-67472683D01*
X154849090Y-67256559D01*
X154636890Y-67111569D01*
X154385000Y-67060560D01*
X153085000Y-67060560D01*
X152849683Y-67104838D01*
X152633559Y-67243910D01*
X152488569Y-67456110D01*
X152450940Y-67641928D01*
X152406269Y-67597179D01*
X152032982Y-67442176D01*
X151628792Y-67441824D01*
X151255234Y-67596175D01*
X151180679Y-67670600D01*
X150928040Y-67670600D01*
X150928040Y-66785400D01*
X150901060Y-66642013D01*
X150915600Y-66606910D01*
X150915600Y-65648750D01*
X150756850Y-65490000D01*
X149290000Y-65490000D01*
X149290000Y-65510000D01*
X149036000Y-65510000D01*
X149036000Y-65490000D01*
X149016000Y-65490000D01*
X149016000Y-65236000D01*
X149036000Y-65236000D01*
X149036000Y-65216000D01*
X149290000Y-65216000D01*
X149290000Y-65236000D01*
X150756850Y-65236000D01*
X150915600Y-65077250D01*
X150915600Y-64368000D01*
X161248502Y-64368000D01*
X160986474Y-64760152D01*
X160986474Y-64760152D01*
G37*
X160986474Y-64760152D02*
X160872400Y-65333641D01*
X160872400Y-65392359D01*
X160962555Y-65845601D01*
X157290999Y-65845601D01*
X156989674Y-65905538D01*
X156734223Y-66076225D01*
X155718224Y-67092224D01*
X155547537Y-67347675D01*
X155487600Y-67649000D01*
X155487600Y-75650000D01*
X155547537Y-75951325D01*
X155718224Y-76206776D01*
X156787047Y-77275599D01*
X155259000Y-77275599D01*
X155259000Y-77205750D01*
X155100250Y-77047000D01*
X153862000Y-77047000D01*
X153862000Y-77067000D01*
X153608000Y-77067000D01*
X153608000Y-77047000D01*
X152369750Y-77047000D01*
X152211000Y-77205750D01*
X152211000Y-77351109D01*
X152307673Y-77584498D01*
X152486301Y-77763127D01*
X152719690Y-77859800D01*
X152832848Y-77859800D01*
X151019224Y-79673424D01*
X150868973Y-79898290D01*
X150710520Y-79928105D01*
X150717327Y-79921298D01*
X150814000Y-79687909D01*
X150814000Y-78983750D01*
X150655250Y-78825000D01*
X149290000Y-78825000D01*
X149290000Y-80037850D01*
X149448750Y-80196600D01*
X150305310Y-80196600D01*
X150421588Y-80148436D01*
X150329569Y-80283110D01*
X150278560Y-80535000D01*
X150278560Y-80637655D01*
X150122139Y-80481233D01*
X149888750Y-80384560D01*
X149448750Y-80384560D01*
X149290000Y-80543310D01*
X149290000Y-81492000D01*
X149310000Y-81492000D01*
X149310000Y-81746000D01*
X149290000Y-81746000D01*
X149290000Y-81766000D01*
X149036000Y-81766000D01*
X149036000Y-81746000D01*
X149016000Y-81746000D01*
X149016000Y-81492000D01*
X149036000Y-81492000D01*
X149036000Y-80543310D01*
X148877250Y-80384560D01*
X148437250Y-80384560D01*
X148203861Y-80481233D01*
X148168000Y-80517094D01*
X148168000Y-80196600D01*
X148877250Y-80196600D01*
X149036000Y-80037850D01*
X149036000Y-78825000D01*
X149016000Y-78825000D01*
X149016000Y-78571000D01*
X149036000Y-78571000D01*
X149036000Y-78551000D01*
X149290000Y-78551000D01*
X149290000Y-78571000D01*
X150655250Y-78571000D01*
X150814000Y-78412250D01*
X150814000Y-77708091D01*
X150717327Y-77474702D01*
X150538699Y-77296073D01*
X150385220Y-77232500D01*
X150407415Y-77217670D01*
X150732271Y-76731489D01*
X150831244Y-76233917D01*
X151046075Y-76377463D01*
X151347400Y-76437400D01*
X152232328Y-76437400D01*
X152211000Y-76488891D01*
X152211000Y-76634250D01*
X152369750Y-76793000D01*
X153608000Y-76793000D01*
X153608000Y-76773000D01*
X153862000Y-76773000D01*
X153862000Y-76793000D01*
X155100250Y-76793000D01*
X155259000Y-76634250D01*
X155259000Y-76488891D01*
X155171669Y-76278056D01*
X155220431Y-76206690D01*
X155271440Y-75954800D01*
X155271440Y-75345200D01*
X155227162Y-75109883D01*
X155166503Y-75015616D01*
X155220431Y-74936690D01*
X155271440Y-74684800D01*
X155271440Y-74075200D01*
X155227162Y-73839883D01*
X155166503Y-73745616D01*
X155220431Y-73666690D01*
X155271440Y-73414800D01*
X155271440Y-72805200D01*
X155227162Y-72569883D01*
X155088090Y-72353759D01*
X154925072Y-72242374D01*
X154981431Y-72159890D01*
X155032440Y-71908000D01*
X155032440Y-70408000D01*
X154988162Y-70172683D01*
X154849090Y-69956559D01*
X154636890Y-69811569D01*
X154623803Y-69808919D01*
X154836441Y-69672090D01*
X154981431Y-69459890D01*
X155032440Y-69208000D01*
X155032440Y-67708000D01*
X154988162Y-67472683D01*
X154849090Y-67256559D01*
X154636890Y-67111569D01*
X154385000Y-67060560D01*
X153085000Y-67060560D01*
X152849683Y-67104838D01*
X152633559Y-67243910D01*
X152488569Y-67456110D01*
X152450940Y-67641928D01*
X152406269Y-67597179D01*
X152032982Y-67442176D01*
X151628792Y-67441824D01*
X151255234Y-67596175D01*
X151180679Y-67670600D01*
X150928040Y-67670600D01*
X150928040Y-66785400D01*
X150901060Y-66642013D01*
X150915600Y-66606910D01*
X150915600Y-65648750D01*
X150756850Y-65490000D01*
X149290000Y-65490000D01*
X149290000Y-65510000D01*
X149036000Y-65510000D01*
X149036000Y-65490000D01*
X149016000Y-65490000D01*
X149016000Y-65236000D01*
X149036000Y-65236000D01*
X149036000Y-65216000D01*
X149290000Y-65216000D01*
X149290000Y-65236000D01*
X150756850Y-65236000D01*
X150915600Y-65077250D01*
X150915600Y-64368000D01*
X161248502Y-64368000D01*
X160986474Y-64760152D01*
G36*
X169000400Y-65077250D02*
X169159150Y-65236000D01*
X170626000Y-65236000D01*
X170626000Y-65216000D01*
X170880000Y-65216000D01*
X170880000Y-65236000D01*
X170900000Y-65236000D01*
X170900000Y-65490000D01*
X170880000Y-65490000D01*
X170880000Y-66956850D01*
X171038750Y-67115600D01*
X171748000Y-67115600D01*
X171748000Y-72119400D01*
X171038750Y-72119400D01*
X170880000Y-72278150D01*
X170880000Y-73491000D01*
X170900000Y-73491000D01*
X170900000Y-73745000D01*
X170880000Y-73745000D01*
X170880000Y-73765000D01*
X170626000Y-73765000D01*
X170626000Y-73745000D01*
X169260750Y-73745000D01*
X169102000Y-73903750D01*
X169102000Y-74607909D01*
X169198673Y-74841298D01*
X169377301Y-75019927D01*
X169530780Y-75083500D01*
X169508585Y-75098330D01*
X169326660Y-75370600D01*
X169047152Y-75370600D01*
X167499776Y-73823224D01*
X167244325Y-73652537D01*
X166943000Y-73592600D01*
X165952400Y-73592600D01*
X165952400Y-73436152D01*
X166760461Y-72628091D01*
X169102000Y-72628091D01*
X169102000Y-73332250D01*
X169260750Y-73491000D01*
X170626000Y-73491000D01*
X170626000Y-72278150D01*
X170467250Y-72119400D01*
X169610690Y-72119400D01*
X169377301Y-72216073D01*
X169198673Y-72394702D01*
X169102000Y-72628091D01*
X166760461Y-72628091D01*
X167040466Y-72348086D01*
X167144208Y-72348176D01*
X167517766Y-72193825D01*
X167803821Y-71908269D01*
X167958824Y-71534982D01*
X167959176Y-71130792D01*
X167804825Y-70757234D01*
X167519269Y-70471179D01*
X167145982Y-70316176D01*
X166741792Y-70315824D01*
X166368234Y-70470175D01*
X166082179Y-70755731D01*
X165927176Y-71129018D01*
X165927084Y-71234364D01*
X164608224Y-72553224D01*
X164437537Y-72808675D01*
X164377600Y-73110000D01*
X164377600Y-73592600D01*
X161839435Y-73592600D01*
X161875440Y-73414800D01*
X161875440Y-72805200D01*
X161831162Y-72569883D01*
X161730232Y-72413033D01*
X161855691Y-72465000D01*
X162446250Y-72465000D01*
X162605000Y-72306250D01*
X162605000Y-71332000D01*
X162859000Y-71332000D01*
X162859000Y-72306250D01*
X163017750Y-72465000D01*
X163608309Y-72465000D01*
X163841698Y-72368327D01*
X164020327Y-72189699D01*
X164117000Y-71956310D01*
X164117000Y-71490750D01*
X163958250Y-71332000D01*
X162859000Y-71332000D01*
X162605000Y-71332000D01*
X162585000Y-71332000D01*
X162585000Y-71078000D01*
X162605000Y-71078000D01*
X162605000Y-71058000D01*
X162859000Y-71058000D01*
X162859000Y-71078000D01*
X163958250Y-71078000D01*
X164117000Y-70919250D01*
X164117000Y-70453690D01*
X164020327Y-70220301D01*
X164014426Y-70214400D01*
X165927000Y-70214400D01*
X166228325Y-70154463D01*
X166483776Y-69983776D01*
X167105348Y-69362204D01*
X167451000Y-69430959D01*
X168024489Y-69316885D01*
X168510670Y-68992029D01*
X168835526Y-68505848D01*
X168949600Y-67932359D01*
X168949600Y-67873641D01*
X168835526Y-67300152D01*
X168510670Y-66813971D01*
X168239839Y-66633008D01*
X168657821Y-66251490D01*
X168905968Y-65722027D01*
X168867913Y-65648750D01*
X169000400Y-65648750D01*
X169000400Y-66606910D01*
X169097073Y-66840299D01*
X169275702Y-67018927D01*
X169509091Y-67115600D01*
X170467250Y-67115600D01*
X170626000Y-66956850D01*
X170626000Y-65490000D01*
X169159150Y-65490000D01*
X169000400Y-65648750D01*
X168867913Y-65648750D01*
X168785469Y-65490000D01*
X167578000Y-65490000D01*
X167578000Y-65510000D01*
X167324000Y-65510000D01*
X167324000Y-65490000D01*
X167304000Y-65490000D01*
X167304000Y-65236000D01*
X167324000Y-65236000D01*
X167324000Y-65216000D01*
X167578000Y-65216000D01*
X167578000Y-65236000D01*
X168785469Y-65236000D01*
X168905968Y-65003973D01*
X168657821Y-64474510D01*
X168541131Y-64368000D01*
X169000400Y-64368000D01*
X169000400Y-65077250D01*
X169000400Y-65077250D01*
G37*
X169000400Y-65077250D02*
X169159150Y-65236000D01*
X170626000Y-65236000D01*
X170626000Y-65216000D01*
X170880000Y-65216000D01*
X170880000Y-65236000D01*
X170900000Y-65236000D01*
X170900000Y-65490000D01*
X170880000Y-65490000D01*
X170880000Y-66956850D01*
X171038750Y-67115600D01*
X171748000Y-67115600D01*
X171748000Y-72119400D01*
X171038750Y-72119400D01*
X170880000Y-72278150D01*
X170880000Y-73491000D01*
X170900000Y-73491000D01*
X170900000Y-73745000D01*
X170880000Y-73745000D01*
X170880000Y-73765000D01*
X170626000Y-73765000D01*
X170626000Y-73745000D01*
X169260750Y-73745000D01*
X169102000Y-73903750D01*
X169102000Y-74607909D01*
X169198673Y-74841298D01*
X169377301Y-75019927D01*
X169530780Y-75083500D01*
X169508585Y-75098330D01*
X169326660Y-75370600D01*
X169047152Y-75370600D01*
X167499776Y-73823224D01*
X167244325Y-73652537D01*
X166943000Y-73592600D01*
X165952400Y-73592600D01*
X165952400Y-73436152D01*
X166760461Y-72628091D01*
X169102000Y-72628091D01*
X169102000Y-73332250D01*
X169260750Y-73491000D01*
X170626000Y-73491000D01*
X170626000Y-72278150D01*
X170467250Y-72119400D01*
X169610690Y-72119400D01*
X169377301Y-72216073D01*
X169198673Y-72394702D01*
X169102000Y-72628091D01*
X166760461Y-72628091D01*
X167040466Y-72348086D01*
X167144208Y-72348176D01*
X167517766Y-72193825D01*
X167803821Y-71908269D01*
X167958824Y-71534982D01*
X167959176Y-71130792D01*
X167804825Y-70757234D01*
X167519269Y-70471179D01*
X167145982Y-70316176D01*
X166741792Y-70315824D01*
X166368234Y-70470175D01*
X166082179Y-70755731D01*
X165927176Y-71129018D01*
X165927084Y-71234364D01*
X164608224Y-72553224D01*
X164437537Y-72808675D01*
X164377600Y-73110000D01*
X164377600Y-73592600D01*
X161839435Y-73592600D01*
X161875440Y-73414800D01*
X161875440Y-72805200D01*
X161831162Y-72569883D01*
X161730232Y-72413033D01*
X161855691Y-72465000D01*
X162446250Y-72465000D01*
X162605000Y-72306250D01*
X162605000Y-71332000D01*
X162859000Y-71332000D01*
X162859000Y-72306250D01*
X163017750Y-72465000D01*
X163608309Y-72465000D01*
X163841698Y-72368327D01*
X164020327Y-72189699D01*
X164117000Y-71956310D01*
X164117000Y-71490750D01*
X163958250Y-71332000D01*
X162859000Y-71332000D01*
X162605000Y-71332000D01*
X162585000Y-71332000D01*
X162585000Y-71078000D01*
X162605000Y-71078000D01*
X162605000Y-71058000D01*
X162859000Y-71058000D01*
X162859000Y-71078000D01*
X163958250Y-71078000D01*
X164117000Y-70919250D01*
X164117000Y-70453690D01*
X164020327Y-70220301D01*
X164014426Y-70214400D01*
X165927000Y-70214400D01*
X166228325Y-70154463D01*
X166483776Y-69983776D01*
X167105348Y-69362204D01*
X167451000Y-69430959D01*
X168024489Y-69316885D01*
X168510670Y-68992029D01*
X168835526Y-68505848D01*
X168949600Y-67932359D01*
X168949600Y-67873641D01*
X168835526Y-67300152D01*
X168510670Y-66813971D01*
X168239839Y-66633008D01*
X168657821Y-66251490D01*
X168905968Y-65722027D01*
X168867913Y-65648750D01*
X169000400Y-65648750D01*
X169000400Y-66606910D01*
X169097073Y-66840299D01*
X169275702Y-67018927D01*
X169509091Y-67115600D01*
X170467250Y-67115600D01*
X170626000Y-66956850D01*
X170626000Y-65490000D01*
X169159150Y-65490000D01*
X169000400Y-65648750D01*
X168867913Y-65648750D01*
X168785469Y-65490000D01*
X167578000Y-65490000D01*
X167578000Y-65510000D01*
X167324000Y-65510000D01*
X167324000Y-65490000D01*
X167304000Y-65490000D01*
X167304000Y-65236000D01*
X167324000Y-65236000D01*
X167324000Y-65216000D01*
X167578000Y-65216000D01*
X167578000Y-65236000D01*
X168785469Y-65236000D01*
X168905968Y-65003973D01*
X168657821Y-64474510D01*
X168541131Y-64368000D01*
X169000400Y-64368000D01*
X169000400Y-65077250D01*
M02*
