G04 #@! TF.FileFunction,Copper,L2,Bot,Signal*
%FSLAX46Y46*%
G04 Gerber Fmt 4.6, Leading zero omitted, Abs format (unit mm)*
G04 Created by KiCad (PCBNEW 4.0.2-4+6225~38~ubuntu14.04.1-stable) date Tue 03 May 2016 09:53:41 BST*
%MOMM*%
G01*
G04 APERTURE LIST*
%ADD10C,0.101600*%
%ADD11R,1.250000X1.500000*%
%ADD12R,3.657600X2.032000*%
%ADD13R,1.016000X2.032000*%
%ADD14R,1.800860X0.800100*%
%ADD15R,2.032000X1.727200*%
%ADD16O,2.032000X1.727200*%
%ADD17R,1.500000X1.250000*%
%ADD18R,1.500000X1.300000*%
%ADD19R,1.300000X1.500000*%
%ADD20R,1.727200X1.727200*%
%ADD21O,1.727200X1.727200*%
%ADD22R,2.235200X2.235200*%
%ADD23R,1.397000X1.397000*%
%ADD24C,1.397000*%
%ADD25R,1.778000X1.270000*%
%ADD26R,2.032000X2.032000*%
%ADD27O,2.032000X2.032000*%
%ADD28C,0.762000*%
%ADD29C,0.304800*%
%ADD30C,0.406400*%
%ADD31C,0.254000*%
G04 APERTURE END LIST*
D10*
D11*
X166943000Y-77682000D03*
X166943000Y-75182000D03*
D12*
X162371000Y-71459000D03*
D13*
X162371000Y-78063000D03*
X160085000Y-78063000D03*
X164657000Y-78063000D03*
D14*
X152487860Y-84855000D03*
X152487860Y-82955000D03*
X155490140Y-83905000D03*
X152487860Y-81045000D03*
X152487860Y-79145000D03*
X155490140Y-80095000D03*
D15*
X170753000Y-73618000D03*
D16*
X170753000Y-76158000D03*
X170753000Y-78698000D03*
D15*
X149163000Y-78698000D03*
D16*
X149163000Y-76158000D03*
X149163000Y-73618000D03*
D17*
X158053000Y-77555000D03*
X155553000Y-77555000D03*
D18*
X162578000Y-84159000D03*
X159878000Y-84159000D03*
X162578000Y-82000000D03*
X159878000Y-82000000D03*
D19*
X149671000Y-84239000D03*
X149671000Y-81539000D03*
D20*
X162371000Y-67903000D03*
D21*
X162371000Y-65363000D03*
X164911000Y-67903000D03*
X164911000Y-65363000D03*
X167451000Y-67903000D03*
X167451000Y-65363000D03*
D22*
X149163000Y-86953000D03*
X170753000Y-86953000D03*
X149163000Y-65363000D03*
X170753000Y-65363000D03*
D23*
X161863000Y-86953000D03*
D24*
X164403000Y-86953000D03*
X166943000Y-86953000D03*
D25*
X170803800Y-84159000D03*
X166663600Y-84159000D03*
D22*
X149163000Y-70443000D03*
X149163000Y-67903000D03*
D26*
X156529000Y-86953000D03*
D27*
X159069000Y-86953000D03*
D28*
X164403000Y-75396000D03*
X162752000Y-73364000D03*
X155513000Y-75777000D03*
X166943000Y-71332000D03*
X158052996Y-69427000D03*
X151830000Y-70062000D03*
X151830000Y-68458000D03*
X158053000Y-74507000D03*
X157799000Y-84158994D03*
D29*
X166943000Y-73257000D02*
X166328000Y-73257000D01*
X166328000Y-73257000D02*
X164530000Y-71459000D01*
X164530000Y-71459000D02*
X162371000Y-71459000D01*
X164403000Y-75396000D02*
X162752000Y-75396000D01*
X162752000Y-75396000D02*
X162752000Y-73364000D01*
X164403000Y-75396000D02*
X162625000Y-75396000D01*
X162625000Y-75396000D02*
X162371000Y-75650000D01*
X162371000Y-75650000D02*
X162371000Y-78063000D01*
X162371000Y-78571000D02*
X162371000Y-78063000D01*
X166943000Y-75182000D02*
X166943000Y-73257000D01*
X156529000Y-86953000D02*
X149163000Y-86953000D01*
X166943000Y-73257000D02*
X170392000Y-73257000D01*
X170392000Y-73257000D02*
X170753000Y-73618000D01*
X162752000Y-73364000D02*
X162752000Y-71840000D01*
X162752000Y-71840000D02*
X162371000Y-71459000D01*
X170753000Y-65363000D02*
X167451000Y-65363000D01*
X170753000Y-73618000D02*
X170753000Y-72449600D01*
X170753000Y-72449600D02*
X170753000Y-65363000D01*
X155553000Y-77555000D02*
X155553000Y-77115802D01*
X155513000Y-75777000D02*
X155513000Y-77515000D01*
X155513000Y-77515000D02*
X155553000Y-77555000D01*
X149163000Y-86953000D02*
X148401000Y-86191000D01*
X148401000Y-86191000D02*
X148401000Y-82909000D01*
X148401000Y-82909000D02*
X149671000Y-81639000D01*
X149671000Y-81639000D02*
X149671000Y-81539000D01*
X149671000Y-81539000D02*
X149671000Y-79206000D01*
X149671000Y-79206000D02*
X149163000Y-78698000D01*
X149671000Y-81539000D02*
X150734000Y-81539000D01*
X150734000Y-81539000D02*
X151068000Y-81873000D01*
X151068000Y-81873000D02*
X151068000Y-82035520D01*
X151068000Y-82035520D02*
X151987480Y-82955000D01*
X151987480Y-82955000D02*
X152487860Y-82955000D01*
X166562001Y-70951001D02*
X166943000Y-71332000D01*
X164911000Y-69300000D02*
X166562001Y-70951001D01*
X164911000Y-67903000D02*
X164911000Y-69300000D01*
X170600600Y-76158000D02*
X170753000Y-76158000D01*
X157514181Y-69427000D02*
X158052996Y-69427000D01*
X152465000Y-69427000D02*
X157514181Y-69427000D01*
X151830000Y-70062000D02*
X152465000Y-69427000D01*
D30*
X152487860Y-79145000D02*
X158627000Y-79145000D01*
X159196000Y-79714000D02*
X163514000Y-79714000D01*
X158627000Y-79145000D02*
X159196000Y-79714000D01*
X163514000Y-79714000D02*
X164657000Y-78571000D01*
X164657000Y-78571000D02*
X164657000Y-78063000D01*
X152487860Y-79145000D02*
X152487860Y-78212860D01*
X152487860Y-78212860D02*
X150433000Y-76158000D01*
X150433000Y-76158000D02*
X149163000Y-76158000D01*
X166943000Y-77682000D02*
X165038000Y-77682000D01*
X165038000Y-77682000D02*
X164657000Y-78063000D01*
X162371000Y-65363000D02*
X152846000Y-65363000D01*
X152846000Y-65363000D02*
X150814000Y-67395000D01*
X150814000Y-67395000D02*
X150814000Y-74507000D01*
X150814000Y-74507000D02*
X149163000Y-76158000D01*
D29*
X158053000Y-74507000D02*
X159196000Y-73364000D01*
X159196000Y-73364000D02*
X159196000Y-69046000D01*
X159196000Y-69046000D02*
X158608000Y-68458000D01*
X158608000Y-68458000D02*
X151830000Y-68458000D01*
X158053000Y-77555000D02*
X159577000Y-77555000D01*
X159577000Y-77555000D02*
X160085000Y-78063000D01*
X158053000Y-77555000D02*
X158053000Y-74507000D01*
X162578000Y-84159000D02*
X162478000Y-84159000D01*
X162478000Y-84159000D02*
X161335000Y-85302000D01*
X161335000Y-85302000D02*
X154140090Y-85302000D01*
X154140090Y-85302000D02*
X153693090Y-84855000D01*
X153693090Y-84855000D02*
X152487860Y-84855000D01*
X149671000Y-84239000D02*
X150099000Y-84667000D01*
X152299860Y-84667000D02*
X152487860Y-84855000D01*
X150099000Y-84667000D02*
X152299860Y-84667000D01*
X152385000Y-84957860D02*
X152487860Y-84855000D01*
X159878000Y-82000000D02*
X158823200Y-82000000D01*
X158823200Y-82000000D02*
X158211060Y-82612140D01*
X158211060Y-82612140D02*
X155490140Y-82612140D01*
X152487860Y-81045000D02*
X153923000Y-81045000D01*
X153923000Y-81045000D02*
X155490140Y-82612140D01*
X155490140Y-82612140D02*
X155490140Y-83200150D01*
X155490140Y-83200150D02*
X155490140Y-83905000D01*
D30*
X160399000Y-82127000D02*
X160499000Y-82127000D01*
D29*
X157799006Y-84159000D02*
X157799000Y-84158994D01*
X159878000Y-84159000D02*
X157799006Y-84159000D01*
D30*
X170753000Y-78698000D02*
X170753000Y-82000000D01*
X170753000Y-82000000D02*
X170753000Y-84108200D01*
X162578000Y-82000000D02*
X170753000Y-82000000D01*
X155490140Y-80095000D02*
X156796970Y-80095000D01*
X156796970Y-80095000D02*
X157304970Y-80603000D01*
X157304970Y-80603000D02*
X161081000Y-80603000D01*
X161081000Y-80603000D02*
X162478000Y-82000000D01*
X162478000Y-82000000D02*
X162578000Y-82000000D01*
X170753000Y-84108200D02*
X170803800Y-84159000D01*
X155490140Y-80095000D02*
X155990520Y-80095000D01*
X166663600Y-84159000D02*
X165368200Y-84159000D01*
X165368200Y-84159000D02*
X164403000Y-85124200D01*
X164403000Y-85124200D02*
X164403000Y-85965172D01*
X164403000Y-85965172D02*
X164403000Y-86953000D01*
D29*
X166663600Y-84159000D02*
X166409600Y-84159000D01*
D31*
G36*
X169914800Y-82876560D02*
X169679483Y-82920838D01*
X169463359Y-83059910D01*
X169318369Y-83272110D01*
X169267360Y-83524000D01*
X169267360Y-84794000D01*
X169311638Y-85029317D01*
X169440112Y-85228972D01*
X169275702Y-85297073D01*
X169097073Y-85475701D01*
X169000400Y-85709090D01*
X169000400Y-86667250D01*
X169159150Y-86826000D01*
X170626000Y-86826000D01*
X170626000Y-86806000D01*
X170880000Y-86806000D01*
X170880000Y-86826000D01*
X170900000Y-86826000D01*
X170900000Y-87080000D01*
X170880000Y-87080000D01*
X170880000Y-87100000D01*
X170626000Y-87100000D01*
X170626000Y-87080000D01*
X169159150Y-87080000D01*
X169000400Y-87238750D01*
X169000400Y-87948000D01*
X167681670Y-87948000D01*
X167697583Y-87887188D01*
X166943000Y-87132605D01*
X166188417Y-87887188D01*
X166204330Y-87948000D01*
X165293764Y-87948000D01*
X165532827Y-87709353D01*
X165666314Y-87387882D01*
X165773200Y-87645929D01*
X166008812Y-87707583D01*
X166763395Y-86953000D01*
X167122605Y-86953000D01*
X167877188Y-87707583D01*
X168112800Y-87645929D01*
X168288927Y-87145520D01*
X168260148Y-86615801D01*
X168112800Y-86260071D01*
X167877188Y-86198417D01*
X167122605Y-86953000D01*
X166763395Y-86953000D01*
X166008812Y-86198417D01*
X165773200Y-86260071D01*
X165674917Y-86539312D01*
X165534146Y-86198620D01*
X165354652Y-86018812D01*
X166188417Y-86018812D01*
X166943000Y-86773395D01*
X167697583Y-86018812D01*
X167635929Y-85783200D01*
X167135520Y-85607073D01*
X166605801Y-85635852D01*
X166250071Y-85783200D01*
X166188417Y-86018812D01*
X165354652Y-86018812D01*
X165241200Y-85905163D01*
X165241200Y-85471394D01*
X165403569Y-85309025D01*
X165522710Y-85390431D01*
X165774600Y-85441440D01*
X167552600Y-85441440D01*
X167787917Y-85397162D01*
X168004041Y-85258090D01*
X168149031Y-85045890D01*
X168200040Y-84794000D01*
X168200040Y-83524000D01*
X168155762Y-83288683D01*
X168016690Y-83072559D01*
X167804490Y-82927569D01*
X167552600Y-82876560D01*
X165774600Y-82876560D01*
X165539283Y-82920838D01*
X165323159Y-83059910D01*
X165178169Y-83272110D01*
X165159919Y-83362229D01*
X165047434Y-83384604D01*
X164775503Y-83566303D01*
X163975440Y-84366366D01*
X163975440Y-83509000D01*
X163931162Y-83273683D01*
X163804689Y-83077138D01*
X163924431Y-82901890D01*
X163937329Y-82838200D01*
X169914800Y-82838200D01*
X169914800Y-82876560D01*
X169914800Y-82876560D01*
G37*
X169914800Y-82876560D02*
X169679483Y-82920838D01*
X169463359Y-83059910D01*
X169318369Y-83272110D01*
X169267360Y-83524000D01*
X169267360Y-84794000D01*
X169311638Y-85029317D01*
X169440112Y-85228972D01*
X169275702Y-85297073D01*
X169097073Y-85475701D01*
X169000400Y-85709090D01*
X169000400Y-86667250D01*
X169159150Y-86826000D01*
X170626000Y-86826000D01*
X170626000Y-86806000D01*
X170880000Y-86806000D01*
X170880000Y-86826000D01*
X170900000Y-86826000D01*
X170900000Y-87080000D01*
X170880000Y-87080000D01*
X170880000Y-87100000D01*
X170626000Y-87100000D01*
X170626000Y-87080000D01*
X169159150Y-87080000D01*
X169000400Y-87238750D01*
X169000400Y-87948000D01*
X167681670Y-87948000D01*
X167697583Y-87887188D01*
X166943000Y-87132605D01*
X166188417Y-87887188D01*
X166204330Y-87948000D01*
X165293764Y-87948000D01*
X165532827Y-87709353D01*
X165666314Y-87387882D01*
X165773200Y-87645929D01*
X166008812Y-87707583D01*
X166763395Y-86953000D01*
X167122605Y-86953000D01*
X167877188Y-87707583D01*
X168112800Y-87645929D01*
X168288927Y-87145520D01*
X168260148Y-86615801D01*
X168112800Y-86260071D01*
X167877188Y-86198417D01*
X167122605Y-86953000D01*
X166763395Y-86953000D01*
X166008812Y-86198417D01*
X165773200Y-86260071D01*
X165674917Y-86539312D01*
X165534146Y-86198620D01*
X165354652Y-86018812D01*
X166188417Y-86018812D01*
X166943000Y-86773395D01*
X167697583Y-86018812D01*
X167635929Y-85783200D01*
X167135520Y-85607073D01*
X166605801Y-85635852D01*
X166250071Y-85783200D01*
X166188417Y-86018812D01*
X165354652Y-86018812D01*
X165241200Y-85905163D01*
X165241200Y-85471394D01*
X165403569Y-85309025D01*
X165522710Y-85390431D01*
X165774600Y-85441440D01*
X167552600Y-85441440D01*
X167787917Y-85397162D01*
X168004041Y-85258090D01*
X168149031Y-85045890D01*
X168200040Y-84794000D01*
X168200040Y-83524000D01*
X168155762Y-83288683D01*
X168016690Y-83072559D01*
X167804490Y-82927569D01*
X167552600Y-82876560D01*
X165774600Y-82876560D01*
X165539283Y-82920838D01*
X165323159Y-83059910D01*
X165178169Y-83272110D01*
X165159919Y-83362229D01*
X165047434Y-83384604D01*
X164775503Y-83566303D01*
X163975440Y-84366366D01*
X163975440Y-83509000D01*
X163931162Y-83273683D01*
X163804689Y-83077138D01*
X163924431Y-82901890D01*
X163937329Y-82838200D01*
X169914800Y-82838200D01*
X169914800Y-82876560D01*
G36*
X150984268Y-85490367D02*
X151123340Y-85706491D01*
X151335540Y-85851481D01*
X151587430Y-85902490D01*
X153388290Y-85902490D01*
X153591509Y-85864252D01*
X153838765Y-86029463D01*
X154140090Y-86089400D01*
X154878000Y-86089400D01*
X154878000Y-86667250D01*
X155036750Y-86826000D01*
X156402000Y-86826000D01*
X156402000Y-86806000D01*
X156656000Y-86806000D01*
X156656000Y-86826000D01*
X156676000Y-86826000D01*
X156676000Y-87080000D01*
X156656000Y-87080000D01*
X156656000Y-87100000D01*
X156402000Y-87100000D01*
X156402000Y-87080000D01*
X155036750Y-87080000D01*
X154878000Y-87238750D01*
X154878000Y-87948000D01*
X150915600Y-87948000D01*
X150915600Y-87238750D01*
X150756850Y-87080000D01*
X149290000Y-87080000D01*
X149290000Y-87100000D01*
X149036000Y-87100000D01*
X149036000Y-87080000D01*
X149016000Y-87080000D01*
X149016000Y-86826000D01*
X149036000Y-86826000D01*
X149036000Y-86806000D01*
X149290000Y-86806000D01*
X149290000Y-86826000D01*
X150756850Y-86826000D01*
X150915600Y-86667250D01*
X150915600Y-85709090D01*
X150818927Y-85475701D01*
X150797626Y-85454400D01*
X150977500Y-85454400D01*
X150984268Y-85490367D01*
X150984268Y-85490367D01*
G37*
X150984268Y-85490367D02*
X151123340Y-85706491D01*
X151335540Y-85851481D01*
X151587430Y-85902490D01*
X153388290Y-85902490D01*
X153591509Y-85864252D01*
X153838765Y-86029463D01*
X154140090Y-86089400D01*
X154878000Y-86089400D01*
X154878000Y-86667250D01*
X155036750Y-86826000D01*
X156402000Y-86826000D01*
X156402000Y-86806000D01*
X156656000Y-86806000D01*
X156656000Y-86826000D01*
X156676000Y-86826000D01*
X156676000Y-87080000D01*
X156656000Y-87080000D01*
X156656000Y-87100000D01*
X156402000Y-87100000D01*
X156402000Y-87080000D01*
X155036750Y-87080000D01*
X154878000Y-87238750D01*
X154878000Y-87948000D01*
X150915600Y-87948000D01*
X150915600Y-87238750D01*
X150756850Y-87080000D01*
X149290000Y-87080000D01*
X149290000Y-87100000D01*
X149036000Y-87100000D01*
X149036000Y-87080000D01*
X149016000Y-87080000D01*
X149016000Y-86826000D01*
X149036000Y-86826000D01*
X149036000Y-86806000D01*
X149290000Y-86806000D01*
X149290000Y-86826000D01*
X150756850Y-86826000D01*
X150915600Y-86667250D01*
X150915600Y-85709090D01*
X150818927Y-85475701D01*
X150797626Y-85454400D01*
X150977500Y-85454400D01*
X150984268Y-85490367D01*
G36*
X148661301Y-80250673D02*
X148482673Y-80429302D01*
X148386000Y-80662691D01*
X148386000Y-81253250D01*
X148544750Y-81412000D01*
X149544000Y-81412000D01*
X149544000Y-81392000D01*
X149798000Y-81392000D01*
X149798000Y-81412000D01*
X150797250Y-81412000D01*
X150939990Y-81269260D01*
X150939990Y-81445050D01*
X150984268Y-81680367D01*
X151123340Y-81896491D01*
X151272201Y-81998203D01*
X151227731Y-82016623D01*
X151049103Y-82195252D01*
X150952430Y-82428641D01*
X150952430Y-82669250D01*
X151111180Y-82828000D01*
X152360860Y-82828000D01*
X152360860Y-82808000D01*
X152614860Y-82808000D01*
X152614860Y-82828000D01*
X153864540Y-82828000D01*
X154023290Y-82669250D01*
X154023290Y-82428641D01*
X153926617Y-82195252D01*
X153747989Y-82016623D01*
X153702183Y-81997650D01*
X153738639Y-81974191D01*
X154621958Y-82857510D01*
X154589710Y-82857510D01*
X154354393Y-82901788D01*
X154138269Y-83040860D01*
X154010458Y-83227918D01*
X153864540Y-83082000D01*
X152614860Y-83082000D01*
X152614860Y-83102000D01*
X152360860Y-83102000D01*
X152360860Y-83082000D01*
X151111180Y-83082000D01*
X150952430Y-83240750D01*
X150952430Y-83403914D01*
X150924162Y-83253683D01*
X150785090Y-83037559D01*
X150572890Y-82892569D01*
X150539510Y-82885809D01*
X150680699Y-82827327D01*
X150859327Y-82648698D01*
X150956000Y-82415309D01*
X150956000Y-81824750D01*
X150797250Y-81666000D01*
X149798000Y-81666000D01*
X149798000Y-81686000D01*
X149544000Y-81686000D01*
X149544000Y-81666000D01*
X148544750Y-81666000D01*
X148386000Y-81824750D01*
X148386000Y-82415309D01*
X148482673Y-82648698D01*
X148661301Y-82827327D01*
X148797287Y-82883654D01*
X148785683Y-82885838D01*
X148569559Y-83024910D01*
X148424569Y-83237110D01*
X148373560Y-83489000D01*
X148373560Y-84989000D01*
X148413338Y-85200400D01*
X148168000Y-85200400D01*
X148168000Y-80196600D01*
X148791845Y-80196600D01*
X148661301Y-80250673D01*
X148661301Y-80250673D01*
G37*
X148661301Y-80250673D02*
X148482673Y-80429302D01*
X148386000Y-80662691D01*
X148386000Y-81253250D01*
X148544750Y-81412000D01*
X149544000Y-81412000D01*
X149544000Y-81392000D01*
X149798000Y-81392000D01*
X149798000Y-81412000D01*
X150797250Y-81412000D01*
X150939990Y-81269260D01*
X150939990Y-81445050D01*
X150984268Y-81680367D01*
X151123340Y-81896491D01*
X151272201Y-81998203D01*
X151227731Y-82016623D01*
X151049103Y-82195252D01*
X150952430Y-82428641D01*
X150952430Y-82669250D01*
X151111180Y-82828000D01*
X152360860Y-82828000D01*
X152360860Y-82808000D01*
X152614860Y-82808000D01*
X152614860Y-82828000D01*
X153864540Y-82828000D01*
X154023290Y-82669250D01*
X154023290Y-82428641D01*
X153926617Y-82195252D01*
X153747989Y-82016623D01*
X153702183Y-81997650D01*
X153738639Y-81974191D01*
X154621958Y-82857510D01*
X154589710Y-82857510D01*
X154354393Y-82901788D01*
X154138269Y-83040860D01*
X154010458Y-83227918D01*
X153864540Y-83082000D01*
X152614860Y-83082000D01*
X152614860Y-83102000D01*
X152360860Y-83102000D01*
X152360860Y-83082000D01*
X151111180Y-83082000D01*
X150952430Y-83240750D01*
X150952430Y-83403914D01*
X150924162Y-83253683D01*
X150785090Y-83037559D01*
X150572890Y-82892569D01*
X150539510Y-82885809D01*
X150680699Y-82827327D01*
X150859327Y-82648698D01*
X150956000Y-82415309D01*
X150956000Y-81824750D01*
X150797250Y-81666000D01*
X149798000Y-81666000D01*
X149798000Y-81686000D01*
X149544000Y-81686000D01*
X149544000Y-81666000D01*
X148544750Y-81666000D01*
X148386000Y-81824750D01*
X148386000Y-82415309D01*
X148482673Y-82648698D01*
X148661301Y-82827327D01*
X148797287Y-82883654D01*
X148785683Y-82885838D01*
X148569559Y-83024910D01*
X148424569Y-83237110D01*
X148373560Y-83489000D01*
X148373560Y-84989000D01*
X148413338Y-85200400D01*
X148168000Y-85200400D01*
X148168000Y-80196600D01*
X148791845Y-80196600D01*
X148661301Y-80250673D01*
G36*
X169000400Y-65077250D02*
X169159150Y-65236000D01*
X170626000Y-65236000D01*
X170626000Y-65216000D01*
X170880000Y-65216000D01*
X170880000Y-65236000D01*
X170900000Y-65236000D01*
X170900000Y-65490000D01*
X170880000Y-65490000D01*
X170880000Y-66956850D01*
X171038750Y-67115600D01*
X171748000Y-67115600D01*
X171748000Y-72119400D01*
X171038750Y-72119400D01*
X170880000Y-72278150D01*
X170880000Y-73491000D01*
X170900000Y-73491000D01*
X170900000Y-73745000D01*
X170880000Y-73745000D01*
X170880000Y-73765000D01*
X170626000Y-73765000D01*
X170626000Y-73745000D01*
X169260750Y-73745000D01*
X169102000Y-73903750D01*
X169102000Y-74607909D01*
X169198673Y-74841298D01*
X169377301Y-75019927D01*
X169530780Y-75083500D01*
X169508585Y-75098330D01*
X169183729Y-75584511D01*
X169069655Y-76158000D01*
X169183729Y-76731489D01*
X169508585Y-77217670D01*
X169823366Y-77428000D01*
X169508585Y-77638330D01*
X169183729Y-78124511D01*
X169069655Y-78698000D01*
X169183729Y-79271489D01*
X169508585Y-79757670D01*
X169914800Y-80029094D01*
X169914800Y-81161800D01*
X163940028Y-81161800D01*
X163931162Y-81114683D01*
X163792090Y-80898559D01*
X163579890Y-80753569D01*
X163328000Y-80702560D01*
X162365954Y-80702560D01*
X162215594Y-80552200D01*
X163514000Y-80552200D01*
X163834766Y-80488396D01*
X164106697Y-80306697D01*
X164686954Y-79726440D01*
X165165000Y-79726440D01*
X165400317Y-79682162D01*
X165616441Y-79543090D01*
X165761431Y-79330890D01*
X165812440Y-79079000D01*
X165812440Y-78818995D01*
X165853910Y-78883441D01*
X166066110Y-79028431D01*
X166318000Y-79079440D01*
X167568000Y-79079440D01*
X167803317Y-79035162D01*
X168019441Y-78896090D01*
X168164431Y-78683890D01*
X168215440Y-78432000D01*
X168215440Y-76932000D01*
X168171162Y-76696683D01*
X168032090Y-76480559D01*
X167963994Y-76434031D01*
X168106327Y-76291698D01*
X168203000Y-76058309D01*
X168203000Y-75467750D01*
X168044250Y-75309000D01*
X167070000Y-75309000D01*
X167070000Y-75329000D01*
X166816000Y-75329000D01*
X166816000Y-75309000D01*
X165841750Y-75309000D01*
X165683000Y-75467750D01*
X165683000Y-76058309D01*
X165779673Y-76291698D01*
X165920910Y-76432936D01*
X165866559Y-76467910D01*
X165721569Y-76680110D01*
X165712456Y-76725113D01*
X165629090Y-76595559D01*
X165416890Y-76450569D01*
X165165000Y-76399560D01*
X164149000Y-76399560D01*
X163913683Y-76443838D01*
X163697559Y-76582910D01*
X163552569Y-76795110D01*
X163514000Y-76985569D01*
X163514000Y-76920690D01*
X163417327Y-76687301D01*
X163238698Y-76508673D01*
X163005309Y-76412000D01*
X162656750Y-76412000D01*
X162498000Y-76570750D01*
X162498000Y-77936000D01*
X162518000Y-77936000D01*
X162518000Y-78190000D01*
X162498000Y-78190000D01*
X162498000Y-78210000D01*
X162244000Y-78210000D01*
X162244000Y-78190000D01*
X162224000Y-78190000D01*
X162224000Y-77936000D01*
X162244000Y-77936000D01*
X162244000Y-76570750D01*
X162085250Y-76412000D01*
X161736691Y-76412000D01*
X161503302Y-76508673D01*
X161324673Y-76687301D01*
X161228000Y-76920690D01*
X161228000Y-76980887D01*
X161196162Y-76811683D01*
X161057090Y-76595559D01*
X160844890Y-76450569D01*
X160593000Y-76399560D01*
X159577000Y-76399560D01*
X159341683Y-76443838D01*
X159273132Y-76487949D01*
X159267090Y-76478559D01*
X159054890Y-76333569D01*
X158840400Y-76290134D01*
X158840400Y-75156562D01*
X158913821Y-75083269D01*
X159068824Y-74709982D01*
X159068916Y-74604636D01*
X159367861Y-74305691D01*
X165683000Y-74305691D01*
X165683000Y-74896250D01*
X165841750Y-75055000D01*
X166816000Y-75055000D01*
X166816000Y-73955750D01*
X167070000Y-73955750D01*
X167070000Y-75055000D01*
X168044250Y-75055000D01*
X168203000Y-74896250D01*
X168203000Y-74305691D01*
X168106327Y-74072302D01*
X167927699Y-73893673D01*
X167694310Y-73797000D01*
X167228750Y-73797000D01*
X167070000Y-73955750D01*
X166816000Y-73955750D01*
X166657250Y-73797000D01*
X166191690Y-73797000D01*
X165958301Y-73893673D01*
X165779673Y-74072302D01*
X165683000Y-74305691D01*
X159367861Y-74305691D01*
X159752776Y-73920776D01*
X159923463Y-73665325D01*
X159983400Y-73364000D01*
X159983400Y-72785273D01*
X160003873Y-72834699D01*
X160182502Y-73013327D01*
X160415891Y-73110000D01*
X162085250Y-73110000D01*
X162244000Y-72951250D01*
X162244000Y-71586000D01*
X162498000Y-71586000D01*
X162498000Y-72951250D01*
X162656750Y-73110000D01*
X164326109Y-73110000D01*
X164559498Y-73013327D01*
X164738127Y-72834699D01*
X164823706Y-72628091D01*
X169102000Y-72628091D01*
X169102000Y-73332250D01*
X169260750Y-73491000D01*
X170626000Y-73491000D01*
X170626000Y-72278150D01*
X170467250Y-72119400D01*
X169610690Y-72119400D01*
X169377301Y-72216073D01*
X169198673Y-72394702D01*
X169102000Y-72628091D01*
X164823706Y-72628091D01*
X164834800Y-72601310D01*
X164834800Y-71744750D01*
X164676050Y-71586000D01*
X162498000Y-71586000D01*
X162244000Y-71586000D01*
X162224000Y-71586000D01*
X162224000Y-71332000D01*
X162244000Y-71332000D01*
X162244000Y-69966750D01*
X162085250Y-69808000D01*
X160415891Y-69808000D01*
X160182502Y-69904673D01*
X160003873Y-70083301D01*
X159983400Y-70132727D01*
X159983400Y-69046000D01*
X159923463Y-68744675D01*
X159752776Y-68489224D01*
X159164776Y-67901224D01*
X158909325Y-67730537D01*
X158608000Y-67670600D01*
X152479562Y-67670600D01*
X152406269Y-67597179D01*
X152032982Y-67442176D01*
X151952288Y-67442106D01*
X153193194Y-66201200D01*
X161143731Y-66201200D01*
X161297574Y-66431442D01*
X161272083Y-66436238D01*
X161055959Y-66575310D01*
X160910969Y-66787510D01*
X160859960Y-67039400D01*
X160859960Y-68766600D01*
X160904238Y-69001917D01*
X161043310Y-69218041D01*
X161255510Y-69363031D01*
X161507400Y-69414040D01*
X163234600Y-69414040D01*
X163469917Y-69369762D01*
X163686041Y-69230690D01*
X163831031Y-69018490D01*
X163839864Y-68974869D01*
X163851330Y-68992029D01*
X164123600Y-69173954D01*
X164123600Y-69300000D01*
X164183537Y-69601325D01*
X164321633Y-69808000D01*
X162656750Y-69808000D01*
X162498000Y-69966750D01*
X162498000Y-71332000D01*
X164676050Y-71332000D01*
X164834800Y-71173250D01*
X164834800Y-70337352D01*
X165926914Y-71429466D01*
X165926824Y-71533208D01*
X166081175Y-71906766D01*
X166366731Y-72192821D01*
X166740018Y-72347824D01*
X167144208Y-72348176D01*
X167517766Y-72193825D01*
X167803821Y-71908269D01*
X167958824Y-71534982D01*
X167959176Y-71130792D01*
X167804825Y-70757234D01*
X167519269Y-70471179D01*
X167145982Y-70316176D01*
X167040636Y-70316084D01*
X165818355Y-69093803D01*
X165970670Y-68992029D01*
X166181000Y-68677248D01*
X166391330Y-68992029D01*
X166877511Y-69316885D01*
X167451000Y-69430959D01*
X168024489Y-69316885D01*
X168510670Y-68992029D01*
X168835526Y-68505848D01*
X168949600Y-67932359D01*
X168949600Y-67873641D01*
X168835526Y-67300152D01*
X168510670Y-66813971D01*
X168239839Y-66633008D01*
X168657821Y-66251490D01*
X168905968Y-65722027D01*
X168867913Y-65648750D01*
X169000400Y-65648750D01*
X169000400Y-66606910D01*
X169097073Y-66840299D01*
X169275702Y-67018927D01*
X169509091Y-67115600D01*
X170467250Y-67115600D01*
X170626000Y-66956850D01*
X170626000Y-65490000D01*
X169159150Y-65490000D01*
X169000400Y-65648750D01*
X168867913Y-65648750D01*
X168785469Y-65490000D01*
X167578000Y-65490000D01*
X167578000Y-65510000D01*
X167324000Y-65510000D01*
X167324000Y-65490000D01*
X167304000Y-65490000D01*
X167304000Y-65236000D01*
X167324000Y-65236000D01*
X167324000Y-65216000D01*
X167578000Y-65216000D01*
X167578000Y-65236000D01*
X168785469Y-65236000D01*
X168905968Y-65003973D01*
X168657821Y-64474510D01*
X168541131Y-64368000D01*
X169000400Y-64368000D01*
X169000400Y-65077250D01*
X169000400Y-65077250D01*
G37*
X169000400Y-65077250D02*
X169159150Y-65236000D01*
X170626000Y-65236000D01*
X170626000Y-65216000D01*
X170880000Y-65216000D01*
X170880000Y-65236000D01*
X170900000Y-65236000D01*
X170900000Y-65490000D01*
X170880000Y-65490000D01*
X170880000Y-66956850D01*
X171038750Y-67115600D01*
X171748000Y-67115600D01*
X171748000Y-72119400D01*
X171038750Y-72119400D01*
X170880000Y-72278150D01*
X170880000Y-73491000D01*
X170900000Y-73491000D01*
X170900000Y-73745000D01*
X170880000Y-73745000D01*
X170880000Y-73765000D01*
X170626000Y-73765000D01*
X170626000Y-73745000D01*
X169260750Y-73745000D01*
X169102000Y-73903750D01*
X169102000Y-74607909D01*
X169198673Y-74841298D01*
X169377301Y-75019927D01*
X169530780Y-75083500D01*
X169508585Y-75098330D01*
X169183729Y-75584511D01*
X169069655Y-76158000D01*
X169183729Y-76731489D01*
X169508585Y-77217670D01*
X169823366Y-77428000D01*
X169508585Y-77638330D01*
X169183729Y-78124511D01*
X169069655Y-78698000D01*
X169183729Y-79271489D01*
X169508585Y-79757670D01*
X169914800Y-80029094D01*
X169914800Y-81161800D01*
X163940028Y-81161800D01*
X163931162Y-81114683D01*
X163792090Y-80898559D01*
X163579890Y-80753569D01*
X163328000Y-80702560D01*
X162365954Y-80702560D01*
X162215594Y-80552200D01*
X163514000Y-80552200D01*
X163834766Y-80488396D01*
X164106697Y-80306697D01*
X164686954Y-79726440D01*
X165165000Y-79726440D01*
X165400317Y-79682162D01*
X165616441Y-79543090D01*
X165761431Y-79330890D01*
X165812440Y-79079000D01*
X165812440Y-78818995D01*
X165853910Y-78883441D01*
X166066110Y-79028431D01*
X166318000Y-79079440D01*
X167568000Y-79079440D01*
X167803317Y-79035162D01*
X168019441Y-78896090D01*
X168164431Y-78683890D01*
X168215440Y-78432000D01*
X168215440Y-76932000D01*
X168171162Y-76696683D01*
X168032090Y-76480559D01*
X167963994Y-76434031D01*
X168106327Y-76291698D01*
X168203000Y-76058309D01*
X168203000Y-75467750D01*
X168044250Y-75309000D01*
X167070000Y-75309000D01*
X167070000Y-75329000D01*
X166816000Y-75329000D01*
X166816000Y-75309000D01*
X165841750Y-75309000D01*
X165683000Y-75467750D01*
X165683000Y-76058309D01*
X165779673Y-76291698D01*
X165920910Y-76432936D01*
X165866559Y-76467910D01*
X165721569Y-76680110D01*
X165712456Y-76725113D01*
X165629090Y-76595559D01*
X165416890Y-76450569D01*
X165165000Y-76399560D01*
X164149000Y-76399560D01*
X163913683Y-76443838D01*
X163697559Y-76582910D01*
X163552569Y-76795110D01*
X163514000Y-76985569D01*
X163514000Y-76920690D01*
X163417327Y-76687301D01*
X163238698Y-76508673D01*
X163005309Y-76412000D01*
X162656750Y-76412000D01*
X162498000Y-76570750D01*
X162498000Y-77936000D01*
X162518000Y-77936000D01*
X162518000Y-78190000D01*
X162498000Y-78190000D01*
X162498000Y-78210000D01*
X162244000Y-78210000D01*
X162244000Y-78190000D01*
X162224000Y-78190000D01*
X162224000Y-77936000D01*
X162244000Y-77936000D01*
X162244000Y-76570750D01*
X162085250Y-76412000D01*
X161736691Y-76412000D01*
X161503302Y-76508673D01*
X161324673Y-76687301D01*
X161228000Y-76920690D01*
X161228000Y-76980887D01*
X161196162Y-76811683D01*
X161057090Y-76595559D01*
X160844890Y-76450569D01*
X160593000Y-76399560D01*
X159577000Y-76399560D01*
X159341683Y-76443838D01*
X159273132Y-76487949D01*
X159267090Y-76478559D01*
X159054890Y-76333569D01*
X158840400Y-76290134D01*
X158840400Y-75156562D01*
X158913821Y-75083269D01*
X159068824Y-74709982D01*
X159068916Y-74604636D01*
X159367861Y-74305691D01*
X165683000Y-74305691D01*
X165683000Y-74896250D01*
X165841750Y-75055000D01*
X166816000Y-75055000D01*
X166816000Y-73955750D01*
X167070000Y-73955750D01*
X167070000Y-75055000D01*
X168044250Y-75055000D01*
X168203000Y-74896250D01*
X168203000Y-74305691D01*
X168106327Y-74072302D01*
X167927699Y-73893673D01*
X167694310Y-73797000D01*
X167228750Y-73797000D01*
X167070000Y-73955750D01*
X166816000Y-73955750D01*
X166657250Y-73797000D01*
X166191690Y-73797000D01*
X165958301Y-73893673D01*
X165779673Y-74072302D01*
X165683000Y-74305691D01*
X159367861Y-74305691D01*
X159752776Y-73920776D01*
X159923463Y-73665325D01*
X159983400Y-73364000D01*
X159983400Y-72785273D01*
X160003873Y-72834699D01*
X160182502Y-73013327D01*
X160415891Y-73110000D01*
X162085250Y-73110000D01*
X162244000Y-72951250D01*
X162244000Y-71586000D01*
X162498000Y-71586000D01*
X162498000Y-72951250D01*
X162656750Y-73110000D01*
X164326109Y-73110000D01*
X164559498Y-73013327D01*
X164738127Y-72834699D01*
X164823706Y-72628091D01*
X169102000Y-72628091D01*
X169102000Y-73332250D01*
X169260750Y-73491000D01*
X170626000Y-73491000D01*
X170626000Y-72278150D01*
X170467250Y-72119400D01*
X169610690Y-72119400D01*
X169377301Y-72216073D01*
X169198673Y-72394702D01*
X169102000Y-72628091D01*
X164823706Y-72628091D01*
X164834800Y-72601310D01*
X164834800Y-71744750D01*
X164676050Y-71586000D01*
X162498000Y-71586000D01*
X162244000Y-71586000D01*
X162224000Y-71586000D01*
X162224000Y-71332000D01*
X162244000Y-71332000D01*
X162244000Y-69966750D01*
X162085250Y-69808000D01*
X160415891Y-69808000D01*
X160182502Y-69904673D01*
X160003873Y-70083301D01*
X159983400Y-70132727D01*
X159983400Y-69046000D01*
X159923463Y-68744675D01*
X159752776Y-68489224D01*
X159164776Y-67901224D01*
X158909325Y-67730537D01*
X158608000Y-67670600D01*
X152479562Y-67670600D01*
X152406269Y-67597179D01*
X152032982Y-67442176D01*
X151952288Y-67442106D01*
X153193194Y-66201200D01*
X161143731Y-66201200D01*
X161297574Y-66431442D01*
X161272083Y-66436238D01*
X161055959Y-66575310D01*
X160910969Y-66787510D01*
X160859960Y-67039400D01*
X160859960Y-68766600D01*
X160904238Y-69001917D01*
X161043310Y-69218041D01*
X161255510Y-69363031D01*
X161507400Y-69414040D01*
X163234600Y-69414040D01*
X163469917Y-69369762D01*
X163686041Y-69230690D01*
X163831031Y-69018490D01*
X163839864Y-68974869D01*
X163851330Y-68992029D01*
X164123600Y-69173954D01*
X164123600Y-69300000D01*
X164183537Y-69601325D01*
X164321633Y-69808000D01*
X162656750Y-69808000D01*
X162498000Y-69966750D01*
X162498000Y-71332000D01*
X164676050Y-71332000D01*
X164834800Y-71173250D01*
X164834800Y-70337352D01*
X165926914Y-71429466D01*
X165926824Y-71533208D01*
X166081175Y-71906766D01*
X166366731Y-72192821D01*
X166740018Y-72347824D01*
X167144208Y-72348176D01*
X167517766Y-72193825D01*
X167803821Y-71908269D01*
X167958824Y-71534982D01*
X167959176Y-71130792D01*
X167804825Y-70757234D01*
X167519269Y-70471179D01*
X167145982Y-70316176D01*
X167040636Y-70316084D01*
X165818355Y-69093803D01*
X165970670Y-68992029D01*
X166181000Y-68677248D01*
X166391330Y-68992029D01*
X166877511Y-69316885D01*
X167451000Y-69430959D01*
X168024489Y-69316885D01*
X168510670Y-68992029D01*
X168835526Y-68505848D01*
X168949600Y-67932359D01*
X168949600Y-67873641D01*
X168835526Y-67300152D01*
X168510670Y-66813971D01*
X168239839Y-66633008D01*
X168657821Y-66251490D01*
X168905968Y-65722027D01*
X168867913Y-65648750D01*
X169000400Y-65648750D01*
X169000400Y-66606910D01*
X169097073Y-66840299D01*
X169275702Y-67018927D01*
X169509091Y-67115600D01*
X170467250Y-67115600D01*
X170626000Y-66956850D01*
X170626000Y-65490000D01*
X169159150Y-65490000D01*
X169000400Y-65648750D01*
X168867913Y-65648750D01*
X168785469Y-65490000D01*
X167578000Y-65490000D01*
X167578000Y-65510000D01*
X167324000Y-65510000D01*
X167324000Y-65490000D01*
X167304000Y-65490000D01*
X167304000Y-65236000D01*
X167324000Y-65236000D01*
X167324000Y-65216000D01*
X167578000Y-65216000D01*
X167578000Y-65236000D01*
X168785469Y-65236000D01*
X168905968Y-65003973D01*
X168657821Y-64474510D01*
X168541131Y-64368000D01*
X169000400Y-64368000D01*
X169000400Y-65077250D01*
G36*
X151278660Y-78189054D02*
X151135989Y-78280860D01*
X150990999Y-78493060D01*
X150939990Y-78744950D01*
X150939990Y-79545050D01*
X150984268Y-79780367D01*
X151123340Y-79996491D01*
X151268437Y-80095632D01*
X151135989Y-80180860D01*
X150990999Y-80393060D01*
X150942834Y-80630906D01*
X150859327Y-80429302D01*
X150680699Y-80250673D01*
X150447310Y-80154000D01*
X150408155Y-80154000D01*
X150538699Y-80099927D01*
X150717327Y-79921298D01*
X150814000Y-79687909D01*
X150814000Y-78983750D01*
X150655250Y-78825000D01*
X149290000Y-78825000D01*
X149290000Y-78845000D01*
X149036000Y-78845000D01*
X149036000Y-78825000D01*
X149016000Y-78825000D01*
X149016000Y-78571000D01*
X149036000Y-78571000D01*
X149036000Y-78551000D01*
X149290000Y-78551000D01*
X149290000Y-78571000D01*
X150655250Y-78571000D01*
X150814000Y-78412250D01*
X150814000Y-77724394D01*
X151278660Y-78189054D01*
X151278660Y-78189054D01*
G37*
X151278660Y-78189054D02*
X151135989Y-78280860D01*
X150990999Y-78493060D01*
X150939990Y-78744950D01*
X150939990Y-79545050D01*
X150984268Y-79780367D01*
X151123340Y-79996491D01*
X151268437Y-80095632D01*
X151135989Y-80180860D01*
X150990999Y-80393060D01*
X150942834Y-80630906D01*
X150859327Y-80429302D01*
X150680699Y-80250673D01*
X150447310Y-80154000D01*
X150408155Y-80154000D01*
X150538699Y-80099927D01*
X150717327Y-79921298D01*
X150814000Y-79687909D01*
X150814000Y-78983750D01*
X150655250Y-78825000D01*
X149290000Y-78825000D01*
X149290000Y-78845000D01*
X149036000Y-78845000D01*
X149036000Y-78825000D01*
X149016000Y-78825000D01*
X149016000Y-78571000D01*
X149036000Y-78571000D01*
X149036000Y-78551000D01*
X149290000Y-78551000D01*
X149290000Y-78571000D01*
X150655250Y-78571000D01*
X150814000Y-78412250D01*
X150814000Y-77724394D01*
X151278660Y-78189054D01*
G36*
X157476727Y-70287821D02*
X157850014Y-70442824D01*
X158254204Y-70443176D01*
X158408600Y-70379381D01*
X158408600Y-73037848D01*
X157955534Y-73490914D01*
X157851792Y-73490824D01*
X157478234Y-73645175D01*
X157192179Y-73930731D01*
X157037176Y-74304018D01*
X157036824Y-74708208D01*
X157191175Y-75081766D01*
X157265600Y-75156321D01*
X157265600Y-76289597D01*
X157067683Y-76326838D01*
X156851559Y-76465910D01*
X156805031Y-76534006D01*
X156662698Y-76391673D01*
X156429309Y-76295000D01*
X155838750Y-76295000D01*
X155680000Y-76453750D01*
X155680000Y-77428000D01*
X155700000Y-77428000D01*
X155700000Y-77682000D01*
X155680000Y-77682000D01*
X155680000Y-77702000D01*
X155426000Y-77702000D01*
X155426000Y-77682000D01*
X154326750Y-77682000D01*
X154168000Y-77840750D01*
X154168000Y-78306310D01*
X154168203Y-78306800D01*
X153860933Y-78306800D01*
X153852380Y-78293509D01*
X153640180Y-78148519D01*
X153388290Y-78097510D01*
X153303116Y-78097510D01*
X153262256Y-77892095D01*
X153080557Y-77620163D01*
X152264084Y-76803690D01*
X154168000Y-76803690D01*
X154168000Y-77269250D01*
X154326750Y-77428000D01*
X155426000Y-77428000D01*
X155426000Y-76453750D01*
X155267250Y-76295000D01*
X154676691Y-76295000D01*
X154443302Y-76391673D01*
X154264673Y-76570301D01*
X154168000Y-76803690D01*
X152264084Y-76803690D01*
X151025697Y-75565303D01*
X150974979Y-75531415D01*
X151406697Y-75099697D01*
X151588396Y-74827765D01*
X151652200Y-74507000D01*
X151652200Y-71077846D01*
X152031208Y-71078176D01*
X152404766Y-70923825D01*
X152690821Y-70638269D01*
X152845824Y-70264982D01*
X152845868Y-70214400D01*
X157403434Y-70214400D01*
X157476727Y-70287821D01*
X157476727Y-70287821D01*
G37*
X157476727Y-70287821D02*
X157850014Y-70442824D01*
X158254204Y-70443176D01*
X158408600Y-70379381D01*
X158408600Y-73037848D01*
X157955534Y-73490914D01*
X157851792Y-73490824D01*
X157478234Y-73645175D01*
X157192179Y-73930731D01*
X157037176Y-74304018D01*
X157036824Y-74708208D01*
X157191175Y-75081766D01*
X157265600Y-75156321D01*
X157265600Y-76289597D01*
X157067683Y-76326838D01*
X156851559Y-76465910D01*
X156805031Y-76534006D01*
X156662698Y-76391673D01*
X156429309Y-76295000D01*
X155838750Y-76295000D01*
X155680000Y-76453750D01*
X155680000Y-77428000D01*
X155700000Y-77428000D01*
X155700000Y-77682000D01*
X155680000Y-77682000D01*
X155680000Y-77702000D01*
X155426000Y-77702000D01*
X155426000Y-77682000D01*
X154326750Y-77682000D01*
X154168000Y-77840750D01*
X154168000Y-78306310D01*
X154168203Y-78306800D01*
X153860933Y-78306800D01*
X153852380Y-78293509D01*
X153640180Y-78148519D01*
X153388290Y-78097510D01*
X153303116Y-78097510D01*
X153262256Y-77892095D01*
X153080557Y-77620163D01*
X152264084Y-76803690D01*
X154168000Y-76803690D01*
X154168000Y-77269250D01*
X154326750Y-77428000D01*
X155426000Y-77428000D01*
X155426000Y-76453750D01*
X155267250Y-76295000D01*
X154676691Y-76295000D01*
X154443302Y-76391673D01*
X154264673Y-76570301D01*
X154168000Y-76803690D01*
X152264084Y-76803690D01*
X151025697Y-75565303D01*
X150974979Y-75531415D01*
X151406697Y-75099697D01*
X151588396Y-74827765D01*
X151652200Y-74507000D01*
X151652200Y-71077846D01*
X152031208Y-71078176D01*
X152404766Y-70923825D01*
X152690821Y-70638269D01*
X152845824Y-70264982D01*
X152845868Y-70214400D01*
X157403434Y-70214400D01*
X157476727Y-70287821D01*
G36*
X161143731Y-64524800D02*
X152846000Y-64524800D01*
X152525234Y-64588604D01*
X152253303Y-64770303D01*
X150915600Y-66108006D01*
X150915600Y-65648750D01*
X150756850Y-65490000D01*
X149290000Y-65490000D01*
X149290000Y-65510000D01*
X149036000Y-65510000D01*
X149036000Y-65490000D01*
X149016000Y-65490000D01*
X149016000Y-65236000D01*
X149036000Y-65236000D01*
X149036000Y-65216000D01*
X149290000Y-65216000D01*
X149290000Y-65236000D01*
X150756850Y-65236000D01*
X150915600Y-65077250D01*
X150915600Y-64368000D01*
X161248502Y-64368000D01*
X161143731Y-64524800D01*
X161143731Y-64524800D01*
G37*
X161143731Y-64524800D02*
X152846000Y-64524800D01*
X152525234Y-64588604D01*
X152253303Y-64770303D01*
X150915600Y-66108006D01*
X150915600Y-65648750D01*
X150756850Y-65490000D01*
X149290000Y-65490000D01*
X149290000Y-65510000D01*
X149036000Y-65510000D01*
X149036000Y-65490000D01*
X149016000Y-65490000D01*
X149016000Y-65236000D01*
X149036000Y-65236000D01*
X149036000Y-65216000D01*
X149290000Y-65216000D01*
X149290000Y-65236000D01*
X150756850Y-65236000D01*
X150915600Y-65077250D01*
X150915600Y-64368000D01*
X161248502Y-64368000D01*
X161143731Y-64524800D01*
M02*
