M48
;DRILL file {KiCad 4.0.1-stable} date 01/09/2016 20:31:42
;FORMAT={-:-/ absolute / inch / decimal}
FMAT,2
INCH,TZ
T1C0.016
T2C0.032
T3C0.040
%
G90
G05
M72
T1
X5.9776Y-2.6952
X5.9776Y-2.7583
X6.1226Y-2.9833
X6.2076Y-3.2933
X6.2226Y-2.7333
X6.2226Y-2.9333
X6.4076Y-2.8883
X6.4726Y-2.9683
X6.5726Y-2.8083
T2
X6.3726Y-3.4233
X6.4726Y-3.4233
X6.5726Y-3.4233
T3
X5.8726Y-2.5733
X5.8726Y-2.6733
X5.8726Y-2.7733
X5.8726Y-2.8983
X5.8726Y-2.9983
X5.8726Y-3.0983
X5.8726Y-3.4233
X6.1626Y-3.4233
X6.2626Y-3.4233
X6.3926Y-2.5733
X6.3926Y-2.6733
X6.4926Y-2.5733
X6.4926Y-2.6733
X6.5926Y-2.5733
X6.5926Y-2.6733
X6.7226Y-2.5733
X6.7226Y-2.8983
X6.7226Y-2.9983
X6.7226Y-3.0983
X6.7226Y-3.4233
T0
M30
