G04 #@! TF.FileFunction,Legend,Bot*
%FSLAX46Y46*%
G04 Gerber Fmt 4.6, Leading zero omitted, Abs format (unit mm)*
G04 Created by KiCad (PCBNEW 4.0.2-4+6225~38~ubuntu14.04.1-stable) date Tue 03 May 2016 09:53:41 BST*
%MOMM*%
G01*
G04 APERTURE LIST*
%ADD10C,0.101600*%
%ADD11C,0.152400*%
%ADD12C,0.254000*%
%ADD13C,0.150000*%
%ADD14R,1.650000X1.900000*%
%ADD15R,4.057600X2.432000*%
%ADD16R,1.416000X2.432000*%
%ADD17R,2.200860X1.200100*%
%ADD18R,2.432000X2.127200*%
%ADD19O,2.432000X2.127200*%
%ADD20R,1.900000X1.650000*%
%ADD21R,1.900000X1.700000*%
%ADD22R,1.700000X1.900000*%
%ADD23R,2.127200X2.127200*%
%ADD24O,2.127200X2.127200*%
%ADD25R,2.635200X2.635200*%
%ADD26R,1.797000X1.797000*%
%ADD27C,1.797000*%
%ADD28R,2.178000X1.670000*%
%ADD29R,2.432000X2.432000*%
%ADD30O,2.432000X2.432000*%
G04 APERTURE END LIST*
D10*
D11*
X152174714Y-70485333D02*
X151690905Y-70485333D01*
X152271476Y-70775619D02*
X151932809Y-69759619D01*
X151594143Y-70775619D01*
X151061952Y-69759619D02*
X150965191Y-69759619D01*
X150868429Y-69808000D01*
X150820048Y-69856381D01*
X150771667Y-69953143D01*
X150723286Y-70146667D01*
X150723286Y-70388571D01*
X150771667Y-70582095D01*
X150820048Y-70678857D01*
X150868429Y-70727238D01*
X150965191Y-70775619D01*
X151061952Y-70775619D01*
X151158714Y-70727238D01*
X151207095Y-70678857D01*
X151255476Y-70582095D01*
X151303857Y-70388571D01*
X151303857Y-70146667D01*
X151255476Y-69953143D01*
X151207095Y-69856381D01*
X151158714Y-69808000D01*
X151061952Y-69759619D01*
X153087904Y-67600619D02*
X152458952Y-67600619D01*
X152797618Y-67987667D01*
X152652476Y-67987667D01*
X152555714Y-68036048D01*
X152507333Y-68084429D01*
X152458952Y-68181190D01*
X152458952Y-68423095D01*
X152507333Y-68519857D01*
X152555714Y-68568238D01*
X152652476Y-68616619D01*
X152942761Y-68616619D01*
X153039523Y-68568238D01*
X153087904Y-68519857D01*
X152168666Y-67600619D02*
X151829999Y-68616619D01*
X151491333Y-67600619D01*
X151249428Y-67600619D02*
X150620476Y-67600619D01*
X150959142Y-67987667D01*
X150814000Y-67987667D01*
X150717238Y-68036048D01*
X150668857Y-68084429D01*
X150620476Y-68181190D01*
X150620476Y-68423095D01*
X150668857Y-68519857D01*
X150717238Y-68568238D01*
X150814000Y-68616619D01*
X151104285Y-68616619D01*
X151201047Y-68568238D01*
X151249428Y-68519857D01*
X160429714Y-68362619D02*
X161010285Y-68362619D01*
X160719999Y-68362619D02*
X160719999Y-67346619D01*
X160816761Y-67491762D01*
X160913523Y-67588524D01*
X161010285Y-67636905D01*
D12*
X169362047Y-65308571D02*
X168587952Y-65308571D01*
X161107047Y-65308571D02*
X160332952Y-65308571D01*
X160720000Y-65695619D02*
X160720000Y-64921524D01*
X168854047Y-86898571D02*
X168079952Y-86898571D01*
X160980047Y-86898571D02*
X160205952Y-86898571D01*
X160593000Y-87285619D02*
X160593000Y-86511524D01*
X155011047Y-87025571D02*
X154236952Y-87025571D01*
X151582047Y-78008571D02*
X150807952Y-78008571D01*
X151582047Y-76230571D02*
X150807952Y-76230571D01*
X151195000Y-76617619D02*
X151195000Y-75843524D01*
D11*
X169307619Y-75015000D02*
X168291619Y-75015000D01*
X168291619Y-75402047D01*
X168340000Y-75498809D01*
X168388381Y-75547190D01*
X168485143Y-75595571D01*
X168630286Y-75595571D01*
X168727048Y-75547190D01*
X168775429Y-75498809D01*
X168823810Y-75402047D01*
X168823810Y-75015000D01*
X169307619Y-76031000D02*
X168291619Y-76031000D01*
X169307619Y-77095381D02*
X168823810Y-76756715D01*
X169307619Y-76514810D02*
X168291619Y-76514810D01*
X168291619Y-76901857D01*
X168340000Y-76998619D01*
X168388381Y-77047000D01*
X168485143Y-77095381D01*
X168630286Y-77095381D01*
X168727048Y-77047000D01*
X168775429Y-76998619D01*
X168823810Y-76901857D01*
X168823810Y-76514810D01*
D12*
X171140047Y-71531571D02*
X170365952Y-71531571D01*
X171140047Y-80675571D02*
X170365952Y-80675571D01*
X170753000Y-81062619D02*
X170753000Y-80288524D01*
D11*
X153910380Y-73914333D02*
X153426571Y-73914333D01*
X154007142Y-74204619D02*
X153668475Y-73188619D01*
X153329809Y-74204619D01*
X153136285Y-73188619D02*
X152555714Y-73188619D01*
X152845999Y-74204619D02*
X152845999Y-73188619D01*
X152265428Y-73914333D02*
X151781619Y-73914333D01*
X152362190Y-74204619D02*
X152023523Y-73188619D01*
X151684857Y-74204619D01*
X151346190Y-74204619D02*
X151346190Y-73188619D01*
X151104285Y-73188619D01*
X150959143Y-73237000D01*
X150862381Y-73333762D01*
X150814000Y-73430524D01*
X150765619Y-73624048D01*
X150765619Y-73769190D01*
X150814000Y-73962714D01*
X150862381Y-74059476D01*
X150959143Y-74156238D01*
X151104285Y-74204619D01*
X151346190Y-74204619D01*
X156652976Y-66102019D02*
X156931166Y-65618210D01*
X157233547Y-66102019D02*
X157106547Y-65086019D01*
X156719500Y-65086019D01*
X156628786Y-65134400D01*
X156586453Y-65182781D01*
X156550167Y-65279543D01*
X156568310Y-65424686D01*
X156628786Y-65521448D01*
X156683215Y-65569829D01*
X156786024Y-65618210D01*
X157173071Y-65618210D01*
X155624881Y-66005257D02*
X155679310Y-66053638D01*
X155830500Y-66102019D01*
X155927262Y-66102019D01*
X156066357Y-66053638D01*
X156151023Y-65956876D01*
X156187309Y-65860114D01*
X156211500Y-65666590D01*
X156193357Y-65521448D01*
X156120785Y-65327924D01*
X156060309Y-65231162D01*
X155951452Y-65134400D01*
X155800262Y-65086019D01*
X155703500Y-65086019D01*
X155564405Y-65134400D01*
X155522072Y-65182781D01*
X158467261Y-67676819D02*
X158340261Y-66660819D01*
X157953214Y-66660819D01*
X157862500Y-66709200D01*
X157820167Y-66757581D01*
X157783881Y-66854343D01*
X157802024Y-66999486D01*
X157862500Y-67096248D01*
X157916929Y-67144629D01*
X158019738Y-67193010D01*
X158406785Y-67193010D01*
X157306118Y-67676819D02*
X157396833Y-67628438D01*
X157439166Y-67580057D01*
X157475452Y-67483295D01*
X157439166Y-67193010D01*
X157378690Y-67096248D01*
X157324261Y-67047867D01*
X157221452Y-66999486D01*
X157076310Y-66999486D01*
X156985595Y-67047867D01*
X156943262Y-67096248D01*
X156906976Y-67193010D01*
X156943262Y-67483295D01*
X157003738Y-67580057D01*
X157058167Y-67628438D01*
X157160976Y-67676819D01*
X157306118Y-67676819D01*
X156544119Y-66999486D02*
X156435261Y-67676819D01*
X156181262Y-67193010D01*
X156048214Y-67676819D01*
X155770024Y-66999486D01*
X155074548Y-67628438D02*
X155177357Y-67676819D01*
X155370880Y-67676819D01*
X155461595Y-67628438D01*
X155497880Y-67531676D01*
X155449500Y-67144629D01*
X155389023Y-67047867D01*
X155286214Y-66999486D01*
X155092691Y-66999486D01*
X155001976Y-67047867D01*
X154965691Y-67144629D01*
X154977786Y-67241390D01*
X155473690Y-67338152D01*
X154596785Y-67676819D02*
X154512119Y-66999486D01*
X154536309Y-67193010D02*
X154475833Y-67096248D01*
X154421404Y-67047867D01*
X154318595Y-66999486D01*
X154221834Y-66999486D01*
X159186928Y-69203238D02*
X159047832Y-69251619D01*
X158805928Y-69251619D01*
X158703119Y-69203238D01*
X158648690Y-69154857D01*
X158588214Y-69058095D01*
X158576119Y-68961333D01*
X158612404Y-68864571D01*
X158654738Y-68816190D01*
X158745452Y-68767810D01*
X158932928Y-68719429D01*
X159023642Y-68671048D01*
X159065975Y-68622667D01*
X159102261Y-68525905D01*
X159090166Y-68429143D01*
X159029690Y-68332381D01*
X158975261Y-68284000D01*
X158872451Y-68235619D01*
X158630547Y-68235619D01*
X158491452Y-68284000D01*
X158031832Y-69251619D02*
X158122547Y-69203238D01*
X158164880Y-69154857D01*
X158201166Y-69058095D01*
X158164880Y-68767810D01*
X158104404Y-68671048D01*
X158049975Y-68622667D01*
X157947166Y-68574286D01*
X157802024Y-68574286D01*
X157711309Y-68622667D01*
X157668976Y-68671048D01*
X157632690Y-68767810D01*
X157668976Y-69058095D01*
X157729452Y-69154857D01*
X157783881Y-69203238D01*
X157886690Y-69251619D01*
X158031832Y-69251619D01*
X156816262Y-69203238D02*
X156919071Y-69251619D01*
X157112594Y-69251619D01*
X157203309Y-69203238D01*
X157245642Y-69154857D01*
X157281928Y-69058095D01*
X157245642Y-68767810D01*
X157185166Y-68671048D01*
X157130737Y-68622667D01*
X157027928Y-68574286D01*
X156834405Y-68574286D01*
X156743690Y-68622667D01*
X156386880Y-69251619D02*
X156259880Y-68235619D01*
X156241737Y-68864571D02*
X155999833Y-69251619D01*
X155915167Y-68574286D02*
X156350595Y-68961333D01*
X155171310Y-69203238D02*
X155274119Y-69251619D01*
X155467642Y-69251619D01*
X155558357Y-69203238D01*
X155594642Y-69106476D01*
X155546262Y-68719429D01*
X155485785Y-68622667D01*
X155382976Y-68574286D01*
X155189453Y-68574286D01*
X155098738Y-68622667D01*
X155062453Y-68719429D01*
X155074548Y-68816190D01*
X155570452Y-68912952D01*
X154754024Y-68574286D02*
X154366976Y-68574286D01*
X154566547Y-68235619D02*
X154675404Y-69106476D01*
X154639119Y-69203238D01*
X154548404Y-69251619D01*
X154451642Y-69251619D01*
X154155310Y-69203238D02*
X154064595Y-69251619D01*
X153871071Y-69251619D01*
X153768263Y-69203238D01*
X153707786Y-69106476D01*
X153701739Y-69058095D01*
X153738025Y-68961333D01*
X153828738Y-68912952D01*
X153973881Y-68912952D01*
X154064595Y-68864571D01*
X154100881Y-68767810D01*
X154094834Y-68719429D01*
X154034357Y-68622667D01*
X153931548Y-68574286D01*
X153786405Y-68574286D01*
X153695691Y-68622667D01*
X158412833Y-70778038D02*
X158273737Y-70826419D01*
X158031833Y-70826419D01*
X157929024Y-70778038D01*
X157874595Y-70729657D01*
X157814119Y-70632895D01*
X157802024Y-70536133D01*
X157838309Y-70439371D01*
X157880643Y-70390990D01*
X157971357Y-70342610D01*
X158158833Y-70294229D01*
X158249547Y-70245848D01*
X158291880Y-70197467D01*
X158328166Y-70100705D01*
X158316071Y-70003943D01*
X158255595Y-69907181D01*
X158201166Y-69858800D01*
X158098356Y-69810419D01*
X157856452Y-69810419D01*
X157717357Y-69858800D01*
X157402880Y-70826419D02*
X157318214Y-70149086D01*
X157330309Y-70245848D02*
X157275880Y-70197467D01*
X157173071Y-70149086D01*
X157027929Y-70149086D01*
X156937214Y-70197467D01*
X156900929Y-70294229D01*
X156967452Y-70826419D01*
X156900929Y-70294229D02*
X156840452Y-70197467D01*
X156737643Y-70149086D01*
X156592500Y-70149086D01*
X156501785Y-70197467D01*
X156465500Y-70294229D01*
X156532023Y-70826419D01*
X155612785Y-70826419D02*
X155546262Y-70294229D01*
X155582547Y-70197467D01*
X155673262Y-70149086D01*
X155866785Y-70149086D01*
X155969594Y-70197467D01*
X155606738Y-70778038D02*
X155709547Y-70826419D01*
X155951451Y-70826419D01*
X156042166Y-70778038D01*
X156078451Y-70681276D01*
X156066356Y-70584514D01*
X156005880Y-70487752D01*
X155903070Y-70439371D01*
X155661166Y-70439371D01*
X155558357Y-70390990D01*
X154983832Y-70826419D02*
X155074547Y-70778038D01*
X155110832Y-70681276D01*
X155001975Y-69810419D01*
X154451642Y-70826419D02*
X154542357Y-70778038D01*
X154578642Y-70681276D01*
X154469785Y-69810419D01*
X157826214Y-71723886D02*
X157668975Y-72401219D01*
X157342405Y-71723886D01*
X156507833Y-72401219D02*
X157088404Y-72401219D01*
X156798118Y-72401219D02*
X156671118Y-71385219D01*
X156786023Y-71530362D01*
X156894880Y-71627124D01*
X156997690Y-71675505D01*
X156060309Y-72304457D02*
X156017976Y-72352838D01*
X156072404Y-72401219D01*
X156114738Y-72352838D01*
X156060309Y-72304457D01*
X156072404Y-72401219D01*
X155268070Y-71385219D02*
X155171309Y-71385219D01*
X155080595Y-71433600D01*
X155038262Y-71481981D01*
X155001976Y-71578743D01*
X154977785Y-71772267D01*
X155008023Y-72014171D01*
X155080595Y-72207695D01*
X155141071Y-72304457D01*
X155195500Y-72352838D01*
X155298309Y-72401219D01*
X155395070Y-72401219D01*
X155485785Y-72352838D01*
X155528118Y-72304457D01*
X155564404Y-72207695D01*
X155588594Y-72014171D01*
X155558356Y-71772267D01*
X155485785Y-71578743D01*
X155425309Y-71481981D01*
X155370880Y-71433600D01*
X155268070Y-71385219D01*
D13*
X167793000Y-75932000D02*
X167793000Y-76932000D01*
X166093000Y-76932000D02*
X166093000Y-75932000D01*
X165927000Y-76285000D02*
X165927000Y-79333000D01*
X165927000Y-79333000D02*
X158815000Y-79333000D01*
X158815000Y-79333000D02*
X158815000Y-76285000D01*
X165927000Y-73237000D02*
X165927000Y-72475000D01*
X165927000Y-72475000D02*
X164403000Y-70189000D01*
X164403000Y-70189000D02*
X160339000Y-70189000D01*
X160339000Y-70189000D02*
X158815000Y-72475000D01*
X158815000Y-72475000D02*
X158815000Y-73237000D01*
X153938200Y-85404820D02*
X154639240Y-85404820D01*
X154639240Y-85404820D02*
X154639240Y-85155900D01*
X154639240Y-82605840D02*
X154639240Y-82405180D01*
X154639240Y-82405180D02*
X153938200Y-82405180D01*
X153938200Y-81594820D02*
X154639240Y-81594820D01*
X154639240Y-81594820D02*
X154639240Y-81345900D01*
X154639240Y-78795840D02*
X154639240Y-78595180D01*
X154639240Y-78595180D02*
X153938200Y-78595180D01*
X169203000Y-73618000D02*
X169203000Y-72068000D01*
X169203000Y-72068000D02*
X172303000Y-72068000D01*
X172303000Y-72068000D02*
X172303000Y-73618000D01*
X169483000Y-74888000D02*
X169483000Y-79968000D01*
X169483000Y-79968000D02*
X172023000Y-79968000D01*
X172023000Y-79968000D02*
X172023000Y-74888000D01*
X172023000Y-74888000D02*
X169483000Y-74888000D01*
X156303000Y-76705000D02*
X157303000Y-76705000D01*
X157303000Y-78405000D02*
X156303000Y-78405000D01*
X160628000Y-85034000D02*
X161828000Y-85034000D01*
X161828000Y-83284000D02*
X160628000Y-83284000D01*
X160628000Y-82875000D02*
X161828000Y-82875000D01*
X161828000Y-81125000D02*
X160628000Y-81125000D01*
X148796000Y-82289000D02*
X148796000Y-83489000D01*
X150546000Y-83489000D02*
X150546000Y-82289000D01*
X150713000Y-88503000D02*
X150713000Y-86953000D01*
X147613000Y-86953000D02*
X147613000Y-88503000D01*
X147613000Y-88503000D02*
X150713000Y-88503000D01*
X147893000Y-85683000D02*
X150433000Y-85683000D01*
X172303000Y-88503000D02*
X172303000Y-86953000D01*
X169203000Y-86953000D02*
X169203000Y-88503000D01*
X169203000Y-88503000D02*
X172303000Y-88503000D01*
X169483000Y-85683000D02*
X172023000Y-85683000D01*
X150713000Y-66913000D02*
X150713000Y-65363000D01*
X147613000Y-65363000D02*
X147613000Y-66913000D01*
X147613000Y-66913000D02*
X150713000Y-66913000D01*
X147893000Y-64093000D02*
X150433000Y-64093000D01*
X172303000Y-66913000D02*
X172303000Y-65363000D01*
X169203000Y-65363000D02*
X169203000Y-66913000D01*
X169203000Y-66913000D02*
X172303000Y-66913000D01*
X169483000Y-64093000D02*
X172023000Y-64093000D01*
X168403500Y-84159000D02*
X168022500Y-84159000D01*
X169419500Y-84159000D02*
X169038500Y-84159000D01*
X169038500Y-84159000D02*
X168403500Y-83778000D01*
X168403500Y-83778000D02*
X168403500Y-84540000D01*
X168403500Y-84540000D02*
X169038500Y-84159000D01*
X169038500Y-83651000D02*
X169038500Y-84667000D01*
X170721000Y-85059000D02*
X167181000Y-85059000D01*
X170721000Y-83259000D02*
X167181000Y-83259000D01*
X167522381Y-72133762D02*
X167522381Y-71562333D01*
X167522381Y-71848047D02*
X166522381Y-71848047D01*
X166665238Y-71752809D01*
X166760476Y-71657571D01*
X166808095Y-71562333D01*
X166855714Y-72990905D02*
X167522381Y-72990905D01*
X166855714Y-72562333D02*
X167379524Y-72562333D01*
X167474762Y-72609952D01*
X167522381Y-72705190D01*
X167522381Y-72848048D01*
X167474762Y-72943286D01*
X167427143Y-72990905D01*
X166998571Y-73800429D02*
X166998571Y-73467095D01*
X167522381Y-73467095D02*
X166522381Y-73467095D01*
X166522381Y-73943286D01*
X163132905Y-74340381D02*
X163132905Y-75149905D01*
X163085286Y-75245143D01*
X163037667Y-75292762D01*
X162942429Y-75340381D01*
X162751952Y-75340381D01*
X162656714Y-75292762D01*
X162609095Y-75245143D01*
X162561476Y-75149905D01*
X162561476Y-74340381D01*
X161561476Y-75340381D02*
X162132905Y-75340381D01*
X161847191Y-75340381D02*
X161847191Y-74340381D01*
X161942429Y-74483238D01*
X162037667Y-74578476D01*
X162132905Y-74626095D01*
X158767143Y-83214381D02*
X158767143Y-82214381D01*
X158195714Y-83214381D01*
X158195714Y-82214381D01*
X157719524Y-83214381D02*
X157719524Y-82214381D01*
X157386190Y-82928667D01*
X157052857Y-82214381D01*
X157052857Y-83214381D01*
X156386191Y-82214381D02*
X156195714Y-82214381D01*
X156100476Y-82262000D01*
X156005238Y-82357238D01*
X155957619Y-82547714D01*
X155957619Y-82881048D01*
X156005238Y-83071524D01*
X156100476Y-83166762D01*
X156195714Y-83214381D01*
X156386191Y-83214381D01*
X156481429Y-83166762D01*
X156576667Y-83071524D01*
X156624286Y-82881048D01*
X156624286Y-82547714D01*
X156576667Y-82357238D01*
X156481429Y-82262000D01*
X156386191Y-82214381D01*
X155576667Y-83166762D02*
X155433810Y-83214381D01*
X155195714Y-83214381D01*
X155100476Y-83166762D01*
X155052857Y-83119143D01*
X155005238Y-83023905D01*
X155005238Y-82928667D01*
X155052857Y-82833429D01*
X155100476Y-82785810D01*
X155195714Y-82738190D01*
X155386191Y-82690571D01*
X155481429Y-82642952D01*
X155529048Y-82595333D01*
X155576667Y-82500095D01*
X155576667Y-82404857D01*
X155529048Y-82309619D01*
X155481429Y-82262000D01*
X155386191Y-82214381D01*
X155148095Y-82214381D01*
X155005238Y-82262000D01*
X158743333Y-81817381D02*
X158743333Y-80817381D01*
X158362380Y-80817381D01*
X158267142Y-80865000D01*
X158219523Y-80912619D01*
X158171904Y-81007857D01*
X158171904Y-81150714D01*
X158219523Y-81245952D01*
X158267142Y-81293571D01*
X158362380Y-81341190D01*
X158743333Y-81341190D01*
X157743333Y-81817381D02*
X157743333Y-80817381D01*
X157409999Y-81531667D01*
X157076666Y-80817381D01*
X157076666Y-81817381D01*
X156410000Y-80817381D02*
X156219523Y-80817381D01*
X156124285Y-80865000D01*
X156029047Y-80960238D01*
X155981428Y-81150714D01*
X155981428Y-81484048D01*
X156029047Y-81674524D01*
X156124285Y-81769762D01*
X156219523Y-81817381D01*
X156410000Y-81817381D01*
X156505238Y-81769762D01*
X156600476Y-81674524D01*
X156648095Y-81484048D01*
X156648095Y-81150714D01*
X156600476Y-80960238D01*
X156505238Y-80865000D01*
X156410000Y-80817381D01*
X155600476Y-81769762D02*
X155457619Y-81817381D01*
X155219523Y-81817381D01*
X155124285Y-81769762D01*
X155076666Y-81722143D01*
X155029047Y-81626905D01*
X155029047Y-81531667D01*
X155076666Y-81436429D01*
X155124285Y-81388810D01*
X155219523Y-81341190D01*
X155410000Y-81293571D01*
X155505238Y-81245952D01*
X155552857Y-81198333D01*
X155600476Y-81103095D01*
X155600476Y-81007857D01*
X155552857Y-80912619D01*
X155505238Y-80865000D01*
X155410000Y-80817381D01*
X155171904Y-80817381D01*
X155029047Y-80865000D01*
X157378238Y-76356381D02*
X157949667Y-76356381D01*
X157663953Y-76356381D02*
X157663953Y-75356381D01*
X157759191Y-75499238D01*
X157854429Y-75594476D01*
X157949667Y-75642095D01*
X156521095Y-75689714D02*
X156521095Y-76356381D01*
X156949667Y-75689714D02*
X156949667Y-76213524D01*
X156902048Y-76308762D01*
X156806810Y-76356381D01*
X156663952Y-76356381D01*
X156568714Y-76308762D01*
X156521095Y-76261143D01*
X155711571Y-75832571D02*
X156044905Y-75832571D01*
X156044905Y-76356381D02*
X156044905Y-75356381D01*
X155568714Y-75356381D01*
X162466095Y-85230619D02*
X162418476Y-85183000D01*
X162323238Y-85135381D01*
X162085142Y-85135381D01*
X161989904Y-85183000D01*
X161942285Y-85230619D01*
X161894666Y-85325857D01*
X161894666Y-85421095D01*
X161942285Y-85563952D01*
X162513714Y-86135381D01*
X161894666Y-86135381D01*
X161513714Y-85230619D02*
X161466095Y-85183000D01*
X161370857Y-85135381D01*
X161132761Y-85135381D01*
X161037523Y-85183000D01*
X160989904Y-85230619D01*
X160942285Y-85325857D01*
X160942285Y-85421095D01*
X160989904Y-85563952D01*
X161561333Y-86135381D01*
X160942285Y-86135381D01*
X160323238Y-85135381D02*
X160227999Y-85135381D01*
X160132761Y-85183000D01*
X160085142Y-85230619D01*
X160037523Y-85325857D01*
X159989904Y-85516333D01*
X159989904Y-85754429D01*
X160037523Y-85944905D01*
X160085142Y-86040143D01*
X160132761Y-86087762D01*
X160227999Y-86135381D01*
X160323238Y-86135381D01*
X160418476Y-86087762D01*
X160466095Y-86040143D01*
X160513714Y-85944905D01*
X160561333Y-85754429D01*
X160561333Y-85516333D01*
X160513714Y-85325857D01*
X160466095Y-85230619D01*
X160418476Y-85183000D01*
X160323238Y-85135381D01*
X162394666Y-80801381D02*
X162966095Y-80801381D01*
X162680381Y-80801381D02*
X162680381Y-79801381D01*
X162775619Y-79944238D01*
X162870857Y-80039476D01*
X162966095Y-80087095D01*
X161775619Y-79801381D02*
X161680380Y-79801381D01*
X161585142Y-79849000D01*
X161537523Y-79896619D01*
X161489904Y-79991857D01*
X161442285Y-80182333D01*
X161442285Y-80420429D01*
X161489904Y-80610905D01*
X161537523Y-80706143D01*
X161585142Y-80753762D01*
X161680380Y-80801381D01*
X161775619Y-80801381D01*
X161870857Y-80753762D01*
X161918476Y-80706143D01*
X161966095Y-80610905D01*
X162013714Y-80420429D01*
X162013714Y-80182333D01*
X161966095Y-79991857D01*
X161918476Y-79896619D01*
X161870857Y-79849000D01*
X161775619Y-79801381D01*
X160823238Y-79801381D02*
X160727999Y-79801381D01*
X160632761Y-79849000D01*
X160585142Y-79896619D01*
X160537523Y-79991857D01*
X160489904Y-80182333D01*
X160489904Y-80420429D01*
X160537523Y-80610905D01*
X160585142Y-80706143D01*
X160632761Y-80753762D01*
X160727999Y-80801381D01*
X160823238Y-80801381D01*
X160918476Y-80753762D01*
X160966095Y-80706143D01*
X161013714Y-80610905D01*
X161061333Y-80420429D01*
X161061333Y-80182333D01*
X161013714Y-79991857D01*
X160966095Y-79896619D01*
X160918476Y-79849000D01*
X160823238Y-79801381D01*
X160061333Y-80801381D02*
X160061333Y-79801381D01*
X159489904Y-80801381D02*
X159918476Y-80229952D01*
X159489904Y-79801381D02*
X160061333Y-80372810D01*
X148726381Y-82198524D02*
X148726381Y-81627095D01*
X148726381Y-81912809D02*
X147726381Y-81912809D01*
X147869238Y-81817571D01*
X147964476Y-81722333D01*
X148012095Y-81627095D01*
X147726381Y-82817571D02*
X147726381Y-82912810D01*
X147774000Y-83008048D01*
X147821619Y-83055667D01*
X147916857Y-83103286D01*
X148107333Y-83150905D01*
X148345429Y-83150905D01*
X148535905Y-83103286D01*
X148631143Y-83055667D01*
X148678762Y-83008048D01*
X148726381Y-82912810D01*
X148726381Y-82817571D01*
X148678762Y-82722333D01*
X148631143Y-82674714D01*
X148535905Y-82627095D01*
X148345429Y-82579476D01*
X148107333Y-82579476D01*
X147916857Y-82627095D01*
X147821619Y-82674714D01*
X147774000Y-82722333D01*
X147726381Y-82817571D01*
X148726381Y-83579476D02*
X147726381Y-83579476D01*
X148726381Y-84150905D02*
X148154952Y-83722333D01*
X147726381Y-84150905D02*
X148297810Y-83579476D01*
%LPC*%
D14*
X166943000Y-77682000D03*
X166943000Y-75182000D03*
D15*
X162371000Y-71459000D03*
D16*
X162371000Y-78063000D03*
X160085000Y-78063000D03*
X164657000Y-78063000D03*
D17*
X152487860Y-84855000D03*
X152487860Y-82955000D03*
X155490140Y-83905000D03*
X152487860Y-81045000D03*
X152487860Y-79145000D03*
X155490140Y-80095000D03*
D18*
X170753000Y-73618000D03*
D19*
X170753000Y-76158000D03*
X170753000Y-78698000D03*
D18*
X149163000Y-78698000D03*
D19*
X149163000Y-76158000D03*
X149163000Y-73618000D03*
D20*
X158053000Y-77555000D03*
X155553000Y-77555000D03*
D21*
X162578000Y-84159000D03*
X159878000Y-84159000D03*
X162578000Y-82000000D03*
X159878000Y-82000000D03*
D22*
X149671000Y-84239000D03*
X149671000Y-81539000D03*
D23*
X162371000Y-67903000D03*
D24*
X162371000Y-65363000D03*
X164911000Y-67903000D03*
X164911000Y-65363000D03*
X167451000Y-67903000D03*
X167451000Y-65363000D03*
D25*
X149163000Y-86953000D03*
X170753000Y-86953000D03*
X149163000Y-65363000D03*
X170753000Y-65363000D03*
D26*
X161863000Y-86953000D03*
D27*
X164403000Y-86953000D03*
X166943000Y-86953000D03*
D28*
X170803800Y-84159000D03*
X166663600Y-84159000D03*
D25*
X149163000Y-70443000D03*
X149163000Y-67903000D03*
D29*
X156529000Y-86953000D03*
D30*
X159069000Y-86953000D03*
M02*
