G04 #@! TF.FileFunction,Soldermask,Top*
%FSLAX46Y46*%
G04 Gerber Fmt 4.6, Leading zero omitted, Abs format (unit mm)*
G04 Created by KiCad (PCBNEW 4.0.1-stable) date 01/09/2016 20:31:35*
%MOMM*%
G01*
G04 APERTURE LIST*
%ADD10C,0.101600*%
%ADD11C,0.076200*%
%ADD12C,0.150000*%
%ADD13C,0.127000*%
%ADD14R,2.432000X2.127200*%
%ADD15O,2.432000X2.127200*%
%ADD16R,1.900000X1.650000*%
%ADD17R,1.700000X1.900000*%
%ADD18R,2.127200X2.127200*%
%ADD19O,2.127200X2.127200*%
%ADD20R,1.598880X1.598880*%
%ADD21R,2.635200X2.635200*%
%ADD22R,1.797000X1.797000*%
%ADD23C,1.797000*%
%ADD24R,2.178000X1.670000*%
%ADD25R,2.178000X1.009600*%
%ADD26R,2.432000X2.432000*%
%ADD27O,2.432000X2.432000*%
G04 APERTURE END LIST*
D10*
X171013000Y-70703000D02*
X171173000Y-70183000D01*
X171053000Y-70483000D02*
X171013000Y-70703000D01*
X170933000Y-70203000D02*
X171053000Y-70483000D01*
X170713000Y-69903000D02*
X170933000Y-70203000D01*
X170623000Y-69473000D02*
X170713000Y-69903000D01*
X170993000Y-69483000D02*
X170993000Y-69313000D01*
X171013000Y-69583000D02*
X170993000Y-69483000D01*
X170963000Y-69673000D02*
X171013000Y-69583000D01*
X170843000Y-69703000D02*
X170963000Y-69673000D01*
X170723000Y-69573000D02*
X170843000Y-69703000D01*
X170653000Y-69383000D02*
X170723000Y-69573000D01*
X171173000Y-69383000D02*
X171083000Y-69253000D01*
X171303000Y-69413000D02*
X171173000Y-69383000D01*
X171413000Y-69373000D02*
X171303000Y-69413000D01*
X171453000Y-69273000D02*
X171413000Y-69373000D01*
X171453000Y-69133000D02*
X171453000Y-69273000D01*
X171353000Y-68993000D02*
X171453000Y-69133000D01*
X171173000Y-68883000D02*
X171353000Y-68993000D01*
X171273000Y-68853000D02*
X171173000Y-68853000D01*
X171423000Y-68843000D02*
X171273000Y-68853000D01*
X171523000Y-68773000D02*
X171423000Y-68843000D01*
X171503000Y-68623000D02*
X171523000Y-68773000D01*
X171393000Y-68523000D02*
X171503000Y-68623000D01*
X171023000Y-68533000D02*
X171393000Y-68523000D01*
X171143000Y-68403000D02*
X171053000Y-68543000D01*
X171163000Y-68293000D02*
X171143000Y-68403000D01*
X171113000Y-68183000D02*
X171163000Y-68293000D01*
X170943000Y-68153000D02*
X171113000Y-68183000D01*
X170783000Y-68213000D02*
X170943000Y-68153000D01*
X170693000Y-68483000D02*
X170783000Y-68213000D01*
X170593000Y-69393000D02*
X170583000Y-69363000D01*
X170623000Y-69373000D02*
X170593000Y-69393000D01*
X170603000Y-69393000D02*
X170623000Y-69373000D01*
X170583000Y-69503000D02*
X170603000Y-69393000D01*
X170523000Y-69613000D02*
X170583000Y-69503000D01*
X170403000Y-69653000D02*
X170523000Y-69613000D01*
X170293000Y-69613000D02*
X170403000Y-69653000D01*
X170283000Y-69423000D02*
X170293000Y-69613000D01*
X170363000Y-69223000D02*
X170283000Y-69423000D01*
X170093000Y-69263000D02*
X170343000Y-69203000D01*
X169973000Y-69183000D02*
X170093000Y-69263000D01*
X169933000Y-69053000D02*
X169973000Y-69183000D01*
X170023000Y-68903000D02*
X169933000Y-69053000D01*
X170293000Y-68853000D02*
X170023000Y-68903000D01*
X170073000Y-68733000D02*
X170283000Y-68783000D01*
X169963000Y-68563000D02*
X170073000Y-68733000D01*
X170073000Y-68373000D02*
X169963000Y-68563000D01*
X170353000Y-68303000D02*
X170073000Y-68373000D01*
X170623000Y-68443000D02*
X170353000Y-68303000D01*
D11*
X170793000Y-69113000D02*
X170913000Y-69023000D01*
X170663000Y-69123000D02*
X170793000Y-69113000D01*
X170543000Y-69053000D02*
X170663000Y-69123000D01*
D12*
X170624623Y-68833000D02*
G75*
G03X170624623Y-68833000I-31623J0D01*
G01*
D13*
X171143000Y-68913000D02*
G75*
G03X171143000Y-68913000I-410000J0D01*
G01*
D12*
X170904623Y-68833000D02*
G75*
G03X170904623Y-68833000I-31623J0D01*
G01*
D14*
X170753000Y-73618000D03*
D15*
X170753000Y-76158000D03*
X170753000Y-78698000D03*
D14*
X149163000Y-78698000D03*
D15*
X149163000Y-76158000D03*
X149163000Y-73618000D03*
D16*
X160232000Y-71205000D03*
X162732000Y-71205000D03*
D17*
X153735000Y-71158000D03*
X153735000Y-68458000D03*
D18*
X162371000Y-67903000D03*
D19*
X162371000Y-65363000D03*
X164911000Y-67903000D03*
X164911000Y-65363000D03*
X167451000Y-67903000D03*
X167451000Y-65363000D03*
D17*
X151576000Y-81285000D03*
X151576000Y-83985000D03*
D20*
X149163000Y-83717040D03*
X149163000Y-81619000D03*
D21*
X149163000Y-86953000D03*
X170753000Y-86953000D03*
X149163000Y-65363000D03*
X170753000Y-65363000D03*
D22*
X161863000Y-86953000D03*
D23*
X164403000Y-86953000D03*
X166943000Y-86953000D03*
D24*
X155182800Y-81238000D03*
X159323000Y-81238000D03*
X155182800Y-79079000D03*
X159323000Y-79079000D03*
D25*
X160339000Y-73110000D03*
X160339000Y-74380000D03*
X160339000Y-75650000D03*
X160339000Y-76920000D03*
X153735000Y-76920000D03*
X153735000Y-75650000D03*
X153735000Y-74380000D03*
X153735000Y-73110000D03*
D21*
X149163000Y-70443000D03*
X149163000Y-67903000D03*
D26*
X156529000Y-86953000D03*
D27*
X159069000Y-86953000D03*
D16*
X162792000Y-83016000D03*
X165292000Y-83016000D03*
M02*
