G04 #@! TF.FileFunction,Legend,Top*
%FSLAX46Y46*%
G04 Gerber Fmt 4.6, Leading zero omitted, Abs format (unit mm)*
G04 Created by KiCad (PCBNEW 4.0.1-stable) date 01/09/2016 20:31:35*
%MOMM*%
G01*
G04 APERTURE LIST*
%ADD10C,0.101600*%
%ADD11C,0.152400*%
%ADD12C,0.254000*%
%ADD13C,0.150000*%
%ADD14C,0.076200*%
%ADD15C,0.127000*%
%ADD16R,2.432000X2.127200*%
%ADD17O,2.432000X2.127200*%
%ADD18R,1.900000X1.650000*%
%ADD19R,1.700000X1.900000*%
%ADD20R,2.127200X2.127200*%
%ADD21O,2.127200X2.127200*%
%ADD22R,1.598880X1.598880*%
%ADD23R,2.635200X2.635200*%
%ADD24R,1.797000X1.797000*%
%ADD25C,1.797000*%
%ADD26R,2.178000X1.670000*%
%ADD27R,2.178000X1.009600*%
%ADD28R,2.432000X2.432000*%
%ADD29O,2.432000X2.432000*%
G04 APERTURE END LIST*
D10*
D11*
X152267697Y-64590114D02*
X152172447Y-65352114D01*
X152263161Y-64626400D02*
X152340268Y-64590114D01*
X152485411Y-64590114D01*
X152553446Y-64626400D01*
X152585196Y-64662686D01*
X152612411Y-64735257D01*
X152585197Y-64952971D01*
X152539839Y-65025543D01*
X152499017Y-65061829D01*
X152421911Y-65098114D01*
X152276768Y-65098114D01*
X152208732Y-65061829D01*
X153188446Y-65061829D02*
X153111340Y-65098114D01*
X152966197Y-65098114D01*
X152898161Y-65061829D01*
X152870947Y-64989257D01*
X152907233Y-64698971D01*
X152952590Y-64626400D01*
X153029697Y-64590114D01*
X153174840Y-64590114D01*
X153242875Y-64626400D01*
X153270090Y-64698971D01*
X153261018Y-64771543D01*
X152889090Y-64844114D01*
X153501411Y-64590114D02*
X153791697Y-64590114D01*
X153642019Y-64336114D02*
X153560376Y-64989257D01*
X153587589Y-65061829D01*
X153655626Y-65098114D01*
X153728197Y-65098114D01*
X154277018Y-65061829D02*
X154199912Y-65098114D01*
X154054769Y-65098114D01*
X153986733Y-65061829D01*
X153959519Y-64989257D01*
X153995805Y-64698971D01*
X154041162Y-64626400D01*
X154118269Y-64590114D01*
X154263412Y-64590114D01*
X154331447Y-64626400D01*
X154358662Y-64698971D01*
X154349590Y-64771543D01*
X153977662Y-64844114D01*
X154635341Y-65098114D02*
X154698841Y-64590114D01*
X154680698Y-64735257D02*
X154726054Y-64662686D01*
X154766876Y-64626400D01*
X154843983Y-64590114D01*
X154916555Y-64590114D01*
X155107055Y-65098114D02*
X155170555Y-64590114D01*
X155161483Y-64662686D02*
X155202304Y-64626400D01*
X155279412Y-64590114D01*
X155388269Y-64590114D01*
X155456304Y-64626400D01*
X155483519Y-64698971D01*
X155433626Y-65098114D01*
X155483519Y-64698971D02*
X155528876Y-64626400D01*
X155605983Y-64590114D01*
X155714840Y-64590114D01*
X155782876Y-64626400D01*
X155810090Y-64698971D01*
X155760197Y-65098114D01*
X156454161Y-65061829D02*
X156377055Y-65098114D01*
X156231912Y-65098114D01*
X156163875Y-65061829D01*
X156132126Y-65025543D01*
X156104912Y-64952971D01*
X156132126Y-64735257D01*
X156177483Y-64662686D01*
X156218304Y-64626400D01*
X156295412Y-64590114D01*
X156440555Y-64590114D01*
X156508590Y-64626400D01*
X156885055Y-65098114D02*
X156817018Y-65061829D01*
X156789805Y-64989257D01*
X156871448Y-64336114D01*
X157501912Y-65098114D02*
X157551805Y-64698971D01*
X157524590Y-64626400D01*
X157456555Y-64590114D01*
X157311412Y-64590114D01*
X157234305Y-64626400D01*
X157506447Y-65061829D02*
X157429341Y-65098114D01*
X157247912Y-65098114D01*
X157179876Y-65061829D01*
X157152662Y-64989257D01*
X157161733Y-64916686D01*
X157207091Y-64844114D01*
X157284197Y-64807829D01*
X157465626Y-64807829D01*
X157542733Y-64771543D01*
X157864770Y-65098114D02*
X157928270Y-64590114D01*
X157910127Y-64735257D02*
X157955483Y-64662686D01*
X157996305Y-64626400D01*
X158073412Y-64590114D01*
X158145984Y-64590114D01*
X158336484Y-65098114D02*
X158431734Y-64336114D01*
X158445340Y-64807829D02*
X158626769Y-65098114D01*
X158690269Y-64590114D02*
X158363698Y-64880400D01*
X159248161Y-65061829D02*
X159171055Y-65098114D01*
X159025912Y-65098114D01*
X158957876Y-65061829D01*
X158930662Y-64989257D01*
X158966948Y-64698971D01*
X159012305Y-64626400D01*
X159089412Y-64590114D01*
X159234555Y-64590114D01*
X159302590Y-64626400D01*
X159329805Y-64698971D01*
X159320733Y-64771543D01*
X158948805Y-64844114D01*
X152993411Y-65954457D02*
X152961661Y-65918171D01*
X152893625Y-65881886D01*
X152821053Y-65881886D01*
X152743947Y-65918171D01*
X152703125Y-65954457D01*
X152657767Y-66027029D01*
X152648696Y-66099600D01*
X152675911Y-66172171D01*
X152707661Y-66208457D01*
X152775696Y-66244743D01*
X152848268Y-66244743D01*
X152925375Y-66208457D01*
X152966197Y-66172171D01*
X153002482Y-65881886D02*
X152966197Y-66172171D01*
X152997947Y-66208457D01*
X153034232Y-66208457D01*
X153111340Y-66172171D01*
X153156696Y-66099600D01*
X153179375Y-65918171D01*
X153120411Y-65809314D01*
X153020625Y-65736743D01*
X152880018Y-65700457D01*
X152730339Y-65736743D01*
X152612411Y-65809314D01*
X152526233Y-65918171D01*
X152471804Y-66063314D01*
X152489947Y-66208457D01*
X152548911Y-66317314D01*
X152648696Y-66389886D01*
X152789304Y-66426171D01*
X152938982Y-66389886D01*
X153056911Y-66317314D01*
X153846125Y-65809314D02*
X153769018Y-66426171D01*
X153723660Y-66498743D01*
X153682839Y-66535029D01*
X153605732Y-66571314D01*
X153496875Y-66571314D01*
X153428839Y-66535029D01*
X153787160Y-66281029D02*
X153710054Y-66317314D01*
X153564911Y-66317314D01*
X153496874Y-66281029D01*
X153465125Y-66244743D01*
X153437911Y-66172171D01*
X153465125Y-65954457D01*
X153510482Y-65881886D01*
X153551303Y-65845600D01*
X153628411Y-65809314D01*
X153773554Y-65809314D01*
X153841589Y-65845600D01*
X154145483Y-66317314D02*
X154208983Y-65809314D01*
X154199911Y-65881886D02*
X154240732Y-65845600D01*
X154317840Y-65809314D01*
X154426697Y-65809314D01*
X154494732Y-65845600D01*
X154521947Y-65918171D01*
X154472054Y-66317314D01*
X154521947Y-65918171D02*
X154567304Y-65845600D01*
X154644411Y-65809314D01*
X154753268Y-65809314D01*
X154821304Y-65845600D01*
X154848518Y-65918171D01*
X154798625Y-66317314D01*
X155488054Y-66317314D02*
X155537947Y-65918171D01*
X155510732Y-65845600D01*
X155442697Y-65809314D01*
X155297554Y-65809314D01*
X155220447Y-65845600D01*
X155492589Y-66281029D02*
X155415483Y-66317314D01*
X155234054Y-66317314D01*
X155166018Y-66281029D01*
X155138804Y-66208457D01*
X155147875Y-66135886D01*
X155193233Y-66063314D01*
X155270339Y-66027029D01*
X155451768Y-66027029D01*
X155528875Y-65990743D01*
X155850912Y-66317314D02*
X155914412Y-65809314D01*
X155946162Y-65555314D02*
X155905340Y-65591600D01*
X155937090Y-65627886D01*
X155977911Y-65591600D01*
X155946162Y-65555314D01*
X155937090Y-65627886D01*
X156322626Y-66317314D02*
X156254589Y-66281029D01*
X156227376Y-66208457D01*
X156309019Y-65555314D01*
X156621983Y-66244743D02*
X156653732Y-66281029D01*
X156612912Y-66317314D01*
X156581161Y-66281029D01*
X156621983Y-66244743D01*
X156612912Y-66317314D01*
X157306875Y-66281029D02*
X157229769Y-66317314D01*
X157084626Y-66317314D01*
X157016589Y-66281029D01*
X156984840Y-66244743D01*
X156957626Y-66172171D01*
X156984840Y-65954457D01*
X157030197Y-65881886D01*
X157071018Y-65845600D01*
X157148126Y-65809314D01*
X157293269Y-65809314D01*
X157361304Y-65845600D01*
X157737769Y-66317314D02*
X157669732Y-66281029D01*
X157637983Y-66244743D01*
X157610769Y-66172171D01*
X157637983Y-65954457D01*
X157683340Y-65881886D01*
X157724161Y-65845600D01*
X157801269Y-65809314D01*
X157910126Y-65809314D01*
X157978161Y-65845600D01*
X158009911Y-65881886D01*
X158037126Y-65954457D01*
X158009912Y-66172171D01*
X157964554Y-66244743D01*
X157923732Y-66281029D01*
X157846626Y-66317314D01*
X157737769Y-66317314D01*
X158318341Y-66317314D02*
X158381841Y-65809314D01*
X158372769Y-65881886D02*
X158413590Y-65845600D01*
X158490698Y-65809314D01*
X158599555Y-65809314D01*
X158667590Y-65845600D01*
X158694805Y-65918171D01*
X158644912Y-66317314D01*
X158694805Y-65918171D02*
X158740162Y-65845600D01*
X158817269Y-65809314D01*
X158926126Y-65809314D01*
X158994162Y-65845600D01*
X159021376Y-65918171D01*
X158971483Y-66317314D01*
X160502286Y-68362619D02*
X159921715Y-68362619D01*
X160212001Y-68362619D02*
X160212001Y-67346619D01*
X160115239Y-67491762D01*
X160018477Y-67588524D01*
X159921715Y-67636905D01*
D12*
X170365953Y-72039571D02*
X171140048Y-72039571D01*
X170365953Y-80675571D02*
X171140048Y-80675571D01*
X170753000Y-81062619D02*
X170753000Y-80288524D01*
X168587953Y-65308571D02*
X169362048Y-65308571D01*
X160078953Y-65308571D02*
X160853048Y-65308571D01*
X160466000Y-65695619D02*
X160466000Y-64921524D01*
D11*
X151999333Y-71295714D02*
X151999333Y-70811905D01*
X152289619Y-71392476D02*
X151273619Y-71053809D01*
X152289619Y-70715143D01*
X151273619Y-70182952D02*
X151273619Y-70086191D01*
X151322000Y-69989429D01*
X151370381Y-69941048D01*
X151467143Y-69892667D01*
X151660667Y-69844286D01*
X151902571Y-69844286D01*
X152096095Y-69892667D01*
X152192857Y-69941048D01*
X152241238Y-69989429D01*
X152289619Y-70086191D01*
X152289619Y-70182952D01*
X152241238Y-70279714D01*
X152192857Y-70328095D01*
X152096095Y-70376476D01*
X151902571Y-70424857D01*
X151660667Y-70424857D01*
X151467143Y-70376476D01*
X151370381Y-70328095D01*
X151322000Y-70279714D01*
X151273619Y-70182952D01*
D12*
X151188953Y-76103571D02*
X151963048Y-76103571D01*
X151576000Y-76490619D02*
X151576000Y-75716524D01*
X151188953Y-78643571D02*
X151963048Y-78643571D01*
X156141953Y-84739571D02*
X156916048Y-84739571D01*
D11*
X161850906Y-84237619D02*
X162044429Y-84237619D01*
X162141191Y-84286000D01*
X162237953Y-84382762D01*
X162286334Y-84576286D01*
X162286334Y-84914952D01*
X162237953Y-85108476D01*
X162141191Y-85205238D01*
X162044429Y-85253619D01*
X161850906Y-85253619D01*
X161754144Y-85205238D01*
X161657382Y-85108476D01*
X161609001Y-84914952D01*
X161609001Y-84576286D01*
X161657382Y-84382762D01*
X161754144Y-84286000D01*
X161850906Y-84237619D01*
X162721763Y-85253619D02*
X162721763Y-84237619D01*
X163302334Y-85253619D01*
X163302334Y-84237619D01*
X165527858Y-84237619D02*
X165721381Y-84237619D01*
X165818143Y-84286000D01*
X165914905Y-84382762D01*
X165963286Y-84576286D01*
X165963286Y-84914952D01*
X165914905Y-85108476D01*
X165818143Y-85205238D01*
X165721381Y-85253619D01*
X165527858Y-85253619D01*
X165431096Y-85205238D01*
X165334334Y-85108476D01*
X165285953Y-84914952D01*
X165285953Y-84576286D01*
X165334334Y-84382762D01*
X165431096Y-84286000D01*
X165527858Y-84237619D01*
X166737381Y-84721429D02*
X166398715Y-84721429D01*
X166398715Y-85253619D02*
X166398715Y-84237619D01*
X166882524Y-84237619D01*
X167608238Y-84721429D02*
X167269572Y-84721429D01*
X167269572Y-85253619D02*
X167269572Y-84237619D01*
X167753381Y-84237619D01*
D12*
X158808953Y-84739571D02*
X159583048Y-84739571D01*
X159196000Y-85126619D02*
X159196000Y-84352524D01*
D11*
X151273619Y-69160904D02*
X151273619Y-68531952D01*
X151660667Y-68870618D01*
X151660667Y-68725476D01*
X151709048Y-68628714D01*
X151757429Y-68580333D01*
X151854190Y-68531952D01*
X152096095Y-68531952D01*
X152192857Y-68580333D01*
X152241238Y-68628714D01*
X152289619Y-68725476D01*
X152289619Y-69015761D01*
X152241238Y-69112523D01*
X152192857Y-69160904D01*
X151273619Y-68241666D02*
X152289619Y-67902999D01*
X151273619Y-67564333D01*
X151273619Y-67322428D02*
X151273619Y-66693476D01*
X151660667Y-67032142D01*
X151660667Y-66887000D01*
X151709048Y-66790238D01*
X151757429Y-66741857D01*
X151854190Y-66693476D01*
X152096095Y-66693476D01*
X152192857Y-66741857D01*
X152241238Y-66790238D01*
X152289619Y-66887000D01*
X152289619Y-67177285D01*
X152241238Y-67274047D01*
X152192857Y-67322428D01*
X155234809Y-83179286D02*
X155234809Y-83856619D01*
X154992905Y-82792238D02*
X154751000Y-83517952D01*
X155379952Y-83517952D01*
X155767000Y-83759857D02*
X155815381Y-83808238D01*
X155767000Y-83856619D01*
X155718619Y-83808238D01*
X155767000Y-83759857D01*
X155767000Y-83856619D01*
X156734619Y-82840619D02*
X156250810Y-82840619D01*
X156202429Y-83324429D01*
X156250810Y-83276048D01*
X156347572Y-83227667D01*
X156589476Y-83227667D01*
X156686238Y-83276048D01*
X156734619Y-83324429D01*
X156783000Y-83421190D01*
X156783000Y-83663095D01*
X156734619Y-83759857D01*
X156686238Y-83808238D01*
X156589476Y-83856619D01*
X156347572Y-83856619D01*
X156250810Y-83808238D01*
X156202429Y-83759857D01*
X157218429Y-83469571D02*
X157992524Y-83469571D01*
X159008524Y-83856619D02*
X158427953Y-83856619D01*
X158718239Y-83856619D02*
X158718239Y-82840619D01*
X158621477Y-82985762D01*
X158524715Y-83082524D01*
X158427953Y-83130905D01*
X159637477Y-82840619D02*
X159734238Y-82840619D01*
X159831000Y-82889000D01*
X159879381Y-82937381D01*
X159927762Y-83034143D01*
X159976143Y-83227667D01*
X159976143Y-83469571D01*
X159927762Y-83663095D01*
X159879381Y-83759857D01*
X159831000Y-83808238D01*
X159734238Y-83856619D01*
X159637477Y-83856619D01*
X159540715Y-83808238D01*
X159492334Y-83759857D01*
X159443953Y-83663095D01*
X159395572Y-83469571D01*
X159395572Y-83227667D01*
X159443953Y-83034143D01*
X159492334Y-82937381D01*
X159540715Y-82889000D01*
X159637477Y-82840619D01*
X160266429Y-82840619D02*
X160605096Y-83856619D01*
X160943762Y-82840619D01*
X151309905Y-74077619D02*
X151309905Y-73061619D01*
X151551810Y-73061619D01*
X151696952Y-73110000D01*
X151793714Y-73206762D01*
X151842095Y-73303524D01*
X151890476Y-73497048D01*
X151890476Y-73642190D01*
X151842095Y-73835714D01*
X151793714Y-73932476D01*
X151696952Y-74029238D01*
X151551810Y-74077619D01*
X151309905Y-74077619D01*
D13*
X147613000Y-78698000D02*
X147613000Y-80248000D01*
X147613000Y-80248000D02*
X150713000Y-80248000D01*
X150713000Y-80248000D02*
X150713000Y-78698000D01*
X147893000Y-77428000D02*
X147893000Y-72348000D01*
X147893000Y-72348000D02*
X150433000Y-72348000D01*
X150433000Y-72348000D02*
X150433000Y-77428000D01*
X150433000Y-77428000D02*
X147893000Y-77428000D01*
X161982000Y-70355000D02*
X160982000Y-70355000D01*
X160982000Y-72055000D02*
X161982000Y-72055000D01*
X154610000Y-69208000D02*
X154610000Y-70408000D01*
X152860000Y-70408000D02*
X152860000Y-69208000D01*
X163641000Y-69173000D02*
X168721000Y-69173000D01*
X160821000Y-69453000D02*
X160821000Y-67903000D01*
X161101000Y-66633000D02*
X163641000Y-66633000D01*
X163641000Y-66633000D02*
X163641000Y-69173000D01*
X168721000Y-69173000D02*
X168721000Y-64093000D01*
X168721000Y-64093000D02*
X163641000Y-64093000D01*
X160821000Y-69453000D02*
X162371000Y-69453000D01*
X161101000Y-64093000D02*
X161101000Y-66633000D01*
X163641000Y-64093000D02*
X161101000Y-64093000D01*
X150701000Y-83235000D02*
X150701000Y-82035000D01*
X152451000Y-82035000D02*
X152451000Y-83235000D01*
X149925000Y-81017020D02*
X149925000Y-82160020D01*
X149925000Y-83811020D02*
X149925000Y-83176020D01*
X149963000Y-82568020D02*
X149963000Y-82868020D01*
X149563000Y-82868020D02*
X149963000Y-82568020D01*
X149963000Y-82568020D02*
X149663000Y-82468020D01*
X148413000Y-81068020D02*
X148413000Y-83768020D01*
X149013000Y-82568020D02*
X149263000Y-82568020D01*
X149263000Y-82568020D02*
X149113000Y-82418020D01*
X149513000Y-82318020D02*
X148813000Y-82318020D01*
X149163000Y-82668020D02*
X149163000Y-83018020D01*
X149163000Y-82318020D02*
X149513000Y-82668020D01*
X149513000Y-82668020D02*
X148813000Y-82668020D01*
X148813000Y-82668020D02*
X149163000Y-82318020D01*
X160593000Y-88223000D02*
X160593000Y-85683000D01*
X160593000Y-85683000D02*
X168213000Y-85683000D01*
X168213000Y-85683000D02*
X168213000Y-88223000D01*
X168213000Y-88223000D02*
X160593000Y-88223000D01*
X163133000Y-85683000D02*
X163133000Y-88223000D01*
X157583100Y-81238000D02*
X157964100Y-81238000D01*
X156567100Y-81238000D02*
X156948100Y-81238000D01*
X156948100Y-81238000D02*
X157583100Y-80857000D01*
X157583100Y-80857000D02*
X157583100Y-81619000D01*
X157583100Y-81619000D02*
X156948100Y-81238000D01*
X156948100Y-80730000D02*
X156948100Y-81746000D01*
X155265600Y-82138000D02*
X158805600Y-82138000D01*
X155265600Y-80338000D02*
X158805600Y-80338000D01*
X157583100Y-79079000D02*
X157964100Y-79079000D01*
X156567100Y-79079000D02*
X156948100Y-79079000D01*
X156948100Y-79079000D02*
X157583100Y-78698000D01*
X157583100Y-78698000D02*
X157583100Y-79460000D01*
X157583100Y-79460000D02*
X156948100Y-79079000D01*
X156948100Y-78571000D02*
X156948100Y-79587000D01*
X155265600Y-79979000D02*
X158805600Y-79979000D01*
X155265600Y-78179000D02*
X158805600Y-78179000D01*
X159323000Y-72475000D02*
X159323000Y-77555000D01*
X159323000Y-77555000D02*
X154751000Y-77555000D01*
X154751000Y-77555000D02*
X154751000Y-72475000D01*
X154751000Y-72475000D02*
X159323000Y-72475000D01*
X157799000Y-72475000D02*
X157799000Y-72983000D01*
X157799000Y-72983000D02*
X156529000Y-72983000D01*
X156529000Y-72983000D02*
X156529000Y-72475000D01*
X150713000Y-68893000D02*
X150713000Y-70443000D01*
X147613000Y-70443000D02*
X147613000Y-68893000D01*
X147613000Y-68893000D02*
X150713000Y-68893000D01*
X147893000Y-71713000D02*
X150433000Y-71713000D01*
X150713000Y-66353000D02*
X150713000Y-67903000D01*
X147613000Y-67903000D02*
X147613000Y-66353000D01*
X147613000Y-66353000D02*
X150713000Y-66353000D01*
X147893000Y-69173000D02*
X150433000Y-69173000D01*
X157799000Y-85683000D02*
X160339000Y-85683000D01*
X154979000Y-85403000D02*
X156529000Y-85403000D01*
X157799000Y-85683000D02*
X157799000Y-88223000D01*
X156529000Y-88503000D02*
X154979000Y-88503000D01*
X154979000Y-88503000D02*
X154979000Y-85403000D01*
X157799000Y-88223000D02*
X160339000Y-88223000D01*
X160339000Y-88223000D02*
X160339000Y-85683000D01*
X166793000Y-83152000D02*
X166933000Y-82882000D01*
X166933000Y-82882000D02*
X167053000Y-82692000D01*
X167053000Y-82692000D02*
X167223000Y-82502000D01*
X167223000Y-82502000D02*
X167403000Y-82332000D01*
X167403000Y-82332000D02*
X167083000Y-82372000D01*
X167083000Y-82372000D02*
X166963000Y-82502000D01*
X166963000Y-82502000D02*
X166763000Y-82742000D01*
X165873000Y-78612000D02*
X166323000Y-79672000D01*
X166323000Y-79672000D02*
X166603000Y-80122000D01*
X166603000Y-80122000D02*
X166763000Y-80572000D01*
X166763000Y-80572000D02*
X166763000Y-81012000D01*
X166763000Y-81012000D02*
X166763000Y-81522000D01*
X166763000Y-81522000D02*
X166603000Y-82082000D01*
X166603000Y-82082000D02*
X166603000Y-82472000D01*
X166603000Y-82472000D02*
X166823000Y-83422000D01*
X166823000Y-83422000D02*
X166933000Y-83862000D01*
X166933000Y-83862000D02*
X166883000Y-83862000D01*
X165883000Y-76082000D02*
X165733000Y-76202000D01*
X165733000Y-76202000D02*
X165643000Y-76392000D01*
X165643000Y-76392000D02*
X165743000Y-76492000D01*
X165743000Y-76492000D02*
X165903000Y-76552000D01*
X165903000Y-76552000D02*
X166083000Y-76512000D01*
X166083000Y-76512000D02*
X166203000Y-76342000D01*
X166203000Y-76342000D02*
X166173000Y-76222000D01*
X166173000Y-76222000D02*
X166083000Y-76112000D01*
X166083000Y-76112000D02*
X165903000Y-76072000D01*
X164663000Y-76202000D02*
X164543000Y-76422000D01*
X164543000Y-76422000D02*
X164523000Y-76572000D01*
X164523000Y-76572000D02*
X164623000Y-76662000D01*
X164623000Y-76662000D02*
X164773000Y-76742000D01*
X164773000Y-76742000D02*
X164923000Y-76642000D01*
X164923000Y-76642000D02*
X165043000Y-76492000D01*
X165043000Y-76492000D02*
X165063000Y-76392000D01*
X165063000Y-76392000D02*
X164953000Y-76312000D01*
X164953000Y-76312000D02*
X164693000Y-76252000D01*
X164813000Y-77242000D02*
X165153000Y-77512000D01*
X165153000Y-77512000D02*
X165303000Y-77582000D01*
X165303000Y-77582000D02*
X165493000Y-77582000D01*
X165493000Y-77582000D02*
X165643000Y-77582000D01*
X165643000Y-77582000D02*
X165803000Y-77582000D01*
X165803000Y-77582000D02*
X165953000Y-77512000D01*
X165953000Y-77512000D02*
X166183000Y-77322000D01*
X166183000Y-77322000D02*
X166293000Y-77122000D01*
X166293000Y-77122000D02*
X166413000Y-76902000D01*
X166413000Y-76902000D02*
X166333000Y-76972000D01*
X166943000Y-77162000D02*
X167363000Y-77662000D01*
X167363000Y-77662000D02*
X167593000Y-78192000D01*
X167593000Y-78192000D02*
X167593000Y-78652000D01*
X167593000Y-78652000D02*
X167403000Y-78922000D01*
X167403000Y-78922000D02*
X167053000Y-79182000D01*
X167053000Y-79182000D02*
X166713000Y-79182000D01*
X166713000Y-79182000D02*
X166413000Y-79032000D01*
X166413000Y-79032000D02*
X166223000Y-78842000D01*
X166223000Y-78842000D02*
X165993000Y-78462000D01*
X165993000Y-78462000D02*
X165833000Y-78232000D01*
X166603000Y-75942000D02*
X167243000Y-75752000D01*
X167243000Y-75752000D02*
X167743000Y-75722000D01*
X167743000Y-75722000D02*
X168273000Y-76062000D01*
X168273000Y-76062000D02*
X168353000Y-76482000D01*
X168353000Y-76482000D02*
X168353000Y-76782000D01*
X168353000Y-76782000D02*
X168203000Y-77092000D01*
X168203000Y-77092000D02*
X167853000Y-77202000D01*
X167853000Y-77202000D02*
X167553000Y-77282000D01*
X167553000Y-77282000D02*
X167213000Y-77242000D01*
X167213000Y-77242000D02*
X166983000Y-77162000D01*
X166983000Y-77162000D02*
X166823000Y-77092000D01*
X164273000Y-77662000D02*
X164123000Y-78232000D01*
X164123000Y-78232000D02*
X164083000Y-78802000D01*
X164083000Y-78802000D02*
X164353000Y-79332000D01*
X164353000Y-79332000D02*
X164843000Y-79642000D01*
X164843000Y-79642000D02*
X165423000Y-79532000D01*
X165423000Y-79532000D02*
X165643000Y-79182000D01*
X165643000Y-79182000D02*
X165763000Y-78842000D01*
X165763000Y-78842000D02*
X165833000Y-78502000D01*
X165833000Y-78502000D02*
X165833000Y-78232000D01*
X164123000Y-76212000D02*
X163593000Y-76442000D01*
X163593000Y-76442000D02*
X163173000Y-76712000D01*
X163173000Y-76712000D02*
X163013000Y-77012000D01*
X163013000Y-77012000D02*
X162943000Y-77282000D01*
X162943000Y-77282000D02*
X162943000Y-77542000D01*
X162943000Y-77542000D02*
X163013000Y-77772000D01*
X163013000Y-77772000D02*
X163363000Y-78082000D01*
X163363000Y-78082000D02*
X163743000Y-78082000D01*
X163743000Y-78082000D02*
X163933000Y-77962000D01*
X163933000Y-77962000D02*
X164203000Y-77662000D01*
X164203000Y-77662000D02*
X164273000Y-77662000D01*
X165493000Y-75412000D02*
X165153000Y-74802000D01*
X165153000Y-74802000D02*
X164813000Y-74612000D01*
X164813000Y-74612000D02*
X164233000Y-74532000D01*
X164233000Y-74532000D02*
X163813000Y-74692000D01*
X163813000Y-74692000D02*
X163513000Y-74992000D01*
X163513000Y-74992000D02*
X163403000Y-75602000D01*
X163403000Y-75602000D02*
X163593000Y-76022000D01*
X163593000Y-76022000D02*
X163853000Y-76172000D01*
X163853000Y-76172000D02*
X164083000Y-76212000D01*
X164083000Y-76212000D02*
X164163000Y-76212000D01*
X164163000Y-76212000D02*
X164163000Y-76252000D01*
X165493000Y-75372000D02*
X165643000Y-74992000D01*
X165643000Y-74992000D02*
X165873000Y-74802000D01*
X165873000Y-74802000D02*
X166223000Y-74502000D01*
X166223000Y-74502000D02*
X166603000Y-74462000D01*
X166603000Y-74462000D02*
X166983000Y-74612000D01*
X166983000Y-74612000D02*
X167133000Y-74912000D01*
X167133000Y-74912000D02*
X167173000Y-75262000D01*
X167173000Y-75262000D02*
X167133000Y-75452000D01*
X167133000Y-75452000D02*
X166983000Y-75602000D01*
X166983000Y-75602000D02*
X166793000Y-75682000D01*
X166793000Y-75682000D02*
X166563000Y-75792000D01*
X166917214Y-76812000D02*
G75*
G03X166917214Y-76812000I-1414214J0D01*
G01*
X164542000Y-82166000D02*
X163542000Y-82166000D01*
X163542000Y-83866000D02*
X164542000Y-83866000D01*
D11*
X157877619Y-71858142D02*
X157877619Y-71761381D01*
X157926000Y-71664619D01*
X157974381Y-71616238D01*
X158071143Y-71567857D01*
X158264667Y-71519476D01*
X158506571Y-71519476D01*
X158700095Y-71567857D01*
X158796857Y-71616238D01*
X158845238Y-71664619D01*
X158893619Y-71761381D01*
X158893619Y-71858142D01*
X158845238Y-71954904D01*
X158796857Y-72003285D01*
X158700095Y-72051666D01*
X158506571Y-72100047D01*
X158264667Y-72100047D01*
X158071143Y-72051666D01*
X157974381Y-72003285D01*
X157926000Y-71954904D01*
X157877619Y-71858142D01*
X158796857Y-71084047D02*
X158845238Y-71035666D01*
X158893619Y-71084047D01*
X158845238Y-71132428D01*
X158796857Y-71084047D01*
X158893619Y-71084047D01*
X158893619Y-70068047D02*
X158893619Y-70648618D01*
X158893619Y-70358332D02*
X157877619Y-70358332D01*
X158022762Y-70455094D01*
X158119524Y-70551856D01*
X158167905Y-70648618D01*
X158216286Y-69197190D02*
X158893619Y-69197190D01*
X158216286Y-69632618D02*
X158748476Y-69632618D01*
X158845238Y-69584237D01*
X158893619Y-69487475D01*
X158893619Y-69342333D01*
X158845238Y-69245571D01*
X158796857Y-69197190D01*
X158361429Y-68374714D02*
X158361429Y-68713380D01*
X158893619Y-68713380D02*
X157877619Y-68713380D01*
X157877619Y-68229571D01*
X155972619Y-70509524D02*
X155972619Y-71090095D01*
X155972619Y-70799809D02*
X154956619Y-70799809D01*
X155101762Y-70896571D01*
X155198524Y-70993333D01*
X155246905Y-71090095D01*
X154956619Y-69880571D02*
X154956619Y-69783810D01*
X155005000Y-69687048D01*
X155053381Y-69638667D01*
X155150143Y-69590286D01*
X155343667Y-69541905D01*
X155585571Y-69541905D01*
X155779095Y-69590286D01*
X155875857Y-69638667D01*
X155924238Y-69687048D01*
X155972619Y-69783810D01*
X155972619Y-69880571D01*
X155924238Y-69977333D01*
X155875857Y-70025714D01*
X155779095Y-70074095D01*
X155585571Y-70122476D01*
X155343667Y-70122476D01*
X155150143Y-70074095D01*
X155053381Y-70025714D01*
X155005000Y-69977333D01*
X154956619Y-69880571D01*
X155972619Y-69106476D02*
X154956619Y-69106476D01*
X155972619Y-68525905D02*
X155392048Y-68961333D01*
X154956619Y-68525905D02*
X155537190Y-69106476D01*
X153106048Y-83826380D02*
X153057667Y-83923142D01*
X153009286Y-83971523D01*
X152912524Y-84019904D01*
X152864143Y-84019904D01*
X152767381Y-83971523D01*
X152719000Y-83923142D01*
X152670619Y-83826380D01*
X152670619Y-83632857D01*
X152719000Y-83536095D01*
X152767381Y-83487714D01*
X152864143Y-83439333D01*
X152912524Y-83439333D01*
X153009286Y-83487714D01*
X153057667Y-83536095D01*
X153106048Y-83632857D01*
X153106048Y-83826380D01*
X153154429Y-83923142D01*
X153202810Y-83971523D01*
X153299571Y-84019904D01*
X153493095Y-84019904D01*
X153589857Y-83971523D01*
X153638238Y-83923142D01*
X153686619Y-83826380D01*
X153686619Y-83632857D01*
X153638238Y-83536095D01*
X153589857Y-83487714D01*
X153493095Y-83439333D01*
X153299571Y-83439333D01*
X153202810Y-83487714D01*
X153154429Y-83536095D01*
X153106048Y-83632857D01*
X152767381Y-83052285D02*
X152719000Y-83003904D01*
X152670619Y-82907142D01*
X152670619Y-82665238D01*
X152719000Y-82568476D01*
X152767381Y-82520095D01*
X152864143Y-82471714D01*
X152960905Y-82471714D01*
X153106048Y-82520095D01*
X153686619Y-83100666D01*
X153686619Y-82471714D01*
X152670619Y-81842761D02*
X152670619Y-81746000D01*
X152719000Y-81649238D01*
X152767381Y-81600857D01*
X152864143Y-81552476D01*
X153057667Y-81504095D01*
X153299571Y-81504095D01*
X153493095Y-81552476D01*
X153589857Y-81600857D01*
X153638238Y-81649238D01*
X153686619Y-81746000D01*
X153686619Y-81842761D01*
X153638238Y-81939523D01*
X153589857Y-81987904D01*
X153493095Y-82036285D01*
X153299571Y-82084666D01*
X153057667Y-82084666D01*
X152864143Y-82036285D01*
X152767381Y-81987904D01*
X152719000Y-81939523D01*
X152670619Y-81842761D01*
D13*
X156187810Y-75467381D02*
X156187810Y-74467381D01*
X157235429Y-75372143D02*
X157187810Y-75419762D01*
X157044953Y-75467381D01*
X156949715Y-75467381D01*
X156806857Y-75419762D01*
X156711619Y-75324524D01*
X156664000Y-75229286D01*
X156616381Y-75038810D01*
X156616381Y-74895952D01*
X156664000Y-74705476D01*
X156711619Y-74610238D01*
X156806857Y-74515000D01*
X156949715Y-74467381D01*
X157044953Y-74467381D01*
X157187810Y-74515000D01*
X157235429Y-74562619D01*
X158187810Y-75467381D02*
X157616381Y-75467381D01*
X157902095Y-75467381D02*
X157902095Y-74467381D01*
X157806857Y-74610238D01*
X157711619Y-74705476D01*
X157616381Y-74753095D01*
X162843572Y-81690381D02*
X162272143Y-81690381D01*
X162557857Y-81690381D02*
X162557857Y-80690381D01*
X162462619Y-80833238D01*
X162367381Y-80928476D01*
X162272143Y-80976095D01*
X163462619Y-80690381D02*
X163557858Y-80690381D01*
X163653096Y-80738000D01*
X163700715Y-80785619D01*
X163748334Y-80880857D01*
X163795953Y-81071333D01*
X163795953Y-81309429D01*
X163748334Y-81499905D01*
X163700715Y-81595143D01*
X163653096Y-81642762D01*
X163557858Y-81690381D01*
X163462619Y-81690381D01*
X163367381Y-81642762D01*
X163319762Y-81595143D01*
X163272143Y-81499905D01*
X163224524Y-81309429D01*
X163224524Y-81071333D01*
X163272143Y-80880857D01*
X163319762Y-80785619D01*
X163367381Y-80738000D01*
X163462619Y-80690381D01*
X164653096Y-81023714D02*
X164653096Y-81690381D01*
X164224524Y-81023714D02*
X164224524Y-81547524D01*
X164272143Y-81642762D01*
X164367381Y-81690381D01*
X164510239Y-81690381D01*
X164605477Y-81642762D01*
X164653096Y-81595143D01*
X165462620Y-81166571D02*
X165129286Y-81166571D01*
X165129286Y-81690381D02*
X165129286Y-80690381D01*
X165605477Y-80690381D01*
%LPC*%
D10*
X171013000Y-70703000D02*
X171173000Y-70183000D01*
X171053000Y-70483000D02*
X171013000Y-70703000D01*
X170933000Y-70203000D02*
X171053000Y-70483000D01*
X170713000Y-69903000D02*
X170933000Y-70203000D01*
X170623000Y-69473000D02*
X170713000Y-69903000D01*
X170993000Y-69483000D02*
X170993000Y-69313000D01*
X171013000Y-69583000D02*
X170993000Y-69483000D01*
X170963000Y-69673000D02*
X171013000Y-69583000D01*
X170843000Y-69703000D02*
X170963000Y-69673000D01*
X170723000Y-69573000D02*
X170843000Y-69703000D01*
X170653000Y-69383000D02*
X170723000Y-69573000D01*
X171173000Y-69383000D02*
X171083000Y-69253000D01*
X171303000Y-69413000D02*
X171173000Y-69383000D01*
X171413000Y-69373000D02*
X171303000Y-69413000D01*
X171453000Y-69273000D02*
X171413000Y-69373000D01*
X171453000Y-69133000D02*
X171453000Y-69273000D01*
X171353000Y-68993000D02*
X171453000Y-69133000D01*
X171173000Y-68883000D02*
X171353000Y-68993000D01*
X171273000Y-68853000D02*
X171173000Y-68853000D01*
X171423000Y-68843000D02*
X171273000Y-68853000D01*
X171523000Y-68773000D02*
X171423000Y-68843000D01*
X171503000Y-68623000D02*
X171523000Y-68773000D01*
X171393000Y-68523000D02*
X171503000Y-68623000D01*
X171023000Y-68533000D02*
X171393000Y-68523000D01*
X171143000Y-68403000D02*
X171053000Y-68543000D01*
X171163000Y-68293000D02*
X171143000Y-68403000D01*
X171113000Y-68183000D02*
X171163000Y-68293000D01*
X170943000Y-68153000D02*
X171113000Y-68183000D01*
X170783000Y-68213000D02*
X170943000Y-68153000D01*
X170693000Y-68483000D02*
X170783000Y-68213000D01*
X170593000Y-69393000D02*
X170583000Y-69363000D01*
X170623000Y-69373000D02*
X170593000Y-69393000D01*
X170603000Y-69393000D02*
X170623000Y-69373000D01*
X170583000Y-69503000D02*
X170603000Y-69393000D01*
X170523000Y-69613000D02*
X170583000Y-69503000D01*
X170403000Y-69653000D02*
X170523000Y-69613000D01*
X170293000Y-69613000D02*
X170403000Y-69653000D01*
X170283000Y-69423000D02*
X170293000Y-69613000D01*
X170363000Y-69223000D02*
X170283000Y-69423000D01*
X170093000Y-69263000D02*
X170343000Y-69203000D01*
X169973000Y-69183000D02*
X170093000Y-69263000D01*
X169933000Y-69053000D02*
X169973000Y-69183000D01*
X170023000Y-68903000D02*
X169933000Y-69053000D01*
X170293000Y-68853000D02*
X170023000Y-68903000D01*
X170073000Y-68733000D02*
X170283000Y-68783000D01*
X169963000Y-68563000D02*
X170073000Y-68733000D01*
X170073000Y-68373000D02*
X169963000Y-68563000D01*
X170353000Y-68303000D02*
X170073000Y-68373000D01*
X170623000Y-68443000D02*
X170353000Y-68303000D01*
D14*
X170793000Y-69113000D02*
X170913000Y-69023000D01*
X170663000Y-69123000D02*
X170793000Y-69113000D01*
X170543000Y-69053000D02*
X170663000Y-69123000D01*
D13*
X170624623Y-68833000D02*
G75*
G03X170624623Y-68833000I-31623J0D01*
G01*
D15*
X171143000Y-68913000D02*
G75*
G03X171143000Y-68913000I-410000J0D01*
G01*
D13*
X170904623Y-68833000D02*
G75*
G03X170904623Y-68833000I-31623J0D01*
G01*
D16*
X170753000Y-73618000D03*
D17*
X170753000Y-76158000D03*
X170753000Y-78698000D03*
D16*
X149163000Y-78698000D03*
D17*
X149163000Y-76158000D03*
X149163000Y-73618000D03*
D18*
X160232000Y-71205000D03*
X162732000Y-71205000D03*
D19*
X153735000Y-71158000D03*
X153735000Y-68458000D03*
D20*
X162371000Y-67903000D03*
D21*
X162371000Y-65363000D03*
X164911000Y-67903000D03*
X164911000Y-65363000D03*
X167451000Y-67903000D03*
X167451000Y-65363000D03*
D19*
X151576000Y-81285000D03*
X151576000Y-83985000D03*
D22*
X149163000Y-83717040D03*
X149163000Y-81619000D03*
D23*
X149163000Y-86953000D03*
X170753000Y-86953000D03*
X149163000Y-65363000D03*
X170753000Y-65363000D03*
D24*
X161863000Y-86953000D03*
D25*
X164403000Y-86953000D03*
X166943000Y-86953000D03*
D26*
X155182800Y-81238000D03*
X159323000Y-81238000D03*
X155182800Y-79079000D03*
X159323000Y-79079000D03*
D27*
X160339000Y-73110000D03*
X160339000Y-74380000D03*
X160339000Y-75650000D03*
X160339000Y-76920000D03*
X153735000Y-76920000D03*
X153735000Y-75650000D03*
X153735000Y-74380000D03*
X153735000Y-73110000D03*
D23*
X149163000Y-70443000D03*
X149163000Y-67903000D03*
D28*
X156529000Y-86953000D03*
D29*
X159069000Y-86953000D03*
D18*
X162792000Y-83016000D03*
X165292000Y-83016000D03*
M02*
